<?xml version="1.0" encoding="UTF-8" standalone="no"?>
<svg
   xmlns:dc="http://purl.org/dc/elements/1.1/"
   xmlns:cc="http://creativecommons.org/ns#"
   xmlns:rdf="http://www.w3.org/1999/02/22-rdf-syntax-ns#"
   xmlns:svg="http://www.w3.org/2000/svg"
   xmlns="http://www.w3.org/2000/svg"
   xmlns:sodipodi="http://sodipodi.sourceforge.net/DTD/sodipodi-0.dtd"
   xmlns:inkscape="http://www.inkscape.org/namespaces/inkscape"
   width="75.275597mm"
   height="91.520546mm"
   viewBox="0 0 75.275597 91.520543"
   version="1.1"
   id="svg1053"
   inkscape:version="1.0.1 (3bc2e813f5, 2020-09-07)"
   sodipodi:docname="clarkson-logo-athletic-2-year.svg">
  <defs
     id="defs1047">
    <pattern
       id="EMFhbasepattern"
       patternUnits="userSpaceOnUse"
       width="6"
       height="6"
       x="0"
       y="0" />
    <pattern
       id="EMFhbasepattern-2"
       patternUnits="userSpaceOnUse"
       width="6"
       height="6"
       x="0"
       y="0" />
    <pattern
       id="EMFhbasepattern-5"
       patternUnits="userSpaceOnUse"
       width="6"
       height="6"
       x="0"
       y="0" />
  </defs>
  <sodipodi:namedview
     id="base"
     pagecolor="#ffffff"
     bordercolor="#666666"
     borderopacity="1.0"
     inkscape:pageopacity="0.0"
     inkscape:pageshadow="2"
     inkscape:zoom="1.979899"
     inkscape:cx="58.453906"
     inkscape:cy="211.49229"
     inkscape:document-units="mm"
     inkscape:current-layer="layer1"
     inkscape:document-rotation="0"
     showgrid="false"
     fit-margin-top="0"
     fit-margin-left="0"
     fit-margin-right="0"
     fit-margin-bottom="0"
     inkscape:window-width="1920"
     inkscape:window-height="1186"
     inkscape:window-x="-11"
     inkscape:window-y="-11"
     inkscape:window-maximized="1"
     showguides="false" />
  <metadata
     id="metadata1050">
    <rdf:RDF>
      <cc:Work
         rdf:about="">
        <dc:format>image/svg+xml</dc:format>
        <dc:type
           rdf:resource="http://purl.org/dc/dcmitype/StillImage" />
        <dc:title></dc:title>
      </cc:Work>
    </rdf:RDF>
  </metadata>
  <g
     inkscape:label="Layer 1"
     inkscape:groupmode="layer"
     id="layer1"
     transform="translate(61.34577,31.222471)">
    <path
       id="path1108"
       style="fill:#000000;stroke-width:0.0387269"
       d="m -25.884419,-31.218441 c -1.269789,0.02986 -2.54489,0.112864 -3.788781,0.357126 -4.356226,0.796699 -8.548663,2.375436 -12.45901,4.435021 -2.770753,1.46838 -5.406251,3.171737 -7.872243,5.114402 -2.129812,1.698154 -4.111067,3.5883 -5.874618,5.665471 -1.974705,2.353149 -3.683157,4.980912 -4.688806,7.8992845 -0.418651,1.2171931 -0.706696,2.4858763 -0.760287,3.7750164 -0.02918,0.6385923 -0.0238,1.3026678 0.02906,1.9426559 0.06926,0.9358693 0.253452,1.85383381 0.594266,2.72666781 0.735265,1.98819389 2.072294,3.69913869 3.714518,5.02461819 1.043663,0.8469756 2.19175,1.541798 3.389384,2.1323176 0.642035,0.322812 1.288559,0.6366221 1.933285,0.9541457 V 34.451379 c 1.176702,1.065076 2.378085,2.103242 3.565889,3.156146 7.906421,6.959473 15.811419,13.921737 23.727402,20.868547 0.118796,0.100269 0.229653,0.210339 0.355871,0.301444 0.711229,-0.595373 1.398902,-1.219804 2.099281,-1.828493 8.370925,-7.358509 16.7443965,-14.718049 25.1052554,-22.089713 0.1509813,-0.132027 0.2993949,-0.266927 0.4484871,-0.401075 6.579e-4,-3.179745 0.00108,-6.359489 0.0018,-9.539234 1.0490362,-0.954221 2.1318143,-1.878354 3.3213667,-2.655007 0.999043,-0.681771 2.0654691,-1.258133 3.1645018,-1.760833 1.262471,-0.590993 2.544916,-1.138957 3.807624,-1.729656 C 12.242289,17.853014 10.53433,16.970357 8.8198946,16.101199 7.1183413,15.256349 5.385127,14.477583 3.6539089,13.695968 3.6373669,4.4527839 3.6413359,-4.7904785 3.5963359,-14.033586 c -0.00342,-0.289763 -0.00198,-0.579602 -0.010134,-0.86929 -1.5774363,-0.0412 -3.15587278,-0.02435 -4.7337475,-0.03254 -3.7430382,-0.0029 -7.4860785,-0.0014 -11.2291174,-0.0017 -1.149602,-0.718547 -2.354802,-1.330575 -3.625171,-1.802092 -0.567295,-0.215045 -1.169936,-0.394092 -1.761783,-0.569969 -0.277226,-0.55123 -0.643026,-1.053935 -1.080888,-1.488605 -0.09654,-0.10135 -0.193023,-0.202761 -0.289634,-0.304045 0.847812,-1.009776 1.569377,-2.143609 2.005516,-3.393194 0.50483,-1.482404 0.573452,-3.170832 -0.08558,-4.617808 -0.377426,-0.826917 -0.899995,-1.589847 -1.622561,-2.15697 -1.356323,-1.089151 -3.056935,-1.687004 -4.776348,-1.863349 -0.755254,-0.0825 -1.50963,-0.09832 -2.271214,-0.08525 z m 0.392986,1.85779 c 0.782447,0.0055 1.56962,0.02723 2.336788,0.195766 1.267486,0.246024 2.551626,0.723755 3.458578,1.67874 0.72244,0.744472 1.117924,1.785236 1.077527,2.821344 -0.04067,1.324236 -0.632055,2.570351 -1.399498,3.626297 -0.214745,0.276721 -0.40944,0.576561 -0.665849,0.815959 -0.197148,0.08728 -0.390717,-0.08924 -0.569694,-0.154771 -0.874305,-0.452703 -1.812424,-0.761832 -2.74519,-1.069614 -0.780038,0.235855 -1.551105,0.508079 -2.297496,0.83534 -0.375968,0.178416 -0.747061,0.366887 -1.119383,0.552754 -0.423217,-0.58151 -0.868926,-1.154484 -1.426236,-1.615229 -0.664886,-0.56663 -1.472166,-1.037215 -2.305673,-1.36148 -1.87533,-0.731814 -3.953214,-0.897743 -5.929685,-0.637264 -3.021848,0.395131 -5.861119,1.758996 -8.230751,3.648858 -1.780537,1.41332 -3.332072,3.100785 -4.687477,4.921533 -0.887606,1.222102 -1.678999,2.53856 -2.148334,3.981462 -0.406063,1.2823736 -0.424049,2.7355727 0.167147,3.9644533 0.469375,0.956528 1.243044,1.7289469 2.079015,2.3724632 1.560184,1.1544717 3.352062,1.9390576 5.177043,2.5837035 0.232249,0.097658 0.496012,0.1495003 0.694969,0.3092847 0.09549,0.1323481 -0.01944,0.3027524 -0.01957,0.4497512 -0.186239,1.10401146 -0.335197,2.23056172 -0.393563,3.3549727 -0.537553,0.697971 -1.105606,1.4043722 -1.371266,2.2589307 -0.550489,1.5428025 -0.611172,3.2299486 -0.325207,4.8341038 0.04933,0.1427994 -0.123556,0.2213622 -0.234173,0.1512792 -1.565697,-0.6701939 -3.106603,-1.3981318 -4.64472,-2.1278571 -1.492591,-0.7158625 -3.005814,-1.4226148 -4.337125,-2.4199043 -1.424962,-1.040465 -2.6364,-2.4069278 -3.35806,-4.0271771 -0.380183,-0.82402178 -0.622319,-1.7118224 -0.726372,-2.612558 -0.05515,-0.8569912 -0.06263,-1.7215217 0.03082,-2.57603 0.275776,-1.8577879 0.947761,-3.6373257 1.836095,-5.2854977 1.624426,-3.0049481 3.883235,-5.6253361 6.385749,-7.9325561 3.360003,-3.078153 7.188893,-5.634601 11.283513,-7.629382 3.440213,-1.667844 7.085181,-2.956154 10.859632,-3.603399 1.022709,-0.168474 2.053889,-0.31361 3.092975,-0.303866 0.151825,-1.36e-4 0.303648,-2.65e-4 0.45547,-4.18e-4 z m -9.839221,7.473594 c 0.682044,-4.18e-4 1.368127,0.02422 2.035212,0.178279 1.281578,0.2578 2.543675,0.78593 3.494756,1.702791 0.300639,0.30671 0.582719,0.63721 0.784807,1.018541 -0.444152,0.459977 -0.877708,0.943656 -1.163958,1.520945 -0.115258,0.222251 -0.40306,0.199822 -0.59632,0.285479 -1.194481,0.356535 -2.37246,0.816725 -3.479638,1.40427 -0.500392,0.256424 -0.981044,0.548688 -1.461847,0.839591 H -47.72836 c 0.713203,-0.935913 1.553469,-1.766477 2.400008,-2.580856 1.029054,-0.961905 2.16476,-1.811538 3.379333,-2.525037 1.659984,-0.970657 3.521816,-1.607296 5.436406,-1.805004 0.393392,-0.02829 0.787592,-0.03762 1.181959,-0.039 z m 11.353739,2.388344 c 1.195812,0.424082 2.371354,0.949282 3.400594,1.699652 0.572817,0.436698 1.128633,1.024953 1.200727,1.775784 0.0275,0.0884 -0.02199,0.233761 0.05623,0.28343 0.855294,0.202946 1.73509,0.419896 2.568821,0.732045 2.602245,0.942209 4.970561,2.553103 6.738077,4.689737 1.4875814,1.7895115 2.5647204,3.8945265 3.3120742,6.0909999 0.755806,2.2358942 1.1772475,4.58697513 1.2072029,6.9487241 -0.043944,0.1668783 0.079443,0.2272475 0.2146155,0.280117 0.5465252,0.2930584 0.9598811,0.8085832 1.1542968,1.3954527 0.3141536,0.7974082 0.5273076,1.6402358 0.5465837,2.5002433 0.064764,1.913775 -0.637865,3.82983 -1.8916398,5.272869 -0.087514,0.117767 -0.2096961,0.231482 -0.173959,0.393077 -0.070033,3.683019 -0.084903,7.366974 -0.1635585,11.049845 -0.02877,0.50955 -0.00154,1.028513 -0.1111344,1.529444 -0.2040087,0.632394 -0.5816758,1.233913 -1.1356739,1.613515 -1.5533457,0.833896 -3.1423915,1.60001 -4.7149765,2.397772 -4.031955,2.006746 -8.060497,4.021863 -12.106108,6.000477 -0.112499,0.09353 -0.225316,0.05161 -0.337933,-0.01775 -4.908848,-2.400207 -9.79841,-4.842668 -14.696996,-7.264924 -0.705534,-0.354326 -1.420988,-0.694779 -2.120356,-1.057718 -0.345349,-0.354685 -0.74383,-0.683981 -0.935053,-1.155186 -0.238989,-0.454136 -0.337055,-0.968404 -0.32133,-1.479073 -0.06484,-3.882177 -0.122479,-7.764539 -0.164243,-11.647036 0.01175,-0.139513 0.01086,-0.274445 -0.112274,-0.365087 -1.088517,-1.25091 -1.778806,-2.855945 -1.869621,-4.5171324 -0.09187,-1.155562 0.08796,-2.3481008 0.601978,-3.3927391 0.268956,-0.5449141 0.675172,-1.0416608 1.224313,-1.3194738 0.01781,-0.8973544 0.05093,-1.795639 0.176009,-2.68545843 0.438422,-3.33343457 1.539221,-6.62066947 3.462842,-9.39751727 1.319706,-1.915251 3.052922,-3.5565 5.088584,-4.691539 1.558293,-0.880823 3.254593,-1.513427 5.006144,-1.880797 0.105919,-0.02098 0.230371,-0.03805 0.206499,-0.177166 2.2e-4,-0.281631 0.07432,-0.555984 0.214442,-0.80035 0.278686,-0.564365 0.795441,-0.961817 1.299597,-1.315428 0.96601,-0.649318 2.039079,-1.121735 3.135797,-1.502951 l 0.02065,0.0074 z m 4.373417,5.637227 c -0.360297,2.74331 -0.710831,5.4883016 -1.106432,8.2266442 -0.07332,0.4809964 -0.124456,0.9781261 -0.363944,1.4120161 -0.294937,0.5825965 -0.736934,1.1029255 -1.315669,1.4180928 -0.509844,0.3183798 -1.047999,0.5882499 -1.55523,0.9106822 0.01723,1.10674962 0.0034,2.21444731 0.04609,3.3205257 0.05656,0.5915915 0.292781,1.1741954 0.681742,1.6258665 0.408488,0.4715419 1.014846,0.7604862 1.640554,0.7642734 0.445806,0.023309 0.876081,-0.03163 1.299811,-0.1909729 1.451899,-0.538033 2.856922,-1.2087783 4.328686,-1.7038288 1.182129,-0.3988677 2.419943,-0.747942 3.679995,-0.6692182 0.606855,0.047842 1.226866,0.2081536 1.725793,0.5676526 0.115069,0.1149063 -0.01962,0.2691723 -0.156293,0.2614794 -0.458355,0.046281 -0.904773,0.053565 -1.357416,0.1630187 -0.938786,0.1997783 -1.841625,0.49884 -2.717049,0.9079545 -1.784954,0.8100842 -3.425337,1.9196095 -5.263189,2.6152898 -0.398727,0.1477513 -0.812933,0.2828224 -1.244188,0.260272 -0.240075,-0.00333 -0.487324,0.019728 -0.722745,-0.00684 -0.164534,-0.079875 -0.325759,-0.166904 -0.493268,-0.2404188 0.170984,0.9695861 0.474195,1.9514121 1.10617,2.7254372 0.483212,0.6346016 1.16914,1.1161493 1.946129,1.3115131 0.988878,0.2754765 2.022961,0.4492985 3.031915,0.5541715 1.28447,0.08643 2.573909,0.04337 3.859011,-0.0085 0.548857,-0.03721 1.112801,-0.03832 1.653726,-0.167253 C -9.9359805,9.9212722 -9.2224,9.1308635 -8.7391848,8.286868 -8.1182787,7.2060626 -7.7717935,6.0025333 -7.4959223,4.7889144 -7.4288893,4.4434496 -7.2923218,4.1058772 -7.3253579,3.7488948 -7.3099769,2.4228187 -7.3574939,1.0997419 -7.5729457,-0.20463365 -8.0292621,-2.9850365 -8.980899,-5.7422607 -10.58667,-8.0737738 c -0.406488,-0.5922641 -0.834548,-1.152079 -1.343257,-1.6559927 -0.636766,-0.6473435 -1.290064,-1.2985875 -2.038481,-1.8058845 -1.39681,-0.982097 -2.989953,-1.727924 -4.652217,-2.160723 -0.320781,-0.08224 -0.641338,-0.169203 -0.968729,-0.221193 -0.0047,0.01871 -0.0094,0.03743 -0.01413,0.05614 z M -37.698001,2.1086653 c -0.95343,-0.00369 -1.929064,0.3905515 -2.523516,1.1531288 -0.163089,0.2304444 -0.359145,0.4548636 -0.444787,0.7275269 -0.02283,0.3168107 0.103089,0.6235522 0.159765,0.928668 0.302439,1.2491493 0.661709,2.5293073 1.369836,3.6300368 0.358982,0.5322419 0.797586,1.0303226 1.346536,1.3717348 0.522392,0.3140904 1.13931,0.3793514 1.734933,0.4143024 0.777104,0.05713 1.540348,0.105618 2.321034,0.09039 0.778724,-0.01007 1.568968,-0.0025 2.325643,-0.07965 1.037769,-0.119827 2.068779,-0.2878 3.068212,-0.6038922 1.0005,-0.3196475 1.761637,-1.1434561 2.225094,-2.0611383 0.28617,-0.5993585 0.466434,-1.2456385 0.578391,-1.8988081 -0.186098,0.072938 -0.3573,0.1945342 -0.54555,0.2524195 -0.527677,-0.01422 -1.075107,0.04716 -1.578393,-0.1505583 -1.546148,-0.5120751 -2.935163,-1.383768 -4.37633,-2.1245218 -1.134598,-0.5985273 -2.290851,-1.1291702 -3.546048,-1.4260378 -0.541074,-0.1444578 -1.087593,-0.2104026 -1.633281,-0.2182468 -0.16051,-0.00529 -0.320948,-0.0068 -0.481539,-0.00536 z m 0.0013,2.7050462 c 0.933319,-0.014459 1.873085,0.014175 2.788363,0.2130706 1.441034,0.277416 2.799755,0.8487065 4.144891,1.4175066 0.723895,0.3066408 1.459242,0.6041492 2.23828,0.7367696 0.0084,0.2949498 -0.02709,0.6104474 -0.232705,0.8395406 -0.301174,0.3944339 -0.797703,0.557441 -1.273224,0.6091568 -0.929547,0.1216116 -1.870332,0.099249 -2.805853,0.1149021 -0.812651,-0.011628 -1.649185,0.043218 -2.435287,-0.2018934 -0.757042,-0.2568509 -1.320515,-0.8834246 -1.698218,-1.5670536 -0.32821,-0.5945787 -0.607037,-1.2202432 -0.807157,-1.8695598 -1.15e-4,-0.08779 -0.10734,-0.2748136 -0.01663,-0.2924395 z m 26.705912,0 h 0.795829 c -0.09843,0.5802033 -0.36188,1.1147162 -0.599427,1.6477519 -0.378795,0.7890173 -0.890801,1.5925948 -1.712632,1.9739778 -0.536655,0.264492 -1.145057,0.2794275 -1.731018,0.2876976 -1.282411,0.026748 -2.572825,0.072828 -3.846796,-0.1079397 -0.46456,-0.05895 -0.943575,-0.2405115 -1.221908,-0.6372692 -0.185412,-0.2222856 -0.204467,-0.5202899 -0.201173,-0.7968716 1.101657,-0.1887048 2.106115,-0.6996428 3.134847,-1.1103055 1.560457,-0.6558526 3.207177,-1.1823594 4.91064,-1.2468999 0.157044,-0.00913 0.314421,-0.0068 0.471638,-0.010138 z m -12.877612,6.6683365 c -0.08784,0.04072 -0.01845,0.229552 -0.04299,0.328438 -0.03164,5.558069 -0.02774,11.116299 -0.02516,16.674445 0.0031,1.562402 0.0011,3.124882 0.01758,4.687206 3.756211,-1.83221 7.49389,-3.702497 11.23728,-5.560812 1.466551,-0.736069 2.9455922,-1.44819 4.3931485,-2.222491 0.244913,-0.132772 0.4912238,-0.322025 0.5891405,-0.591116 0.092721,-0.444615 0.070199,-0.886962 0.086434,-1.349232 0.040138,-3.072893 0.061438,-6.146239 0.044687,-9.219375 -0.015666,-0.104169 0.025725,-0.296986 -0.024981,-0.348523 -0.6965645,0.369256 -1.42265,0.689878 -2.1869145,0.891039 -1.5225835,0.419931 -3.1509785,0.443351 -4.6846595,0.06424 -1.533627,-0.362366 -3.025882,-0.900372 -4.437516,-1.601608 -1.036271,-0.482795 -2.052578,-1.041798 -3.115716,-1.440097 -0.592072,-0.206903 -1.222557,-0.32067 -1.850333,-0.312114 z m -3.138746,0.722973 c -0.74354,0.356889 -1.491307,0.713125 -2.207064,1.121105 -0.03747,2.561239 -0.0273,5.123033 -0.03146,7.684528 0.0042,3.170045 -0.0037,6.340317 0.03541,9.510156 -0.04403,0.145274 0.123119,0.170674 0.211906,0.234445 0.749283,0.401515 1.513968,0.774347 2.285623,1.130784 0.03462,-3.512255 0.02299,-7.024847 0.0249,-10.537253 -0.0065,-3.090204 -0.0013,-6.180602 -0.03733,-9.270615 -0.094,0.04228 -0.187992,0.08456 -0.281991,0.12685 z m 23.3464593,0.479984 c 0.3655134,0.08427 0.7030484,0.267571 1.0550455,0.396816 3.7428845,1.548767 7.4648916,3.154967 11.0956602,4.954114 0.3024306,0.158945 0.6223283,0.294781 0.9005471,0.493721 0.1361421,0.07518 0.00855,0.188915 -0.079362,0.239511 -0.5999516,0.332538 -1.2321169,0.605114 -1.8224133,0.956451 -1.7238445,0.980064 -3.3279799,2.166137 -4.7894031,3.505133 -0.4217663,0.396394 -0.9570039,0.66056 -1.5126783,0.810139 -0.47909648,0.07775 -0.98260581,0.08268 -1.45305059,-0.04637 -0.77356411,-0.279374 -1.49657321,-0.678429 -2.24461381,-1.017307 -0.4617932,-0.219061 -0.92363,-0.438032 -1.385478,-0.656979 -0.032566,-1.932117 0.019397,-3.864392 0.036172,-5.796446 0.02614,-1.256953 0.024327,-2.515023 0.075156,-3.771148 -0.00772,-0.0475 0.088363,-0.06305 0.1243787,-0.06764 z m -27.8857273,1.568087 c -0.788687,0.264838 -1.590388,0.494592 -2.403343,0.672406 -0.0066,4.453985 -0.01316,8.907969 -0.01971,13.361955 0.827119,0.412048 1.652666,0.839901 2.485197,1.228671 0.04505,-1.439887 0.02344,-2.881226 0.03083,-4.321733 -0.0013,-3.653804 0.0098,-7.307774 -0.02398,-10.96144 -0.023,0.0068 -0.046,0.01343 -0.06899,0.02014 z m -7.167175,0.726403 c -0.0305,3.648496 -0.01547,7.297175 -0.01929,10.945757 0.844309,0.419732 1.684641,0.858045 2.535768,1.251813 0.03009,-2.343671 0.01736,-4.687866 0.018,-7.03175 -0.0059,-1.676779 -4.39e-4,-3.353901 -0.02956,-5.030396 -0.500873,-0.07377 -1.013215,-0.09986 -1.511936,-0.213739 -0.333593,-0.06538 -0.658524,-0.16593 -0.987403,-0.250388 -0.0019,0.109567 -0.0037,0.219134 -0.0056,0.328703 z m -4.729556,14.861475 c 0.609225,0.35108 1.180711,0.765588 1.770127,1.148803 3.948367,2.660337 7.87739,5.351712 11.822821,8.015015 -1.550268,-1.575884 -3.163911,-3.088164 -4.821443,-4.550546 -0.913344,-0.818539 -1.866013,-1.592274 -2.783717,-2.40535 -0.171118,-0.194879 -0.09486,-0.478116 -0.114704,-0.714143 0.01296,-0.209125 -0.02355,-0.439208 0.09585,-0.624239 0.914632,0.409586 1.804874,0.872753 2.708823,1.30589 5.16651,2.535492 10.315779,5.106815 15.484253,7.638224 0.112683,0.08725 0.207771,-0.07724 0.310697,-0.116712 2.232762,-1.492377 4.446858,-3.012474 6.669194,-4.521697 0.0069,-1.171528 0.01354,-2.343058 0.02014,-3.51459 0.54688,-0.26219 1.077369,-0.564747 1.641798,-0.7864 0.159298,-0.07965 0.156399,0.0676 0.160351,0.185681 0.03051,0.945478 0.0025,1.891934 0.03636,2.837355 0.8986269,-0.58414 1.774965,-1.202685 2.6649161,-1.800208 1.0109046,-0.67853 2.0059691,-1.382309 3.0406985,-2.024159 0.1237796,-0.107505 0.2828443,-0.08486 0.4283116,-0.04549 1.8853558,0.419025 3.70875363,1.264087 5.12368869,2.596046 0.30682271,0.30697 0.62996591,0.612262 0.85372911,0.987254 0.105706,0.158864 -0.090715,0.271723 -0.1820951,0.375824 -0.3279178,0.30591 -0.64992665,0.621459 -1.00920623,0.890417 -0.20491476,0.03108 -0.28344542,-0.218911 -0.39654372,-0.341485 -0.9418243,-1.180603 -2.30642425,-1.964172 -3.72122115,-2.422112 -0.1944397,-0.05993 -0.3865251,-0.128206 -0.5835387,-0.179309 -2.8300105,1.888295 -5.6377741,3.809859 -8.4567191,5.714684 -2.780262,1.896215 -5.572476,3.774957 -8.341401,5.687486 1.053159,0.533561 1.985648,1.337391 2.577334,2.367621 0.775306,1.303416 0.964359,2.94894 0.451226,4.381923 -0.33536,0.984673 -0.959206,1.857212 -1.747421,2.531656 -1.352778,1.238617 -2.714463,2.467138 -4.11385,3.653213 -0.07663,0.05796 -0.1788,0.170755 -0.253521,0.05186 -2.108839,-1.811246 -4.189507,-3.655675 -6.284699,-5.482474 -2.902034,-2.546409 -5.801788,-5.094754 -8.690553,-7.65577 -3.422334,-3.019728 -6.852452,-6.031193 -10.27833,-9.045065 -0.129736,-0.130861 -0.289435,-0.241385 -0.378172,-0.406482 0.08147,-0.286291 0.321065,-0.490488 0.503424,-0.714967 1.19192,-1.291776 2.777013,-2.172854 4.439972,-2.704054 0.436622,-0.125252 0.872504,-0.269412 1.324667,-0.326132 l 0.02013,0.0087 z m 1.764367,3.944003 c -0.958946,0.04225 -1.927225,0.661668 -2.203891,1.609048 -0.209375,0.709453 0.08994,1.501646 0.650637,1.964791 0.327758,0.294719 0.744413,0.494484 1.151854,0.580526 0.458578,0.08857 0.942035,0.04948 1.389859,-0.07753 0.679605,-0.208367 1.265878,-0.739652 1.516023,-1.407786 0.247003,-0.680543 -0.03582,-1.484793 -0.539552,-1.994927 -0.510434,-0.512194 -1.258222,-0.707564 -1.96493,-0.674119 z m 7.741012,5.051392 c -0.578633,0.02633 -1.239578,0.205758 -1.748939,0.560552 -0.608437,0.432051 -1.114182,1.07396 -1.21084,1.832061 -0.06455,0.55812 0.004,1.117984 0.297159,1.606245 0.589927,1.000854 1.769279,1.570373 2.916234,1.527716 0.744711,-0.002 1.497661,-0.243202 2.091874,-0.71603 0.627295,-0.491579 1.086789,-1.265252 1.024809,-2.082152 -5.49e-4,-0.444017 -0.09592,-0.894898 -0.351082,-1.265325 -0.41196,-0.653782 -1.079877,-1.140104 -1.835578,-1.336942 -0.399505,-0.106761 -0.770414,-0.144605 -1.183637,-0.126125 z m 9.635229,5.471452 c -0.829085,0.01242 -1.655049,0.274025 -2.348783,0.698765 -0.922944,0.568974 -1.673637,1.488286 -1.864851,2.574472 -0.193531,0.959823 0.06888,2.007025 0.665549,2.790643 0.388354,0.524942 0.915041,0.951994 1.479487,1.242885 0.771684,0.398036 1.650885,0.605175 2.520066,0.538068 0.571896,-0.0097 1.159587,-0.118411 1.695599,-0.340811 1.205125,-0.473985 2.240079,-1.489927 2.54456,-2.771994 0.09625,-0.540186 0.104867,-1.104093 -0.006,-1.642638 -0.148827,-0.579412 -0.458759,-1.165728 -0.892678,-1.615395 -0.883105,-0.976246 -2.207349,-1.503413 -3.516056,-1.477428 -0.09227,-8.78e-4 -0.184596,0.0028 -0.276874,0.0034 z"
       sodipodi:nodetypes="ccccccccccccccccccccccccccccccccccccccccccccccccccccccccccccccccccccccccccccscccccccccccsscccccccccccccccccccccccccccccccccccccccccccccccccccccccccccccccccccccccccsccccccccccccccccssccccccccccccccccccccccsccccccccccccccccscccccccsssccccccccccccssscccccssccccccccccccccccccccccccccccccccccccccccccccccccccsccccccssccccccccccccccccccccccc" />
    <circle
       id="path1389"
       style="fill:#000000;stroke:#000000;stroke-width:0.264583"
       cx="-50.762436"
       cy="57.412945"
       r="0.0023977486" />
    <text
       xml:space="preserve"
       style="font-style:normal;font-weight:normal;font-size:10.5833px;line-height:1.25;font-family:sans-serif;fill:#000000;fill-opacity:1;stroke:none;stroke-width:0.264583"
       x="-51.649902"
       y="35.679363"
       id="text1393"
       transform="rotate(-41.5)"><tspan
         sodipodi:role="line"
         id="tspan1391"
         x="-51.649902"
         y="35.679363"
         style="font-style:normal;font-variant:normal;font-weight:normal;font-stretch:semi-expanded;font-family:'EngraversGothic BT';-inkscape-font-specification:'EngraversGothic BT Semi-Expanded';stroke-width:0.264583">2024</tspan></text>
  </g>
</svg>
