<?xml version="1.0" encoding="UTF-8" standalone="no"?>
<svg
   xmlns:dc="http://purl.org/dc/elements/1.1/"
   xmlns:cc="http://creativecommons.org/ns#"
   xmlns:rdf="http://www.w3.org/1999/02/22-rdf-syntax-ns#"
   xmlns:svg="http://www.w3.org/2000/svg"
   xmlns="http://www.w3.org/2000/svg"
   xmlns:sodipodi="http://sodipodi.sourceforge.net/DTD/sodipodi-0.dtd"
   xmlns:inkscape="http://www.inkscape.org/namespaces/inkscape"
   sodipodi:docname="clarkson-logo-athletic-cutout-2.svg"
   inkscape:version="1.0 (4035a4fb49, 2020-05-01)"
   id="svg1053"
   version="1.1"
   viewBox="0 0 21.713247 26.39137"
   height="26.391371mm"
   width="21.713247mm">
  <defs
     id="defs1047">
    <pattern
       y="0"
       x="0"
       height="6"
       width="6"
       patternUnits="userSpaceOnUse"
       id="EMFhbasepattern" />
    <pattern
       y="0"
       x="0"
       height="6"
       width="6"
       patternUnits="userSpaceOnUse"
       id="EMFhbasepattern-2" />
    <pattern
       y="0"
       x="0"
       height="6"
       width="6"
       patternUnits="userSpaceOnUse"
       id="EMFhbasepattern-5" />
  </defs>
  <sodipodi:namedview
     inkscape:window-maximized="1"
     inkscape:window-y="-8"
     inkscape:window-x="1912"
     inkscape:window-height="1017"
     inkscape:window-width="1920"
     fit-margin-bottom="0"
     fit-margin-right="0"
     fit-margin-left="0"
     fit-margin-top="0"
     showgrid="false"
     inkscape:document-rotation="0"
     inkscape:current-layer="layer3"
     inkscape:document-units="mm"
     inkscape:cy="36.944001"
     inkscape:cx="40.154925"
     inkscape:zoom="7.9195959"
     inkscape:pageshadow="2"
     inkscape:pageopacity="0.0"
     borderopacity="1.0"
     bordercolor="#666666"
     pagecolor="#ffffff"
     id="base" />
  <metadata
     id="metadata1050">
    <rdf:RDF>
      <cc:Work
         rdf:about="">
        <dc:format>image/svg+xml</dc:format>
        <dc:type
           rdf:resource="http://purl.org/dc/dcmitype/StillImage" />
        <dc:title></dc:title>
      </cc:Work>
    </rdf:RDF>
  </metadata>
  <g
     transform="translate(63.441429,34.894543)"
     id="layer1"
     inkscape:groupmode="layer"
     inkscape:label="Layer 1">
    <path
       id="path1108"
       d="m -52.900804,-33.897886 c -0.356728,0.0084 -0.714949,0.03171 -1.064402,0.100329 -1.223815,0.22382 -2.401617,0.667343 -3.500172,1.245952 -0.7784,0.412519 -1.518804,0.891052 -2.211587,1.436815 -0.598339,0.477069 -1.154942,1.008078 -1.650386,1.591628 -0.554763,0.661081 -1.034726,1.399312 -1.317248,2.219185 -0.117614,0.341951 -0.198536,0.698369 -0.213591,1.060534 -0.0082,0.179403 -0.0066,0.365964 0.0081,0.545759 0.01946,0.262918 0.07121,0.520807 0.166949,0.766016 0.206562,0.558553 0.58218,1.039217 1.043538,1.411591 0.293201,0.237945 0.615739,0.433145 0.952196,0.599043 0.180371,0.09069 0.362001,0.178849 0.543128,0.268052 v 7.204041 c 0.330576,0.299218 0.668087,0.590875 1.001783,0.886672 2.22119,1.955158 4.44198,3.911101 6.665855,5.8627032 0.03337,0.028169 0.06452,0.059091 0.09998,0.084687 0.199809,-0.167261 0.393,-0.3426855 0.589761,-0.5136886 2.351685,-2.0672616 4.704086,-4.1348136 7.052943,-6.2057716 0.04242,-0.03709 0.08411,-0.07499 0.125996,-0.112677 1.85e-4,-0.893299 3.03e-4,-1.786601 5.06e-4,-2.679902 0.294711,-0.268073 0.598901,-0.527696 0.933088,-0.745885 0.280665,-0.191533 0.580262,-0.353453 0.889018,-0.49468 0.354672,-0.16603 0.714956,-0.319972 1.069695,-0.48592 -0.474088,-0.258599 -0.953913,-0.506567 -1.435559,-0.750744 -0.478025,-0.237348 -0.964946,-0.45613 -1.451306,-0.675714 -0.0047,-2.596732 -0.0035,-5.193487 -0.01617,-7.7902 -9.6e-4,-0.08141 -5.55e-4,-0.162831 -0.0028,-0.244214 -0.443156,-0.01158 -0.886595,-0.0068 -1.329874,-0.0091 -1.05155,-8.13e-4 -2.103101,-3.92e-4 -3.154651,-4.76e-4 -0.322963,-0.201866 -0.661547,-0.373807 -1.018439,-0.506272 -0.159371,-0.06042 -0.328675,-0.110713 -0.494945,-0.160124 -0.07788,-0.154859 -0.180649,-0.296087 -0.303659,-0.4182 -0.02712,-0.02847 -0.05422,-0.05696 -0.08136,-0.08542 0.23818,-0.28368 0.440894,-0.602214 0.56342,-0.953267 0.141824,-0.416458 0.161102,-0.890797 -0.02403,-1.297303 -0.106032,-0.232309 -0.25284,-0.446643 -0.455834,-0.605968 -0.381039,-0.305981 -0.8588,-0.473938 -1.341843,-0.52348 -0.212177,-0.02317 -0.424108,-0.02762 -0.638063,-0.02395 z"
       style="fill:#000000;stroke-width:0.0108798" />
    <path
       id="path898"
       d="m -57.846192,-16.748341 c 0.171153,0.09863 0.331703,0.215079 0.49729,0.322738 1.109235,0.747382 2.213035,1.503482 3.321443,2.251698 -0.435524,-0.442721 -0.888852,-0.867573 -1.354512,-1.278408 -0.25659,-0.229956 -0.524228,-0.447325 -0.782043,-0.675746 -0.04808,-0.05475 -0.02665,-0.13432 -0.03223,-0.200628 0.0036,-0.05875 -0.0066,-0.123389 0.02693,-0.175371 0.256952,0.115067 0.507053,0.245187 0.761003,0.366871 1.451454,0.712307 2.898063,1.434683 4.350067,2.145843 0.03166,0.02451 0.05837,-0.0217 0.08729,-0.03279 0.627262,-0.41926 1.249278,-0.846309 1.87361,-1.270303 0.002,-0.329122 0.0038,-0.658246 0.0056,-0.98737 0.153639,-0.07365 0.302672,-0.158656 0.461239,-0.220927 0.04476,-0.02238 0.04393,0.019 0.04505,0.05217 0.0085,0.265618 7.03e-4,0.531511 0.01016,0.797112 0.252456,-0.164105 0.49865,-0.337876 0.748669,-0.50574 0.283997,-0.190624 0.563546,-0.388339 0.854238,-0.568658 0.03478,-0.0302 0.07946,-0.02384 0.120327,-0.01278 0.529662,0.117718 1.041919,0.355126 1.439423,0.729319 0.08619,0.08624 0.17698,0.172006 0.239842,0.277354 0.0297,0.04464 -0.02548,0.07634 -0.05116,0.105582 -0.09212,0.08595 -0.182587,0.174591 -0.283521,0.25015 -0.05757,0.0087 -0.07962,-0.0615 -0.111403,-0.09593 -0.264591,-0.331674 -0.647954,-0.551806 -1.04542,-0.680457 -1.433756,0.502706 -3.613637,2.276879 -4.883115,3.152894 0.295869,0.149896 0.557838,0.37572 0.724062,0.665147 0.217812,0.366176 0.270923,0.828461 0.126766,1.231035 -0.09421,0.276629 -0.269474,0.521756 -0.490911,0.71123 -0.380043,0.347972 -0.762588,0.6931056 -1.155725,1.0263157 -0.02154,0.016291 -0.05023,0.047973 -0.07122,0.014571 -0.592447,-0.5088423 -1.17698,-1.0270077 -1.765592,-1.5402187 -0.815283,-0.715376 -1.629925,-1.431295 -2.44148,-2.150773 -0.961452,-0.848347 -1.925093,-1.694373 -2.887541,-2.541075 -0.03645,-0.03676 -0.08131,-0.06782 -0.106242,-0.114195 0.02288,-0.08043 0.09021,-0.137796 0.141429,-0.20086 0.334852,-0.362904 0.78016,-0.61043 1.247344,-0.759662 0.122662,-0.03518 0.245116,-0.07569 0.372145,-0.09162 l 0.0056,0.0024 z"
       style="fill:#ffffff;fill-opacity:1;stroke-width:0.0108798" />
    <path
       id="path878"
       d="m -52.377449,-30.609582 c 0.335946,0.11914 0.666197,0.266686 0.955345,0.477492 0.160926,0.122684 0.317074,0.287945 0.337328,0.49888 0.0077,0.02484 -0.0061,0.06567 0.01579,0.07962 0.240282,0.05702 0.487447,0.117964 0.721672,0.205657 0.73106,0.2647 1.396404,0.717257 1.892961,1.317511 0.417914,0.502737 0.720519,1.094109 0.930477,1.711174 0.212332,0.628142 0.330731,1.288642 0.339146,1.95214 -0.01234,0.04687 0.02232,0.06384 0.06029,0.07869 0.153539,0.08233 0.269664,0.227159 0.324283,0.392031 0.08826,0.224021 0.148139,0.460801 0.153555,0.702406 0.01819,0.537647 -0.179199,1.075933 -0.531429,1.481333 -0.02459,0.03308 -0.05891,0.06503 -0.04886,0.11043 -0.01968,1.034688 -0.02385,2.069639 -0.04594,3.104287 -0.0081,0.14315 -4.33e-4,0.288945 -0.03122,0.429674 -0.05732,0.177662 -0.163413,0.346649 -0.319051,0.453292 -0.436389,0.234271 -0.882807,0.449499 -1.324602,0.673619 -1.132717,0.563765 -2.264475,1.129881 -3.401028,1.685743 -0.03161,0.02627 -0.0633,0.0145 -0.09494,-0.005 -1.379066,-0.674301 -2.752715,-1.360474 -4.128899,-2.04097 -0.198209,-0.09954 -0.399205,-0.195188 -0.595683,-0.29715 -0.09701,-0.09964 -0.208967,-0.192154 -0.262689,-0.324531 -0.06715,-0.127584 -0.09468,-0.272059 -0.09028,-0.415525 -0.01821,-1.090639 -0.03442,-2.18133 -0.04614,-3.272059 0.0033,-0.03919 0.003,-0.07709 -0.03154,-0.102557 -0.305802,-0.351424 -0.499729,-0.802334 -0.525242,-1.26902 -0.02581,-0.324638 0.02472,-0.659663 0.169116,-0.953138 0.07556,-0.153087 0.189679,-0.292639 0.343952,-0.370687 0.005,-0.252098 0.01431,-0.504458 0.04946,-0.75444 0.123168,-0.936478 0.432421,-1.859976 0.972832,-2.64009 0.370752,-0.53806 0.857673,-0.999145 1.429562,-1.318016 0.437779,-0.247455 0.914329,-0.425176 1.406401,-0.528382 0.02975,-0.0059 0.06471,-0.01068 0.05802,-0.04978 6.1e-5,-0.07912 0.02087,-0.156196 0.06024,-0.224847 0.0783,-0.158549 0.223466,-0.270208 0.365102,-0.36955 0.271385,-0.182415 0.572849,-0.315135 0.880955,-0.422231 l 0.0058,0.0021 z"
       style="fill:#ffffff;fill-opacity:1;stroke-width:0.0108798" />
    <path
       id="path904"
       d="m -52.468927,-12.6841 c -0.232919,0.0035 -0.464962,0.07698 -0.659855,0.196308 -0.259288,0.159845 -0.470184,0.418111 -0.523903,0.723259 -0.05438,0.269648 0.01936,0.563843 0.186977,0.78399 0.109102,0.147473 0.257066,0.267447 0.41564,0.349169 0.216792,0.111823 0.463791,0.170014 0.707974,0.151162 0.160665,-0.0027 0.325768,-0.03327 0.476353,-0.09575 0.338561,-0.133159 0.629316,-0.418574 0.714855,-0.77875 0.02705,-0.151758 0.02946,-0.310179 -0.0017,-0.461475 -0.04182,-0.162777 -0.128881,-0.327494 -0.250785,-0.453821 -0.248095,-0.274261 -0.620121,-0.422361 -0.987783,-0.41506 -0.02592,-2.47e-4 -0.05186,7.86e-4 -0.07779,9.53e-4 z"
       style="fill:#000000;fill-opacity:1;stroke-width:0.0108798" />
    <path
       id="path902"
       d="m -55.175799,-14.221221 c -0.162559,0.0074 -0.348242,0.05781 -0.491338,0.157479 -0.170932,0.121377 -0.313013,0.301713 -0.340169,0.514689 -0.01814,0.156795 0.0011,0.31408 0.08348,0.45125 0.165732,0.281176 0.497052,0.441173 0.819272,0.42919 0.209215,-5.63e-4 0.420745,-0.06833 0.587681,-0.201159 0.176229,-0.1381 0.305317,-0.355453 0.287905,-0.584949 -1.56e-4,-0.12474 -0.02696,-0.251408 -0.09863,-0.355474 -0.115734,-0.18367 -0.303375,-0.320295 -0.515678,-0.375593 -0.112234,-0.02999 -0.216437,-0.04063 -0.332524,-0.03543 z"
       style="fill:#000000;fill-opacity:1;stroke-width:0.0108798" />
    <path
       id="path900"
       d="m -57.35052,-15.640334 c -0.269402,0.01188 -0.541425,0.185885 -0.61915,0.452038 -0.05882,0.19931 0.02527,0.421865 0.182786,0.551978 0.09207,0.08279 0.209132,0.138919 0.323596,0.163091 0.128831,0.02488 0.264651,0.01391 0.39046,-0.02178 0.190925,-0.05853 0.355629,-0.207794 0.425904,-0.395496 0.06938,-0.191188 -0.01005,-0.417131 -0.151579,-0.560444 -0.143399,-0.143893 -0.353478,-0.198779 -0.552017,-0.189384 z"
       style="fill:#000000;fill-opacity:1;stroke-width:0.0108798" />
    <path
       id="path896"
       d="m -56.517495,-20.923449 c -0.0085,1.024989 -0.0044,2.050031 -0.0054,3.075045 0.237196,0.117917 0.473274,0.241055 0.712385,0.351678 0.0084,-0.658418 0.0049,-1.316986 0.0051,-1.975464 -0.0017,-0.471066 -1.25e-4,-0.942228 -0.0083,-1.413213 -0.140714,-0.02073 -0.284648,-0.02805 -0.424757,-0.06005 -0.09372,-0.01836 -0.185002,-0.04661 -0.277396,-0.07035 -5.34e-4,0.03078 -10e-4,0.06156 -0.0016,0.09234 z"
       style="fill:#000000;stroke-width:0.0108798" />
    <path
       id="path894"
       d="m -54.503985,-21.127521 c -0.22157,0.0744 -0.446795,0.138948 -0.675183,0.188903 -0.0019,1.251279 -0.0037,2.502558 -0.0055,3.75384 0.232367,0.115758 0.464292,0.235957 0.698179,0.345176 0.01265,-0.404515 0.0065,-0.809437 0.0086,-1.214126 -3.66e-4,-1.02648 0.0027,-2.053008 -0.0067,-3.079451 -0.0064,0.0019 -0.01292,0.0037 -0.01939,0.0056 z"
       style="fill:#000000;stroke-width:0.0108798" />
    <path
       id="path892"
       d="m -46.669911,-21.568052 c 0.102692,0.02367 0.197511,0.07518 0.296398,0.11148 1.051509,0.435103 2.09715,0.88634 3.117159,1.391783 0.08497,0.04466 0.174834,0.08282 0.252996,0.138704 0.03824,0.02112 0.0024,0.05307 -0.0223,0.06729 -0.168546,0.09342 -0.346144,0.169997 -0.511978,0.2687 -0.484289,0.275333 -0.934946,0.608543 -1.345511,0.984714 -0.118489,0.111361 -0.268857,0.185575 -0.424964,0.227596 -0.134596,0.02185 -0.276049,0.02322 -0.408213,-0.01303 -0.217321,-0.07848 -0.42044,-0.190595 -0.630591,-0.285797 -0.129733,-0.06154 -0.259479,-0.123059 -0.389229,-0.184569 -0.0091,-0.542799 0.0054,-1.085643 0.01016,-1.628424 0.0074,-0.353123 0.0068,-0.706559 0.02111,-1.059448 -0.0022,-0.01334 0.02483,-0.01771 0.03495,-0.01901 z"
       style="fill:#ffffff;fill-opacity:1;stroke-width:0.0108798" />
    <path
       id="path890"
       d="m -53.228746,-21.702895 c -0.208887,0.100267 -0.41896,0.200341 -0.620041,0.314957 -0.01053,0.719541 -0.0077,1.439239 -0.0088,2.158852 0.0011,0.890577 -10e-4,1.781216 0.0099,2.671735 -0.01237,0.04081 0.03459,0.04795 0.05953,0.06586 0.2105,0.112801 0.425327,0.217541 0.642113,0.317678 0.0096,-0.986716 0.0064,-1.973526 0.0069,-2.960283 -0.0019,-0.868147 -3.65e-4,-1.736346 -0.01049,-2.604439 -0.02642,0.01188 -0.05281,0.02375 -0.07922,0.03564 z"
       style="fill:#000000;stroke-width:0.0108798" />
    <path
       id="path888"
       d="m -52.346963,-21.906003 c -0.02467,0.01143 -0.0052,0.06448 -0.01208,0.09227 -0.0088,1.561456 -0.0078,3.122957 -0.007,4.684434 8.72e-4,0.438933 3.09e-4,0.877887 0.0049,1.3168 1.05525,-0.514732 2.105295,-1.040162 3.156944,-1.562228 0.412006,-0.206787 0.82752,-0.406846 1.234189,-0.624374 0.0688,-0.03731 0.138002,-0.09047 0.165509,-0.166066 0.02604,-0.124906 0.01972,-0.249178 0.02429,-0.379046 0.01129,-0.863283 0.01727,-1.726694 0.01255,-2.590044 -0.0044,-0.02927 0.0072,-0.08344 -0.0069,-0.09792 -0.195689,0.103739 -0.399672,0.193812 -0.61438,0.250324 -0.427747,0.117974 -0.88522,0.124553 -1.316084,0.01804 -0.430851,-0.101801 -0.850077,-0.252945 -1.246653,-0.449947 -0.291125,-0.135634 -0.576642,-0.292677 -0.875314,-0.404573 -0.166334,-0.05813 -0.34346,-0.09009 -0.519823,-0.08769 z"
       style="fill:#000000;stroke-width:0.0108798" />
    <path
       id="path880"
       d="m -51.148803,-29.025888 c -0.101221,0.770692 -0.199697,1.541856 -0.310835,2.311152 -0.02059,0.135129 -0.03497,0.27479 -0.102237,0.396685 -0.08286,0.163671 -0.20703,0.309851 -0.369617,0.398391 -0.143234,0.08944 -0.294419,0.16526 -0.436918,0.255843 0.0049,0.310924 9.55e-4,0.622115 0.01294,0.932851 0.01589,0.166199 0.08225,0.329873 0.191525,0.456763 0.114758,0.132472 0.285105,0.213648 0.460889,0.214711 0.125242,0.0065 0.246122,-0.0088 0.365163,-0.05365 0.407889,-0.151153 0.802608,-0.339588 1.216078,-0.478665 0.332101,-0.112056 0.679847,-0.210123 1.033839,-0.188006 0.170486,0.01344 0.34467,0.05848 0.484836,0.159473 0.03232,0.03228 -0.0055,0.07562 -0.0439,0.07346 -0.128769,0.013 -0.254182,0.01505 -0.381346,0.0458 -0.263737,0.05612 -0.517376,0.14014 -0.763314,0.255075 -0.501456,0.22758 -0.962297,0.539286 -1.478612,0.734727 -0.112018,0.04151 -0.228382,0.07945 -0.349537,0.07311 -0.06745,-9.35e-4 -0.136907,0.0055 -0.203044,-0.0019 -0.04622,-0.02244 -0.09151,-0.04688 -0.138576,-0.06755 0.04803,0.27239 0.133218,0.54822 0.310761,0.765671 0.135751,0.178281 0.328452,0.313565 0.546736,0.368449 0.27781,0.07739 0.568321,0.126224 0.85177,0.155687 0.360853,0.02428 0.723102,0.01219 1.084132,-0.0024 0.154193,-0.01046 0.312625,-0.01077 0.464589,-0.04699 0.270629,-0.07728 0.4711,-0.299339 0.606851,-0.536447 0.174434,-0.303636 0.271774,-0.64175 0.349277,-0.982697 0.01883,-0.09706 0.05721,-0.19189 0.04792,-0.292178 0.0044,-0.372541 -0.009,-0.74424 -0.06956,-1.110684 -0.128195,-0.781113 -0.395543,-1.555713 -0.84666,-2.210717 -0.114197,-0.166388 -0.234454,-0.323659 -0.377368,-0.465226 -0.178891,-0.181862 -0.362424,-0.364818 -0.572681,-0.507335 -0.392412,-0.275906 -0.839982,-0.485436 -1.30697,-0.607023 -0.09012,-0.0231 -0.180174,-0.04754 -0.27215,-0.06215 -0.0013,0.0053 -0.0026,0.01051 -0.0039,0.01577 z"
       style="fill:#000000;fill-opacity:1;stroke-width:0.0108798" />
    <path
       id="path886"
       d="m -48.729192,-23.779372 h 0.223576 c -0.02765,0.162999 -0.101667,0.313162 -0.1684,0.462911 -0.106417,0.221663 -0.250257,0.447414 -0.481138,0.554559 -0.150765,0.07431 -0.321687,0.0785 -0.486303,0.08083 -0.360274,0.0075 -0.722797,0.02046 -1.0807,-0.03032 -0.130512,-0.01657 -0.265083,-0.06757 -0.343276,-0.179031 -0.0521,-0.06245 -0.05745,-0.146168 -0.05651,-0.223869 0.309493,-0.05301 0.591681,-0.196555 0.880688,-0.311923 0.438387,-0.184252 0.901009,-0.332167 1.379571,-0.350298 0.04412,-0.0026 0.08833,-0.0019 0.132499,-0.0028 z"
       style="fill:#ffffff;fill-opacity:1;stroke-width:0.0108798" />
    <path
       id="path882"
       d="m -56.23218,-24.539314 c -0.267853,-10e-4 -0.541943,0.109719 -0.708944,0.323953 -0.04582,0.06474 -0.1009,0.127788 -0.124957,0.204389 -0.0064,0.089 0.02897,0.175177 0.04488,0.260894 0.08497,0.350931 0.185897,0.710571 0.384835,1.019805 0.100848,0.149525 0.224069,0.289453 0.378288,0.385368 0.146759,0.08824 0.320073,0.106573 0.487404,0.116392 0.218315,0.01604 0.432737,0.02967 0.65206,0.02539 0.218771,-0.0028 0.440778,-7.03e-4 0.653354,-0.02238 0.291545,-0.03366 0.581191,-0.08086 0.861967,-0.169656 0.281076,-0.08979 0.494905,-0.321237 0.625108,-0.579045 0.0804,-0.168381 0.131037,-0.349943 0.162489,-0.533442 -0.05228,0.02049 -0.100381,0.05466 -0.153263,0.07092 -0.148244,-0.0039 -0.302036,0.01324 -0.443427,-0.0423 -0.434366,-0.14386 -0.82459,-0.38875 -1.229463,-0.596853 -0.318749,-0.168148 -0.64358,-0.317223 -0.996209,-0.400623 -0.152007,-0.04058 -0.305543,-0.0591 -0.458846,-0.06131 -0.04509,-0.0015 -0.09017,-0.0019 -0.13528,-0.0015 z"
       style="fill:#000000;fill-opacity:1;stroke-width:0.0108798" />
    <path
       id="path884"
       d="m -56.231814,-23.779372 c 0.262201,-0.004 0.526213,0.0039 0.783348,0.05986 0.404836,0.07793 0.786548,0.238432 1.164444,0.398227 0.203368,0.08614 0.409952,0.169726 0.62881,0.206985 0.0024,0.08287 -0.0076,0.171496 -0.06537,0.235855 -0.08461,0.110812 -0.224102,0.156606 -0.357694,0.171134 -0.261141,0.03416 -0.52544,0.02788 -0.788262,0.03228 -0.228301,-0.0032 -0.463313,0.01215 -0.684157,-0.05672 -0.212679,-0.07215 -0.370978,-0.248185 -0.477089,-0.440239 -0.09221,-0.167038 -0.170537,-0.342809 -0.226758,-0.525225 -3.2e-5,-0.02467 -0.03016,-0.0772 -0.0047,-0.08215 z"
       style="fill:#ffffff;fill-opacity:1;stroke-width:0.0108798" />
    <path
       id="path876"
       d="m -55.56711,-31.280551 c 0.191609,-1.17e-4 0.384354,0.0067 0.571762,0.05009 0.36004,0.07243 0.714607,0.220797 0.981799,0.478375 0.08445,0.08616 0.163706,0.179014 0.220479,0.286143 -0.124777,0.129224 -0.246578,0.265107 -0.326996,0.427287 -0.03239,0.06244 -0.113233,0.05614 -0.167528,0.0802 -0.335571,0.100163 -0.666506,0.229447 -0.97755,0.394508 -0.140578,0.07204 -0.275611,0.154146 -0.410684,0.235871 h -3.374231 c 0.200365,-0.262931 0.436424,-0.496265 0.674246,-0.725052 0.289098,-0.270233 0.608157,-0.508925 0.949373,-0.709371 0.466347,-0.272691 0.989401,-0.451547 1.527277,-0.507089 0.110517,-0.0079 0.221262,-0.01057 0.332053,-0.01095 z"
       style="fill:#ffffff;fill-opacity:1;stroke-width:0.0108798" />
    <path
       id="path874"
       d="m -52.802929,-33.380144 c 0.219816,0.0016 0.440961,0.0077 0.656484,0.055 0.356082,0.06911 0.716841,0.203329 0.971637,0.471617 0.202959,0.209148 0.314062,0.501535 0.302714,0.792614 -0.01142,0.372025 -0.177566,0.722101 -0.393167,1.018753 -0.06034,0.07775 -0.115027,0.161976 -0.187061,0.229233 -0.05538,0.02452 -0.109766,-0.02507 -0.160046,-0.04348 -0.245624,-0.127179 -0.509174,-0.214025 -0.771221,-0.300492 -0.219139,0.06625 -0.435759,0.142738 -0.645446,0.234677 -0.105623,0.05013 -0.209876,0.103076 -0.314475,0.155287 -0.118896,-0.163366 -0.244111,-0.324335 -0.400679,-0.453773 -0.18679,-0.159187 -0.413582,-0.29139 -0.647744,-0.382488 -0.526846,-0.205592 -1.110596,-0.252207 -1.665856,-0.17903 -0.848942,0.111007 -1.646593,0.494164 -2.312305,1.025092 -0.500216,0.397052 -0.936094,0.871119 -1.316875,1.382631 -0.24936,0.343331 -0.47169,0.71317 -0.603544,1.118531 -0.114076,0.360264 -0.119129,0.768518 0.04696,1.113753 0.131863,0.268723 0.349214,0.485722 0.584068,0.666508 0.438309,0.324332 0.941711,0.544749 1.454412,0.725853 0.06525,0.02744 0.139346,0.042 0.19524,0.08689 0.02683,0.03718 -0.0054,0.08505 -0.0055,0.12635 -0.05233,0.310156 -0.09416,0.626644 -0.110564,0.942529 -0.151018,0.196085 -0.310603,0.394538 -0.385237,0.634613 -0.154652,0.433427 -0.1717,0.907405 -0.09137,1.358069 0.01387,0.04012 -0.03472,0.06219 -0.06579,0.0425 -0.43986,-0.188281 -0.872754,-0.392785 -1.304864,-0.597791 -0.419321,-0.20111 -0.84444,-0.399661 -1.218451,-0.679835 -0.400321,-0.292303 -0.740656,-0.676189 -0.943396,-1.131374 -0.106806,-0.231497 -0.174831,-0.480911 -0.204062,-0.733959 -0.01549,-0.240759 -0.0176,-0.483636 0.0086,-0.723697 0.07748,-0.521917 0.266258,-1.021851 0.515822,-1.48488 0.456359,-0.844196 1.090936,-1.580355 1.79398,-2.228533 0.943943,-0.864761 2.019612,-1.582957 3.169933,-2.14336 0.966475,-0.468555 1.990475,-0.830486 3.05085,-1.01232 0.287315,-0.04733 0.577008,-0.08811 0.868924,-0.08536 0.04266,-3.8e-5 0.08531,-7.4e-5 0.127959,-1.17e-4 z"
       style="fill:#ffffff;fill-opacity:1;stroke-width:0.0108798" />
  </g>
  <g
     style="display:inline"
     inkscape:label="joiners"
     id="layer3"
     inkscape:groupmode="layer">
    <rect
       y="-34.894543"
       x="-53.450676"
       height="1.8991901"
       width="0.3736845"
       id="rect906"
       style="fill:#ffffff;fill-opacity:1;stroke:none;stroke-width:0.0358741"
       transform="translate(63.441429,34.894544)" />
    <rect
       y="-26.545506"
       x="-63.441429"
       height="0.43345946"
       width="1.2539536"
       id="rect908"
       style="fill:#ffffff;fill-opacity:1;stroke:none;stroke-width:0.053994"
       transform="translate(63.441429,34.894544)" />
    <rect
       transform="rotate(43.550032,-11.955803,96.85512)"
       y="28.814074"
       x="-45.631325"
       height="2.2431753"
       width="0.61945373"
       id="rect910"
       style="fill:#ffffff;fill-opacity:1;stroke:none;stroke-width:0.056187" />
    <rect
       y="-16.276215"
       x="-45.834274"
       height="0.43821821"
       width="1.5945196"
       id="rect916"
       style="fill:#ffffff;fill-opacity:1;stroke:none;stroke-width:0.0888807"
       transform="translate(63.441429,34.894544)" />
    <rect
       inkscape:transform-center-y="0.025056518"
       inkscape:transform-center-x="-0.025056518"
       transform="matrix(0.70035685,0.71379289,-0.72195346,0.69194161,63.441429,34.894544)"
       y="17.807648"
       x="-45.186951"
       height="0.73207587"
       width="2.2808936"
       id="rect918"
       style="fill:#ffffff;fill-opacity:1;stroke:none;stroke-width:0.0973221" />
    <rect
       inkscape:transform-center-y="-0.21715649"
       inkscape:transform-center-x="0.2756217"
       transform="rotate(-43.696861,75.235298,-61.666167)"
       y="-51.919464"
       x="-33.459637"
       height="0.52095312"
       width="1.6127107"
       id="rect920"
       style="fill:#ffffff;fill-opacity:1;stroke:none;stroke-width:0.0768131" />
    <rect
       y="-31.960361"
       x="-55.817642"
       height="0.83532453"
       width="0.39419806"
       id="rect922"
       style="fill:#ffffff;fill-opacity:1;stroke:none;stroke-width:0.056187"
       transform="translate(63.441429,34.894544)" />
    <rect
       transform="rotate(35.423313,-22.910439,116.77164)"
       y="9.4000807"
       x="-65.885521"
       height="0.38481238"
       width="1.0981232"
       id="rect924"
       style="fill:#ffffff;fill-opacity:1;stroke:none;stroke-width:0.056187" />
    <rect
       transform="matrix(0.93611949,0.35168211,-0.36350283,0.93159309,0,0)"
       y="-0.57054603"
       x="12.103403"
       height="0.81641209"
       width="0.40676242"
       id="rect930"
       style="fill:#ffffff;fill-opacity:1;stroke:none;stroke-width:0.0670849" />
    <rect
       transform="matrix(0.89083637,0.45432429,-0.42721964,0.90414788,0,0)"
       y="-1.889375"
       x="14.339448"
       height="1.0683095"
       width="0.46371758"
       id="rect932"
       style="fill:#ffffff;fill-opacity:1;stroke:none;stroke-width:0.0639075" />
    <rect
       transform="matrix(0.97782462,0.20942545,-0.20091167,0.97960936,0,0)"
       y="9.7045116"
       x="6.6629028"
       height="0.48788607"
       width="1.2151805"
       id="rect934"
       style="fill:#ffffff;fill-opacity:1;stroke:none;stroke-width:0.0681484" />
    <rect
       y="-20.433102"
       x="-47.438892"
       height="0.71256518"
       width="0.89595038"
       id="rect936"
       style="fill:#ffffff;fill-opacity:1;stroke:none;stroke-width:0.0815243"
       transform="translate(63.441429,34.894544)" />
    <rect
       transform="matrix(0.87641886,0.48154956,-0.4798315,0.87736066,0,0)"
       y="11.813101"
       x="16.891745"
       height="0.7883985"
       width="0.44192475"
       id="rect938"
       style="fill:#ffffff;fill-opacity:1;stroke:none;stroke-width:0.0722197" />
    <rect
       transform="matrix(0.9281942,0.37209612,-0.34822238,0.93741195,0,0)"
       y="6.4996548"
       x="11.735814"
       height="0.96200168"
       width="0.3903209"
       id="rect940"
       style="fill:#ffffff;fill-opacity:1;stroke:none;stroke-width:0.061139" />
    <rect
       transform="matrix(-0.96329621,0.26844071,0.36284878,0.93184804,0,0)"
       y="13.809097"
       x="-8.9848518"
       height="1.0026388"
       width="0.4689227"
       id="rect942"
       style="fill:#ffffff;fill-opacity:1;stroke:none;stroke-width:0.0620306" />
    <rect
       style="fill:#ffffff;fill-opacity:1;stroke:none;stroke-width:0.056187"
       id="rect910-0"
       width="0.61945373"
       height="2.2431753"
       x="28.074604"
       y="42.6418"
       transform="rotate(133.55003,24.233797,31.059164)" />
    <rect
       transform="matrix(0.61333221,-0.78982504,0.8018498,0.59752566,63.441429,34.894544)"
       style="fill:#ffffff;fill-opacity:1;stroke:none;stroke-width:0.0899878"
       id="rect918-8"
       width="2.2812479"
       height="0.62579668"
       x="-10.754841"
       y="-47.471512" />
    <rect
       transform="matrix(0.9231314,-0.38448462,0.394783,0.91877439,0,0)"
       style="fill:#ffffff;fill-opacity:1;stroke:none;stroke-width:0.066551"
       id="rect930-4"
       width="0.40032351"
       height="0.81639123"
       x="7.838902"
       y="7.5439496" />
    <rect
       style="fill:#ffffff;fill-opacity:1;stroke:none;stroke-width:0.0601122"
       id="rect942-8"
       width="0.44038513"
       height="1.0025947"
       x="-10.034967"
       y="15.216559"
       transform="matrix(-0.96638314,0.25710625,0.30353087,0.9528216,0,0)" />
    <rect
       style="fill:#ffffff;fill-opacity:1;stroke:none;stroke-width:0.0613413"
       id="rect940-6"
       width="0.39542273"
       height="0.95588487"
       x="11.675104"
       y="8.0836668"
       transform="matrix(0.92911852,0.36978206,-0.35331337,0.93550503,0,0)" />
  </g>
</svg>
