<?xml version="1.0" encoding="UTF-8" standalone="no"?>
<svg
   xmlns:dc="http://purl.org/dc/elements/1.1/"
   xmlns:cc="http://creativecommons.org/ns#"
   xmlns:rdf="http://www.w3.org/1999/02/22-rdf-syntax-ns#"
   xmlns:svg="http://www.w3.org/2000/svg"
   xmlns="http://www.w3.org/2000/svg"
   xmlns:sodipodi="http://sodipodi.sourceforge.net/DTD/sodipodi-0.dtd"
   xmlns:inkscape="http://www.inkscape.org/namespaces/inkscape"
   width="84.999992mm"
   height="85.061913mm"
   viewBox="0 0 84.999993 85.061913"
   version="1.1"
   id="svg96"
   inkscape:version="1.0.1 (3bc2e813f5, 2020-09-07)"
   sodipodi:docname="clarkson_logo_old.svg">
  <defs
     id="defs90" />
  <sodipodi:namedview
     id="base"
     pagecolor="#ffffff"
     bordercolor="#666666"
     borderopacity="1.0"
     inkscape:pageopacity="0.0"
     inkscape:pageshadow="2"
     inkscape:zoom="1.4"
     inkscape:cx="141.43534"
     inkscape:cy="54.802013"
     inkscape:document-units="mm"
     inkscape:current-layer="layer1"
     inkscape:document-rotation="0"
     showgrid="false"
     fit-margin-top="0"
     fit-margin-left="0"
     fit-margin-right="0"
     fit-margin-bottom="0"
     inkscape:window-width="1920"
     inkscape:window-height="1186"
     inkscape:window-x="-11"
     inkscape:window-y="-11"
     inkscape:window-maximized="1" />
  <metadata
     id="metadata93">
    <rdf:RDF>
      <cc:Work
         rdf:about="">
        <dc:format>image/svg+xml</dc:format>
        <dc:type
           rdf:resource="http://purl.org/dc/dcmitype/StillImage" />
        <dc:title></dc:title>
      </cc:Work>
    </rdf:RDF>
  </metadata>
  <g
     inkscape:label="Layer 1"
     inkscape:groupmode="layer"
     id="layer1"
     transform="translate(-26.537275,-171.09701)">
    <path
       style="fill:#000000;stroke-width:0.1086"
       d="m 67.418831,256.10723 c -9.255302,-0.38949 -17.787432,-3.59544 -25.140913,-9.4467 -1.512834,-1.20378 -4.934669,-4.61205 -6.199978,-6.17541 -4.578426,-5.65686 -7.592618,-12.16033 -8.883392,-19.16695 -0.525747,-2.85389 -0.656852,-4.3919 -0.657272,-7.71061 -4.11e-4,-3.25829 0.09352,-4.48163 0.550082,-7.16367 2.651936,-15.57875 13.807174,-28.46168 28.863166,-33.3334 4.504158,-1.45743 8.125293,-2.01412 13.097302,-2.01348 3.318706,4.2e-4 4.856733,0.13152 7.710605,0.65727 7.006622,1.29077 13.510096,4.30497 19.166964,8.88339 1.563357,1.26531 4.971625,4.68715 6.175415,6.19998 5.37151,6.75056 8.46789,14.37064 9.31122,22.9146 0.18961,1.92105 0.15927,6.0766 -0.0595,8.14501 -0.74485,7.04316 -3.08432,13.51112 -7.01163,19.38511 -5.572233,8.33427 -14.125888,14.54013 -23.781505,17.25401 -1.866121,0.52451 -4.308677,1.02053 -6.190205,1.25708 -1.438675,0.18087 -4.791245,0.39392 -5.701496,0.36232 -0.298658,-0.0108 -0.860656,-0.0322 -1.248904,-0.0486 z m 6.081598,-1.9385 c 4.638592,-0.51868 8.979787,-1.76688 13.194909,-3.79386 9.379671,-4.51054 16.801282,-12.59154 20.501962,-22.32351 2.81558,-7.40436 3.40433,-15.44537 1.70163,-23.24041 -1.15532,-5.28908 -3.55547,-10.63452 -6.78581,-15.11284 -1.96659,-2.72637 -4.863368,-5.78184 -7.435681,-7.84303 -6.591685,-5.28189 -14.112907,-8.27896 -22.528875,-8.97732 -2.166147,-0.17975 -6.202585,-0.0767 -8.367838,0.21359 -13.272083,1.77943 -24.809787,9.85002 -30.950919,21.65007 -2.952559,5.67328 -4.418488,11.36409 -4.581537,17.78577 -0.219912,8.66126 2.036932,16.46389 6.861813,23.72348 3.924303,5.90456 9.366555,10.68808 15.801538,13.88891 4.819372,2.39722 9.851212,3.77845 15.258306,4.18839 1.706572,0.12938 5.482935,0.0473 7.330502,-0.15924 z m -5.41511,-2.15027 c -0.200869,-0.0763 -0.560985,-0.3031 -0.800254,-0.50398 -1.3358,-1.12146 -1.071329,-3.2104 0.513868,-4.05892 0.624048,-0.33404 1.987334,-0.33051 2.62304,0.006 1.784687,0.94693 1.781013,3.47968 -0.0065,4.396 -0.542603,0.27816 -1.793328,0.36411 -2.330297,0.16012 z m 1.575328,-1.12143 c 0.464693,-0.22051 0.690387,-0.6405 0.690387,-1.28475 0,-0.41078 -0.06228,-0.56364 -0.363467,-0.8923 -0.313538,-0.34212 -0.429601,-0.3966 -0.84499,-0.3966 -0.581736,0 -0.999679,0.25066 -1.191971,0.7149 -0.312299,0.75394 -0.04019,1.6033 0.603361,1.88363 0.440698,0.19197 0.660121,0.18703 1.10668,-0.0249 z m -5.499819,0.92001 c -0.564454,-0.10203 -0.559713,-0.0965 -1.426758,-1.63841 -0.361064,-0.6421 -0.691615,-1.16745 -0.734541,-1.16745 -0.04288,0 -0.166175,0.52829 -0.273887,1.17397 l -0.195838,1.17398 -0.639293,-0.1029 c -0.351604,-0.0567 -0.639111,-0.15731 -0.638906,-0.22373 6.57e-4,-0.2068 0.758309,-4.55376 0.80117,-4.59662 0.0223,-0.0223 0.273068,-0.001 0.557256,0.0461 l 0.516691,0.0866 0.736135,1.28793 c 0.404873,0.70837 0.783521,1.33533 0.841434,1.39324 0.101604,0.10161 0.236285,-0.47842 0.41665,-1.79514 l 0.07187,-0.52493 0.391243,0.0671 c 0.215189,0.0368 0.518286,0.0921 0.673557,0.12272 l 0.282313,0.0556 -0.403149,2.33305 c -0.221728,1.28318 -0.422069,2.34749 -0.445213,2.36514 -0.02317,0.0177 -0.261982,-0.008 -0.530762,-0.0562 z m 8.721382,-2.29007 c -0.190708,-1.26923 -0.31288,-2.34042 -0.271506,-2.38042 0.04137,-0.04 0.34306,-0.0889 0.6704,-0.1086 l 0.595172,-0.0359 0.278822,1.79191 c 0.153364,0.98554 0.325368,1.78624 0.382236,1.77932 0.05689,-0.006 0.556373,-0.0752 1.11001,-0.15179 0.553637,-0.0766 1.025161,-0.11978 1.047841,-0.096 0.02263,0.0238 0.0584,0.26272 0.07941,0.53104 l 0.03814,0.48785 -1.5204,0.23645 c -0.836219,0.13004 -1.642571,0.24036 -1.791906,0.24515 -0.270914,0.009 -0.272239,0.003 -0.618219,-2.29901 z m -15.14826,0.91474 c -0.27949,-0.0999 -0.535589,-0.20967 -0.569119,-0.24396 -0.03351,-0.0343 0.06616,-0.44024 0.221426,-0.90214 0.155304,-0.46191 0.264794,-0.85351 0.243321,-0.87022 -0.04816,-0.0375 -1.611024,-0.60881 -1.665349,-0.60881 -0.02155,0 -0.169375,0.39095 -0.328504,0.8688 -0.159139,0.47784 -0.30105,0.86879 -0.315369,0.86879 -0.09805,0 -1.112876,-0.36935 -1.180346,-0.42957 -0.07251,-0.0647 1.357812,-4.30142 1.500208,-4.44382 0.07844,-0.0784 1.244411,0.30897 1.244411,0.41342 0,0.0496 -0.124542,0.42099 -0.276764,0.8254 -0.152222,0.40441 -0.23774,0.77161 -0.190052,0.81599 0.04773,0.0444 0.436604,0.20537 0.864244,0.35776 l 0.777531,0.27707 0.301642,-0.84893 0.301632,-0.84895 0.638184,0.21551 c 0.359438,0.12139 0.619717,0.26944 0.595916,0.33898 -0.778069,2.27302 -1.553531,4.41119 -1.59748,4.40473 -0.03157,-0.004 -0.286031,-0.0902 -0.565532,-0.19005 z m 21.305086,0.1001 c -1.201614,-0.25277 -1.954805,-1.19893 -1.954805,-2.4556 0,-2.59148 3.823135,-3.52306 5.007586,-1.22019 0.284759,0.55365 0.362141,1.23532 0.206676,1.82053 -0.313947,1.18177 -1.972734,2.12594 -3.259457,1.85526 z m 1.230189,-1.24428 c 0.194932,-0.0814 0.437714,-0.2752 0.539511,-0.43058 0.226459,-0.34561 0.239981,-1.0636 0.0278,-1.474 -0.5939,-1.14848 -2.449053,-0.70011 -2.449053,0.59192 0,0.69349 0.671036,1.45935 1.279536,1.46034 0.136308,2.3e-4 0.40733,-0.0663 0.602251,-0.14768 z m 4.295931,-1.18972 c -0.637128,-0.23842 -1.010712,-0.56503 -1.341511,-1.1728 -0.954211,-1.75321 0.434503,-3.80991 2.572518,-3.80991 0.838902,0 0.929419,0.0948 0.68973,0.72244 -0.18627,0.48773 -0.193392,0.49281 -0.600129,0.42777 -0.833008,-0.13321 -1.634243,0.50568 -1.633521,1.3025 0.0011,1.24105 1.33371,1.89358 2.252624,1.10303 l 0.299078,-0.2573 -0.296988,-0.60567 -0.296988,-0.60568 0.53964,-0.27346 0.53963,-0.27345 0.441054,0.87721 c 0.264858,0.52677 0.415734,0.95702 0.377667,1.07696 -0.09094,0.28638 -0.931013,1.03237 -1.475416,1.3101 -0.574841,0.29326 -1.538113,0.37632 -2.067388,0.17826 z m -32.947634,-0.17042 c -0.594126,-0.15527 -1.220735,-0.54204 -1.60449,-0.99038 -1.526055,-1.78284 0.06549,-4.49471 2.358499,-4.01868 1.03894,0.21569 2.059724,1.08912 2.147515,1.83754 0.02683,0.22871 -0.03405,0.2784 -0.485391,0.39604 l -0.516066,0.13452 -0.181142,-0.38173 c -0.236004,-0.49734 -0.72645,-0.78957 -1.326001,-0.79008 -0.404182,-3.2e-4 -0.530332,0.0573 -0.837319,0.38283 -0.934292,0.99064 -0.281808,2.41546 1.053681,2.30092 l 0.500685,-0.043 0.168018,0.52539 c 0.09241,0.28898 0.12772,0.55031 0.07847,0.58075 -0.17466,0.10795 -1.035455,0.14972 -1.356459,0.0658 z m 36.755793,-3.87549 c -0.73244,-1.1019 -1.31187,-2.01944 -1.287639,-2.03897 0.250497,-0.20189 1.098503,-0.73456 1.123371,-0.70563 0.151726,0.17649 2.558339,3.92345 2.556841,3.98086 -0.0011,0.0413 -0.240207,0.23072 -0.53142,0.42108 l -0.529458,0.34612 z m -42.480382,0.31049 -1.489188,-1.14159 1.416647,-1.86104 c 0.779155,-1.02358 1.453356,-1.87461 1.498225,-1.89121 0.102714,-0.038 2.862196,2.05384 2.908912,2.2051 0.01894,0.0613 -0.100386,0.26844 -0.265181,0.46022 l -0.299627,0.3487 -0.950444,-0.71637 -0.950445,-0.71637 -0.213394,0.25614 c -0.117365,0.14088 -0.215018,0.29164 -0.217006,0.33501 -0.0019,0.0434 0.36188,0.35396 0.808593,0.69019 0.866438,0.65212 0.863382,0.64295 0.406385,1.22056 l -0.199389,0.25202 -0.773173,-0.60497 c -0.425246,-0.33273 -0.822283,-0.60496 -0.882306,-0.60496 -0.06002,0 -0.207014,0.13746 -0.326647,0.30546 l -0.217515,0.30548 0.970321,0.73999 c 0.533676,0.407 0.97032,0.76584 0.97032,0.79743 0,0.10559 -0.553002,0.78399 -0.629977,0.77283 -0.04176,-0.006 -0.746058,-0.52473 -1.565111,-1.15262 z m 19.495336,0.23935 c -7.350898,-0.93062 -13.90328,-4.20731 -18.932038,-9.46748 -9.149979,-9.57105 -11.266943,-23.88143 -5.277041,-35.67206 1.566827,-3.08418 3.182785,-5.28392 5.816052,-7.91718 2.633266,-2.63327 4.833013,-4.24923 7.917181,-5.81605 11.790636,-5.98991 26.101018,-3.87295 35.672055,5.27703 5.342953,5.1079 8.61438,11.72781 9.481572,19.18652 0.21909,1.88435 0.15509,6.10916 -0.119032,7.85769 -1.070263,6.82688 -4.087833,12.81879 -8.857809,17.58877 -4.769933,4.76994 -10.742332,7.7781 -17.58878,8.85909 -1.59414,0.2517 -6.452478,0.31378 -8.11216,0.10365 z m 0.827428,-1.82132 c -0.09428,-0.0727 -4.162715,-3.646 -9.040954,-7.94053 l -8.869523,-7.80823 -0.0045,-17.22408 -0.0045,-17.22409 -0.759103,0.80124 c -4.236986,4.47215 -6.94076,10.21763 -7.825482,16.62907 -0.215058,1.5585 -0.185686,5.8202 0.05128,7.4391 0.678064,4.63256 2.159583,8.57717 4.618776,12.29769 4.570118,6.91415 11.607459,11.50654 19.83357,12.9429 1.438923,0.25125 2.259713,0.28691 2.000565,0.087 z m 8.147995,-4.50769 c 2.870089,-2.52593 5.218347,-4.62792 5.218347,-4.67107 0,-0.0808 -29.281794,-25.89408 -29.447023,-25.95896 -0.05071,-0.0199 -0.0922,4.16183 -0.0922,9.29277 v 9.32897 l 9.465604,8.33084 c 5.206085,4.58196 9.50416,8.31716 9.551266,8.30044 0.04708,-0.0167 2.433915,-2.09706 5.304003,-4.62299 z m -0.966138,4.48312 c 4.227114,-0.63489 8.305357,-2.20243 11.800323,-4.53563 3.521083,-2.35063 6.054932,-4.87587 8.398859,-8.37033 3.542115,-5.28077 5.276032,-11.66706 4.876891,-17.96231 -0.449576,-7.09071 -3.107192,-13.24843 -8.026815,-18.59818 l -0.649152,-0.70591 -0.0065,17.21311 -0.0065,17.21311 -9.010752,7.9216 c -4.955912,4.35688 -9.010742,7.93661 -9.010742,7.95496 0,0.0731 0.597478,0.0254 1.634717,-0.13042 z m 11.17717,-13.46604 3.469344,-3.0403 0.0043,-4.51672 0.0043,-4.51672 -14.82631,-13.04934 -14.826329,-13.04934 H 54.221347 50.04267 v 7.0556 7.05559 l 15.433401,13.58341 c 8.488373,7.47086 15.477453,13.56871 15.531282,13.55076 0.05387,-0.0179 1.659078,-1.40076 3.56722,-3.07294 z m -5.861487,-3.53276 c -2.704646,-0.48041 -4.67668,-3.03668 -4.407447,-5.71321 0.423287,-4.20805 5.203208,-6.29979 8.563751,-3.74757 2.168292,1.64676 2.692471,4.80761 1.184247,7.14114 -1.12559,1.7415 -3.293709,2.68322 -5.340551,2.31964 z m 2.432795,-1.99535 c 0.781495,-0.38234 1.615937,-1.29588 1.867941,-2.04499 0.289802,-0.86149 0.248331,-1.8613 -0.109705,-2.6448 -1.310771,-2.86841 -5.230759,-2.90446 -6.564167,-0.0603 -0.242469,0.51717 -0.286752,0.75815 -0.282356,1.53647 0.0043,0.77995 0.04978,1.00911 0.292635,1.47777 0.534501,1.03148 1.199083,1.6 2.285324,1.95503 0.695817,0.22742 1.793468,0.13161 2.510328,-0.21911 z M 67.74463,216.36696 c -0.987741,-0.26217 -1.755187,-0.69872 -2.456617,-1.39744 -1.050492,-1.04642 -1.56366,-2.27876 -1.55893,-3.74368 0.0054,-1.61316 0.425615,-2.62498 1.563412,-3.76278 1.137786,-1.13779 2.149619,-1.5582 3.762776,-1.56341 1.464911,-0.004 2.697266,0.50844 3.743685,1.55894 0.712689,0.71546 1.14006,1.47841 1.404067,2.50658 0.968929,3.77331 -2.69149,7.40164 -6.458393,6.40179 z m 2.734081,-1.86326 c 1.624137,-0.7201 2.540723,-2.7133 1.998475,-4.34585 -0.533197,-1.6053 -1.824854,-2.54512 -3.500881,-2.54726 -3.149762,-0.004 -4.741585,3.87335 -2.507408,6.10753 0.781895,0.78189 1.614935,1.09989 2.741829,1.04663 0.463239,-0.0219 0.958564,-0.12387 1.267985,-0.26105 z m -13.322586,-7.45628 c -2.620411,-0.64811 -4.401094,-3.29497 -3.992521,-5.93457 0.487287,-3.14812 3.545142,-5.1834 6.59441,-4.38917 1.542854,0.40187 2.795604,1.45516 3.5099,2.95108 0.40025,0.83822 0.404215,0.85995 0.404215,2.21222 v 1.36569 l -0.460555,0.92945 c -0.940129,1.89726 -2.756719,3.03544 -4.802214,3.00884 -0.390629,-0.005 -0.954588,-0.0697 -1.253235,-0.14354 z M 59.98138,205.136 c 1.457466,-0.70555 2.283396,-2.31204 1.993874,-3.87821 -0.148709,-0.80447 -0.435278,-1.35396 -1.001295,-1.91998 -0.759171,-0.75917 -1.356649,-0.98875 -2.56893,-0.98713 -0.867121,10e-4 -1.107058,0.0414 -1.504055,0.25207 -0.717657,0.38086 -1.390341,1.05967 -1.724576,1.74028 -0.257112,0.52356 -0.300878,0.74693 -0.300878,1.53576 0,0.79122 0.04342,1.0116 0.304121,1.54241 0.371612,0.75674 1.186692,1.51535 1.954978,1.81954 0.783898,0.31035 2.088431,0.26237 2.846761,-0.10473 z M 88.0167,191.16364 c -0.02047,-0.0204 -6.09192,-0.0247 -13.492231,-0.01 l -13.455123,0.0276 13.464594,11.85037 13.464605,11.85037 0.02758,-11.84083 c 0.01519,-6.51246 0.01088,-11.85754 -0.0097,-11.87796 z m -2.244456,-1.81699 c 0,-0.0237 -0.452055,-0.33445 -1.00456,-0.69051 -3.48111,-2.24342 -7.424176,-3.68365 -11.86455,-4.33358 -1.618911,-0.23696 -5.880611,-0.26633 -7.439109,-0.0513 -4.54549,0.62724 -8.71092,2.13182 -12.234368,4.41914 l -1.069135,0.69405 16.80586,0.002 c 9.243223,0.001 16.805862,-0.0167 16.805862,-0.0405 z m 5.715277,54.53395 c -0.149216,-0.49318 -0.480133,-1.61641 -0.73537,-2.49607 l -0.464069,-1.59939 0.299801,-0.31292 c 0.637365,-0.66526 0.550835,-0.68037 3.058997,0.53374 1.253709,0.60686 2.297823,1.11998 2.320255,1.14026 0.02241,0.0203 -0.120082,0.17328 -0.316705,0.33998 -0.714306,0.60567 -0.707594,0.60362 -1.183557,0.36079 l -0.434309,-0.22156 -0.763556,0.65718 c -0.419958,0.36145 -0.763567,0.67318 -0.763567,0.69274 0,0.0195 0.0696,0.2327 0.154571,0.47364 l 0.15456,0.43809 -0.527864,0.4451 -0.527875,0.44511 z m 1.165638,-2.40404 0.419214,-0.3589 -0.607617,-0.34292 c -0.334192,-0.18861 -0.652805,-0.34292 -0.708035,-0.34292 -0.05527,0 0.0032,0.31765 0.1291,0.7059 0.126234,0.38824 0.256196,0.70406 0.288811,0.70182 0.03265,-0.002 0.247953,-0.16558 0.478527,-0.36298 z m -50.729804,-0.52731 -0.459967,-0.45997 1.327501,-1.3307 1.327502,-1.33069 -0.537182,-0.54538 -0.537182,-0.54539 0.378753,-0.37875 0.378753,-0.37875 1.548219,1.55098 1.548222,1.55099 -0.38328,0.37149 -0.383279,0.37149 -0.529828,-0.52185 -0.529827,-0.52187 -1.276157,1.31419 c -0.701888,0.7228 -1.306785,1.31417 -1.344219,1.31417 -0.03743,0 -0.275046,-0.20698 -0.528029,-0.45996 z m 54.600293,-3.63091 c -0.642149,-0.25062 -0.859115,-1.04602 -0.43308,-1.58764 0.594202,-0.75541 1.736277,-0.26982 1.736277,0.73823 0,0.53628 -0.788585,1.05027 -1.303197,0.84941 z m -57.385479,-2.10766 c -0.380823,-0.45258 -0.368404,-0.89853 0.0363,-1.30322 0.650354,-0.65036 1.626115,-0.23707 1.6339,0.69204 0.0076,0.90702 -1.084879,1.30678 -1.670194,0.61118 z m 61.820361,-1.42319 -0.28922,-0.45255 0.26424,-0.20785 c 0.31301,-0.24622 0.58569,-0.73855 0.58569,-1.05748 0,-0.26958 -0.29173,-0.8688 -0.42297,-0.8688 -0.0504,0 -0.12009,0.17559 -0.15493,0.3902 -0.12788,0.78804 -0.8841,1.456 -1.648399,1.456 -1.317914,0 -1.897313,-1.41201 -1.113145,-2.71279 0.793488,-1.31624 2.278414,-1.42399 3.655514,-0.26524 0.80342,0.67604 1.04291,1.90662 0.55842,2.86944 -0.22322,0.44361 -0.9413,1.30432 -1.08657,1.30242 -0.0326,-4.5e-4 -0.18956,-0.20444 -0.34863,-0.45335 z m -1.049686,-2.22342 c 0.396676,-0.35897 0.108926,-1.12346 -0.422867,-1.12346 -0.42667,0 -0.752544,0.86314 -0.44281,1.17288 0.186345,0.18634 0.633368,0.16083 0.865677,-0.0495 z m -64.595901,0.08 c -0.187204,-0.11415 -0.466695,-0.37317 -0.62109,-0.57559 -1.30469,-1.71054 -0.474945,-3.7565 1.246712,-3.07412 0.128201,0.0509 0.196019,-0.008 0.247265,-0.21133 0.08413,-0.33518 0.649625,-0.70803 1.074728,-0.70859 0.931146,-0.001 1.806234,1.14499 1.811273,2.3725 0.0022,0.52155 -0.03682,0.62021 -0.380649,0.96404 -0.349542,0.34954 -0.425166,0.37829 -0.864924,0.32872 -0.470034,-0.053 -0.484935,-0.0451 -0.605565,0.32042 -0.236352,0.71614 -1.2048,1.01258 -1.90775,0.58395 z m 0.84767,-1.27458 c 0.261477,-0.23663 0.251514,-0.5925 -0.02648,-0.94591 -0.289706,-0.36831 -0.689517,-0.37435 -0.925625,-0.014 -0.150799,0.23014 -0.157366,0.32271 -0.04256,0.59987 0.220312,0.53188 0.637809,0.68301 0.994668,0.36005 z m 1.604765,-0.90325 c 0.275774,-0.14758 0.346567,-0.39399 0.203442,-0.70812 -0.148342,-0.32557 -0.438942,-0.43384 -0.736703,-0.27449 -0.285099,0.15258 -0.287149,0.58796 -0.0041,0.871 0.249542,0.24954 0.271231,0.25404 0.537363,0.11161 z m 63.849252,-0.6828 c -0.93488,-0.48394 -1.3186,-1.03349 -1.37851,-1.97415 -0.037,-0.58062 0.003,-0.7982 0.24442,-1.32517 0.31097,-0.67926 0.56752,-1.02114 0.75688,-1.00865 0.0654,0.004 0.25673,0.17375 0.42514,0.37651 l 0.30623,0.36868 -0.22219,0.2385 c -0.47405,0.50882 -0.54194,1.31321 -0.14776,1.75061 0.26,0.28852 0.35463,0.23088 0.3566,-0.21719 0.004,-0.88448 0.78524,-1.68738 1.63075,-1.67571 1.21166,0.0167 1.85515,1.27194 1.29054,2.51736 -0.43155,0.95191 -0.95203,1.3032 -1.9308,1.3032 -0.51865,0 -0.78359,-0.0705 -1.3313,-0.35399 z m 2.18522,-1.05781 c 0.24128,-0.24128 0.28795,-0.75462 0.0868,-0.95568 -0.18634,-0.18635 -0.63338,-0.16083 -0.86569,0.0494 -0.2774,0.25105 -0.25523,0.74569 0.0428,0.95441 0.319,0.22343 0.47465,0.21325 0.73604,-0.0482 z m -70.991494,-1.06687 -0.229658,-0.63828 1.772686,-0.6253 1.772687,-0.6253 -0.146891,-0.41634 -0.14689,-0.41632 0.484083,-0.18488 c 0.266247,-0.10171 0.499307,-0.1656 0.517915,-0.14204 0.06884,0.0872 0.732507,2.07681 0.700464,2.09998 -0.01828,0.0132 -0.986202,0.35766 -2.150938,0.76544 -1.164736,0.40778 -2.168573,0.7594 -2.23075,0.78138 -0.06218,0.022 -0.216395,-0.24729 -0.342708,-0.59834 z m 72.294684,-20.62295 -1.57469,-0.49118 -0.88727,0.21376 -0.88727,0.21378 -0.12219,-0.49913 c -0.0672,-0.27451 -0.14625,-0.58004 -0.17566,-0.67895 -0.0435,-0.14634 0.10409,-0.21588 0.79226,-0.3734 l 0.84573,-0.19358 1.30851,-1.28275 c 0.71969,-0.70551 1.33611,-1.28274 1.36983,-1.28274 0.0337,0 0.12427,0.29679 0.20125,0.65955 l 0.13997,0.65956 -0.79801,0.80337 c -0.4389,0.44185 -0.77621,0.82103 -0.74958,0.84263 0.0266,0.0215 0.52062,0.17646 1.09773,0.34414 l 1.04932,0.30489 0.16032,0.63643 c 0.14679,0.58276 0.14531,0.63552 -0.0176,0.62562 -0.0978,-0.006 -0.88655,-0.23184 -1.75264,-0.502 z m -71.99045,0.01 c -1.041944,-0.51922 -1.550021,-1.62174 -1.316003,-2.85571 0.175744,-0.9267 0.611324,-1.55786 1.382209,-2.00283 0.0857,-0.0495 0.228294,0.11413 0.407166,0.46712 0.267732,0.52834 0.269535,0.54632 0.06572,0.6554 -0.383688,0.20534 -0.695268,0.76591 -0.695268,1.25087 0,0.8075 0.601605,1.35761 1.486011,1.35881 0.452234,6.5e-4 0.577709,-0.0503 0.887385,-0.35996 0.449434,-0.44943 0.565549,-0.97729 0.335888,-1.52694 l -0.168101,-0.40233 0.509034,-0.32281 0.509035,-0.32283 0.20685,0.40319 c 0.255196,0.49743 0.269497,1.5224 0.03044,2.18117 -0.556283,1.53293 -2.194304,2.19745 -3.640358,1.47685 z m 2.220191,-5.59078 c -1.191702,-0.53482 -2.182023,-0.9877 -2.200713,-1.00639 -0.03744,-0.0375 0.507649,-1.26166 0.561766,-1.26166 0.01853,0 0.805388,0.34335 1.748564,0.763 0.943175,0.41964 1.746949,0.72509 1.786163,0.67875 0.03921,-0.0463 0.258344,-0.51186 0.486955,-1.03449 0.228611,-0.52264 0.455808,-0.95026 0.50488,-0.95026 0.09336,0 0.96242,0.33414 0.96242,0.37004 0,0.13208 -1.518474,3.37369 -1.588226,3.39051 -0.05229,0.0126 -1.070106,-0.41467 -2.261809,-0.9495 z m 64.770799,0.38365 c -0.117332,-0.27374 -0.213333,-0.56089 -0.213333,-0.63812 0,-0.0791 0.723583,-0.43637 1.656143,-0.81779 0.91089,-0.37256 1.69132,-0.69825 1.7343,-0.72376 0.0665,-0.0394 -0.009,-0.27036 -0.42689,-1.31327 -0.0592,-0.1475 0.84219,-0.59388 0.96233,-0.47658 0.0388,0.0379 0.42312,0.92414 0.85402,1.96942 0.43088,1.04528 0.80345,1.93436 0.82793,1.97574 0.0415,0.0701 -0.94061,0.55865 -0.99758,0.49623 -0.0143,-0.0156 -0.14983,-0.32168 -0.30118,-0.68006 -0.16071,-0.38053 -0.33493,-0.64058 -0.41878,-0.6251 -0.079,0.0145 -0.84443,0.32002 -1.701,0.67875 -0.85659,0.35873 -1.60358,0.65225 -1.66002,0.65225 -0.0565,0 -0.19859,-0.22397 -0.31594,-0.49771 z m -1.65607,-3.44945 c -0.162178,-0.30976 -0.294866,-0.59515 -0.294866,-0.63422 0,-0.0391 0.818571,-0.52049 1.819058,-1.06982 1.000478,-0.54934 1.965868,-1.08739 2.145318,-1.19567 l 0.32628,-0.19688 0.34723,0.62682 0.34724,0.62682 -1.97671,1.09061 c -1.08719,0.59982 -2.076153,1.14121 -2.1977,1.20306 -0.196527,0.1 -0.25361,0.0501 -0.51585,-0.45072 z m -60.732208,-1.84338 -1.490595,-2.24687 0.365904,-0.60469 c 0.316018,-0.52223 0.402918,-0.59752 0.637404,-0.55218 0.149325,0.0289 1.273335,0.2059 2.497801,0.3934 1.224465,0.18751 2.308956,0.37513 2.409978,0.41694 0.162816,0.0673 0.144315,0.14078 -0.162901,0.64618 l -0.346576,0.57015 -0.54828,-0.0641 -0.548281,-0.0641 -0.383359,0.57992 c -0.828115,1.25275 -0.777514,1.081 -0.457323,1.55221 0.277238,0.40799 0.280013,0.42845 0.10239,0.75524 -0.100418,0.18474 -0.273243,0.45488 -0.384068,0.60031 l -0.201499,0.26443 z m 1.398781,-1.26614 c 0.157264,-0.23764 0.285933,-0.45202 0.285933,-0.47641 0,-0.0725 -1.416583,-0.31753 -1.478445,-0.25568 -0.06926,0.0693 0.704406,1.16416 0.8226,1.16416 0.04619,0 0.212651,-0.19443 0.369912,-0.43207 z m 58.158942,0.75886 c -0.215016,-0.11364 -0.551126,-0.38908 -0.74692,-0.61208 -0.433458,-0.49368 -0.97966,-1.61708 -0.979779,-2.01514 -8.6e-5,-0.29826 0.05323,-0.33282 0.719801,-0.4665 0.323731,-0.065 0.343416,-0.0489 0.416327,0.33979 0.153375,0.81757 0.730564,1.66694 1.132776,1.66694 0.343976,0 0.346023,-0.28763 0.0086,-1.20291 -0.458293,-1.24295 -0.419936,-1.81088 0.154754,-2.29136 0.646793,-0.54076 1.549447,-0.34324 2.328916,0.50964 0.52585,0.57536 1.06353,1.67094 0.95669,1.94936 -0.0263,0.0685 -0.26902,0.17526 -0.53936,0.23712 l -0.49153,0.11248 -0.11324,-0.44973 c -0.12267,-0.48716 -0.504593,-1.11371 -0.785151,-1.28804 -0.09643,-0.0599 -0.260527,-0.0762 -0.364705,-0.0362 -0.242491,0.0931 -0.186453,0.48973 0.222773,1.57706 0.284134,0.75495 0.292484,0.82607 0.146372,1.24536 -0.294877,0.84622 -1.221203,1.17091 -2.066279,0.72425 z m -56.189709,-3.97449 c -0.89595,-0.81073 -1.716751,-1.55921 -1.824,-1.66329 -0.186787,-0.18127 -0.155185,-0.23346 0.750127,-1.23871 1.013574,-1.12546 1.564184,-1.48671 2.266071,-1.48671 0.958403,0 1.910153,1.03173 1.748186,1.89508 l -0.06895,0.36754 0.736286,0.0779 c 1.160688,0.12281 1.167341,0.13087 0.612693,0.7422 l -0.481416,0.53062 -0.783497,-0.11107 c -0.75164,-0.10656 -0.794393,-0.10052 -1.051484,0.1471 l -0.267987,0.25815 0.47627,0.48529 0.476271,0.48528 -0.425484,0.48293 c -0.234016,0.26561 -0.449918,0.48716 -0.479783,0.49233 -0.02987,0.005 -0.78735,-0.65391 -1.683301,-1.46464 z m 1.161013,-1.53795 c 0.301274,-0.32302 0.522289,-0.70123 0.522289,-0.89374 0,-0.20354 -0.519932,-0.65381 -0.754951,-0.65381 -0.239821,0 -1.090177,0.70692 -1.092931,0.90858 -0.0016,0.11605 0.854533,0.92741 0.985913,0.93437 0.03362,0.002 0.186478,-0.13114 0.33968,-0.2954 z m 52.007948,1.85806 c -0.49943,-0.56738 -0.487039,-0.50708 -0.291471,-1.41841 0.138732,-0.64653 0.135047,-0.6824 -0.09223,-0.89595 -0.316479,-0.29732 -0.364706,-0.28702 -0.842953,0.17998 l -0.412125,0.40241 -0.489097,-0.48001 -0.489108,-0.48003 0.625147,-0.63678 c 0.343825,-0.35022 1.153388,-1.12979 1.799006,-1.73237 l 1.173871,-1.09558 0.813743,0.80542 c 1.41119,1.39673 1.749035,2.12703 1.394231,3.0138 -0.307968,0.76967 -1.168042,1.28731 -1.896753,1.14156 -0.340981,-0.0682 -0.342985,-0.0644 -0.549187,1.0212 -0.0709,0.37331 -0.167285,0.67875 -0.214165,0.67875 -0.04687,0 -0.284877,-0.22679 -0.528866,-0.50399 z m 1.830986,-2.82537 c 0.283164,-0.36 0.217784,-0.61084 -0.300038,-1.15108 l -0.391017,-0.40795 -0.525515,0.51654 -0.525526,0.51655 0.43543,0.40725 c 0.539823,0.50488 0.97201,0.54414 1.306666,0.11869 z m -51.140507,-1.8316 c -0.838497,-1.05394 -1.524538,-1.95184 -1.524538,-1.99533 0,-0.0693 0.224018,-0.25829 0.873418,-0.7371 0.147719,-0.10892 0.262957,-0.0148 0.756545,0.61842 0.320256,0.4108 0.615756,0.72622 0.656669,0.70093 0.04091,-0.0253 0.109479,-0.6339 0.152368,-1.3525 l 0.07797,-1.30652 0.61486,-0.47318 0.614862,-0.47316 -0.072,0.93575 c -0.0396,0.51466 -0.07625,1.18653 -0.08146,1.49303 l -0.0095,0.55729 1.680904,0.42012 1.680905,0.4201 -0.634142,0.50683 -0.634143,0.50682 -1.110621,-0.26247 c -0.610837,-0.14436 -1.13075,-0.26248 -1.155357,-0.26248 -0.02461,0 -0.04475,0.17505 -0.04475,0.38898 0,0.28433 0.103015,0.51469 0.382944,0.85631 l 0.382945,0.46733 -0.541707,0.45354 -0.541707,0.45354 z m 44.358986,0.099 c -0.836219,-0.63078 -1.507276,-1.19427 -1.491233,-1.25222 0.02974,-0.1072 2.547823,-3.50098 2.797403,-3.77012 0.11323,-0.12211 0.39968,0.0509 1.668711,1.00744 0.842609,0.63516 1.530711,1.19019 1.529095,1.2334 -0.0011,0.0432 -0.142321,0.24668 -0.312709,0.45217 l -0.309799,0.37362 -0.975813,-0.72657 c -0.536699,-0.39961 -0.997664,-0.72656 -1.024364,-0.72656 -0.02672,0 -0.15192,0.13982 -0.278272,0.31072 l -0.229723,0.31072 0.860903,0.63326 c 0.473496,0.34831 0.860904,0.6575 0.860904,0.68711 0,0.12016 -0.495702,0.77176 -0.58763,0.77245 -0.05441,4.3e-4 -0.465933,-0.27548 -0.914486,-0.61309 l -0.815553,-0.61384 -0.252964,0.29409 c -0.139131,0.16175 -0.252974,0.33018 -0.252974,0.37429 0,0.0441 0.415076,0.38762 0.922383,0.76335 0.507317,0.37574 0.951334,0.72999 0.986717,0.78724 0.06615,0.10699 -0.448187,0.85708 -0.584268,0.85214 -0.04181,-0.001 -0.760109,-0.51883 -1.596328,-1.1496 z M 50.221296,184.8253 c -0.147273,-0.73637 -0.103478,-0.86523 0.29402,-0.86523 0.752437,0 1.808107,-0.5696 1.808107,-0.97561 0,-0.31567 -0.316156,-0.34607 -1.142272,-0.10982 -0.909353,0.26005 -1.654339,0.27775 -1.983587,0.0472 -0.534126,-0.37412 -0.726768,-1.26906 -0.406491,-1.8884 0.351075,-0.67891 1.445702,-1.3564 2.521728,-1.56077 0.38116,-0.0724 0.426882,-0.009 0.488398,0.6833 0.0325,0.36544 0.01958,0.37934 -0.422973,0.45503 -0.695221,0.11891 -1.444004,0.59144 -1.444004,0.91125 0,0.34211 0.281246,0.36223 1.317216,0.0943 0.918714,-0.23764 1.085879,-0.25253 1.458112,-0.12985 0.822811,0.27118 1.136553,1.1831 0.700876,2.03711 -0.360839,0.7073 -1.550998,1.42476 -2.61898,1.5788 -0.496359,0.0715 -0.500823,0.0694 -0.57015,-0.27722 z m 34.591307,-0.882 c -0.539985,-0.31474 -0.575563,-0.3609 -0.521227,-0.67636 0.03211,-0.18621 0.143462,-1.37706 0.247533,-2.64632 0.104082,-1.26926 0.2294,-2.30775 0.278521,-2.30775 0.04913,0 0.358338,0.15183 0.687154,0.33741 l 0.597855,0.33741 -0.05721,0.50424 c -0.119296,1.05204 -0.273026,2.62018 -0.273026,2.78489 0,0.10709 0.508438,-0.23849 1.353255,-0.91973 l 1.353255,-1.09122 0.602843,0.29566 c 0.331564,0.16262 0.590033,0.32984 0.574389,0.3716 -0.03836,0.10246 -4.109748,3.35339 -4.195868,3.35035 -0.03739,-0.001 -0.328773,-0.1544 -0.647515,-0.34018 z m -29.480169,-1.67236 c -0.980134,-0.31324 -1.707413,-1.37304 -1.704751,-2.48416 0.0032,-1.40074 1.356002,-2.60031 2.931136,-2.59944 1.060835,5.8e-4 1.839066,0.48203 2.345995,1.45134 0.285826,0.5465 0.269708,1.65683 -0.03232,2.22629 -0.637484,1.202 -2.216303,1.82904 -3.540068,1.40597 z m 1.607598,-1.18223 c 0.719941,-0.30081 1.001187,-1.158 0.623175,-1.89932 -0.263027,-0.51581 -0.68487,-0.79753 -1.194234,-0.79753 -1.305589,0 -1.790236,1.56357 -0.770722,2.48644 0.440203,0.39847 0.768481,0.44995 1.341781,0.21041 z m 24.057236,1.12178 c -0.266905,-0.11905 -0.501973,-0.23316 -0.52239,-0.25357 -0.03674,-0.0367 1.65313,-4.48862 1.734898,-4.57039 0.05937,-0.0594 1.282176,0.39909 1.280484,0.48013 -0.0054,0.27412 -1.749778,4.52316 -1.863298,4.53949 -0.07941,0.0114 -0.362799,-0.0766 -0.629694,-0.19566 z m -2.501234,-0.87628 c -0.355914,-0.0989 -0.427758,-0.20354 -1.129221,-1.64492 l -0.749129,-1.53932 -0.294574,1.2247 c -0.162016,0.67358 -0.314228,1.24436 -0.338255,1.26839 -0.06389,0.0639 -1.110699,-0.1659 -1.2195,-0.26763 -0.05096,-0.0476 0.162889,-1.14204 0.475112,-2.43206 0.615159,-2.54166 0.558841,-2.44481 1.301429,-2.2385 0.355236,0.0987 0.432316,0.2092 1.149973,1.6487 l 0.769223,1.54292 0.304639,-1.24206 c 0.167543,-0.68314 0.315531,-1.25593 0.328859,-1.2729 0.02403,-0.0306 0.97174,0.15977 1.207939,0.24266 0.10656,0.0374 -0.387763,2.35453 -0.945311,4.43083 -0.117711,0.43837 -0.196441,0.4639 -0.861184,0.27919 z m -17.855836,-0.53854 c -0.06292,-0.19426 -0.823721,-4.45592 -0.823527,-4.61325 8.6e-5,-0.0667 0.242814,-0.16935 0.539403,-0.22799 l 0.539253,-0.10667 1.279805,1.06454 c 0.703887,0.5855 1.29225,1.02947 1.307474,0.98661 0.01519,-0.0429 -0.06669,-0.59035 -0.18196,-1.21665 -0.115297,-0.6263 -0.176626,-1.17121 -0.136275,-1.21092 0.0403,-0.0397 0.345311,-0.10526 0.677705,-0.14575 l 0.604352,-0.0736 0.413923,2.31774 c 0.227655,1.27477 0.419969,2.36328 0.427349,2.41891 0.0075,0.0556 -0.234798,0.15847 -0.538186,0.22855 l -0.551622,0.1274 -1.277014,-1.07872 c -0.702357,-0.59329 -1.292832,-1.06266 -1.312172,-1.04305 -0.01929,0.0196 0.05614,0.52437 0.167651,1.12166 0.111538,0.59731 0.204985,1.14186 0.207636,1.21014 0.0065,0.15409 -0.155487,0.21784 -0.794533,0.31368 -0.378066,0.0567 -0.513114,0.0388 -0.549262,-0.0727 z m 9.765128,-0.79973 c -0.238913,-0.0845 -0.59028,-0.32276 -0.780806,-0.52951 -0.534167,-0.57964 -0.61574,-1.0599 -0.487535,-2.87023 0.06077,-0.85798 0.135877,-1.58536 0.166897,-1.61639 0.03103,-0.031 0.35488,-0.0218 0.71965,0.0206 l 0.663235,0.0769 -0.06238,0.45031 c -0.03437,0.24767 -0.07316,1.01874 -0.08641,1.7135 -0.02877,1.51101 0.0765,1.72331 0.853739,1.72331 0.814983,0 0.935463,-0.2996 1.086004,-2.70045 l 0.07057,-1.12575 0.665476,0.0753 c 0.36601,0.0414 0.677328,0.0872 0.691819,0.10161 0.06842,0.0684 -0.210059,3.09761 -0.315477,3.43207 -0.299498,0.95026 -0.984519,1.40872 -2.098753,1.40465 -0.358381,-0.001 -0.84708,-0.0715 -1.086004,-0.15598 z"
       id="path112"
       sodipodi:nodetypes="cscssccscscsssssccccsssssscsssssccsscsccsssssssscssscccsccsscccccssccscccccccccccsssscsssscssscscccsccsssssscccssccscssscscccccscssccssscscsccssccscssscsscscsscccsccscssscsscscsssssscsscccscccsscssccsscscssscsssscccssccccccccccccccccsscsscssscssccsscscscscscscccsssscsccsssccsscssscccccccccsscsccccsscssscscssccccsscssccsccccccccccccccsscsssssccssscssscsssssscssccssccccsccsssssssssssssccsscssccssssccssssccccccccsssccccccscssscscscscscsscscsccscccssssscssssssssssssscsscscssscssscccsscccssccscccscssccsscsssssccsccssccsscssssssssccssccccccccsscssccccscscccsccsssssccsscccsscssccscccsccccccssssccccscsccscsssccscscsssccscsssccccssccscccccsscccssccccccccsccccsssssccscsccscsscsssccsssccsccscccccccscsccccccccssccccsccccsccc" />
  </g>
</svg>
