<?xml version="1.0" encoding="UTF-8" standalone="no"?>
<svg
   xmlns:dc="http://purl.org/dc/elements/1.1/"
   xmlns:cc="http://creativecommons.org/ns#"
   xmlns:rdf="http://www.w3.org/1999/02/22-rdf-syntax-ns#"
   xmlns:svg="http://www.w3.org/2000/svg"
   xmlns="http://www.w3.org/2000/svg"
   xmlns:sodipodi="http://sodipodi.sourceforge.net/DTD/sodipodi-0.dtd"
   xmlns:inkscape="http://www.inkscape.org/namespaces/inkscape"
   width="83.639565mm"
   height="100.00002mm"
   viewBox="0 0 83.639565 100.00002"
   version="1.1"
   id="svg1053"
   inkscape:version="1.0.1 (3bc2e813f5, 2020-09-07)"
   sodipodi:docname="clarkson-logo-athletic-2.svg">
  <defs
     id="defs1047">
    <pattern
       id="EMFhbasepattern"
       patternUnits="userSpaceOnUse"
       width="6"
       height="6"
       x="0"
       y="0" />
    <pattern
       id="EMFhbasepattern-2"
       patternUnits="userSpaceOnUse"
       width="6"
       height="6"
       x="0"
       y="0" />
    <pattern
       id="EMFhbasepattern-5"
       patternUnits="userSpaceOnUse"
       width="6"
       height="6"
       x="0"
       y="0" />
  </defs>
  <sodipodi:namedview
     id="base"
     pagecolor="#ffffff"
     bordercolor="#666666"
     borderopacity="1.0"
     inkscape:pageopacity="0.0"
     inkscape:pageshadow="2"
     inkscape:zoom="0.7"
     inkscape:cx="250.0597"
     inkscape:cy="518.29836"
     inkscape:document-units="mm"
     inkscape:current-layer="layer1"
     inkscape:document-rotation="0"
     showgrid="false"
     fit-margin-top="0"
     fit-margin-left="0"
     fit-margin-right="0"
     fit-margin-bottom="0"
     inkscape:window-width="1920"
     inkscape:window-height="1186"
     inkscape:window-x="-11"
     inkscape:window-y="-11"
     inkscape:window-maximized="1" />
  <metadata
     id="metadata1050">
    <rdf:RDF>
      <cc:Work
         rdf:about="">
        <dc:format>image/svg+xml</dc:format>
        <dc:type
           rdf:resource="http://purl.org/dc/dcmitype/StillImage" />
        <dc:title></dc:title>
      </cc:Work>
    </rdf:RDF>
  </metadata>
  <g
     inkscape:label="Layer 1"
     inkscape:groupmode="layer"
     id="layer1"
     transform="translate(61.345768,31.222484)">
    <path
       id="path1108"
       style="fill:#000000;stroke-width:0.0430299"
       d="m -21.944263,-31.217992 c -1.410877,0.03318 -2.827656,0.125405 -4.209757,0.396807 -4.840252,0.885221 -9.498516,2.639374 -13.843347,4.927802 -3.078615,1.631533 -6.006947,3.524153 -8.746938,5.68267 -2.366458,1.886838 -4.567853,3.987 -6.527354,6.294968 -2.194117,2.614611 -4.092398,5.5343473 -5.209786,8.7769844 -0.465167,1.352437 -0.785218,2.7620852 -0.844763,4.19446323 -0.03242,0.70954711 -0.02644,1.44740889 0.03229,2.15850697 0.07696,1.0398549 0.281613,2.0598156 0.660296,3.0296313 0.816961,2.2091047 2.302549,4.1101547 4.127243,5.5829099 1.159625,0.9410842 2.435278,1.7131092 3.765982,2.3692422 0.713373,0.35868 1.431733,0.707358 2.148095,1.060162 0,9.497443 0,18.994887 0,28.492331 1.307447,1.183418 2.642317,2.336936 3.9621,3.506829 8.784913,7.732749 17.568246,15.468599 26.363783,23.187278 0.131996,0.11141 0.25517,0.23371 0.395413,0.334938 0.790254,-0.661526 1.554336,-1.355338 2.332534,-2.031659 9.3010302,-8.176122 18.6048884,-16.35339 27.894733,-24.544129 0.167757,-0.146697 0.332661,-0.296586 0.498319,-0.445639 7.31e-4,-3.533051 0.0012,-7.0661 0.002,-10.599151 1.165596,-1.060245 2.368683,-2.08706 3.690408,-2.950008 1.110048,-0.757524 2.294966,-1.397926 3.516114,-1.956481 1.402745,-0.656659 2.827684,-1.265508 4.230694,-1.921841 -1.875044,-1.022768 -3.772776,-2.003498 -5.677705,-2.969229 -1.890615,-0.938722 -3.816409,-1.804018 -5.739985,-2.672479 -0.01838,-10.2702065 -0.01397,-20.5404996 -0.06397,-30.810621 -0.0038,-0.321959 -0.0022,-0.644002 -0.01126,-0.965878 -1.7527072,-0.04578 -3.5065258,-0.02706 -5.2597202,-0.03616 -4.158932,-0.0032 -8.3178663,-0.0016 -12.4767985,-0.0019 -1.2773358,-0.798385 -2.6164471,-1.478416 -4.0279693,-2.002324 -0.630327,-0.238939 -1.299929,-0.43788 -1.957536,-0.633299 -0.30803,-0.612478 -0.714474,-1.171039 -1.200987,-1.654006 -0.107267,-0.112611 -0.21447,-0.22529 -0.321816,-0.337828 0.942013,-1.121973 1.743752,-2.381788 2.228351,-3.770216 0.560923,-1.647116 0.637169,-3.523147 -0.09509,-5.130898 -0.419362,-0.918797 -0.999994,-1.766497 -1.802845,-2.396634 -1.507026,-1.210168 -3.396595,-1.874449 -5.307054,-2.070388 -0.839172,-0.09167 -1.677367,-0.109245 -2.523572,-0.09472 z m 0.436651,2.064212 c 0.869386,0.0061 1.744022,0.03025 2.596431,0.217518 1.408318,0.27336 2.835141,0.804172 3.842866,1.865266 0.802711,0.827192 1.242137,1.983596 1.197252,3.134827 -0.04519,1.471374 -0.702284,2.855946 -1.554998,4.02922 -0.238606,0.307468 -0.454933,0.640624 -0.739833,0.906621 -0.219053,0.09698 -0.43413,-0.09916 -0.632993,-0.171968 -0.97145,-0.503003 -2.013805,-0.84648 -3.050211,-1.18846 -0.86671,0.262062 -1.723451,0.564533 -2.552774,0.928156 -0.417743,0.19824 -0.830068,0.407652 -1.243759,0.614171 -0.470241,-0.646122 -0.965474,-1.28276 -1.584707,-1.794699 -0.738762,-0.629589 -1.63574,-1.152461 -2.561859,-1.512756 -2.083701,-0.813126 -4.392461,-0.997492 -6.58854,-0.708071 -3.35761,0.439035 -6.512356,1.95444 -9.145281,4.054287 -1.978374,1.570356 -3.702302,3.445317 -5.208308,5.468371 -0.986229,1.357892 -1.865555,2.820623 -2.387038,4.423847 -0.451182,1.4248602 -0.471166,3.0395262 0.185719,4.4049492 0.521527,1.0628091 1.38116,1.9210524 2.310017,2.6360707 1.733538,1.28274645 3.724514,2.1545087 5.75227,2.8707821 0.258055,0.108509 0.551125,0.1661114 0.772188,0.3436497 0.1061,0.1470534 -0.0216,0.3363916 -0.02174,0.4997236 -0.206932,1.2266796 -0.372441,2.4784023 -0.437292,3.727748 -0.597281,0.7755235 -1.228451,1.5604138 -1.523629,2.5099234 -0.611654,1.7142253 -0.67908,3.5888323 -0.361341,5.3712273 0.05481,0.158666 -0.137285,0.245958 -0.260192,0.168088 -1.739664,-0.74466 -3.451782,-1.55348 -5.160801,-2.364286 -1.658435,-0.795403 -3.339794,-1.5806834 -4.819029,-2.688783 -1.583291,-1.1560724 -2.929334,-2.6743646 -3.731178,-4.4746419 -0.422426,-0.9155799 -0.691466,-1.9020252 -0.80708,-2.9028427 -0.06128,-0.95221258 -0.06959,-1.91280218 0.03424,-2.8622559 0.306418,-2.0642091 1.053068,-4.0414737 2.040106,-5.8727762 1.804918,-3.3388313 4.314706,-6.2503743 7.095277,-8.8139523 3.733338,-3.420171 7.98766,-6.260669 12.537239,-8.477093 3.822459,-1.85316 7.872424,-3.284616 12.06626,-4.003777 1.136343,-0.187193 2.282099,-0.348456 3.436639,-0.337629 0.168694,-1.51e-4 0.337387,-2.94e-4 0.506078,-4.64e-4 z m -10.93247,8.303994 c 0.757827,-4.64e-4 1.520142,0.02691 2.261348,0.198088 1.423975,0.286445 2.826306,0.873256 3.883062,1.89199 0.334044,0.340789 0.647466,0.708012 0.872008,1.131713 -0.493502,0.511085 -0.975231,1.048507 -1.293287,1.689939 -0.128064,0.246946 -0.447844,0.222024 -0.662577,0.317199 -1.327202,0.39615 -2.636067,0.907472 -3.866266,1.5603 -0.555991,0.284916 -1.090049,0.609653 -1.624274,0.932879 -4.448415,0 -8.896829,0 -13.345244,0 0.792448,-1.039903 1.726076,-1.962753 2.666675,-2.867618 1.143394,-1.068784 2.40529,-2.01282 3.754815,-2.805597 1.844427,-1.078508 3.91313,-1.785885 6.040452,-2.005561 0.437103,-0.03143 0.875103,-0.0418 1.313288,-0.04333 z m 12.615268,2.653716 c 1.32868,0.471203 2.634838,1.054758 3.778438,1.888503 0.636464,0.48522 1.254037,1.138836 1.334142,1.973093 0.03056,0.09822 -0.02443,0.259735 0.06248,0.314923 0.950327,0.225495 1.927878,0.466551 2.854246,0.813383 2.8913838,1.046899 5.5228464,2.836782 7.4867534,5.2108193 1.6528681,1.9883468 2.8496893,4.3272527 3.68008254,6.7677791 0.83978458,2.4843273 1.30805298,5.0966398 1.34133677,7.7208057 -0.0488267,0.1854204 0.08827,0.2524973 0.2384617,0.3112412 0.60725039,0.3256205 1.06653479,0.8984259 1.28255219,1.5505032 0.3490596,0.8860093 0.5858975,1.8224845 0.6073154,2.7780485 0.07196,2.126417 -0.708739,4.255367 -2.1018224,5.858744 -0.0972378,0.130852 -0.2329957,0.257202 -0.19328781,0.436752 -0.0778145,4.092244 -0.0943367,8.185528 -0.18173169,12.277608 -0.0319667,0.566167 -0.001711,1.142792 -0.12348269,1.699382 -0.22667637,0.702661 -0.64630655,1.371015 -1.26186001,1.792795 -1.72594,0.926551 -3.4915463,1.777789 -5.2388632,2.664192 -4.4799512,2.229718 -8.9561092,4.468737 -13.4512332,6.667197 -0.124999,0.103922 -0.250352,0.05734 -0.375482,-0.01972 -5.454276,-2.666897 -10.887123,-5.380743 -16.329997,-8.072139 -0.783927,-0.393695 -1.578876,-0.771977 -2.355952,-1.175242 -0.383721,-0.394095 -0.826478,-0.759979 -1.038948,-1.28354 -0.265543,-0.504596 -0.374505,-1.076005 -0.357033,-1.643415 -0.07205,-4.313531 -0.136088,-8.627267 -0.182492,-12.941153 0.01306,-0.155015 0.01207,-0.304939 -0.12475,-0.405652 -1.209463,-1.3899 -1.976451,-3.173273 -2.077356,-5.019037 -0.102078,-1.283958 0.09773,-2.6090013 0.668864,-3.7697107 0.29884,-0.6054602 0.750191,-1.1574011 1.360348,-1.4660822 0.01979,-0.9970606 0.05659,-1.9951548 0.195566,-2.9838432 0.487135,-3.70381679 1.710246,-7.3563005 3.847602,-10.4416874 1.466341,-2.1280566 3.392137,-3.9516675 5.653984,-5.2128215 1.731436,-0.978693 3.616214,-1.681586 5.562383,-2.089775 0.117687,-0.02331 0.255967,-0.04228 0.229443,-0.196851 2.44e-4,-0.312924 0.08258,-0.61776 0.238269,-0.889278 0.309651,-0.627072 0.883823,-1.068686 1.443997,-1.461587 1.073344,-0.721465 2.265644,-1.246372 3.484219,-1.669946 l 0.02294,0.0082 z m 4.859353,6.263587 c -0.40033,3.0481219 -0.789812,6.0981135 -1.229369,9.1407168 -0.08147,0.5344406 -0.138285,1.086807 -0.404382,1.568907 -0.327708,0.64732955 -0.818816,1.22547297 -1.461855,1.57565892 -0.566494,0.35375539 -1.164444,0.65361108 -1.728034,1.01186928 0.01914,1.229722 0.0038,2.4604974 0.05121,3.6894736 0.06284,0.657324 0.325313,1.3046617 0.757492,1.8065186 0.453875,0.5239355 1.127606,0.8449848 1.822838,0.8491928 0.49534,0.025899 0.973423,-0.035145 1.444234,-0.2121922 1.613222,-0.5978145 3.174358,-1.3430872 4.809652,-1.8931434 1.3134765,-0.4431864 2.6888256,-0.8310468 4.0888836,-0.7435759 0.6742835,0.053158 1.3631847,0.2312819 1.9175481,0.6307252 0.1278545,0.1276737 -0.0218,0.2990804 -0.1736589,0.2905328 -0.5092834,0.051423 -1.0053035,0.059517 -1.5082402,0.1811319 -1.0430958,0.2219759 -2.0462504,0.5542667 -3.0189438,1.0088385 -1.9832818,0.9000936 -3.8059298,2.1328997 -5.8479888,2.905878 -0.44303,0.1641681 -0.903259,0.3142471 -1.382431,0.2891911 -0.26675,-0.0037 -0.541471,0.02192 -0.80305,-0.0076 -0.182816,-0.08875 -0.361954,-0.1854489 -0.548076,-0.267132 0.189983,1.077318 0.526884,2.168236 1.229078,3.028264 0.536903,0.705113 1.299045,1.240166 2.162366,1.457237 1.098754,0.306085 2.247735,0.499221 3.368795,0.615746 1.4271889,0.09603 2.8598991,0.04819 4.2877905,-0.0094 0.6098412,-0.04134 1.2364457,-0.04258 1.8374736,-0.185837 1.0703545,-0.305666 1.8632218,-1.183898 2.4001276,-2.121671 0.6898958,-1.200895 1.0748794,-2.53815 1.381403,-3.8866156 0.074481,-0.3838499 0.2262229,-0.7589304 0.1895161,-1.1555775 0.01709,-1.4734182 -0.035707,-2.9435037 -0.2750976,-4.3928101 C -2.105197,0.15246235 -3.1625715,-2.9111205 -4.9467623,-5.501691 -5.3984157,-6.1597623 -5.874038,-6.781779 -6.4392703,-7.3416832 -7.1467882,-8.0609543 -7.8726739,-8.7845588 -8.7042495,-9.3482222 -10.25626,-10.439441 -12.02642,-11.268138 -13.87338,-11.749025 c -0.356423,-0.09138 -0.712598,-0.188004 -1.076365,-0.245771 -0.0052,0.02079 -0.01044,0.04159 -0.0157,0.06238 z M -35.070467,5.8121319 c -1.059367,-0.0041 -2.143405,0.4339462 -2.803908,1.2812544 -0.18121,0.2560494 -0.39905,0.5054041 -0.494207,0.8083634 -0.02537,0.3520119 0.114543,0.6928359 0.177516,1.0318534 0.336044,1.3879439 0.735233,2.8103419 1.522041,4.0333749 0.398869,0.59138 0.886206,1.144803 1.496151,1.52415 0.580435,0.348989 1.2659,0.421502 1.927703,0.460336 0.86345,0.06348 1.711498,0.117353 2.578928,0.100433 0.865249,-0.01119 1.743298,-0.0028 2.584048,-0.0885 1.153077,-0.133141 2.298643,-0.319777 3.409125,-0.670991 1.111667,-0.355164 1.957374,-1.270507 2.472327,-2.290154 0.317967,-0.665954 0.51826,-1.384043 0.642657,-2.1097871 -0.206776,0.081042 -0.397001,0.2161491 -0.606167,0.2804661 -0.586308,-0.0158 -1.194564,0.0524 -1.75377,-0.167287 -1.717943,-0.5689724 -3.261293,-1.5375203 -4.86259,-2.3605801 -1.260665,-0.6650305 -2.545391,-1.2546338 -3.940054,-1.5844867 -0.601193,-0.1605087 -1.208437,-0.2337807 -1.814757,-0.2424965 -0.178344,-0.00588 -0.356609,-0.00756 -0.535043,-0.00596 z m 0.0014,3.0056073 c 1.037021,-0.016066 2.081206,0.01575 3.098181,0.2367452 1.601149,0.30824 3.110839,0.9430074 4.605435,1.5750076 0.804328,0.340712 1.621381,0.671277 2.486978,0.818633 0.0093,0.327722 -0.0301,0.678275 -0.258561,0.932823 -0.334637,0.43826 -0.886337,0.619379 -1.414693,0.676841 -1.03283,0.135124 -2.078147,0.110277 -3.117615,0.127669 -0.902946,-0.01292 -1.832428,0.04802 -2.705875,-0.224326 -0.841158,-0.28539 -1.467239,-0.981583 -1.886909,-1.741171 -0.364678,-0.660643 -0.674486,-1.3558259 -0.896841,-2.0772889 -1.28e-4,-0.097544 -0.119267,-0.3053485 -0.01848,-0.3249329 0.03613,0 0.07224,0 0.108377,0 z m 29.6732395,0 c 0.2947534,0 0.5895035,0 0.8842546,0 -0.1093667,0.6446705 -0.4020889,1.2385738 -0.6660301,1.8308358 -0.4208834,0.876686 -0.989779,1.76955 -1.9029247,2.193309 -0.5962835,0.29388 -1.2722858,0.310475 -1.9233537,0.319664 -1.4249016,0.02972 -2.8586946,0.08092 -4.2742186,-0.119933 -0.516177,-0.0655 -1.048417,-0.267235 -1.357676,-0.708077 -0.206013,-0.246984 -0.227185,-0.5781 -0.223525,-0.885413 1.224063,-0.209672 2.340128,-0.777381 3.483164,-1.233673 1.7338411,-0.7287252 3.5635303,-1.3137328 5.4562672,-1.3854445 0.1744934,-0.010144 0.3493567,-0.00756 0.5240423,-0.011264 z M -19.704287,16.227003 c -0.0976,0.04524 -0.0205,0.255058 -0.04777,0.364931 -0.03515,6.175634 -0.03082,12.351445 -0.02795,18.527164 0.0034,1.736003 0.0012,3.472092 0.01953,5.208008 4.173568,-2.03579 8.326545,-4.113886 12.4858678,-6.178681 1.6295014,-0.817855 3.2728811,-1.6091 4.8812772,-2.469435 0.2721257,-0.147525 0.5458044,-0.357806 0.6546007,-0.656796 0.1030233,-0.494016 0.077999,-0.985513 0.096038,-1.499147 0.044598,-3.414326 0.068264,-6.829155 0.049652,-10.243751 -0.017407,-0.115743 0.028583,-0.329985 -0.027757,-0.387248 -0.7739607,0.410284 -1.5807224,0.766531 -2.4299054,0.990043 -1.6917589,0.466591 -3.501087,0.492613 -5.2051772,0.07138 -1.7040311,-0.402629 -3.3620921,-1.000413 -4.9305741,-1.779564 -1.151413,-0.536439 -2.280643,-1.157554 -3.461908,-1.600108 -0.657857,-0.229892 -1.358397,-0.3563 -2.055927,-0.346794 z m -3.487496,0.803304 c -0.826156,0.396543 -1.657008,0.792361 -2.452294,1.245672 -0.04163,2.845822 -0.03033,5.69226 -0.03496,8.538366 0.0047,3.522273 -0.0041,7.044797 0.03934,10.566841 -0.04892,0.161416 0.136799,0.189638 0.235451,0.260495 0.832537,0.446128 1.682187,0.860385 2.539582,1.256427 0.03847,-3.902507 0.02554,-7.805387 0.02767,-11.708061 -0.0072,-3.433561 -0.0014,-6.867337 -0.04148,-10.300685 -0.104445,0.04698 -0.208881,0.09396 -0.313324,0.140945 z m 25.9405138,0.533315 c 0.4061261,0.09363 0.781165,0.297301 1.172273,0.440907 4.1587612,1.720852 8.2943252,3.505519 12.3285132,5.504572 0.336034,0.176606 0.691476,0.327534 1.000608,0.548579 0.151269,0.08353 0.0095,0.209905 -0.08818,0.266123 -0.666613,0.369487 -1.369019,0.672349 -2.024904,1.062724 -1.915383,1.08896 -3.697756,2.406819 -5.3215598,3.894592 -0.4686293,0.440438 -1.0633378,0.733956 -1.6807539,0.900155 -0.5323295,0.08639 -1.0917844,0.09187 -1.6145009,-0.05152 C 5.6607106,29.819339 4.857367,29.375944 4.0262107,28.999413 3.5131071,28.756012 2.999955,28.51271 2.4867905,28.269436 c -0.036184,-2.146797 0.021552,-4.293769 0.040191,-6.440497 0.029044,-1.396614 0.02703,-2.79447 0.083507,-4.190165 -0.00858,-0.05278 0.098181,-0.07005 0.1381986,-0.07516 z m -30.9841458,1.742319 c -0.876319,0.294265 -1.767098,0.549547 -2.670382,0.747118 -0.0073,4.948873 -0.01462,9.897745 -0.0219,14.846619 0.919022,0.457831 1.836296,0.933224 2.761331,1.36519 0.05006,-1.599874 0.02604,-3.201362 0.03426,-4.801926 -0.0014,-4.059783 0.01089,-8.11975 -0.02664,-12.17938 -0.02556,0.0076 -0.05111,0.01492 -0.07666,0.02238 z m -7.963529,0.807115 c -0.03389,4.053885 -0.01719,8.107973 -0.02143,12.161954 0.938121,0.466369 1.871823,0.953383 2.81752,1.390903 0.03343,-2.604079 0.01929,-5.20874 0.02,-7.813056 -0.0066,-1.863088 -4.88e-4,-3.726557 -0.03285,-5.58933 -0.556526,-0.08197 -1.125795,-0.110956 -1.679929,-0.237488 -0.370659,-0.07264 -0.731693,-0.184366 -1.097115,-0.278209 -0.0021,0.121742 -0.0041,0.243483 -0.0062,0.365226 z m -5.255063,16.512752 c 0.676916,0.390089 1.311901,0.850654 1.966808,1.276448 4.387075,2.955931 8.752657,5.946348 13.13647,8.905574 -1.722521,-1.750983 -3.515458,-3.431294 -5.35716,-5.056163 -1.014827,-0.909488 -2.073348,-1.769194 -3.093019,-2.672612 -0.190132,-0.216532 -0.1054,-0.53124 -0.127449,-0.793492 0.0144,-0.232361 -0.02617,-0.488009 0.1065,-0.693599 1.016257,0.455096 2.005415,0.969726 3.009803,1.450989 5.740568,2.817214 11.461979,5.67424 17.204728,8.486917 0.125204,0.09694 0.230857,-0.08582 0.345219,-0.12968 2.480848,-1.658197 4.9409551,-3.347194 7.4102177,-5.024109 0.00767,-1.301698 0.015045,-2.603398 0.022378,-3.9051 0.6076446,-0.291322 1.1970769,-0.627497 1.8242203,-0.873778 0.1769978,-0.0885 0.1737767,0.07511 0.1781678,0.206312 0.0339,1.050531 0.00278,2.102149 0.0404,3.152617 0.9984748,-0.649044 1.972184,-1.336317 2.9610187,-2.000231 1.12322752,-0.753922 2.22885491,-1.535899 3.3785544,-2.249066 0.1375329,-0.11945 0.3142715,-0.09429 0.4759018,-0.05054 2.0948401,0.465584 4.120838,1.404541 5.6929883,2.884496 0.3409142,0.341078 0.6999622,0.680291 0.948588,1.096949 0.1174512,0.176516 -0.1007944,0.301915 -0.2023279,0.417582 -0.3643531,0.3399 -0.7221408,0.69051 -1.1213404,0.989353 C 7.1189766,42.079208 7.0317203,41.80144 6.9060555,41.665247 5.8595839,40.353466 4.3433615,39.482833 2.7713647,38.974011 2.5553206,38.907422 2.3418923,38.83156 2.1229883,38.774779 c -3.1444566,2.098106 -6.2641944,4.233177 -9.3963565,6.34965 -3.0891798,2.106905 -6.1916408,4.194397 -9.2682238,6.319429 1.170176,0.592846 2.206275,1.485991 2.863705,2.630691 0.861451,1.44824 1.07151,3.2766 0.501362,4.868804 -0.372623,1.094081 -1.065785,2.063569 -1.941579,2.812951 -1.503087,1.376242 -3.016071,2.741265 -4.570946,4.059127 -0.08514,0.0644 -0.198666,0.189727 -0.28169,0.05762 -2.343154,-2.012496 -4.655008,-4.061862 -6.982999,-6.091639 -3.224483,-2.829344 -6.446433,-5.660839 -9.656172,-8.506412 -3.802594,-3.355254 -7.613837,-6.701327 -11.420368,-10.050074 -0.144152,-0.145401 -0.321595,-0.268206 -0.420192,-0.451647 0.09052,-0.318101 0.356739,-0.544987 0.55936,-0.794408 1.324356,-1.435307 3.085571,-2.414282 4.933304,-3.004505 0.485135,-0.139169 0.969449,-0.299346 1.471852,-0.362369 l 0.02237,0.0097 z m 1.960408,4.382227 c -1.065496,0.04695 -2.141362,0.735186 -2.448768,1.787831 -0.232639,0.788281 0.09993,1.668496 0.72293,2.183102 0.364175,0.327465 0.827126,0.549426 1.279838,0.645028 0.509531,0.09841 1.046705,0.05498 1.544288,-0.08614 0.755117,-0.231519 1.406531,-0.821835 1.68447,-1.564206 0.274448,-0.75616 -0.0398,-1.649771 -0.599502,-2.216586 -0.567149,-0.569105 -1.398025,-0.786183 -2.183256,-0.749022 z m 8.601125,5.612658 c -0.642925,0.02926 -1.377309,0.22862 -1.943265,0.622836 -0.676041,0.480057 -1.23798,1.193289 -1.345378,2.035624 -0.07172,0.620133 0.0044,1.242204 0.330176,1.784716 0.655475,1.112061 1.965866,1.74486 3.240261,1.697463 0.827457,-0.0022 1.664068,-0.270225 2.324305,-0.795589 0.696994,-0.546199 1.207543,-1.405836 1.138676,-2.313503 -6.09e-4,-0.493352 -0.106578,-0.994331 -0.390091,-1.405917 -0.457733,-0.726424 -1.199863,-1.266782 -2.039531,-1.485491 -0.443894,-0.118623 -0.856016,-0.160672 -1.315153,-0.140139 z m 41.212833,1.564232 c -0.110666,0.08494 0.163098,0.231035 0.143806,0.07762 -0.02155,-0.06082 -0.07985,-0.100045 -0.143806,-0.07762 z m -1.6904157,0.132376 c -0.170412,0.135276 0.1014189,0.189546 0.114423,0.02567 -0.015798,-0.04362 -0.078879,-0.04308 -0.114423,-0.02567 z m 1.5613747,0.08284 c -0.110253,0.08439 0.161538,0.231291 0.143803,0.07762 -0.02155,-0.06082 -0.07985,-0.100045 -0.143803,-0.07762 z m -1.4323309,0.132377 c -0.170412,0.135277 0.1014189,0.189547 0.1144206,0.02567 -0.015798,-0.04362 -0.078877,-0.04308 -0.1144206,-0.02567 z m 1.3032869,0.08284 c -0.1102516,0.08439 0.161538,0.231291 0.143804,0.07762 -0.02155,-0.06082 -0.07985,-0.100044 -0.143804,-0.07762 z m -1.1742455,0.132376 c -0.1709459,0.13569 0.1015212,0.187451 0.1144498,0.0252 -0.01592,-0.04336 -0.078931,-0.04239 -0.1144498,-0.0252 z m 1.0056789,0.166663 c -0.1191383,0.0823 0.1585836,0.236652 0.1404716,0.07906 -0.01882,-0.05638 -0.081931,-0.09696 -0.1404716,-0.07906 z m -0.8766351,0.04809 c -0.1701584,0.134429 0.1013845,0.190028 0.1144475,0.02567 -0.015336,-0.04162 -0.079964,-0.04351 -0.1144475,-0.02567 z m 0.743783,0.169041 c -0.1104811,0.08531 0.163293,0.231131 0.1442814,0.07714 -0.022259,-0.05951 -0.080659,-0.09866 -0.1442814,-0.07714 z m -0.6190252,0.04905 c -0.1679618,0.145621 0.1169757,0.176254 0.1190432,0.01809 -0.027764,-0.0399 -0.080059,-0.03711 -0.1190432,-0.01809 z m -0.4690315,0.04048 c -0.1688712,0.135726 0.1012945,0.188703 0.1144475,0.02519 -0.01592,-0.04337 -0.078928,-0.04239 -0.1144475,-0.02519 z m 0.9590128,0.125708 c -0.1104778,0.08531 0.1632932,0.231131 0.1442815,0.07715 -0.022259,-0.05951 -0.080657,-0.09866 -0.1442815,-0.07715 z m 0.4733176,0 c -0.1104804,0.08531 0.163293,0.231131 0.144282,0.07715 -0.02226,-0.05951 -0.08066,-0.09866 -0.144282,-0.07715 z m -0.8337796,0.04906 c -0.1680057,0.146266 0.115976,0.176106 0.1185677,0.01809 -0.027198,-0.04028 -0.079991,-0.03684 -0.1185677,-0.01809 z m 0.7047358,0.166185 c -0.1092667,0.08458 0.1605188,0.231747 0.1442818,0.07715 -0.02226,-0.05951 -0.08066,-0.09866 -0.1442818,-0.07715 z m -0.5280752,0.0862 c -0.064324,0.162381 0.1763437,-0.03254 0,0 z m -0.4309377,0.131895 c -0.1701584,0.134428 0.1013845,0.190025 0.1144475,0.02567 -0.015336,-0.04162 -0.079964,-0.04351 -0.1144475,-0.02567 z m 0.8337796,-0.0052 c -0.1203278,0.0822 0.1589971,0.236438 0.1399955,0.07904 -0.021723,-0.05642 -0.078852,-0.09641 -0.1399955,-0.07904 z m -0.7047358,0.220428 c -0.1701609,0.134429 0.1013845,0.190028 0.1144475,0.02567 -0.015334,-0.04162 -0.079967,-0.04351 -0.1144475,-0.02567 z m 0.5756921,-0.0052 c -0.1203255,0.08219 0.1589972,0.236436 0.1399954,0.07904 -0.021723,-0.05642 -0.07885,-0.09641 -0.1399954,-0.07904 z m -0.1499937,0.268561 c -0.1305311,0.05109 0.024307,0.249116 0.087614,0.131899 0.00934,-0.05701 -0.018797,-0.139154 -0.087614,-0.131899 z m -0.2704654,0.09666 c 0.082531,-0.02678 0.10627,-0.103978 0,0 z m -2.937516,0.205707 c -0.2028058,0.126504 0.056871,0.204881 0.057617,0.011 -0.00887,-0.0218 -0.039805,-0.0088 -0.057617,-0.011 z m 4.4550789,0.002 c -0.06943,0.09956 0.19628,0.200434 0.114823,0.05974 -0.03347,-0.03264 -0.06052,-0.08173 -0.114823,-0.05974 z m -31.005574,2.137066 c -0.921206,0.0138 -1.838944,0.304472 -2.609759,0.776405 -1.025494,0.632194 -1.859597,1.653652 -2.072057,2.860525 -0.215035,1.06647 0.07653,2.230028 0.739499,3.100715 0.431504,0.583269 1.016712,1.057771 1.643875,1.380983 0.857426,0.442263 1.834316,0.672417 2.800073,0.597854 0.63544,-0.01078 1.288431,-0.131568 1.884,-0.378679 1.339028,-0.52665 2.488976,-1.655475 2.827289,-3.079994 0.106945,-0.600207 0.116519,-1.22677 -0.0067,-1.825153 -0.165363,-0.643792 -0.509732,-1.295254 -0.991865,-1.794884 -0.981228,-1.084718 -2.45261,-1.670459 -3.906729,-1.641587 -0.102523,-9.75e-4 -0.205107,0.0031 -0.307638,0.0038 z" />
  </g>
</svg>
