<?xml version="1.0" encoding="UTF-8" standalone="no"?>
<svg
   xmlns:dc="http://purl.org/dc/elements/1.1/"
   xmlns:cc="http://creativecommons.org/ns#"
   xmlns:rdf="http://www.w3.org/1999/02/22-rdf-syntax-ns#"
   xmlns:svg="http://www.w3.org/2000/svg"
   xmlns="http://www.w3.org/2000/svg"
   xmlns:sodipodi="http://sodipodi.sourceforge.net/DTD/sodipodi-0.dtd"
   xmlns:inkscape="http://www.inkscape.org/namespaces/inkscape"
   width="100.00007mm"
   height="119.45841mm"
   viewBox="0 0 100.00007 119.45841"
   version="1.1"
   id="svg120"
   inkscape:version="1.0.1 (3bc2e813f5, 2020-09-07)"
   sodipodi:docname="clarkson_logo_athletic.svg">
  <defs
     id="defs114">
    <pattern
       id="EMFhbasepattern"
       patternUnits="userSpaceOnUse"
       width="6"
       height="6"
       x="0"
       y="0" />
  </defs>
  <sodipodi:namedview
     id="base"
     pagecolor="#ffffff"
     bordercolor="#666666"
     borderopacity="1.0"
     inkscape:pageopacity="0.0"
     inkscape:pageshadow="2"
     inkscape:zoom="1.4"
     inkscape:cx="181.43577"
     inkscape:cy="215.8446"
     inkscape:document-units="mm"
     inkscape:current-layer="layer1"
     inkscape:document-rotation="0"
     showgrid="false"
     fit-margin-top="0"
     fit-margin-left="0"
     fit-margin-right="0"
     fit-margin-bottom="0"
     inkscape:window-width="1624"
     inkscape:window-height="1003"
     inkscape:window-x="75"
     inkscape:window-y="68"
     inkscape:window-maximized="0" />
  <metadata
     id="metadata117">
    <rdf:RDF>
      <cc:Work
         rdf:about="">
        <dc:format>image/svg+xml</dc:format>
        <dc:type
           rdf:resource="http://purl.org/dc/dcmitype/StillImage" />
        <dc:title></dc:title>
      </cc:Work>
    </rdf:RDF>
  </metadata>
  <g
     inkscape:label="Layer 1"
     inkscape:groupmode="layer"
     id="layer1"
     transform="translate(229.19366,21.009586)">
    <path
       style="fill:#000000;stroke-width:0.0512502"
       d="m -179.73311,98.397573 c -0.0174,-0.02819 0.0172,-0.05125 0.0769,-0.05125 0.0597,0 0.0943,0.02306 0.0769,0.05125 -0.0174,0.0282 -0.052,0.05125 -0.0769,0.05125 -0.0249,0 -0.0594,-0.02306 -0.0769,-0.05125 z M -188.8494,86.77497 c -8.83557,-7.784523 -9.12245,-8.042885 -9.31661,-8.390593 -0.35742,-0.64009 -0.56354,-1.117771 -0.69661,-1.61438 -0.17723,-0.661451 -0.18821,-1.810655 -0.0231,-2.417747 0.45402,-1.6692 1.62321,-3.018662 3.29577,-3.803917 0.26497,-0.1244 0.61437,-0.267167 0.77645,-0.317254 0.16208,-0.05009 0.29447,-0.115694 0.29421,-0.145777 -3e-4,-0.04787 -4.85849,-3.387858 -5.40413,-3.715408 -0.11401,-0.06844 -0.35118,-0.255415 -0.52704,-0.415505 -0.17673,-0.160874 -0.49766,-0.379199 -0.7175,-0.488107 -0.21877,-0.108372 -0.44388,-0.235887 -0.50026,-0.283373 -0.0564,-0.04748 -0.98826,-0.688571 -2.07086,-1.424645 -1.45056,-0.986248 -2.00727,-1.338318 -2.11625,-1.338318 -0.20916,0 -1.42439,0.414579 -2.09431,0.714474 -1.02663,0.459587 -1.96384,1.055319 -2.77003,1.760762 -0.50077,0.438189 -1.11312,1.170067 -1.157,1.382843 -0.0291,0.140989 -0.0307,0.141541 -0.1636,0.05456 -0.2275,-0.148946 -1.59455,-1.372614 -1.5942,-1.427001 5.8e-4,-0.102259 0.51528,-0.733272 0.97358,-1.193759 1.69899,-1.707104 3.97901,-2.912036 6.75314,-3.56887 l 0.57799,-0.136848 9.11471,6.202969 c 5.01309,3.411628 9.15218,6.217343 9.19799,6.234917 0.0458,0.01757 0.0833,0.0106 0.0833,-0.01553 0,-0.0912 -3.08111,-3.084154 -4.71661,-4.581661 -1.55056,-1.419733 -4.12649,-3.669618 -5.44374,-4.754704 l -0.39719,-0.327182 v -0.758833 c 0,-0.417364 0.0214,-0.772055 0.0475,-0.788209 0.0261,-0.01617 5.47302,2.657702 12.10417,5.94191 11.97594,5.931323 12.05752,5.970718 12.18845,5.88594 0.40874,-0.264666 8.96189,-6.091791 9.03654,-6.156454 0.0829,-0.07183 0.0897,-0.250885 0.0897,-2.375758 v -2.298074 l 1.02452,-0.512743 c 0.56348,-0.282013 1.05933,-0.512746 1.10188,-0.512746 0.0677,0 0.0774,0.253094 0.0774,2.021357 0,1.111745 0.0188,2.032951 0.0417,2.047116 0.0229,0.01417 1.78653,-1.161815 3.91912,-2.613303 l 3.87743,-2.639057 0.57809,0.136875 c 2.77424,0.65686 5.05423,1.86176 6.75325,3.56889 0.50921,0.511645 0.98257,1.105009 0.9617,1.205522 -0.0171,0.08244 -1.57259,1.448866 -1.64933,1.448866 -0.0324,0 -0.15414,-0.144139 -0.27053,-0.320314 -0.28118,-0.425566 -0.99984,-1.13911 -1.61653,-1.605015 -0.99869,-0.754502 -2.12084,-1.325474 -3.47815,-1.769747 l -0.80512,-0.263533 -11.13641,7.578391 c -6.12502,4.16811 -11.13601,7.601446 -11.13554,7.629633 5.2e-4,0.0282 0.1955,0.158415 0.43339,0.289389 2.07313,1.14141 3.50471,3.127425 3.87314,5.373147 0.0981,0.598079 0.0705,1.836518 -0.0537,2.409369 -0.29505,1.360598 -0.9693,2.602423 -1.96726,3.623269 -0.60042,0.614198 -6.04973,5.470696 -6.15433,5.484826 -0.0469,0.0063 -4.03435,-3.470275 -9.19911,-8.020654 z m 10.62817,2.685964 c 1.25359,-0.290341 2.16984,-0.777685 3.04096,-1.61745 0.71327,-0.687599 1.18159,-1.464024 1.42912,-2.369332 0.0985,-0.360365 0.11626,-0.547597 0.11327,-1.196004 -0.003,-0.685322 -0.0187,-0.818456 -0.14348,-1.226725 -0.27381,-0.896135 -0.65346,-1.5248 -1.3366,-2.213322 -1.1798,-1.189078 -2.77206,-1.827119 -4.5639,-1.828806 -1.12277,-0.0012 -2.07843,0.215631 -3.0126,0.68309 -1.23657,0.618782 -2.24087,1.641481 -2.70368,2.7532 -0.28807,0.691984 -0.37126,1.098742 -0.3748,1.832563 -0.004,0.833078 0.11835,1.370773 0.47815,2.101257 0.87929,1.785145 2.62773,2.930075 4.92105,3.222431 0.45574,0.0581 1.62329,-0.01832 2.15251,-0.140902 z M -191.6744,79.225173 c 1.5317,-0.257866 2.82061,-1.28269 3.29186,-2.617404 0.19315,-0.547065 0.22166,-1.347045 0.0683,-1.915558 -0.17209,-0.637747 -0.45524,-1.102999 -0.99682,-1.637852 -0.5362,-0.529547 -0.99567,-0.812362 -1.69705,-1.044567 -1.27661,-0.422639 -2.69945,-0.287318 -3.86939,0.368011 -0.53509,0.299724 -1.29663,1.06226 -1.54579,1.547809 -0.35404,0.689919 -0.47915,1.323459 -0.39509,2.000555 0.27305,2.199351 2.64397,3.719888 5.14402,3.299006 z m 45.81766,-4.402682 c -0.0174,-0.0282 -0.007,-0.05125 0.0226,-0.05125 0.0298,0 0.0543,0.02305 0.0543,0.05125 0,0.02819 -0.0102,0.05125 -0.0226,0.05125 -0.0124,0 -0.0369,-0.02305 -0.0543,-0.05125 z m -65.5299,-7.930965 c -0.0637,-0.08129 -0.0619,-0.0831 0.0193,-0.01934 0.0854,0.06695 0.11252,0.109039 0.0703,0.109039 -0.0107,0 -0.051,-0.04036 -0.0897,-0.08969 z m 20.58869,-5.371783 c -6.18461,-3.064167 -11.15069,-5.554583 -11.32629,-5.67997 -0.899,-0.641932 -1.48681,-1.66076 -1.58971,-2.755384 -0.0168,-0.178808 -0.0787,-3.933318 -0.13753,-8.343361 l -0.10696,-8.018255 -0.27102,-0.309898 c -1.13749,-1.300684 -1.92918,-2.990963 -2.22993,-4.760945 -0.15982,-0.940557 -0.15122,-0.957486 0.24099,-0.474564 0.3703,0.455937 1.0352,0.820283 1.7827,0.97688 0.16913,0.03543 0.33868,0.05288 0.37678,0.03877 0.0576,-0.02131 0.0636,-0.489025 0.0359,-2.772856 -0.0183,-1.510969 -0.0557,-3.478772 -0.083,-4.372898 -0.0538,-1.760355 -0.0175,-2.684285 0.16047,-4.088712 0.89084,-7.030418 3.8587,-12.9542225 8.36674,-16.6998993 2.57004,-2.1354138 5.73144,-3.65015168 9.20879,-4.41224942 l 0.64063,-0.14039972 0.0271,-0.41095469 c 0.0611,-0.92621827 0.72253,-1.77313777 2.09915,-2.68765967 0.87609,-0.5820097 2.51822,-1.3714405 3.60096,-1.7311192 l 0.34594,-0.1149175 0.34594,0.1149175 c 1.08275,0.3596787 2.72487,1.1491095 3.60097,1.7311192 1.00302,0.6663346 1.54048,1.2078598 1.88369,1.8979559 0.15533,0.3123168 0.19312,0.4513518 0.21546,0.7926598 0.0268,0.40896271 0.0289,0.4143608 0.18084,0.45187158 0.0846,0.020878 0.54581,0.13333778 1.025,0.24990343087 4.11488,1.00098718913 7.83536,3.15150928913 10.49915,6.06873448913 1.48164,1.6226213 2.56622,3.2150522 3.61397,5.3062536 1.64533,3.283893 2.6702,7.063532 2.98089,10.993304 0.0412,0.521544 0.0417,1.395809 0.002,3.199462 -0.0303,1.365 -0.055,2.881303 -0.055,3.369558 v 0.887741 h 0.12123 c 0.22094,0 0.85083,-0.359581 1.15503,-0.659357 0.50065,-0.493378 0.75573,-1.053171 0.82052,-1.800651 l 0.0378,-0.435628 0.0909,0.202593 c 0.14073,0.313661 0.32607,1.206585 0.39282,1.892459 0.10982,1.128462 -0.0252,2.584756 -0.34261,3.69622 -0.38373,1.343544 -1.14911,2.744036 -2.05224,3.755207 l -0.30797,0.344807 -0.0894,7.098149 c -0.0492,3.903984 -0.10751,7.651653 -0.12959,8.328153 -0.0387,1.184746 -0.0459,1.24653 -0.1955,1.679019 -0.2197,0.635046 -0.43344,0.969516 -0.96153,1.504624 l -0.46126,0.46738 -2.92126,1.461251 c -8.66258,4.333136 -19.3628,9.621845 -19.46286,9.61976 -0.0631,-0.0015 -5.07082,-2.457896 -11.12829,-5.459075 z m 21.73393,-2.213246 c 11.33908,-5.637268 10.77068,-5.334205 11.03723,-5.884822 0.0686,-0.141695 0.13124,-0.402601 0.15626,-0.650753 0.0481,-0.477355 0.12949,-13.872896 0.085,-13.988912 -0.0236,-0.06147 -0.17714,-0.0036 -0.76413,0.28814 -1.49701,0.743958 -2.88044,1.124202 -4.60871,1.266733 -1.56745,0.129264 -3.10674,-0.06498 -5.11886,-0.645976 -1.95822,-0.565429 -2.98932,-0.986521 -5.84396,-2.38661 -2.83145,-1.388714 -3.69883,-1.686315 -4.97126,-1.705645 l -0.53813,-0.0082 -0.0129,14.465362 c -0.009,9.689235 0.004,14.465364 0.0387,14.465364 0.0284,0 4.77173,-2.346616 10.54076,-5.214707 z M -183.09,49.547571 V 36.322493 l -0.13464,0.0338 c -0.0741,0.01858 -0.87548,0.407381 -1.78095,0.863994 l -1.6463,0.830202 -0.0129,11.52153 -0.0129,11.521531 1.75215,0.865339 c 0.96368,0.475935 1.77092,0.853734 1.79387,0.839549 0.023,-0.01417 0.0417,-5.977074 0.0417,-13.250863 z m -6.30377,-0.128544 c 0,-9.715887 -0.004,-10.226092 -0.0897,-10.201898 -0.0493,0.014 -0.47022,0.144146 -0.93531,0.2892 -0.4651,0.145055 -1.19157,0.34677 -1.61439,0.44826 -0.42281,0.101492 -0.79758,0.192414 -0.83281,0.202043 -0.0509,0.01394 -0.0641,1.839704 -0.0641,8.910883 v 8.893368 l 1.7297,0.865791 c 0.95133,0.476184 1.74699,0.855427 1.76813,0.842752 0.0211,-0.01266 0.0384,-4.625353 0.0384,-10.250399 z m -6.25252,-0.911699 c 0,-7.926221 -0.002,-8.071049 -0.0991,-8.123154 -0.0545,-0.02918 -0.22172,-0.05316 -0.37156,-0.05329 -0.44548,-5.81e-4 -1.58802,-0.188161 -2.3257,-0.382225 -0.37902,-0.09971 -0.71208,-0.181293 -0.74012,-0.181293 -0.0336,0 -0.051,2.57065 -0.051,7.533629 v 7.533627 l 1.7297,0.868619 c 0.95133,0.477744 1.75852,0.869874 1.79375,0.871407 0.051,0.0023 0.0641,-1.643927 0.0641,-8.06732 z m 1.06804,-12.094424 c 2.84327,-0.423589 6.13597,-1.125628 8.18262,-1.744637 1.46989,-0.444566 2.39553,-1.058987 3.05022,-2.024676 0.29032,-0.428241 1.18443,-2.313882 1.37793,-2.906002 0.17262,-0.528241 0.43353,-1.653805 0.3928,-1.694536 -0.0153,-0.01527 -0.19481,0.04924 -0.39898,0.143352 -0.32932,0.151795 -0.43282,0.173645 -0.91701,0.193594 -1.35946,0.05601 -2.47528,-0.371974 -6.11872,-2.346892 -3.05977,-1.658538 -4.61621,-2.299572 -6.56003,-2.701821 -0.59991,-0.124144 -0.77596,-0.138071 -1.76813,-0.139868 -1.19107,-0.002 -1.45179,0.03582 -2.14244,0.312128 -0.99461,0.397908 -1.77164,1.132138 -2.22626,2.103638 l -0.15732,0.336197 0.0327,1.21041 c 0.1194,4.424776 0.95372,7.292004 2.50287,8.601321 0.47598,0.402299 1.09097,0.697234 1.73809,0.833551 0.44311,0.09334 1.6963,0.02021 3.0117,-0.175759 z m 33.24395,0.07597 c 2.1652,-0.688839 3.31469,-2.935046 3.75126,-7.330299 0.11562,-1.163964 0.13296,-6.166952 0.0248,-7.149398 -0.25697,-2.333869 -0.67704,-4.288187 -1.36597,-6.355022 -2.23165,-6.6951118 -6.46172,-11.0965651 -12.58325,-13.0930746 -0.94239,-0.3073573 -2.29991,-0.6445855 -2.35402,-0.5847767 -0.0225,0.024914 -0.14946,0.8870843 -0.28205,1.915933 -0.31143,2.4165066 -0.95297,7.2006553 -1.1854,8.8398393 -0.11223,0.791504 -0.23056,1.427528 -0.30989,1.665633 -0.23852,0.715969 -0.72817,1.411991 -1.35289,1.923094 -0.29166,0.238614 -2.26808,1.408945 -2.57857,1.526893 -0.0889,0.03376 -0.0925,0.147003 -0.0739,2.329109 0.0195,2.286482 0.0199,2.295176 0.15419,2.791972 0.29772,1.101617 0.92911,1.927461 1.78523,2.335038 0.57927,0.275779 0.8888,0.342362 1.55917,0.335396 0.78384,-0.0081 1.25778,-0.145234 2.89564,-0.837587 4.60578,-1.946942 6.68318,-2.567159 8.61003,-2.570568 0.78486,-0.0015 1.23952,0.06078 1.79374,0.245249 0.43507,0.144813 1.12752,0.519842 1.12752,0.610658 0,0.04155 -0.21771,0.06993 -0.70469,0.09185 -1.58106,0.07116 -3.50945,0.646054 -5.62471,1.676854 -0.451,0.21978 -1.46576,0.749629 -2.25501,1.17744 -2.4165,1.309858 -3.39565,1.776899 -4.38578,2.091954 -0.69206,0.220206 -1.10422,0.280843 -1.73294,0.254938 -0.48419,-0.01995 -0.5877,-0.0418 -0.91702,-0.193594 -0.20417,-0.09411 -0.38371,-0.158617 -0.39897,-0.143352 -0.0407,0.04073 0.22018,1.166295 0.3928,1.694536 0.19349,0.59212 1.0876,2.477761 1.37793,2.906002 0.49154,0.725031 1.02031,1.16545 1.90418,1.585999 1.36286,0.648453 5.65163,1.649045 9.33031,2.17681 0.68517,0.0983 1.31495,0.189217 1.39952,0.202035 0.0846,0.01283 0.48815,0.01684 0.89687,0.0089 0.59868,-0.01159 0.81287,-0.03655 1.10188,-0.1285 z M -188.19056,21.97074 c -1.98046,-2.103046 -3.14134,-5.800355 -3.7873,-12.0621614 -0.0695,-0.6734488 -0.19896,-2.1008271 -0.28775,-3.1719575 -0.0888,-1.0711276 -0.18028,-1.9673384 -0.20332,-1.9915819 -0.0487,-0.051289 -0.31124,0.1211333 -1.12736,0.7404851 -3.88524,2.948519 -6.63715,7.7101957 -7.78718,13.4742657 -0.26056,1.305963 -0.27268,1.383755 -0.21562,1.383755 0.0265,0 0.18907,-0.137914 0.36134,-0.306475 1.16425,-1.13922 2.42819,-1.647515 3.9196,-1.576268 1.52445,0.07283 3.01609,0.664848 5.9,2.341656 1.94353,1.130042 3.02642,1.637393 3.50264,1.641034 l 0.17138,0.0012 -0.44643,-0.474065 z m 8.53432,-14.5422399 c 0,-9.3656525 -0.008,-10.4037875 -0.0795,-10.4037875 -0.10961,0 -0.96077,0.3660307 -1.62512,0.6988626 -1.27809,0.6403082 -2.25368,1.30055072 -2.9359,1.98690967 -0.73748,0.74194274 -1.04828,1.35568733 -1.04825,2.07001243 2e-5,0.5706238 1.39889,11.4605037 1.57148,12.2336497 0.092,0.412115 0.34107,0.98271 0.58556,1.341458 0.22025,0.323182 0.77675,0.901571 1.08637,1.129109 0.29698,0.21825 2.29112,1.346291 2.38128,1.34704 0.051,2.91e-4 0.0641,-2.114109 0.0641,-10.4032539 z m 31.54219,44.7475359 c -0.19858,-0.04885 -0.68289,-0.240762 -1.07626,-0.426469 -0.39336,-0.185705 -1.39554,-0.660574 -2.22708,-1.055262 l -1.51188,-0.717609 -0.0133,-0.940589 c -0.0239,-1.693978 0.12396,-11.629322 0.17379,-11.679157 0.0919,-0.09185 6.7196,2.703872 10.75,4.534565 3.07454,1.396514 6.6146,3.127684 6.60807,3.23149 -0.002,0.0282 -0.50786,0.305267 -1.12463,0.615737 -2.80773,1.413327 -5.24193,3.080408 -7.54101,5.1645 -0.90507,0.820443 -1.33592,1.076169 -2.13918,1.269678 -0.52694,0.126935 -1.38949,0.128355 -1.89856,0.0031 z m 3.94856,-4.114928 c 1.07074,-0.87334 3.02546,-2.274483 3.70926,-2.658793 0.11626,-0.06534 0.21138,-0.150508 0.21138,-0.189255 0,-0.03967 -0.26309,-0.194398 -0.60219,-0.35416 -1.93365,-0.911009 -6.91231,-3.113256 -7.18599,-3.178628 -0.0909,-0.02172 0.0921,0.182757 0.60943,0.680842 1.32482,1.275526 2.02063,2.22352 2.47855,3.376896 0.32544,0.819685 0.41559,1.600808 0.26617,2.306236 -0.0875,0.412938 -0.0894,0.435779 -0.0376,0.435262 0.0212,0 0.26907,-0.188491 0.55094,-0.4184 z m 14.90526,-2.730847 c 0,-0.04104 0.0196,-0.06251 0.0436,-0.04771 0.0239,0.01481 0.0303,0.04838 0.014,0.07462 -0.0414,0.06706 -0.0576,0.05951 -0.0576,-0.02692 z m -80.24924,-12.923299 c -3.61855,-1.609607 -8.11487,-3.755433 -9.43003,-4.500399 -3.8057,-2.155723 -6.26346,-5.031369 -7.15566,-8.372331 -0.27157,-1.016932 -0.35493,-1.626477 -0.38714,-2.830609 -0.0526,-1.967251 0.17345,-3.422489 0.85179,-5.48298 0.96688,-2.9369681 2.66123,-5.911226 5.10421,-8.959916 2.33736,-2.91687382 5.38017,-5.8674728 8.7362,-8.4714507 6.93351,-5.3797773 15.16709,-9.3726023 23.06258,-11.1840623 4.80196,-1.101711 8.82805,-1.190076 11.68504,-0.256465 0.67378,0.220179 1.55567,0.641296 2.0705,0.988704 2.81868,1.90202 3.14258,5.372234 0.82549,8.8441174 -0.45943,0.6883985 -1.13146,1.5118803 -1.23383,1.5118803 -0.0414,0 -0.31124,-0.1187647 -0.59965,-0.2639216 -0.28841,-0.145157 -0.81223,-0.3860105 -1.16404,-0.5352313 -0.35182,-0.1492205 -0.64736,-0.2943916 -0.65676,-0.3226034 -0.009,-0.02821 0.0522,-0.2676576 0.13692,-0.5321028 0.22802,-0.7118272 0.27716,-1.0790243 0.2506,-1.872343 -0.0195,-0.5826256 -0.0474,-0.7759836 -0.16397,-1.1375646 -0.54399,-1.687168 -2.009,-3.003468 -4.12902,-3.7099 -0.61766,-0.205813 -1.53109,-0.40261 -1.7635,-0.379939 -0.15636,0.01525 -0.15412,0.01837 0.17474,0.24382 0.68015,0.46627 1.34393,1.272441 1.64053,1.99245 0.17936,0.435392 0.22417,0.623565 0.14851,0.623565 -0.0319,0 -0.25182,-0.117119 -0.4888,-0.260265 -1.35124,-0.816184 -3.18967,-1.410299 -5.09275,-1.645796 -0.69409,-0.08589 -2.97374,-0.08617 -3.71564,-4.65e-4 -1.11491,0.128805 -3.3048,0.573073 -3.5335,0.71685 -0.0751,0.04718 0.29189,0.106926 0.67851,0.110467 0.96838,0.0089 2.82318,0.318572 4.04923,0.676115 1.81186,0.52838 3.68267,1.49652 4.96872,2.571295 0.53217,0.4447479 1.40912,1.3559229 1.7606,1.8293111 0.36435,0.4907094 0.66112,0.9578962 0.65988,1.0388116 -0.001,0.078988 -1.86704,0.9834543 -1.93814,0.939514 -0.0286,-0.017704 -0.18496,-0.2221458 -0.34737,-0.4543169 -0.39428,-0.5636239 -1.26274,-1.4484299 -1.87557,-1.9108692 -1.75433,-1.3237982 -3.99077,-2.1495386 -6.60049,-2.4370376 -0.835,-0.09199 -2.68272,-0.0774 -3.56189,0.02813 -5.76466,0.691896 -11.07675,3.7738718 -15.68593,9.1006981 -2.58594,2.988556 -4.26834,5.7777922 -4.86108,8.0590967 -0.87677,3.3745036 0.30551,6.1273032 3.60882,8.4027692 1.64955,1.136277 3.77407,2.163273 6.4022,3.094828 0.43915,0.155659 0.8264,0.310258 0.86055,0.343556 0.0486,0.04734 0.0347,0.208867 -0.0637,0.740944 -0.18563,1.004036 -0.37238,2.445422 -0.44334,3.421785 l -0.0625,0.860347 -0.4256,0.533008 c -1.08696,1.361245 -1.7203,2.958554 -1.96648,4.959495 -0.0888,0.721497 -0.0751,2.27933 0.0264,2.998133 0.13857,0.981976 0.14735,1.07631 0.10001,1.074754 -0.025,-8.71e-4 -0.23007,-0.08357 -0.45557,-0.183875 z m -5.74663,-5.208704 c -0.0211,-0.03524 -0.28374,-0.386941 -0.58374,-0.781568 -4.58384,-6.029786 -6.74369,-11.730089 -6.3563,-16.7756232 0.0353,-0.4593981 0.0516,-0.8477993 0.0363,-0.8631108 -0.0418,-0.041791 -0.64985,1.201033 -0.94454,1.930553 -0.5,1.237798 -0.83577,2.396291 -1.04124,3.59247 -0.1546,0.900067 -0.19175,2.56191 -0.0758,3.392977 0.47586,3.412061 2.6291,6.19105 6.4649,8.343651 0.73164,0.410589 2.36627,1.219103 2.47167,1.22253 0.0401,0.0015 0.0517,-0.02355 0.0288,-0.06188 z m 39.52947,-36.6343069 c 0.31127,-0.5074586 0.64652,-1.2809271 0.79479,-1.8336711 0.15548,-0.579598 0.15341,-1.502839 -0.004,-1.953647 -0.21146,-0.604173 -0.5362,-1.043175 -1.08279,-1.463767 -1.02724,-0.790446 -2.64253,-1.259146 -4.77755,-1.386276 -0.70975,-0.04226 -0.78306,0.01589 -0.23062,0.182968 2.71084,0.819861 4.41222,2.253752 4.87495,4.108519 0.15027,0.60235 0.19626,1.269871 0.13442,1.9511862 -0.0314,0.3457035 -0.0705,0.68345 -0.0868,0.7505472 -0.0586,0.2398434 0.10992,0.081227 0.37802,-0.3558593 z M -229.14925,17.70416 c 2.9e-4,-0.140937 0.0103,-0.19251 0.0221,-0.114608 0.0118,0.0779 0.0115,0.193216 -5.8e-4,0.256251 -0.0122,0.06303 -0.0218,-5.81e-4 -0.0214,-0.141643 z m -0.0444,-1.383755 c -4e-5,-0.56375 0.007,-0.801368 0.0166,-0.52804 0.009,0.273331 0.009,0.734582 9e-5,1.025004 -0.009,0.290423 -0.0167,0.06679 -0.0167,-0.496964 z m 0.0451,-1.409378 c 0,-0.155031 0.01,-0.218455 0.0213,-0.14094 0.0117,0.07752 0.0117,0.204361 0,0.281877 -0.0117,0.07752 -0.0213,0.01408 -0.0213,-0.140937 z m 45.89199,-35.861403 c 0.1198,-0.01079 0.31583,-0.01079 0.43562,0 0.1198,0.01079 0.0218,0.01962 -0.21781,0.01962 -0.23959,0 -0.33761,-0.0088 -0.21781,-0.01962 z m 2.69063,1.92e-4 c 0.10571,-0.01106 0.27868,-0.01106 0.38438,0 0.1057,0.01106 0.0192,0.0201 -0.19219,0.0201 -0.21141,0 -0.29789,-0.009 -0.19219,-0.0201 z m -1.40737,-0.05191 c 0.17728,-0.01004 0.45403,-0.01 0.615,1.84e-4 0.16098,0.01014 0.0159,0.01835 -0.32232,0.01825 -0.33825,-1.01e-4 -0.46996,-0.0084 -0.29268,-0.01843 z"
       id="path151" />
  </g>
</svg>
