<?xml version="1.0" encoding="UTF-8" standalone="no"?>
<svg
   xmlns:dc="http://purl.org/dc/elements/1.1/"
   xmlns:cc="http://creativecommons.org/ns#"
   xmlns:rdf="http://www.w3.org/1999/02/22-rdf-syntax-ns#"
   xmlns:svg="http://www.w3.org/2000/svg"
   xmlns="http://www.w3.org/2000/svg"
   xmlns:sodipodi="http://sodipodi.sourceforge.net/DTD/sodipodi-0.dtd"
   xmlns:inkscape="http://www.inkscape.org/namespaces/inkscape"
   version="1.1"
   id="svg2"
   xml:space="preserve"
   width="119.88113mm"
   height="124.8978mm"
   viewBox="0 0 453.09403 472.05468"
   sodipodi:docname="ignite-panel.svg"
   inkscape:version="1.0 (4035a4fb49, 2020-05-01)"><metadata
     id="metadata8"><rdf:RDF><cc:Work
         rdf:about=""><dc:format>image/svg+xml</dc:format><dc:type
           rdf:resource="http://purl.org/dc/dcmitype/StillImage" /><dc:title></dc:title></cc:Work></rdf:RDF></metadata><defs
     id="defs6"><clipPath
       clipPathUnits="userSpaceOnUse"
       id="clipPath62"><path
         d="M 171.419,96.575 H 442.701 V 386.64 H 171.419 Z"
         id="path60" /></clipPath><clipPath
       clipPathUnits="userSpaceOnUse"
       id="clipPath352"><path
         d="M 0,0 H 612 V 792 H 0 Z"
         id="path350" /></clipPath><clipPath
       clipPathUnits="userSpaceOnUse"
       id="clipPath380"><path
         d="M 0,0 H 612 V 792 H 0 Z"
         id="path378" /></clipPath><clipPath
       clipPathUnits="userSpaceOnUse"
       id="clipPath388"><path
         d="m 166.812,467.487 h 27.195 v -53.836 h -27.195 z"
         id="path386" /></clipPath><clipPath
       clipPathUnits="userSpaceOnUse"
       id="clipPath404"><path
         d="m 139.812,467.487 h 27.195 v -53.836 h -27.195 z"
         id="path402" /></clipPath><clipPath
       clipPathUnits="userSpaceOnUse"
       id="clipPath420"><path
         d="m 114.812,467.487 h 27.195 v -53.836 h -27.195 z"
         id="path418" /></clipPath><clipPath
       clipPathUnits="userSpaceOnUse"
       id="clipPath436"><path
         d="m 469.812,467.487 h 27.195 v -53.836 h -27.195 z"
         id="path434" /></clipPath><clipPath
       clipPathUnits="userSpaceOnUse"
       id="clipPath452"><path
         d="m 442.812,467.487 h 27.195 v -53.836 h -27.195 z"
         id="path450" /></clipPath><clipPath
       clipPathUnits="userSpaceOnUse"
       id="clipPath468"><path
         d="m 417.812,467.487 h 27.195 v -53.836 h -27.195 z"
         id="path466" /></clipPath></defs><sodipodi:namedview
     inkscape:document-units="mm"
     units="mm"
     inkscape:document-rotation="0"
     pagecolor="#ffffff"
     bordercolor="#666666"
     borderopacity="1"
     objecttolerance="10"
     gridtolerance="10"
     guidetolerance="10"
     inkscape:pageopacity="0"
     inkscape:pageshadow="2"
     inkscape:window-width="1920"
     inkscape:window-height="1017"
     id="namedview4"
     showgrid="false"
     inkscape:zoom="1.4142136"
     inkscape:cx="179.68247"
     inkscape:cy="264.74034"
     inkscape:window-x="-8"
     inkscape:window-y="-8"
     inkscape:window-maximized="1"
     inkscape:current-layer="layer1"
     fit-margin-top="0"
     fit-margin-left="0"
     fit-margin-right="0"
     fit-margin-bottom="0" /><g
     transform="translate(-1.9254538,-1.9254604)"
     style="display:inline"
     inkscape:label="yellow"
     id="layer1"
     inkscape:groupmode="layer"><g
       transform="matrix(1.1988013,0,0,1.1988013,-0.33811947,-0.33811597)"
       id="g2005"
       style="display:inline"><g
         id="g148"
         transform="matrix(1.2001474,0,0,-1.2001474,251.26089,204.30072)"
         style="display:inline;fill:#000000;fill-opacity:1;stroke:none;stroke-width:0.999877;stroke-miterlimit:4;stroke-dasharray:none;stroke-opacity:1"><path
           d="m 0,0 c -0.367,0 -0.671,0.276 -0.705,0.642 -0.019,0.189 0.038,0.374 0.159,0.521 0.121,0.146 0.292,0.236 0.48,0.254 l 83.406,7.99 c 0.029,0.002 0.053,0.004 0.077,0.004 0.363,0 0.662,-0.277 0.698,-0.644 0.019,-0.188 -0.038,-0.374 -0.16,-0.52 -0.12,-0.146 -0.291,-0.236 -0.48,-0.254 L 0.069,0.003 C 0.045,0.001 0.022,0 0,0"
           style="fill:#000000;fill-opacity:1;fill-rule:nonzero;stroke:none;stroke-width:0.999877;stroke-miterlimit:4;stroke-dasharray:none;stroke-opacity:1"
           id="path150" /></g><g
         id="g152"
         transform="matrix(1.2001474,0,0,-1.2001474,29.948899,225.42691)"
         style="display:inline;fill:#000000;fill-opacity:1;stroke:none;stroke-width:0.999877;stroke-miterlimit:4;stroke-dasharray:none;stroke-opacity:1"><path
           d="m 0,0 c -0.367,0 -0.67,0.276 -0.706,0.642 -0.018,0.189 0.039,0.373 0.16,0.52 0.121,0.147 0.291,0.237 0.48,0.255 l 17.471,1.602 c 0.022,0.002 0.045,0.003 0.067,0.003 0.362,0 0.672,-0.282 0.706,-0.643 C 18.196,2.191 18.14,2.006 18.019,1.86 17.898,1.713 17.727,1.623 17.538,1.605 L 0.068,0.003 C 0.045,0.001 0.023,0 0,0"
           style="fill:#000000;fill-opacity:1;fill-rule:nonzero;stroke:none;stroke-width:0.999877;stroke-miterlimit:4;stroke-dasharray:none;stroke-opacity:1"
           id="path154" /></g><g
         id="g156"
         transform="matrix(1.2001474,0,0,-1.2001474,93.734336,219.44658)"
         style="display:inline;fill:#000000;fill-opacity:1;stroke:none;stroke-width:0.999877;stroke-miterlimit:4;stroke-dasharray:none;stroke-opacity:1"><path
           d="m 0,0 c -0.367,0 -0.67,0.276 -0.706,0.642 -0.017,0.19 0.039,0.375 0.16,0.521 0.121,0.146 0.291,0.236 0.48,0.254 l 93,8.934 c 0.027,0.003 0.05,0.004 0.074,0.004 0.364,0 0.666,-0.277 0.701,-0.643 C 93.727,9.523 93.67,9.338 93.549,9.191 93.429,9.045 93.258,8.955 93.069,8.937 l -93,-8.934 C 0.04,0.001 0.02,0 0,0"
           style="fill:#000000;fill-opacity:1;fill-rule:nonzero;stroke:none;stroke-width:0.999877;stroke-miterlimit:4;stroke-dasharray:none;stroke-opacity:1"
           id="path158" /></g><g
         id="g160"
         transform="matrix(1.2001474,0,0,-1.2001474,251.90657,211.05875)"
         style="display:inline;fill:#000000;fill-opacity:1;stroke:none;stroke-width:0.999877;stroke-miterlimit:4;stroke-dasharray:none;stroke-opacity:1"><path
           d="m 0,0 c -0.367,0 -0.671,0.276 -0.705,0.642 -0.019,0.189 0.038,0.374 0.159,0.521 0.121,0.146 0.291,0.236 0.48,0.254 l 18.409,1.666 c 0.023,0.002 0.047,0.003 0.071,0.003 0.365,0 0.667,-0.276 0.703,-0.643 C 19.135,2.255 19.078,2.069 18.957,1.923 18.836,1.777 18.666,1.687 18.477,1.669 L 0.068,0.003 C 0.046,0.001 0.023,0 0,0"
           style="fill:#000000;fill-opacity:1;fill-rule:nonzero;stroke:none;stroke-width:0.999877;stroke-miterlimit:4;stroke-dasharray:none;stroke-opacity:1"
           id="path162" /></g><g
         id="g164"
         transform="matrix(1.2001474,0,0,-1.2001474,94.380015,226.20461)"
         style="display:inline;fill:#000000;fill-opacity:1;stroke:none;stroke-width:0.999877;stroke-miterlimit:4;stroke-dasharray:none;stroke-opacity:1"><path
           d="m 0,0 c -0.367,0 -0.67,0.276 -0.706,0.642 -0.018,0.189 0.039,0.374 0.16,0.52 0.121,0.147 0.291,0.237 0.48,0.255 l 93,8.934 c 0.027,0.003 0.05,0.004 0.074,0.004 0.364,0 0.666,-0.276 0.701,-0.642 0.019,-0.19 -0.038,-0.375 -0.16,-0.522 -0.12,-0.146 -0.291,-0.236 -0.48,-0.254 l -93,-8.934 C 0.041,0.001 0.021,0 0,0"
           style="fill:#000000;fill-opacity:1;fill-rule:nonzero;stroke:none;stroke-width:0.999877;stroke-miterlimit:4;stroke-dasharray:none;stroke-opacity:1"
           id="path166" /></g><g
         id="g168"
         transform="matrix(1.2001474,0,0,-1.2001474,29.948899,232.24735)"
         style="display:inline;fill:#000000;fill-opacity:1;stroke:none;stroke-width:0.999877;stroke-miterlimit:4;stroke-dasharray:none;stroke-opacity:1"><path
           d="m 0,0 c -0.367,0 -0.67,0.276 -0.706,0.642 -0.018,0.189 0.039,0.373 0.16,0.52 0.121,0.147 0.291,0.237 0.48,0.255 L 17.943,3.07 c 0.023,0.002 0.045,0.003 0.068,0.003 0.361,0 0.671,-0.282 0.705,-0.643 C 18.735,2.242 18.678,2.057 18.557,1.911 18.436,1.765 18.265,1.674 18.076,1.656 L 0.068,0.003 C 0.045,0.001 0.023,0 0,0"
           style="fill:#000000;fill-opacity:1;fill-rule:nonzero;stroke:none;stroke-width:0.999877;stroke-miterlimit:4;stroke-dasharray:none;stroke-opacity:1"
           id="path170" /></g><g
         id="g172"
         transform="matrix(1.2001474,0,0,-1.2001474,296.75968,206.89903)"
         style="display:inline;fill:#000000;fill-opacity:1;stroke:none;stroke-width:0.999877;stroke-miterlimit:4;stroke-dasharray:none;stroke-opacity:1"><path
           d="m 0,0 c -0.367,0 -0.671,0.276 -0.705,0.642 -0.019,0.189 0.038,0.374 0.159,0.521 0.121,0.146 0.291,0.236 0.48,0.254 l 45.494,4.472 c 0.028,0.003 0.052,0.005 0.076,0.005 0.364,0 0.664,-0.277 0.7,-0.643 C 46.222,5.061 46.166,4.876 46.044,4.73 45.924,4.584 45.753,4.494 45.564,4.476 L 0.07,0.003 C 0.045,0.001 0.022,0 0,0"
           style="fill:#000000;fill-opacity:1;fill-rule:nonzero;stroke:none;stroke-width:0.999877;stroke-miterlimit:4;stroke-dasharray:none;stroke-opacity:1"
           id="path174" /></g><g
         id="g176"
         transform="matrix(1.2001474,0,0,-1.2001474,141.07895,306.37566)"
         style="display:inline;fill:#000000;fill-opacity:1;stroke:none;stroke-width:0.999877;stroke-miterlimit:4;stroke-dasharray:none;stroke-opacity:1"><path
           d="m 0,0 c -0.367,0 -0.67,0.276 -0.706,0.642 -0.018,0.189 0.039,0.374 0.16,0.52 0.12,0.147 0.291,0.237 0.48,0.255 l 175.213,16.744 c 0.028,0.003 0.047,0.003 0.067,0.003 0.369,0 0.674,-0.276 0.708,-0.642 0.019,-0.189 -0.038,-0.374 -0.159,-0.521 -0.121,-0.145 -0.292,-0.236 -0.48,-0.254 L 0.069,0.003 C 0.04,0.001 0.02,0 0,0"
           style="fill:#000000;fill-opacity:1;fill-rule:nonzero;stroke:none;stroke-width:0.999877;stroke-miterlimit:4;stroke-dasharray:none;stroke-opacity:1"
           id="path178" /></g><g
         id="g180"
         transform="matrix(1.2001474,0,0,-1.2001474,29.948899,316.99456)"
         style="display:inline;fill:#000000;fill-opacity:1;stroke:none;stroke-width:0.999877;stroke-miterlimit:4;stroke-dasharray:none;stroke-opacity:1"><path
           d="m 0,0 c -0.367,0 -0.67,0.276 -0.706,0.642 -0.018,0.189 0.039,0.373 0.16,0.52 0.121,0.147 0.291,0.237 0.48,0.255 l 36.504,3.489 c 0.026,0.002 0.05,0.004 0.074,0.004 0.359,0 0.666,-0.283 0.7,-0.644 C 37.231,4.078 37.174,3.893 37.053,3.747 36.933,3.6 36.762,3.51 36.573,3.492 L 0.069,0.003 C 0.045,0.001 0.022,0 0,0"
           style="fill:#000000;fill-opacity:1;fill-rule:nonzero;stroke:none;stroke-width:0.999877;stroke-miterlimit:4;stroke-dasharray:none;stroke-opacity:1"
           id="path182" /></g><g
         id="g184"
         transform="matrix(1.2001474,0,0,-1.2001474,29.948899,323.815)"
         style="display:inline;fill:#000000;fill-opacity:1;stroke:none;stroke-width:0.999877;stroke-miterlimit:4;stroke-dasharray:none;stroke-opacity:1"><path
           d="m 0,0 c -0.367,0 -0.67,0.276 -0.706,0.642 -0.018,0.19 0.04,0.375 0.16,0.521 0.121,0.146 0.292,0.236 0.48,0.254 l 37.042,3.54 c 0.021,0.002 0.044,0.003 0.068,0.003 0.362,0 0.672,-0.282 0.706,-0.642 C 37.769,4.129 37.713,3.944 37.591,3.798 37.47,3.652 37.299,3.561 37.111,3.543 L 0.069,0.003 C 0.045,0.001 0.022,0 0,0"
           style="fill:#000000;fill-opacity:1;fill-rule:nonzero;stroke:none;stroke-width:0.999877;stroke-miterlimit:4;stroke-dasharray:none;stroke-opacity:1"
           id="path186" /></g><g
         id="g188"
         transform="matrix(1.2001474,0,0,-1.2001474,141.72463,313.13369)"
         style="display:inline;fill:#000000;fill-opacity:1;stroke:none;stroke-width:0.999877;stroke-miterlimit:4;stroke-dasharray:none;stroke-opacity:1"><path
           d="m 0,0 c -0.367,0 -0.67,0.276 -0.706,0.642 -0.036,0.391 0.251,0.738 0.64,0.775 L 174.61,18.11 c 0.026,0.002 0.05,0.004 0.074,0.004 0.364,0 0.665,-0.277 0.701,-0.643 0.018,-0.19 -0.039,-0.374 -0.16,-0.52 -0.121,-0.147 -0.292,-0.237 -0.48,-0.255 L 0.069,0.003 C 0.041,0.001 0.02,0 0,0"
           style="fill:#000000;fill-opacity:1;fill-rule:nonzero;stroke:none;stroke-width:0.999877;stroke-miterlimit:4;stroke-dasharray:none;stroke-opacity:1"
           id="path190" /></g><g
         id="g192"
         transform="matrix(1.2001474,0,0,-1.2001474,52.715696,303.42809)"
         style="display:inline;fill:#000000;fill-opacity:1;stroke:none;stroke-width:0.999877;stroke-miterlimit:4;stroke-dasharray:none;stroke-opacity:1"><path
           d="m 0,0 c -0.026,0 -0.05,0.002 -0.076,0.004 -0.203,0.021 -0.38,0.123 -0.5,0.288 -0.12,0.164 -0.164,0.364 -0.122,0.563 L 9.619,50.918 c 0.069,0.328 0.361,0.566 0.695,0.566 0.023,0 0.046,-0.001 0.07,-0.003 0.207,-0.022 0.386,-0.124 0.506,-0.288 0.12,-0.164 0.163,-0.364 0.122,-0.564 L 0.694,0.566 C 0.626,0.238 0.334,0 0,0"
           style="fill:#000000;fill-opacity:1;fill-rule:nonzero;stroke:none;stroke-width:0.999877;stroke-miterlimit:4;stroke-dasharray:none;stroke-opacity:1"
           id="path194" /></g><g
         id="g196"
         transform="matrix(1.2001474,0,0,-1.2001474,65.052012,302.07193)"
         style="display:inline;fill:#000000;fill-opacity:1;stroke:none;stroke-width:0.999877;stroke-miterlimit:4;stroke-dasharray:none;stroke-opacity:1"><path
           d="m 0,0 c -0.204,0.02 -0.385,0.125 -0.504,0.288 -0.12,0.163 -0.164,0.363 -0.123,0.563 L 9.839,50.964 c 0.068,0.329 0.36,0.568 0.695,0.568 0.023,0 0.046,-0.002 0.07,-0.004 0.207,-0.021 0.385,-0.123 0.505,-0.288 0.12,-0.164 0.164,-0.364 0.123,-0.564 L 0.767,0.564 C 0.7,0.24 0.413,0.001 0.083,-0.004 H 0.082 Z"
           style="fill:#000000;fill-opacity:1;fill-rule:nonzero;stroke:none;stroke-width:0.999877;stroke-miterlimit:4;stroke-dasharray:none;stroke-opacity:1"
           id="path198" /></g><g
         id="g200"
         transform="matrix(1.2001474,0,0,-1.2001474,150.55172,292.78639)"
         style="display:inline;fill:#000000;fill-opacity:1;stroke:none;stroke-width:0.999877;stroke-miterlimit:4;stroke-dasharray:none;stroke-opacity:1"><path
           d="M 0,0 C -0.023,0 -0.046,0.002 -0.07,0.003 -0.277,0.025 -0.456,0.128 -0.576,0.292 -0.695,0.456 -0.739,0.656 -0.698,0.855 L 9.564,50.096 c 0.068,0.328 0.361,0.567 0.695,0.567 0.023,0 0.047,-10e-4 0.07,-0.003 0.214,-0.027 0.387,-0.126 0.506,-0.288 0.12,-0.165 0.164,-0.365 0.123,-0.564 L 0.695,0.568 C 0.627,0.239 0.335,0 0,0"
           style="fill:#000000;fill-opacity:1;fill-rule:nonzero;stroke:none;stroke-width:0.999877;stroke-miterlimit:4;stroke-dasharray:none;stroke-opacity:1"
           id="path202" /></g><g
         id="g204"
         transform="matrix(1.2001474,0,0,-1.2001474,209.67698,286.34279)"
         style="display:inline;fill:#000000;fill-opacity:1;stroke:none;stroke-width:0.999877;stroke-miterlimit:4;stroke-dasharray:none;stroke-opacity:1"><path
           d="m 0,0 c -0.209,0.021 -0.387,0.123 -0.507,0.288 -0.12,0.164 -0.164,0.364 -0.122,0.564 L 9.465,49.373 c 0.069,0.328 0.361,0.567 0.695,0.567 0.023,0 0.047,-0.002 0.07,-0.004 0.215,-0.025 0.388,-0.124 0.506,-0.288 0.122,-0.165 0.164,-0.36 0.123,-0.563 L 0.764,0.564 C 0.695,0.235 0.404,-0.003 0.071,-0.004 Z"
           style="fill:#000000;fill-opacity:1;fill-rule:nonzero;stroke:none;stroke-width:0.999877;stroke-miterlimit:4;stroke-dasharray:none;stroke-opacity:1"
           id="path206" /></g><g
         id="g208"
         transform="matrix(1.2001474,0,0,-1.2001474,222.37694,284.97463)"
         style="display:inline;fill:#000000;fill-opacity:1;stroke:none;stroke-width:0.999877;stroke-miterlimit:4;stroke-dasharray:none;stroke-opacity:1"><path
           d="m 0,0 c -0.023,0 -0.046,0.002 -0.07,0.003 -0.207,0.022 -0.385,0.125 -0.505,0.289 -0.12,0.163 -0.164,0.363 -0.123,0.563 L 9.326,48.993 c 0.068,0.328 0.36,0.567 0.695,0.567 0.022,0 0.046,-0.002 0.07,-0.003 0.207,-0.022 0.385,-0.124 0.505,-0.289 0.121,-0.163 0.164,-0.364 0.123,-0.563 L 0.695,0.567 C 0.627,0.239 0.335,0 0,0"
           style="fill:#000000;fill-opacity:1;fill-rule:nonzero;stroke:none;stroke-width:0.999877;stroke-miterlimit:4;stroke-dasharray:none;stroke-opacity:1"
           id="path210" /></g><g
         id="g212"
         transform="matrix(1.2001474,0,0,-1.2001474,72.004466,301.32904)"
         style="display:inline;fill:#000000;fill-opacity:1;stroke:none;stroke-width:0.999877;stroke-miterlimit:4;stroke-dasharray:none;stroke-opacity:1"><path
           d="M 0,0 C -0.023,0 -0.046,0.002 -0.069,0.003 -0.284,0.029 -0.457,0.128 -0.576,0.291 -0.696,0.454 -0.74,0.655 -0.699,0.855 L 9.549,50.688 c 0.068,0.329 0.361,0.567 0.695,0.567 0.023,0 0.046,-0.001 0.069,-0.003 0.207,-0.021 0.385,-0.123 0.506,-0.288 0.12,-0.162 0.164,-0.363 0.123,-0.564 L 0.695,0.566 C 0.626,0.238 0.334,0 0,0"
           style="fill:#000000;fill-opacity:1;fill-rule:nonzero;stroke:none;stroke-width:0.999877;stroke-miterlimit:4;stroke-dasharray:none;stroke-opacity:1"
           id="path214" /></g><g
         id="g216"
         transform="matrix(1.2001474,0,0,-1.2001474,100.28354,316.92855)"
         style="display:inline;fill:#000000;fill-opacity:1;stroke:none;stroke-width:0.999877;stroke-miterlimit:4;stroke-dasharray:none;stroke-opacity:1"><path
           d="m 0,0 c -5.2,0 -8.955,1.344 -11.477,4.108 -2.45,2.683 -3.412,6.403 -2.86,11.053 0.011,0.091 0.029,0.225 0.051,0.375 0.051,0.352 0.357,0.618 0.712,0.618 l 0.047,-0.002 c 0.206,-0.016 0.386,-0.109 0.512,-0.264 0.126,-0.155 0.182,-0.349 0.157,-0.546 l -0.006,-0.053 c -0.504,-4.251 0.36,-7.633 2.566,-10.05 C -8.001,2.723 -4.528,1.5 0.318,1.5 c 1.242,0 2.597,0.082 4.141,0.25 7.452,0.81 13.213,3.763 17.126,8.776 3.151,4.039 4.057,8.138 4.443,9.889 l 0.042,0.181 9.909,47.98 c 0.068,0.328 0.36,0.567 0.696,0.567 0.022,0 0.045,-0.001 0.069,-0.003 0.206,-0.021 0.385,-0.123 0.505,-0.287 0.121,-0.166 0.165,-0.366 0.123,-0.565 L 27.518,20.573 27.471,20.368 C 27.058,18.5 26.091,14.123 22.677,9.75 18.436,4.316 12.26,1.123 4.323,0.261 2.712,0.086 1.298,0 0,0"
           style="fill:#000000;fill-opacity:1;fill-rule:nonzero;stroke:none;stroke-width:0.999877;stroke-miterlimit:4;stroke-dasharray:none;stroke-opacity:1"
           id="path218" /></g><g
         id="g220"
         transform="matrix(1.2001474,0,0,-1.2001474,88.178853,290.21327)"
         style="display:inline;fill:#000000;fill-opacity:1;stroke:none;stroke-width:0.999877;stroke-miterlimit:4;stroke-dasharray:none;stroke-opacity:1"><path
           d="m 0,0 c -0.337,0 -0.636,0.215 -0.742,0.534 -0.157,0.469 -0.261,0.816 -0.31,1.03 -1.093,4.768 0.109,10.513 1.074,15.13 l 0.084,0.444 0.16,0.793 c 0.849,4.187 2.011,9.92 4.806,14.917 3.648,6.524 9.317,10.378 16.395,11.148 0.638,0.07 1.274,0.105 1.888,0.105 0.335,0 0.912,-0.046 1.667,-0.133 0.228,-0.027 0.43,-0.152 0.555,-0.345 0.124,-0.194 0.154,-0.43 0.083,-0.648 -0.102,-0.315 -0.393,-0.527 -0.726,-0.527 -0.032,0 -0.064,0.002 -0.097,0.006 -0.806,0.099 -1.405,0.149 -1.778,0.149 -0.56,0 -1.141,-0.032 -1.728,-0.096 C 14.85,41.803 9.661,38.279 6.327,32.316 3.674,27.573 2.547,22.013 1.724,17.954 L 1.559,17.141 1.477,16.704 C 0.522,12.136 -0.665,6.455 0.457,1.929 0.505,1.733 0.599,1.434 0.736,1.039 0.86,0.677 0.709,0.281 0.375,0.098 0.257,0.033 0.131,0 0,0"
           style="fill:#000000;fill-opacity:1;fill-rule:nonzero;stroke:none;stroke-width:0.999877;stroke-miterlimit:4;stroke-dasharray:none;stroke-opacity:1"
           id="path222" /></g><g
         id="g224"
         transform="matrix(1.2001474,0,0,-1.2001474,105.90263,302.84962)"
         style="display:inline;fill:#000000;fill-opacity:1;stroke:none;stroke-width:0.999877;stroke-miterlimit:4;stroke-dasharray:none;stroke-opacity:1"><path
           d="M 0,0 C -1.484,0 -2.487,0.488 -2.982,1.452 L -3,1.486 c -0.328,0.548 -0.471,1.257 -0.434,2.16 v 0.017 l 0.005,0.033 c 0.012,0.085 0.04,0.296 0.114,0.802 0.051,0.345 0.351,0.604 0.699,0.604 0.03,0 0.06,-0.001 0.091,-0.005 0.211,-0.028 0.378,-0.12 0.497,-0.274 C -1.913,4.674 -1.863,4.488 -1.888,4.3 -1.95,3.827 -1.954,3.761 -1.954,3.708 -1.957,3.152 -1.863,2.718 -1.677,2.418 L -1.652,2.374 C -1.368,1.791 -0.713,1.499 0.3,1.499 c 0.2,0 0.416,0.012 0.641,0.035 1.742,0.19 3.103,1.718 3.934,4.418 C 4.891,6.006 4.944,6.21 5.006,6.455 5.085,6.77 5.367,6.99 5.691,6.99 L 5.739,6.989 C 5.96,6.969 6.145,6.864 6.267,6.693 6.389,6.522 6.428,6.314 6.376,6.109 6.352,6.013 6.338,5.956 6.331,5.934 5.284,2.41 3.321,0.32 0.805,0.046 0.529,0.016 0.258,0 0,0"
           style="fill:#000000;fill-opacity:1;fill-rule:nonzero;stroke:none;stroke-width:0.999877;stroke-miterlimit:4;stroke-dasharray:none;stroke-opacity:1"
           id="path226" /></g><g
         id="g228"
         transform="matrix(1.2001474,0,0,-1.2001474,192.06362,288.27143)"
         style="display:inline;fill:#000000;fill-opacity:1;stroke:none;stroke-width:0.999877;stroke-miterlimit:4;stroke-dasharray:none;stroke-opacity:1"><path
           d="m 0,0 c -0.023,0 -0.046,0.002 -0.069,0.003 -0.207,0.022 -0.385,0.124 -0.506,0.289 -0.12,0.164 -0.163,0.364 -0.122,0.564 l 7.002,33.809 c 0.982,4.688 -0.571,7.659 -2.047,9.326 -1.956,2.205 -4.997,3.42 -8.562,3.42 -0.582,0 -1.18,-0.033 -1.777,-0.098 -1.071,-0.116 -2.765,-0.558 -3.997,-0.909 -0.063,-0.018 -0.127,-0.027 -0.191,-0.027 -0.304,0 -0.579,0.205 -0.669,0.497 -0.055,0.18 -0.037,0.371 0.053,0.538 0.091,0.168 0.242,0.289 0.425,0.342 1.986,0.575 3.59,0.947 4.516,1.047 0.647,0.072 1.298,0.108 1.935,0.108 3.925,0 7.284,-1.35 9.456,-3.8 1.66,-1.872 3.408,-5.208 2.306,-10.467 L 0.695,0.567 C 0.627,0.238 0.335,0 0,0"
           style="fill:#000000;fill-opacity:1;fill-rule:nonzero;stroke:none;stroke-width:0.999877;stroke-miterlimit:4;stroke-dasharray:none;stroke-opacity:1"
           id="path230" /></g><g
         id="g232"
         transform="matrix(1.2001474,0,0,-1.2001474,143.9041,293.50888)"
         style="display:inline;fill:#000000;fill-opacity:1;stroke:none;stroke-width:0.999877;stroke-miterlimit:4;stroke-dasharray:none;stroke-opacity:1"><path
           d="M 0,0 C -0.023,0 -0.046,0.002 -0.069,0.003 -0.277,0.025 -0.456,0.127 -0.576,0.292 -0.696,0.456 -0.74,0.655 -0.698,0.855 L 9.421,50.056 c 0.068,0.328 0.361,0.566 0.695,0.566 l 0.068,-0.004 c 0.209,-0.021 0.387,-0.123 0.507,-0.288 0.122,-0.166 0.165,-0.361 0.123,-0.563 L 0.694,0.566 C 0.626,0.238 0.334,0 0,0"
           style="fill:#000000;fill-opacity:1;fill-rule:nonzero;stroke:none;stroke-width:0.999877;stroke-miterlimit:4;stroke-dasharray:none;stroke-opacity:1"
           id="path234" /></g><g
         id="g236"
         transform="matrix(1.2001474,0,0,-1.2001474,163.17127,291.41462)"
         style="display:inline;fill:#000000;fill-opacity:1;stroke:none;stroke-width:0.999877;stroke-miterlimit:4;stroke-dasharray:none;stroke-opacity:1"><path
           d="m 0,0 c -0.025,0 -0.05,0.002 -0.076,0.004 -0.202,0.021 -0.38,0.124 -0.499,0.288 -0.12,0.164 -0.163,0.364 -0.121,0.564 l 3.232,15.416 3.168,15.246 c 0.514,2.363 1.47,6.759 6.002,7.252 0.234,0.026 0.459,0.039 0.67,0.039 1.022,0 1.8,-0.297 2.315,-0.882 1.101,-1.254 0.793,-3.525 0.347,-5.581 L 14.81,31.25 14.768,30.916 8.62,1.428 C 8.551,1.1 8.26,0.862 7.925,0.862 7.903,0.862 7.881,0.864 7.857,0.866 7.638,0.893 7.469,0.99 7.349,1.154 7.229,1.318 7.186,1.518 7.228,1.718 l 0.907,4.349 0.059,0.337 5.398,25.972 c 0.521,2.399 0.492,3.766 -0.093,4.433 -0.295,0.333 -0.769,0.503 -1.41,0.503 -0.159,0 -0.334,-0.011 -0.521,-0.031 C 8.862,36.987 7.9,34.936 7.152,31.491 L 7.103,31.265 7.068,30.959 3.974,16.2 1.688,5.202 1.62,5.004 0.694,0.564 C 0.626,0.237 0.334,0 0,0"
           style="fill:#000000;fill-opacity:1;fill-rule:nonzero;stroke:none;stroke-width:0.999877;stroke-miterlimit:4;stroke-dasharray:none;stroke-opacity:1"
           id="path238" /></g><g
         id="g240"
         transform="matrix(1.2001474,0,0,-1.2001474,202.97536,287.07128)"
         style="display:inline;fill:#000000;fill-opacity:1;stroke:none;stroke-width:0.999877;stroke-miterlimit:4;stroke-dasharray:none;stroke-opacity:1"><path
           d="M 0,0 C -0.209,0.021 -0.386,0.123 -0.506,0.288 -0.627,0.452 -0.67,0.652 -0.629,0.852 L 9.392,49.221 c 0.068,0.328 0.36,0.566 0.695,0.566 0.022,0 0.046,-10e-4 0.069,-0.003 0.215,-0.026 0.387,-0.125 0.506,-0.288 0.121,-0.164 0.164,-0.365 0.123,-0.564 L 0.764,0.563 C 0.696,0.236 0.405,-0.003 0.071,-0.004 Z"
           style="fill:#000000;fill-opacity:1;fill-rule:nonzero;stroke:none;stroke-width:0.999877;stroke-miterlimit:4;stroke-dasharray:none;stroke-opacity:1"
           id="path242" /></g><g
         id="g244"
         transform="matrix(1.2001474,0,0,-1.2001474,229.14217,284.23894)"
         style="display:inline;fill:#000000;fill-opacity:1;stroke:none;stroke-width:0.999877;stroke-miterlimit:4;stroke-dasharray:none;stroke-opacity:1"><path
           d="m 0,0 c -0.023,0 -0.045,0.001 -0.069,0.003 -0.208,0.022 -0.386,0.125 -0.506,0.289 -0.12,0.164 -0.164,0.364 -0.122,0.564 L 9.372,49.14 c 0.067,0.328 0.36,0.567 0.695,0.567 0.023,0 0.045,-0.002 0.069,-0.004 0.208,-0.021 0.386,-0.124 0.506,-0.288 0.12,-0.164 0.163,-0.364 0.121,-0.563 L 0.695,0.567 C 0.627,0.239 0.335,0 0,0"
           style="fill:#000000;fill-opacity:1;fill-rule:nonzero;stroke:none;stroke-width:0.999877;stroke-miterlimit:4;stroke-dasharray:none;stroke-opacity:1"
           id="path246" /></g><g
         id="g248"
         transform="matrix(1.2001474,0,0,-1.2001474,261.39493,282.64634)"
         style="display:inline;fill:#000000;fill-opacity:1;stroke:none;stroke-width:0.999877;stroke-miterlimit:4;stroke-dasharray:none;stroke-opacity:1"><path
           d="m 0,0 c -4.196,0 -7.44,1.276 -9.643,3.792 -3.297,3.766 -2.702,8.564 -2.293,10.451 l 3.23,15.82 -2.098,-0.221 c -0.024,-0.003 -0.052,-0.005 -0.079,-0.005 -0.404,0 -0.732,0.33 -0.732,0.734 0,0.376 0.282,0.69 0.656,0.73 3.246,0.347 3.246,0.347 3.263,0.347 0.184,0 0.397,-0.101 0.53,-0.253 0.134,-0.151 0.194,-0.394 0.149,-0.605 L -10.5,14.162 c -0.36,-1.667 -0.883,-5.901 2.046,-9.247 1.981,-2.264 4.933,-3.411 8.774,-3.411 0.764,0 1.569,0.046 2.396,0.136 1.471,0.16 3.299,0.479 4.572,0.719 0.043,0.008 0.09,0.013 0.137,0.013 0.372,0 0.682,-0.281 0.721,-0.654 C 8.186,1.342 7.925,0.993 7.552,0.924 5.439,0.537 3.766,0.275 2.581,0.146 1.687,0.049 0.819,0 0,0"
           style="fill:#000000;fill-opacity:1;fill-rule:nonzero;stroke:none;stroke-width:0.999877;stroke-miterlimit:4;stroke-dasharray:none;stroke-opacity:1"
           id="path250" /></g><g
         id="g252"
         transform="matrix(1.2001474,0,0,-1.2001474,274.72977,261.22731)"
         style="display:inline;fill:#000000;fill-opacity:1;stroke:none;stroke-width:0.999877;stroke-miterlimit:4;stroke-dasharray:none;stroke-opacity:1"><path
           d="M 0,0 C -0.216,0.02 -0.396,0.121 -0.517,0.285 -0.637,0.448 -0.68,0.647 -0.638,0.847 L 2.17,15.391 c 0.087,0.412 0.391,0.735 0.723,0.772 l 3.714,0.409 c 0.028,0.003 0.055,0.005 0.083,0.005 0.403,0 0.731,-0.329 0.731,-0.733 0,-0.375 -0.281,-0.688 -0.653,-0.729 L 3.398,14.743 0.738,0.552 C 0.674,0.239 0.382,0.001 0.058,-0.002 v 0 z"
           style="fill:#000000;fill-opacity:1;fill-rule:nonzero;stroke:none;stroke-width:0.999877;stroke-miterlimit:4;stroke-dasharray:none;stroke-opacity:1"
           id="path254" /></g><g
         id="g256"
         transform="matrix(1.2001474,0,0,-1.2001474,282.36751,222.35093)"
         style="display:inline;fill:#000000;fill-opacity:1;stroke:none;stroke-width:0.999877;stroke-miterlimit:4;stroke-dasharray:none;stroke-opacity:1"><path
           d="m 0,0 c -0.112,0 -0.2,0.016 -0.268,0.048 l -0.06,0.03 -0.044,0.05 C -0.451,0.222 -0.55,0.379 -0.49,0.664 l 2.661,12.409 c 0.068,0.323 0.356,0.558 0.686,0.558 L 2.906,13.629 C 3.121,13.611 3.303,13.51 3.424,13.345 3.546,13.181 3.589,12.981 3.546,12.78 L 1.111,1.587 3.948,1.899 c 0.027,0.002 0.054,0.004 0.079,0.004 0.386,0 0.7,-0.316 0.7,-0.704 V 1.141 c 0,-0.359 -0.269,-0.66 -0.626,-0.7 L 0.141,0.008 C 0.094,0.003 0.046,0 0,0"
           style="fill:#000000;fill-opacity:1;fill-rule:nonzero;stroke:none;stroke-width:0.999877;stroke-miterlimit:4;stroke-dasharray:none;stroke-opacity:1"
           id="path258" /></g><g
         id="g260"
         transform="matrix(1.2001474,0,0,-1.2001474,252.9663,225.55173)"
         style="display:inline;fill:#000000;fill-opacity:1;stroke:none;stroke-width:0.999877;stroke-miterlimit:4;stroke-dasharray:none;stroke-opacity:1"><path
           d="m 0,0 c -0.395,0 -0.716,0.322 -0.716,0.718 0,0.391 0.27,0.704 0.641,0.744 L 2.37,1.725 2.98,4.383 C 3.056,4.711 3.343,4.94 3.679,4.94 3.711,4.94 3.743,4.938 3.776,4.933 3.975,4.907 4.151,4.801 4.268,4.632 4.386,4.465 4.425,4.263 4.38,4.064 L 3.683,0.982 C 3.604,0.623 3.282,0.351 2.882,0.307 L 0.079,0.004 C 0.053,0.002 0.027,0 0,0"
           style="fill:#000000;fill-opacity:1;fill-rule:nonzero;stroke:none;stroke-width:0.999877;stroke-miterlimit:4;stroke-dasharray:none;stroke-opacity:1"
           id="path262" /></g><g
         id="g264"
         transform="matrix(1.2001474,0,0,-1.2001474,258.37056,230.94759)"
         style="display:inline;fill:#000000;fill-opacity:1;stroke:none;stroke-width:0.999877;stroke-miterlimit:4;stroke-dasharray:none;stroke-opacity:1"><path
           d="m 0,0 c -0.391,0 -0.708,0.319 -0.708,0.711 v 0.044 c 0,0.363 0.272,0.667 0.633,0.707 l 2.39,0.26 0.881,4.24 C 3.264,6.29 3.556,6.529 3.89,6.529 3.913,6.529 3.936,6.527 3.96,6.525 4.167,6.504 4.345,6.402 4.465,6.238 4.585,6.073 4.629,5.872 4.587,5.673 L 3.625,1.038 C 3.548,0.66 3.207,0.345 2.833,0.305 L 0.079,0.004 C 0.047,0.002 0.024,0 0,0"
           style="fill:#000000;fill-opacity:1;fill-rule:nonzero;stroke:none;stroke-width:0.999877;stroke-miterlimit:4;stroke-dasharray:none;stroke-opacity:1"
           id="path266" /></g><g
         id="g268"
         transform="matrix(1.2001474,0,0,-1.2001474,269.38552,267.20884)"
         style="display:inline;fill:#000000;fill-opacity:1;stroke:none;stroke-width:0.999877;stroke-miterlimit:4;stroke-dasharray:none;stroke-opacity:1"><path
           d="m 0,0 c -0.966,0 -1.644,0.235 -2.074,0.718 -0.83,0.933 -0.501,2.528 -0.121,4.375 L 2.15,25.797 c 0.079,0.376 0.42,0.692 0.793,0.733 l 3.92,0.425 c 0.023,0.004 0.052,0.005 0.081,0.005 0.403,0 0.731,-0.329 0.731,-0.733 0,-0.375 -0.281,-0.688 -0.654,-0.728 L 3.46,25.111 -0.743,5.085 C -1.169,3.018 -1.25,2.26 -0.894,1.848 -0.694,1.613 -0.302,1.5 0.306,1.5 c 0.213,0 0.45,0.014 0.704,0.042 0.087,0.01 0.214,0.027 0.357,0.047 0.035,0.005 0.07,0.008 0.104,0.008 0.318,0 0.602,-0.213 0.691,-0.517 C 2.221,0.882 2.193,0.676 2.085,0.499 1.977,0.324 1.807,0.206 1.605,0.17 1.192,0.094 0.983,0.065 0.88,0.054 0.546,0.018 0.259,0 0,0"
           style="fill:#000000;fill-opacity:1;fill-rule:nonzero;stroke:none;stroke-width:0.999877;stroke-miterlimit:4;stroke-dasharray:none;stroke-opacity:1"
           id="path270" /></g><g
         id="g272"
         transform="matrix(1.2001474,0,0,-1.2001474,262.09462,275.96752)"
         style="display:inline;fill:#000000;fill-opacity:1;stroke:none;stroke-width:0.999877;stroke-miterlimit:4;stroke-dasharray:none;stroke-opacity:1"><path
           d="M 0,0 C -2.707,0 -4.713,0.723 -5.961,2.149 -7.859,4.317 -7.37,7.39 -7.175,8.28 l 4.735,22.828 -1.899,-0.207 c -0.028,-0.004 -0.055,-0.005 -0.082,-0.005 -0.402,0 -0.73,0.329 -0.73,0.733 0,0.374 0.281,0.687 0.654,0.729 l 3.025,0.329 c 0.033,0.004 0.057,0.004 0.08,0.004 0.229,0 0.369,-0.102 0.445,-0.188 0.127,-0.144 0.175,-0.353 0.13,-0.572 L -5.727,8.257 c -0.161,-0.732 -0.568,-3.25 0.959,-4.994 1.027,-1.172 2.726,-1.767 5.049,-1.767 0.565,0 1.176,0.036 1.818,0.106 1.222,0.133 2.834,0.429 3.971,0.655 0.048,0.009 0.095,0.014 0.141,0.014 0.368,0 0.674,-0.277 0.712,-0.645 C 6.963,1.256 6.718,0.92 6.354,0.846 5.095,0.593 3.312,0.259 1.962,0.113 1.277,0.038 0.617,0 0,0"
           style="fill:#000000;fill-opacity:1;fill-rule:nonzero;stroke:none;stroke-width:0.999877;stroke-miterlimit:4;stroke-dasharray:none;stroke-opacity:1"
           id="path274" /></g><g
         id="g276"
         transform="matrix(1.2001474,0,0,-1.2001474,274.26532,229.21818)"
         style="display:inline;fill:#000000;fill-opacity:1;stroke:none;stroke-width:0.999877;stroke-miterlimit:4;stroke-dasharray:none;stroke-opacity:1"><path
           d="m 0,0 c -0.18,0 -0.338,0.067 -0.445,0.188 -0.129,0.145 -0.176,0.355 -0.13,0.576 l 2.055,9.703 c 0.069,0.326 0.361,0.564 0.694,0.564 0.026,0 0.052,-0.002 0.077,-0.005 0.203,-0.022 0.381,-0.125 0.5,-0.289 0.12,-0.166 0.162,-0.366 0.12,-0.564 l -1.82,-8.589 3.11,0.338 c 0.026,0.003 0.053,0.005 0.08,0.005 0.39,0 0.708,-0.319 0.708,-0.711 V 1.172 C 4.949,0.808 4.676,0.504 4.315,0.465 L 0.08,0.004 C 0.048,0.001 0.023,0 0,0"
           style="fill:#000000;fill-opacity:1;fill-rule:nonzero;stroke:none;stroke-width:0.999877;stroke-miterlimit:4;stroke-dasharray:none;stroke-opacity:1"
           id="path278" /></g><g
         id="g280"
         transform="matrix(1.2001474,0,0,-1.2001474,101.87494,292.33273)"
         style="display:inline;fill:#000000;fill-opacity:1;stroke:none;stroke-width:0.999877;stroke-miterlimit:4;stroke-dasharray:none;stroke-opacity:1"><path
           d="m 0,0 c -2.556,0 -4.475,0.703 -5.704,2.09 -2.957,3.334 -1.571,9.966 -0.35,15.818 l 0.26,1.241 c 1.599,7.899 4.016,19.837 15.821,21.121 0.459,0.051 0.909,0.076 1.339,0.076 0.126,0 0.375,-0.012 0.846,-0.066 0.229,-0.027 0.429,-0.155 0.548,-0.352 0.12,-0.197 0.142,-0.432 0.061,-0.646 l -0.015,-0.039 c -0.108,-0.288 -0.386,-0.48 -0.692,-0.48 -0.031,0 -0.061,0.002 -0.092,0.005 -0.429,0.054 -0.739,0.08 -0.951,0.08 -0.375,0 -0.772,-0.022 -1.18,-0.066 C 5.265,38.279 1.999,36.057 -0.388,31.789 -2.575,27.877 -3.598,22.828 -4.344,19.142 L -4.603,17.893 C -5.759,12.359 -7.069,6.09 -4.515,3.211 -3.491,2.055 -1.933,1.494 0.25,1.494 c 0.051,0 0.118,0.001 0.197,0.004 0.428,0 0.771,-0.332 0.771,-0.74 0,-0.396 -0.31,-0.721 -0.705,-0.74 C 0.307,0.007 0.12,0 0,0"
           style="fill:#000000;fill-opacity:1;fill-rule:nonzero;stroke:none;stroke-width:0.999877;stroke-miterlimit:4;stroke-dasharray:none;stroke-opacity:1"
           id="path282" /></g><g
         id="g284"
         transform="matrix(1.2001474,0,0,-1.2001474,101.01203,310.26773)"
         style="display:inline;fill:#000000;fill-opacity:1;stroke:none;stroke-width:0.999877;stroke-miterlimit:4;stroke-dasharray:none;stroke-opacity:1"><path
           d="m 0,0 c -3.741,0 -6.318,0.831 -7.878,2.54 -1.374,1.505 -1.936,3.719 -1.673,6.582 0.01,0.098 0.028,0.245 0.049,0.41 0.048,0.358 0.355,0.629 0.715,0.629 l 0.048,-0.002 C -8.535,10.144 -8.355,10.051 -8.228,9.898 -8.102,9.743 -8.045,9.55 -8.069,9.353 -8.08,9.253 -8.089,9.17 -8.094,9.108 -8.296,6.7 -7.84,4.922 -6.7,3.672 -5.365,2.21 -3.07,1.499 0.317,1.499 c 1.053,0 2.234,0.071 3.51,0.21 8.809,0.957 14.207,5.366 16.046,13.103 l 9.818,47.611 c 0.068,0.328 0.36,0.566 0.695,0.566 0.023,0 0.046,-10e-4 0.069,-0.003 0.208,-0.022 0.386,-0.124 0.506,-0.288 0.12,-0.164 0.164,-0.365 0.122,-0.565 L 21.541,15.851 21.539,15.813 C 21.536,15.759 21.53,15.714 21.52,15.669 l -0.04,-0.18 C 21.155,14.018 20.395,10.573 17.861,7.327 14.711,3.29 9.944,0.899 3.69,0.219 2.348,0.074 1.107,0 0,0"
           style="fill:#000000;fill-opacity:1;fill-rule:nonzero;stroke:none;stroke-width:0.999877;stroke-miterlimit:4;stroke-dasharray:none;stroke-opacity:1"
           id="path286" /></g><g
         id="g288"
         transform="matrix(1.2001474,0,0,-1.2001474,185.29959,289.00712)"
         style="display:inline;fill:#000000;fill-opacity:1;stroke:none;stroke-width:0.999877;stroke-miterlimit:4;stroke-dasharray:none;stroke-opacity:1"><path
           d="m 0,0 c -0.023,0 -0.045,0.001 -0.069,0.003 -0.208,0.022 -0.387,0.125 -0.507,0.289 -0.12,0.164 -0.163,0.364 -0.122,0.563 l 0.902,4.353 0.044,0.332 6.29,30.309 c 0.425,2.027 0.106,3.657 -0.947,4.845 -1.038,1.172 -2.765,1.817 -4.861,1.817 -0.392,0 -0.796,-0.022 -1.2,-0.067 -1.078,-0.117 -2.675,-0.632 -3.825,-1.043 -0.074,-0.027 -0.153,-0.041 -0.233,-0.041 -0.269,0 -0.515,0.158 -0.626,0.401 -0.08,0.177 -0.084,0.372 -0.009,0.551 0.074,0.178 0.215,0.313 0.398,0.38 1.913,0.698 3.486,1.139 4.432,1.241 0.451,0.049 0.903,0.075 1.345,0.075 2.467,0 4.515,-0.779 5.768,-2.194 1.302,-1.468 1.719,-3.539 1.206,-5.989 L 7.48,33.379 7.431,33.059 0.695,0.567 C 0.626,0.238 0.334,0 0,0"
           style="fill:#000000;fill-opacity:1;fill-rule:nonzero;stroke:none;stroke-width:0.999877;stroke-miterlimit:4;stroke-dasharray:none;stroke-opacity:1"
           id="path290" /></g><g
         id="g292"
         transform="matrix(1.2001474,0,0,-1.2001474,117.13601,253.21152)"
         style="display:inline;fill:#000000;fill-opacity:1;stroke:none;stroke-width:0.999877;stroke-miterlimit:4;stroke-dasharray:none;stroke-opacity:1"><path
           d="m 0,0 c -0.119,0 -0.245,-0.007 -0.372,-0.022 -3.297,-0.358 -4.452,-2.766 -6.87,-14.312 -0.036,-0.174 -0.121,-0.565 -0.164,-0.764 l -0.019,-0.091 c -0.705,-3.24 -1.354,-6.812 -0.136,-8.199 0.357,-0.406 0.858,-0.603 1.532,-0.603 0.142,0 0.29,0.008 0.439,0.025 2.818,0.306 4.176,2.979 6.052,11.917 1.587,7.505 1.779,10.426 0.76,11.579 C 0.947,-0.158 0.536,0 0,0 m -6.313,-25.488 c -1.303,0 -2.046,0.534 -2.44,0.983 -1.723,1.962 -0.8,6.209 -0.126,9.31 l 0.189,0.881 c 2.467,11.783 3.876,15.284 8.456,15.782 0.188,0.02 0.368,0.03 0.537,0.03 0.913,0 1.603,-0.278 2.109,-0.85 1.492,-1.686 1.002,-5.607 -0.502,-12.723 -0.884,-4.205 -1.646,-7.251 -2.713,-9.431 -1.187,-2.426 -2.797,-3.718 -4.924,-3.949 -0.204,-0.022 -0.396,-0.033 -0.586,-0.033"
           style="fill:#000000;fill-opacity:1;fill-rule:nonzero;stroke:none;stroke-width:0.999877;stroke-miterlimit:4;stroke-dasharray:none;stroke-opacity:1"
           id="path294" /></g><g
         id="g296"
         transform="matrix(1.2001474,0,0,-1.2001474,60.777086,221.62484)"
         style="display:inline;fill:#000000;fill-opacity:1;stroke:none;stroke-width:0.999877;stroke-miterlimit:4;stroke-dasharray:none;stroke-opacity:1"><path
           d="m 0,0 c -0.392,0 -0.71,0.319 -0.71,0.71 0,5.663 4.607,10.271 10.27,10.271 0.392,0 0.71,-0.319 0.71,-0.711 C 10.27,9.879 9.952,9.56 9.56,9.56 4.68,9.56 0.71,5.59 0.71,0.71 0.71,0.319 0.392,0 0,0"
           style="fill:#000000;fill-opacity:1;fill-rule:nonzero;stroke:none;stroke-width:0.999877;stroke-miterlimit:4;stroke-dasharray:none;stroke-opacity:1"
           id="path298" /></g><g
         id="g300"
         transform="matrix(1.2001474,0,0,-1.2001474,72.250496,233.09825)"
         style="display:inline;fill:#000000;fill-opacity:1;stroke:none;stroke-width:0.999877;stroke-miterlimit:4;stroke-dasharray:none;stroke-opacity:1"><path
           d="m 0,0 c -0.392,0 -0.71,0.319 -0.71,0.71 0,0.392 0.318,0.711 0.71,0.711 4.88,0 8.85,3.969 8.85,8.849 0,0.392 0.319,0.711 0.71,0.711 0.392,0 0.711,-0.319 0.711,-0.711 C 10.271,4.607 5.663,0 0,0"
           style="fill:#000000;fill-opacity:1;fill-rule:nonzero;stroke:none;stroke-width:0.999877;stroke-miterlimit:4;stroke-dasharray:none;stroke-opacity:1"
           id="path302" /></g><g
         id="g304"
         transform="matrix(1.2001474,0,0,-1.2001474,217.48634,206.95904)"
         style="display:inline;fill:#000000;fill-opacity:1;stroke:none;stroke-width:0.999877;stroke-miterlimit:4;stroke-dasharray:none;stroke-opacity:1"><path
           d="m 0,0 c -0.391,0 -0.71,0.319 -0.71,0.71 0,5.663 4.607,10.271 10.27,10.271 0.392,0 0.711,-0.319 0.711,-0.711 C 10.271,9.879 9.952,9.56 9.56,9.56 4.68,9.56 0.71,5.59 0.71,0.71 0.71,0.319 0.391,0 0,0"
           style="fill:#000000;fill-opacity:1;fill-rule:nonzero;stroke:none;stroke-width:0.999877;stroke-miterlimit:4;stroke-dasharray:none;stroke-opacity:1"
           id="path306" /></g><g
         id="g308"
         transform="matrix(1.2001474,0,0,-1.2001474,228.95975,218.43245)"
         style="display:inline;fill:#000000;fill-opacity:1;stroke:none;stroke-width:0.999877;stroke-miterlimit:4;stroke-dasharray:none;stroke-opacity:1"><path
           d="m 0,0 c -0.391,0 -0.71,0.319 -0.71,0.71 0,0.392 0.319,0.711 0.71,0.711 4.88,0 8.85,3.969 8.85,8.849 0,0.392 0.319,0.711 0.71,0.711 0.391,0 0.71,-0.319 0.71,-0.711 C 10.27,4.607 5.663,0 0,0"
           style="fill:#000000;fill-opacity:1;fill-rule:nonzero;stroke:none;stroke-width:0.999877;stroke-miterlimit:4;stroke-dasharray:none;stroke-opacity:1"
           id="path310" /></g><g
         id="g312"
         transform="matrix(1.2001474,0,0,-1.2001474,72.250496,226.54185)"
         style="display:inline;fill:#000000;fill-opacity:1;stroke:none;stroke-width:0.999877;stroke-miterlimit:4;stroke-dasharray:none;stroke-opacity:1"><path
           d="m 0,0 c -0.392,0 -0.71,0.319 -0.71,0.71 0,0.392 0.318,0.711 0.71,0.711 1.868,0 3.387,1.519 3.387,3.387 0,0.391 0.319,0.71 0.71,0.71 0.392,0 0.711,-0.319 0.711,-0.71 C 4.808,2.156 2.651,0 0,0"
           style="fill:#000000;fill-opacity:1;fill-rule:nonzero;stroke:none;stroke-width:0.999877;stroke-miterlimit:4;stroke-dasharray:none;stroke-opacity:1"
           id="path314" /></g><g
         id="g316"
         transform="matrix(1.2001474,0,0,-1.2001474,228.95975,211.87605)"
         style="display:inline;fill:#000000;fill-opacity:1;stroke:none;stroke-width:0.999877;stroke-miterlimit:4;stroke-dasharray:none;stroke-opacity:1"><path
           d="m 0,0 c -0.391,0 -0.71,0.319 -0.71,0.71 0,0.392 0.319,0.711 0.71,0.711 1.868,0 3.387,1.519 3.387,3.387 0,0.391 0.319,0.71 0.71,0.71 0.392,0 0.711,-0.319 0.711,-0.71 C 4.808,2.156 2.651,0 0,0"
           style="fill:#000000;fill-opacity:1;fill-rule:nonzero;stroke:none;stroke-width:0.999877;stroke-miterlimit:4;stroke-dasharray:none;stroke-opacity:1"
           id="path318" /></g><g
         id="g320"
         transform="matrix(1.2001474,0,0,-1.2001474,45.920461,304.16618)"
         style="display:inline;fill:#000000;fill-opacity:1;stroke:none;stroke-width:0.999877;stroke-miterlimit:4;stroke-dasharray:none;stroke-opacity:1"><path
           d="m 0,0 c -0.023,0 -0.046,0.002 -0.07,0.003 -0.207,0.022 -0.385,0.125 -0.505,0.289 -0.12,0.163 -0.164,0.363 -0.123,0.563 L 9.599,50.774 c 0.068,0.328 0.36,0.566 0.694,0.566 0.023,0 0.047,-0.001 0.07,-0.003 0.207,-0.021 0.386,-0.124 0.506,-0.288 0.12,-0.165 0.164,-0.365 0.123,-0.564 L 0.695,0.567 C 0.627,0.238 0.335,0 0,0"
           style="fill:#000000;fill-opacity:1;fill-rule:nonzero;stroke:none;stroke-width:0.999877;stroke-miterlimit:4;stroke-dasharray:none;stroke-opacity:1"
           id="path322" /></g><g
         id="g324"
         transform="matrix(1.2001474,0,0,-1.2001474,320.59461,230.61035)"
         style="display:inline;fill:#000000;fill-opacity:1;stroke:none;stroke-width:0.999877;stroke-miterlimit:4;stroke-dasharray:none;stroke-opacity:1"><path
           d="m 0,0 c -0.188,0 -0.391,-0.012 -0.604,-0.036 -3.639,-0.405 -4.973,-4.27 -5.729,-7.593 l -0.171,-0.757 8.255,0.919 0.079,0.398 c 0.495,2.527 0.935,5.318 -0.122,6.47 C 1.343,-0.202 0.768,0 0,0 m -6.685,-9.752 c -0.334,0 -0.655,0.142 -0.88,0.389 -0.258,0.282 -0.367,0.676 -0.29,1.053 0.554,2.701 1.851,9.027 7.102,9.611 0.258,0.029 0.509,0.043 0.746,0.043 1.165,0 2.075,-0.348 2.705,-1.034 1.619,-1.762 0.922,-5.273 0.361,-8.093 L 3.049,-7.834 C 2.947,-8.349 2.53,-8.734 2.011,-8.792 L -6.555,-9.745 C -6.6,-9.749 -6.643,-9.752 -6.685,-9.752 M 3.622,6.901 C 2.744,6.901 1.775,6.843 0.743,6.728 -13.059,5.192 -16.062,-4.126 -18.133,-14.365 c -1.365,-6.592 -2.231,-13.126 0.642,-16.279 1.409,-1.549 3.66,-2.301 6.88,-2.301 0.889,0 1.864,0.058 2.897,0.174 4.624,0.514 8.608,2.201 11.521,4.876 2.631,2.314 4.359,4.935 5.442,8.25 l 0.267,0.815 -9.262,-1.03 -0.092,-0.373 c -1.049,-4.213 -3.171,-6.526 -6.305,-6.875 -0.184,-0.02 -0.363,-0.031 -0.534,-0.031 -1.241,0 -1.987,0.533 -2.393,0.979 -1.854,2.033 -1.116,6.547 -0.278,10.619 0.104,0.51 0.521,0.891 1.037,0.948 l 19.359,2.155 0.086,0.385 C 12.625,-5.408 13.599,1.196 10.646,4.504 9.206,6.117 6.909,6.901 3.622,6.901 m -14.2,-41.188 c -3.643,0 -6.23,0.895 -7.908,2.737 -3.095,3.398 -2.624,9.436 -0.964,17.455 2.086,10.316 5.353,20.525 20.044,22.16 1.063,0.118 2.071,0.177 2.998,0.177 3.714,0 6.349,-0.929 8.057,-2.842 3.204,-3.59 2.591,-9.887 0.687,-18.236 -0.113,-0.498 -0.528,-0.87 -1.032,-0.927 l -19.401,-2.159 0.009,-0.162 -0.046,-0.228 c -1.016,-5.026 -0.999,-7.784 0.057,-8.941 0.332,-0.365 0.785,-0.542 1.387,-0.542 0.126,0 0.26,0.008 0.399,0.024 2.653,0.295 4.37,2.356 5.251,6.303 0.112,0.502 0.527,0.876 1.033,0.932 l 9.577,1.066 c 0.045,0.004 0.088,0.007 0.131,0.007 0.348,0 0.677,-0.152 0.904,-0.417 0.26,-0.307 0.352,-0.723 0.245,-1.112 -1.103,-3.998 -3.113,-7.237 -6.145,-9.903 -3.116,-2.863 -7.36,-4.667 -12.27,-5.213 -1.067,-0.119 -2.08,-0.179 -3.013,-0.179"
           style="fill:#000000;fill-opacity:1;fill-rule:nonzero;stroke:none;stroke-width:0.999877;stroke-miterlimit:4;stroke-dasharray:none;stroke-opacity:1"
           id="path326" /></g><g
         id="g328"
         transform="matrix(1.2001474,0,0,-1.2001474,307.89945,277.86975)"
         style="display:inline;fill:#000000;fill-opacity:1;stroke:none;stroke-width:0.999877;stroke-miterlimit:4;stroke-dasharray:none;stroke-opacity:1"><path
           d="m 0,0 c -5.085,0 -9.012,1.48 -11.671,4.399 -5.055,5.55 -3.779,14.222 -2.187,21.916 1.126,5.565 2.648,11.385 6.132,16.235 4.101,5.706 10.269,9.054 18.334,9.952 1.25,0.139 2.448,0.209 3.562,0.209 5.175,0 9.163,-1.529 11.854,-4.544 4.873,-5.461 3.853,-13.796 2.025,-21.991 -0.068,-0.308 -0.338,-0.524 -0.655,-0.524 -0.048,0 -0.096,0.005 -0.143,0.015 -0.177,0.04 -0.327,0.145 -0.423,0.296 -0.096,0.151 -0.128,0.33 -0.088,0.506 1.75,7.845 2.754,15.796 -1.717,20.805 -2.425,2.717 -6.077,4.095 -10.853,4.095 -1.061,0 -2.209,-0.068 -3.413,-0.2 -7.672,-0.854 -13.524,-4.018 -17.392,-9.402 -3.337,-4.643 -4.812,-10.3 -5.908,-15.722 -1.525,-7.371 -2.765,-15.66 1.864,-20.742 C -8.285,2.675 -4.692,1.342 0,1.342 c 1.068,0 2.221,0.068 3.427,0.202 5.687,0.633 10.653,2.759 14.36,6.148 3.583,3.163 5.955,6.989 7.255,11.7 0.165,0.598 0.428,1.794 0.478,2.028 0.068,0.31 0.345,0.536 0.658,0.536 0.047,0 0.095,-0.005 0.142,-0.015 0.174,-0.037 0.324,-0.141 0.421,-0.293 0.098,-0.15 0.13,-0.329 0.092,-0.504 C 26.821,21.086 26.527,19.731 26.336,19.035 24.964,14.065 22.46,10.028 18.683,6.694 14.771,3.118 9.546,0.875 3.575,0.21 2.322,0.071 1.119,0 0,0"
           style="fill:#000000;fill-opacity:1;fill-rule:nonzero;stroke:none;stroke-width:0.999877;stroke-miterlimit:4;stroke-dasharray:none;stroke-opacity:1"
           id="path330" /></g></g></g><g
     transform="translate(-1.9254538,-1.9254604)"
     style="display:inline"
     inkscape:label="white"
     id="layer2"
     inkscape:groupmode="layer"><g
       transform="matrix(1.5984017,0,0,-1.5984017,-235.7762,881.85153)"
       id="g1835"
       style="stroke-width:0.283465;stroke-miterlimit:4;stroke-dasharray:none"><g
         transform="matrix(0.90011061,0,0,0.90011061,13.900769,193.95968)"
         id="g1476"
         style="fill:#000000;fill-opacity:1;stroke:none;stroke-width:0.314922;stroke-miterlimit:4;stroke-dasharray:none;stroke-opacity:1"><g
           id="g14"
           transform="translate(260.445,334.494)"
           style="fill:#000000;fill-opacity:1;stroke:none;stroke-width:0.314922;stroke-miterlimit:4;stroke-dasharray:none;stroke-opacity:1"><path
             d="m 0,0 v -4.213 h -10.006 v -33.809 h -4.845 V -4.213 H -24.857 V 0 Z"
             style="fill:#000000;fill-opacity:1;fill-rule:nonzero;stroke:none;stroke-width:0.314922;stroke-miterlimit:4;stroke-dasharray:none;stroke-opacity:1"
             id="path16" /></g><g
           id="g18"
           transform="translate(266.351,296.471)"
           style="fill:#000000;fill-opacity:1;stroke:none;stroke-width:0.314922;stroke-miterlimit:4;stroke-dasharray:none;stroke-opacity:1"><path
             d="m 0,0 v 38.022 h 4.845 v -16.43 h 13.323 v 16.43 h 4.846 V 0 H 18.168 V 17.379 H 4.845 V 0 Z"
             style="fill:#000000;fill-opacity:1;fill-rule:nonzero;stroke:none;stroke-width:0.314922;stroke-miterlimit:4;stroke-dasharray:none;stroke-opacity:1"
             id="path20" /></g><path
           d="m 302.39,296.471 h -4.846 v 38.022 h 4.846 z"
           style="fill:#000000;fill-opacity:1;fill-rule:nonzero;stroke:none;stroke-width:0.314922;stroke-miterlimit:4;stroke-dasharray:none;stroke-opacity:1"
           id="path22" /><g
           id="g24"
           transform="translate(336.557,334.494)"
           style="fill:#000000;fill-opacity:1;stroke:none;stroke-width:0.314922;stroke-miterlimit:4;stroke-dasharray:none;stroke-opacity:1"><path
             d="m 0,0 v -38.022 h -6.636 l -15.009,32.966 h -0.105 v -32.966 h -4.318 V 0 h 6.846 l 14.798,-32.545 h 0.105 V 0 Z"
             style="fill:#000000;fill-opacity:1;fill-rule:nonzero;stroke:none;stroke-width:0.314922;stroke-miterlimit:4;stroke-dasharray:none;stroke-opacity:1"
             id="path26" /></g><g
           id="g28"
           transform="translate(344.473,296.471)"
           style="fill:#000000;fill-opacity:1;stroke:none;stroke-width:0.314922;stroke-miterlimit:4;stroke-dasharray:none;stroke-opacity:1"><path
             d="M 0,0 V 38.022 H 4.845 V 21.329 h 0.158 l 13.271,16.693 h 5.478 L 9.953,20.855 24.541,0 H 18.327 L 5.003,19.854 H 4.845 V 0 Z"
             style="fill:#000000;fill-opacity:1;fill-rule:nonzero;stroke:none;stroke-width:0.314922;stroke-miterlimit:4;stroke-dasharray:none;stroke-opacity:1"
             id="path30" /></g><path
           d="m 379.207,296.471 h -4.95 v 5.477 h 4.95 z"
           style="fill:#000000;fill-opacity:1;fill-rule:nonzero;stroke:none;stroke-width:0.314922;stroke-miterlimit:4;stroke-dasharray:none;stroke-opacity:1"
           id="path32" /><g
           id="g34"
           transform="translate(244.432,246.446)"
           style="fill:#000000;fill-opacity:1;stroke:none;stroke-width:0.314922;stroke-miterlimit:4;stroke-dasharray:none;stroke-opacity:1"><path
             d="M 0,0 H -4.529 V 38.022 H 3.318 L 12.903,6.109 h 0.105 l 9.69,31.913 h 8.005 V 0 H 25.858 V 33.81 H 25.752 L 15.114,0 H 10.533 L 0.106,33.81 H 0 Z"
             style="fill:#000000;fill-opacity:1;fill-rule:nonzero;stroke:none;stroke-width:0.314922;stroke-miterlimit:4;stroke-dasharray:none;stroke-opacity:1"
             id="path36" /></g><g
           id="g38"
           transform="translate(296.016,279.992)"
           style="fill:#000000;fill-opacity:1;stroke:none;stroke-width:0.314922;stroke-miterlimit:4;stroke-dasharray:none;stroke-opacity:1"><path
             d="M 0,0 H -0.105 L -6.056,-20.275 H 6.11 Z m -2.949,4.476 h 6.161 l 12.376,-38.022 h -5.424 l -2.738,9.058 H -7.267 l -2.844,-9.058 h -4.898 z"
             style="fill:#000000;fill-opacity:1;fill-rule:nonzero;stroke:none;stroke-width:0.314922;stroke-miterlimit:4;stroke-dasharray:none;stroke-opacity:1"
             id="path40" /></g><g
           id="g42"
           transform="translate(317.426,246.446)"
           style="fill:#000000;fill-opacity:1;stroke:none;stroke-width:0.314922;stroke-miterlimit:4;stroke-dasharray:none;stroke-opacity:1"><path
             d="M 0,0 V 38.022 H 4.845 V 21.329 h 0.158 l 13.271,16.693 h 5.478 L 9.953,20.855 24.541,0 H 18.327 L 5.003,19.854 H 4.845 V 0 Z"
             style="fill:#000000;fill-opacity:1;fill-rule:nonzero;stroke:none;stroke-width:0.314922;stroke-miterlimit:4;stroke-dasharray:none;stroke-opacity:1"
             id="path44" /></g><g
           id="g46"
           transform="translate(347.614,246.446)"
           style="fill:#000000;fill-opacity:1;stroke:none;stroke-width:0.314922;stroke-miterlimit:4;stroke-dasharray:none;stroke-opacity:1"><path
             d="M 0,0 V 38.022 H 19.591 V 33.81 H 4.845 V 21.592 H 18.538 V 17.379 H 4.845 V 4.213 H 19.907 V 0 Z"
             style="fill:#000000;fill-opacity:1;fill-rule:nonzero;stroke:none;stroke-width:0.314922;stroke-miterlimit:4;stroke-dasharray:none;stroke-opacity:1"
             id="path48" /></g><path
           d="m 378.473,246.446 h -4.95 v 5.477 h 4.95 z"
           style="fill:#000000;fill-opacity:1;fill-rule:nonzero;stroke:none;stroke-width:0.314922;stroke-miterlimit:4;stroke-dasharray:none;stroke-opacity:1"
           id="path50" /><g
           id="g52"
           transform="translate(258.738,110.209)"
           style="fill:#000000;fill-opacity:1;stroke:none;stroke-width:0.314922;stroke-miterlimit:4;stroke-dasharray:none;stroke-opacity:1"><path
             d="M 0,0 -1.395,-4.597 H -3.006 L -1.571,0 h -1.003 l -1.434,-4.597 h -1.964 l -0.334,-1.101 h 1.984 l -0.687,-2.239 h -1.945 l -0.334,-1.1 h 1.944 l -1.434,-4.597 h 1.002 l 1.454,4.597 h 1.572 l -1.415,-4.597 h 1.002 l 1.414,4.597 h 2.024 l 0.333,1.1 h -2.023 l 0.688,2.239 H 1.277 L 1.61,-4.597 H -0.393 L 1.022,0 Z m -3.32,-5.698 h 1.591 l -0.688,-2.239 h -1.571 z"
             style="fill:#000000;fill-opacity:1;fill-rule:nonzero;stroke:none;stroke-width:0.314922;stroke-miterlimit:4;stroke-dasharray:none;stroke-opacity:1"
             id="path54" /></g><g
           id="g56"
           style="fill:#000000;fill-opacity:1;stroke:none;stroke-width:0.314922;stroke-miterlimit:4;stroke-dasharray:none;stroke-opacity:1"><g
             id="g58"
             clip-path="url(#clipPath62)"
             style="fill:#000000;fill-opacity:1;stroke:none;stroke-width:0.314922;stroke-miterlimit:4;stroke-dasharray:none;stroke-opacity:1"><g
               id="g64"
               transform="translate(266.373,105.13)"
               style="fill:#000000;fill-opacity:1;stroke:none;stroke-width:0.314922;stroke-miterlimit:4;stroke-dasharray:none;stroke-opacity:1"><path
                 d="M 0,0 C 0.014,0.564 -0.027,1.127 -0.289,1.444 -0.55,1.76 -1.141,1.87 -1.403,1.87 -2.448,1.87 -2.86,1.238 -2.901,1.1 -2.943,0.99 -3.19,0.743 -3.19,-0.963 v -2.654 c 0,-2.433 0.797,-2.722 1.773,-2.722 0.386,0 1.555,0.138 1.568,2.077 h 1.307 c 0.054,-3.136 -2.159,-3.136 -2.806,-3.136 -1.237,0 -3.135,0.083 -3.135,3.933 v 2.805 c 0,2.805 1.238,3.603 3.191,3.603 C 0.674,2.943 1.43,1.925 1.306,0 Z"
                 style="fill:#000000;fill-opacity:1;fill-rule:nonzero;stroke:none;stroke-width:0.314922;stroke-miterlimit:4;stroke-dasharray:none;stroke-opacity:1"
                 id="path66" /></g><g
               id="g68"
               transform="translate(269.682,97.9386)"
               style="fill:#000000;fill-opacity:1;stroke:none;stroke-width:0.314922;stroke-miterlimit:4;stroke-dasharray:none;stroke-opacity:1"><path
                 d="M 0,0 V 9.928 H 1.265 V 1.1 H 4.909 V 0 Z"
                 style="fill:#000000;fill-opacity:1;fill-rule:nonzero;stroke:none;stroke-width:0.314922;stroke-miterlimit:4;stroke-dasharray:none;stroke-opacity:1"
                 id="path70" /></g><g
               id="g72"
               transform="translate(279.648,106.698)"
               style="fill:#000000;fill-opacity:1;stroke:none;stroke-width:0.314922;stroke-miterlimit:4;stroke-dasharray:none;stroke-opacity:1"><path
                 d="M 0,0 H -0.027 L -1.581,-5.294 H 1.595 Z M -0.77,1.169 H 0.839 L 4.07,-8.759 H 2.654 L 1.939,-6.394 H -1.898 L -2.64,-8.759 h -1.279 z"
                 style="fill:#000000;fill-opacity:1;fill-rule:nonzero;stroke:none;stroke-width:0.314922;stroke-miterlimit:4;stroke-dasharray:none;stroke-opacity:1"
                 id="path74" /></g><g
               id="g76"
               transform="translate(286.597,103.604)"
               style="fill:#000000;fill-opacity:1;stroke:none;stroke-width:0.314922;stroke-miterlimit:4;stroke-dasharray:none;stroke-opacity:1"><path
                 d="m 0,0 h 1.898 c 0.907,0 1.347,0.784 1.347,1.65 0,0.715 -0.357,1.513 -1.334,1.513 H 0 Z m 0,-1.1 v -4.565 h -1.265 v 9.928 h 3.424 c 1.76,0 2.379,-1.238 2.379,-2.475 0,-1.169 -0.646,-2.063 -1.815,-2.269 v -0.028 c 1.141,-0.179 1.554,-0.563 1.622,-2.557 0.014,-0.426 0.151,-1.98 0.344,-2.599 h -1.32 c -0.357,0.687 -0.275,1.98 -0.385,3.3 C 2.888,-1.155 1.911,-1.1 1.485,-1.1 Z"
                 style="fill:#000000;fill-opacity:1;fill-rule:nonzero;stroke:none;stroke-width:0.314922;stroke-miterlimit:4;stroke-dasharray:none;stroke-opacity:1"
                 id="path78" /></g><g
               id="g80"
               transform="translate(293.093,97.9386)"
               style="fill:#000000;fill-opacity:1;stroke:none;stroke-width:0.314922;stroke-miterlimit:4;stroke-dasharray:none;stroke-opacity:1"><path
                 d="M 0,0 V 9.928 H 1.265 V 5.569 H 1.306 L 4.772,9.928 H 6.201 L 2.599,5.445 6.408,0 H 4.785 L 1.306,5.184 H 1.265 V 0 Z"
                 style="fill:#000000;fill-opacity:1;fill-rule:nonzero;stroke:none;stroke-width:0.314922;stroke-miterlimit:4;stroke-dasharray:none;stroke-opacity:1"
                 id="path82" /></g><g
               id="g84"
               transform="translate(301.758,100.895)"
               style="fill:#000000;fill-opacity:1;stroke:none;stroke-width:0.314922;stroke-miterlimit:4;stroke-dasharray:none;stroke-opacity:1"><path
                 d="m 0,0 v -0.289 c 0,-1.348 0.852,-1.774 1.664,-1.774 1.004,0 1.774,0.426 1.774,1.609 0,2.2 -4.455,1.953 -4.455,4.936 0,1.761 1.251,2.696 2.915,2.696 1.815,0 2.832,-0.88 2.75,-2.902 H 3.328 C 3.341,5.363 2.997,6.078 1.801,6.078 1.045,6.078 0.275,5.693 0.275,4.62 0.275,2.434 4.73,2.75 4.73,-0.399 4.73,-2.489 3.286,-3.163 1.65,-3.163 -1.279,-3.19 -1.279,-0.949 -1.251,0 Z"
                 style="fill:#000000;fill-opacity:1;fill-rule:nonzero;stroke:none;stroke-width:0.314922;stroke-miterlimit:4;stroke-dasharray:none;stroke-opacity:1"
                 id="path86" /></g><g
               id="g88"
               transform="translate(313.322,101.514)"
               style="fill:#000000;fill-opacity:1;stroke:none;stroke-width:0.314922;stroke-miterlimit:4;stroke-dasharray:none;stroke-opacity:1"><path
                 d="M 0,0 V 3.355 C 0,5.431 -1.43,5.5 -1.829,5.5 -2.228,5.5 -3.658,5.431 -3.658,3.355 V 0 c 0,-2.173 0.633,-2.723 1.829,-2.723 C -0.632,-2.723 0,-2.173 0,0 m -4.95,0.055 v 3.259 c 0,1.98 1.017,3.245 3.121,3.245 2.104,0 3.121,-1.265 3.121,-3.245 V 0.055 c 0,-2.75 -1.017,-3.836 -3.121,-3.836 -2.104,0 -3.121,1.086 -3.121,3.836"
                 style="fill:#000000;fill-opacity:1;fill-rule:nonzero;stroke:none;stroke-width:0.314922;stroke-miterlimit:4;stroke-dasharray:none;stroke-opacity:1"
                 id="path90" /></g><g
               id="g92"
               transform="translate(323.544,107.867)"
               style="fill:#000000;fill-opacity:1;stroke:none;stroke-width:0.314922;stroke-miterlimit:4;stroke-dasharray:none;stroke-opacity:1"><path
                 d="M 0,0 V -9.928 H -1.733 L -5.651,-1.32 H -5.679 V -9.928 H -6.807 V 0 h 1.788 l 3.864,-8.498 h 0.027 V 0 Z"
                 style="fill:#000000;fill-opacity:1;fill-rule:nonzero;stroke:none;stroke-width:0.314922;stroke-miterlimit:4;stroke-dasharray:none;stroke-opacity:1"
                 id="path94" /></g><path
               d="m 327.073,97.939 h -1.265 v 9.928 h 1.265 z"
               style="fill:#000000;fill-opacity:1;fill-rule:nonzero;stroke:none;stroke-width:0.314922;stroke-miterlimit:4;stroke-dasharray:none;stroke-opacity:1"
               id="path96" /><g
               id="g98"
               transform="translate(334.066,105.213)"
               style="fill:#000000;fill-opacity:1;stroke:none;stroke-width:0.314922;stroke-miterlimit:4;stroke-dasharray:none;stroke-opacity:1"><path
                 d="m 0,0 c 0,1.169 -0.481,1.801 -1.76,1.801 -0.399,0 -1.829,-0.068 -1.829,-2.145 v -3.355 c 0,-2.173 0.633,-2.722 1.829,-2.722 0.907,0 1.512,0.247 1.774,0.44 v 2.97 h -1.829 v 1.1 h 3.094 v -4.827 c -0.811,-0.44 -1.76,-0.742 -3.039,-0.742 -2.104,0 -3.121,1.086 -3.121,3.836 v 3.259 c 0,1.98 1.017,3.245 3.121,3.245 2.145,0 3.162,-0.784 3.08,-2.86 z"
                 style="fill:#000000;fill-opacity:1;fill-rule:nonzero;stroke:none;stroke-width:0.314922;stroke-miterlimit:4;stroke-dasharray:none;stroke-opacity:1"
                 id="path100" /></g><g
               id="g102"
               transform="translate(344.358,107.867)"
               style="fill:#000000;fill-opacity:1;stroke:none;stroke-width:0.314922;stroke-miterlimit:4;stroke-dasharray:none;stroke-opacity:1"><path
                 d="M 0,0 V -9.928 H -1.733 L -5.651,-1.32 H -5.679 V -9.928 H -6.807 V 0 h 1.788 l 3.864,-8.498 h 0.027 V 0 Z"
                 style="fill:#000000;fill-opacity:1;fill-rule:nonzero;stroke:none;stroke-width:0.314922;stroke-miterlimit:4;stroke-dasharray:none;stroke-opacity:1"
                 id="path104" /></g><path
               d="m 347.887,97.939 h -1.265 v 9.928 h 1.265 z"
               style="fill:#000000;fill-opacity:1;fill-rule:nonzero;stroke:none;stroke-width:0.314922;stroke-miterlimit:4;stroke-dasharray:none;stroke-opacity:1"
               id="path106" /><g
               id="g108"
               transform="translate(356.053,107.867)"
               style="fill:#000000;fill-opacity:1;stroke:none;stroke-width:0.314922;stroke-miterlimit:4;stroke-dasharray:none;stroke-opacity:1"><path
                 d="M 0,0 V -1.1 H -2.613 V -9.928 H -3.878 V -1.1 H -6.49 V 0 Z"
                 style="fill:#000000;fill-opacity:1;fill-rule:nonzero;stroke:none;stroke-width:0.314922;stroke-miterlimit:4;stroke-dasharray:none;stroke-opacity:1"
                 id="path110" /></g><g
               id="g112"
               transform="translate(357.666,97.9386)"
               style="fill:#000000;fill-opacity:1;stroke:none;stroke-width:0.314922;stroke-miterlimit:4;stroke-dasharray:none;stroke-opacity:1"><path
                 d="m 0,0 v 9.928 h 5.115 v -1.1 H 1.265 V 5.638 H 4.84 v -1.1 H 1.265 V 1.1 H 5.198 V 0 Z"
                 style="fill:#000000;fill-opacity:1;fill-rule:nonzero;stroke:none;stroke-width:0.314922;stroke-miterlimit:4;stroke-dasharray:none;stroke-opacity:1"
                 id="path114" /></g><g
               id="g116"
               transform="translate(431.667,102.631)"
               style="fill:#000000;fill-opacity:1;stroke:none;stroke-width:0.314922;stroke-miterlimit:4;stroke-dasharray:none;stroke-opacity:1"><path
                 d="m 0,0 h -55.516 c -0.959,0 -1.737,0.778 -1.737,1.736 0,0.959 0.778,1.737 1.737,1.737 H 0 c 4.169,0 7.561,3.392 7.561,7.561 v 27.35 c 0,0.959 0.778,1.736 1.737,1.736 0.958,0 1.736,-0.777 1.736,-1.736 V 11.034 C 11.034,4.95 6.084,0 0,0"
                 style="fill:#000000;fill-opacity:1;fill-rule:nonzero;stroke:none;stroke-width:0.314922;stroke-miterlimit:4;stroke-dasharray:none;stroke-opacity:1"
                 id="path118" /></g><g
               id="g120"
               transform="translate(440.965,245.848)"
               style="fill:#000000;fill-opacity:1;stroke:none;stroke-width:0.314922;stroke-miterlimit:4;stroke-dasharray:none;stroke-opacity:1"><path
                 d="m 0,0 c -0.959,0 -1.736,0.778 -1.736,1.736 v 113.587 c 0,4.17 -3.392,7.562 -7.562,7.562 h -92.376 c -0.959,0 -1.736,0.777 -1.736,1.736 0,0.959 0.777,1.736 1.736,1.736 h 92.376 c 6.084,0 11.034,-4.95 11.034,-11.034 V 1.736 C 1.736,0.778 0.959,0 0,0"
                 style="fill:#000000;fill-opacity:1;fill-rule:nonzero;stroke:none;stroke-width:0.314922;stroke-miterlimit:4;stroke-dasharray:none;stroke-opacity:1"
                 id="path122" /></g><g
               id="g124"
               transform="translate(238.502,102.631)"
               style="fill:#000000;fill-opacity:1;stroke:none;stroke-width:0.314922;stroke-miterlimit:4;stroke-dasharray:none;stroke-opacity:1"><path
                 d="m 0,0 h -56.049 c -6.084,0 -11.034,4.95 -11.034,11.034 v 2.101 c 0,0.959 0.777,1.737 1.736,1.737 0.959,0 1.736,-0.778 1.736,-1.737 v -2.101 c 0,-4.169 3.393,-7.561 7.562,-7.561 L 0,3.473 C 0.959,3.473 1.736,2.695 1.736,1.736 1.736,0.778 0.959,0 0,0"
                 style="fill:#000000;fill-opacity:1;fill-rule:nonzero;stroke:none;stroke-width:0.314922;stroke-miterlimit:4;stroke-dasharray:none;stroke-opacity:1"
                 id="path126" /></g><g
               id="g128"
               transform="translate(173.155,220.307)"
               style="fill:#000000;fill-opacity:1;stroke:none;stroke-width:0.314922;stroke-miterlimit:4;stroke-dasharray:none;stroke-opacity:1"><path
                 d="m 0,0 c -0.959,0 -1.736,0.778 -1.736,1.736 v 139.128 c 0,6.084 4.95,11.034 11.034,11.034 h 92.909 c 0.959,0 1.736,-0.778 1.736,-1.737 0,-0.959 -0.777,-1.736 -1.736,-1.736 H 9.298 c -4.17,0 -7.562,-3.392 -7.562,-7.561 V 1.736 C 1.736,0.778 0.959,0 0,0"
                 style="fill:#000000;fill-opacity:1;fill-rule:nonzero;stroke:none;stroke-width:0.314922;stroke-miterlimit:4;stroke-dasharray:none;stroke-opacity:1"
                 id="path130" /></g><g
               id="g132"
               transform="translate(307.214,366.711)"
               style="fill:#000000;fill-opacity:1;stroke:none;stroke-width:0.314922;stroke-miterlimit:4;stroke-dasharray:none;stroke-opacity:1"><path
                 d="m 0,0 c -1.369,0 -2.484,1.114 -2.484,2.484 0,1.369 1.115,2.483 2.484,2.483 1.369,0 2.483,-1.114 2.483,-2.483 C 2.483,1.114 1.369,0 0,0"
                 style="fill:#000000;fill-opacity:1;fill-rule:nonzero;stroke:none;stroke-width:0.314922;stroke-miterlimit:4;stroke-dasharray:none;stroke-opacity:1"
                 id="path134" /></g><g
               id="g136"
               transform="translate(316.194,364.94)"
               style="fill:#000000;fill-opacity:1;stroke:none;stroke-width:0.314922;stroke-miterlimit:4;stroke-dasharray:none;stroke-opacity:1"><path
                 d="m 0,0 c -1.369,0 -2.484,1.114 -2.484,2.483 0,1.37 1.115,2.484 2.484,2.484 1.369,0 2.483,-1.114 2.483,-2.484 C 2.483,1.114 1.369,0 0,0"
                 style="fill:#000000;fill-opacity:1;fill-rule:nonzero;stroke:none;stroke-width:0.314922;stroke-miterlimit:4;stroke-dasharray:none;stroke-opacity:1"
                 id="path138" /></g><g
               id="g140"
               transform="translate(298.234,368.482)"
               style="fill:#000000;fill-opacity:1;stroke:none;stroke-width:0.314922;stroke-miterlimit:4;stroke-dasharray:none;stroke-opacity:1"><path
                 d="m 0,0 c -1.369,0 -2.483,1.114 -2.483,2.483 0,1.37 1.114,2.484 2.483,2.484 1.369,0 2.484,-1.114 2.484,-2.484 C 2.484,1.114 1.369,0 0,0"
                 style="fill:#000000;fill-opacity:1;fill-rule:nonzero;stroke:none;stroke-width:0.314922;stroke-miterlimit:4;stroke-dasharray:none;stroke-opacity:1"
                 id="path142" /></g><g
               id="g144"
               transform="translate(292.106,383.799)"
               style="fill:#000000;fill-opacity:1;stroke:none;stroke-width:0.314922;stroke-miterlimit:4;stroke-dasharray:none;stroke-opacity:1"><path
                 d="m 0,0 c -0.973,0 -1.765,-0.872 -1.765,-1.944 v -21.738 c 0,-0.672 0.309,-1.288 0.828,-1.647 l 14.496,-10.032 c 1.037,-0.717 2.43,-0.717 3.466,0 l 14.496,10.032 c 0.518,0.359 0.828,0.975 0.828,1.647 V -1.944 C 32.349,-0.872 31.557,0 30.584,0 Z m 15.292,-38.737 c -1.174,0 -2.348,0.347 -3.35,1.04 l -14.496,10.032 c -1.285,0.89 -2.053,2.379 -2.053,3.983 v 21.738 c 0,2.638 2.067,4.785 4.607,4.785 h 30.584 c 2.54,0 4.606,-2.147 4.606,-4.785 v -21.738 c 0,-1.605 -0.767,-3.093 -2.052,-3.983 v 0 L 18.641,-37.697 c -1.001,-0.693 -2.175,-1.04 -3.349,-1.04"
                 style="fill:#000000;fill-opacity:1;fill-rule:nonzero;stroke:none;stroke-width:0.314922;stroke-miterlimit:4;stroke-dasharray:none;stroke-opacity:1"
                 id="path146" /></g></g></g></g></g><path
       id="rect1016"
       style="fill:none;fill-opacity:1;stroke:#000000;stroke-width:0.00377953;stroke-linecap:butt;stroke-linejoin:miter;stroke-miterlimit:4;stroke-dasharray:none;stroke-opacity:1"
       d="m 416.74172,455.08063 v 18.89764 H 38.78898 V 455.01763 H 24.581859 c -12.550598,0 -22.6545154,-10.10389 -22.6545154,-22.6545 V 24.581865 c 0,-12.550602 10.1039124,-22.6545148 22.6545154,-22.6545148 H 432.36308 c 12.5506,0 22.65451,10.1039128 22.65451,22.6545148 V 432.36313 c 0,12.55061 -10.10391,22.6545 -22.65451,22.6545 h -15.62136"
       sodipodi:nodetypes="ccccssssssssc" /></g></svg>
