<?xml version="1.0" encoding="UTF-8" standalone="no"?>
<svg
   xmlns:dc="http://purl.org/dc/elements/1.1/"
   xmlns:cc="http://creativecommons.org/ns#"
   xmlns:rdf="http://www.w3.org/1999/02/22-rdf-syntax-ns#"
   xmlns:svg="http://www.w3.org/2000/svg"
   xmlns="http://www.w3.org/2000/svg"
   xmlns:sodipodi="http://sodipodi.sourceforge.net/DTD/sodipodi-0.dtd"
   xmlns:inkscape="http://www.inkscape.org/namespaces/inkscape"
   inkscape:version="1.0.1 (3bc2e813f5, 2020-09-07)"
   sodipodi:docname="logo-curve-logo-spaced-5.25in.svg"
   id="svg18"
   version="1.1"
   height="5.9615502in"
   width="6.125in"
   viewBox="0 0 587.99999 572.30884">
  <metadata
     id="metadata22">
    <rdf:RDF>
      <cc:Work
         rdf:about="">
        <dc:format>image/svg+xml</dc:format>
        <dc:type
           rdf:resource="http://purl.org/dc/dcmitype/StillImage" />
        <dc:title></dc:title>
      </cc:Work>
    </rdf:RDF>
  </metadata>
  <sodipodi:namedview
     units="in"
     fit-margin-bottom="0"
     fit-margin-right="0"
     fit-margin-left="0"
     fit-margin-top="0"
     inkscape:current-layer="g16"
     inkscape:window-maximized="1"
     inkscape:window-y="-11"
     inkscape:window-x="-11"
     inkscape:cy="232.25468"
     inkscape:cx="290.19348"
     inkscape:zoom="1"
     showgrid="false"
     id="namedview20"
     inkscape:window-height="1186"
     inkscape:window-width="1920"
     inkscape:pageshadow="2"
     inkscape:pageopacity="0"
     guidetolerance="10"
     gridtolerance="10"
     objecttolerance="10"
     borderopacity="1"
     bordercolor="#666666"
     pagecolor="#ffffff"
     inkscape:document-rotation="0" />
  <defs
     id="defs12">
    <marker
       style="overflow:visible"
       refY="0"
       refX="0"
       orient="auto"
       id="DistanceX">
      <path
         id="path2"
         style="stroke:#000000;stroke-width:0.5"
         d="M 3,-3 -3,3 M 0,-5 V 5" />
    </marker>
    <pattern
       y="0"
       x="0"
       height="8"
       width="8"
       patternUnits="userSpaceOnUse"
       id="Hatch">
      <path
         id="path5"
         linecap="square"
         stroke-width="0.25"
         stroke="#000000"
         d="M8 4 l-4,4" />
      <path
         id="path7"
         linecap="square"
         stroke-width="0.25"
         stroke="#000000"
         d="M6 2 l-4,4" />
      <path
         id="path9"
         linecap="square"
         stroke-width="0.25"
         stroke="#000000"
         d="M4 0 l-4,4" />
    </pattern>
    <marker
       id="DistanceX-1"
       orient="auto"
       refX="0"
       refY="0"
       style="overflow:visible">
      <path
         d="M 3,-3 -3,3 M 0,-5 V 5"
         style="stroke:#000000;stroke-width:0.5"
         id="path853" />
    </marker>
    <pattern
       id="Hatch-2"
       patternUnits="userSpaceOnUse"
       width="8"
       height="8"
       x="0"
       y="0">
      <path
         d="M8 4 l-4,4"
         stroke="#000000"
         stroke-width="0.25"
         linecap="square"
         id="path856" />
      <path
         d="M6 2 l-4,4"
         stroke="#000000"
         stroke-width="0.25"
         linecap="square"
         id="path858" />
      <path
         d="M4 0 l-4,4"
         stroke="#000000"
         stroke-width="0.25"
         linecap="square"
         id="path860" />
    </pattern>
  </defs>
  <desc
     id="desc14">ignite-logo.dxf - scale = 25.400000, origin = (0.000000, 0.000000), method = file</desc>
  <g
     transform="translate(89.192208,-287.40671)"
     style="display:inline"
     id="g16"
     inkscape:label="0"
     inkscape:groupmode="layer">
    <g
       inkscape:label="0"
       id="g867" />
    <path
       id="path908"
       d="m 217.69766,859.09279 c 0.15005,-0.39102 0.54322,-1.98961 0.8737,-3.55243 0.33049,-1.5628 0.71969,-3.14019 0.86489,-3.50528 0.216,-0.54315 -0.0146,-0.6313 -1.2684,-0.48492 l -1.53239,0.1789 0.12968,-2.50746 0.12968,-2.50745 1.94723,-0.12689 c 1.91369,-0.1247 1.95603,-0.15978 2.45802,-2.03666 0.69866,-2.61223 0.70238,-2.60317 -0.9854,-2.40613 -1.66023,0.19382 -1.7715,-0.11997 -1.2218,-3.44559 0.25886,-1.56614 0.30778,-1.60306 2.12455,-1.60306 1.99747,0 1.87472,0.16387 2.56195,-3.41985 0.11271,-0.58779 0.48511,-2.05924 0.82755,-3.26989 0.62079,-2.19471 0.6283,-2.20163 2.55762,-2.35508 l 1.93501,-0.15389 -0.28328,1.92759 c -0.1558,1.06018 -0.54329,2.79326 -0.86109,3.85127 -0.77753,2.58858 -0.78532,2.56489 0.84322,2.56489 1.41065,0 1.44295,-0.0436 2.35115,-3.1692 0.50648,-1.74308 0.92086,-3.5766 0.92086,-4.0745 0,-1.01 0.26916,-1.14361 2.91725,-1.44805 1.59816,-0.18373 1.81031,-0.11612 1.56621,0.49915 -0.1553,0.39143 -0.55277,1.99035 -0.88325,3.55315 -0.33049,1.56282 -0.71922,3.14985 -0.86385,3.52672 -0.21233,0.55336 0.0446,0.68525 1.33491,0.68525 h 1.59784 l -0.26496,1.60306 c -0.14573,0.88167 -0.26708,1.9279 -0.26967,2.32495 -0.003,0.52445 -0.51991,0.79916 -1.88833,1.00437 -1.79523,0.2692 -1.90557,0.3696 -2.35115,2.13915 -0.25714,1.02119 -0.46753,1.92525 -0.46753,2.00904 0,0.0838 0.6733,0.0737 1.49619,-0.0224 1.66023,-0.19382 1.7715,0.11997 1.22181,3.44559 -0.25834,1.56292 -0.31101,1.60305 -2.10389,1.60305 -2.07075,0 -1.94186,-0.20386 -2.93524,4.64265 -0.35472,1.73055 -0.86677,3.41377 -1.1379,3.74046 -0.27114,0.3267 -1.23889,0.594 -2.15056,0.594 -1.98372,0 -2.01975,-0.20645 -0.80263,-4.5986 0.47024,-1.69688 0.85497,-3.18386 0.85497,-3.30439 0,-0.12054 -0.76946,-0.21917 -1.70993,-0.21917 -1.57271,0 -1.71246,0.0943 -1.74155,1.17558 -0.0174,0.64656 -0.4554,2.61832 -0.97335,4.38168 l -0.94171,3.20611 -2.07462,0.13256 c -1.78805,0.11426 -2.03694,0.0343 -1.80181,-0.57837 z m 10.73101,-14.51604 c 0.12204,-0.58779 0.32174,-1.54962 0.44377,-2.13741 0.20292,-0.97736 0.095,-1.0687 -1.26234,-1.0687 -1.351,0 -1.52422,0.14391 -1.92943,1.60306 -0.6821,2.4561 -0.59831,2.67175 1.03808,2.67175 1.24308,0 1.52456,-0.17593 1.70992,-1.0687 z m 13.226,8.81232 c -2.0328,-1.2396 -2.48815,-2.85239 -2.16367,-7.6635 0.38123,-5.65269 1.24067,-9.26578 2.69684,-11.33766 1.77773,-2.5294 3.43565,-3.34812 6.87508,-3.39504 3.33106,-0.0455 4.67495,0.52367 5.10308,2.16108 0.31715,1.213 0.36622,4.27907 0.0732,4.57212 -0.0929,0.0929 -1.17542,0.30248 -2.4055,0.46566 l -2.23653,0.29668 v -1.30255 c 0,-2.76829 -1.22314,-3.48989 -2.86988,-1.69309 -0.99239,1.0828 -2.25989,7.55674 -2.25989,11.5426 0,2.67433 0.65925,3.56147 2.3342,3.14109 0.81718,-0.2051 1.19873,-0.73273 1.65067,-2.28268 0.6253,-2.14445 1.2425,-2.54769 4.0304,-2.63319 0.88824,-0.0272 1.38932,0.16118 1.38932,0.52245 0,1.41505 -1.51119,4.90274 -2.64647,6.10781 -2.16603,2.29919 -7.01305,3.05794 -9.57082,1.49822 z m 14.90351,-1.38061 c 0.13365,-0.56072 0.44661,-2.84698 0.69548,-5.08057 2.01103,-18.04836 1.73151,-17.09925 5.03588,-17.09925 2.16546,0 2.08585,-0.41855 1.21957,6.41222 -0.34289,2.70382 -0.78049,6.51248 -0.97243,8.46369 l -0.34899,3.54765 3.38868,-0.29559 3.38867,-0.2956 -0.27936,1.3968 c -0.15365,0.76825 -0.27937,1.63756 -0.27937,1.93181 0,0.35776 -1.38084,0.69981 -4.16794,1.03246 -2.29237,0.27359 -5.01286,0.61183 -6.04555,0.75165 -1.81024,0.2451 -1.86889,0.21763 -1.63464,-0.76527 z m 13.68906,-1.12637 c 0.12689,-0.41145 0.73605,-2.09465 1.3537,-3.74045 0.61764,-1.64581 1.28558,-3.49793 1.48428,-4.11583 0.19872,-0.61791 0.64127,-1.7721 0.98348,-2.56489 0.34221,-0.79279 1.01388,-2.49945 1.49262,-3.79258 1.71802,-4.6406 2.59988,-7.06582 2.83681,-7.80153 0.13579,-0.42167 0.66645,-0.74971 1.21616,-0.7518 0.53639,-0.002 1.95009,-0.12088 3.14157,-0.26407 l 2.16633,-0.26033 0.96815,5.92819 c 0.53248,3.26049 1.34908,8.20847 1.81467,10.99552 0.4656,2.78704 0.78639,5.11967 0.71287,5.18362 -0.0735,0.0639 -1.23713,0.20382 -2.5858,0.31084 -2.68373,0.21297 -2.56675,0.31926 -3.09732,-2.81434 l -0.28057,-1.65711 -1.95383,0.26781 c -1.07459,0.14728 -2.40788,0.26779 -2.96286,0.26779 -0.60379,0 -1.00904,0.25293 -1.00904,0.62979 0,0.34638 -0.41425,1.48244 -0.92056,2.52457 -0.93986,1.93451 -1.82213,2.4029 -4.52625,2.4029 -0.8173,0 -1.01144,-0.17406 -0.83441,-0.7481 z m 11.37931,-11.37315 c -0.0174,-1.20966 -0.17398,-3.06502 -0.3479,-4.12304 l -0.31623,-1.92367 -0.55266,1.92367 c -0.30396,1.05802 -0.91688,2.86306 -1.36201,4.0112 -0.44515,1.14816 -0.80937,2.21125 -0.80937,2.36245 0,0.1512 0.76948,0.20152 1.70994,0.11184 l 1.70992,-0.16307 -0.0317,-2.19938 z m 9.14462,9.02201 c 0.12567,-0.529 0.44352,-2.8855 0.70633,-5.23665 0.83909,-7.50661 1.77881,-14.94 1.97921,-15.65584 0.15212,-0.54341 1.21834,-0.80707 4.91441,-1.21522 5.57731,-0.61589 6.78617,-0.30872 7.88323,2.00317 1.19978,2.52835 -0.0249,6.97344 -2.30202,8.35509 l -1.12745,0.6841 1.11411,0.42359 c 1.55481,0.59114 1.7272,1.33815 1.40116,6.07182 l -0.28613,4.15453 -2.09355,0.27772 c -1.15145,0.15274 -2.28541,0.15915 -2.5199,0.0143 -0.26689,-0.16493 -0.31995,-1.67287 -0.14188,-4.03164 0.26611,-3.52509 0.22738,-3.7987 -0.60027,-4.24164 -0.89967,-0.48149 -2.65085,-0.65122 -2.65085,-0.25694 0,1.70943 -1.44482,9.02652 -1.83078,9.27177 -0.28621,0.18186 -1.45496,0.33361 -2.59724,0.3372 -1.93784,0.006 -2.06159,-0.0579 -1.84838,-0.95528 z m 8.62039,-12.71485 c 1.48602,-0.56498 2.61231,-3.16626 1.9758,-4.56326 -0.3453,-0.75786 -0.80046,-0.99672 -1.89932,-0.99672 h -1.44519 l -0.40505,2.99238 c -0.43958,3.24732 -0.35105,3.37545 1.77376,2.5676 z m 9.62548,10.29618 c 0,-1.03976 0.38157,-4.88848 0.84794,-8.55271 0.46637,-3.66422 0.9626,-7.9607 1.10273,-9.54773 0.24843,-2.81342 0.28463,-2.88549 1.44978,-2.88549 0.65723,0 1.79977,-0.12096 2.53896,-0.2688 l 1.34398,-0.2688 -0.24226,3.1543 c -0.13324,1.73486 -0.33076,3.7314 -0.43891,4.43674 -0.14961,0.97571 0.46874,0.27701 2.58531,-2.92123 1.53007,-2.31202 2.78195,-4.36288 2.78195,-4.55746 0,-0.3146 5.09916,-0.84083 5.50696,-0.5683 0.25101,0.16775 -3.11184,5.26037 -3.47643,5.26462 -0.17632,0.002 -0.3206,0.19566 -0.3206,0.43023 0,0.23457 -0.69418,1.39274 -1.54262,2.57371 l -1.54262,2.14721 1.60852,4.15913 c 0.88468,2.28751 1.95278,4.97668 2.37354,5.97592 l 0.76503,1.81679 -1.36528,0.004 c -0.7509,0.002 -2.07242,0.12163 -2.93668,0.26453 -1.56736,0.25917 -1.57313,0.25447 -2.23758,-1.8215 -0.36639,-1.14473 -1.12284,-3.42294 -1.68099,-5.06268 l -1.01483,-2.98137 -0.48806,2.80265 c -0.26844,1.54144 -0.48806,3.77324 -0.48806,4.95955 0,2.56034 -0.4028,2.97372 -3.09924,3.18064 l -2.03054,0.15582 z m 18.59306,-1.07397 c -0.98431,-0.84579 -1.24007,-1.46874 -1.40132,-3.41317 -0.2203,-2.65659 -0.24194,-2.63525 2.98423,-2.94437 l 2.00801,-0.19241 0.1294,1.50471 c 0.17029,1.9803 1.23178,2.6745 2.76012,1.80505 2.59677,-1.47728 1.90044,-3.66651 -1.76593,-5.5522 -3.04435,-1.56577 -4.49839,-3.46 -4.49839,-5.86025 0,-4.4929 3.82991,-7.811 9.02631,-7.82004 3.03542,-0.005 4.45667,0.988 4.86406,3.39935 0.48937,2.89654 0.0825,3.43618 -2.59093,3.43618 -2.00433,0 -2.32233,-0.11229 -2.32233,-0.82 0,-2.16854 -1.12055,-2.75135 -2.89726,-1.50691 -1.05516,0.73907 -1.29978,2.79945 -0.41572,3.50156 0.29389,0.2334 1.71557,1.05191 3.15921,1.81891 2.64381,1.4046 4.42585,3.57672 4.43068,5.40053 0.004,1.50086 -1.45408,4.86033 -2.54505,5.86394 -1.60657,1.47787 -4.41029,2.41374 -7.23128,2.41374 -2.01722,0 -2.71827,-0.19636 -3.69381,-1.03462 z m 18.49993,-1.42147 c -1.33448,-0.8275 -2.47713,-3.32936 -2.44532,-5.35409 0.0567,-3.61362 1.55432,-11.30366 2.55821,-13.1364 2.06662,-3.77286 8.24607,-5.5481 11.53221,-3.31298 2.69373,1.83218 3.01003,4.80078 1.42321,13.35879 -0.86796,4.68096 -2.19908,6.85429 -4.99572,8.15643 -2.67633,1.24611 -6.31821,1.37616 -8.07259,0.28825 z m 6.09203,-3.53368 c 0.98244,-0.52578 1.52248,-2.31563 2.37252,-7.86355 0.67542,-4.40783 0.5506,-6.25597 -0.48019,-7.11146 -0.9255,-0.76809 -2.66385,-0.11887 -3.37766,1.26143 -0.97054,1.87686 -2.13552,11.51341 -1.56799,12.97052 0.48724,1.25102 1.59873,1.52152 3.05332,0.74306 z m 10.51344,2.65009 c -0.11077,-0.17923 0.066,-2.43471 0.3929,-5.01218 0.32684,-2.57747 0.91865,-7.51984 1.31506,-10.98303 0.8055,-7.03739 0.44175,-6.50333 4.74341,-6.96431 l 2.65364,-0.28437 0.24853,1.21543 c 0.27312,1.33561 1.40022,5.55168 2.7249,10.19256 0.79195,2.77468 0.85535,2.86798 0.87112,1.28244 0.009,-0.94046 0.34857,-4.2365 0.75387,-7.32453 l 0.73684,-5.61461 2.13451,-0.2528 c 1.17398,-0.13904 2.21999,-0.16733 2.32446,-0.0629 0.29424,0.29426 -2.22828,21.94267 -2.59165,22.24154 -0.062,0.051 -1.5011,0.22506 -3.19781,0.38669 l -3.08496,0.29388 -0.2499,-1.20006 c -0.13749,-0.66003 -0.63183,-2.6428 -1.0986,-4.40616 -0.46672,-1.76336 -1.15282,-4.3603 -1.52469,-5.771 -0.37187,-1.41068 -0.73441,-2.75726 -0.80568,-2.99236 -0.0713,-0.23512 -0.14773,0.34198 -0.16996,1.28244 -0.0402,1.70294 -1.62935,13.52272 -1.84005,13.6866 -0.38815,0.3019 -4.17192,0.55209 -4.33594,0.28671 z m 21.35889,-4.83205 c 0.14555,-1.73609 0.63023,-5.8444 1.07699,-9.12958 0.44676,-3.28518 0.8123,-6.89681 0.8123,-8.02586 0,-1.81021 0.12957,-2.10206 1.09653,-2.46969 0.6031,-0.2293 1.7573,-0.4169 2.5649,-0.4169 1.44197,0 1.46839,0.0326 1.47169,1.81679 0,0.99923 -0.37944,4.79848 -0.84724,8.44275 -0.46778,3.64429 -0.9655,7.92444 -1.10601,9.51147 -0.22986,2.59553 -0.34878,2.88597 -1.18335,2.8902 -0.51029,0.002 -1.65291,0.12454 -2.53917,0.27102 l -1.61139,0.26632 z m 12.34775,1.38097 c -2.51308,-1.10016 -3.0895,-3.92649 -2.21111,-10.84145 0.9624,-7.57581 2.20401,-9.82715 6.31313,-11.44681 5.24122,-2.0659 9.37847,0.004 9.37847,4.69136 0,1.62179 -0.0776,1.73116 -1.229,1.73116 -0.67594,0 -1.83014,0.12022 -2.56489,0.26717 -1.29771,0.25954 -1.33588,0.22333 -1.33588,-1.2674 0,-2.72296 -2.81736,-3.09479 -4.1558,-0.5485 -0.65041,1.2373 -1.76148,8.13458 -1.80854,11.22656 -0.0111,0.73808 0.32971,1.77434 0.75766,2.30281 0.70287,0.86799 0.92203,0.91334 2.26792,0.46916 1.35515,-0.44725 1.49935,-0.65263 1.59489,-2.27204 0.0577,-0.97919 0.20275,-1.93847 0.32219,-2.13173 0.11944,-0.19325 -0.39662,-0.35137 -1.14681,-0.35137 -1.34908,0 -1.3614,-0.019 -1.12983,-1.74524 0.12872,-0.95987 0.30368,-1.81482 0.38871,-1.89988 0.33528,-0.33526 6.98813,-0.98721 7.25235,-0.7107 0.15492,0.16211 0.0974,1.44357 -0.12768,2.84769 -0.22516,1.40411 -0.54428,3.88595 -0.70916,5.51519 l -0.29979,2.96224 -1.70992,0.61485 c -2.03994,0.73352 -8.61661,1.12553 -9.84691,0.58693 z m 16.21441,-3.36192 c 0.15689,-1.1168 0.46947,-3.9542 0.69457,-6.30535 0.39388,-4.11368 1.6806,-13.57625 1.87335,-13.77654 0.24341,-0.25296 6.0071,-0.90186 6.31582,-0.71107 0.19349,0.11959 0.35182,0.52908 0.35182,0.90998 0,0.38089 0.37324,1.95656 0.8294,3.50149 0.45617,1.54492 1.16027,4.01248 1.56471,5.48345 0.4044,1.47098 0.79516,2.61463 0.86835,2.54145 0.0732,-0.0732 0.53618,-3.00466 1.02895,-6.51437 0.49275,-3.50973 1.12341,-6.52601 1.40149,-6.70284 0.27807,-0.17684 1.34772,-0.32447 2.37701,-0.32808 l 1.87143,-0.006 -0.25132,1.60306 c -0.13824,0.88168 -0.44906,3.33436 -0.69072,5.45039 -0.24166,2.11603 -0.75014,6.46793 -1.12997,9.67089 l -0.69059,5.82356 -2.20008,0.26434 c -4.429,0.53214 -4.41656,0.53717 -4.88611,-1.97252 -0.66106,-3.53317 -2.6653,-10.75217 -3.10954,-11.20001 -0.25264,-0.25466 -0.39922,0.30329 -0.39315,1.49619 0.005,1.04626 -0.32044,4.35497 -0.72399,7.35267 l -0.73364,5.45039 h -2.32653 -2.32647 l 0.28521,-2.03054 z m 21.20505,-1.76006 c 0,-1.20987 0.28624,-4.10557 0.63608,-6.43488 0.34985,-2.32931 0.82564,-6.39463 1.05725,-9.03407 0.23161,-2.63943 0.47438,-4.84967 0.53948,-4.91167 0.0651,-0.062 1.21498,-0.24845 2.5554,-0.41434 l 2.43703,-0.30163 -0.23115,3.14587 c -0.12717,1.73023 -0.59757,5.74283 -1.04544,8.91688 -0.44783,3.17404 -0.81824,6.63665 -0.82311,7.69466 -0.004,1.05802 -0.16468,2.1692 -0.35516,2.46932 -0.19044,0.30011 -1.34168,0.66354 -2.55834,0.80763 l -2.21204,0.26199 z m 11.78526,-3.30656 c 0.16728,-2.32711 0.62631,-6.46833 1.02001,-9.20271 l 0.71587,-4.97162 -1.73767,0.18792 c -0.95572,0.10332 -2.07431,0.25464 -2.48576,0.33617 -0.62998,0.12485 -0.74809,-0.17893 -0.74809,-1.9239 0,-1.13969 0.16048,-2.17135 0.35665,-2.29257 0.19612,-0.12124 3.19623,-0.42209 6.66687,-0.66858 3.47059,-0.24649 6.77271,-0.56424 7.33801,-0.70611 0.90665,-0.22757 1.02711,-0.11396 1.02194,0.96395 -0.0111,2.35614 -0.438,3.14558 -1.70048,3.14558 -0.64853,0 -1.7472,0.11361 -2.44144,0.25246 l -1.26231,0.25245 -0.70803,5.62541 c -0.38944,3.09399 -0.82349,6.98682 -0.96452,8.65075 -0.14107,1.66393 -0.39905,3.25604 -0.57334,3.53802 -0.17428,0.28197 -1.32596,0.6322 -2.55933,0.77828 l -2.24253,0.26558 z m -450.3640789,3.0566 c -0.707755,-0.85279 -0.18799,-2.22593 0.958965,-2.53341 0.521218,-0.13973 1.906976,-0.25669 3.07945099,-0.2599 1.172479,-0.003 5.69309301,-0.38123 10.04581301,-0.84004 4.3527199,-0.45881 12.2422799,-1.23578 17.5323599,-1.72662 5.29008,-0.49083 13.46566,-1.25903 18.16796,-1.70711 4.70229,-0.44808 12.87787,-1.22098 18.16796,-1.71754 5.29008,-0.49658 13.3261,-1.29629 17.85783,-1.77715 8.63271,-0.916 9.50097,-0.83469 9.50097,0.88977 0,1.19883 -0.92905,1.74319 -2.971,1.74084 -1.06977,-10e-4 -5.50382,0.37113 -9.85344,0.82748 -4.34962,0.45635 -12.33284,1.23861 -17.74048,1.73837 -5.40763,0.49975 -13.58321,1.27085 -18.16795,1.71357 -4.58474,0.44271 -12.66414,1.21048 -17.95422,1.70614 -5.29008,0.49567 -13.17711,1.27795 -17.5267299,1.73841 -9.422297,0.99746 -10.426074,1.0162 -11.097489,0.20719 z M 456.61297,833.20838 c 0.13256,-0.56572 0.44064,-2.75989 0.68461,-4.87592 0.24396,-2.11603 0.77125,-6.69417 1.17172,-10.17363 0.59908,-5.20449 0.86561,-6.39986 1.5032,-6.74107 0.42624,-0.22814 3.18532,-0.53694 6.13123,-0.68625 l 5.35621,-0.27147 v 1.73579 1.73577 l -2.24427,0.27168 c -5.01205,0.60672 -5.45031,0.72314 -5.45509,1.44919 -0.004,0.39078 -0.12807,1.45723 -0.27881,2.36989 l -0.2741,1.65938 3.27118,-0.30654 3.27116,-0.30654 v 1.93395 1.93395 l -2.03053,0.25873 c -4.42349,0.56366 -4.80877,0.67651 -4.83465,1.41608 -0.0141,0.40079 -0.17923,1.66469 -0.3672,2.80866 l -0.34172,2.07995 3.78705,-0.18106 c 4.05907,-0.19407 3.99913,-0.22993 3.53066,2.11241 l -0.2564,1.28206 -4.55277,0.50822 c -2.50402,0.27952 -5.3987,0.62233 -6.43265,0.76179 -1.81589,0.24493 -1.87168,0.21854 -1.63883,-0.77502 z M -4.4954619,825.32407 c -0.377444,-0.37746 -0.686266,-0.93753 -0.686266,-1.24462 0,-1.43302 -1.469168,-1.25131 46.8092079,-5.7897 19.82513,-1.86364 27.6432,-2.61979 35.90843,-3.47298 4.70229,-0.4854 9.31909,-0.81699 10.25955,-0.73687 1.5812,0.13471 1.70993,0.2419 1.70993,1.42392 0,1.46702 -0.85067,1.79147 -4.91604,1.87505 -1.29313,0.0266 -5.90993,0.4209 -10.25955,0.87626 -4.34962,0.45537 -12.23665,1.23084 -17.52673,1.72327 -5.29009,0.49243 -13.65803,1.28086 -18.59544,1.75205 -4.93741,0.4712 -13.01681,1.24063 -17.95422,1.70986 -17.8411499,1.69553 -22.6686659,2.18671 -23.3595579,2.37669 -0.386674,0.10633 -1.011865,-0.11549 -1.389314,-0.49293 z M 118.57412,822.28253 c -2.87405,-0.47027 -7.37964,-1.81915 -9.13781,-2.73569 -2.95274,-1.53925 -6.31238,-5.11231 -7.80391,-8.29963 -1.12364,-2.40118 -1.35325,-3.47656 -1.54517,-7.2371 -0.25839,-5.06276 0.0454,-7.32859 1.0336,-7.70779 0.38028,-0.14592 1.02897,0.0401 1.44154,0.41354 0.61003,0.55207 0.70782,1.14545 0.52359,3.17715 -0.40758,4.49488 1.19279,10.26873 3.6276,13.08773 1.70145,1.96994 4.92422,3.99055 7.88303,4.94249 6.0817,1.95669 18.3602,1.17454 25.99281,-1.65577 5.38751,-1.99779 10.81266,-5.50518 13.64535,-8.8218 0.57435,-0.67247 1.24979,-1.44713 1.50099,-1.72146 2.51332,-2.74483 5.83781,-9.69927 6.97106,-14.58262 0.49106,-2.11603 1.28933,-5.77099 1.77394,-8.12214 0.48462,-2.35115 1.25992,-6.10229 1.7229,-8.33589 0.46297,-2.23359 1.25323,-6.08092 1.75612,-8.54963 0.50289,-2.4687 1.26485,-6.12367 1.69324,-8.12214 0.4284,-1.99848 1.19183,-5.65344 1.69652,-8.12215 1.63265,-7.98606 2.47745,-12.09787 3.38141,-16.45803 2.06373,-9.95416 2.57343,-12.48067 2.81759,-13.96644 0.14185,-0.86322 0.54803,-2.54644 0.90261,-3.74047 0.55135,-1.85657 0.79903,-2.17096 1.71028,-2.17096 1.40349,0 1.68309,0.88294 1.12823,3.56285 -0.25145,1.21448 -0.87364,4.22799 -1.38265,6.69669 -0.50901,2.46871 -1.27309,6.12367 -1.69798,8.12215 -0.42488,1.99847 -1.19037,5.74963 -1.70107,8.33588 -0.51071,2.58626 -1.28074,6.33742 -1.71118,8.33589 -0.82904,3.84914 -1.98698,9.4252 -3.41772,16.45803 -0.47832,2.35115 -1.24873,6.1023 -1.71204,8.33589 -0.4633,2.23359 -1.24038,5.98473 -1.72684,8.33588 -1.81398,8.76738 -2.70365,12.45478 -3.50672,14.53437 -6.33102,16.39436 -19.93546,25.29627 -39.7985,26.04169 -2.62811,0.0986 -5.35548,0.0849 -6.06082,-0.0306 z m 57.15425,-5.36383 c -1.43338,-1.43337 0.10692,-2.90687 3.03865,-2.90687 1.21446,0 5.76943,-0.37574 10.12214,-0.83499 4.35272,-0.45924 12.1461,-1.23471 17.31863,-1.72328 8.91066,-0.84165 14.31124,-1.35866 35.58782,-3.40692 4.99618,-0.48099 13.07558,-1.25573 17.95421,-1.72166 27.78349,-2.6535 33.21898,-3.17394 53.32829,-5.10609 4.93742,-0.47439 13.01682,-1.24914 17.95422,-1.72166 4.93741,-0.47251 13.11299,-1.25656 18.16796,-1.74232 5.05496,-0.48576 13.03818,-1.25227 17.74047,-1.70335 4.7023,-0.45109 12.58933,-1.20786 17.52674,-1.68169 4.93741,-0.47384 13.11299,-1.25665 18.16795,-1.73957 11.30295,-1.0798 23.38221,-2.2384 35.48096,-3.40317 21.96018,-2.11417 26.81781,-2.57845 35.90843,-3.43205 5.29007,-0.49673 12.7598,-1.23814 16.59939,-1.64755 7.55313,-0.8054 8.40155,-0.67675 8.12826,1.23255 -0.14278,0.99742 -0.35211,1.05384 -6.5597,1.76793 -3.52673,0.4057 -7.95115,0.85064 -9.83207,0.98876 -1.88092,0.1381 -7.07482,0.62081 -11.54199,1.07266 -4.46719,0.45184 -12.4504,1.22684 -17.74048,1.72222 -5.29008,0.49537 -12.40765,1.19644 -15.81681,1.55794 -3.40917,0.36151 -8.31451,0.8129 -10.90078,1.0031 -2.58625,0.19021 -7.68397,0.65577 -11.32825,1.03459 -3.64428,0.37881 -10.56948,1.06697 -15.38932,1.52924 -8.2321,0.7895 -13.2037,1.26417 -35.90844,3.4284 -5.05496,0.48184 -13.03818,1.25069 -17.74047,1.70855 -4.70229,0.45786 -12.58932,1.21739 -17.52674,1.68784 -4.93741,0.47046 -13.0168,1.24054 -17.95421,1.7113 -4.93741,0.47077 -13.11299,1.24933 -18.16795,1.73016 -5.05498,0.48083 -12.94201,1.24492 -17.52674,1.69799 -4.58474,0.45306 -12.66413,1.2285 -17.95422,1.72317 -5.29008,0.49468 -12.40764,1.19477 -15.8168,1.55576 -3.40917,0.36101 -8.31452,0.81102 -10.90078,1.00007 -2.58626,0.18903 -7.49161,0.63761 -10.90077,0.99684 -3.40916,0.35925 -10.52673,1.06196 -15.81681,1.56159 -5.29008,0.49962 -13.17711,1.28514 -17.52674,1.7456 -9.24993,0.97921 -9.50196,0.98701 -10.17405,0.31491 z M 121.139,813.571 c -8.31102,-0.93962 -12.02733,-4.22746 -12.49528,-11.05465 -0.31241,-4.55799 -0.002,-5.69739 1.50255,-5.52385 1.12823,0.13008 1.16825,0.22939 1.43215,3.55367 0.32816,4.13365 0.77822,5.36639 2.52912,6.92733 2.57662,2.29708 4.75571,2.88114 10.66506,2.85857 10.0408,-0.0383 17.45575,-2.6547 22.87635,-8.0718 4.47244,-4.46956 5.87256,-7.79171 8.28923,-19.66832 0.47841,-2.35114 1.26119,-6.19847 1.7395,-8.54962 0.47831,-2.35115 1.24778,-6.10229 1.70992,-8.33588 0.46215,-2.23359 1.21474,-5.88856 1.67241,-8.12215 0.45768,-2.23359 1.23376,-5.98474 1.72462,-8.33589 1.33627,-6.40042 2.47242,-11.90247 3.44268,-16.67177 1.04002,-5.11226 2.46735,-11.94622 3.16108,-15.13505 0.5664,-2.60357 1.49996,-3.53571 2.6146,-2.61064 0.8181,0.67896 0.67102,2.68897 -0.61037,8.3411 -0.42642,1.88092 -1.19778,5.53589 -1.71413,8.12214 -0.51635,2.58627 -1.29043,6.33742 -1.72018,8.3359 -0.42975,1.99847 -1.20081,5.74962 -1.71347,8.33588 -0.51266,2.58626 -1.29661,6.43359 -1.74212,8.54962 -0.77391,3.67589 -1.33848,6.41497 -3.39228,16.45804 -3.13577,15.33395 -4.2214,19.90779 -5.39962,22.7491 -2.43824,5.87988 -7.52312,11.31609 -12.98401,13.88112 -5.00517,2.35098 -8.6278,3.32319 -14.10461,3.78527 -1.5295,0.12905 -3.26182,0.28799 -3.8496,0.35324 -0.58779,0.0652 -2.22291,-0.0119 -3.6336,-0.17136 z m 53.96952,-5.15416 c -0.86959,-0.50243 -0.98666,-1.81542 -0.21374,-2.39716 0.50598,-0.38082 7.90891,-1.20464 28.32063,-3.15159 11.35754,-1.08332 23.5209,-2.2501 35.26722,-3.38304 5.05496,-0.48756 13.13436,-1.2623 17.95422,-1.72167 19.00922,-1.81169 31.99319,-3.05445 53.22142,-5.09411 11.62775,-1.11722 24.6213,-2.36063 36.12216,-3.45669 5.05497,-0.48175 13.03818,-1.24922 17.74048,-1.70549 4.7023,-0.45625 12.63742,-1.2198 17.63361,-1.69677 19.05139,-1.81877 34.74324,-3.32304 53.43516,-5.12249 10.03009,-0.96559 22.0129,-2.11114 36.0153,-3.44307 5.05497,-0.48084 12.942,-1.27366 17.52674,-1.76185 9.6689,-1.02954 10.41519,-0.99728 10.62077,0.45913 0.20976,1.48609 -0.96679,2.16199 -3.7559,2.15774 -1.30697,-0.002 -5.83892,0.37155 -10.07098,0.83011 -4.23207,0.45855 -11.92674,1.2341 -17.09926,1.72343 -12.08297,1.14307 -28.86819,2.74982 -53.6489,5.13553 -22.1296,2.13048 -26.82706,2.57922 -35.90843,3.43028 -5.29008,0.49576 -13.08093,1.27702 -17.313,1.73615 -4.23206,0.45912 -8.46413,0.83218 -9.40459,0.82902 -0.94045,-0.003 -5.17252,0.37064 -9.40458,0.83068 -4.23207,0.46005 -11.92674,1.23676 -17.09926,1.72603 -5.17252,0.48925 -13.44428,1.27171 -18.3817,1.73878 -4.9374,0.46708 -11.67024,1.13273 -14.96184,1.47925 -3.2916,0.34651 -7.42749,0.73334 -9.19084,0.85964 -1.76336,0.12628 -6.86108,0.60087 -11.32826,1.05464 -4.46718,0.45377 -12.4504,1.22899 -17.74048,1.72271 -5.29007,0.49373 -12.40764,1.19305 -15.8168,1.55404 -3.40917,0.36099 -8.31452,0.81198 -10.90078,1.00218 -2.58627,0.19019 -7.68397,0.65576 -11.32826,1.03458 -3.64427,0.37882 -10.66565,1.07545 -15.60306,1.54807 -18.24348,1.74628 -22.67131,2.19327 -23.29773,2.35185 -0.35268,0.0892 -0.97787,-0.0322 -1.38932,-0.26991 z M 50.81833,803.72407 c 0,-0.95597 0.37343,-3.40864 0.82984,-5.45039 0.45642,-2.04173 1.22672,-5.63591 1.71179,-7.98706 0.48506,-2.35115 1.26101,-6.10229 1.72431,-8.33588 0.4633,-2.23359 1.23676,-5.98475 1.7188,-8.3359 1.43425,-6.99568 2.59802,-12.59834 3.41859,-16.45802 0.42489,-1.99848 1.19197,-5.74962 1.70462,-8.33589 0.9665,-4.87574 2.07634,-10.21026 3.42411,-16.45803 0.43111,-1.99847 0.90163,-4.33563 1.0456,-5.19369 0.31126,-1.85507 1.15379,-2.67532 2.35604,-2.29375 1.12116,0.35585 1.13376,1.70527 0.0591,6.32734 -0.83721,3.60064 -1.89842,8.64117 -3.48422,16.54943 -0.49504,2.4687 -1.25001,6.12367 -1.67771,8.12215 -0.4277,1.99847 -1.1955,5.74962 -1.70621,8.33588 -0.5107,2.58627 -1.28073,6.33741 -1.71117,8.33588 -1.02002,4.73585 -2.33247,11.07359 -3.45247,16.67178 -0.4939,2.4687 -1.2677,6.06862 -1.71956,7.9998 -0.45186,1.93119 -0.82263,3.85485 -0.82395,4.27481 -0.001,0.41997 -0.20272,1.48494 -0.44757,2.36663 -0.38602,1.39 -0.61296,1.60304 -1.70754,1.60304 -1.19117,0 -1.26235,-0.098 -1.26235,-1.73813 z m 8.69578,0.21999 c -0.15205,-0.39624 0.13182,-2.57326 0.63082,-4.8378 0.499,-2.26454 1.29862,-6.04101 1.77693,-8.39216 0.47832,-2.35115 1.26854,-6.19848 1.75606,-8.54962 0.48751,-2.35115 1.24116,-6.00612 1.67477,-8.12215 1.56303,-7.6277 2.65069,-12.89387 3.44333,-16.67178 0.44396,-2.11603 1.19823,-5.77099 1.67617,-8.12214 0.47793,-2.35114 1.24803,-6.10229 1.71133,-8.33589 1.06775,-5.14762 2.3633,-11.47675 2.9928,-14.62069 0.51749,-2.58457 1.55795,-3.49863 2.80466,-2.46396 0.70048,0.58135 0.59399,1.77254 -0.70574,7.89381 -0.90433,4.25903 -2.04172,9.75468 -3.36194,16.24429 -0.47832,2.35115 -1.24778,6.10229 -1.70993,8.33588 -0.46215,2.23359 -1.23162,5.98474 -1.70992,8.33589 -0.91304,4.48801 -2.10102,10.22165 -3.45431,16.67177 -0.44396,2.11604 -1.19824,5.771 -1.67617,8.12215 -3.22802,15.88002 -2.95078,14.92926 -4.40226,15.09734 -0.79075,0.0916 -1.25977,-0.0981 -1.4466,-0.58494 z m 66.49453,-1.39116 c -1.33891,-1.19631 -1.4385,-1.46835 -1.44394,-3.94441 -0.004,-2.07012 0.15994,-2.76539 0.74225,-3.13734 1.27466,-0.81422 2.22552,0.17325 2.37537,2.46684 0.11297,1.72903 0.29034,2.06727 1.28245,2.44558 0.63324,0.24147 1.96401,0.3177 2.95726,0.16939 2.22307,-0.33194 3.73797,-2.01558 5.17555,-5.75204 1.0392,-2.701 1.9598,-3.28031 3.07585,-1.93555 1.14715,1.38224 -1.51699,6.98359 -4.41232,9.27686 -1.58299,1.25383 -2.09714,1.41158 -5.03863,1.54597 -3.13348,0.14315 -3.3382,0.0939 -4.71384,-1.1353 z m -50.20736,-0.12303 c -0.34526,-0.55866 0.31723,-4.23206 3.23081,-17.91425 0.42557,-1.99847 1.19504,-5.65343 1.70993,-8.12214 0.51489,-2.46871 1.28435,-6.12367 1.70992,-8.12215 0.42557,-1.99847 1.19175,-5.65344 1.70262,-8.12214 0.51087,-2.46871 1.28921,-6.21985 1.72965,-8.33589 0.44044,-2.11603 1.19023,-5.72398 1.66622,-8.01768 2.91873,-14.06478 4.34936,-20.84066 4.55745,-21.5854 0.22433,-0.80288 2.22766,-0.64248 2.66956,0.21374 0.25095,0.48624 0.11463,1.94516 -0.38946,4.16795 -0.42655,1.88091 -1.18889,5.4397 -1.6941,7.90839 -0.5052,2.46871 -1.26674,6.12367 -1.69231,8.12215 -0.42557,1.99847 -1.19504,5.65344 -1.70992,8.12214 -0.51489,2.46871 -1.28436,6.12367 -1.70993,8.12215 -0.42557,1.99847 -1.17251,5.55726 -1.65986,7.90841 -0.48736,2.35115 -1.19696,5.71756 -1.5769,7.48092 -0.37995,1.76336 -0.9486,4.55268 -1.26367,6.19848 -0.31507,1.6458 -1.07397,5.30077 -1.68643,8.12215 -0.61247,2.82137 -1.29291,6.16756 -1.5121,7.43597 -0.21918,1.2684 -0.69799,3.33634 -1.06401,4.59541 -0.56718,1.95101 -0.81791,2.28923 -1.69704,2.28923 -0.56734,0 -1.16153,-0.21034 -1.32043,-0.46744 z m 8.98472,-1.37211 c -0.13591,-0.54153 0.17395,-2.99421 0.68859,-5.45039 0.51463,-2.45618 1.09697,-5.42762 1.29408,-6.6032 0.19711,-1.17557 0.63697,-3.2916 0.97745,-4.70228 0.3405,-1.4107 1.03418,-4.68093 1.54153,-7.26719 0.50735,-2.58626 1.27407,-6.33742 1.70382,-8.33589 0.42975,-1.99848 1.19922,-5.74962 1.70992,-8.33588 0.51071,-2.58627 1.28018,-6.33741 1.70993,-8.33589 0.42975,-1.99847 1.20081,-5.74963 1.71347,-8.33588 0.93045,-4.69394 1.7811,-8.78788 3.4197,-16.45804 0.47718,-2.23359 0.86626,-4.39405 0.86463,-4.80102 -0.004,-1.01621 2.01022,-1.49114 2.83332,-0.66805 0.55036,0.55037 0.52467,1.0637 -0.21139,4.22337 -0.46084,1.97826 -1.22862,5.52052 -1.70616,7.87167 -1.54084,7.58613 -2.69203,13.16804 -3.48237,16.8855 -0.42488,1.99848 -1.19036,5.74963 -1.70107,8.3359 -0.51071,2.58625 -1.28018,6.33741 -1.70993,8.33588 -0.42975,1.99848 -1.19922,5.74962 -1.70992,8.33588 -0.51071,2.58627 -1.28018,6.33741 -1.70993,8.33589 -0.42975,1.99847 -1.1987,5.74963 -1.70879,8.33588 -1.81955,9.22565 -1.96144,9.61833 -3.47528,9.61833 -0.47283,0 -0.89452,-0.39861 -1.0416,-0.98459 z m 93.55481,-9.9723 c -0.27566,-0.71836 0.18356,-3.6617 1.55858,-9.98968 0.43426,-1.99848 1.20901,-5.74963 1.72166,-8.3359 0.51266,-2.58625 1.29846,-6.43359 1.74623,-8.54962 1.29592,-6.12421 2.71318,-12.98627 5.07666,-24.58017 2.14509,-10.52256 2.71016,-13.23244 3.28939,-15.77489 0.34292,-1.50519 0.91192,-4.39065 1.26444,-6.41215 0.8677,-4.97579 2.12437,-6.72604 3.57461,-4.97861 0.54241,0.65357 0.48965,1.03958 -1.25906,9.21143 -0.42767,1.99848 -1.19701,5.74962 -1.70968,8.33588 -0.51266,2.58627 -1.29756,6.43359 -1.74422,8.54963 -0.44667,2.11603 -1.20508,5.77099 -1.68536,8.12214 -0.48029,2.35115 -1.272,6.19848 -1.75937,8.54963 -0.48736,2.35115 -1.23811,6.00612 -1.66832,8.12215 -1.89808,9.33582 -2.66921,13.05791 -3.40976,16.45803 -0.43527,1.99847 -0.99906,4.78779 -1.25288,6.19848 -0.88363,4.91119 -1.24318,5.771 -2.4133,5.771 -0.58765,0 -1.18154,-0.31148 -1.32962,-0.69735 z m 8.83922,-0.80467 c -0.57089,-0.68788 -0.44572,-1.63017 1.2769,-9.6125 0.43128,-1.99848 1.20317,-5.65344 1.71532,-8.12215 1.30928,-6.3111 2.39662,-11.52116 3.39018,-16.24429 0.46986,-2.23359 1.26293,-6.08092 1.76238,-8.54962 0.49947,-2.4687 1.25861,-6.12367 1.687,-8.12214 0.42839,-1.99848 1.19792,-5.65345 1.71007,-8.12215 0.51216,-2.46871 1.29594,-6.21986 1.74176,-8.33589 0.44582,-2.11604 1.08817,-5.1939 1.42743,-6.8397 0.86104,-4.17698 1.36972,-5.34352 2.33013,-5.34352 1.56381,0 1.85667,0.96531 1.18628,3.91021 -0.62506,2.74572 -1.67494,7.73112 -3.27263,15.54019 -0.48103,2.35115 -1.23765,6.00611 -1.68138,8.12215 -0.44372,2.11603 -1.22206,5.86718 -1.72964,8.33589 -0.50758,2.4687 -1.27338,6.12366 -1.70176,8.12215 -0.42839,1.99847 -1.19793,5.65343 -1.71008,8.12214 -1.31715,6.34902 -2.40102,11.54223 -3.39034,16.24428 -0.46996,2.23359 -1.15237,5.48591 -1.51648,7.22736 -0.87179,4.16963 -1.86814,5.30267 -3.22514,3.66759 z m -68.61849,-1.29692 c -2.73807,-1.44528 -3.80187,-2.76594 -4.94483,-6.13886 -1.39065,-4.10385 -1.03331,-9.56463 1.34532,-20.55842 0.43239,-1.99848 0.90471,-4.40306 1.0496,-5.34351 0.78604,-5.1022 4.06488,-14.63542 6.32215,-18.3817 4.49849,-7.4659 10.98718,-11.59126 18.64314,-11.85288 3.76003,-0.12849 4.58318,0.252 4.16341,1.9245 -0.24527,0.97722 -0.48262,1.04963 -4.25242,1.29725 -9.26523,0.60862 -15.2141,5.98443 -19.01219,17.18076 -2.94941,8.69449 -6.42964,27.27437 -5.90114,31.50434 0.63442,5.07772 3.06437,7.77377 7.43027,8.24394 3.04189,0.32757 3.71889,0.68761 3.71889,1.97773 0,0.97643 -0.14387,1.02763 -3.21868,1.14527 -2.78905,0.10672 -3.50232,-0.0266 -5.34352,-0.99842 z m 85.10605,-0.33627 c -0.75303,-0.55062 -0.74897,-0.70927 0.11752,-4.59541 0.96305,-4.31916 1.68648,-7.75235 5.21689,-24.75796 2.16877,-10.44669 2.68173,-12.84881 3.44279,-16.12196 0.44905,-1.93119 0.81644,-3.90092 0.81644,-4.37718 0,-1.64455 2.1767,-6.2961 3.77029,-8.05698 3.59855,-3.97636 10.35974,-4.11456 11.63916,-0.23791 0.66679,2.0204 0.32743,6.64578 -0.88464,12.05746 -0.97747,4.36423 -1.97514,9.07627 -3.40781,16.09534 -0.4799,2.35115 -1.23401,6.00611 -1.67581,8.12215 -0.44181,2.11603 -1.2021,5.77099 -1.68955,8.12214 -2.80566,13.53275 -2.84469,13.63536 -4.79024,12.59413 -0.99795,-0.5341 -0.99039,-0.32232 -0.15211,-4.25824 1.0047,-4.71733 2.18265,-10.34801 3.15289,-15.07113 0.84359,-4.10653 1.72575,-8.35506 3.48339,-16.77623 0.49072,-2.35115 1.24668,-5.90993 1.6799,-7.90841 1.24598,-5.74773 1.80469,-9.78011 1.51501,-10.93428 -0.35621,-1.41929 -1.87786,-1.95788 -3.94761,-1.39728 -3.24776,0.87966 -4.60649,3.28095 -6.13098,10.83539 -0.52192,2.58625 -1.31385,6.43358 -1.75985,8.54962 -0.446,2.11603 -1.21193,5.77099 -1.70205,8.12214 -0.49011,2.35115 -1.23931,5.90993 -1.66488,7.90841 -0.42557,1.99847 -1.19411,5.65344 -1.70786,8.12214 -0.51375,2.46871 -1.30149,6.06862 -1.75053,7.9998 -0.44903,1.93119 -0.81643,3.99236 -0.81643,4.5804 0,0.61951 -0.34772,1.25523 -0.82685,1.51165 -1.03465,0.55373 -0.99111,0.5566 -1.92708,-0.1278 z m -97.922,-1.67396 c -2.43794,-6.82051 -1.85736,-14.26581 2.64174,-33.8779 3.07389,-13.39942 7.25417,-21.30297 14.69748,-27.78814 4.56873,-3.98062 11.16652,-6.70111 17.61566,-7.26352 5.52086,-0.48146 7.82079,0.30862 6.74578,2.31731 -0.34478,0.64421 -1.21373,0.79788 -5.6626,1.00138 -5.36996,0.24562 -8.0042,0.9324 -12.43404,3.24174 -5.66848,2.95507 -10.78145,9.00603 -14.1412,16.7355 -2.22152,5.11084 -4.37454,13.80051 -6.93749,28.00002 -0.95284,5.27902 -0.96022,11.31822 -0.0177,14.46356 0.57871,1.93116 0.63403,2.63065 0.24514,3.09923 -0.62094,0.74819 -2.49346,0.79636 -2.7528,0.0708 z m 126.8378,-1.26107 c -0.72938,-0.72937 -0.65173,-2.12991 0.37444,-6.7542 1.10029,-4.9584 2.22234,-10.29735 3.41392,-16.2443 0.49466,-2.4687 1.24987,-6.12367 1.67827,-8.12214 1.05052,-4.9008 2.36224,-11.24129 3.44903,-16.67177 0.49405,-2.4687 1.17167,-5.68229 1.50582,-7.1413 0.33414,-1.459 0.60753,-3.24606 0.60753,-3.97123 0,-1.98021 -1.51769,-4.56493 -3.41935,-5.82339 -1.50753,-0.99764 -2.10819,-1.12008 -5.49489,-1.12008 -2.77947,0 -4.42883,0.2344 -6.13118,0.87133 -2.63225,0.98485 -3.46864,0.73733 -3.26364,-0.96585 0.12597,-1.04651 0.47948,-1.28223 3.29631,-2.19789 4.46033,-1.44992 9.21694,-1.42367 12.44787,0.0687 2.62842,1.21406 3.5154,2.11838 4.72656,4.81896 1.11281,2.48129 1.05221,5.23995 -0.25061,11.4092 -0.59471,2.81614 -1.18563,5.69736 -1.31314,6.4027 -0.12753,0.70535 -0.62048,3.10993 -1.09545,5.34352 -0.47498,2.23359 -1.21791,5.79238 -1.65095,7.90841 -1.38739,6.77924 -3.73192,18.1035 -5.08901,24.58017 -0.468,2.23359 -0.97708,4.78766 -1.13129,5.67571 -0.15702,0.90439 -0.62219,1.79759 -1.05746,2.03054 -0.9756,0.52213 -0.9841,0.5216 -1.60278,-0.0971 z m 8.2532,-1.61556 c -0.14769,-0.46534 0.10888,-2.4371 0.57016,-4.38168 0.46129,-1.94458 1.25674,-5.65162 1.76767,-8.23789 0.51093,-2.58626 1.28113,-6.3374 1.71158,-8.33588 1.0024,-4.65405 2.31314,-10.97977 3.45453,-16.67178 0.49504,-2.4687 1.25339,-6.12367 1.68524,-8.12214 2.50305,-11.58368 2.60146,-12.93816 1.25644,-17.29282 -0.72722,-2.35449 -1.30508,-3.27049 -3.33188,-5.28168 -3.51655,-3.48945 -6.42676,-4.55005 -12.42799,-4.52926 -3.00725,0.0105 -5.35559,0.26408 -7.01471,0.75769 -2.7626,0.82192 -3.85674,0.46708 -3.61817,-1.17345 0.22368,-1.5381 5.13719,-2.78608 11.02827,-2.8011 5.85701,-0.0149 9.49341,1.03352 12.73928,3.67294 3.82035,3.10658 5.27763,5.48016 6.30777,10.27394 0.71252,3.31577 0.71379,3.70937 0.0242,7.47884 -0.78322,4.28127 -2.00119,10.33948 -3.24931,16.16208 -0.98449,4.5927 -3.1438,14.99068 -5.14888,24.79391 -0.50494,2.46871 -1.28545,6.06862 -1.73449,7.99981 -0.44903,1.93119 -0.81642,3.96066 -0.81642,4.50993 0,0.54928 -0.23085,1.22952 -0.51298,1.51165 -0.81293,0.81293 -2.3885,0.61785 -2.69032,-0.33311 z m 14.46423,-1.52632 c -0.25383,-0.66147 0.0532,-2.5538 1.59171,-9.81081 1.2392,-5.84511 2.40933,-11.48963 3.41185,-16.45803 0.49813,-2.4687 1.2562,-6.12367 1.68459,-8.12214 0.84085,-3.92261 2.03277,-9.66856 3.414,-16.45803 1.47212,-7.23623 2.60498,-12.66276 3.43578,-16.45803 0.43748,-1.99847 1.01956,-4.91989 1.29349,-6.49202 0.31966,-1.83448 0.80344,-3.13477 1.35052,-3.62988 0.82495,-0.74657 0.87729,-0.74076 1.62287,0.17999 0.60904,0.75214 0.69822,1.28863 0.42569,2.56117 -0.37527,1.75229 -1.73973,8.34456 -2.98759,14.43418 -0.89355,4.36056 -2.2516,10.90615 -3.50334,16.88551 -1.93031,9.22085 -2.49864,11.96 -3.32608,16.03055 -1.17778,5.79398 -2.4942,12.07921 -3.44709,16.45803 -0.4349,1.99848 -0.90678,4.40306 -1.04863,5.34352 -0.14186,0.94046 -0.5426,2.71985 -0.89055,3.9542 -0.54723,1.94127 -0.77713,2.24428 -1.70281,2.24428 -0.5886,0 -1.18458,-0.29812 -1.32441,-0.66249 z m 8.87752,-0.77725 c -0.5079,-0.61199 -0.49528,-0.70269 1.25704,-9.03356 0.44509,-2.11603 1.18485,-5.6748 1.64391,-7.9084 0.45907,-2.23359 1.24997,-6.08092 1.75755,-8.54963 0.50757,-2.4687 1.27336,-6.12367 1.70175,-8.12214 0.87948,-4.1028 1.42315,-6.72637 5.13794,-24.79391 0.8604,-4.18472 1.31932,-6.35167 3.21388,-15.17559 0.80955,-3.77051 1.19446,-4.48855 2.40611,-4.48855 1.57883,0 1.54421,0.73393 -0.49395,10.47328 -0.44283,2.11603 -1.2192,5.86719 -1.72526,8.33589 -0.50607,2.4687 -1.26831,6.12367 -1.69389,8.12215 -1.31802,6.18945 -3.20062,15.23951 -5.11316,24.58017 -1.55835,7.61077 -2.64561,12.76506 -3.28195,15.55843 -0.34254,1.5037 -0.88315,4.19683 -1.20134,5.98475 -0.31818,1.7879 -0.78516,3.77975 -1.0377,4.42631 -0.49874,1.27683 -1.76086,1.56686 -2.57093,0.5908 z m 16.23468,-1.72153 c -0.37925,-0.45696 -0.30056,-1.43131 0.3366,-4.16794 0.45734,-1.96436 1.24965,-5.59142 1.76067,-8.06012 0.51101,-2.46871 1.2933,-6.21985 1.73842,-8.33589 0.44512,-2.11603 1.20339,-5.77099 1.68504,-8.12214 1.42478,-6.95504 2.59473,-12.58655 3.41915,-16.45803 0.87347,-4.10177 2.26386,-10.74759 3.44328,-16.45803 0.43703,-2.11603 1.17365,-5.67482 1.63694,-7.90841 0.46328,-2.23359 0.96079,-4.78011 1.10556,-5.65893 0.27781,-1.68636 1.38833,-2.64668 2.54663,-2.2022 0.90722,0.34813 0.86379,2.36572 -0.14425,6.70103 -0.44903,1.93118 -1.23836,5.5311 -1.75407,7.9998 -1.74155,8.33695 -2.53675,12.16759 -3.37213,16.24429 -2.01578,9.83706 -2.72657,13.26509 -3.45682,16.67178 -0.4284,1.99847 -1.20017,5.65344 -1.71506,8.12214 -0.51489,2.46871 -1.28379,6.12367 -1.70868,8.12215 -0.42488,1.99847 -1.20575,5.74962 -1.73528,8.33588 -0.52951,2.58627 -1.149,4.94276 -1.37663,5.23664 -0.55053,0.71079 -1.79459,0.67877 -2.40937,-0.062 z m 8.94222,-0.89698 c -0.46903,-0.56515 -0.44714,-1.1988 0.12995,-3.76109 0.71002,-3.15247 1.71308,-7.90252 3.26855,-15.47839 1.08415,-5.28033 2.41867,-11.66722 3.43887,-16.45804 0.42556,-1.99847 1.19279,-5.65344 1.70494,-8.12214 0.51214,-2.4687 1.29537,-6.21986 1.74049,-8.33589 0.44512,-2.11603 1.20339,-5.77099 1.68504,-8.12214 2.19794,-10.72918 2.66623,-12.95856 3.13357,-14.91802 0.5768,-2.41843 1.54696,-3.2994 2.63708,-2.39468 0.81344,0.67509 0.71241,1.92536 -0.67357,8.33559 -0.45751,2.11603 -1.23284,5.771 -1.72296,8.12214 -0.49012,2.35115 -1.23933,5.90994 -1.66489,7.90841 -1.00638,4.72589 -2.33771,11.11085 -3.43172,16.45803 -0.48102,2.35115 -1.24756,6.05529 -1.7034,8.23142 -0.45585,2.17613 -1.21906,5.8311 -1.69603,8.12215 -4.18785,20.11533 -4.36773,20.81239 -5.40998,20.96481 -0.47952,0.0701 -1.12569,-0.17835 -1.43594,-0.55216 z m -156.8576,-0.53784 c -2.65593,-1.35429 -3.14419,-2.49003 -3.1162,-7.24854 0.0233,-3.96845 0.47808,-6.71236 2.50025,-15.0867 0.36903,-1.52824 0.83362,-3.57109 1.03241,-4.53965 1.0054,-4.89831 3.14421,-9.89696 5.32466,-12.44433 3.245,-3.79106 9.52517,-4.13077 11.40112,-0.61673 0.87208,1.63358 0.6024,9.59685 -0.50052,14.77946 -3.31826,15.59259 -4.75504,19.80346 -7.83758,22.97017 -1.4589,1.49872 -4.61894,2.93578 -6.45266,2.93441 -0.48712,-3.7e-4 -1.54528,-0.33701 -2.35148,-0.74809 z m 5.69016,-3.49653 c 2.84099,-1.75936 4.49722,-6.25736 7.48765,-20.33489 0.99373,-4.67802 1.60941,-11.85147 1.1681,-13.6098 -0.39968,-1.59244 -1.47199,-2.03114 -3.62743,-1.48403 -3.34586,0.84927 -5.05886,3.93467 -7.30312,13.1541 -2.82777,11.61648 -3.16846,13.49887 -3.20016,17.68167 -0.0279,3.68485 0.0699,4.27466 0.79796,4.80916 1.15694,0.84941 3.1014,0.75952 4.677,-0.21621 z m 187.71476,1.71122 c -6.63032,-1.9615 -10.42582,-5.64121 -12.19312,-11.8212 -1.012,-3.53875 -1.06687,-6.43268 -0.20038,-10.568 0.63505,-3.0308 1.51379,-7.27605 3.15872,-15.25998 0.46018,-2.23359 0.95816,-4.7961 1.1066,-5.69448 0.14844,-0.89838 0.36174,-1.87274 0.47398,-2.16524 0.14606,-0.38061 -0.37761,-0.52391 -1.84185,-0.504 -1.98476,0.027 -2.04595,-0.009 -2.04595,-1.22744 0,-1.04217 0.2177,-1.30689 1.28244,-1.55935 3.09036,-0.73279 4.91594,-0.74242 5.77884,-0.0306 0.81328,0.67096 0.82627,0.82996 0.2499,3.05889 -0.33438,1.29314 -1.02437,4.46718 -1.5333,7.05345 -0.50894,2.58626 -1.27983,6.33741 -1.71309,8.33588 -2.55138,11.76868 -2.66028,12.43302 -2.36295,14.41571 0.96186,6.41419 4.59176,10.80425 10.48138,12.6764 3.8794,1.23316 7.34404,1.31733 12.91126,0.31366 6.01492,-1.08439 5.34523,-1.07971 5.90095,-0.0413 0.87685,1.63843 -0.0423,2.25306 -4.55759,3.04688 -5.50776,0.96835 -11.56371,0.95642 -14.89584,-0.0294 z m 58.13745,-6.60611 c -7.22545,-2.36581 -11.10088,-6.01922 -13.82452,-13.03261 -1.02955,-2.65106 -1.10213,-3.31994 -1.11911,-10.31579 -0.0184,-7.61071 0.24016,-9.72756 2.37688,-19.4504 4.03123,-18.3433 10.83144,-28.60526 22.94395,-34.62394 2.13151,-1.05914 4.15512,-1.92572 4.49694,-1.92572 0.3418,0 1.43667,-0.28762 2.43305,-0.63917 2.56946,-0.90655 9.83788,-1.92721 13.65362,-1.91731 13.18297,0.0342 22.26203,6.84043 24.01406,18.00236 1.16101,7.39635 -0.70722,24.3477 -2.75499,24.99764 -0.45595,0.14471 -1.08434,-0.0255 -1.45227,-0.39349 -0.5798,-0.57977 -0.57787,-0.95853 0.018,-3.57066 2.47934,-10.86865 2.31331,-20.41671 -0.45168,-25.97033 -1.28069,-2.57236 -4.85568,-6.22313 -7.40432,-7.56125 -4.85272,-2.54787 -12.59701,-3.17809 -20.51128,-1.66919 -8.21038,1.56536 -13.70141,4.14776 -18.70641,8.7975 -6.38521,5.93199 -10.03452,13.02161 -12.85689,24.97737 -2.4071,10.19688 -2.77478,12.86318 -2.79995,20.30537 -0.0227,6.69242 0.0579,7.48693 1.01804,10.0458 2.0119,5.36187 5.13366,8.54879 10.49937,10.71856 2.41279,0.97569 3.03379,1.03443 10.4733,0.99087 7.25222,-0.0424 8.20268,-0.13863 11.45496,-1.15897 10.79133,-3.38553 18.96289,-10.08978 23.54096,-19.31383 1.49444,-3.01101 3.04585,-7.49215 3.04803,-8.80398 0.004,-1.58975 1.37332,-2.73549 2.5312,-2.11582 1.1244,0.60175 1.11676,0.82254 -0.17843,5.14965 -3.77384,12.60838 -12.07284,21.699 -24.36618,26.69044 -0.94045,0.38185 -3.63316,1.16917 -5.98375,1.7496 -3.61385,0.89237 -5.26414,1.05238 -10.68704,1.03621 -5.49677,-0.0164 -6.84081,-0.15914 -9.40557,-0.99891 z m -53.86264,-1.4084 c -4.08675,-0.90746 -6.67017,-2.8668 -7.85205,-5.95524 -1.06892,-2.79327 -1.1372,-4.7686 -0.29925,-8.65641 0.33664,-1.56189 1.02979,-4.85965 1.54033,-7.32835 1.69529,-8.19752 2.61368,-12.5731 3.40951,-16.24429 0.43322,-1.99848 1.00765,-4.85537 1.2765,-6.34864 0.26886,-1.49328 0.59729,-2.99768 0.72984,-3.34311 0.19633,-0.51163 -0.0478,-0.57385 -1.31716,-0.33574 -1.72227,0.32311 -2.83123,-0.2703 -2.83123,-1.51499 0,-0.88329 1.53217,-1.54158 4.37162,-1.87825 3.56187,-0.42233 3.83665,0.0824 2.72063,4.99698 -0.33132,1.45902 -1.02287,4.67259 -1.53678,7.1413 -0.51391,2.46871 -1.28201,6.12367 -1.70689,8.12215 -0.42488,1.99847 -1.19373,5.74962 -1.70855,8.33588 -0.51482,2.58626 -1.31931,6.44912 -1.78775,8.58411 -0.69854,3.18372 -0.76634,4.19885 -0.37701,5.64469 1.37636,5.11141 6.70119,6.866 15.29448,5.03971 1.69762,-0.36079 3.36595,-0.54876 3.70742,-0.41773 0.84902,0.3258 1.19631,1.38419 0.72851,2.22013 -0.69406,1.24019 -11.15033,2.65099 -14.36217,1.9378 z m 57.18226,-5.93818 c -2.89991,-0.63555 -4.26525,-1.34628 -6.45703,-3.36124 -5.17064,-4.75354 -5.44589,-15.76819 -0.84466,-33.80091 4.87273,-19.09663 12.82123,-26.64388 30.91339,-29.35275 6.57733,-0.98479 12.97458,0.52462 16.41144,3.87222 4.31778,4.20566 5.26452,10.56972 3.29944,22.1791 -1.43878,8.50001 -1.66842,8.93817 -4.85064,9.2543 -1.35482,0.1346 -5.82968,0.62178 -9.94419,1.08264 -4.11452,0.46086 -9.59696,1.06209 -12.18322,1.33608 -2.58626,0.27398 -5.10533,0.6505 -5.59795,0.8367 -1.14997,0.43469 -1.88298,3.87458 -1.88298,8.83665 0,3.23932 0.10101,3.6827 1.05631,4.63804 0.91549,0.9155 1.30014,1.01831 2.8855,0.77123 3.23415,-0.50403 5.31449,-2.81683 6.77789,-7.53533 0.49306,-1.58966 1.21639,-3.05548 1.60745,-3.25736 0.82688,-0.4269 7.0204,-1.18071 13.00279,-1.58257 5.77646,-0.38804 6.44902,0.36135 4.56465,5.08609 -2.70579,6.78417 -7.51355,12.89471 -12.58159,15.9909 -7.72001,4.71632 -18.28235,6.73634 -26.1766,5.00621 z m 13.01637,-3.13332 c 7.6226,-1.47765 13.48037,-4.822 18.03757,-10.29807 1.86297,-2.23856 5.16847,-8.30249 5.16847,-9.48152 0,-0.31431 -0.71971,-0.37077 -2.20858,-0.17327 -1.21469,0.16115 -4.0892,0.45634 -6.38781,0.656 -4.61171,0.40058 -5.08302,0.55902 -5.08302,1.70884 0,1.09476 -1.6926,4.62903 -3.09581,6.46428 -0.64383,0.84207 -2.23308,2.06859 -3.53164,2.7256 -1.93217,0.97761 -2.74896,1.1573 -4.49706,0.98933 -3.87922,-0.37275 -5.67837,-3.28839 -5.58196,-9.04604 0.0695,-4.15319 1.35656,-10.56205 2.20729,-10.99118 0.70282,-0.35451 14.09103,-2.1013 15.99537,-2.08694 0.70535,0.005 4.4128,-0.41096 8.23876,-0.92505 6.32729,-0.8502 6.97256,-1.01525 7.13625,-1.82529 3.49902,-17.31891 2.25962,-24.44809 -4.71427,-27.11683 -4.93963,-1.89029 -15.98707,-0.93123 -22.2047,1.92767 -11.04808,5.07994 -16.30089,15.2216 -19.49345,37.63613 -0.95405,6.69814 -0.89745,9.55327 0.2688,13.56505 1.78649,6.14535 8.83972,8.38545 19.74579,6.27129 z m -3.0718,-35.51147 c -0.73107,-0.8078 -0.72675,-0.97426 0.1079,-4.16794 1.20101,-4.59563 2.76029,-7.8884 4.61269,-9.74081 3.06928,-3.06929 7.55984,-4.03791 10.8762,-2.34604 1.45399,0.74178 1.77572,1.18091 2.37474,3.24152 0.61211,2.10563 0.62746,2.88309 0.13145,6.66883 -0.30877,2.35693 -0.76805,4.56792 -1.02061,4.9133 -0.30291,0.41425 -2.41715,0.90543 -6.21202,1.44314 -7.60024,1.07693 -9.88718,1.07441 -10.87035,-0.012 z m 8.96485,-2.78746 c 5.88868,-0.47673 5.58927,-0.2906 6.19873,-3.85352 0.88403,-5.16812 -0.16527,-7.69269 -3.16204,-7.60773 -2.67086,0.0757 -5.39648,1.90796 -6.73257,4.52589 -0.76088,1.49081 -2.48426,6.4988 -2.49709,7.25631 -0.004,0.17911 0.71586,0.23469 1.59754,0.12349 0.88169,-0.1112 2.94962,-0.3112 4.59543,-0.44444 z m -66.66977,34.94625 c -1.72002,-1.85496 -1.7001,-2.141 1.0519,-15.07308 0.4253,-1.99847 1.19451,-5.65344 1.70941,-8.12214 0.51489,-2.46871 1.28663,-6.12368 1.71497,-8.12215 0.42834,-1.99847 0.99522,-4.71391 1.25965,-6.03429 0.75938,-3.79119 0.96098,-3.93376 5.62109,-3.97553 l 4.01499,-0.036 v 1.27825 c 0,1.43803 -0.84672,1.78391 -4.59543,1.87728 -1.96543,0.0489 -2.03053,0.0922 -2.03053,1.3485 0,0.71385 -0.36571,2.87797 -0.81269,4.80916 -0.77246,3.33726 -1.29479,5.77366 -3.45652,16.12195 -0.51572,2.4687 -1.30503,6.06862 -1.75405,7.99981 -0.44906,1.93119 -0.81645,3.99912 -0.81645,4.59541 0,0.99699 0.15189,1.08418 1.8887,1.08418 2.63145,0 3.24108,0.32164 3.24108,1.70993 0,1.43136 -0.59484,1.70992 -3.65124,1.70992 -1.95659,0 -2.46063,-0.1744 -3.38488,-1.1712 z m 9.15113,-7.19165 c -0.45805,-0.55194 -0.39867,-1.42574 0.34139,-5.0229 0.49275,-2.39509 1.303,-6.47075 1.80055,-9.05701 1.99244,-10.35697 2.15651,-10.9224 3.29459,-11.35511 0.57954,-0.22034 2.49,-0.40062 4.24545,-0.40062 2.56057,0 3.24475,0.13827 3.46003,0.69932 0.53021,1.38163 -0.48548,2.06572 -3.65103,2.45917 -2.97878,0.37022 -3.05636,0.4105 -3.05636,1.58678 0,1.16293 -0.79179,5.48903 -2.5749,14.06829 -0.4647,2.236 -0.84495,4.57875 -0.84495,5.20611 0,2.03536 -1.88857,3.17296 -3.01477,1.81597 z M -4.6473759,714.77743 c -0.688574,-0.69551 -0.679037,-1.42643 0.02625,-2.01176 0.308329,-0.25588 2.857186,-0.67125 5.664127,-0.92302 2.806945,-0.25178 9.0470489,-0.82551 13.8668989,-1.27494 4.81985,-0.44945 13.1878,-1.22197 18.59544,-1.71673 5.40764,-0.49475 13.55233,-1.28344 18.09931,-1.75262 8.62075,-0.88953 9.47323,-0.81169 9.47323,0.86495 0,1.16758 -0.91434,1.74349 -2.75725,1.7367 -0.95222,-0.003 -5.48245,0.37237 -10.06719,0.83531 -4.58474,0.46294 -12.66413,1.2407 -17.95422,1.72838 -5.29008,0.48767 -13.56184,1.26161 -18.38169,1.71989 -13.7138639,1.30392 -15.9536489,1.41126 -16.5649039,0.79384 z M 85.181,712.50998 c -0.6065,-1.58053 0.003,-2.09726 3.08567,-2.6167 5.40674,-0.91101 9.59502,-4.54731 10.80125,-9.37773 1.30284,-5.21732 1.35469,-5.34353 2.19532,-5.34353 1.40972,0 1.80771,1.41275 1.23689,4.39053 -1.09683,5.7218 -4.73777,10.26684 -9.92388,12.38812 -3.23694,1.324 -6.9928,1.60806 -7.39525,0.55931 z m 242.5024,-2.44754 c -1.66673,-0.93275 -0.24373,-2.8833 2.12102,-2.90735 1.94716,-0.0197 2.06581,-0.25536 3.39793,-6.74642 0.15031,-0.73221 0.49477,-0.96183 1.44292,-0.96183 1.75756,0 1.86126,0.82216 0.72566,5.7518 -0.93081,4.04055 -1.04358,4.27059 -2.23197,4.55173 -2.42283,0.57318 -4.75101,0.70636 -5.45556,0.31207 z m 20.48931,-2.42691 c -0.33878,-0.54815 -0.11238,-2.18293 1.0157,-7.33373 0.43765,-1.99848 1.02651,-4.77819 1.30856,-6.17716 0.28209,-1.39896 0.72907,-2.8898 0.99334,-3.31298 0.61429,-0.98357 1.83684,-0.98966 2.36021,-0.0118 0.4244,0.79305 0.22571,2.13098 -1.26608,8.52459 -1.24136,5.32029 -1.28689,5.18904 1.85249,5.33859 2.33439,0.1112 2.68788,0.23995 2.79928,1.01964 0.0701,0.4908 -0.1559,1.12754 -0.50224,1.41499 -0.86147,0.71497 -8.16811,1.17396 -8.56126,0.53781 z M -5.0494339,705.58721 c -0.556517,-1.45025 0.46215,-2.06676 3.970749,-2.40316 3.23774,-0.31044 9.970875,-0.93726 30.9504249,-2.88136 5.29008,-0.4902 13.36948,-1.27034 17.95422,-1.73363 10.83563,-1.09496 11.83027,-1.08922 12.19834,0.0704 0.46615,1.46869 -0.72403,2.22912 -3.74264,2.39126 -1.47659,0.0793 -6.53204,0.51558 -11.23433,0.9695 -4.7023,0.4539 -12.97406,1.2294 -18.3817,1.72332 -5.40764,0.49392 -13.48703,1.27362 -17.9542099,1.73267 -10.249468,1.05324 -13.395444,1.08316 -13.760854,0.13092 z M 85.181,703.96036 c -0.51965,-1.35419 0.0488,-2.13518 1.80726,-2.48293 2.05426,-0.40626 3.34609,-1.63634 4.14653,-3.94835 0.7575,-2.18797 1.82781,-2.87584 2.68277,-1.72415 1.29149,1.73976 -0.42062,5.79093 -3.18949,7.5469 -2.1424,1.35866 -5.0352,1.68184 -5.44707,0.60853 z m 29.07075,-0.13359 c -0.65454,-0.65455 -0.74708,-1.36518 -0.26651,-2.04672 0.29571,-0.41939 7.43999,-1.2367 27.88661,-3.19025 4.81985,-0.4605 12.89925,-1.23196 17.95421,-1.71433 5.05497,-0.48237 13.03818,-1.25353 17.74048,-1.71368 4.70229,-0.46014 12.68551,-1.2291 17.74048,-1.70879 5.05496,-0.47968 13.03818,-1.24639 17.74046,-1.70381 4.7023,-0.45741 12.7817,-1.23384 17.95422,-1.72541 5.17253,-0.49156 12.96338,-1.26828 17.313,-1.72603 9.95998,-1.04816 13.1803,-1.07694 13.5471,-0.12106 0.56756,1.479 -0.45518,2.06665 -4.18545,2.40483 -1.97486,0.17905 -7.43799,0.70623 -12.14028,1.17153 -4.70229,0.46529 -12.63717,1.2348 -17.63305,1.71 -4.99588,0.47519 -13.17146,1.25291 -18.16796,1.72825 -4.9965,0.47534 -12.93187,1.23887 -17.63416,1.69673 -4.70229,0.45786 -12.6855,1.22736 -17.74047,1.71001 -5.05497,0.48265 -13.03818,1.24795 -17.74048,1.70068 -4.70229,0.45272 -12.78169,1.22735 -17.95421,1.72138 -5.17253,0.49404 -12.64813,1.23622 -16.61246,1.64929 -6.15039,0.64086 -7.29496,0.66395 -7.80153,0.15738 z m 206.06489,-1.09435 c -0.59127,-1.54083 -0.0168,-2.20835 2.24711,-2.61102 l 2.21595,-0.39414 0.77517,-2.38449 c 0.82256,-2.53028 1.68168,-3.12683 2.83791,-1.9706 0.59657,0.59656 0.60278,0.8929 0.0565,2.69311 -0.3376,1.11252 -0.61589,2.43205 -0.61844,2.93227 -0.007,1.37643 -0.78271,1.76773 -4.16508,2.10098 -2.60129,0.25631 -3.13257,0.19823 -3.34913,-0.36611 z m 38.82259,-3.55906 c -0.74095,-0.31234 -0.6732,-1.43372 0.35673,-5.90435 1.42967,-6.20571 2.46076,-11.00709 2.75678,-12.83722 0.38576,-2.38469 0.92567,-3.21398 2.09244,-3.21398 1.90516,0 1.82001,0.84831 -1.48981,14.83951 -0.45686,1.93119 -0.83065,3.59615 -0.83065,3.69992 0,0.10374 1.13334,0.0859 2.51855,-0.0397 2.31148,-0.20959 2.54288,-0.15184 2.81399,0.70227 0.55705,1.75514 -0.16929,2.08389 -6.1875,2.80063 -0.82289,0.098 -1.73663,0.0769 -2.03053,-0.047 z m -289.08035,-1.6455 c -0.60201,-0.72537 -0.35691,-2.68723 0.74829,-5.98942 1.93303,-5.77563 7.09913,-10.14034 12.90603,-10.90401 2.87376,-0.37792 4.296,-0.0281 4.296,1.05644 0,1.13149 -1.22369,1.81122 -3.73277,2.07348 -1.51053,0.15788 -3.32114,0.71199 -4.52491,1.3848 -3.64574,2.03764 -6.70417,6.89789 -6.70417,10.6538 0,1.28577 -0.20431,1.9209 -0.67618,2.10197 -1.07946,0.41423 -1.74576,0.30557 -2.31229,-0.37706 z m 43.27859,-2.40927 c -0.64209,-0.65494 -0.7006,-1.93076 -0.10542,-2.29861 0.46392,-0.28672 10.06289,-1.34917 25.00621,-2.76779 23.37381,-2.21897 27.86325,-2.64954 35.69469,-3.42345 4.58473,-0.45307 12.66413,-1.22765 17.95421,-1.72131 5.29008,-0.49365 13.08093,-1.27319 17.313,-1.73232 4.23206,-0.45912 8.46413,-0.83218 9.40458,-0.82902 0.94047,0.003 5.17253,-0.36991 9.4046,-0.82906 4.23206,-0.45915 11.73436,-1.22278 16.67176,-1.69697 16.03869,-1.54036 16.45803,-1.54149 16.45803,-0.044 0,1.32199 -1.04381,1.70871 -5.81662,2.15492 -2.56117,0.23946 -8.40782,0.80743 -12.99256,1.26217 -4.58472,0.45472 -12.66412,1.23068 -17.95421,1.72433 -5.29008,0.49365 -13.08093,1.2732 -17.31299,1.73232 -4.23207,0.45913 -8.46413,0.83219 -9.4046,0.82903 -0.94045,-0.003 -5.17251,0.37063 -9.40458,0.83068 -4.23206,0.46005 -11.92673,1.23675 -17.09925,1.72602 -12.10139,1.14465 -25.1883,2.39977 -35.69469,3.42334 -4.58474,0.44666 -10.64429,1.02663 -13.46566,1.28884 -2.82138,0.26222 -5.80306,0.57556 -6.62596,0.69632 -0.91797,0.13471 -1.70269,0.009 -2.03054,-0.32547 z m 175.87727,-1.42824 c -0.39424,-0.39423 -0.7168,-0.88168 -0.7168,-1.08321 0,-0.90838 1.46408,-1.71021 3.12978,-1.7141 4.50255,-0.0105 9.71304,-4.22605 11.33663,-9.17187 0.50761,-1.54627 0.92292,-3.36387 0.92292,-4.03912 0,-1.40387 0.93248,-1.96406 2.16837,-1.30263 1.07499,0.57532 1.07486,2.50666 -4.3e-4,5.87262 -1.09288,3.42102 -2.48406,5.54263 -5.1819,7.90264 -3.58224,3.13366 -10.08767,5.10655 -11.65855,3.53567 z m -0.001,-8.55081 c -0.39349,-0.39359 -0.71552,-0.88051 -0.71552,-1.08203 0,-0.73674 1.37151,-1.70993 2.40978,-1.70993 0.58646,0 1.42118,-0.18993 1.85493,-0.42207 1.10275,-0.59018 2.57499,-3.10117 2.57499,-4.39181 0,-1.25697 0.9909,-1.78445 2.16837,-1.15428 1.10767,0.59281 1.05653,2.33489 -0.13783,4.6963 -1.69449,3.35021 -6.48227,5.73618 -8.15462,4.06382 z m 29.80331,-1.26148 c -0.81729,-2.12984 0.33614,-2.59467 7.52692,-3.0334 2.4687,-0.15063 7.85496,-0.64343 11.96948,-1.09513 9.67881,-1.06256 11.40669,-1.06654 11.73662,-0.0271 0.61476,1.93702 -0.7366,2.6251 -5.15555,2.6251 -1.25902,0 -5.70747,0.37105 -9.8855,0.82454 -11.79318,1.28008 -15.9029,1.45926 -16.19197,0.70594 z M 40.55906,677.94673 c 0,-0.59833 0.37275,-3.74834 0.82834,-7.00001 0.45559,-3.25167 0.90625,-7.04247 1.00147,-8.42402 l 0.17313,-2.51188 -2.55348,0.26689 -2.55347,0.26688 0.26486,-1.60233 c 0.14567,-0.88128 0.26696,-1.80721 0.26955,-2.05762 0.004,-0.43018 14.77446,-2.23454 15.15082,-1.85087 0.0911,0.0928 0.0645,1.05872 -0.059,2.14645 l -0.22455,1.9777 -2.62212,0.37345 -2.62212,0.37345 -0.10122,1.70992 c -0.0557,0.94046 -0.53049,5.12443 -1.05517,9.29772 l -0.95395,7.5878 h -1.13567 c -0.62462,0 -1.73682,0.12022 -2.47155,0.26717 -1.21622,0.24324 -1.33588,0.16973 -1.33588,-0.8207 z m 233.40938,-1.04953 c 0.009,-4.13698 1.80468,-8.07471 5.0691,-11.11856 2.93563,-2.73727 5.50984,-3.91618 9.23963,-4.23146 2.81508,-0.23797 3.22729,-0.17985 3.48483,0.49129 0.42573,1.10946 -0.38895,2.12431 -1.81076,2.25563 -3.90779,0.36095 -7.05481,1.8029 -9.4296,4.32063 -2.03379,2.15621 -2.76733,3.92912 -3.78053,9.13744 -0.18839,0.96838 -0.45329,1.17556 -1.503,1.17556 -1.23589,0 -1.27416,-0.0612 -1.26967,-2.03053 z m 103.22561,1.15506 c -0.47032,-1.48179 0.48057,-2.0317 3.98464,-2.3044 1.80897,-0.14077 7.04018,-0.6328 11.62492,-1.0934 4.58474,-0.46061 12.32724,-1.22879 17.20553,-1.70706 10.54024,-1.03338 22.98276,-2.25273 34.73346,-3.40384 4.70229,-0.46063 12.6855,-1.2395 17.74046,-1.73082 5.05497,-0.49131 12.84582,-1.25871 17.313,-1.70534 15.65646,-1.56532 18.1624,-1.76793 18.59091,-1.50308 0.54354,0.33592 0.56726,2.2199 0.032,2.55063 -0.40192,0.24841 -5.78544,0.84079 -21.61537,2.37842 -12.8014,1.24346 -25.51264,2.48789 -34.83973,3.41081 -9.46914,0.93696 -21.63859,2.1247 -35.05347,3.42122 -5.05496,0.48854 -12.65344,1.26657 -16.8855,1.72893 -10.21989,1.11654 -12.46558,1.10918 -12.83095,-0.0421 z M 52.94626,676.83444 c -0.005,-0.37693 0.281,-3.08991 0.63628,-6.02885 0.3553,-2.93894 0.91429,-7.61341 1.2422,-10.38772 0.32791,-2.77431 0.72149,-5.16948 0.87462,-5.32261 0.35478,-0.35478 4.95385,-0.87248 4.9436,-0.55648 -0.004,0.12994 -0.28932,2.06374 -0.63355,4.29733 -0.34424,2.23359 -0.62934,4.17867 -0.63356,4.32241 -0.008,0.25719 0.39577,0.22805 3.45658,-0.24984 l 1.54058,-0.24054 0.27912,-3.51907 c 0.41969,-5.29124 0.43777,-5.32633 2.91893,-5.66757 1.17505,-0.16162 2.28178,-0.12905 2.45938,0.0723 0.35184,0.39901 -0.006,4.2402 -1.28863,13.83188 -0.45588,3.40916 -0.82778,6.73352 -0.82644,7.38747 0.002,1.31525 -0.15033,1.40274 -3.16152,1.80736 l -2.09526,0.28155 0.27175,-2.92139 c 0.14947,-1.60677 0.3971,-3.83515 0.55031,-4.95194 l 0.27856,-2.03054 H 61.4397 59.1202 l -0.55425,4.80917 c -0.30483,2.64504 -0.68186,4.93088 -0.83784,5.07963 -0.15598,0.14877 -1.29352,0.36098 -2.52787,0.4716 -1.85518,0.16627 -2.24596,0.0823 -2.25398,-0.48421 z m 20.10385,-2.07465 c 10e-4,-0.41145 0.29706,-2.67175 0.65706,-5.0229 0.36001,-2.35115 0.83589,-6.29466 1.05753,-8.76337 0.22163,-2.46871 0.52193,-5.28631 0.66731,-6.26134 l 0.26434,-1.77277 2.3452,-0.29302 c 1.28986,-0.16115 2.43204,-0.20616 2.53818,-0.10006 0.20728,0.20727 -0.1912,3.92926 -1.6688,15.58746 l -0.93461,7.37405 h -2.46436 c -2.06299,0 -2.46396,-0.12184 -2.46185,-0.74809 z m 244.78968,0.10687 c -0.34695,-0.90414 0.0983,-1.84818 1.00782,-2.13685 0.42583,-0.13516 3.05309,-0.41294 5.83838,-0.6173 2.78527,-0.20435 8.04582,-0.68121 11.69009,-1.05968 3.64428,-0.37846 10.66566,-1.0763 15.60307,-1.55075 4.93741,-0.47446 12.82444,-1.23211 17.52674,-1.68369 4.70228,-0.45158 12.6855,-1.22104 17.74046,-1.70992 5.05497,-0.48889 13.03818,-1.25835 17.74048,-1.70994 4.7023,-0.45157 12.58933,-1.21106 17.52674,-1.68774 4.9374,-0.47668 13.11298,-1.26054 18.16795,-1.7419 5.05497,-0.48136 12.942,-1.24412 17.52673,-1.69504 4.58474,-0.45091 12.66414,-1.22558 17.95422,-1.72147 5.29008,-0.49589 12.24815,-1.17919 15.46243,-1.51842 3.21422,-0.33923 6.15824,-0.49624 6.54221,-0.34889 0.45198,0.17344 0.6523,0.65776 0.56812,1.37365 -0.18924,1.60987 3.69263,1.10614 -43.3056,5.61956 -4.7023,0.45157 -12.68551,1.22104 -17.74048,1.70992 -5.05496,0.48888 -13.03818,1.25835 -17.74047,1.70993 -4.70229,0.45158 -12.58932,1.21107 -17.52674,1.68774 -4.93741,0.47669 -13.11299,1.26055 -18.16795,1.7419 -5.05497,0.48136 -12.942,1.24413 -17.52674,1.69505 -4.58474,0.45091 -12.66413,1.22678 -17.95421,1.72416 -5.29008,0.49738 -13.17711,1.27973 -17.52673,1.73855 -9.72012,1.02533 -13.06522,1.07053 -13.40652,0.18113 z M 83.43556,673.04987 c 0.13086,-0.88169 0.55047,-4.20001 0.93247,-7.37405 0.382,-3.17406 0.92471,-7.59848 1.20602,-9.83207 l 0.51149,-4.06108 h 3.39047 3.39047 l 0.7659,2.99237 c 0.42125,1.64581 1.20309,4.72367 1.73743,6.8397 l 0.97154,3.84734 0.30254,-2.13741 c 0.1664,-1.17558 0.52721,-4.40078 0.80181,-7.16713 0.2746,-2.76635 0.66372,-5.13136 0.86472,-5.25558 0.20099,-0.12422 1.35417,-0.34297 2.5626,-0.48608 2.02166,-0.23943 2.17679,-0.19524 1.9421,0.55329 -0.14029,0.44742 -0.45329,3.08938 -0.69556,5.87099 -0.24228,2.78163 -0.72691,6.96435 -1.07695,9.29492 -0.35005,2.33056 -0.63645,4.80442 -0.63645,5.49743 0,0.69302 -0.14809,1.35155 -0.32909,1.46342 -0.181,0.11186 -1.69482,0.33797 -3.36403,0.50245 l -3.03494,0.29905 -0.21838,-1.22531 c -0.12011,-0.67392 -0.83821,-3.53371 -1.59579,-6.35508 -0.75757,-2.82138 -1.53038,-5.70688 -1.71734,-6.41222 -0.33069,-1.24754 -0.34135,-1.2359 -0.39138,0.42748 -0.0283,0.94046 -0.33307,3.5374 -0.67731,5.77099 -0.34423,2.23359 -0.62933,4.94965 -0.63355,6.03568 -0.008,1.94787 -0.0294,1.97819 -1.61072,2.23958 -3.3946,0.56109 -3.66297,0.45615 -3.39807,-1.32868 z m 65.06225,0.83084 c -0.91747,-0.31817 -8.36408,-4.59904 -11.66986,-6.70871 -3.25076,-2.07456 -3.49153,-2.93685 -3.80057,-13.61092 l -0.26667,-9.2108 1.45633,-1.43824 1.45633,-1.43826 11.35915,-0.76618 c 13.89153,-0.93697 14.26024,-0.93836 15.60237,-0.059 2.00024,1.3106 2.74508,3.12477 2.74683,6.69028 8.6e-4,1.788 0.20046,5.69989 0.44352,8.69309 0.61929,7.62649 0.7653,7.34882 -6.86723,13.05936 -6.36355,4.76111 -8.16423,5.58556 -10.4602,4.78935 z m 5.18697,-5.96829 c 1.20702,-0.87746 3.58474,-2.6534 5.28382,-3.94653 l 3.08923,-2.35115 -0.25938,-6.66194 c -0.30617,-7.86366 -0.62529,-10.54659 -1.27901,-10.75304 -0.50502,-0.15949 -11.07155,0.32772 -18.60482,0.85783 -3.36472,0.23679 -4.54954,0.47882 -4.87247,0.99535 -0.28624,0.45786 -0.24555,3.38043 0.12364,8.87976 l 0.55032,8.1973 4.2481,2.44848 c 2.33645,1.34667 5.14303,2.96068 6.23684,3.58671 2.18558,1.25087 1.97291,1.29945 5.48373,-1.25277 z m 0.82604,-10.07148 c -0.99081,-0.7245 -0.99874,-2.63476 -0.0154,-3.72129 2.10921,-2.33066 5.57941,0.61721 3.84416,3.26555 -0.75866,1.15785 -2.57314,1.37384 -3.82871,0.45574 z m -7.00111,-1.15888 c -0.51456,-0.47939 -0.93557,-1.24137 -0.93557,-1.69328 0,-1.02628 1.60383,-2.56488 2.6736,-2.56488 1.62878,0 2.45618,0.8172 2.45618,2.42593 0,2.54348 -2.33559,3.56379 -4.19421,1.83223 z m -6.82519,-0.64881 c -1.12825,-0.79027 -1.27541,-2.79548 -0.27832,-3.79257 0.97133,-0.97132 3.46418,-0.87503 4.0155,0.15511 1.53211,2.86278 -1.13582,5.45951 -3.73718,3.63746 z m -35.15191,14.72054 c -0.002,-1.02952 0.37942,-4.85355 0.84721,-8.49782 0.46779,-3.64429 0.96551,-7.92444 1.10605,-9.51147 0.24912,-2.81325 0.28544,-2.8855 1.4505,-2.8855 0.65725,0 1.79978,-0.12096 2.53897,-0.26879 l 1.34398,-0.2688 -0.24226,3.1543 c -0.13324,1.73486 -0.32924,3.73139 -0.43553,4.43674 -0.1454,0.96479 0.49453,0.22358 2.58354,-2.99238 1.52724,-2.35114 2.83598,-4.44993 2.9083,-4.66397 0.12499,-0.36994 5.48101,-1.19781 5.78469,-0.89411 0.0795,0.0795 -1.07403,1.90636 -2.56343,4.05969 -1.4894,2.15333 -2.90787,4.2646 -3.15217,4.69172 -0.24429,0.4271 -0.70434,1.09005 -1.02233,1.4732 -0.48953,0.58986 -0.46361,0.97362 0.16907,2.50362 0.41096,0.99383 1.13193,2.7688 1.60214,3.94437 0.47021,1.17557 1.228,2.97823 1.68398,4.0059 0.45598,1.02766 0.73485,1.96269 0.6197,2.07783 -0.11514,0.11514 -1.43698,0.3079 -2.93741,0.42834 l -2.72805,0.21899 -0.70333,-2.29683 c -0.38683,-1.26325 -1.13167,-3.53308 -1.65522,-5.04405 -0.91496,-2.64066 -0.96527,-2.6987 -1.29711,-1.49617 -0.18987,0.68806 -0.46968,2.94098 -0.62178,5.00648 -0.15211,2.0655 -0.4026,3.83335 -0.55665,3.92856 -0.15405,0.0952 -1.27897,0.30561 -2.49982,0.46757 l -2.21971,0.29445 -0.004,-1.87187 z m 73.53011,-6.55128 c 0,-0.83914 0.37123,-4.26542 0.82495,-7.61399 0.45372,-3.34856 0.95028,-7.752 1.10346,-9.78543 l 0.27853,-3.69714 1.78203,-0.23469 c 0.98012,-0.12907 2.75476,-0.35387 3.94365,-0.49954 l 2.16161,-0.26487 0.75859,5.90662 c 0.41722,3.24864 0.85209,6.19515 0.96637,6.54783 0.2987,0.92179 0.6131,0.2516 2.47427,-5.27438 2.83604,-8.42043 2.55013,-7.97754 5.14992,-7.97754 1.23822,0 2.86463,-0.12267 3.61426,-0.27259 l 1.36295,-0.27259 -0.27821,3.79931 c -0.15301,2.08962 -0.64611,6.3673 -1.09578,9.50596 -0.44966,3.13865 -0.81757,6.52798 -0.81757,7.53185 0,1.77706 -0.0423,1.83221 -1.60305,2.09019 -3.10149,0.51265 -3.52672,0.39523 -3.52672,-0.97381 0,-0.6865 0.39851,-3.975 0.88558,-7.3078 0.48707,-3.3328 0.81035,-6.13486 0.7184,-6.22681 -0.092,-0.092 -0.67316,1.32098 -1.29154,3.13986 -3.20908,9.43892 -4.02852,11.68094 -4.39737,12.03146 -0.32351,0.30741 -4.4647,0.87775 -4.4647,0.61489 0,-0.0393 -0.38347,-2.63764 -0.85216,-5.77408 -0.46869,-3.13644 -0.87544,-6.56827 -0.90389,-7.62629 -0.0658,-2.44636 -1.58542,7.81979 -1.63139,11.02106 -0.0354,2.4646 -0.0191,2.44965 -3.13165,2.86637 l -2.03054,0.27184 z m 24.79392,-0.72108 c 0,-0.0928 0.39877,-1.22413 0.88616,-2.51395 0.48738,-1.28981 1.24316,-3.30694 1.67951,-4.48251 0.91405,-2.46253 2.78418,-7.43456 3.61775,-9.61833 0.31412,-0.82291 1.04059,-2.74657 1.61439,-4.27482 l 1.04326,-2.77863 3.2326,-0.12411 3.2326,-0.1241 0.47192,3.11648 c 1.47405,9.73427 2.2665,14.88426 2.56676,16.68088 0.18589,1.11231 0.23815,2.12225 0.11613,2.24427 -0.12203,0.12203 -1.32158,0.22187 -2.66567,0.22187 -2.67355,0 -2.9521,-0.30405 -2.96513,-3.23656 l -0.006,-1.3129 -2.79608,0.33662 c -1.53783,0.18514 -2.96797,0.44285 -3.17807,0.5727 -0.2101,0.12986 -0.68854,1.29056 -1.0632,2.57934 -0.56072,1.92881 -0.8492,2.34408 -1.63109,2.34795 -0.52244,0.002 -1.67126,0.12395 -2.55295,0.26968 -0.88167,0.14572 -1.60305,0.18898 -1.60305,0.0961 z m 11.02278,-10.04849 c 0.9255,-0.24793 0.96171,-0.39964 0.68738,-2.87966 -0.55877,-5.05131 -0.76659,-4.89563 -2.92518,2.19122 -0.31576,1.03667 0.26778,1.21619 2.2378,0.68844 z m 10.49735,6.857 c 0.23854,-1.22073 1.05167,-7.82634 2.09917,-17.05293 l 0.5334,-4.69832 2.1374,-0.31614 c 1.17558,-0.17388 2.34665,-0.24177 2.6024,-0.15088 0.33064,0.11752 0.30631,1.13406 -0.0842,3.51829 -1.03376,6.3112 -0.88351,6.22344 4.58774,-2.67991 0.73817,-1.20124 1.07633,-1.35409 3.47746,-1.57182 1.46288,-0.13265 2.7229,-0.17805 2.80006,-0.10091 0.0772,0.0772 -0.79172,1.45776 -1.93081,3.06801 -1.13911,1.61024 -2.77599,4.00131 -3.63752,5.31348 -1.79508,2.73403 -1.87801,2.11518 1.31296,9.79745 0.92776,2.23359 1.59862,4.20535 1.4908,4.38169 -0.10782,0.17634 -1.33394,0.32061 -2.72471,0.32061 -2.77176,0 -3.11821,-0.31772 -4.19536,-3.84734 -0.25113,-0.82289 -0.8134,-2.48695 -1.24951,-3.69789 l -0.79291,-2.20171 -0.71153,5.14867 c -0.39135,2.83177 -0.77388,5.21103 -0.85009,5.28723 -0.0762,0.0762 -1.25648,0.26995 -2.62282,0.43054 l -2.48424,0.29197 z m 18.66311,-2.24645 c 0,-0.95958 0.3767,-4.58829 0.83709,-8.06382 0.4604,-3.47553 0.95761,-7.8087 1.10491,-9.62928 0.1473,-1.82056 0.43982,-3.41642 0.65004,-3.54634 0.43186,-0.26692 12.03591,-1.10083 12.25598,-0.88077 0.0782,0.0782 0.0187,0.91415 -0.13213,1.85767 l -0.27432,1.71548 -3.76444,0.29449 -3.76443,0.29449 -0.14338,2.51487 -0.14335,2.51487 3.37843,-0.26137 3.37845,-0.26137 -0.24326,1.81364 c -0.13379,0.99751 -0.32328,1.89365 -0.42107,1.99146 -0.0978,0.0978 -1.64249,0.30161 -3.43263,0.45294 l -3.25481,0.27513 -0.27193,2.39725 c -0.14956,1.31848 -0.36025,2.71795 -0.46821,3.10991 -0.13919,0.50538 0.0265,0.66834 0.56937,0.56025 0.42111,-0.0838 2.16031,-0.24906 3.86489,-0.36719 l 3.09924,-0.21476 -0.006,1.36445 c -0.003,0.75043 -0.14787,1.57759 -0.32061,1.83813 -0.17273,0.26053 -2.23773,0.70108 -4.58887,0.97902 -2.35115,0.27792 -5.09237,0.61561 -6.09162,0.75041 l -1.81703,0.2451 v -1.74466 z"
       style="fill:#000000;stroke-width:0.427481" />
  </g>
</svg>
