<?xml version="1.0" encoding="UTF-8" standalone="no"?>
<svg
   xmlns:dc="http://purl.org/dc/elements/1.1/"
   xmlns:cc="http://creativecommons.org/ns#"
   xmlns:rdf="http://www.w3.org/1999/02/22-rdf-syntax-ns#"
   xmlns:svg="http://www.w3.org/2000/svg"
   xmlns="http://www.w3.org/2000/svg"
   xmlns:sodipodi="http://sodipodi.sourceforge.net/DTD/sodipodi-0.dtd"
   xmlns:inkscape="http://www.inkscape.org/namespaces/inkscape"
   viewBox="0 0 539.904 551.03999"
   width="5.6240001in"
   height="5.7399998in"
   version="1.1"
   id="svg18"
   sodipodi:docname="logo-curve-logo-spaced-4.25in.svg"
   inkscape:version="1.0 (4035a4fb49, 2020-05-01)">
  <metadata
     id="metadata22">
    <rdf:RDF>
      <cc:Work
         rdf:about="">
        <dc:format>image/svg+xml</dc:format>
        <dc:type
           rdf:resource="http://purl.org/dc/dcmitype/StillImage" />
        <dc:title></dc:title>
      </cc:Work>
    </rdf:RDF>
  </metadata>
  <sodipodi:namedview
     inkscape:document-rotation="0"
     pagecolor="#ffffff"
     bordercolor="#666666"
     borderopacity="1"
     objecttolerance="10"
     gridtolerance="10"
     guidetolerance="10"
     inkscape:pageopacity="0"
     inkscape:pageshadow="2"
     inkscape:window-width="1920"
     inkscape:window-height="1017"
     id="namedview20"
     showgrid="false"
     inkscape:zoom="1"
     inkscape:cx="182.85661"
     inkscape:cy="306.70042"
     inkscape:window-x="-8"
     inkscape:window-y="-8"
     inkscape:window-maximized="1"
     inkscape:current-layer="g16"
     fit-margin-top="0"
     fit-margin-left="0"
     fit-margin-right="0"
     fit-margin-bottom="0"
     units="in" />
  <defs
     id="defs12">
    <marker
       id="DistanceX"
       orient="auto"
       refX="0"
       refY="0"
       style="overflow:visible">
      <path
         d="M 3,-3 -3,3 M 0,-5 V 5"
         style="stroke:#000000;stroke-width:0.5"
         id="path2" />
    </marker>
    <pattern
       id="Hatch"
       patternUnits="userSpaceOnUse"
       width="8"
       height="8"
       x="0"
       y="0">
      <path
         d="M8 4 l-4,4"
         stroke="#000000"
         stroke-width="0.25"
         linecap="square"
         id="path5" />
      <path
         d="M6 2 l-4,4"
         stroke="#000000"
         stroke-width="0.25"
         linecap="square"
         id="path7" />
      <path
         d="M4 0 l-4,4"
         stroke="#000000"
         stroke-width="0.25"
         linecap="square"
         id="path9" />
    </pattern>
    <marker
       style="overflow:visible"
       refY="0"
       refX="0"
       orient="auto"
       id="DistanceX-1">
      <path
         id="path853"
         style="stroke:#000000;stroke-width:0.5"
         d="M 3,-3 -3,3 M 0,-5 V 5" />
    </marker>
    <pattern
       y="0"
       x="0"
       height="8"
       width="8"
       patternUnits="userSpaceOnUse"
       id="Hatch-2">
      <path
         id="path856"
         linecap="square"
         stroke-width="0.25"
         stroke="#000000"
         d="M8 4 l-4,4" />
      <path
         id="path858"
         linecap="square"
         stroke-width="0.25"
         stroke="#000000"
         d="M6 2 l-4,4" />
      <path
         id="path860"
         linecap="square"
         stroke-width="0.25"
         stroke="#000000"
         d="M4 0 l-4,4" />
    </pattern>
  </defs>
  <desc
     id="desc14">ignite-logo.dxf - scale = 25.400000, origin = (0.000000, 0.000000), method = file</desc>
  <g
     inkscape:groupmode="layer"
     inkscape:label="0"
     id="g16"
     style="display:inline"
     transform="translate(89.192208,-287.40671)">
    <g
       id="g867"
       inkscape:label="0" />
    <path
       style="fill:#000000;stroke-width:0.345975"
       d="m 210.20016,776.895 c 0.12144,-0.31646 0.43965,-1.61026 0.70712,-2.8751 0.26747,-1.26483 0.58247,-2.54147 0.69998,-2.83695 0.17482,-0.43959 -0.0118,-0.51093 -1.02656,-0.39246 l -1.24022,0.14479 0.10496,-2.02937 0.10496,-2.02937 1.57596,-0.10269 c 1.54881,-0.10092 1.58307,-0.12931 1.98935,-1.64834 0.56546,-2.11416 0.56847,-2.10683 -0.79751,-1.94736 -1.34369,0.15686 -1.43374,-0.0971 -0.98885,-2.78864 0.20951,-1.26753 0.2491,-1.2974 1.71947,-1.2974 1.61663,0 1.51728,0.13261 2.07348,-2.76781 0.0912,-0.47571 0.39262,-1.66661 0.66976,-2.64643 0.50242,-1.77626 0.5085,-1.78186 2.06997,-1.90605 l 1.56607,-0.12455 -0.22927,1.56007 c -0.1261,0.85803 -0.4397,2.26068 -0.69691,3.11696 -0.62928,2.09502 -0.63558,2.07586 0.68245,2.07586 1.14169,0 1.16782,-0.0353 1.90286,-2.56495 0.40991,-1.41073 0.74529,-2.89466 0.74529,-3.29763 0,-0.81743 0.21783,-0.92556 2.36102,-1.17195 1.29345,-0.14871 1.46515,-0.094 1.2676,0.40397 -0.1257,0.3168 -0.44738,1.61086 -0.71485,2.87569 -0.26747,1.26484 -0.58209,2.54928 -0.69914,2.85429 -0.17185,0.44785 0.0361,0.5546 1.08038,0.5546 h 1.29319 l -0.21444,1.29742 c -0.11794,0.71356 -0.21616,1.56031 -0.21825,1.88165 -0.002,0.42445 -0.42078,0.64679 -1.52829,0.81287 -1.45294,0.21787 -1.54225,0.29913 -1.90286,1.73129 -0.20813,0.82648 -0.3784,1.55817 -0.3784,1.62599 0,0.0678 0.54493,0.0597 1.21092,-0.0181 1.34369,-0.15686 1.43373,0.0971 0.98885,2.78864 -0.20908,1.26492 -0.25171,1.2974 -1.70274,1.2974 -1.67594,0 -1.57162,-0.16499 -2.37559,3.75745 -0.2871,1.4006 -0.70151,2.76288 -0.92095,3.02729 -0.21944,0.26441 -1.00267,0.48074 -1.74052,0.48074 -1.60549,0 -1.63465,-0.16708 -0.6496,-3.7218 0.38058,-1.37335 0.69196,-2.5768 0.69196,-2.67436 0,-0.0976 -0.62274,-0.17738 -1.38391,-0.17738 -1.27284,0 -1.38594,0.0763 -1.40949,0.95144 -0.0141,0.52329 -0.36857,2.11909 -0.78776,3.54625 l -0.76216,2.59481 -1.67906,0.10728 c -1.44713,0.0925 -1.64857,0.0278 -1.45827,-0.4681 z m 8.68498,-11.74832 c 0.0988,-0.47572 0.26039,-1.25417 0.35915,-1.72989 0.16423,-0.791 0.0769,-0.86493 -1.02166,-0.86493 -1.0934,0 -1.2336,0.11647 -1.56155,1.29741 -0.55204,1.9878 -0.48423,2.16234 0.84016,2.16234 1.00607,0 1.23387,-0.14238 1.3839,-0.86493 z m 10.70425,7.1321 c -1.64522,-1.00325 -2.01375,-2.30853 -1.75113,-6.20233 0.30854,-4.57491 1.00411,-7.49911 2.18264,-9.17595 1.43878,-2.04713 2.78058,-2.70974 5.56423,-2.74773 2.69595,-0.0368 3.78361,0.42383 4.1301,1.74904 0.25668,0.98172 0.29639,3.4632 0.0592,3.70038 -0.0752,0.0752 -0.95131,0.2448 -1.94684,0.37687 l -1.81011,0.24011 v -1.05419 c 0,-2.24048 -0.98993,-2.82449 -2.32269,-1.37028 -0.80318,0.87634 -1.82901,6.11593 -1.82901,9.34182 0,2.16442 0.53356,2.88241 1.88915,2.54219 0.66138,-0.166 0.97017,-0.59303 1.33595,-1.84745 0.50607,-1.73558 1.00559,-2.06193 3.26193,-2.13113 0.71888,-0.022 1.12443,0.13045 1.12443,0.42284 0,1.14524 -1.22305,3.96795 -2.14188,4.94326 -1.75304,1.8608 -5.6759,2.47489 -7.74599,1.21255 z m 12.06191,-1.11737 c 0.10817,-0.45381 0.36147,-2.30415 0.56288,-4.11188 1.6276,-14.60716 1.40137,-13.83901 4.07571,-13.83901 1.75258,0 1.68815,-0.33875 0.98704,5.18964 -0.27751,2.18829 -0.63168,5.27076 -0.78702,6.84994 l -0.28245,2.87124 2.74257,-0.23923 2.74257,-0.23924 -0.2261,1.13048 c -0.12435,0.62177 -0.2261,1.32534 -0.2261,1.56348 0,0.28954 -1.11757,0.56638 -3.37326,0.8356 -1.85529,0.22143 -4.05708,0.49518 -4.89287,0.60834 -1.46509,0.19837 -1.51256,0.17613 -1.32297,-0.61936 z m 11.07902,-0.91161 c 0.1027,-0.333 0.59571,-1.69527 1.09561,-3.02727 0.49987,-1.33202 1.04045,-2.831 1.20127,-3.33109 0.16084,-0.50009 0.519,-1.43421 0.79597,-2.07585 0.27695,-0.64163 0.82057,-2.02289 1.20802,-3.06946 1.39046,-3.7558 2.10417,-5.71861 2.29593,-6.31404 0.1099,-0.34128 0.53938,-0.60677 0.98428,-0.60846 0.43411,-0.002 1.57828,-0.0979 2.54258,-0.21372 l 1.75329,-0.2107 0.78356,4.79788 c 0.43094,2.63884 1.09185,6.64341 1.46866,8.89906 0.37683,2.25564 0.63646,4.14352 0.57696,4.19528 -0.0595,0.0517 -1.00126,0.16496 -2.09278,0.25157 -2.17203,0.17237 -2.07736,0.25839 -2.50677,-2.27774 l -0.22707,-1.34116 -1.5813,0.21675 c -0.86971,0.1192 -1.94879,0.21673 -2.39795,0.21673 -0.48867,0 -0.81665,0.2047 -0.81665,0.50971 0,0.28034 -0.33526,1.19979 -0.74503,2.04322 -0.76067,1.56567 -1.47472,1.94475 -3.66326,1.94475 -0.66146,0 -0.81859,-0.14087 -0.67532,-0.60546 z m 9.20967,-9.20468 c -0.0141,-0.97901 -0.1408,-2.48062 -0.28157,-3.33691 l -0.25593,-1.55689 -0.44729,1.55689 c -0.24601,0.85629 -0.74206,2.31717 -1.10232,3.2464 -0.36027,0.92924 -0.65505,1.78964 -0.65505,1.91201 0,0.12237 0.62276,0.16309 1.38391,0.0905 l 1.3839,-0.13198 -0.0257,-1.78003 z m 7.40105,7.30183 c 0.10172,-0.42814 0.35895,-2.33534 0.57167,-4.23821 0.6791,-6.07536 1.43964,-12.09145 1.60183,-12.6708 0.12312,-0.43981 0.98605,-0.65319 3.9774,-0.98352 4.51391,-0.49846 5.49228,-0.24986 6.38017,1.62123 0.97102,2.04628 -0.0202,5.64385 -1.8631,6.76207 l -0.91249,0.55366 0.90169,0.34283 c 1.25836,0.47842 1.39788,1.083 1.134,4.91412 l -0.23157,3.36241 -1.69438,0.22476 c -0.93191,0.12362 -1.84966,0.12881 -2.03945,0.0116 -0.21599,-0.13349 -0.25893,-1.35391 -0.11482,-3.26295 0.21537,-2.85297 0.18403,-3.07441 -0.48581,-3.4329 -0.72814,-0.38969 -2.14543,-0.52706 -2.14543,-0.20795 0,1.3835 -1.16935,7.30548 -1.48171,7.50396 -0.23164,0.14718 -1.17756,0.27001 -2.10204,0.27291 -1.56836,0.005 -1.66851,-0.0469 -1.49596,-0.77314 z m 6.97678,-10.29057 c 1.20268,-0.45725 2.11423,-2.56256 1.59908,-3.69321 -0.27947,-0.61335 -0.64784,-0.80667 -1.53718,-0.80667 h -1.16965 l -0.32782,2.42184 c -0.35577,2.62816 -0.28411,2.73187 1.43557,2.07804 z m 7.79023,8.33306 c 0,-0.84153 0.30882,-3.95643 0.68627,-6.92201 0.37745,-2.96558 0.77906,-6.44286 0.89247,-7.7273 0.20106,-2.277 0.23036,-2.33532 1.17336,-2.33532 0.53192,0 1.45661,-0.0979 2.05486,-0.21755 l 1.08774,-0.21755 -0.19608,2.55288 c -0.10783,1.40408 -0.2677,3.01994 -0.35523,3.5908 -0.12108,0.78967 0.37938,0.2242 2.09238,-2.36425 1.23834,-1.8712 2.25154,-3.53103 2.25154,-3.6885 0,-0.25462 4.12692,-0.68052 4.45696,-0.45995 0.20315,0.13576 -2.51851,4.2574 -2.81359,4.26084 -0.1427,0.002 -0.25947,0.15835 -0.25947,0.3482 0,0.18984 -0.56183,1.12719 -1.2485,2.08299 l -1.24849,1.73781 1.30183,3.36612 c 0.716,1.85137 1.58045,4.0278 1.92099,4.83652 l 0.61917,1.47039 -1.10497,0.003 c -0.60773,0.002 -1.67728,0.0985 -2.37676,0.2141 -1.26852,0.20975 -1.27319,0.20595 -1.81095,-1.4742 -0.29653,-0.92648 -0.90875,-2.7703 -1.36048,-4.0974 l -0.82134,-2.41293 -0.395,2.26828 c -0.21726,1.24754 -0.39501,3.05382 -0.39501,4.01394 0,2.07216 -0.326,2.40673 -2.50832,2.5742 l -1.64338,0.12611 z m 15.048,-0.86921 c -0.79664,-0.68453 -1.00363,-1.1887 -1.13414,-2.76239 -0.17829,-2.15007 -0.19581,-2.1328 2.41524,-2.38298 l 1.62515,-0.15573 0.10472,1.21782 c 0.13783,1.60272 0.99693,2.16456 2.23387,1.46088 2.10165,-1.19561 1.53809,-2.96743 -1.42923,-4.49358 -2.4639,-1.26724 -3.6407,-2.8003 -3.6407,-4.7429 0,-3.63626 3.09967,-6.32171 7.3053,-6.32903 2.45667,-0.004 3.60693,0.79963 3.93664,2.75122 0.39607,2.34426 0.0668,2.78102 -2.09691,2.78102 -1.62218,0 -1.87955,-0.0909 -1.87955,-0.66366 0,-1.75508 -0.9069,-2.22677 -2.34485,-1.21959 -0.85397,0.59815 -1.05196,2.26569 -0.33646,2.83392 0.23786,0.18891 1.38847,0.85135 2.55685,1.47211 2.13973,1.13679 3.582,2.89476 3.5859,4.37083 0.003,1.2147 -1.17683,3.93363 -2.05978,4.74589 -1.30026,1.19609 -3.56941,1.95352 -5.85253,1.95352 -1.63261,0 -2.19999,-0.15892 -2.98952,-0.83735 z m 14.97262,-1.15044 c -1.08004,-0.66972 -2.00483,-2.69457 -1.97909,-4.33326 0.0459,-2.92462 1.25797,-9.14843 2.07046,-10.63172 1.67258,-3.05351 6.67382,-4.49027 9.33341,-2.68131 2.18012,1.48284 2.43612,3.88542 1.15185,10.81172 -0.70247,3.78846 -1.77979,5.54741 -4.04321,6.60127 -2.16604,1.00853 -5.11354,1.11378 -6.53342,0.2333 z m 4.93048,-2.85993 c 0.79513,-0.42553 1.23221,-1.87412 1.92016,-6.36424 0.54665,-3.56741 0.44563,-5.06317 -0.38862,-5.75555 -0.74905,-0.62164 -2.15595,-0.0962 -2.73366,1.02092 -0.78549,1.51901 -1.72835,9.3182 -1.26903,10.49748 0.39434,1.01249 1.29391,1.23142 2.47115,0.60139 z m 8.50889,2.14481 c -0.0897,-0.14506 0.0534,-1.9705 0.31799,-4.05653 0.26452,-2.08603 0.74349,-6.08607 1.06433,-8.88894 0.65191,-5.6956 0.35751,-5.26336 3.839,-5.63646 l 2.14768,-0.23014 0.20115,0.98369 c 0.22103,1.08095 1.13324,4.49315 2.20535,8.24918 0.64095,2.24565 0.69226,2.32116 0.70502,1.03792 0.007,-0.76114 0.28212,-3.42874 0.61014,-5.92799 l 0.59635,-4.5441 1.72752,-0.2046 c 0.95015,-0.11252 1.79672,-0.13542 1.88127,-0.0509 0.23814,0.23816 -1.80342,17.75896 -2.0975,18.00084 -0.0502,0.0413 -1.2149,0.18215 -2.58811,0.31297 l -2.49676,0.23784 -0.20225,-0.97125 c -0.11128,-0.53418 -0.51137,-2.13891 -0.88914,-3.56605 -0.37773,-1.42715 -0.93301,-3.52894 -1.23398,-4.67067 -0.30097,-1.14171 -0.59438,-2.23154 -0.65206,-2.42182 -0.0577,-0.19028 -0.11957,0.27678 -0.13756,1.03793 -0.0325,1.37824 -1.31868,10.94439 -1.48921,11.07703 -0.31415,0.24433 -3.37648,0.44683 -3.50923,0.23204 z m 17.28648,-3.91075 c 0.1178,-1.40508 0.51007,-4.73007 0.87164,-7.38887 0.36158,-2.65881 0.65743,-5.58183 0.65743,-6.49561 0,-1.46506 0.10486,-1.70126 0.88746,-1.9988 0.48811,-0.18558 1.42224,-0.33741 2.07585,-0.33741 1.16704,0 1.18843,0.0264 1.1911,1.47038 0,0.80872 -0.30709,3.88358 -0.6857,6.83301 -0.3786,2.94945 -0.78142,6.41352 -0.89513,7.69795 -0.18604,2.10066 -0.28229,2.33572 -0.95773,2.33915 -0.41299,0.002 -1.33776,0.10079 -2.05504,0.21934 l -1.30415,0.21554 z m 9.99345,1.11767 c -2.03392,-0.8904 -2.50043,-3.17784 -1.78953,-8.77435 0.77891,-6.13136 1.78379,-7.95346 5.10944,-9.2643 4.2419,-1.672 7.59032,0.003 7.59032,3.79688 0,1.31257 -0.0628,1.40108 -0.99468,1.40108 -0.54706,0 -1.48119,0.0973 -2.07585,0.21623 -1.05028,0.21006 -1.08117,0.18076 -1.08117,-1.02575 0,-2.20378 -2.28019,-2.50471 -3.36343,-0.44391 -0.5264,1.00138 -1.42563,6.58359 -1.46372,9.08604 -0.009,0.59735 0.26685,1.43603 0.61321,1.86374 0.56885,0.70249 0.74622,0.7392 1.8355,0.3797 1.09677,-0.36198 1.21347,-0.5282 1.2908,-1.83884 0.0467,-0.79248 0.16409,-1.56886 0.26075,-1.72528 0.0967,-0.1564 -0.32099,-0.28438 -0.92815,-0.28438 -1.09185,0 -1.10182,-0.0154 -0.9144,-1.41248 0.10417,-0.77686 0.24577,-1.46879 0.31459,-1.53764 0.27136,-0.27133 5.65574,-0.79898 5.86958,-0.57519 0.12538,0.13121 0.0788,1.16833 -0.10334,2.30474 -0.18223,1.13639 -0.44051,3.14503 -0.57394,4.46363 l -0.24264,2.39744 -1.38389,0.49761 c -1.651,0.59367 -6.97372,0.91094 -7.96945,0.47503 z m 13.12288,-2.72092 c 0.12698,-0.90386 0.37996,-3.20026 0.56214,-5.10313 0.31878,-3.32934 1.36017,-10.98772 1.51616,-11.14982 0.19701,-0.20473 4.86175,-0.72991 5.11161,-0.5755 0.15661,0.0968 0.28475,0.4282 0.28475,0.73648 0,0.30827 0.30207,1.58351 0.67126,2.83388 0.36919,1.25035 0.93904,3.24744 1.26637,4.43794 0.3273,1.19051 0.64355,2.11611 0.70279,2.05688 0.0592,-0.0593 0.43395,-2.43178 0.83276,-5.2723 0.3988,-2.84054 0.90921,-5.28172 1.13428,-5.42484 0.22504,-0.14312 1.09075,-0.26261 1.92379,-0.26553 l 1.51461,-0.005 -0.2034,1.29741 c -0.11189,0.71357 -0.36345,2.69861 -0.55903,4.41119 -0.19558,1.71258 -0.60711,5.23471 -0.91452,7.82698 l -0.55892,4.71321 -1.7806,0.21394 c -3.58454,0.43068 -3.57447,0.43475 -3.95449,-1.59644 -0.53503,-2.85951 -2.15713,-8.70209 -2.51666,-9.06454 -0.20447,-0.2061 -0.32311,0.24546 -0.31819,1.21091 0.004,0.84677 -0.25935,3.52463 -0.58595,5.95077 l -0.59376,4.41118 h -1.88294 -1.88289 l 0.23083,-1.64338 z m 17.16197,-1.42448 c 0,-0.97918 0.23166,-3.32277 0.5148,-5.20796 0.28315,-1.88519 0.66822,-5.17539 0.85567,-7.31158 0.18745,-2.13618 0.38393,-3.925 0.43662,-3.97518 0.0527,-0.0502 0.98332,-0.20108 2.06817,-0.33534 l 1.97237,-0.24412 -0.18707,2.54606 c -0.10293,1.40033 -0.48364,4.64787 -0.84611,7.21674 -0.36245,2.56885 -0.66224,5.37126 -0.66618,6.22755 -0.003,0.85629 -0.13328,1.7556 -0.28744,1.9985 -0.15413,0.24289 -1.08587,0.53702 -2.07055,0.65364 l -1.79028,0.21204 z m 9.53821,-2.67611 c 0.13539,-1.88341 0.5069,-5.23503 0.82554,-7.44806 l 0.57937,-4.0237 -1.40636,0.15208 c -0.77349,0.0836 -1.67881,0.2061 -2.01181,0.27208 -0.50986,0.10105 -0.60545,-0.14482 -0.60545,-1.55707 0,-0.9224 0.12988,-1.75735 0.28865,-1.85546 0.15873,-0.0982 2.58682,-0.34161 5.39572,-0.5411 2.80887,-0.1995 5.48139,-0.45667 5.93891,-0.57149 0.73378,-0.18418 0.83127,-0.0923 0.82708,0.78016 -0.009,1.90691 -0.35448,2.54583 -1.37625,2.54583 -0.52488,0 -1.41407,0.092 -1.97594,0.20432 l -1.02163,0.20432 -0.57304,4.55284 c -0.31518,2.50406 -0.66647,5.65466 -0.78061,7.00134 -0.11418,1.34667 -0.32297,2.63523 -0.46402,2.86345 -0.14106,0.2282 -1.07315,0.51166 -2.07136,0.62988 l -1.81495,0.21494 z m -364.495,2.47382 c -0.57281,-0.6902 -0.152147,-1.80153 0.776123,-2.05038 0.42184,-0.11309 1.543381,-0.20775 2.492305,-0.21035 0.948927,-0.002 4.607614,-0.30854 8.130419,-0.67987 3.522805,-0.37133 9.908094,-1.00016 14.189536,-1.39741 4.281443,-0.39725 10.898219,-1.01897 14.703949,-1.38162 3.805724,-0.36265 10.4225,-0.98819 14.703951,-1.39006 4.281437,-0.40191 10.785267,-1.04914 14.452947,-1.43832 6.98675,-0.74134 7.68946,-0.67554 7.68946,0.72013 0,0.97025 -0.75191,1.41081 -2.40453,1.40892 -0.8658,-8.1e-4 -4.45443,0.30036 -7.97472,0.66971 -3.5203,0.36933 -9.981392,1.00244 -14.35798,1.40692 -4.376579,0.40446 -10.993355,1.02854 -14.703941,1.38684 -3.710586,0.35831 -10.249521,0.97969 -14.530963,1.38085 -4.281441,0.40116 -10.664684,1.03429 -14.18498,1.40695 -7.625786,0.80728 -8.438177,0.82245 -8.981576,0.16769 z m 373.38644,-0.56804 c 0.10728,-0.45785 0.35662,-2.23367 0.55408,-3.94624 0.19744,-1.71258 0.62419,-5.41782 0.9483,-8.23387 0.48486,-4.21217 0.70058,-5.17963 1.2166,-5.45577 0.34497,-0.18465 2.57798,-0.43457 4.96221,-0.55541 l 4.33497,-0.21971 v 1.40483 1.40482 l -1.81637,0.21988 c -4.05642,0.49103 -4.41112,0.58526 -4.41499,1.17287 -0.003,0.31628 -0.10365,1.1794 -0.22565,1.91804 l -0.22184,1.34299 2.64748,-0.24809 2.64746,-0.24809 v 1.56521 1.56521 l -1.64338,0.2094 c -3.58008,0.45619 -3.8919,0.54752 -3.91284,1.14608 -0.0114,0.32438 -0.14506,1.34729 -0.2972,2.27314 l -0.27656,1.68338 3.06499,-0.14654 c 3.28514,-0.15706 3.23663,-0.18608 2.85748,1.70965 l -0.20751,1.03761 -3.68471,0.41132 c -2.02659,0.22623 -4.36935,0.50367 -5.20617,0.61655 -1.46965,0.19822 -1.51481,0.17687 -1.32635,-0.62726 z M 30.371692,749.56482 c -0.305478,-0.30549 -0.555418,-0.75877 -0.555418,-1.00731 0,-1.15979 -1.189048,-1.01273 37.884287,-4.68581 16.045154,-1.5083 22.372589,-2.12028 29.061919,-2.8108 3.80572,-0.39284 7.54226,-0.66121 8.3034,-0.59637 1.27972,0.10903 1.38391,0.19578 1.38391,1.15243 0,1.18731 -0.68848,1.4499 -3.97872,1.51755 -1.04658,0.0215 -4.78311,0.34064 -8.30341,0.70918 -3.52029,0.36854 -9.903534,0.99616 -14.184976,1.3947 -4.28145,0.39854 -11.05391,1.03664 -15.049924,1.41799 -3.996014,0.38136 -10.534947,1.00409 -14.530962,1.38386 -14.439451,1.37225 -18.346524,1.76977 -18.905686,1.92353 -0.312949,0.0861 -0.818937,-0.0935 -1.12442,-0.39895 z m 99.604408,-2.46161 c -2.32607,-0.38061 -5.97259,-1.47231 -7.39554,-2.21409 -2.38975,-1.24577 -5.10882,-4.13757 -6.31597,-6.71718 -0.9094,-1.94335 -1.09523,-2.8137 -1.25056,-5.85723 -0.20912,-4.09747 0.0367,-5.93128 0.83653,-6.23817 0.30777,-0.11811 0.83278,0.0325 1.16669,0.33469 0.49371,0.4468 0.57286,0.92705 0.42375,2.57137 -0.32986,3.63786 0.96537,8.31084 2.93595,10.59234 1.37704,1.59435 3.98533,3.22969 6.38,4.00013 4.92213,1.58362 14.85954,0.9506 21.03687,-1.34007 4.36029,-1.61688 8.75105,-4.45553 11.04364,-7.13978 0.46484,-0.54425 1.01151,-1.17121 1.21481,-1.39324 2.03411,-2.22148 4.72473,-7.84995 5.64192,-11.80222 0.39742,-1.71256 1.04349,-4.67065 1.4357,-6.57351 0.39223,-1.90287 1.0197,-4.9388 1.3944,-6.74652 0.3747,-1.80773 1.01428,-4.9215 1.42129,-6.91951 0.407,-1.998 1.02369,-4.9561 1.3704,-6.57353 0.34672,-1.61743 0.96459,-4.57552 1.37305,-6.57353 1.32136,-6.46339 2.00509,-9.79121 2.73669,-13.32005 1.67025,-8.05624 2.08277,-10.10103 2.28037,-11.30351 0.1148,-0.69863 0.44355,-2.06092 0.73052,-3.02729 0.44622,-1.50258 0.64668,-1.75704 1.38418,-1.75704 1.1359,0 1.36218,0.7146 0.91312,2.88354 -0.20351,0.98292 -0.70706,3.42186 -1.11903,5.41986 -0.41196,1.99801 -1.03036,4.9561 -1.37423,6.57354 -0.34387,1.61743 -0.96341,4.65337 -1.37673,6.74651 -0.41334,2.09315 -1.03655,5.12908 -1.38492,6.74651 -0.67097,3.11524 -1.60813,7.62815 -2.76608,13.32005 -0.38712,1.90287 -1.01063,4.9388 -1.38561,6.74652 -0.37497,1.80773 -1.00388,4.84364 -1.39759,6.74652 -1.46811,7.09574 -2.18815,10.08008 -2.83811,11.76315 -5.12391,13.26852 -16.13445,20.47314 -32.21028,21.07643 -2.12702,0.0798 -4.33437,0.0687 -4.90523,-0.0248 z m 46.25689,-4.34114 c -1.16009,-1.16007 0.0865,-2.35262 2.45928,-2.35262 0.9829,0 4.66939,-0.3041 8.19219,-0.6758 3.5228,-0.37167 9.83025,-0.99928 14.01655,-1.3947 7.21171,-0.68118 11.58258,-1.09961 28.80244,-2.75734 4.04358,-0.38928 10.58252,-1.0163 14.53095,-1.3934 22.48613,-2.14756 26.88526,-2.56877 43.16041,-4.13253 3.99602,-0.38394 10.53496,-1.01097 14.53096,-1.3934 3.99601,-0.38242 10.61279,-1.01697 14.70395,-1.41012 4.09115,-0.39314 10.55225,-1.0135 14.35797,-1.37858 3.80574,-0.36508 10.18897,-0.97756 14.18498,-1.36105 3.99603,-0.38349 10.61279,-1.01705 14.70395,-1.40789 9.14786,-0.87391 18.92402,-1.81161 28.71594,-2.7543 17.77313,-1.71107 21.70458,-2.08682 29.06192,-2.77767 4.28144,-0.40203 10.32695,-1.00208 13.43446,-1.33343 6.113,-0.65184 6.79966,-0.54771 6.57848,0.99755 -0.11556,0.80725 -0.28498,0.85291 -5.309,1.43084 -2.8543,0.32836 -6.43513,0.68846 -7.95742,0.80024 -1.52229,0.11177 -5.7259,0.50245 -9.34133,0.86814 -3.61545,0.3657 -10.07653,0.99293 -14.35797,1.39385 -4.28145,0.40093 -10.04194,0.96833 -12.80108,1.2609 -2.75917,0.29258 -6.72923,0.6579 -8.82238,0.81184 -2.09314,0.15394 -6.2189,0.53074 -9.16834,0.83733 -2.94943,0.30659 -8.55424,0.86354 -12.4551,1.23767 -6.66251,0.63896 -10.6862,1.02313 -29.06192,2.77472 -4.09115,0.38997 -10.55225,1.01222 -14.35797,1.38279 -3.80573,0.37056 -10.18897,0.98528 -14.18499,1.36603 -3.99602,0.38075 -10.53494,1.004 -14.53096,1.385 -3.99601,0.38101 -10.61279,1.01114 -14.70394,1.40028 -4.09116,0.38915 -10.4744,1.00756 -14.18498,1.37424 -3.71059,0.36669 -10.24951,0.99427 -14.53097,1.39463 -4.28143,0.40036 -10.04192,0.96696 -12.80107,1.25912 -2.75916,0.29218 -6.72923,0.65639 -8.82238,0.8094 -2.09314,0.15298 -6.06321,0.51604 -8.82236,0.80677 -2.75914,0.29075 -8.51964,0.85948 -12.80108,1.26386 -4.28145,0.40435 -10.66469,1.0401 -14.18499,1.41276 -7.48628,0.79251 -7.69026,0.79883 -8.2342,0.25487 z m -44.18104,-2.70941 c -6.7264,-0.76046 -9.73413,-3.42143 -10.11286,-8.9469 -0.25284,-3.68894 -0.002,-4.61109 1.21607,-4.47065 0.91311,0.10529 0.9455,0.18566 1.15908,2.87611 0.26559,3.34551 0.62984,4.3432 2.04691,5.60653 2.08534,1.8591 3.84895,2.3318 8.63159,2.31353 8.12637,-0.031 14.12753,-2.14853 18.51461,-6.53277 3.6197,-3.61738 4.75287,-6.30611 6.70876,-15.91824 0.38719,-1.90287 1.02072,-5.01664 1.40783,-6.91951 0.38712,-1.90287 1.00987,-4.93878 1.38391,-6.74651 0.37403,-1.80772 0.98313,-4.76581 1.35353,-6.57353 0.37041,-1.80773 0.99852,-4.84365 1.39579,-6.74652 1.08149,-5.18008 2.00102,-9.63308 2.78628,-13.49303 0.84172,-4.13753 1.99691,-9.66849 2.55837,-12.24931 0.45841,-2.10716 1.21397,-2.86157 2.11608,-2.11289 0.66213,0.54951 0.54308,2.17628 -0.49398,6.75074 -0.34512,1.52229 -0.96941,4.48039 -1.38731,6.57353 -0.4179,2.09315 -1.04439,5.12909 -1.3922,6.74653 -0.34781,1.61743 -0.97185,4.65336 -1.38678,6.74651 -0.41491,2.09315 -1.04938,5.20692 -1.40994,6.91949 -0.62636,2.97503 -1.08328,5.19186 -2.74549,13.32006 -2.53789,12.41028 -3.41653,16.11205 -4.37011,18.41162 -1.97334,4.75879 -6.08871,9.1585 -10.50839,11.23446 -4.05085,1.90274 -6.98278,2.68957 -11.41535,3.06355 -1.23787,0.10445 -2.6399,0.23308 -3.11561,0.28589 -0.47572,0.0528 -1.79908,-0.01 -2.94079,-0.13869 z m 43.67936,-4.17143 c -0.70378,-0.40664 -0.79853,-1.46929 -0.17298,-1.94011 0.40951,-0.30821 6.40095,-0.97495 22.92085,-2.55069 9.19205,-0.87676 19.03627,-1.82108 28.54297,-2.73801 4.09115,-0.3946 10.63008,-1.02162 14.53095,-1.3934 15.38482,-1.46627 25.89318,-2.47207 43.07392,-4.12284 9.41073,-0.9042 19.92685,-1.91054 29.23489,-2.79762 4.09116,-0.38989 10.55225,-1.01103 14.35798,-1.38031 3.80573,-0.36926 10.22789,-0.98722 14.27148,-1.37325 15.41894,-1.47199 28.11889,-2.68945 43.24689,-4.1458 8.1177,-0.78149 17.8158,-1.70862 29.14842,-2.7866 4.09115,-0.38916 10.4744,-1.03082 14.18499,-1.42592 7.82536,-0.83325 8.42936,-0.80714 8.59575,0.37159 0.16976,1.20274 -0.78246,1.74977 -3.03978,1.74633 -1.05778,-0.002 -4.72564,0.30071 -8.15079,0.67183 -3.42515,0.37112 -9.65271,0.9988 -13.83901,1.39483 -9.77916,0.92513 -23.36402,2.22552 -43.41988,4.15636 -17.91025,1.72428 -21.71206,2.08745 -29.06192,2.77625 -4.28145,0.40124 -10.58685,1.03353 -14.01201,1.40512 -3.42514,0.37158 -6.8503,0.67351 -7.61145,0.67095 -0.76113,-0.002 -4.1863,0.29997 -7.61145,0.67231 -3.42516,0.37233 -9.65272,1.00094 -13.83901,1.39693 -4.1863,0.39596 -10.88091,1.02924 -14.87694,1.40725 -3.996,0.37803 -9.44512,0.91676 -12.10913,1.19721 -2.664,0.28044 -6.01132,0.59352 -7.43845,0.69573 -1.42715,0.10221 -5.55291,0.48631 -9.16835,0.85356 -3.61545,0.36725 -10.07653,0.99466 -14.35798,1.39425 -4.28144,0.39959 -10.04193,0.96557 -12.80107,1.25773 -2.75916,0.29216 -6.72923,0.65717 -8.82238,0.8111 -2.09315,0.15394 -6.21889,0.53074 -9.16834,0.83733 -2.94944,0.30658 -8.63208,0.87039 -12.62809,1.2529 -14.76507,1.41332 -18.34867,1.77509 -18.85565,1.90344 -0.28543,0.0722 -0.79143,-0.0261 -1.12443,-0.21845 z M 75.13903,732.08321 c 0,-0.7737 0.30223,-2.75874 0.671618,-4.41119 0.369396,-1.65244 0.992826,-4.56133 1.385409,-6.4642 0.392576,-1.90287 1.020579,-4.93879 1.395543,-6.74651 0.374965,-1.80772 1.000953,-4.84367 1.391084,-6.74653 1.160787,-5.66184 2.102666,-10.19626 2.766782,-13.32004 0.343877,-1.61743 0.964701,-4.65336 1.379606,-6.74652 0.782222,-3.9461 1.680453,-8.26351 2.771249,-13.32004 0.348909,-1.61743 0.729719,-3.50897 0.846239,-4.20343 0.25191,-1.50138 0.9338,-2.16523 1.90683,-1.85641 0.90739,0.288 0.91759,1.38013 0.0478,5.12093 -0.67759,2.91412 -1.53646,6.9936 -2.819903,13.39402 -0.400652,1.998 -1.011676,4.95609 -1.357828,6.57354 -0.346152,1.61743 -0.967559,4.65335 -1.380894,6.7465 -0.413326,2.09316 -1.036538,5.12908 -1.384907,6.74651 -0.825538,3.83289 -1.887748,8.96224 -2.794202,13.49305 -0.399731,1.998 -1.025993,4.91154 -1.391699,6.4745 -0.365705,1.56299 -0.665782,3.11987 -0.666851,3.45976 -8.09e-4,0.33989 -0.164068,1.20181 -0.362234,1.91539 -0.312419,1.12498 -0.496089,1.2974 -1.38197,1.2974 -0.964054,0 -1.021662,-0.0793 -1.021662,-1.40673 z m 7.037791,0.17805 c -0.123059,-0.3207 0.106687,-2.08264 0.510544,-3.91541 0.403857,-1.83277 1.051018,-4.88919 1.43813,-6.79205 0.387121,-1.90287 1.026673,-5.01665 1.42124,-6.9195 0.394558,-1.90287 1.004512,-4.86096 1.355448,-6.57354 1.265017,-6.17335 2.145297,-10.43544 2.786807,-13.49304 0.35931,-1.71257 0.96977,-4.67065 1.35658,-6.57352 0.3868,-1.90286 1.01007,-4.93879 1.38504,-6.74653 0.86416,-4.16614 1.9127,-9.28852 2.42217,-11.83301 0.41882,-2.09178 1.2609,-2.83157 2.26991,-1.99417 0.56692,0.47051 0.48073,1.43458 -0.57118,6.38873 -0.73191,3.44698 -1.65243,7.8948 -2.72093,13.14706 -0.38712,1.90286 -1.00987,4.93879 -1.38391,6.7465 -0.37403,1.80773 -0.99679,4.84366 -1.38389,6.74653 -0.73896,3.6323 -1.70043,8.27272 -2.7957,13.49303 -0.35931,1.71258 -0.96977,4.67067 -1.356577,6.57353 -2.612546,12.85225 -2.388167,12.08277 -3.5629,12.21879 -0.639981,0.0742 -1.019574,-0.0794 -1.170782,-0.4734 z m 53.816289,-1.12592 c -1.08362,-0.96821 -1.16423,-1.18838 -1.16863,-3.19234 -0.003,-1.67543 0.12945,-2.23813 0.60073,-2.53917 1.03163,-0.65897 1.80119,0.14022 1.92247,1.99651 0.0915,1.39936 0.23498,1.6731 1.03793,1.97929 0.5125,0.19543 1.58953,0.25712 2.39341,0.13709 1.7992,-0.26865 3.02527,-1.63128 4.18874,-4.65532 0.84107,-2.18602 1.58614,-2.65487 2.4894,-1.56651 0.92842,1.1187 -1.22775,5.65206 -3.57104,7.50808 -1.28117,1.01477 -1.69729,1.14244 -4.07794,1.2512 -2.53603,0.11587 -2.70171,0.076 -3.81507,-0.91883 z m -40.63453,-0.0996 c -0.27943,-0.45213 0.25675,-3.42514 2.61481,-14.49861 0.34443,-1.61743 0.96718,-4.57551 1.3839,-6.57352 0.41672,-1.99801 1.03947,-4.9561 1.3839,-6.57354 0.34443,-1.61743 0.96452,-4.57551 1.37799,-6.57352 0.41346,-1.99801 1.0434,-5.03394 1.39986,-6.74651 0.35647,-1.71258 0.9633,-4.63262 1.34853,-6.48899 2.36223,-11.3831 3.52009,-16.86706 3.6885,-17.4698 0.18156,-0.6498 1.80292,-0.51999 2.16057,0.17298 0.2031,0.39354 0.0928,1.57429 -0.31521,3.37327 -0.34522,1.52228 -0.96221,4.40254 -1.37109,6.40053 -0.40887,1.99801 -1.02522,4.9561 -1.36964,6.57353 -0.34443,1.61743 -0.96719,4.57553 -1.3839,6.57353 -0.41672,1.99801 -1.03948,4.9561 -1.3839,6.57353 -0.34443,1.61743 -0.94896,4.49768 -1.34339,6.40055 -0.39443,1.90286 -0.96874,4.62741 -1.27623,6.05456 -0.30751,1.42714 -0.76774,3.68464 -1.02274,5.01664 -0.25499,1.332 -0.8692,4.2901 -1.36488,6.57353 -0.49569,2.28344 -1.0464,4.99162 -1.2238,6.01819 -0.17739,1.02656 -0.5649,2.70021 -0.86114,3.71922 -0.45903,1.57902 -0.66196,1.85275 -1.37347,1.85275 -0.45916,0 -0.94006,-0.17024 -1.06867,-0.37832 z m 7.27164,-1.11049 c -0.10999,-0.43827 0.14079,-2.42332 0.5573,-4.41118 0.41651,-1.98788 0.88782,-4.39276 1.04735,-5.3442 0.15952,-0.95143 0.51552,-2.66401 0.79108,-3.80572 0.27558,-1.14172 0.837,-3.78843 1.24761,-5.88158 0.41062,-2.09315 1.03115,-5.12909 1.37896,-6.74652 0.34781,-1.61744 0.97057,-4.65337 1.3839,-6.74652 0.41333,-2.09315 1.03609,-5.12907 1.3839,-6.74651 0.34781,-1.61744 0.97186,-4.65337 1.38677,-6.74651 0.75305,-3.79897 1.44151,-7.11234 2.76768,-13.32006 0.3862,-1.80772 0.7011,-3.55625 0.69978,-3.88563 -0.003,-0.82245 1.62694,-1.20683 2.2931,-0.54067 0.44542,0.44543 0.42463,0.86089 -0.17109,3.41812 -0.37297,1.60107 -0.99436,4.46794 -1.38085,6.37081 -1.24705,6.13971 -2.17875,10.65734 -2.8184,13.66601 -0.34387,1.61744 -0.9634,4.65337 -1.37673,6.74653 -0.41334,2.09314 -1.0361,5.12908 -1.38391,6.74651 -0.34781,1.61744 -0.97057,4.65337 -1.38389,6.74651 -0.41334,2.09315 -1.0361,5.12908 -1.38391,6.74652 -0.34781,1.61743 -0.97015,4.65337 -1.38298,6.74651 -1.47263,7.46663 -1.58746,7.78445 -2.81266,7.78445 -0.38268,0 -0.72397,-0.32262 -0.84301,-0.79687 z m 75.7171,-8.07092 c -0.2231,-0.5814 0.14856,-2.96354 1.26141,-8.08499 0.35146,-1.61744 0.97849,-4.65337 1.3934,-6.74653 0.41491,-2.09314 1.05089,-5.20692 1.41329,-6.9195 1.04883,-4.95652 2.19586,-10.51022 4.1087,-19.89356 1.73611,-8.51628 2.19343,-10.70947 2.66222,-12.76716 0.27754,-1.2182 0.73806,-3.55351 1.02336,-5.18957 0.70225,-4.02708 1.71933,-5.44362 2.89305,-4.02936 0.43899,0.52896 0.39629,0.84136 -1.019,7.45512 -0.34613,1.61744 -0.96878,4.65336 -1.38371,6.74651 -0.41491,2.09316 -1.05015,5.20693 -1.41165,6.91951 -0.3615,1.71258 -0.97531,4.67066 -1.36402,6.57353 -0.38871,1.90286 -1.02947,5.01663 -1.42391,6.91951 -0.39444,1.90286 -1.00205,4.86095 -1.35024,6.57353 -1.53617,7.5558 -2.16028,10.56821 -2.75963,13.32004 -0.35228,1.61743 -0.80857,3.87493 -1.014,5.01664 -0.71515,3.9748 -1.00614,4.67067 -1.95316,4.67067 -0.47561,0 -0.95627,-0.25209 -1.07611,-0.56439 z m 7.15388,-0.65125 c -0.46204,-0.55672 -0.36073,-1.31935 1.03344,-7.77972 0.34905,-1.61744 0.97377,-4.57553 1.38826,-6.57354 1.05966,-5.10778 1.93967,-9.32446 2.74379,-13.14706 0.38028,-1.80771 1.02214,-4.92149 1.42636,-6.91949 0.40424,-1.99801 1.01864,-4.95609 1.36535,-6.57352 0.34671,-1.61744 0.96951,-4.57554 1.38401,-6.57354 0.41452,-1.99801 1.04886,-5.03394 1.40967,-6.74652 0.36082,-1.71258 0.8807,-4.20359 1.15527,-5.5356 0.69687,-3.38057 1.10856,-4.3247 1.88585,-4.3247 1.26564,0 1.50267,0.78127 0.96009,3.16467 -0.50588,2.22221 -1.35558,6.25706 -2.64864,12.57721 -0.38931,1.90287 -1.00167,4.86095 -1.3608,6.57353 -0.35912,1.71258 -0.98905,4.74851 -1.39986,6.74652 -0.4108,1.998 -1.03059,4.95609 -1.37728,6.57354 -0.34672,1.61743 -0.96954,4.57551 -1.38404,6.57352 -1.06601,5.13847 -1.94322,9.34152 -2.74392,13.14704 -0.38035,1.80773 -0.93265,4.43994 -1.22733,5.84935 -0.70557,3.37463 -1.51195,4.29164 -2.61022,2.96831 z m -55.53528,-1.04964 c -2.21601,-1.16971 -3.07698,-2.23857 -4.00202,-4.96839 -1.1255,-3.32138 -0.83629,-7.74098 1.08881,-16.63863 0.34995,-1.61743 0.73222,-3.56355 0.84948,-4.32469 0.63617,-4.12938 3.28985,-11.84494 5.11673,-14.87693 3.64078,-6.0424 8.8923,-9.3812 15.08853,-9.59294 3.04313,-0.10399 3.70933,0.20395 3.36959,1.55756 -0.1985,0.7909 -0.3906,0.8495 -3.44162,1.04992 -7.49868,0.49257 -12.3133,4.84339 -15.38722,13.90497 -2.38706,7.03675 -5.20373,22.07407 -4.776,25.49753 0.51346,4.10958 2.4801,6.29159 6.01358,6.67211 2.46191,0.2651 3.00982,0.55651 3.00982,1.60064 0,0.79026 -0.11644,0.8317 -2.60499,0.9269 -2.25727,0.0864 -2.83454,-0.0215 -4.32469,-0.80805 z m 68.87922,-0.27215 c -0.60944,-0.44564 -0.60616,-0.57404 0.0951,-3.71923 0.77943,-3.49564 1.36492,-6.27424 4.2222,-20.03745 1.75526,-8.45487 2.17042,-10.39899 2.78637,-13.04805 0.36343,-1.56299 0.66077,-3.15715 0.66077,-3.54261 0,-1.33099 1.76168,-5.09565 3.05143,-6.52079 2.91243,-3.2182 8.38449,-3.33005 9.41997,-0.19255 0.53965,1.63519 0.265,5.37866 -0.71597,9.75851 -0.7911,3.53212 -1.59855,7.34574 -2.75805,13.02652 -0.3884,1.90286 -0.99873,4.86094 -1.3563,6.57353 -0.35757,1.71258 -0.9729,4.67065 -1.36741,6.57353 -2.27071,10.95251 -2.3023,11.03555 -3.8769,10.19285 -0.80768,-0.43226 -0.80156,-0.26086 -0.12311,-3.44633 0.81314,-3.8179 1.7665,-8.375 2.55174,-12.19759 0.68275,-3.32356 1.39671,-6.76203 2.81923,-13.57757 0.39716,-1.90287 1.00898,-4.78311 1.3596,-6.40055 1.00842,-4.65183 1.46059,-7.91538 1.22615,-8.84949 -0.2883,-1.14868 -1.51982,-1.58458 -3.19493,-1.13086 -2.62853,0.71194 -3.7282,2.65538 -4.96202,8.76945 -0.4224,2.09314 -1.06334,5.20692 -1.42431,6.9195 -0.36096,1.71258 -0.98085,4.67065 -1.37752,6.57353 -0.39666,1.90286 -1.00302,4.7831 -1.34745,6.40054 -0.34443,1.61743 -0.96643,4.57553 -1.38222,6.57353 -0.4158,1.99801 -1.05335,4.91154 -1.41677,6.47451 -0.36342,1.56297 -0.66077,3.23115 -0.66077,3.70707 0,0.50139 -0.28141,1.0159 -0.66919,1.22343 -0.83737,0.44815 -0.80214,0.45048 -1.55966,-0.10343 z m -79.25161,-1.35479 c -1.9731,-5.52008 -1.50322,-11.54581 2.13805,-27.41855 2.48781,-10.84461 5.87105,-17.24122 11.89518,-22.48989 3.69763,-3.22165 9.03744,-5.42343 14.25695,-5.87861 4.46822,-0.38967 6.32963,0.24977 5.45959,1.87548 -0.27904,0.52138 -0.98231,0.64575 -4.58293,0.81045 -4.3461,0.19879 -6.47808,0.75463 -10.0633,2.62365 -4.58769,2.39164 -8.72579,7.28889 -11.44495,13.54461 -1.79795,4.13637 -3.54047,11.16922 -5.61475,22.66137 -0.77117,4.27249 -0.77714,9.16022 -0.0143,11.70586 0.46837,1.56295 0.51314,2.12907 0.1984,2.50831 -0.50255,0.60554 -2.01804,0.64452 -2.22793,0.0573 z m 102.65416,-1.02064 c -0.59031,-0.5903 -0.52747,-1.7238 0.30305,-5.46639 0.8905,-4.01301 1.79862,-8.334 2.763,-13.14707 0.40035,-1.998 1.01156,-4.9561 1.35828,-6.57353 0.85022,-3.96638 1.91184,-9.09796 2.79142,-13.49303 0.39985,-1.998 0.94826,-4.59887 1.21871,-5.77969 0.27043,-1.18083 0.4917,-2.62716 0.4917,-3.21406 0,-1.60265 -1.22833,-3.69455 -2.76741,-4.71306 -1.22009,-0.80744 -1.70623,-0.90652 -4.44719,-0.90652 -2.24953,0 -3.58441,0.1897 -4.96218,0.70519 -2.13037,0.79708 -2.80729,0.59674 -2.64137,-0.78169 0.10195,-0.84699 0.38806,-1.03776 2.66781,-1.77883 3.6099,-1.17347 7.45959,-1.15223 10.07449,0.0556 2.12726,0.98258 2.84514,1.71448 3.82537,3.90015 0.90062,2.00819 0.85159,4.24087 -0.20284,9.23385 -0.48131,2.2792 -0.95956,4.61107 -1.06276,5.18193 -0.10321,0.57086 -0.50218,2.51697 -0.88659,4.32469 -0.38441,1.80772 -0.98569,4.68797 -1.33617,6.40054 -1.12286,5.48668 -3.02037,14.65179 -4.11871,19.89358 -0.37876,1.80771 -0.79078,3.87481 -0.91559,4.59354 -0.12708,0.73195 -0.50356,1.45485 -0.85584,1.64339 -0.78958,0.42258 -0.79646,0.42215 -1.29718,-0.0786 z m 6.67959,-1.30752 c -0.11953,-0.37662 0.0881,-1.97243 0.46145,-3.54625 0.37335,-1.57381 1.01713,-4.57405 1.43064,-6.66719 0.41351,-2.09315 1.03687,-5.12908 1.38524,-6.74652 0.81127,-3.76668 1.87211,-8.8863 2.79587,-13.49304 0.40066,-1.998 1.01441,-4.9561 1.36392,-6.57353 2.0258,-9.37506 2.10546,-10.47129 1.01688,-13.99567 -0.58856,-1.90556 -1.05624,-2.64692 -2.69661,-4.27464 -2.84606,-2.82413 -5.20139,-3.68251 -10.05839,-3.66569 -2.43387,0.009 -4.33446,0.21373 -5.67724,0.61323 -2.23586,0.66521 -3.1214,0.37802 -2.92831,-0.94971 0.18104,-1.24484 4.1577,-2.25487 8.92556,-2.26703 4.74027,-0.0121 7.68333,0.83647 10.31033,2.97264 3.09193,2.51426 4.27137,4.43528 5.10509,8.31505 0.57667,2.68357 0.5777,3.00211 0.0196,6.05288 -0.63389,3.46498 -1.61963,8.3681 -2.62978,13.08052 -0.79678,3.71703 -2.54439,12.13247 -4.16717,20.06656 -0.40866,1.99801 -1.04036,4.91154 -1.40378,6.47452 -0.36341,1.56297 -0.66075,3.20549 -0.66075,3.65003 0,0.44456 -0.18684,0.9951 -0.41518,1.22344 -0.65792,0.65792 -1.93308,0.50004 -2.17737,-0.2696 z m 11.7064,-1.2353 c -0.20543,-0.53535 0.0431,-2.06688 1.28823,-7.94023 1.00292,-4.73064 1.94995,-9.29895 2.76132,-13.32005 0.40315,-1.998 1.01669,-4.95608 1.3634,-6.57351 0.68053,-3.17471 1.64518,-7.8251 2.76306,-13.32005 1.19144,-5.85653 2.10831,-10.24841 2.7807,-13.32005 0.35407,-1.61743 0.82517,-3.98183 1.04686,-5.25421 0.25871,-1.48471 0.65025,-2.53707 1.09303,-2.93779 0.66765,-0.60422 0.71001,-0.59952 1.31344,0.14568 0.49292,0.60873 0.56509,1.04293 0.34453,2.07284 -0.30372,1.41819 -1.40803,6.75354 -2.41796,11.68207 -0.72318,3.52915 -1.8223,8.82672 -2.83538,13.66602 -1.56226,7.46275 -2.02223,9.67964 -2.69191,12.97408 -0.95321,4.68926 -2.01863,9.77611 -2.78984,13.32003 -0.35198,1.61745 -0.73389,3.56355 -0.84869,4.3247 -0.11482,0.76114 -0.43915,2.20127 -0.72076,3.20027 -0.44289,1.57113 -0.62896,1.81638 -1.37814,1.81638 -0.47637,0 -0.95872,-0.24129 -1.07189,-0.53618 z m 7.18488,-0.62906 c -0.41106,-0.49531 -0.40085,-0.56871 1.01737,-7.31117 0.36022,-1.71258 0.95893,-4.5928 1.33046,-6.40054 0.37155,-1.80771 1.01165,-4.92149 1.42245,-6.91951 0.41079,-1.998 1.03058,-4.95608 1.37729,-6.57351 0.71179,-3.32055 1.1518,-5.44389 4.1583,-20.06656 0.69636,-3.38684 1.06777,-5.14063 2.60111,-12.28212 0.6552,-3.05161 0.96672,-3.63274 1.94735,-3.63274 1.2778,0 1.24977,0.59399 -0.39977,8.47638 -0.35841,1.71257 -0.98675,4.74852 -1.39631,6.74652 -0.40959,1.998 -1.02649,4.9561 -1.37093,6.57353 -1.06672,5.00934 -2.59037,12.33386 -4.13825,19.89358 -1.26123,6.15965 -2.14119,10.3312 -2.6562,12.59197 -0.27722,1.21699 -0.71476,3.39663 -0.97228,4.84365 -0.25752,1.44701 -0.63546,3.05908 -0.83985,3.58237 -0.40365,1.03338 -1.42512,1.26811 -2.08074,0.47815 z m 13.13928,-1.3933 c -0.30694,-0.36983 -0.24326,-1.1584 0.27242,-3.37324 0.37014,-1.58983 1.01138,-4.52533 1.42498,-6.52334 0.41357,-1.99801 1.0467,-5.03394 1.40696,-6.74651 0.36024,-1.71258 0.97394,-4.67067 1.36376,-6.57353 1.15312,-5.62895 2.09999,-10.18672 2.76723,-13.32005 0.70693,-3.3197 1.83222,-8.69839 2.78676,-13.32004 0.3537,-1.71258 0.94988,-4.59283 1.32483,-6.40055 0.37496,-1.80771 0.7776,-3.8687 0.89477,-4.57996 0.22484,-1.36483 1.12362,-2.14205 2.06107,-1.78232 0.73425,0.28176 0.6991,1.91466 -0.11674,5.42337 -0.36342,1.56298 -1.00225,4.47651 -1.41963,6.47451 -1.4095,6.74738 -2.05308,9.84765 -2.72918,13.14706 -1.63144,7.96147 -2.2067,10.7359 -2.79772,13.49304 -0.34672,1.61743 -0.97134,4.57553 -1.38806,6.57353 -0.41672,1.99801 -1.03901,4.95609 -1.38289,6.57353 -0.34387,1.61743 -0.97585,4.65337 -1.40442,6.74652 -0.42855,2.09315 -0.92993,4.00034 -1.11415,4.23818 -0.44557,0.57527 -1.45243,0.54935 -1.94999,-0.0502 z m 7.23725,-0.72595 c -0.37961,-0.4574 -0.3619,-0.97023 0.10516,-3.04398 0.57465,-2.55139 1.38646,-6.39577 2.64535,-12.52718 0.87745,-4.27355 1.95751,-9.44268 2.7832,-13.32006 0.34442,-1.61742 0.96536,-4.57552 1.37987,-6.57352 0.41449,-1.998 1.04838,-5.03395 1.40864,-6.74652 0.36024,-1.71258 0.97394,-4.67067 1.36376,-6.57353 1.77886,-8.68349 2.15786,-10.4878 2.5361,-12.07366 0.46682,-1.95732 1.25201,-2.67031 2.13428,-1.93809 0.65834,0.54637 0.57658,1.55825 -0.54515,6.74627 -0.37027,1.71257 -0.99778,4.67067 -1.39444,6.57352 -0.39668,1.90287 -1.00304,4.78312 -1.34746,6.40055 -0.8145,3.82483 -1.89198,8.99239 -2.77741,13.32005 -0.3893,1.90286 -1.00969,4.90075 -1.37861,6.66197 -0.36894,1.76122 -0.98663,4.7193 -1.37266,6.57353 -3.38937,16.28002 -3.53495,16.84418 -4.37848,16.96753 -0.38809,0.0567 -0.91106,-0.14435 -1.16215,-0.44688 z m -126.95021,-0.43529 c -2.14954,-1.09608 -2.5447,-2.01527 -2.52205,-5.86649 0.0189,-3.2118 0.38693,-5.43254 2.02354,-12.21019 0.29867,-1.23685 0.67468,-2.8902 0.83557,-3.67408 0.8137,-3.96437 2.54471,-8.00996 4.30943,-10.07162 2.62628,-3.06824 7.70904,-3.34318 9.2273,-0.49915 0.70581,1.32211 0.48755,7.76706 -0.40508,11.96152 -2.68558,12.61962 -3.84842,16.02762 -6.34322,18.59054 -1.18074,1.21297 -3.73827,2.37603 -5.22236,2.37493 -0.39424,-3e-4 -1.25065,-0.27276 -1.90313,-0.60546 z m 4.60524,-2.82986 c 2.29931,-1.42392 3.63975,-5.06429 6.06001,-16.45772 0.80426,-3.78608 1.30255,-9.5918 0.94539,-11.01488 -0.32348,-1.28881 -1.19134,-1.64386 -2.93581,-1.20107 -2.70792,0.68734 -4.09431,3.18446 -5.91066,10.64606 -2.28861,9.40161 -2.56435,10.9251 -2.59,14.31038 -0.0226,2.98227 0.0566,3.45962 0.64581,3.89222 0.93636,0.68745 2.51008,0.6147 3.78526,-0.17499 z m 151.92395,1.38495 c -5.36614,-1.58751 -8.43797,-4.56562 -9.8683,-9.5673 -0.81905,-2.86403 -0.86346,-5.20619 -0.16217,-8.55305 0.51396,-2.45292 1.22516,-5.88875 2.55646,-12.35042 0.37243,-1.80772 0.77546,-3.88164 0.89561,-4.60873 0.12013,-0.72709 0.29276,-1.51568 0.3836,-1.75241 0.11821,-0.30804 -0.30561,-0.42401 -1.49067,-0.4079 -1.60634,0.0219 -1.65586,-0.007 -1.65586,-0.99341 0,-0.84346 0.17619,-1.05771 1.03792,-1.26204 2.50113,-0.59307 3.97864,-0.60087 4.67701,-0.0248 0.65822,0.54303 0.66874,0.67171 0.20226,2.47566 -0.27063,1.04658 -0.82906,3.61544 -1.24095,5.7086 -0.41191,2.09315 -1.03581,5.12908 -1.38647,6.74651 -2.06491,9.5248 -2.15305,10.06247 -1.91241,11.66712 0.77847,5.19123 3.71627,8.74426 8.48293,10.25945 3.13974,0.99804 5.94379,1.06616 10.44953,0.25386 4.86808,-0.87763 4.32608,-0.87385 4.77584,-0.0334 0.70967,1.32604 -0.0342,1.82348 -3.68861,2.46594 -4.45762,0.78373 -9.35891,0.77407 -12.05572,-0.0238 z m 47.05262,-5.34655 c -5.8478,-1.91473 -8.98432,-4.87156 -11.18865,-10.54774 -0.83325,-2.1456 -0.89199,-2.68694 -0.90573,-8.34892 -0.0149,-6.15961 0.19436,-7.87285 1.92369,-15.74187 3.2626,-14.84586 8.76625,-23.15121 18.56932,-28.02233 1.7251,-0.8572 3.36288,-1.55856 3.63952,-1.55856 0.27664,0 1.16275,-0.23278 1.96915,-0.5173 2.07955,-0.7337 7.96213,-1.55976 11.05034,-1.55174 10.66943,0.0277 18.01743,5.53619 19.4354,14.56992 0.93964,5.98612 -0.57237,19.70542 -2.2297,20.23144 -0.36902,0.11712 -0.8776,-0.0206 -1.17538,-0.31847 -0.46925,-0.46922 -0.46769,-0.77576 0.0146,-2.88985 2.00662,-8.79637 1.87224,-16.52393 -0.36556,-21.01867 -1.0365,-2.0819 -3.92986,-5.03659 -5.99257,-6.11958 -3.92747,-2.06208 -10.19519,-2.57213 -16.60048,-1.35093 -6.64493,1.26689 -11.08901,3.35692 -15.13973,7.12011 -5.16777,4.80097 -8.12128,10.53884 -10.40552,20.21504 -1.94814,8.25269 -2.24572,10.41061 -2.2661,16.43383 -0.0184,5.4164 0.0469,6.05943 0.82394,8.1304 1.6283,4.33956 4.15484,6.91883 8.49749,8.6749 1.95276,0.78967 2.45536,0.8372 8.47641,0.80195 5.86946,-0.0343 6.6387,-0.1122 9.27088,-0.938 8.7338,-2.74001 15.34732,-8.16599 19.05251,-15.63133 1.20949,-2.43692 2.46511,-6.06366 2.46687,-7.12536 0.003,-1.28664 1.11148,-2.21393 2.04859,-1.71241 0.91002,0.48701 0.90383,0.6657 -0.14442,4.16778 -3.05429,10.2044 -9.77096,17.56175 -19.72037,21.60149 -0.76114,0.30905 -2.94044,0.94625 -4.84286,1.41601 -2.9248,0.72223 -4.26044,0.85173 -8.64938,0.83864 -4.44873,-0.0133 -5.5365,-0.1288 -7.61225,-0.80845 z m -43.59287,-1.13987 c -3.30754,-0.73444 -5.39839,-2.3202 -6.35493,-4.81977 -0.86511,-2.26069 -0.92037,-3.8594 -0.24219,-7.00593 0.27246,-1.2641 0.83344,-3.93309 1.24664,-5.93109 1.37206,-6.63454 2.11534,-10.17584 2.75943,-13.14706 0.35063,-1.61743 0.81553,-3.92962 1.03312,-5.13816 0.2176,-1.20857 0.4834,-2.42614 0.59068,-2.7057 0.1589,-0.41408 -0.0387,-0.46444 -1.06602,-0.27173 -1.39389,0.26151 -2.29141,-0.21876 -2.29141,-1.22613 0,-0.71487 1.24004,-1.24766 3.5381,-1.52013 2.88274,-0.3418 3.10513,0.0667 2.2019,4.04423 -0.26815,1.18083 -0.82784,3.78168 -1.24377,5.77969 -0.41592,1.99802 -1.03757,4.9561 -1.38144,6.57353 -0.34387,1.61743 -0.96613,4.65337 -1.38279,6.74652 -0.41666,2.09315 -1.06776,5.21949 -1.44689,6.94741 -0.56535,2.57669 -0.62022,3.39828 -0.30513,4.56844 1.11394,4.13684 5.42351,5.55689 12.37835,4.07881 1.37394,-0.292 2.72418,-0.44413 3.00054,-0.33808 0.68715,0.26367 0.96822,1.12027 0.58961,1.79682 -0.56173,1.00373 -9.02435,2.14554 -11.6238,1.56833 z m 46.27955,-4.80597 c -2.34699,-0.51438 -3.45201,-1.08959 -5.22589,-2.72037 -4.18477,-3.8472 -4.40754,-12.76173 -0.68361,-27.35623 3.94366,-15.45555 10.37666,-21.56379 25.01926,-23.75618 5.32326,-0.79702 10.50077,0.42459 13.28234,3.13393 3.49452,3.40378 4.26075,8.55443 2.67034,17.95029 -1.16444,6.87936 -1.3503,7.23397 -3.92578,7.48982 -1.0965,0.10894 -4.71816,0.50324 -8.04817,0.87622 -3.33003,0.37299 -7.76715,0.85959 -9.8603,1.08134 -2.09315,0.22174 -4.13192,0.52647 -4.5306,0.67717 -0.93072,0.3518 -1.52397,3.13583 -1.52397,7.1518 0,2.6217 0.0818,2.98053 0.85491,3.75372 0.74094,0.74095 1.05225,0.82416 2.33533,0.62418 2.61751,-0.40792 4.3012,-2.27975 5.48558,-6.0986 0.39905,-1.28656 0.98447,-2.4729 1.30096,-2.63629 0.66923,-0.3455 5.68185,-0.95558 10.52361,-1.28082 4.67508,-0.31405 5.2194,0.29245 3.69432,4.11635 -2.18989,5.49065 -6.08097,10.43612 -10.18271,12.94197 -6.24807,3.81708 -14.79652,5.45195 -21.18562,4.0517 z m 10.53459,-2.5359 c 6.16924,-1.19591 10.91013,-3.90261 14.59843,-8.33458 1.50777,-1.81174 4.18302,-6.71949 4.18302,-7.67372 0,-0.25438 -0.58249,-0.30008 -1.78748,-0.14024 -0.98309,0.13043 -3.30953,0.36934 -5.16988,0.53093 -3.73241,0.3242 -4.11385,0.45243 -4.11385,1.38302 0,0.88603 -1.36988,3.74644 -2.50555,5.23177 -0.52107,0.68151 -1.80731,1.67418 -2.85828,2.20592 -1.56377,0.79121 -2.22482,0.93664 -3.63962,0.80069 -3.13959,-0.30168 -4.59569,-2.6614 -4.51767,-7.32126 0.0563,-3.36132 1.09791,-8.54823 1.78644,-8.89555 0.56881,-0.28691 11.40434,-1.70065 12.94559,-1.68902 0.57087,0.004 3.57144,-0.33261 6.66791,-0.74867 5.12089,-0.6881 5.64314,-0.82168 5.77562,-1.47728 2.83187,-14.01678 1.82878,-19.78667 -3.81543,-21.94657 -3.99781,-1.52987 -12.93888,-0.75368 -17.97102,1.56013 -8.94158,4.11137 -13.19286,12.31935 -15.77671,30.4602 -0.77215,5.42103 -0.72634,7.73179 0.21755,10.97866 1.44586,4.97364 7.15428,6.78663 15.98093,5.07557 z m -2.4861,-28.74065 c -0.59168,-0.65377 -0.58818,-0.7885 0.0874,-3.37325 0.97201,-3.7194 2.23399,-6.38436 3.7332,-7.88358 2.48407,-2.48407 6.11844,-3.26801 8.80248,-1.89872 1.17676,0.60035 1.43715,0.95574 1.92196,2.62347 0.4954,1.70415 0.50782,2.33339 0.10638,5.39731 -0.24989,1.90754 -0.6216,3.69697 -0.82601,3.97651 -0.24516,0.33526 -1.95628,0.73278 -5.0276,1.16797 -6.15113,0.8716 -8.00203,0.86956 -8.79774,-0.01 z m 7.25556,-2.25599 c 4.76591,-0.38583 4.52359,-0.23518 5.01684,-3.11878 0.71547,-4.18273 -0.13376,-6.22596 -2.55915,-6.15719 -2.16161,0.0613 -4.36756,1.54418 -5.44889,3.66295 -0.61581,1.20657 -2.0106,5.25971 -2.02099,5.87278 -0.003,0.14496 0.57938,0.18995 1.29295,0.1 0.71358,-0.09 2.38723,-0.25187 3.71924,-0.35971 z m -53.95812,28.2832 c -1.39208,-1.50128 -1.37595,-1.73279 0.85134,-12.19916 0.34421,-1.61743 0.96675,-4.57552 1.38348,-6.57353 0.41671,-1.99801 1.04132,-4.95609 1.38799,-6.57352 0.34666,-1.61744 0.80546,-3.81513 1.01947,-4.88376 0.61459,-3.06834 0.77775,-3.18373 4.54934,-3.21754 l 3.24947,-0.0291 v 1.03453 c 0,1.16385 -0.68528,1.44378 -3.71924,1.51934 -1.59069,0.0396 -1.64337,0.0746 -1.64337,1.0914 0,0.57774 -0.29598,2.32923 -0.65774,3.89221 -0.62518,2.70096 -1.04792,4.67282 -2.79748,13.04805 -0.4174,1.998 -1.05621,4.91153 -1.41961,6.47452 -0.36345,1.56297 -0.66079,3.23662 -0.66079,3.71922 0,0.8069 0.12293,0.87746 1.5286,0.87746 2.12972,0 2.62311,0.26031 2.62311,1.38391 0,1.15844 -0.48143,1.38389 -2.95508,1.38389 -1.58353,0 -1.99147,-0.14115 -2.73949,-0.94789 z m 7.40632,-5.82045 c -0.37071,-0.44671 -0.32266,-1.1539 0.27629,-4.0652 0.39881,-1.93843 1.05457,-5.237 1.45725,-7.33015 1.61255,-8.38225 1.74534,-8.83987 2.66643,-9.19008 0.46904,-0.17832 2.01524,-0.32423 3.43598,-0.32423 2.07237,0 2.6261,0.1119 2.80033,0.56598 0.42912,1.1182 -0.39292,1.67185 -2.95491,1.99029 -2.41083,0.29963 -2.47361,0.33223 -2.47361,1.28424 0,0.9412 -0.64082,4.44246 -2.08395,11.38594 -0.37611,1.80968 -0.68385,3.70574 -0.68385,4.21348 0,1.64729 -1.52848,2.56799 -2.43996,1.46973 z M 30.248743,660.09566 c -0.557286,-0.56291 -0.549568,-1.15446 0.02125,-1.62819 0.249541,-0.20709 2.312418,-0.54326 4.584171,-0.74703 2.271757,-0.20377 7.322085,-0.66811 11.222954,-1.03185 3.900869,-0.36375 10.673336,-0.98899 15.049924,-1.38941 4.376587,-0.40042 10.968362,-1.03873 14.648388,-1.41845 6.977067,-0.71993 7.667008,-0.65694 7.667008,0.70003 0,0.94496 -0.740006,1.41106 -2.231536,1.40557 -0.770664,-0.002 -4.437134,0.30138 -8.14772,0.67605 -3.710586,0.37467 -10.249512,1.00413 -14.530963,1.39883 -4.281442,0.39469 -10.976059,1.02107 -14.876928,1.39196 -11.099097,1.05532 -12.911832,1.14219 -13.406541,0.64249 z m 72.701167,-1.83513 c -0.49086,-1.27917 0.002,-1.69738 2.49734,-2.11778 4.37586,-0.73731 7.76557,-3.68029 8.74182,-7.58971 1.05443,-4.22256 1.09639,-4.32471 1.77675,-4.32471 1.14093,0 1.46304,1.14339 1.00105,3.55341 -0.8877,4.63084 -3.83444,8.3093 -8.03173,10.02613 -2.61977,1.07156 -5.65951,1.30145 -5.98523,0.45266 z m 196.26546,-1.98087 c -1.34894,-0.75491 -0.19726,-2.33356 1.71661,-2.35302 1.5759,-0.0159 1.67193,-0.20667 2.75006,-5.46011 0.12165,-0.5926 0.40044,-0.77844 1.16781,-0.77844 1.42245,0 1.50638,0.66541 0.5873,4.65513 -0.75334,3.27015 -0.8446,3.45633 -1.80641,3.68387 -1.96088,0.46389 -3.84516,0.57168 -4.41537,0.25257 z m 16.5827,-1.96418 c -0.27419,-0.44364 -0.091,-1.76673 0.82204,-5.93544 0.3542,-1.61744 0.83079,-3.86715 1.05906,-4.99939 0.2283,-1.13222 0.59006,-2.33881 0.80394,-2.6813 0.49717,-0.79604 1.48662,-0.80097 1.9102,-0.01 0.34348,0.64185 0.18268,1.72468 -1.02468,6.89924 -1.00467,4.3059 -1.04152,4.19967 1.49928,4.32071 1.88931,0.09 2.1754,0.1942 2.26556,0.82523 0.0567,0.39722 -0.12618,0.91255 -0.40649,1.1452 -0.69721,0.57864 -6.61073,0.95013 -6.92891,0.43527 z M 29.923344,652.6577 c -0.450408,-1.17374 0.374034,-1.6727 3.213663,-1.94496 2.620413,-0.25125 8.069769,-0.75855 25.049234,-2.33198 4.281442,-0.39674 10.820375,-1.02813 14.530962,-1.40308 8.769644,-0.88619 9.574641,-0.88155 9.872532,0.057 0.377272,1.18867 -0.585982,1.8041 -3.029046,1.93533 -1.195055,0.0642 -5.286603,0.41727 -9.092327,0.78465 -3.80573,0.36735 -10.500348,0.99499 -14.876935,1.39474 -4.376588,0.39975 -10.915514,1.03079 -14.530955,1.40231 -8.295244,0.85242 -10.841389,0.87664 -11.137128,0.10596 z m 73.026566,-1.31667 c -0.42057,-1.09599 0.0395,-1.72807 1.46268,-2.00951 1.66258,-0.32881 2.7081,-1.32435 3.35593,-3.19553 0.61307,-1.77081 1.4793,-2.32752 2.17125,-1.39542 1.04525,1.40804 -0.34042,4.68679 -2.58136,6.10796 -1.73392,1.09961 -4.07516,1.36117 -4.4085,0.4925 z m 23.52795,-0.10811 c -0.52974,-0.52976 -0.60464,-1.10489 -0.2157,-1.65648 0.23933,-0.33943 6.02144,-1.00091 22.56959,-2.58199 3.90086,-0.37269 10.4398,-0.99706 14.53095,-1.38746 4.09116,-0.3904 10.55225,-1.01452 14.35798,-1.38694 3.80572,-0.37241 10.26681,-0.99475 14.35797,-1.38298 4.09115,-0.38822 10.55225,-1.00875 14.35797,-1.37895 3.80572,-0.3702 10.34466,-0.99858 14.53096,-1.39643 4.1863,-0.39784 10.4917,-1.02647 14.01199,-1.39693 8.06095,-0.84832 10.66727,-0.87161 10.96413,-0.098 0.45935,1.19701 -0.36839,1.67262 -3.38742,1.94631 -1.59833,0.14492 -6.01982,0.57158 -9.82555,0.94816 -3.80572,0.37658 -10.22769,0.99937 -14.27102,1.38397 -4.04334,0.38459 -10.66011,1.01402 -14.70396,1.39873 -4.04383,0.38471 -10.46619,1.00265 -14.27192,1.37322 -3.80572,0.37056 -10.2668,0.99334 -14.35797,1.38397 -4.09116,0.39062 -10.55224,1.01001 -14.35797,1.37642 -3.80573,0.36639 -10.34466,0.99334 -14.53095,1.39316 -4.18631,0.39985 -10.23657,1.00052 -13.44504,1.33483 -4.97772,0.51868 -5.90406,0.53736 -6.31404,0.12738 z m 166.77534,-0.8857 c -0.47853,-1.24704 -0.0136,-1.78729 1.81866,-2.11319 l 1.79345,-0.31898 0.62737,-1.92986 c 0.66572,-2.04784 1.36104,-2.53065 2.29681,-1.59487 0.48283,0.48282 0.48786,0.72265 0.0457,2.17962 -0.27323,0.9004 -0.49846,1.96835 -0.50052,2.3732 -0.006,1.11399 -0.63347,1.43068 -3.37094,1.70039 -2.10532,0.20744 -2.5353,0.16043 -2.71057,-0.29631 z m 31.42045,-2.88047 c -0.59968,-0.25279 -0.54484,-1.16035 0.28871,-4.77859 1.15708,-5.02249 1.99157,-8.90841 2.23116,-10.3896 0.3122,-1.93001 0.74917,-2.60118 1.69348,-2.60118 1.54191,0 1.473,0.68657 -1.20576,12.01012 -0.36975,1.56298 -0.67227,2.91049 -0.67227,2.99447 0,0.084 0.91726,0.0695 2.03835,-0.0321 1.87075,-0.16963 2.05804,-0.12289 2.27746,0.56838 0.45083,1.42048 -0.13702,1.68655 -5.00776,2.26663 -0.66599,0.0793 -1.40551,0.0623 -1.64337,-0.038 z M 90.71106,646.135 c -0.48722,-0.58708 -0.28886,-2.17487 0.60562,-4.84745 1.56447,-4.67441 5.74557,-8.20692 10.44529,-8.82498 2.32583,-0.30587 3.4769,-0.0227 3.4769,0.85501 0,0.91576 -0.99037,1.46588 -3.02106,1.67814 -1.22252,0.12778 -2.68791,0.57623 -3.66216,1.12076 -2.95062,1.64914 -5.42592,5.5827 -5.42592,8.62248 0,1.04062 -0.16535,1.55466 -0.54725,1.7012 -0.87365,0.33526 -1.4129,0.24731 -1.87142,-0.30516 z m 35.02684,-1.94991 c -0.51966,-0.53006 -0.56702,-1.56263 -0.0853,-1.86034 0.37547,-0.23206 8.14424,-1.09194 20.23838,-2.24007 18.91722,-1.79589 22.55068,-2.14436 28.88893,-2.77072 3.71058,-0.36668 10.24951,-0.99357 14.53095,-1.39311 4.28145,-0.39953 10.58685,-1.03044 14.012,-1.40202 3.42515,-0.37158 6.85031,-0.67351 7.61145,-0.67096 0.76115,0.002 4.18631,-0.29938 7.61147,-0.67099 3.42514,-0.3716 9.49701,-0.98964 13.49302,-1.37342 12.98066,-1.24665 13.32004,-1.24757 13.32004,-0.0356 0,1.06994 -0.84479,1.38293 -4.70759,1.74405 -2.07284,0.19381 -6.80473,0.65349 -10.51532,1.02152 -3.71057,0.36803 -10.2495,0.99603 -14.53095,1.39557 -4.28144,0.39952 -10.58684,1.03044 -14.012,1.40202 -3.42516,0.37159 -6.8503,0.67352 -7.61146,0.67096 -0.76114,-0.002 -4.18628,0.29996 -7.61144,0.6723 -3.42516,0.37234 -9.65272,1.00094 -13.83901,1.39693 -9.79407,0.9264 -20.38575,1.94221 -28.88893,2.77062 -3.71059,0.3615 -8.61479,0.83089 -10.89822,1.0431 -2.28344,0.21222 -4.69661,0.46582 -5.36261,0.56356 -0.74295,0.10903 -1.37805,0.007 -1.64339,-0.26342 z m 142.34347,-1.15593 c -0.31907,-0.31906 -0.58013,-0.71357 -0.58013,-0.87667 0,-0.73519 1.18493,-1.38414 2.53304,-1.38729 3.64406,-0.009 7.86109,-3.42027 9.17512,-7.4231 0.41083,-1.25145 0.74695,-2.7225 0.74695,-3.269 0,-1.13619 0.75468,-1.58958 1.75494,-1.05426 0.87003,0.46563 0.86992,2.02872 -3.5e-4,4.75291 -0.8845,2.76875 -2.01044,4.48584 -4.19389,6.39587 -2.89923,2.53619 -8.16429,4.13292 -9.43567,2.86154 z m -8.1e-4,-6.92045 c -0.31846,-0.31855 -0.57909,-0.71263 -0.57909,-0.87573 0,-0.59627 1.11001,-1.3839 1.95031,-1.3839 0.47464,0 1.15021,-0.15372 1.50126,-0.34159 0.89249,-0.47766 2.08403,-2.5099 2.08403,-3.55445 0,-1.01731 0.80196,-1.44421 1.75493,-0.9342 0.89648,0.47979 0.85509,1.8897 -0.11154,3.80088 -1.37141,2.71143 -5.24632,4.64248 -6.59982,3.28899 z m 24.12084,-1.02097 c -0.66146,-1.72375 0.27205,-2.09995 6.09179,-2.45503 1.998,-0.12191 6.35728,-0.52075 9.68731,-0.88632 7.83338,-0.85997 9.23182,-0.86319 9.49884,-0.0219 0.49755,1.5677 -0.59615,2.12459 -4.17256,2.12459 -1.01897,0 -4.61924,0.30029 -8.00067,0.66733 -9.54462,1.03601 -12.87075,1.18102 -13.10471,0.57133 z M 66.835853,630.28732 c 0,-0.48425 0.301679,-3.03365 0.670404,-5.66534 0.368724,-2.63168 0.733459,-5.69971 0.810524,-6.81784 l 0.14012,-2.03296 -2.066619,0.21601 -2.06661,0.21599 0.21436,-1.29681 c 0.117896,-0.71326 0.21606,-1.46264 0.218156,-1.66531 0.0032,-0.34816 11.957474,-1.80849 12.262075,-1.49797 0.07373,0.0751 0.0522,0.85686 -0.04775,1.73719 l -0.181735,1.60062 -2.122172,0.30225 -2.122171,0.30224 -0.08192,1.3839 c -0.04508,0.76115 -0.429343,4.14738 -0.853985,7.52496 l -0.772064,6.14106 h -0.919138 c -0.505527,0 -1.405668,0.0973 -2.000309,0.21622 -0.98433,0.19687 -1.081174,0.13737 -1.081174,-0.66421 z M 255.74202,629.4379 c 0.007,-3.3482 1.46059,-6.53513 4.1026,-8.99862 2.3759,-2.21537 4.4593,-3.1695 7.47794,-3.42467 2.27835,-0.19259 2.61196,-0.14555 2.82039,0.39762 0.34456,0.89793 -0.31479,1.71928 -1.46551,1.82556 -3.1627,0.29213 -5.7097,1.45915 -7.63169,3.49683 -1.64602,1.7451 -2.23969,3.17998 -3.05971,7.39524 -0.15247,0.78373 -0.36686,0.95141 -1.21643,0.95141 -1.00025,0 -1.03122,-0.0495 -1.02759,-1.64337 z m 83.544,0.93483 c -0.38064,-1.19927 0.38895,-1.64432 3.22491,-1.86503 1.46406,-0.11394 5.69786,-0.51215 9.40844,-0.88492 3.71059,-0.37279 9.97686,-0.9945 13.92503,-1.38158 8.53058,-0.83635 18.60073,-1.82321 28.11097,-2.75485 3.80573,-0.3728 10.26681,-1.00316 14.35796,-1.40081 4.09116,-0.39763 10.39656,-1.01871 14.012,-1.38018 12.67131,-1.26688 14.69945,-1.43085 15.04626,-1.2165 0.43991,0.27187 0.4591,1.79664 0.0259,2.06432 -0.32528,0.20104 -4.68235,0.68047 -17.49405,1.92493 -10.36061,1.00637 -20.64825,2.01353 -28.19698,2.76048 -7.6637,0.75832 -17.51285,1.71959 -28.36997,2.7689 -4.09115,0.3954 -10.24085,1.02508 -13.66601,1.39928 -8.2713,0.90366 -10.08882,0.8977 -10.38453,-0.0341 z M 76.861236,629.3871 c -0.004,-0.30506 0.227424,-2.50075 0.514963,-4.87933 0.287557,-2.3786 0.739967,-6.1618 1.005355,-8.40714 0.265389,-2.24535 0.583927,-4.18384 0.707859,-4.30777 0.287136,-0.28714 4.009321,-0.70613 4.001025,-0.45038 -0.0032,0.10516 -0.234157,1.67025 -0.512754,3.47798 -0.278605,1.80771 -0.509346,3.38193 -0.512761,3.49827 -0.0065,0.20815 0.32031,0.18456 2.797527,-0.20221 l 1.246845,-0.19467 0.225901,-2.84811 c 0.339669,-4.28238 0.354302,-4.31078 2.362394,-4.58696 0.951,-0.1308 1.84672,-0.10444 1.99046,0.0585 0.28475,0.32293 -0.005,3.43173 -1.04294,11.19461 -0.36896,2.75915 -0.66995,5.44967 -0.66886,5.97893 0.002,1.06447 -0.12167,1.13528 -2.558728,1.46275 l -1.695766,0.22787 0.219937,-2.36437 c 0.12097,-1.30041 0.321386,-3.10392 0.445384,-4.00778 l 0.225448,-1.64338 h -1.877259 -1.87725 l -0.448573,3.89222 c -0.24671,2.14072 -0.551853,3.99073 -0.678092,4.11111 -0.126241,0.12041 -1.04689,0.29215 -2.045892,0.38168 -1.501461,0.13457 -1.817732,0.0666 -1.824223,-0.39189 z m 16.270734,-1.67908 c 8.1e-4,-0.33299 0.24042,-2.16233 0.53178,-4.06519 0.29137,-1.90287 0.67651,-5.09449 0.85589,-7.0925 0.17938,-1.99801 0.42242,-4.27839 0.54008,-5.06751 l 0.21394,-1.43477 1.89805,-0.23715 c 1.04393,-0.13042 1.96833,-0.16685 2.05424,-0.081 0.16775,0.16775 -0.15475,3.18008 -1.35062,12.61546 l -0.75641,5.96806 h -1.99449 c -1.66965,0 -1.99417,-0.0986 -1.99246,-0.60545 z m 198.11663,0.0865 c -0.2808,-0.73174 0.0796,-1.49579 0.81566,-1.72942 0.34464,-0.10939 2.47097,-0.33421 4.7252,-0.4996 2.25422,-0.16539 6.51176,-0.55133 9.46119,-0.85764 2.94945,-0.3063 8.63208,-0.87109 12.6281,-1.25508 3.99601,-0.38399 10.37925,-0.99718 14.18499,-1.36266 3.80571,-0.36548 10.2668,-0.98824 14.35796,-1.3839 4.09116,-0.39567 10.55224,-1.01843 14.35797,-1.38391 3.80573,-0.36547 10.18897,-0.98015 14.18498,-1.36595 3.99602,-0.38579 10.61279,-1.0202 14.70395,-1.40978 4.09116,-0.38958 10.4744,-1.0069 14.18498,-1.37185 3.71058,-0.36494 10.24952,-0.9919 14.53097,-1.39324 4.28143,-0.40135 9.91284,-0.95437 12.51426,-1.22891 2.60138,-0.27456 4.98407,-0.40163 5.29484,-0.28238 0.36581,0.14038 0.52793,0.53236 0.45979,1.11175 -0.15315,1.30292 2.98858,0.89523 -35.04869,4.5481 -3.80574,0.36547 -10.26681,0.98824 -14.35797,1.3839 -4.09116,0.39567 -10.55225,1.01842 -14.35798,1.3839 -3.80572,0.36548 -10.18896,0.98016 -14.18498,1.36595 -3.99602,0.3858 -10.6128,1.02021 -14.70395,1.40978 -4.09116,0.38958 -10.47439,1.00691 -14.18498,1.37186 -3.71059,0.36494 -10.24951,0.99287 -14.53096,1.39542 -4.28144,0.40254 -10.66469,1.03573 -14.18498,1.40707 -7.86682,0.82982 -10.57412,0.86641 -10.85035,0.14659 z m -189.71133,-1.47039 c 0.10591,-0.71358 0.44551,-3.3992 0.75468,-5.96807 0.30916,-2.56887 0.7484,-6.14971 0.97607,-7.95743 l 0.41397,-3.28677 h 2.74402 2.74402 l 0.61987,2.42183 c 0.34093,1.33201 0.9737,3.82303 1.40616,5.5356 l 0.7863,3.11379 0.24486,-1.72989 c 0.13467,-0.95143 0.42669,-3.56169 0.64893,-5.8006 0.22224,-2.2389 0.53717,-4.15298 0.69985,-4.25352 0.16267,-0.10054 1.09597,-0.27757 2.074,-0.3934 1.6362,-0.19377 1.76175,-0.15801 1.57181,0.4478 -0.11355,0.36211 -0.36687,2.50034 -0.56294,4.75159 -0.19609,2.25127 -0.58832,5.63648 -0.87162,7.5227 -0.28331,1.8862 -0.5151,3.88838 -0.5151,4.44926 0,0.56088 -0.11985,1.09385 -0.26634,1.18439 -0.14649,0.0906 -1.37168,0.27353 -2.72263,0.40666 l -2.45628,0.24202 -0.17674,-0.99168 c -0.0972,-0.54543 -0.67839,-2.85996 -1.29153,-5.14338 -0.61312,-2.28345 -1.23858,-4.61878 -1.3899,-5.18964 -0.26764,-1.00967 -0.27626,-1.00025 -0.31676,0.34598 -0.0229,0.76114 -0.26956,2.86294 -0.54817,4.67066 -0.27859,1.80772 -0.50933,4.00592 -0.51275,4.88488 -0.007,1.57648 -0.0238,1.60102 -1.30361,1.81257 -2.74736,0.4541 -2.96457,0.36918 -2.75017,-1.07535 z m 52.65709,0.67243 c -0.74253,-0.25751 -6.76933,-3.72216 -9.44481,-5.42959 -2.63096,-1.67901 -2.82581,-2.37689 -3.07593,-11.01578 l -0.21583,-7.45462 1.17866,-1.16401 1.17865,-1.16403 9.19335,-0.62009 c 11.24289,-0.75833 11.5413,-0.75946 12.62753,-0.0478 1.61887,1.06072 2.22169,2.52898 2.22311,5.41467 6.9e-4,1.44709 0.16224,4.61312 0.35895,7.03562 0.50122,6.17237 0.61939,5.94764 -5.55788,10.56938 -5.15024,3.85333 -6.60759,4.52058 -8.4658,3.87618 z m 4.198,-4.83034 c 0.97688,-0.71016 2.90125,-2.14749 4.27637,-3.19406 l 2.50022,-1.90287 -0.20992,-5.39174 c -0.2478,-6.36433 -0.50607,-8.53571 -1.03515,-8.7028 -0.40873,-0.12908 -8.96059,0.26524 -15.05752,0.69428 -2.72318,0.19164 -3.6821,0.38752 -3.94346,0.80557 -0.23166,0.37055 -0.19873,2.73589 0.10007,7.18669 l 0.4454,6.63435 3.43813,1.98165 c 1.89097,1.0899 4.16243,2.39618 5.04769,2.90284 1.76886,1.01237 1.59673,1.05169 4.43817,-1.01391 z m 0.66854,-8.1512 c -0.8019,-0.58636 -0.80832,-2.1324 -0.0125,-3.01176 1.70706,-1.88629 4.51561,0.49953 3.11121,2.64292 -0.614,0.93709 -2.08253,1.1119 -3.0987,0.36884 z m -5.66624,-0.93792 c -0.41645,-0.38798 -0.75719,-1.00468 -0.75719,-1.37042 0,-0.83061 1.29803,-2.07585 2.16384,-2.07585 1.31822,0 1.98786,0.66139 1.98786,1.96339 0,2.05853 -1.89026,2.8843 -3.39451,1.48288 z m -5.52386,-0.5251 c -0.91313,-0.63959 -1.03223,-2.26247 -0.22525,-3.06945 0.78613,-0.78613 2.80368,-0.7082 3.24987,0.12553 1.23999,2.31694 -0.91925,4.41857 -3.02462,2.94392 z m -28.44964,11.91383 c -0.002,-0.83322 0.30708,-3.92813 0.68568,-6.87757 0.3786,-2.94945 0.78142,-6.41352 0.89516,-7.69796 0.20162,-2.27685 0.23102,-2.33533 1.17394,-2.33533 0.53194,0 1.45662,-0.0979 2.05488,-0.21754 l 1.08773,-0.21755 -0.19607,2.55288 c -0.10784,1.40408 -0.26647,3.01994 -0.35249,3.59081 -0.11768,0.78084 0.40024,0.18095 2.09094,-2.42184 1.23605,-1.90286 2.29526,-3.60148 2.35379,-3.77471 0.10116,-0.29941 4.43597,-0.96943 4.68175,-0.72363 0.0644,0.0643 -0.86925,1.54288 -2.07467,3.28564 -1.20543,1.74276 -2.35344,3.45149 -2.55116,3.79717 -0.19772,0.34567 -0.57005,0.88222 -0.82741,1.19231 -0.39619,0.4774 -0.37522,0.78799 0.13683,2.02627 0.33261,0.80434 0.91611,2.24088 1.29667,3.19231 0.38056,0.95144 0.99386,2.41038 1.3629,3.24211 0.36904,0.83173 0.59474,1.58848 0.50155,1.68167 -0.0932,0.0932 -1.163,0.24919 -2.37735,0.34666 l -2.2079,0.17724 -0.56923,-1.8589 c -0.31308,-1.02239 -0.9159,-2.85944 -1.33963,-4.08232 -0.74051,-2.13718 -0.78122,-2.18415 -1.04979,-1.21091 -0.15367,0.55688 -0.38013,2.38024 -0.50323,4.05192 -0.12311,1.67168 -0.32584,3.10246 -0.45052,3.17951 -0.12467,0.0771 -1.03511,0.24735 -2.02319,0.37843 l -1.79648,0.23831 -0.003,-1.51498 z m 59.51042,-5.30217 c 0,-0.67914 0.30045,-3.45214 0.66767,-6.16226 0.36721,-2.7101 0.76909,-6.27396 0.89307,-7.91968 l 0.22541,-2.99222 1.44227,-0.18995 c 0.79324,-0.10446 2.22951,-0.2864 3.19173,-0.40429 l 1.74946,-0.21437 0.61395,4.78043 c 0.33767,2.62923 0.68963,5.01394 0.78212,5.29939 0.24174,0.74603 0.4962,0.20362 2.00251,-4.26874 2.2953,-6.81494 2.06391,-6.4565 4.168,-6.4565 1.00214,0 2.31845,-0.0993 2.92515,-0.22062 l 1.10308,-0.22062 -0.22516,3.07492 c -0.12384,1.6912 -0.52293,5.15328 -0.88685,7.6935 -0.36393,2.54021 -0.66169,5.28331 -0.66169,6.09578 0,1.43823 -0.0342,1.48287 -1.2974,1.69166 -2.51014,0.41491 -2.8543,0.31988 -2.8543,-0.78813 0,-0.55561 0.32253,-3.21711 0.71673,-5.91445 0.3942,-2.69735 0.65585,-4.96516 0.58142,-5.03957 -0.0745,-0.0745 -0.54481,1.06911 -1.04528,2.54119 -2.59722,7.63924 -3.26042,9.45379 -3.55895,9.73747 -0.26183,0.2488 -3.61343,0.71039 -3.61343,0.49765 0,-0.0318 -0.31036,-2.13473 -0.68968,-4.67316 -0.37933,-2.53843 -0.70852,-5.31593 -0.73155,-6.17222 -0.0533,-1.97992 -1.28314,6.32883 -1.32034,8.91972 -0.0287,1.99469 -0.0155,1.98259 -2.53455,2.31986 l -1.64339,0.22001 z m 20.06657,-0.5836 c 0,-0.0751 0.32274,-0.99072 0.7172,-2.03462 0.39446,-1.04388 1.00613,-2.67642 1.35928,-3.62785 0.73978,-1.993 2.25333,-6.01704 2.92798,-7.78443 0.25423,-0.66602 0.84218,-2.2229 1.30658,-3.45976 l 0.84434,-2.24884 2.61626,-0.10045 2.61624,-0.10044 0.38195,2.52227 c 1.193,7.87828 1.83436,12.04635 2.07737,13.50041 0.15044,0.90023 0.19273,1.7176 0.094,1.81636 -0.0988,0.0988 -1.0696,0.17957 -2.15743,0.17957 -2.16379,0 -2.38923,-0.24607 -2.39978,-2.61946 l -0.005,-1.06258 -2.26296,0.27245 c -1.24462,0.14983 -2.40208,0.3584 -2.57212,0.4635 -0.17005,0.1051 -0.55726,1.04449 -0.86049,2.08755 -0.45381,1.56105 -0.68729,1.89714 -1.3201,1.90027 -0.42282,0.002 -1.3526,0.10032 -2.06619,0.21826 -0.71356,0.11795 -1.2974,0.15296 -1.2974,0.0778 z m 8.92112,-8.13258 c 0.74903,-0.20065 0.77833,-0.32344 0.55632,-2.3306 -0.45224,-4.0882 -0.62044,-3.9622 -2.36746,1.77342 -0.25555,0.83902 0.21673,0.98431 1.81114,0.55718 z m 8.49586,5.54961 c 0.19305,-0.98798 0.85115,-6.33413 1.69893,-13.80152 l 0.4317,-3.80251 1.72986,-0.25586 c 0.95144,-0.14073 1.89923,-0.19568 2.10622,-0.12211 0.26759,0.0951 0.2479,0.91783 -0.0682,2.84747 -0.83666,5.10786 -0.71505,5.03684 3.71301,-2.16894 0.59743,-0.97222 0.87112,-1.09592 2.81443,-1.27214 1.18397,-0.10735 2.20374,-0.1441 2.26618,-0.0817 0.0625,0.0625 -0.64076,1.17982 -1.56266,2.48305 -0.92193,1.30323 -2.24671,3.23839 -2.94397,4.30038 -1.45282,2.21274 -1.51995,1.71189 1.06262,7.92941 0.75086,1.80772 1.29382,3.40354 1.20656,3.54625 -0.0873,0.14272 -1.07961,0.25948 -2.20521,0.25948 -2.24327,0 -2.52367,-0.25714 -3.39544,-3.11378 -0.20325,-0.66599 -0.65832,-2.01278 -1.01127,-2.99283 l -0.64173,-1.78192 -0.57587,4.167 c -0.31673,2.29185 -0.62632,4.21746 -0.68801,4.27913 -0.0617,0.0617 -1.01691,0.21848 -2.12273,0.34845 l -2.01059,0.2363 z m 15.10469,-1.81813 c 0,-0.77662 0.30487,-3.71346 0.67749,-6.52632 0.37261,-2.81287 0.77501,-6.31985 0.89424,-7.79331 0.11921,-1.47344 0.35595,-2.76503 0.52609,-2.87017 0.34952,-0.21603 9.74108,-0.89095 9.91919,-0.71285 0.0633,0.0633 0.0151,0.73986 -0.10694,1.50348 l -0.22201,1.3884 -3.0467,0.23834 -3.04668,0.23834 -0.11604,2.03538 -0.11602,2.03536 2.73428,-0.21153 2.7343,-0.21154 -0.19689,1.46784 c -0.10827,0.80731 -0.26164,1.53259 -0.34078,1.61176 -0.0792,0.0792 -1.32933,0.2441 -2.77815,0.36658 l -2.63422,0.22267 -0.22009,1.94017 c -0.12104,1.06709 -0.29156,2.19974 -0.37894,2.51696 -0.11264,0.40903 0.0215,0.54092 0.46081,0.45343 0.34082,-0.0678 1.74842,-0.20158 3.12799,-0.29718 l 2.50832,-0.17381 -0.005,1.1043 c -0.002,0.60735 -0.11967,1.27679 -0.25948,1.48766 -0.13979,0.21085 -1.81106,0.56741 -3.71393,0.79235 -1.90286,0.22493 -4.12142,0.49824 -4.93015,0.60733 l -1.47058,0.19838 v -1.41202 z"
       id="path908" />
  </g>
</svg>
