<?xml version="1.0" encoding="UTF-8" standalone="no"?>
<svg
   xmlns:dc="http://purl.org/dc/elements/1.1/"
   xmlns:cc="http://creativecommons.org/ns#"
   xmlns:rdf="http://www.w3.org/1999/02/22-rdf-syntax-ns#"
   xmlns:svg="http://www.w3.org/2000/svg"
   xmlns="http://www.w3.org/2000/svg"
   xmlns:sodipodi="http://sodipodi.sourceforge.net/DTD/sodipodi-0.dtd"
   xmlns:inkscape="http://www.inkscape.org/namespaces/inkscape"
   sodipodi:docname="text_centering.svg"
   inkscape:version="1.0.1 (3bc2e813f5, 2020-09-07)"
   id="svg8"
   version="1.1"
   viewBox="0 0 170 457.5"
   height="457.5mm"
   width="170mm">
  <defs
     id="defs2">
    <rect
       x="72.647781"
       y="212.33173"
       width="21.839834"
       height="19.109854"
       id="rect847" />
  </defs>
  <sodipodi:namedview
     inkscape:window-maximized="1"
     inkscape:window-y="-11"
     inkscape:window-x="-11"
     inkscape:window-height="1186"
     inkscape:window-width="1920"
     showgrid="false"
     inkscape:document-rotation="0"
     inkscape:current-layer="layer2"
     inkscape:document-units="mm"
     inkscape:cy="876.01652"
     inkscape:cx="160.62735"
     inkscape:zoom="0.87225939"
     inkscape:pageshadow="2"
     inkscape:pageopacity="0.0"
     borderopacity="1.0"
     bordercolor="#666666"
     pagecolor="#ffffff"
     id="base" />
  <metadata
     id="metadata5">
    <rdf:RDF>
      <cc:Work
         rdf:about="">
        <dc:format>image/svg+xml</dc:format>
        <dc:type
           rdf:resource="http://purl.org/dc/dcmitype/StillImage" />
        <dc:title></dc:title>
      </cc:Work>
    </rdf:RDF>
  </metadata>
  <g
     style="display:inline;opacity:1"
     id="layer1"
     inkscape:groupmode="layer"
     inkscape:label="your art">
    <path
       id="path1108"
       style="fill:#000000;stroke-width:0.0215148"
       d="m 103.49761,227.54083 c -0.0166,-0.70543 -0.0627,-1.41382 -0.1984,-2.10487 -0.44261,-2.42011 -1.31969,-4.74924 -2.4639,-6.92165 -0.81576,-1.5393 -1.762066,-3.00346 -2.841316,-4.37346 -0.943421,-1.18322 -1.993496,-2.28392 -3.147476,-3.26366 -1.307302,-1.09706 -2.76717,-2.0462 -4.388477,-2.60489 -0.676215,-0.23258 -1.381041,-0.39261 -2.097223,-0.42238 -0.354777,-0.0162 -0.723703,-0.0132 -1.079252,0.0162 -0.519927,0.0385 -1.029909,0.1408 -1.514813,0.33014 -1.104547,0.40848 -2.055072,1.15128 -2.791447,2.06362 -0.470538,0.57981 -0.856554,1.21763 -1.184619,1.88299 -0.179339,0.35668 -0.353677,0.71586 -0.530077,1.07404 H 67.014484 c -0.591704,0.65372 -1.168464,1.32116 -1.753406,1.98104 -3.866362,4.39245 -7.734279,8.7841 -11.593607,13.18186 -0.05571,0.066 -0.116855,0.12758 -0.167466,0.1977 0.33076,0.39513 0.677665,0.77717 1.015825,1.16626 4.08805,4.65051 8.176671,9.30242 12.272032,13.94733 0.07334,0.0839 0.148289,0.16633 0.222816,0.24916 1.766517,3e-4 3.53304,5.6e-4 5.299557,0.001 0.530121,0.5828 1.043531,1.18434 1.475002,1.8452 0.37876,0.55502 0.698959,1.14748 0.978236,1.75805 0.328332,0.70137 0.632754,1.41384 0.96092,2.11534 0.511381,-0.93752 1.001747,-1.88638 1.484607,-2.83884 0.469365,-0.9453 0.902008,-1.9082 1.33624,-2.86999 5.135086,-0.009 10.270216,-0.007 15.405258,-0.032 0.160977,-0.002 0.321999,-10e-4 0.482938,-0.006 0.02289,-0.87634 0.0135,-1.75325 0.01806,-2.62984 0.0017,-2.07947 5.56e-4,-4.15893 0.0011,-6.23839 0.399194,-0.63867 0.739209,-1.30822 1.001158,-2.01398 0.119472,-0.31516 0.218939,-0.64996 0.31665,-0.97876 0.306238,-0.15402 0.58552,-0.35724 0.827003,-0.6005 0.0563,-0.0536 0.112644,-0.10723 0.16891,-0.1609 0.560988,0.471 1.190887,0.87187 1.885107,1.11417 0.82355,0.28046 1.761566,0.31858 2.565436,-0.0476 0.45939,-0.20968 0.88324,-0.49999 1.19831,-0.90142 0.60509,-0.75351 0.93722,-1.69829 1.03519,-2.65351 0.0458,-0.41959 0.0546,-0.83868 0.0474,-1.26179 z m -1.0321,0.21833 c -0.003,0.43469 -0.0151,0.87201 -0.10876,1.29821 -0.13668,0.70416 -0.40209,1.41757 -0.93263,1.92143 -0.4136,0.40135 -0.9918,0.62107 -1.567406,0.59862 -0.73569,-0.0226 -1.42797,-0.35114 -2.01461,-0.7775 -0.15373,-0.1193 -0.32031,-0.22746 -0.453305,-0.36991 -0.0485,-0.10952 0.04955,-0.21706 0.08599,-0.31649 0.25149,-0.48573 0.42324,-1.0069 0.59423,-1.52511 -0.13103,-0.43335 -0.28226,-0.86172 -0.46408,-1.27638 -0.0991,-0.20887 -0.203822,-0.41503 -0.307083,-0.62188 0.323063,-0.23512 0.641383,-0.48273 0.897343,-0.79234 0.31479,-0.36939 0.57623,-0.81787 0.75637,-1.28093 0.40656,-1.04185 0.49876,-2.19623 0.35404,-3.29426 -0.21952,-1.6788 -0.97722,-3.25617 -2.027131,-4.57263 -0.785176,-0.98918 -1.722656,-1.85114 -2.734181,-2.60415 -0.678943,-0.49311 -1.410307,-0.93277 -2.211916,-1.19351 -0.712426,-0.22559 -1.519757,-0.23558 -2.202461,0.0929 -0.531404,0.26076 -0.960526,0.69058 -1.318036,1.155 -0.64137,0.86677 -1.077247,1.86225 -1.435385,2.87613 -0.05428,0.12903 -0.08306,0.27556 -0.171822,0.38609 -0.07353,0.0531 -0.168199,-0.0108 -0.249866,-0.0109 -0.613337,-0.10346 -1.239196,-0.18622 -1.863867,-0.21864 -0.38776,-0.29864 -0.780203,-0.61423 -1.254957,-0.76182 -0.857109,-0.30582 -1.794412,-0.33953 -2.685604,-0.18067 -0.07933,0.0274 -0.122977,-0.0686 -0.08404,-0.13009 0.372327,-0.86983 0.776737,-1.72588 1.182136,-2.58039 0.397704,-0.82922 0.790342,-1.66989 1.34439,-2.40951 0.578032,-0.79165 1.33718,-1.46466 2.237316,-1.86558 0.457788,-0.21122 0.951009,-0.34573 1.451413,-0.40354 0.47611,-0.0306 0.956403,-0.0348 1.431129,0.0171 1.032098,0.15321 2.020729,0.52653 2.936371,1.02005 1.669412,0.90245 3.12518,2.15734 4.406965,3.54763 1.710076,1.86666 3.130316,3.99381 4.238527,6.2686 0.92658,1.91122 1.6423,3.9362 2.00188,6.03311 0.0936,0.56817 0.17423,1.14104 0.16882,1.71831 7e-5,0.0844 1.5e-4,0.1687 2.3e-4,0.25304 z m -4.151986,-5.46622 c 2.4e-4,0.37891 -0.0134,0.76007 -0.099,1.13067 -0.14322,0.71199 -0.43663,1.41315 -0.94599,1.94152 -0.170394,0.16703 -0.354005,0.32374 -0.565854,0.43601 -0.255544,-0.24675 -0.524254,-0.48762 -0.844965,-0.64664 -0.123477,-0.064 -0.111016,-0.22392 -0.158599,-0.33129 -0.198077,-0.6636 -0.453738,-1.31803 -0.780148,-1.93312 -0.142461,-0.278 -0.304827,-0.54503 -0.466437,-0.81214 v -6.6726 c 0.519948,0.39622 0.981369,0.86303 1.433801,1.33333 0.534393,0.57169 1.006408,1.20264 1.402796,1.8774 0.539256,0.92222 0.892936,1.95656 1.002776,3.02022 0.0157,0.21855 0.0209,0.43755 0.0217,0.65664 z m -1.326851,6.30762 c -0.2356,0.66434 -0.527376,1.31741 -0.944248,1.88921 -0.24261,0.31823 -0.56942,0.62701 -0.986547,0.66707 -0.04911,0.0153 -0.129866,-0.0122 -0.15746,0.0312 -0.112745,0.47516 -0.233272,0.96394 -0.406688,1.42712 -0.523449,1.44569 -1.418391,2.76142 -2.605404,3.74337 -0.994169,0.82643 -2.163616,1.42484 -3.383875,1.84003 -1.242163,0.41989 -2.548315,0.65403 -3.860395,0.67067 -0.0927,-0.0244 -0.126244,0.0441 -0.155616,0.11923 -0.16281,0.30362 -0.449215,0.53326 -0.775253,0.64128 -0.442999,0.17452 -0.911237,0.29294 -1.389019,0.30365 -1.063202,0.036 -2.127677,-0.35437 -2.929364,-1.05091 -0.06542,-0.0486 -0.128599,-0.1165 -0.218377,-0.0966 -2.046111,-0.0389 -4.092749,-0.0472 -6.138782,-0.0909 -0.283083,-0.016 -0.571393,-10e-4 -0.849687,-0.0617 -0.351332,-0.11334 -0.685509,-0.32315 -0.896397,-0.63093 -0.463271,-0.86296 -0.888892,-1.74577 -1.332091,-2.61942 -1.114858,-2.23997 -2.234361,-4.47804 -3.333591,-6.7256 -0.05194,-0.0625 -0.02867,-0.12517 0.0098,-0.18774 1.333446,-2.72713 2.690364,-5.44354 4.03606,-8.16497 0.196844,-0.39196 0.385988,-0.78944 0.587621,-1.17798 0.197044,-0.19185 0.379988,-0.41323 0.641765,-0.51947 0.252299,-0.13277 0.538004,-0.18725 0.821703,-0.17851 2.156761,-0.036 4.313621,-0.068 6.47056,-0.0913 0.07751,0.007 0.152472,0.006 0.202827,-0.0624 0.694948,-0.60472 1.586629,-0.98822 2.50951,-1.03867 0.641976,-0.0511 1.304496,0.0489 1.88485,0.33443 0.302727,0.14942 0.578698,0.3751 0.733037,0.68017 0.498532,0.01 0.997575,0.0283 1.491918,0.0978 1.851906,0.24357 3.67814,0.85511 5.220825,1.9238 1.064025,0.73316 1.975828,1.69606 2.606404,2.82698 0.489343,0.86571 0.840792,1.8081 1.044886,2.78118 0.01167,0.0588 0.02111,0.12799 0.09842,0.11472 0.15646,1.2e-4 0.308882,0.0413 0.444637,0.11913 0.313538,0.15483 0.534343,0.44192 0.730793,0.722 0.360732,0.53667 0.623181,1.13282 0.83497,1.74211 l -0.0039,0.0114 z m -3.131786,2.42966 c -1.524057,-0.20016 -3.049047,-0.3949 -4.570338,-0.61468 -0.267222,-0.0407 -0.543404,-0.0691 -0.784453,-0.20219 -0.323666,-0.16385 -0.612738,-0.40941 -0.787826,-0.73092 -0.176877,-0.28325 -0.326805,-0.58222 -0.505932,-0.86402 -0.614859,0.01 -1.230246,0.002 -1.844734,0.0256 -0.32866,0.0314 -0.652331,0.16265 -0.903258,0.37874 -0.261966,0.22694 -0.422488,0.5638 -0.424593,0.91141 -0.01295,0.24767 0.01756,0.48671 0.106094,0.72212 0.29891,0.80661 0.671542,1.58718 0.946569,2.40482 0.221594,0.65674 0.415521,1.34441 0.371788,2.04444 -0.02656,0.33713 -0.115638,0.68158 -0.31536,0.95877 -0.06384,0.0639 -0.149544,-0.0109 -0.145266,-0.0868 -0.02572,-0.25464 -0.02978,-0.50266 -0.09057,-0.75412 -0.110988,-0.52155 -0.277132,-1.02312 -0.504421,-1.50947 -0.450043,-0.99164 -1.066441,-1.90296 -1.452934,-2.92399 -0.08208,-0.22151 -0.157122,-0.45162 -0.144594,-0.69121 0.0017,-0.13337 -0.01094,-0.27073 0.0039,-0.40152 0.04439,-0.0914 0.09273,-0.18098 0.133567,-0.27404 -0.538654,0.095 -1.084114,0.26344 -1.514129,0.61454 -0.352555,0.26845 -0.620076,0.64952 -0.728615,1.08118 -0.153044,0.54937 -0.24961,1.12386 -0.307871,1.68439 -0.048,0.7136 -0.02411,1.42994 0.0044,2.14389 0.02067,0.30492 0.02128,0.61822 0.09292,0.91873 0.152838,0.53518 0.591948,0.93161 1.060835,1.20007 0.600443,0.34494 1.269069,0.53743 1.943301,0.69069 0.191927,0.0372 0.379465,0.11311 0.577787,0.0948 0.736709,0.009 1.471746,-0.0178 2.196399,-0.13755 1.544662,-0.25351 3.076454,-0.78219 4.371733,-1.67428 0.329027,-0.22583 0.640038,-0.46364 0.919987,-0.74626 0.359638,-0.35375 0.721437,-0.7167 1.003269,-1.13248 0.545604,-0.77601 0.959953,-1.66108 1.200397,-2.58456 0.04567,-0.17821 0.094,-0.3563 0.122883,-0.53818 -0.01039,-0.003 -0.02078,-0.005 -0.03117,-0.008 z m -8.872276,-10.05247 c 0.0022,-0.52968 -0.216972,-1.07169 -0.640626,-1.40195 -0.128022,-0.0906 -0.252699,-0.19952 -0.404182,-0.2471 -0.176005,-0.0127 -0.346416,0.0573 -0.515927,0.0888 -0.693964,0.16802 -1.405162,0.36761 -2.016677,0.76102 -0.295688,0.19943 -0.572399,0.4431 -0.762076,0.74807 -0.174494,0.29022 -0.210749,0.63295 -0.230166,0.96385 -0.03172,0.43172 -0.05868,0.85575 -0.05022,1.28946 0.0056,0.43262 0.0011,0.87164 0.04422,1.29202 0.06657,0.57653 0.159889,1.14931 0.335494,1.70456 0.177583,0.55583 0.635253,0.97868 1.145074,1.23616 0.332977,0.15898 0.692021,0.25913 1.054892,0.32132 -0.0405,-0.10339 -0.108072,-0.1985 -0.140233,-0.30308 0.0079,-0.29316 -0.02622,-0.59728 0.08364,-0.87688 0.284483,-0.85897 0.768759,-1.63064 1.180286,-2.43129 0.332515,-0.63033 0.627314,-1.27269 0.792242,-1.97002 0.08025,-0.30059 0.116888,-0.60422 0.121249,-0.90738 0.0028,-0.0892 0.0039,-0.1783 0.0028,-0.26752 z m -1.502801,5.6e-4 c 0.0081,0.51851 -0.0079,1.04059 -0.118372,1.54908 -0.154116,0.80058 -0.471499,1.55542 -0.787504,2.30271 -0.170349,0.40217 -0.335632,0.81069 -0.40931,1.24349 -0.16386,0.004 -0.339137,-0.0151 -0.466415,-0.12928 -0.219127,-0.16732 -0.309688,-0.44316 -0.338416,-0.70735 -0.06756,-0.51641 -0.05517,-1.03907 -0.06383,-1.5588 0.0064,-0.45147 -0.024,-0.91621 0.112161,-1.35293 0.142694,-0.42058 0.490788,-0.73362 0.870581,-0.94345 0.330321,-0.18234 0.677915,-0.33724 1.038641,-0.44842 0.04878,-6e-5 0.152678,-0.0596 0.162467,-0.009 z m 0,14.83657 v 0.44213 c -0.322333,-0.0547 -0.619282,-0.20104 -0.915414,-0.33301 -0.438344,-0.21044 -0.884776,-0.49489 -1.096653,-0.95146 -0.146938,-0.29814 -0.155238,-0.63614 -0.159827,-0.96167 -0.01483,-0.71246 -0.04044,-1.42935 0.05997,-2.13711 0.03278,-0.25809 0.133617,-0.52421 0.354033,-0.67884 0.123494,-0.103 0.289049,-0.11359 0.442709,-0.11176 0.104834,0.61203 0.388688,1.17006 0.616832,1.74158 0.36436,0.86692 0.656865,1.78176 0.69272,2.72812 0.005,0.0872 0.0039,0.17468 0.0056,0.26202 z m -3.704618,-7.1542 c -0.02261,-0.0488 -0.127533,-0.0102 -0.182466,-0.0239 -3.087808,-0.0176 -6.175705,-0.0154 -9.263557,-0.014 -0.867998,0.002 -1.73604,5.5e-4 -2.603993,0.01 1.017892,2.08678 2.056933,4.16326 3.08933,6.24292 0.408927,0.81475 0.804548,1.63643 1.234714,2.44063 0.07376,0.13606 0.178899,0.2729 0.328399,0.3273 0.247004,0.0515 0.492754,0.039 0.74957,0.048 1.707156,0.0223 3.414568,0.0341 5.121858,0.0248 0.05787,-0.009 0.164994,0.0143 0.193627,-0.0139 -0.205144,-0.38699 -0.383266,-0.79036 -0.495021,-1.21496 -0.233294,-0.84587 -0.246305,-1.75054 -0.03567,-2.60258 0.201311,-0.85201 0.500205,-1.68104 0.889781,-2.46527 0.268216,-0.57571 0.578776,-1.14032 0.800048,-1.73096 0.11495,-0.32892 0.17815,-0.67919 0.1734,-1.02795 z m -0.401654,-1.74375 c -0.198272,-0.41308 -0.396177,-0.8285 -0.622832,-1.22614 -1.422907,-0.0208 -2.846125,-0.0152 -4.269171,-0.0175 -1.761134,0.002 -3.52239,-0.002 -5.283402,0.0197 -0.08071,-0.0245 -0.09482,0.0684 -0.13025,0.11772 -0.223066,0.41627 -0.430193,0.84109 -0.628209,1.26979 1.951245,0.0192 3.902678,0.0128 5.854011,0.0138 1.716773,-0.004 3.433657,-5.5e-4 5.150325,-0.0207 -0.0235,-0.0522 -0.047,-0.10444 -0.07047,-0.15666 z m -0.266655,12.97022 c -0.04683,0.20307 -0.14865,0.39058 -0.220455,0.58614 -0.86042,2.07937 -1.752751,4.14715 -2.752275,6.16423 -0.08831,0.16802 -0.163767,0.34574 -0.274289,0.50031 -0.04178,0.0756 -0.104955,0.005 -0.13306,-0.0441 -0.184744,-0.33331 -0.336177,-0.68451 -0.53136,-1.01245 -0.544482,-0.95769 -1.203408,-1.84887 -1.947294,-2.66078 -0.220217,-0.23431 -0.366977,-0.53166 -0.450077,-0.84037 -0.04322,-0.26616 -0.04594,-0.54589 0.02578,-0.80725 0.15521,-0.42975 0.376904,-0.83142 0.56517,-1.24701 0.1217,-0.25655 0.24335,-0.51312 0.364988,-0.7697 1.073397,-0.0181 2.146878,0.0108 3.220241,0.0201 0.698304,0.0145 1.39723,0.0135 2.095072,0.0418 0.02639,-0.004 0.03506,0.0491 0.03756,0.0691 z m -0.871159,-15.49203 c -0.147133,-0.43815 -0.274771,-0.88354 -0.373554,-1.33518 -2.474432,-0.004 -4.948858,-0.007 -7.42329,-0.011 -0.228916,0.45951 -0.46661,0.91814 -0.682593,1.38066 0.799937,0.025 1.600679,0.013 2.400954,0.0171 2.029889,-5.5e-4 4.059867,0.006 6.089672,-0.0133 -0.0039,-0.0128 -0.0074,-0.0256 -0.01117,-0.0383 z m -0.403554,-3.98175 c -2.026939,-0.0169 -4.053978,-0.009 -6.080961,-0.0107 -0.233182,0.46906 -0.476687,0.93591 -0.695448,1.40876 1.302035,0.0167 2.60436,0.01 3.906517,0.01 0.931542,-0.003 1.863273,-2.5e-4 2.794659,-0.0165 0.041,-0.27826 0.0555,-0.5629 0.118738,-0.83996 0.03633,-0.18533 0.09219,-0.36585 0.139106,-0.54856 -0.06087,-0.001 -0.121739,-0.002 -0.182611,-0.003 z m -8.256355,-2.62753 c -0.195044,0.33846 -0.425321,0.65595 -0.63822,0.98341 -1.477963,2.19353 -2.973164,4.37631 -4.452771,6.56821 0.875487,-0.86126 1.71564,-1.75772 2.528071,-2.67857 0.454743,-0.50741 0.884592,-1.03667 1.336302,-1.5465 0.108266,-0.0951 0.265621,-0.0527 0.396743,-0.0637 0.116183,0.007 0.244005,-0.0131 0.346799,0.0532 -0.227544,0.50812 -0.48486,1.0027 -0.725492,1.50489 -1.408602,2.87028 -2.837109,5.73097 -4.243444,8.60234 -0.04844,0.0626 0.04289,0.11543 0.06484,0.17261 0.829097,1.24042 1.673595,2.47047 2.512048,3.70509 0.650848,0.004 1.301696,0.007 1.952545,0.0112 0.14566,0.30382 0.313749,0.59854 0.436887,0.91211 0.04428,0.0885 -0.03756,0.0869 -0.103155,0.0891 -0.525265,0.017 -1.051069,0.001 -1.576307,0.0202 0.324522,0.49924 0.66816,0.9861 1.000114,1.48051 0.37696,0.56162 0.767948,1.11443 1.12453,1.68927 0.05973,0.0688 0.04717,0.15714 0.02528,0.23795 -0.232788,1.04742 -0.70227,2.06042 -1.442246,2.8465 -0.170538,0.17045 -0.340143,0.34997 -0.548471,0.47428 -0.08826,0.0587 -0.150955,-0.0504 -0.208793,-0.10116 -0.169944,-0.18218 -0.345249,-0.36107 -0.494671,-0.56067 -0.01728,-0.11384 0.121616,-0.15746 0.18971,-0.2203 0.655893,-0.52324 1.091208,-1.28134 1.345619,-2.06734 0.03328,-0.10802 0.07122,-0.21473 0.09961,-0.32418 -1.049047,-1.57223 -2.116578,-3.1321 -3.174814,-4.69817 -1.053447,-1.54459 -2.097194,-3.09581 -3.159702,-4.6341 -0.296427,0.58508 -0.742998,1.10313 -1.315346,1.43185 -0.724115,0.43072 -1.638296,0.53575 -2.434393,0.25068 -0.547038,-0.18631 -1.031781,-0.53289 -1.406474,-0.97079 -0.688115,-0.75154 -1.370624,-1.50803 -2.029556,-2.28547 -0.03222,-0.0426 -0.09486,-0.0993 -0.02883,-0.14084 1.006247,-1.17157 2.030928,-2.32749 3.045814,-3.49148 1.414663,-1.61224 2.830409,-3.22321 4.253193,-4.82807 1.677618,-1.9013 3.350652,-3.80691 5.02502,-5.71017 0.0727,-0.0721 0.134105,-0.1608 0.225821,-0.2101 0.15905,0.0453 0.272494,0.17837 0.397205,0.27968 0.717653,0.66218 1.207141,1.54278 1.502245,2.46664 0.06959,0.24257 0.149678,0.48473 0.181189,0.73593 l -0.005,0.0112 z m -2.191105,0.98021 c -0.02344,-0.53275 -0.367593,-1.07068 -0.893914,-1.22438 -0.394137,-0.11632 -0.834242,0.0499 -1.091547,0.36146 -0.163733,0.18209 -0.27471,0.41356 -0.322515,0.63992 -0.04922,0.25476 -0.0275,0.52335 0.04305,0.77214 0.115761,0.37755 0.410921,0.70326 0.782103,0.84223 0.378077,0.13722 0.824881,-0.0199 1.108292,-0.29975 0.284549,-0.28357 0.393087,-0.69901 0.37451,-1.09162 z m -2.806319,4.30055 c -0.01461,-0.32146 -0.114311,-0.68865 -0.311416,-0.97163 -0.240027,-0.33802 -0.596643,-0.61899 -1.017808,-0.67269 -0.310066,-0.0358 -0.621104,0.002 -0.892359,0.16509 -0.556026,0.32774 -0.872425,0.98293 -0.848725,1.62013 0.0011,0.41372 0.13511,0.83203 0.397787,1.16214 0.2731,0.3485 0.702921,0.60377 1.156753,0.56934 0.246671,-2.9e-4 0.497159,-0.0533 0.702953,-0.19504 0.36321,-0.22887 0.633393,-0.59994 0.742743,-1.01977 0.05932,-0.22194 0.08034,-0.428 0.07007,-0.65757 z m -3.039686,5.35289 c -0.0069,-0.4606 -0.152239,-0.91947 -0.388205,-1.30488 -0.316093,-0.51274 -0.82682,-0.92979 -1.430257,-1.03602 -0.533232,-0.10752 -1.115008,0.0383 -1.550351,0.36975 -0.291633,0.21575 -0.528888,0.50835 -0.690493,0.82193 -0.221132,0.42871 -0.336204,0.91716 -0.298927,1.40003 0.0056,0.31772 0.06579,0.64422 0.189339,0.942 0.263327,0.66951 0.827736,1.24449 1.539995,1.41364 0.3001,0.0534 0.613382,0.0583 0.912576,-0.003 0.321893,-0.0827 0.647626,-0.25487 0.897436,-0.49593 0.54236,-0.49061 0.835231,-1.2263 0.820792,-1.95336 4.39e-4,-0.0513 -0.0017,-0.10256 -0.0017,-0.15382 z"
       sodipodi:nodetypes="ccccccccccccccccccccccccccccccccccccccccccccccccccccccccccccccccccccccccccccscccccccccccsscccccccccccccccccccccccccccccccccccccccccccccccccccccccccccccccccccccccccsccccccccccccccccssccccccccccccccccccccccsccccccccccccccccscccccccsssccccccccccccssscccccssccccccccccccccccccccccccccccccccccccccccccccccccccsccccccssccccccccccccccccccccccc" />
  </g>
  <g
     style="display:inline"
     inkscape:label="existing_logo"
     id="layer2"
     inkscape:groupmode="layer">
    <rect
       y="223.51317"
       x="26.513174"
       height="10.973651"
       width="8.9736538"
       id="rect846"
       style="fill:none;fill-opacity:1;fill-rule:nonzero;stroke:#00ff00;stroke-width:1.02635;stroke-miterlimit:4;stroke-dasharray:none;stroke-opacity:1" />
    <circle
       cy="228.75"
       cx="141.25"
       id="path844"
       style="fill:none;fill-opacity:1;stroke:#00ff00;stroke-width:0.5;stroke-miterlimit:4;stroke-dasharray:none;stroke-opacity:1"
       r="10" />
    <rect
       style="fill:none;stroke:#00ff00;stroke-width:0.928885;stroke-miterlimit:4;stroke-dasharray:none;stroke-opacity:1"
       id="rect16"
       width="8.0711155"
       height="32.07111"
       x="121.46444"
       y="212.71445" />
    <text
       xml:space="preserve"
       id="text845"
       style="font-style:normal;font-weight:normal;font-size:10.5833px;line-height:1.25;font-family:sans-serif;white-space:pre;shape-inside:url(#rect847);fill:#000000;fill-opacity:1;stroke:none;" />
  </g>
  <g
     style="display:inline"
     inkscape:label="ignite_logo"
     id="layer3"
     inkscape:groupmode="layer"
     sodipodi:insensitive="true">
    <rect
       y="97.385918"
       x="35.38591"
       height="49.228172"
       width="109.22817"
       id="rect850"
       style="display:inline;fill:none;fill-opacity:1;fill-rule:nonzero;stroke:#ff0000;stroke-width:0.771827;stroke-miterlimit:4;stroke-dasharray:none;stroke-opacity:1" />
  </g>
  <g
     inkscape:groupmode="layer"
     id="layer4"
     inkscape:label="il2"
     style="display:none">
    <rect
       y="326.13593"
       x="35.385914"
       height="49.228172"
       width="109.22818"
       id="rect850-1"
       style="display:inline;fill:none;fill-opacity:1;fill-rule:nonzero;stroke:#ff0000;stroke-width:0.771827;stroke-miterlimit:4;stroke-dasharray:none;stroke-opacity:1" />
  </g>
</svg>
