<?xml version="1.0" encoding="UTF-8" standalone="no"?>
<svg
   xmlns:dc="http://purl.org/dc/elements/1.1/"
   xmlns:cc="http://creativecommons.org/ns#"
   xmlns:rdf="http://www.w3.org/1999/02/22-rdf-syntax-ns#"
   xmlns:svg="http://www.w3.org/2000/svg"
   xmlns="http://www.w3.org/2000/svg"
   xmlns:sodipodi="http://sodipodi.sourceforge.net/DTD/sodipodi-0.dtd"
   xmlns:inkscape="http://www.inkscape.org/namespaces/inkscape"
   width="430mm"
   height="297mm"
   viewBox="0 0 430 297"
   version="1.1"
   id="svg8"
   inkscape:version="1.0 (4035a4fb49, 2020-05-01)"
   sodipodi:docname="barcode-fix.svg">
  <defs
     id="defs2" />
  <sodipodi:namedview
     id="base"
     pagecolor="#ffffff"
     bordercolor="#666666"
     borderopacity="1.0"
     inkscape:pageopacity="0.0"
     inkscape:pageshadow="2"
     inkscape:zoom="0.7"
     inkscape:cx="207.76743"
     inkscape:cy="423.01934"
     inkscape:document-units="mm"
     inkscape:current-layer="layer1"
     inkscape:document-rotation="0"
     showgrid="false"
     inkscape:window-width="1920"
     inkscape:window-height="1017"
     inkscape:window-x="-8"
     inkscape:window-y="-8"
     inkscape:window-maximized="1" />
  <metadata
     id="metadata5">
    <rdf:RDF>
      <cc:Work
         rdf:about="">
        <dc:format>image/svg+xml</dc:format>
        <dc:type
           rdf:resource="http://purl.org/dc/dcmitype/StillImage" />
        <dc:title />
      </cc:Work>
    </rdf:RDF>
  </metadata>
  <g
     inkscape:label="Layer 1"
     inkscape:groupmode="layer"
     id="layer1">
    <g
       transform="translate(-1.0291367,-1.0585938)"
       id="g940">
      <path
         id="path953"
         style="display:inline;fill:#000000"
         d="m 1.0585938,19.207031 c -10e-8,6.049479 0,12.098959 0,18.148438 12.0989582,0 24.1979162,0 36.2968752,0 0,-12.098959 0,-24.197917 0,-36.2968752 -12.098959,-10e-8 -24.197917,0 -36.2968752,0 -10e-8,6.0494791 0,12.0989582 0,18.1484372 z M 55.935547,2.7441406 c 0,1.2675781 0,2.5351563 0,3.8027344 -1.829427,0 -3.658854,0 -5.488281,0 0,1.1230469 0,2.2460937 0,3.3691406 2.952474,0 5.904948,0 8.857422,0 -10e-7,-1.828776 0,-3.6575521 0,-5.4863281 2.535156,0 5.070312,0 7.605468,0 0,3.6582031 0,7.3164065 0,10.9746095 1.123698,0 2.247396,0 3.371094,0 0,-1.829427 0,-3.658854 0,-5.4882814 3.658203,0 7.316406,0 10.974609,0 0,-1.828776 0,-3.6575521 0,-5.4863281 1.829427,0 3.658855,0 5.488282,0 0,-1.1236979 0,-2.2473958 0,-3.3710937 -2.953125,0 -5.90625,-10e-8 -8.859375,0 0,1.829427 0,3.6588541 0,5.4882812 -2.534506,0 -5.069011,0 -7.603516,0 0,-1.8294271 0,-3.6588542 0,-5.4882812 -4.781901,0 -9.563802,-10e-8 -14.345703,0 0,0.5618489 0,1.1236979 0,1.6855468 z m 43.900391,2.7441406 c 0,2.1816407 -10e-7,4.3632813 0,6.5449218 -3.658204,0 -7.316407,0 -10.97461,0 0,1.123698 0,2.247396 0,3.371094 1.828776,0 3.657552,0 5.486328,0 0,2.535156 0,5.070312 0,7.605469 -1.828776,0 -3.657552,0 -5.486328,0 0,7.316406 0,14.632812 0,21.949218 -2.535156,0 -5.070312,0 -7.605469,0 0,-1.828776 0,-3.657552 0,-5.486328 -1.123698,0 -2.247395,0 -3.371093,0 0,12.804037 0,25.608073 0,38.41211 -1.828776,0 -3.657552,0 -5.486328,0 0,1.123698 -10e-7,2.247395 0,3.371093 1.828776,0 3.657552,0 5.486328,0 0,1.829427 0,3.658855 0,5.488282 3.658854,0 7.317708,0 10.976562,0 0,2.534505 0,5.06901 0,7.603515 -1.829427,0 -3.658854,0 -5.488281,0 0,1.123698 0,2.247396 0,3.371094 1.829427,0 3.658854,0 5.488281,0 0,2.53516 0,5.07031 0,7.60547 -1.829427,0 -3.658854,0 -5.488281,0 0,1.82877 0,3.65755 0,5.48633 -1.829427,0 -3.658854,0 -5.488281,0 0,1.12369 0,2.24739 0,3.37109 1.829427,0 3.658854,0 5.488281,0 0,1.82943 0,3.65885 0,5.48828 1.123698,0 2.247396,0 3.371094,0 0,-1.82943 0,-3.65885 0,-5.48828 1.828776,0 3.657552,0 5.486328,0 0,-7.31706 0,-14.634114 0,-21.951171 1.829427,0 3.658854,0 5.488281,0 0,-3.658203 0,-7.316407 0,-10.97461 2.53516,0 5.07031,0 7.60547,0 0,3.658203 0,7.316407 0,10.97461 6.61068,0 13.22135,0 19.83203,0 0,-1.123047 0,-2.246094 0,-3.369141 -1.82878,0 -3.65755,0 -5.48633,0 0,-1.829427 0,-3.658854 0,-5.488281 -1.82943,0 -3.65885,0 -5.48828,0 0,-1.829427 0,-3.658854 0,-5.488281 -7.31706,0 -14.634114,0 -21.951171,0 0,-1.828776 0,-3.657552 0,-5.486328 -3.658203,0 -7.316407,-10e-7 -10.97461,0 0,-8.022787 0,-16.045573 0,-24.06836 4.363933,0 8.727865,0 13.091797,0 0,1.829427 0,3.658854 0,5.488281 1.123698,0 2.247396,0 3.371094,0 0,-1.829427 0,-3.658854 0,-5.488281 2.53516,0 5.07031,0 7.60547,0 0,1.829427 0,3.658854 0,5.488281 1.82877,0 3.65755,0 5.48633,0 0,1.828776 0,3.657552 0,5.486329 1.12369,0 2.24739,0 3.37109,0 0,-5.487631 0,-10.975261 0,-16.462891 1.82943,0 3.65885,0 5.48828,0 0,-2.952474 0,-5.904948 0,-8.857422 -1.82943,0 -3.65885,0 -5.48828,0 0,-2.535156 0,-5.070313 0,-7.605469 1.82943,0 3.65885,0 5.48828,0 0,-1.123047 0,-2.246094 0,-3.36914 -1.82943,0 -3.65885,0 -5.48828,0 0,-2.535157 0,-5.070313 0,-7.605469 3.6582,0 7.31641,0 10.97461,0 0,-1.123698 0,-2.247396 0,-3.371094 -1.82878,0 -3.65755,0 -5.48633,0 0,-2.5345051 0,-5.0690103 0,-7.6035155 4.36393,0 8.72787,0 13.0918,0 0,4.3639323 0,8.7278645 0,13.0917965 -1.82943,0 -3.65886,0 -5.48828,0 0,3.658203 0,7.316407 0,10.97461 -1.82878,0 -3.65755,0 -5.48633,0 0,1.123698 0,2.247396 0,3.371094 3.6582,0 7.31641,-10e-7 10.97461,0 0,1.829427 0,3.658854 0,5.488281 1.1237,0 2.24739,0 3.37109,0 0,-12.098959 0,-24.197917 0,-36.2968752 -12.09896,-10e-8 -24.19791,0 -36.296872,0 0,1.4765625 0,2.9531249 0,4.4296874 z M 5.2324219,4.703125 c 9.4928381,0 18.9856771,0 28.4785161,0 -10e-7,9.669271 0,19.338542 0,29.007813 -9.669271,-10e-7 -19.338542,0 -29.007813,0 0,-9.669271 0,-19.338542 0,-29.007813 0.1764323,0 0.3528646,0 0.5292969,0 z M 103.73633,9.9160156 c 2.35807,0 4.71614,0 7.07422,0 0,2.5351564 0,5.0703124 0,7.6054684 -2.53451,0 -5.06901,0 -7.60352,0 0,-2.535156 0,-5.070312 0,-7.6054684 0.17643,0 0.35287,0 0.5293,0 z M 12.033203,19.207031 c 0,2.390625 0,4.78125 0,7.171875 4.781901,0 9.563802,0 14.345703,0 0,-4.781901 0,-9.563802 0,-14.345703 -4.781901,0 -9.563802,0 -14.345703,0 0,2.391276 0,4.782552 0,7.173828 z m 32.925781,5.488281 c 0,4.220053 0,8.440105 0,12.660157 1.123698,0 2.247396,0 3.371094,0 0,-1.829427 0,-3.658854 0,-5.488281 2.535156,0 5.070313,-10e-7 7.605469,0 0,2.535156 0,5.070312 0,7.605468 -1.829427,0 -3.658854,0 -5.488281,0 0,4.781901 0,9.563802 0,14.345703 1.829427,0 3.658854,0 5.488281,0 0,1.828776 0,3.657552 0,5.486329 1.123047,0 2.246094,0 3.369141,0 0,-2.952474 -10e-7,-5.904948 0,-8.857422 -1.828777,0 -3.657553,0 -5.486329,0 0,-2.535157 0,-5.070313 0,-7.605469 1.828776,0 3.657552,0 5.486329,0 0,-1.828776 -10e-7,-3.657552 0,-5.486328 3.658854,0 7.317708,0 10.976562,0 0,-1.123698 0,-2.247396 0,-3.371094 -3.658854,0 -7.317708,0 -10.976562,0 -10e-7,-1.829427 0,-3.658854 0,-5.488281 -3.658204,0 -7.316407,0 -10.97461,0 0,-5.48763 0,-10.975261 0,-16.462891 -1.123698,0 -2.247396,0 -3.371094,0 0,4.220703 0,8.441406 0,12.662109 z m 10.976563,-5.488281 c 0.118925,0.509591 -0.247128,1.504159 0.2,1.685547 1.05638,0 2.11276,0 3.169141,0 0,-1.123698 -10e-7,-2.247396 0,-3.371094 -1.123047,0 -2.246094,0 -3.369141,0 0,0.561849 0,1.123698 0,1.685547 z m 16.462891,0 c 0.118924,0.509591 -0.247128,1.504159 0.2,1.685547 1.762109,0 3.524218,0 5.286328,0 0,1.828776 0,3.657552 0,5.486328 1.123698,0 2.247395,0 3.371093,0 0,-1.828776 0,-3.657552 0,-5.486328 1.829427,0 3.658855,0 5.488282,0 0,-1.123698 0,-2.247396 0,-3.371094 -4.781901,0 -9.563802,0 -14.345703,0 0,0.561849 -10e-7,1.123698 0,1.685547 z m -10.976563,5.488281 c 0.11922,0.508645 -0.247565,1.503295 0.2,1.683594 2.886458,0 5.772917,0 8.659375,0 0,-1.123047 0,-2.246094 0,-3.36914 -2.953125,0 -5.90625,0 -8.859375,0 0,0.561849 0,1.123698 0,1.685546 z m 31.337891,1.683594 c 6.016927,0 12.033854,0 18.050784,0 0,6.19336 0,12.386719 0,18.580078 -6.19336,0 -12.386722,0 -18.580081,0 0,-6.193359 0,-12.386718 0,-18.580078 0.176432,0 0.352864,0 0.529297,0 z m -20.361328,3.802735 c 0.118924,0.509591 -0.247128,1.504159 0.2,1.685546 1.05638,10e-7 2.11276,0 3.16914,10e-7 0,-1.123698 0,-2.247396 0,-3.371094 -1.123047,0 -2.246094,0 -3.36914,0 -10e-7,0.561849 0,1.123698 0,1.685547 z m 27.4375,5.488281 c 0.118924,0.509591 -0.247128,1.504159 0.200002,1.685547 1.05703,0 2.11406,0 3.17109,0 0,-1.123698 0,-2.247396 0,-3.371094 -1.1237,0 -2.24739,0 -3.371092,0 -10e-7,0.561849 0,1.123698 0,1.685547 z m 27.437502,5.488281 c 0,1.266927 0,2.533854 0,3.800781 -1.82878,0 -3.65755,0 -5.48633,0 0,2.953125 0,5.90625 0,8.859375 1.12305,0 2.24609,0 3.36914,0 0,-1.829427 0,-3.658854 0,-5.488281 1.82943,0 3.65885,0 5.48828,0 0,-2.952474 0,-5.904948 0,-8.857422 -1.1237,0 -2.24739,0 -3.37109,0 0,0.561849 0,1.123698 0,1.685547 z M 1.0585938,49.388672 c -10e-8,1.476562 0,2.953125 0,4.429687 1.829427,0 3.6588541,0 5.4882812,0 0,1.828776 0,3.657552 0,5.486329 1.1230469,-10e-7 2.2460937,0 3.3691406,0 0,-2.952474 0,-5.904948 0,-8.857422 -1.828776,0 -3.6575521,0 -5.4863281,0 0,-1.829427 0,-3.658855 0,-5.488282 -1.1236979,0 -2.2473958,0 -3.3710937,0 0,1.476563 -10e-8,2.953125 0,4.429688 z m 21.9511722,0 c 0,1.476562 0,2.953125 0,4.429687 1.828776,0 3.657552,0 5.486328,0 0,1.828776 0,3.657552 0,5.486329 2.953125,0 5.90625,-10e-7 8.859375,0 0,-1.123047 0,-2.246094 0,-3.369141 -1.829427,0 -3.658854,0 -5.488281,0 0,-2.535156 -10e-7,-5.070313 0,-7.605469 1.829427,0 3.658854,0 5.488281,0 0,-1.123698 0,-2.247396 0,-3.371094 -4.781901,0 -9.563802,0 -14.345703,0 0,1.476563 0,2.953125 0,4.429688 z m 43.90039,8.232422 c 0,4.220052 0,8.440104 0,12.660156 1.123698,0 2.247396,0 3.371094,0 0,-8.440755 0,-16.88151 0,-25.322266 -1.123698,0 -2.247396,0 -3.371094,0 0,4.220703 0,8.441407 0,12.66211 z m -49.388672,2.742187 c 0,2.182292 0,4.364584 0,6.546875 -1.829427,0 -3.658854,0 -5.488281,0 0,2.952474 0,5.904948 0,8.857422 1.123698,0 2.247396,0 3.371094,0 0,-1.828776 0,-3.657552 0,-5.486328 3.658203,0 7.316406,0 10.974609,0 0,-1.123698 0,-2.247396 0,-3.371094 -1.828776,0 -3.657552,0 -5.486328,0 0,-3.658203 0,-7.316406 0,-10.974609 -1.123698,0 -2.247396,0 -3.371094,0 0,1.475911 0,2.951823 0,4.427734 z m 27.4375,-2.742187 c 0.11922,0.508645 -0.247565,1.503294 0.2,1.683594 1.057032,0 2.114063,-10e-7 3.171094,0 0,-1.123047 0,-2.246094 0,-3.369141 -1.123698,0 -2.247396,0 -3.371094,0 0,0.561849 0,1.123698 0,1.685547 z m 54.876954,0 c -10e-7,1.266927 0,2.533854 0,3.800781 -1.829428,0 -3.658855,0 -5.488282,0 0,2.953125 0,5.90625 0,8.859375 1.123698,0 2.247396,0 3.371094,0 0,-1.829427 0,-3.658854 0,-5.488281 2.53516,0 5.07031,0 7.60547,0 0,1.829427 0,3.658854 0,5.488281 2.95247,0 5.90495,0 8.85742,0 0,-1.123698 0,-2.247396 0,-3.371094 -1.82943,0 -3.65885,0 -5.48828,0 0,-1.829427 0,-3.658854 0,-5.488281 -1.82878,0 -3.65755,0 -5.48633,0 0,-1.828776 0,-3.657552 0,-5.486328 -1.1237,0 -2.24739,0 -3.371092,0 0,0.561849 0,1.123698 0,1.685547 z m 27.437502,0 c 0.11922,0.508645 -0.24757,1.503294 0.2,1.683594 1.05703,-10e-7 2.11406,0 3.17109,0 0,-1.123047 0,-2.246094 0,-3.369141 -1.1237,0 -2.24739,0 -3.37109,0 0,0.561849 0,1.123698 0,1.685547 z M 1.0585938,63.107422 c 0.1189246,0.509591 -0.24712798,1.504159 0.1999999,1.685547 1.0570313,0 2.1140625,0 3.1710938,0 0,-1.123698 0,-2.247396 0,-3.371094 -1.1236979,0 -2.2473958,0 -3.3710937,0 0,0.561849 -10e-8,1.123698 0,1.685547 z m 49.3886722,2.74414 c 0,1.476563 0,2.953126 0,4.429688 1.123698,0 2.247395,0 3.371093,0 0,-2.953125 0,-5.90625 0,-8.859375 -1.123698,0 -2.247395,0 -3.371093,0 0,1.476563 0,2.953125 0,4.429687 z m -16.462891,2.744141 c 0.118925,0.509591 -0.247128,1.504159 0.2,1.685547 2.885807,0 5.771615,0 8.657422,0 0,-1.123698 0,-2.247396 0,-3.371094 -2.952474,0 -5.904948,0 -8.857422,0 0,0.561849 0,1.123698 0,1.685547 z m 87.802735,5.488281 c 0,2.390625 0,4.78125 0,7.171875 4.7819,0 9.5638,0 14.3457,0 0,-2.952474 0,-5.904948 0,-8.857421 -3.65885,-10e-7 -7.31771,0 -10.97656,0 0,-1.829428 0,-3.658855 0,-5.488282 -1.12305,0 -2.24609,0 -3.36914,0 0,2.391276 0,4.782552 0,7.173828 z m -120.7285162,0 c 0.1192196,0.508645 -0.24756505,1.503295 0.1999999,1.683594 1.0570313,0 2.1140625,0 3.1710938,0 0,-1.123047 0,-2.246094 0,-3.36914 -1.1236979,0 -2.2473958,-10e-7 -3.3710937,0 0,0.561848 0,1.123697 0,1.685546 z m 43.9003902,0 c 0.11922,0.508645 -0.247565,1.503295 0.2,1.683594 1.057032,0 2.114063,0 3.171094,0 0,-1.123047 0,-2.246094 0,-3.36914 -1.123698,0 -2.247396,-10e-7 -3.371094,0 0,0.561848 0,1.123697 0,1.685546 z m 16.462891,0 c 0,1.266927 0,2.533855 0,3.800782 -1.828776,0 -3.657552,0 -5.486328,0 0,2.953125 0,5.90625 0,8.859375 2.952474,0 5.904948,0 8.857422,0 0,-4.781901 0,-9.563802 0,-14.345703 -1.123698,0 -2.247396,-10e-7 -3.371094,0 0,0.561848 0,1.123697 0,1.685546 z m 20.363281,1.683594 c 2.358724,0 4.717448,0 7.076172,0 0,2.535156 0,5.070313 0,7.605469 -2.535156,0 -5.070312,0 -7.605469,0 0,-2.535156 0,-5.070313 0,-7.605469 0.176433,0 0.352865,0 0.529297,0 z M 6.546875,79.570312 c 0.1189246,0.509591 -0.2471279,1.50416 0.2,1.685547 1.0563802,0 2.1127604,0 3.1691406,0 0,-1.123698 0,-2.247395 0,-3.371093 -1.1230468,0 -2.2460937,0 -3.3691406,0 0,0.561849 0,1.123698 0,1.685546 z m 21.949219,0 c 0.118924,0.509591 -0.247128,1.50416 0.2,1.685547 2.886458,0 5.772916,0 8.659375,0 0,-1.123698 0,-2.247395 0,-3.371093 -2.953125,0 -5.90625,0 -8.859375,0 0,0.561849 0,1.123698 0,1.685546 z M 1.0585938,85.058594 c 0.1189246,0.509591 -0.24712798,1.504159 0.1999999,1.685547 1.0570313,0 2.1140625,0 3.1710938,0 0,-1.123698 0,-2.247396 0,-3.371094 -1.1236979,0 -2.2473958,0 -3.3710937,0 -10e-8,0.561849 0,1.123698 0,1.685547 z m 10.9746092,2.74414 c 0,1.475912 0,2.951823 0,4.427735 10.269531,0 20.539063,0 30.808594,0 0,-1.828776 0,-3.657552 0,-5.486328 1.829427,0 3.658854,0 5.488281,0 0,-1.123698 0,-2.247396 0,-3.371094 -2.952474,0 -5.904948,0 -8.857422,0 0,1.829427 0,3.658854 0,5.488281 -8.022786,0 -16.045573,0 -24.068359,0 0,-1.829427 0,-3.658854 0,-5.488281 -1.123698,0 -2.247396,0 -3.371094,0 0,1.476562 0,2.953125 0,4.429687 z m 38.414063,2.744141 c 0.119219,0.508645 -0.247565,1.503294 0.2,1.683594 1.057031,0 2.114062,0 3.171093,0 0,-1.123047 0,-2.246094 0,-3.369141 -1.123698,0 -2.247395,0 -3.371093,0 0,0.561849 0,1.123698 0,1.685547 z m 82.314454,0 c 0.11922,0.508645 -0.24757,1.503294 0.2,1.683594 1.05703,0 2.11406,0 3.17109,0 0,-1.123047 0,-2.246094 0,-3.369141 -1.1237,0 -2.24739,0 -3.37109,0 0,0.561849 0,1.123698 0,1.685547 z M 55.935547,101.52148 c 0,2.39063 0,4.78125 0,7.17188 4.781901,0 9.563802,0 14.345703,0 0,-2.95247 0,-5.90495 0,-8.857422 -1.123698,0 -2.247396,0 -3.371094,0 0,1.829422 0,3.658852 0,5.488282 -2.535156,0 -5.070312,0 -7.605468,0 -10e-7,-2.53516 -10e-7,-5.07031 0,-7.60547 1.829427,0 3.658854,0 5.488281,0 0,-1.123698 0,-2.247396 0,-3.371094 -2.952474,0 -5.904948,0 -8.857422,0 0,2.391276 0,4.782552 0,7.173824 z m 16.462891,-5.488277 c 0.118924,0.509591 -0.247128,1.504159 0.2,1.685547 1.05638,0 2.11276,0 3.16914,0 0,-1.123698 0,-2.247396 0,-3.371094 -1.123047,0 -2.246094,0 -3.36914,0 0,0.561849 -10e-7,1.123698 0,1.685547 z M 1.0585938,117.98438 c 0,6.04947 -10e-8,12.09895 0,18.14843 12.0989582,0 24.1979162,0 36.2968752,0 0,-12.09896 0,-24.19791 0,-36.296872 -12.098959,0 -24.197917,0 -36.2968752,0 0,6.049482 -10e-8,12.098962 0,18.148442 z m 43.9003902,-5.48829 c 0,4.22006 0,8.44011 0,12.66016 1.123698,0 2.247396,0 3.371094,0 0,-1.82878 0,-3.65755 0,-5.48633 3.658203,0 7.316406,0 10.97461,0 -10e-7,-1.1237 0,-2.24739 0,-3.37109 -1.828777,0 -3.657553,0 -5.486329,0 0,-1.82943 0,-3.65886 0,-5.48828 -1.829427,0 -3.658854,0 -5.488281,0 0,-3.65821 0,-7.31641 0,-10.974612 -1.123698,0 -2.247396,-10e-7 -3.371094,0 0,4.220052 0,8.440102 0,12.660152 z m 32.925782,-10.97461 c 0.118924,0.5096 -0.247128,1.50416 0.2,1.68555 1.057031,0 2.114062,0 3.171093,0 0,-1.1237 0,-2.24739 0,-3.371092 -1.123698,0 -2.247395,0 -3.371093,0 0,0.561852 0,1.123702 0,1.685542 z m 21.951172,16.4629 c 0,6.04947 -10e-7,12.09895 0,18.14843 12.098962,0 24.197912,0 36.296872,0 0,-12.09896 0,-24.19791 0,-36.296872 -12.09896,0 -24.19791,0 -36.296872,0 -10e-7,6.049482 0,12.098962 0,18.148442 z M 5.2324219,103.48047 c 9.4928381,0 18.9856771,0 28.4785161,0 0,9.66927 -10e-7,19.33854 0,29.00781 -9.669271,0 -19.338542,0 -29.007813,0 0,-9.66927 0,-19.33854 0,-29.00781 0.1764323,0 0.3528646,0 0.5292969,0 z m 98.7773481,0 c 9.49283,0 18.98567,0 28.47851,0 0,9.66927 0,19.33854 0,29.00781 -9.66927,0 -19.33854,0 -29.00781,0 0,-9.66927 0,-19.33854 0,-29.00781 0.17643,0 0.35286,0 0.5293,0 z m -91.976567,14.50391 c 0,2.39062 0,4.78124 0,7.17187 4.781901,0 9.563802,0 14.345703,0 0,-4.7819 0,-9.5638 0,-14.3457 -4.781901,0 -9.563802,0 -14.345703,0 0,2.39127 0,4.78255 0,7.17383 z m 98.777347,0 c 0,2.39062 0,4.78124 0,7.17187 4.7819,0 9.5638,0 14.3457,0 0,-4.7819 0,-9.5638 0,-14.3457 -4.7819,0 -9.5638,0 -14.3457,0 0,2.39127 0,4.78255 0,7.17383 z m -43.900394,0 c 0.118925,0.50959 -0.247128,1.50415 0.2,1.68554 1.762761,0 3.525521,0 5.288282,0 0,1.82878 0,3.65755 0,5.48633 1.123046,0 2.246093,0 3.36914,0 0,-2.95247 0,-5.90495 0,-8.85742 -2.952474,0 -5.904948,0 -8.857422,0 0,0.56185 0,1.1237 0,1.68555 z m -5.488281,5.48828 c 0.11922,0.50864 -0.247565,1.50329 0.2,1.68359 1.057031,0 2.114063,0 3.171094,0 0,-1.12305 0,-2.24609 0,-3.36914 -1.123698,0 -2.247396,0 -3.371094,0 0,0.56185 0,1.1237 0,1.68555 z m 27.439453,0 c 0.11922,0.50864 -0.247565,1.50329 0.2,1.68359 1.05638,0 2.112761,0 3.169141,0 0,-1.12305 0,-2.24609 0,-3.36914 -1.123047,0 -2.246094,0 -3.369141,0 0,0.56185 0,1.1237 0,1.68555 z m -38.414062,5.48632 c 0.118924,0.5096 -0.247128,1.50416 0.2,1.68555 1.057031,0 2.114062,0 3.171093,0 0,-1.1237 0,-2.24739 0,-3.37109 -1.123698,0 -2.247395,0 -3.371093,0 0,0.56185 0,1.1237 0,1.68554 z m 16.46289,0 c 0,1.26758 0,2.53516 0,3.80274 -1.829427,0 -3.658854,0 -5.488281,0 0,1.1237 0,2.24739 0,3.37109 10.269531,0 20.539062,0 30.808594,0 0,-1.1237 0,-2.24739 0,-3.37109 -7.316406,0 -14.632813,0 -21.949219,0 0,-1.82943 0,-3.65886 0,-5.48828 -1.123698,0 -2.247396,0 -3.371094,0 0,0.56185 0,1.1237 0,1.68554 z m -21.951172,5.48829 c 0.118925,0.50959 -0.247128,1.50415 0.2,1.68554 1.057032,0 2.114063,0 3.171094,0 0,-1.1237 0,-2.24739 0,-3.37109 -1.123698,0 -2.247396,0 -3.371094,0 0,0.56185 0,1.1237 0,1.68555 z" />
      <path
         style="fill:none"
         d="m 15.497023,15.402529 7.559524,-0.09449 0.09449,7.276041 -7.559523,0.09449 -0.283482,-5.764137 5.953124,0.377977 0.377977,4.063243 -4.441221,-0.188988 -0.09449,-2.645833 2.929316,0.09449 0.09449,1.417411 -1.606399,-0.377976"
         id="path888" />
      <path
         style="fill:none"
         d="m 25.513392,47.43601 h 3.496281 l -0.188989,3.590774 -3.023809,0.18899 -0.09449,-2.078871 1.795386,0.283482"
         id="path890" />
      <path
         style="fill:none"
         d="m 14.930059,113.86533 8.504464,-0.18899 0.09449,8.50446 -8.598958,-0.18899 -0.09449,-6.42559 h 7.181548 l 0.283482,5.00818 -6.236607,-0.28348 -0.188988,-3.59077 5.197172,0.0945 0.09449,2.92932 -4.346726,-0.28349 0.566964,-1.5119 2.645834,-0.0945 -0.377976,0.94494"
         id="path892" />
      <path
         style="fill:none"
         d="m 47.530506,113.39286 h 4.063243 l -0.09449,3.96875 h -4.346728 l 0.188989,-2.83483 3.307292,-0.18899 -0.18899,2.36236 -2.078868,-0.37798 -0.09449,-0.56696 1.133927,-0.37798"
         id="path894" />
      <path
         style="fill:none"
         d="m 85.895089,107.62872 3.496278,0.18899 0.661458,3.77976 -3.685267,0.0945 -0.09449,-2.36235 1.606399,0.37798"
         id="path896" />
      <path
         style="fill:none"
         d="m 91.281249,79.941964 4.063243,0.28348 -0.283482,9.354912 -1.511904,-0.188989 0.377976,-8.031993 -1.606399,-0.283483 -0.661458,8.031994"
         id="path898" />
      <path
         style="fill:none"
         d="m 58.775298,80.508926 3.307291,-0.283482 -0.0945,3.96875 -3.212795,-0.28348 -0.377979,-2.078871 1.984375,0.0945"
         id="path900" />
      <path
         style="fill:none"
         d="m 107.72321,80.508926 h 3.77976 l -0.28348,4.252233 0.47247,1.322917 h 5.95313 l -0.37798,3.212798 -9.5439,0.377976 v -7.276042 l 1.98438,-0.283482 0.18899,5.480655 6.70907,0.188987"
         id="path902" />
      <path
         style="fill:none"
         d="m 107.72321,89.67485 3.96875,-3.590774"
         id="path904" />
      <path
         style="fill:none"
         d="m 124.16518,74.744791 9.35491,0.188986 0.18898,3.96875 -9.54389,-0.472469 0.18899,-2.078868 7.74851,0.283482"
         id="path906" />
      <path
         style="fill:none"
         d="m 107.81771,47.530506 h 3.49628 v 3.496278 h -3.77977 v -1.511903 l 2.26786,-0.283482"
         id="path908" />
      <path
         style="fill:none"
         d="m 113.58184,36.002232 3.96875,0.09449 -0.37797,4.063244 -3.68527,0.0945 -0.18899,-2.929316 3.02381,0.188986 -0.0945,1.228424 -1.22843,-0.09449"
         id="path910" />
      <path
         style="fill:none"
         d="m 129.64583,20.221726 4.25223,0.09449 v 8.693453 l -3.68527,0.09449 -0.66145,-7.181547 h 3.30729 l -0.18899,6.04762 -1.70089,-0.377979 0.56696,-4.346725"
         id="path912" />
      <path
         style="fill:none"
         d="m 96.572915,14.835565 3.496275,-0.283482 0.37798,5.480655 10.96131,-0.09449 -0.28348,3.496279 -14.079615,0.09449 -0.188987,-6.520089 1.795386,0.09449 0.377976,4.724703 10.67783,0.09449"
         id="path914" />
      <path
         style="fill:none"
         d="m 97.045385,23.529017 3.401785,-3.496279"
         id="path916" />
      <path
         style="fill:none"
         d="m 102.24256,3.7797618 15.11905,-0.094494 -0.18899,9.0714282 -3.59078,0.188988 -0.0945,-5.1971722 -10.86682,-0.1889881 v -2.173363 l 12.66221,0.094494 0.0945,6.3311013"
         id="path918" />
      <path
         style="fill:none"
         d="m 117.36161,3.6852677 -3.87427,4.063244"
         id="path920" />
      <path
         style="fill:none"
         d="m 113.95707,114.22152 8.21854,0.0668 -0.13364,7.48354 -7.88445,-0.33408 v -5.87993 l 7.28309,-0.13364 -0.33409,4.87767 -5.61265,-0.20045 0.13363,-3.34087 4.87767,0.33409 -0.80181,1.60362 -2.27179,-0.735"
         id="path944" />
    </g>
  </g>
</svg>
