<?xml version="1.0" encoding="UTF-8" standalone="no"?>
<svg
   xmlns:dc="http://purl.org/dc/elements/1.1/"
   xmlns:cc="http://creativecommons.org/ns#"
   xmlns:rdf="http://www.w3.org/1999/02/22-rdf-syntax-ns#"
   xmlns:svg="http://www.w3.org/2000/svg"
   xmlns="http://www.w3.org/2000/svg"
   xmlns:sodipodi="http://sodipodi.sourceforge.net/DTD/sodipodi-0.dtd"
   xmlns:inkscape="http://www.inkscape.org/namespaces/inkscape"
   width="570mm"
   height="870mm"
   viewBox="0 0 570 870"
   version="1.1"
   id="svg3486"
   inkscape:version="1.0 (4035a4fb49, 2020-05-01)"
   sodipodi:docname="s2021-makerspace-closed.svg">
  <defs
     id="defs3480" />
  <sodipodi:namedview
     id="base"
     pagecolor="#ffffff"
     bordercolor="#666666"
     borderopacity="1.0"
     inkscape:pageopacity="0.0"
     inkscape:pageshadow="2"
     inkscape:zoom="0.98994949"
     inkscape:cx="1712.2564"
     inkscape:cy="2915.8622"
     inkscape:document-units="mm"
     inkscape:current-layer="g3052"
     inkscape:document-rotation="0"
     showgrid="false"
     inkscape:window-width="1920"
     inkscape:window-height="1017"
     inkscape:window-x="-8"
     inkscape:window-y="-8"
     inkscape:window-maximized="1" />
  <metadata
     id="metadata3483">
    <rdf:RDF>
      <cc:Work
         rdf:about="">
        <dc:format>image/svg+xml</dc:format>
        <dc:type
           rdf:resource="http://purl.org/dc/dcmitype/StillImage" />
        <dc:title />
      </cc:Work>
    </rdf:RDF>
  </metadata>
  <g
     inkscape:label="3red"
     inkscape:groupmode="layer"
     id="layer1"
     style="display:inline">
    <g
       aria-label="OPEN TO ALL STUDENTS,  STAFF, &amp; FACULTY!"
       id="text835"
       style="font-size:31.7291px;line-height:1.25;font-family:sans-serif;text-align:center;text-anchor:middle;stroke-width:0.743649" />
    <text
       id="text1186"
       y="150.8882"
       x="287.11874"
       style="font-size:21.1667px;line-height:1.25;font-family:sans-serif;fill:#ff4444;fill-opacity:1;stroke-width:0.264583"
       xml:space="preserve"><tspan
         style="font-style:normal;font-variant:normal;font-weight:normal;font-stretch:normal;font-size:28.2222px;font-family:'Eras Bold ITC';-inkscape-font-specification:'Eras Bold ITC';text-align:center;text-anchor:middle;fill:#ff4444;fill-opacity:1;stroke-width:0.264583"
         y="150.8882"
         x="287.11874"
         id="tspan1184"
         sodipodi:role="line">IGN120 • COMM150</tspan><tspan
         id="tspan1188"
         style="font-style:normal;font-variant:normal;font-weight:normal;font-stretch:normal;font-size:21.1667px;font-family:'Eras Bold ITC';-inkscape-font-specification:'Eras Bold ITC';text-align:center;text-anchor:middle;fill:#ff4444;fill-opacity:1;stroke-width:0.264583"
         y="180.32443"
         x="287.11874"
         sodipodi:role="line">Designing and Communicating </tspan><tspan
         id="tspan1218"
         style="font-style:normal;font-variant:normal;font-weight:normal;font-stretch:normal;font-size:21.1667px;font-family:'Eras Bold ITC';-inkscape-font-specification:'Eras Bold ITC';text-align:center;text-anchor:middle;fill:#ff4444;fill-opacity:1;stroke-width:0.264583"
         y="207.08351"
         x="287.11874"
         sodipodi:role="line">Innovation</tspan></text>
    <g
       transform="translate(1.8496066e-6,4.1399863)"
       id="g1208">
      <text
         xml:space="preserve"
         style="font-size:28.2222px;line-height:1.25;font-family:sans-serif;stroke-width:0.264583"
         x="112.49731"
         y="235.85713"
         id="text1192"><tspan
           sodipodi:role="line"
           id="tspan1190"
           x="112.49731"
           y="235.85713"
           style="font-style:normal;font-variant:normal;font-weight:bold;font-stretch:normal;font-size:28.2222px;font-family:sans-serif;-inkscape-font-specification:'sans-serif Bold';stroke-width:0.264583">Makerspace is Closed </tspan></text>
      <text
         xml:space="preserve"
         style="font-size:38.8056px;line-height:1.25;font-family:sans-serif;stroke-width:0.264583"
         x="124.37741"
         y="309.25516"
         id="text1196"><tspan
           sodipodi:role="line"
           id="tspan1194"
           x="124.37741"
           y="309.25516"
           style="font-style:normal;font-variant:normal;font-weight:bold;font-stretch:normal;font-size:38.8056px;font-family:'Berlin Sans FB Demi';-inkscape-font-specification:'Berlin Sans FB Demi Bold';stroke-width:0.264583">4:00 PM - 5:30 PM</tspan></text>
      <text
         xml:space="preserve"
         style="font-size:28.2222px;line-height:1.25;font-family:sans-serif;stroke-width:0.264583"
         x="184.14146"
         y="269.7923"
         id="text1200"><tspan
           sodipodi:role="line"
           id="tspan1198"
           x="184.14146"
           y="269.7923"
           style="font-style:normal;font-variant:normal;font-weight:bold;font-stretch:normal;font-size:28.2222px;font-family:sans-serif;-inkscape-font-specification:'sans-serif Bold';stroke-width:0.264583">During Class</tspan></text>
    </g>
    <rect
       y="297.14645"
       x="-571.27002"
       height="297"
       width="430"
       id="rect1210"
       style="fill:none;fill-opacity:1;stroke:#000000;stroke-width:3;stroke-linecap:round;stroke-linejoin:round;stroke-miterlimit:4;stroke-dasharray:none;stroke-opacity:1" />
    <text
       id="text1214"
       y="401.42239"
       x="289.73874"
       style="font-size:37.0417px;line-height:1.25;font-family:sans-serif;fill:#00cb32;fill-opacity:1;stroke-width:0.264583"
       xml:space="preserve"><tspan
         style="font-style:normal;font-variant:normal;font-weight:bold;font-stretch:normal;font-size:37.0417px;font-family:sans-serif;-inkscape-font-specification:'sans-serif Bold';text-align:center;text-anchor:middle;fill:#00cb32;fill-opacity:1;stroke-width:0.264583"
         y="401.42239"
         x="289.73874"
         id="tspan1212"
         sodipodi:role="line">Please stop by after </tspan><tspan
         id="tspan1216"
         style="font-style:normal;font-variant:normal;font-weight:bold;font-stretch:normal;font-size:37.0417px;font-family:sans-serif;-inkscape-font-specification:'sans-serif Bold';text-align:center;text-anchor:middle;fill:#00cb32;fill-opacity:1;stroke-width:0.264583"
         y="447.72452"
         x="289.73874"
         sodipodi:role="line">class is dismissed!</tspan></text>
  </g>
  <g
     inkscape:groupmode="layer"
     id="layer6"
     inkscape:label="2blue"
     style="display:inline" />
  <g
     inkscape:groupmode="layer"
     id="layer5"
     inkscape:label="1black"
     style="display:inline">
    <g
       transform="matrix(2.8106463,0,0,2.8106463,-19.78032,-49.493062)"
       id="g915">
      <g
         aria-label="Makerspace"
         id="text835-9"
         style="font-style:normal;font-variant:normal;font-weight:normal;font-stretch:normal;font-size:38.4443px;line-height:1.25;font-family:'Harlow Solid Italic';-inkscape-font-specification:'Harlow Solid Italic, ';stroke-width:0.320369">
        <path
           d="m 50.752585,42.917671 h 3.041005 q 2.609256,0 2.609256,1.783305 0,1.276471 -0.91981,1.989793 -0.901038,0.713322 -2.552942,0.713322 h -3.56661 q -1.952249,0 -3.022232,-0.80718 -1.051212,-0.825952 -1.051212,-2.346454 0,-0.976125 0.788409,-2.853288 l 4.824309,-11.300522 -3.622925,3.885727 q -1.295242,1.407873 -2.459083,1.407873 -1.520503,0 -1.971022,-2.083651 l -0.525605,-2.327683 -4.580279,11.300522 q -2.365225,5.819206 -3.604153,7.902857 -1.238928,2.102423 -3.209949,3.641697 -2.853288,2.215052 -6.551299,2.215052 -3.942043,0 -6.401127,-2.496627 -2.459083,-2.477855 -2.459083,-6.476212 0,-5.237286 3.866956,-9.216872 2.083651,-2.121194 5.199742,-3.416437 3.116091,-1.314014 6.138323,-1.314014 1.539274,0 2.459084,0.657007 0.91981,0.657007 0.91981,1.745762 0,1.14507 -0.976125,1.858392 -0.563149,0.412975 -2.177509,0.563149 -3.735555,0.337889 -6.025694,1.708218 -1.895935,1.14507 -3.022233,2.984689 -1.107526,1.83962 -1.107526,3.848185 0,2.139966 1.088755,3.360122 1.088754,1.238928 2.984689,1.238928 2.271368,0 3.942043,-1.95225 1.689447,-1.933478 3.698011,-6.851646 l 7.452338,-18.339884 q 0.976125,-2.42154 2.628028,-2.42154 1.051212,0 1.651904,0.675779 0.619464,0.675778 1.069983,2.365225 l 1.14507,4.317475 5.631489,-5.537631 q 1.858392,-1.820848 3.472752,-1.820848 1.126298,0 1.895935,0.69455 0.788408,0.675779 0.788408,1.651904 0,0.619464 -0.300346,1.351557 l -0.431747,1.051212 z"
           style="font-style:normal;font-variant:normal;font-weight:normal;font-stretch:normal;font-size:38.4443px;font-family:'Harlow Solid Italic';-inkscape-font-specification:'Harlow Solid Italic, ';stroke-width:0.320369"
           id="path5392" />
        <path
           d="m 71.28875,43.311875 h 2.06488 q 2.365226,0 2.365226,1.651904 0,1.145069 -0.844724,1.802076 -0.844723,0.638236 -2.327682,0.638236 h -2.402769 q -1.61436,0 -2.196281,-1.257699 -1.407872,1.257699 -2.721887,1.257699 h -2.139966 q -2.064879,0 -3.34135,-1.464187 -1.257699,-1.482959 -1.257699,-3.866957 0,-3.604153 2.477855,-6.438669 2.496627,-2.853288 5.63149,-2.853288 2.402768,0 3.510295,1.670675 0.938581,-1.407872 2.459083,-1.407872 0.825952,0 1.37033,0.525605 0.563149,0.525606 0.563149,1.295243 0,0.525606 -0.300347,1.257699 l -0.206488,0.506834 z m -6.814102,0.09386 h 0.469291 q 1.539274,0 2.046108,-1.257699 l 1.314014,-3.247492 q 0.262803,-0.638236 0.262803,-1.069983 0,-0.506834 -0.506834,-0.882267 -0.488063,-0.375433 -1.182613,-0.375433 -1.370329,0 -2.665572,1.595589 -1.295242,1.595589 -1.295242,3.303807 0,1.933478 1.558045,1.933478 z"
           style="font-style:normal;font-variant:normal;font-weight:normal;font-stretch:normal;font-size:38.4443px;font-family:'Harlow Solid Italic';-inkscape-font-specification:'Harlow Solid Italic, ';stroke-width:0.320369"
           id="path5394" />
        <path
           d="m 87.8641,39.463691 2.909603,4.561506 q 0.544377,0.844724 0.544377,1.389101 0,0.863495 -0.732093,1.558045 -0.713322,0.694551 -1.614361,0.694551 -0.788408,0 -1.370329,-0.844724 l -0.225259,-0.337889 -4.355019,-6.513756 -2.102423,5.199742 q -1.013668,2.496627 -2.965917,2.496627 -0.807181,0 -1.37033,-0.488063 -0.544377,-0.506834 -0.544377,-1.220156 0,-0.544377 0.300346,-1.257699 l 0.206488,-0.506834 8.034259,-19.804072 0.206488,-0.506834 q 0.863495,-2.102422 2.759429,-2.102422 0.788409,0 1.351558,0.525605 0.563149,0.525606 0.563149,1.2577 0,0.563149 -0.300346,1.295242 l -0.206488,0.506834 -4.786766,11.788585 4.223617,-3.134862 q 1.314014,-0.976125 2.252596,-0.976125 0.788408,0 1.314014,0.506834 0.525605,0.506834 0.525605,1.257699 0,1.257699 -1.3891,2.290139 l -0.431748,0.319118 z"
           style="font-style:normal;font-variant:normal;font-weight:normal;font-stretch:normal;font-size:38.4443px;font-family:'Harlow Solid Italic';-inkscape-font-specification:'Harlow Solid Italic, ';stroke-width:0.320369"
           id="path5396" />
        <path
           d="m 97.437632,41.904003 q 0,1.407872 2.121194,1.407872 H 105.134 q 2.36523,0 2.36523,1.670675 0,1.14507 -0.84473,1.783305 -0.82595,0.638236 -2.32768,0.638236 h -5.312371 q -2.965918,0 -4.523963,-1.464187 -1.539274,-1.464188 -1.539274,-4.279932 0,-3.622925 2.440312,-6.250954 2.459084,-2.628028 5.837976,-2.628028 2.45909,0 3.94204,1.295242 1.50173,1.276471 1.50173,3.378894 0,2.53417 -2.06487,3.754326 -1.14507,0.694551 -3.41644,0.694551 z m 0.901038,-3.416437 h 2.06488 q 2.00856,0 1.95225,-0.882267 -0.0563,-0.994896 -1.29524,-0.994896 -1.726993,0 -2.72189,1.877163 z"
           style="font-style:normal;font-variant:normal;font-weight:normal;font-stretch:normal;font-size:38.4443px;font-family:'Harlow Solid Italic';-inkscape-font-specification:'Harlow Solid Italic, ';stroke-width:0.320369"
           id="path5398" />
        <path
           d="m 112.94301,37.15478 -0.63824,1.576817 q -0.8635,2.102423 -2.2526,2.102423 -0.84472,0 -1.40787,-0.506834 -0.56315,-0.506834 -0.56315,-1.2577 0,-0.431747 0.41298,-1.464187 l 2.12119,-5.237285 q 0.76964,-1.895935 2.17751,-1.895935 1.3891,0 1.70822,1.314014 l 0.15017,0.581921 q 0.11263,0.450519 0.33789,0.563149 0.22526,0.11263 1.10753,0.11263 h 4.39256 q 2.45909,0 2.45909,1.72699 0,2.383997 -3.1161,2.383997 l -0.20648,0.187716 q -2.98469,2.853288 -2.98469,4.411334 0,1.558045 1.72699,1.558045 h 2.36522 q 2.384,0 2.384,1.651904 0,1.163841 -0.84472,1.802076 -0.82596,0.638236 -2.32769,0.638236 h -3.67924 q -1.87716,0 -3.07854,-1.295243 -1.18262,-1.295242 -1.18262,-3.360122 0,-1.314014 0.63824,-2.552942 0.63823,-1.238927 2.2526,-3.041004 z"
           style="font-style:normal;font-variant:normal;font-weight:normal;font-stretch:normal;font-size:38.4443px;font-family:'Harlow Solid Italic';-inkscape-font-specification:'Harlow Solid Italic, ';stroke-width:0.320369"
           id="path5400" />
        <path
           d="m 130.19413,38.168448 -0.35666,0.863495 q -0.82595,1.858392 -2.34646,1.858392 -0.76963,0 -1.3891,-0.525606 -0.60069,-0.544377 -0.60069,-1.238928 0,-0.657007 0.54438,-1.745761 l 2.49662,-5.068341 q 0.91981,-1.820848 2.29014,-1.820848 0.7321,0 1.2577,0.488062 0.52561,0.469291 0.52561,1.126298 0,0.168945 -0.11263,0.732094 -0.0751,0.412976 -0.0751,0.732093 0,1.182613 0.88227,2.421541 l 1.06998,1.482959 q 1.63313,2.271367 1.63313,4.392562 0,2.365225 -1.76453,3.960814 -1.76453,1.576817 -4.39256,1.576817 h -3.92327 q -2.384,0 -2.384,-1.651904 0,-1.145069 0.84472,-1.783305 0.84473,-0.657007 2.32769,-0.657007 h 2.17751 q 2.60925,0 2.60925,-1.895935 0,-0.69455 -0.48806,-1.633132 z"
           style="font-style:normal;font-variant:normal;font-weight:normal;font-stretch:normal;font-size:38.4443px;font-family:'Harlow Solid Italic';-inkscape-font-specification:'Harlow Solid Italic, ';stroke-width:0.320369"
           id="path5402" />
        <path
           d="m 141.45711,45.939904 -4.8994,12.051387 q -1.01366,2.496627 -2.96591,2.496627 -0.75087,0 -1.27648,-0.506834 -0.54437,-0.488062 -0.54437,-1.182613 0,-0.58192 0.46929,-1.764533 l 9.04792,-22.300698 q 0.69456,-1.689447 2.40277,-1.689447 1.18262,0 1.87717,1.126298 1.31401,-1.389101 3.20995,-1.389101 1.97102,0 3.1724,1.50173 1.22016,1.482959 1.22016,3.923271 0,4.617822 -2.87206,7.527425 -0.93858,0.957353 -1.93348,1.314014 -0.9949,0.356661 -2.7782,0.356661 -1.91471,0 -2.6468,-0.262803 -0.71332,-0.262803 -1.48296,-1.201384 z m 1.53927,-3.829413 q 0.46929,0.825952 0.88227,1.069983 0.43175,0.244031 1.35156,0.244031 1.33278,0 2.08365,-0.994897 1.5205,-2.008564 1.5205,-4.129758 0,-1.820849 -1.72699,-1.820849 -1.89593,0 -2.72189,2.196281 -0.0939,0.244031 -0.15017,0.412976 z"
           style="font-style:normal;font-variant:normal;font-weight:normal;font-stretch:normal;font-size:38.4443px;font-family:'Harlow Solid Italic';-inkscape-font-specification:'Harlow Solid Italic, ';stroke-width:0.320369"
           id="path5404" />
        <path
           d="m 167.02406,43.311875 h 2.06488 q 2.36523,0 2.36523,1.651904 0,1.145069 -0.84472,1.802076 -0.84473,0.638236 -2.32769,0.638236 h -2.40277 q -1.61436,0 -2.19628,-1.257699 -1.40787,1.257699 -2.72188,1.257699 h -2.13997 q -2.06488,0 -3.34135,-1.464187 -1.2577,-1.482959 -1.2577,-3.866957 0,-3.604153 2.47786,-6.438669 2.49662,-2.853288 5.63149,-2.853288 2.40276,0 3.51029,1.670675 0.93858,-1.407872 2.45908,-1.407872 0.82596,0 1.37033,0.525605 0.56315,0.525606 0.56315,1.295243 0,0.525606 -0.30034,1.257699 l -0.20649,0.506834 z m -6.8141,0.09386 h 0.46929 q 1.53928,0 2.04611,-1.257699 l 1.31401,-3.247492 q 0.26281,-0.638236 0.26281,-1.069983 0,-0.506834 -0.50684,-0.882267 -0.48806,-0.375433 -1.18261,-0.375433 -1.37033,0 -2.66557,1.595589 -1.29524,1.595589 -1.29524,3.303807 0,1.933478 1.55804,1.933478 z"
           style="font-style:normal;font-variant:normal;font-weight:normal;font-stretch:normal;font-size:38.4443px;font-family:'Harlow Solid Italic';-inkscape-font-specification:'Harlow Solid Italic, ';stroke-width:0.320369"
           id="path5406" />
        <path
           d="m 182.90488,47.404091 h -5.44377 q -2.34646,0 -3.82942,-1.651904 -1.46418,-1.651903 -1.46418,-4.279932 0,-3.510295 2.42154,-6.10078 2.42154,-2.590485 5.6878,-2.590485 2.21505,0 3.60415,1.238928 1.3891,1.238927 1.3891,3.22872 0,1.389101 -0.69455,2.290139 -0.69455,0.882267 -1.7833,0.882267 -1.72699,0 -1.72699,-1.61436 0,-0.244032 0,-0.412976 0.0188,-0.206488 0.0188,-0.394205 0,-1.314014 -1.29524,-1.314014 -1.22016,0 -2.23383,1.295243 -0.99489,1.295242 -0.99489,2.890831 0,1.332786 0.80718,1.895935 0.82595,0.544377 2.7782,0.544377 h 3.54784 q 2.38399,0 2.38399,1.670675 0,1.126298 -0.86349,1.783305 -0.84472,0.638236 -2.30891,0.638236 z"
           style="font-style:normal;font-variant:normal;font-weight:normal;font-stretch:normal;font-size:38.4443px;font-family:'Harlow Solid Italic';-inkscape-font-specification:'Harlow Solid Italic, ';stroke-width:0.320369"
           id="path5408" />
        <path
           d="m 191.29579,41.904003 q 0,1.407872 2.12119,1.407872 h 5.57518 q 2.36522,0 2.36522,1.670675 0,1.14507 -0.84472,1.783305 -0.82595,0.638236 -2.32769,0.638236 h -5.31237 q -2.96591,0 -4.52396,-1.464187 -1.53927,-1.464188 -1.53927,-4.279932 0,-3.622925 2.44031,-6.250954 2.45908,-2.628028 5.83798,-2.628028 2.45908,0 3.94204,1.295242 1.50173,1.276471 1.50173,3.378894 0,2.53417 -2.06488,3.754326 -1.14507,0.694551 -3.41644,0.694551 z m 0.90103,-3.416437 h 2.06488 q 2.00857,0 1.95225,-0.882267 -0.0563,-0.994896 -1.29524,-0.994896 -1.72699,0 -2.72189,1.877163 z"
           style="font-style:normal;font-variant:normal;font-weight:normal;font-stretch:normal;font-size:38.4443px;font-family:'Harlow Solid Italic';-inkscape-font-specification:'Harlow Solid Italic, ';stroke-width:0.320369"
           id="path5410" />
      </g>
    </g>
    <g
       style="display:inline;stroke-width:1.00013;stroke-miterlimit:4;stroke-dasharray:none"
       transform="matrix(2.8106463,0,0,2.8106463,-2.4936083,61.114563)"
       id="g4220">
      <g
         style="stroke-width:1.00013;stroke-miterlimit:4;stroke-dasharray:none"
         id="g986"
         transform="translate(-12.801791,11.267316)">
        <path
           style="fill:#000000;stroke-width:1.00013;stroke-miterlimit:4;stroke-dasharray:none"
           d="m 150.35656,197.32505 v -6.76187 h 6.76187 6.76187 v 6.76187 6.76187 h -6.76187 -6.76187 z m 11.49519,0 v -4.73332 h -4.73332 -4.73331 v 4.73332 4.73331 h 4.73331 4.73332 z m -7.63126,0 v -2.89795 h 2.89794 2.89795 v 2.89795 2.89794 h -2.89795 -2.89794 z m 11.59178,5.79589 v -0.96598 h 2.89794 2.89795 v -1.93197 -1.93196 h -0.96598 -0.96599 v 0.96598 0.96598 h -1.93196 -1.93196 v -3.86392 -3.86393 h 0.96598 0.96598 v -0.96598 -0.96598 h -0.96598 -0.96598 v -1.93197 -1.93196 h -0.96598 -0.96599 v 0.96598 0.96598 h -1.93196 -1.93196 v -1.93196 -1.93196 h 0.96598 0.96598 v -0.96599 -0.96598 h 0.96598 0.96598 v 0.96598 0.96599 h 0.96599 0.96598 v -0.96599 -0.96598 h 5.79589 5.79589 v 0.96598 0.96599 h 0.96598 0.96598 v -0.96599 -0.96598 h 2.89795 2.89794 v 0.96598 0.96599 h -0.96598 -0.96598 v 0.96598 0.96598 h 3.86392 3.86393 v -0.96598 -0.96598 h -0.96598 -0.96598 v -0.96599 -0.96598 h -0.96598 -0.96599 v -0.96598 -0.96598 h -0.96598 -0.96598 v -1.93196 -1.93197 h -4.82991 -4.82991 v -0.96598 -0.96598 h -0.96598 -0.96598 v 1.93196 1.93197 h 4.82991 4.82991 v 0.96598 0.96598 h -4.82991 -4.82991 v -0.96598 -0.96598 h -0.96598 -0.96598 v 0.96598 0.96598 h -0.96598 -0.96599 v -0.96598 -0.96598 h -1.93196 -1.93196 v -2.89795 -2.89794 h 0.96598 0.96598 v -0.96599 -0.96598 h -0.96598 -0.96598 v -5.7959 -5.79589 h 0.96598 0.96598 v -1.93196 -1.93197 h 2.89795 2.89794 v 0.96599 0.96598 h 0.96598 0.96598 v -0.96598 -0.96599 h 0.96599 0.96598 v 0.96599 0.96598 h -0.96598 -0.96599 v 0.96598 0.96598 h -0.96598 -0.96598 v 1.93196 1.93197 h -0.96598 -0.96598 v -1.93197 -1.93196 h -0.96598 -0.96599 v 0.96598 0.96598 h -0.96598 -0.96598 v 0.96599 0.96598 h 0.96598 0.96598 v 0.96598 0.96598 h 1.93197 1.93196 v 0.96599 0.96599 h 0.96598 0.96598 v 1.93196 1.93196 h 0.96599 0.96598 v -1.93196 -1.93196 h 0.96598 0.96598 v -0.96599 -0.96599 h -0.96598 -0.96598 v -1.93196 -1.93197 h 0.96598 0.96598 v -1.93196 -1.93196 h 0.96598 0.96598 v -0.96598 -0.96599 h 0.96599 0.96598 v 1.93197 1.93196 h -0.96598 -0.96599 v 0.96598 0.96598 h 0.96599 0.96598 v 0.96599 0.96598 h -1.93197 -1.93196 v 0.96598 0.96598 h 0.96598 0.96598 v 0.96599 0.96599 h 0.96599 0.96598 v 2.89794 2.89795 h 0.96598 0.96598 v -0.96599 -0.96598 h 4.82991 4.82991 v 0.96598 0.96599 h 0.96599 0.96598 v 0.96598 0.96598 h 0.96598 0.96599 v 2.89794 2.89795 h -0.96599 -0.96598 v 0.96598 0.96598 h 0.96598 0.96599 v 1.93197 1.93196 h -0.96599 -0.96598 v -0.96598 -0.96598 h -0.96598 -0.96599 v -1.93197 -1.93196 h -0.96597 -0.96598 v 2.89794 2.89795 h 0.96598 0.96597 v 1.93196 1.93197 h 1.93197 1.93197 v 6.76187 6.76187 h -6.76189 -6.76187 v -0.96598 -0.96598 h -1.93196 -1.93197 v -0.96599 -0.96598 h -0.96598 -0.96598 v 0.96598 0.96599 h -0.96598 -0.96598 v -0.96599 -0.96598 h 0.96598 0.96598 v -0.96598 -0.96598 h 1.93196 1.93197 v -0.96598 -0.96598 h -2.89795 -2.89794 v -0.96599 -0.96598 h -0.96598 -0.96599 v 0.96598 0.96599 h -0.96598 -0.96598 v -1.93197 -1.93196 h 0.96598 0.96598 v -0.96598 -0.96598 h -0.96598 -0.96598 v -0.96599 -0.96598 h -0.96598 -0.96598 v 1.93197 1.93196 h -0.96598 -0.96599 v 0.96598 0.96598 h 0.96599 0.96598 v 1.93197 1.93196 h 1.93196 1.93196 v 0.96598 0.96598 h -0.96598 -0.96598 v 1.93197 1.93196 h -3.86393 -3.86392 z m 21.25159,-2.89795 v -1.93196 h 0.96599 0.96598 v 0.96598 0.96598 h 1.93196 1.93198 v 0.96598 0.96599 h 1.93195 1.93197 v -1.93197 -1.93196 h -0.96598 -0.96599 v 0.96598 0.96598 h -0.96597 -0.96598 v -1.93196 -1.93196 h -0.966 -0.96598 v 0.96598 0.96598 h -0.96598 -0.96598 v -0.96598 -0.96598 h -0.96598 -0.96599 v 0.96598 0.96598 h -1.93196 -1.93196 v 0.96598 0.96598 h 0.96598 0.96598 v 0.96598 0.96599 h 0.96598 0.96598 z m -7.72785,-6.76187 v -0.96598 h 0.96598 0.96598 v -0.96598 -0.96598 h -0.96598 -0.96598 v -0.96599 -0.96598 h 0.96598 0.96598 v -1.93196 -1.93196 h -0.96598 -0.96598 v 0.96598 0.96598 h -0.96598 -0.96598 v -0.96598 -0.96598 h -1.93197 -1.93196 v 1.93196 1.93196 h 1.93196 1.93197 v 0.96598 0.96599 h 0.96598 0.96598 v 0.96598 0.96598 h -0.96598 -0.96598 v 0.96598 0.96598 h 0.96598 0.96598 z m 9.65982,-1.93196 v -2.89795 h -2.89795 -2.89794 v 2.89795 2.89794 h 2.89794 2.89795 z m -3.86393,0 v -0.96598 h 0.96598 0.96598 v 0.96598 0.96598 h -0.96598 -0.96598 z m 9.65982,1.93196 v -0.96598 h -0.96597 -0.96598 v 0.96598 0.96598 h 0.96598 0.96597 z m -25.11553,-3.86393 v -0.96598 h 0.96599 0.96598 v -1.93196 -1.93196 h -0.96598 -0.96599 v 1.93196 1.93196 h -0.96598 -0.96598 v 0.96598 0.96599 h 0.96598 0.96598 z m 23.18358,-1.93196 v -0.96598 h -0.966 -0.96598 v 0.96598 0.96598 h 0.96598 0.966 z m -28.97947,-1.93196 v -0.96598 h -0.96598 -0.96598 v 0.96598 0.96598 h 0.96598 0.96598 z m 3.86393,0 v -0.96598 h -0.96598 -0.96598 v 0.96598 0.96598 h 0.96598 0.96598 z m 23.18356,-3.86393 v -0.96598 h 0.96598 0.966 v -0.96598 -0.96598 h 1.93195 1.93197 v -0.96599 -0.96598 h -0.96598 -0.96599 v -1.93196 -1.93196 h -2.89795 -2.89794 v 1.93196 1.93196 h -0.96598 -0.96599 v 1.93197 1.93196 h 0.96599 0.96598 v 0.96598 0.96598 h 0.96598 0.96598 z m -1.93196,-2.89794 v -1.93197 h 0.96598 0.96598 v -0.96598 -0.96598 h 0.96598 0.966 v 0.96598 0.96598 h -0.966 -0.96598 v 1.93197 1.93196 h -0.96598 -0.96598 z m -17.38767,-0.96599 v -0.96598 h -0.96598 -0.96599 v 0.96598 0.96599 h 0.96599 0.96598 z m 1.93196,-4.8299 v -1.93197 h -0.96598 -0.96598 v -0.96598 -0.96598 h 0.96598 0.96598 v -0.96598 -0.96598 h -0.96598 -0.96598 v 0.96598 0.96598 h -0.96598 -0.96599 v -0.96598 -0.96598 h -0.96598 -0.96598 v 1.93196 1.93196 h 1.93196 1.93197 v 0.96598 0.96599 h -0.96598 -0.96599 v 0.96598 0.96598 h 1.93197 1.93196 z m 3.86393,0.96598 v -0.96598 h -0.96598 -0.96599 v 0.96598 0.96598 h 0.96599 0.96598 z m 5.79589,0 v -0.96598 h -1.93197 -1.93196 v 0.96598 0.96598 h 1.93196 1.93197 z m 3.86392,0 v -0.96598 h -0.96598 -0.96598 v 0.96598 0.96598 h 0.96598 0.96598 z m -5.79589,-4.82991 v -1.93196 h -0.96598 -0.96598 v 1.93196 1.93196 h 0.96598 0.96598 z m -7.72785,-10.62581 v -0.96598 h -0.96598 -0.96598 v 0.96598 0.96598 h 0.96598 0.96598 z m -23.18356,26.08152 v -3.86393 h 0.96598 0.96598 v 3.86393 3.86392 h -0.96598 -0.96598 z m 3.86393,0.96598 v -2.89795 h 0.96598 0.96598 v -2.89794 -2.89795 h 0.96598 0.96598 v 0.96598 0.96599 h 0.96599 0.96598 v 0.96598 0.96598 h -0.96598 -0.96599 v 0.96598 0.96598 h -0.96598 -0.96598 v 1.93197 1.93196 h 0.96598 0.96598 v 0.96598 0.96598 h -1.93196 -1.93196 z m 7.72785,-5.79589 v -0.96598 h 0.96598 0.96598 v 0.96598 0.96598 h -0.96598 -0.96598 z m -11.59178,-2.89795 v -1.93196 h 0.96598 0.96598 v 0.96598 0.96598 h 0.96599 0.96598 v 0.96598 0.96599 h -1.93197 -1.93196 z m 11.59178,-0.96598 v -0.96598 h -0.96598 -0.96598 v -0.96598 -0.96598 h -0.96598 -0.96599 v 0.96598 0.96598 h -1.93196 -1.93196 v -1.93196 -1.93197 h 4.82991 4.8299 v 0.96598 0.96599 h -0.96598 -0.96598 v 0.96598 0.96598 h 0.96598 0.96598 v 0.96598 0.96598 h -0.96598 -0.96598 z m -11.59178,-3.86393 v -0.96598 h 0.96598 0.96598 v 0.96598 0.96599 h -0.96598 -0.96598 z m 0,-9.65982 v -6.76188 h 6.76187 6.76187 v 6.76188 6.76188 h -6.76187 -6.76187 z m 11.49519,0 v -4.73332 h -4.73332 -4.73331 v 4.73332 4.73331 h 4.73331 4.73332 z m -7.63126,0 v -2.89795 h 2.89794 2.89795 v 2.89795 2.89794 h -2.89795 -2.89794 z m 30.91141,0 v -6.76188 h 6.76187 6.76189 v 6.76188 6.76188 h -6.76189 -6.76187 z m 11.4952,0 v -4.73332 h -4.73333 -4.7333 v 4.73332 4.73331 h 4.7333 4.73333 z m -7.63127,0 v -2.89795 h 2.89794 2.89795 v 2.89795 2.89794 h -2.89795 -2.89794 z"
           id="path862" />
        <g
           aria-label="3D PRINTING"
           id="text939-3-9"
           style="font-size:9.80399px;line-height:0.75;font-family:sans-serif;text-align:start;text-anchor:start;display:inline;stroke-width:0.926483;stroke-miterlimit:4;stroke-dasharray:none">
          <path
             d="m 137.18585,152.10189 1.72335,-0.12925 q 0.0431,1.06274 0.99093,1.06274 0.41169,0 0.61275,-0.225 0.19627,-0.22499 0.19627,-0.54573 0,-0.81381 -1.08667,-0.8521 v -1.08189 q 0.3351,0 0.6319,-0.19627 0.29201,-0.19148 0.29201,-0.56966 0,-0.30638 -0.19148,-0.49308 -0.19627,-0.18191 -0.51701,-0.18191 -0.68455,0 -0.73721,0.75637 l -1.79995,-0.0957 q 0.0574,-0.99571 0.77551,-1.48879 0.71328,-0.49307 1.94835,-0.49307 1.31645,0 1.97229,0.53616 0.65583,0.54094 0.65583,1.33081 0,0.47393 -0.27765,0.84253 -0.27766,0.3734 -0.75158,0.51701 0.59839,0.12925 0.93349,0.55052 0.33509,0.42126 0.33509,1.01965 0,0.95742 -0.79466,1.50794 -0.79465,0.55052 -2.09196,0.55052 -1.30688,0 -2.04888,-0.56967 -0.73243,-0.56488 -0.77072,-1.75208 z"
             style="font-style:normal;font-variant:normal;font-weight:normal;font-stretch:normal;font-size:9.80399px;font-family:'Rockwell Extra Bold';-inkscape-font-specification:'Rockwell Extra Bold, ';text-align:center;text-anchor:middle;stroke-width:0.926483;stroke-miterlimit:4;stroke-dasharray:none"
             id="path5317" />
          <path
             d="m 147.08558,149.29665 v 3.47065 h 0.24414 q 0.90955,0 1.18241,-0.4835 0.26808,-0.4835 0.26808,-1.21592 0,-0.44042 -0.11489,-0.87126 -0.11968,-0.43084 -0.42126,-0.6654 -0.2968,-0.23457 -1.06274,-0.23457 z m 0,5.06475 h -3.09726 v -1.5941 h 0.5218 v -3.47065 h -0.5218 v -1.59411 h 3.18821 q 1.09146,0 1.78081,0.13404 0.69413,0.13404 1.30688,0.55052 0.60796,0.42126 0.95742,1.13933 0.17233,0.34467 0.26329,0.73721 0.091,0.39255 0.091,0.82338 0,0.86647 -0.36861,1.57975 -0.36382,0.70849 -0.92391,1.08667 -0.54573,0.37818 -1.19677,0.49307 -0.64626,0.11489 -2.00101,0.11489 z"
             style="font-style:normal;font-variant:normal;font-weight:normal;font-stretch:normal;font-size:9.80399px;font-family:'Rockwell Extra Bold';-inkscape-font-specification:'Rockwell Extra Bold, ';text-align:center;text-anchor:middle;stroke-width:0.926483;stroke-miterlimit:4;stroke-dasharray:none"
             id="path5319" />
          <path
             d="m 158.16772,149.16261 v 1.24943 h 0.50265 q 0.52658,0 0.76594,-0.12446 0.22978,-0.12447 0.22978,-0.4835 0,-0.23457 -0.12447,-0.39733 -0.11967,-0.15797 -0.32073,-0.20106 -0.19149,-0.0431 -0.65105,-0.0431 z m 0.6702,5.19879 H 154.946 v -1.5941 h 0.64626 v -3.47065 H 154.946 v -1.59411 h 4.0834 q 1.40741,0 2.05846,0.27287 0.65104,0.27765 0.95742,0.75636 0.30637,0.47871 0.30637,1.04838 0,0.7037 -0.36382,1.16805 -0.36382,0.46914 -0.9622,0.67977 -0.58882,0.20584 -1.8191,0.20584 h -1.03881 v 0.93349 h 0.6702 z"
             style="font-style:normal;font-variant:normal;font-weight:normal;font-stretch:normal;font-size:9.80399px;font-family:'Rockwell Extra Bold';-inkscape-font-specification:'Rockwell Extra Bold, ';text-align:center;text-anchor:middle;stroke-width:0.926483;stroke-miterlimit:4;stroke-dasharray:none"
             id="path5321" />
          <path
             d="m 166.14304,149.16261 v 1.26858 h 0.28723 q 0.56488,0 0.76593,-0.0335 0.21542,-0.0335 0.36382,-0.19148 0.1484,-0.1484 0.1484,-0.40691 0,-0.2585 -0.1484,-0.41169 -0.1484,-0.15797 -0.37818,-0.19148 -0.2202,-0.0335 -0.80423,-0.0335 z m 0.50265,5.19879 h -3.61905 v -1.5941 h 0.54094 v -3.47065 h -0.54094 v -1.59411 h 3.61905 q 0.48828,0 0.90476,0.0191 0.41648,0.0144 0.71328,0.0479 0.2968,0.0287 0.54573,0.0814 0.69892,0.1484 1.13454,0.64626 0.44042,0.50743 0.44042,1.19678 0,0.517 -0.26808,0.93827 -0.26808,0.41648 -0.70371,0.61275 l 0.91913,1.5223 h 0.47871 v 1.5941 h -2.39834 l -1.45049,-2.71907 h -0.8186 v 1.12497 h 0.50265 z"
             style="font-style:normal;font-variant:normal;font-weight:normal;font-stretch:normal;font-size:9.80399px;font-family:'Rockwell Extra Bold';-inkscape-font-specification:'Rockwell Extra Bold, ';text-align:center;text-anchor:middle;stroke-width:0.926483;stroke-miterlimit:4;stroke-dasharray:none"
             id="path5323" />
          <path
             d="m 175.1045,154.3614 h -3.79617 v -1.5941 h 0.61275 v -3.47065 h -0.61275 v -1.59411 h 3.79617 v 1.59411 h -0.60796 v 3.47065 h 0.60796 z"
             style="font-style:normal;font-variant:normal;font-weight:normal;font-stretch:normal;font-size:9.80399px;font-family:'Rockwell Extra Bold';-inkscape-font-specification:'Rockwell Extra Bold, ';text-align:center;text-anchor:middle;stroke-width:0.926483;stroke-miterlimit:4;stroke-dasharray:none"
             id="path5325" />
          <path
             d="m 178.51771,154.3614 h -2.73344 v -1.5941 h 0.58403 v -3.47065 h -0.58403 v -1.59411 h 3.1547 l 2.42228,3.48023 v -1.88612 h -0.54095 v -1.59411 h 2.68557 v 1.59411 h -0.57924 v 5.15092 h -2.19249 l -2.80525,-4.02595 v 2.34568 h 0.58882 z"
             style="font-style:normal;font-variant:normal;font-weight:normal;font-stretch:normal;font-size:9.80399px;font-family:'Rockwell Extra Bold';-inkscape-font-specification:'Rockwell Extra Bold, ';text-align:center;text-anchor:middle;stroke-width:0.926483;stroke-miterlimit:4;stroke-dasharray:none"
             id="path5327" />
          <path
             d="m 189.38443,154.3614 h -3.73873 v -1.5941 h 0.57446 v -3.47065 h -0.76594 v 1.21114 h -1.24943 v -2.80525 h 6.60141 v 2.80525 h -1.24943 v -1.21114 h -0.76115 v 3.47065 h 0.58881 z"
             style="font-style:normal;font-variant:normal;font-weight:normal;font-stretch:normal;font-size:9.80399px;font-family:'Rockwell Extra Bold';-inkscape-font-specification:'Rockwell Extra Bold, ';text-align:center;text-anchor:middle;stroke-width:0.926483;stroke-miterlimit:4;stroke-dasharray:none"
             id="path5329" />
          <path
             d="m 195.32523,154.3614 h -3.79617 v -1.5941 h 0.61275 v -3.47065 h -0.61275 v -1.59411 h 3.79617 v 1.59411 h -0.60796 v 3.47065 h 0.60796 z"
             style="font-style:normal;font-variant:normal;font-weight:normal;font-stretch:normal;font-size:9.80399px;font-family:'Rockwell Extra Bold';-inkscape-font-specification:'Rockwell Extra Bold, ';text-align:center;text-anchor:middle;stroke-width:0.926483;stroke-miterlimit:4;stroke-dasharray:none"
             id="path5331" />
          <path
             d="M 198.73844,154.3614 H 196.005 v -1.5941 h 0.58403 v -3.47065 H 196.005 v -1.59411 h 3.1547 l 2.42228,3.48023 v -1.88612 h -0.54095 v -1.59411 h 2.68557 v 1.59411 h -0.57924 v 5.15092 h -2.19249 l -2.80525,-4.02595 v 2.34568 h 0.58882 z"
             style="font-style:normal;font-variant:normal;font-weight:normal;font-stretch:normal;font-size:9.80399px;font-family:'Rockwell Extra Bold';-inkscape-font-specification:'Rockwell Extra Bold, ';text-align:center;text-anchor:middle;stroke-width:0.926483;stroke-miterlimit:4;stroke-dasharray:none"
             id="path5333" />
          <path
             d="m 209.52857,152.06838 h -0.67977 v -1.26379 h 2.97758 q 0,1.09146 -0.15318,1.62282 -0.1484,0.51222 -0.62233,1.03881 -0.46435,0.52179 -1.12497,0.76115 -0.66062,0.23935 -1.41698,0.23935 -1.12497,0 -2.04409,-0.37339 -0.92391,-0.36382 -1.42656,-1.20635 -0.50743,-0.82817 -0.50743,-1.8574 0,-1.55581 1.02444,-2.50844 1.01486,-0.95264 2.48929,-0.95264 1.23029,0 1.9292,0.59839 v -0.46435 h 1.60368 v 2.32653 h -1.60368 q -0.21063,-0.43083 -0.55051,-0.65104 -0.3351,-0.22021 -0.78509,-0.22021 -0.6319,0 -0.9287,0.41169 -0.29201,0.41169 -0.29201,1.51273 0,1.09624 0.30637,1.48879 0.31117,0.39733 0.90477,0.39733 0.89997,0 0.89997,-0.89998 z"
             style="font-style:normal;font-variant:normal;font-weight:normal;font-stretch:normal;font-size:9.80399px;font-family:'Rockwell Extra Bold';-inkscape-font-specification:'Rockwell Extra Bold, ';text-align:center;text-anchor:middle;stroke-width:0.926483;stroke-miterlimit:4;stroke-dasharray:none"
             id="path5335" />
        </g>
      </g>
      <g
         style="stroke-width:1.00013;stroke-miterlimit:4;stroke-dasharray:none"
         id="g3057"
         transform="matrix(0.99906239,0,0,0.99906239,-1.8768279,30.401037)">
        <g
           aria-label="WEBSITE"
           id="text923"
           style="font-size:17.6389px;line-height:1.25;font-family:sans-serif;stroke-width:1.00013;stroke-miterlimit:4;stroke-dasharray:none">
          <path
             d="m 23.204065,140.79403 h -3.772382 l -3.376196,-9.21564 h -0.826824 v -2.86804 h 6.209789 v 2.86804 h -0.895725 l 1.41249,5.15903 1.791451,-5.15903 h -0.887113 v -2.86804 h 5.219323 v 2.86804 h -0.887112 l 1.817289,5.15903 1.429715,-5.15903 h -0.861274 v -2.86804 h 4.831749 v 2.86804 h -0.826823 l -3.410647,9.21564 H 26.45107 l -1.619196,-4.61643 z"
             style="font-style:normal;font-variant:normal;font-weight:normal;font-stretch:normal;font-size:17.6389px;font-family:'Rockwell Extra Bold';-inkscape-font-specification:'Rockwell Extra Bold, ';stroke-width:1.00013;stroke-miterlimit:4;stroke-dasharray:none"
             id="path5338" />
          <path
             d="M 46.777146,140.69067 H 35.348034 v -2.86804 h 0.930176 v -6.24424 h -0.947402 v -2.86804 h 11.446338 v 3.83267 h -3.143652 v -0.96463 h -2.721627 v 1.84313 h 2.368505 v 2.4374 h -2.368505 v 1.96371 h 2.721627 V 136.858 h 3.143652 z"
             style="font-style:normal;font-variant:normal;font-weight:normal;font-stretch:normal;font-size:17.6389px;font-family:'Rockwell Extra Bold';-inkscape-font-specification:'Rockwell Extra Bold, ';stroke-width:1.00013;stroke-miterlimit:4;stroke-dasharray:none"
             id="path5340" />
          <path
             d="m 54.22717,135.70389 v 2.3599 h 1.042142 q 0.999078,0 1.438328,-0.25839 0.430637,-0.25838 0.430637,-0.91295 0,-0.6115 -0.387573,-0.90433 -0.387574,-0.28423 -1.498618,-0.28423 z m 0,-4.36666 v 2.18764 h 1.024916 q 1.042142,0 1.369427,-0.30145 0.310059,-0.30144 0.310059,-0.79237 0,-0.42202 -0.284221,-0.75792 -0.284221,-0.3359 -1.558907,-0.3359 z m 1.102431,9.35344 h -6.77823 v -2.86804 h 1.042142 v -6.24424 h -1.042142 v -2.86804 h 7.320833 q 2.153186,0 3.333132,0.24977 1.162721,0.25838 1.825902,1.02491 0.663181,0.78376 0.663181,1.8259 0,1.01631 -0.62873,1.6192 -0.645956,0.62012 -1.56752,0.86127 1.266074,0.37897 1.946481,1.17134 0.689019,0.8096 0.689019,1.81729 0,1.20578 -0.775147,2.04983 -0.775147,0.83544 -2.127348,1.09382 -1.334975,0.26699 -3.901573,0.26699 z"
             style="font-style:normal;font-variant:normal;font-weight:normal;font-stretch:normal;font-size:17.6389px;font-family:'Rockwell Extra Bold';-inkscape-font-specification:'Rockwell Extra Bold, ';stroke-width:1.00013;stroke-miterlimit:4;stroke-dasharray:none"
             id="path5342" />
          <path
             d="m 66.328075,140.69067 h -2.695789 v -3.84128 h 2.695789 q 0.482314,1.56752 1.817289,1.56752 0.964627,0 0.964627,-0.77515 0,-0.4048 -0.335897,-0.67179 -0.361735,-0.29284 -1.524455,-0.8096 -1.464167,-0.66318 -2.153186,-1.14549 -0.645956,-0.43925 -1.102432,-1.2144 -0.456475,-0.76654 -0.456475,-1.69671 0,-1.67087 1.085206,-2.60966 1.076593,-0.93879 2.652725,-0.93879 1.576132,0 2.669951,0.89572 v -0.74069 h 2.713014 v 3.41064 h -2.678563 q -0.490927,-1.41249 -1.739775,-1.41249 -0.8785,0 -0.8785,0.74931 0,0.36174 0.24977,0.5426 0.241157,0.18948 1.558907,0.83544 1.765612,0.8785 2.359892,1.2833 0.301446,0.19809 0.611505,0.55983 0.318671,0.35312 0.525377,0.73208 0.473701,0.84405 0.473701,1.8259 0,1.50723 -1.119657,2.54938 -1.119657,1.05936 -2.82498,1.05936 -1.584745,0 -2.868044,-0.93879 z"
             style="font-style:normal;font-variant:normal;font-weight:normal;font-stretch:normal;font-size:17.6389px;font-family:'Rockwell Extra Bold';-inkscape-font-specification:'Rockwell Extra Bold, ';stroke-width:1.00013;stroke-miterlimit:4;stroke-dasharray:none"
             id="path5344" />
          <path
             d="m 81.30564,140.69067 h -6.829907 v -2.86804 h 1.102432 v -6.24424 h -1.102432 v -2.86804 h 6.829907 v 2.86804 h -1.093819 v 6.24424 h 1.093819 z"
             style="font-style:normal;font-variant:normal;font-weight:normal;font-stretch:normal;font-size:17.6389px;font-family:'Rockwell Extra Bold';-inkscape-font-specification:'Rockwell Extra Bold, ';stroke-width:1.00013;stroke-miterlimit:4;stroke-dasharray:none"
             id="path5346" />
          <path
             d="m 91.942377,140.69067 h -6.726553 v -2.86804 h 1.033529 v -6.24424 h -1.378039 v 2.17902 h -2.247927 v -5.04706 h 11.876975 v 5.04706 h -2.247926 v -2.17902 h -1.369427 v 6.24424 h 1.059368 z"
             style="font-style:normal;font-variant:normal;font-weight:normal;font-stretch:normal;font-size:17.6389px;font-family:'Rockwell Extra Bold';-inkscape-font-specification:'Rockwell Extra Bold, ';stroke-width:1.00013;stroke-miterlimit:4;stroke-dasharray:none"
             id="path5348" />
          <path
             d="M 107.41087,140.69067 H 95.981758 v -2.86804 h 0.930176 v -6.24424 h -0.947401 v -2.86804 h 11.446337 v 3.83267 h -3.14365 v -0.96463 h -2.72163 v 1.84313 h 2.36851 v 2.4374 h -2.36851 v 1.96371 h 2.72163 V 136.858 h 3.14365 z"
             style="font-style:normal;font-variant:normal;font-weight:normal;font-stretch:normal;font-size:17.6389px;font-family:'Rockwell Extra Bold';-inkscape-font-specification:'Rockwell Extra Bold, ';stroke-width:1.00013;stroke-miterlimit:4;stroke-dasharray:none"
             id="path5350" />
        </g>
        <path
           style="fill:#000000;stroke-width:1.00013;stroke-miterlimit:4;stroke-dasharray:none"
           d="M 6.2864292,238.97464 V 223.56531 H 21.695758 37.1051 v 15.40933 15.40934 H 21.695758 6.2864292 Z m 26.1958708,0 V 228.18811 H 21.695758 10.909229 v 10.78653 10.78654 H 21.695758 32.4823 Z m -17.390542,0 v -6.604 h 6.604 6.604 v 6.604 6.60401 h -6.604 -6.604 z m 26.416,13.20801 v -2.20134 h 2.201342 2.201329 v -2.20133 -2.20133 h 4.40267 4.402659 v -2.20134 -2.20133 h -6.604 -6.604 v -2.20134 -2.20133 h 2.201342 2.201329 v -2.20134 -2.20133 H 43.7091 41.507758 v -2.20134 -2.20133 h 4.402671 4.40267 v -2.20134 -2.20133 h -4.40267 -4.402671 v -2.20133 -2.20134 h 2.201342 2.201329 v -2.20133 -2.20133 h 6.604 6.604 v -4.40267 -4.40267 h -4.402671 -4.402659 v 2.20134 2.20133 h -8.805341 -8.805329 v -2.20133 -2.20134 H 30.5011 28.299758 v -2.20133 -2.20133 H 26.098429 23.8971 v 6.604 6.604 h 2.201329 2.201329 v 2.20133 2.20133 H 26.098429 23.8971 v -2.20133 -2.20133 h -2.201342 -2.201329 v -4.40267 -4.40267 H 15.091758 10.6891 v 2.20134 2.20133 h 2.201329 2.201329 v 4.40267 4.40266 H 10.6891 6.2864292 v -2.20133 -2.20133 H 8.4877582 10.6891 v -2.20134 -2.20133 H 8.4877582 6.2864292 v -2.20133 -2.20134 H 8.4877582 10.6891 v -2.20133 -2.20133 H 8.4877582 6.2864292 v -2.20134 -2.20133 H 8.4877582 10.6891 v 2.20133 2.20134 h 2.201329 2.201329 v -2.20134 -2.20133 h 2.201342 2.201329 v -2.20133 -2.20134 h -6.604 -6.6039998 v -6.604 -6.604 H 8.4877582 10.6891 v 4.40267 4.40267 h 4.402658 4.402671 v -4.40267 -4.40267 h 2.201329 2.201342 v 2.20134 2.20133 h 2.201329 2.201329 v -2.20133 -2.20134 h 4.402671 4.402671 v 2.20134 2.20133 h -4.402671 -4.402671 v 2.20133 2.20134 h 4.402671 4.402671 v 2.20133 2.20133 h -2.201342 -2.201329 v 2.20134 2.20133 h 2.201329 2.201342 v 2.20133 2.20134 h -2.201342 -2.201329 v 2.20133 2.20133 h 8.805329 8.805341 v -2.20133 -2.20133 h 4.402659 4.402671 v -2.20134 -2.20133 h -2.20133 -2.201341 v -4.40267 -4.40266 h -2.201329 -2.20133 v 4.40266 4.40267 h -2.201341 -2.201329 v 2.20133 2.20134 H 43.7091 41.507758 v -2.20134 -2.20133 h 2.201342 2.201329 v -2.20133 -2.20134 H 43.7091 41.507758 v -6.604 -6.604 h 4.402671 4.40267 v -8.80533 -8.80533 h -2.201341 -2.201329 v -4.40267 -4.40267 h 2.201329 2.201341 v -4.40266 -4.40267 h 2.20133 2.201329 v 4.40267 4.40266 h -2.201329 -2.20133 v 2.20134 2.20133 h 2.20133 2.201329 v 2.20133 2.20134 h 2.201341 2.20133 v 4.40266 4.40267 h 2.201341 2.201329 v -2.20133 -2.20134 h 4.402671 4.402659 v -2.20133 -2.20133 h -2.20133 -2.201329 v -4.40267 -4.40267 h -4.402671 -4.40267 v -4.40266 -4.40267 h 2.201341 2.201329 v 2.20133 2.20134 h 2.20133 2.201341 v 2.20133 2.20133 h 2.201329 2.20133 v -4.40266 -4.40267 h 2.201341 2.201329 v 4.40267 4.40266 h 2.201329 2.201342 v 4.40267 4.40267 h -2.201342 -2.201329 v 2.20133 2.20133 h 2.201329 2.201342 v 6.604 6.604 h 2.201329 2.201329 v 2.20134 2.20133 h 2.201342 2.201329 v -2.20133 -2.20134 h 2.201329 2.201342 v 2.20134 2.20133 h -2.201342 -2.201329 v 4.40267 4.40266 h 2.201329 2.201342 v -2.20133 -2.20133 h 2.201329 2.201329 v 2.20133 2.20133 H 96.541099 94.33977 v 2.20134 2.20133 h -2.201342 -2.201329 v 2.20133 2.20134 h 2.201329 2.201342 v 2.20133 2.20133 h 2.201329 2.201329 v -4.40266 -4.40267 h 2.201342 2.20133 v 2.20133 2.20134 h 2.20132 2.20135 v -2.20134 -2.20133 h 4.40265 4.40268 v 6.604 6.604 h -2.20133 -2.20135 v 2.20133 2.20134 h -2.20132 -2.20133 v 4.40266 4.40267 h 2.20133 2.20132 v -2.20133 -2.20134 h 2.20135 2.20133 v 4.40267 4.40267 h -4.40268 -4.40265 v 2.20133 2.20134 h -4.40267 -4.402672 v 4.40267 4.40267 h 2.201342 2.20133 v -2.20134 -2.20133 h 2.20132 2.20135 v 4.40267 4.40267 h -2.20135 -2.20132 v 2.20133 2.20133 h -2.20133 -2.201342 v -2.20133 -2.20133 H 96.541099 94.33977 v -2.20134 -2.20133 h -2.201342 -2.201329 v -2.20134 -2.20133 h -6.604 -6.604 v -2.20134 -2.20133 H 74.52777 72.326429 v 2.20133 2.20134 h -2.20133 -2.201329 v 2.20133 2.20134 h 2.201329 2.20133 v 2.20133 2.20134 h -2.20133 -2.201329 v 2.20133 2.20133 h 4.402659 4.40267 v -4.40266 -4.40267 h 2.201329 2.201342 v 2.20133 2.20134 h 4.402658 4.402671 v 2.20133 2.20133 h 2.201329 2.201342 v 2.20134 2.20133 h -4.402671 -4.402671 v -2.20133 -2.20134 H 83.333099 81.13177 v 2.20134 2.20133 h -6.604 -6.604 v -2.20133 -2.20134 h -4.402671 -4.40267 v 2.20134 2.20133 h -4.402671 -4.402659 v -2.20133 -2.20134 h -2.201341 -2.201329 v 2.20134 2.20133 H 43.7091 41.507758 Z m 13.208,-17.61067 v -2.20134 h -2.201329 -2.20133 v 2.20134 2.20133 h 2.20133 2.201329 z m 13.208012,0 v -2.20134 h 2.201329 2.20133 v -4.40266 -4.40267 h -2.20133 -2.201329 v -2.20133 -2.20134 h -2.201341 -2.20133 v -2.20133 -2.20133 H 61.31977 59.118429 v 2.20133 2.20133 h -4.402671 -4.402659 v 2.20134 2.20133 h 2.20133 2.201329 v 2.20133 2.20134 h 2.201341 2.20133 v 2.20133 2.20133 h 2.201341 2.201329 v 2.20134 2.20133 h 2.20133 2.201341 z m -4.402671,-6.604 v -4.40267 h 2.20133 2.201341 v 4.40267 4.40266 h -2.201341 -2.20133 z m 30.818671,-2.20134 v -6.604 h -6.604 -6.604 v 6.604 6.604 h 6.604 6.604 z m -8.805342,0 v -2.20133 h 2.201342 2.201329 v 2.20133 2.20134 H 87.73577 85.534428 Z m 22.013342,0 v -2.20133 h -4.40267 -4.402672 v 2.20133 2.20134 h 4.402672 4.40267 z m -30.818671,-13.208 v -2.20133 h 8.805329 8.805342 v 2.20133 2.20134 h 2.201329 2.201329 v -2.20134 -2.20133 h 2.201342 2.20133 v 2.20133 2.20134 h 2.20132 2.20135 v -2.20134 -2.20133 h 2.20133 2.20132 v -4.40267 -4.40266 h -2.20132 -2.20133 v 4.40266 4.40267 h -2.20135 -2.20132 v -2.20134 -2.20133 h -2.20133 -2.201342 v 2.20133 2.20134 H 96.541099 94.33977 v -2.20134 -2.20133 h -8.805342 -8.805329 v -2.20134 -2.20133 h 4.402671 4.402658 v -2.20134 -2.20133 h 2.201342 2.201329 v -2.20133 -2.20134 h -6.604 -6.604 v -2.20133 -2.20133 h 4.402671 4.402658 v -2.20134 -2.20133 H 83.333099 81.13177 v -2.20133 -2.20134 h -2.201342 -2.201329 v 2.20134 2.20133 H 65.722429 54.715758 v -2.20133 -2.20134 h -2.201329 -2.20133 v 2.20134 2.20133 h 2.20133 2.201329 v 2.20133 2.20134 h 2.201341 2.20133 v 2.20133 2.20133 h 2.201341 2.201329 v -2.20133 -2.20133 h 4.402671 4.402659 v 2.20133 2.20133 h -2.20133 -2.201329 v 2.20134 2.20133 h -2.201341 -2.20133 v 6.604 6.60401 h 2.20133 2.201341 v -4.40267 -4.40266 h 2.201329 2.20133 v 6.604 6.604 h 2.201341 2.201329 z M 23.8971,199.35064 v -2.20133 h -2.201342 -2.201329 v 2.20133 2.20134 h 2.201329 2.201342 z m 4.402658,-8.80533 v -2.20133 H 26.098429 23.8971 v 2.20133 2.20133 h 2.201329 2.201329 z m 44.026671,-13.208 v -2.20133 h 2.201341 2.201329 v -2.20134 -2.20133 H 74.52777 72.326429 v 2.20133 2.20134 h -2.20133 -2.201329 v -2.20134 -2.20133 h -2.201341 -2.20133 v 4.40267 4.40266 h 4.402671 4.402659 z m -13.208,-4.40267 v -2.20133 h -2.20133 -2.201341 v 2.20133 2.20134 h 2.201341 2.20133 z m 48.429341,79.24801 v -2.20134 h 4.40265 4.40268 v 2.20134 2.20133 h -4.40268 -4.40265 z m 4.40265,-8.80534 v -2.20133 h 2.20135 2.20133 v 2.20133 2.20134 h -2.20133 -2.20135 z m 0,-8.80533 v -2.20134 h 2.20135 2.20133 v 2.20134 2.20133 h -2.20133 -2.20135 z M 32.702429,216.96131 v -2.20133 h 2.201329 2.201342 v 2.20133 2.20133 h -2.201342 -2.201329 z m 74.845341,-26.416 v -2.20133 h 2.20133 2.20132 v -2.20134 -2.20133 h 2.20135 2.20133 v 4.40267 4.40266 h -4.40268 -4.40265 z M 6.2864292,159.72664 V 144.31731 H 21.695758 37.1051 v 15.40933 15.40934 H 21.695758 6.2864292 Z m 26.1958708,0 V 148.94011 H 21.695758 10.909229 v 10.78653 10.78654 H 21.695758 32.4823 Z m -17.390542,0 v -6.604 h 6.604 6.604 v 6.604 6.604 h -6.604 -6.604 z m 26.416,11.00667 v -4.40267 h 2.201342 2.201329 v 4.40267 4.40267 H 43.7091 41.507758 Z m 44.02667,-11.00667 v -15.40933 h 15.409342 15.40933 v 15.40933 15.40934 H 100.94377 85.534428 Z m 26.195872,0 V 148.94011 H 100.94377 90.157228 v 10.78653 10.78654 h 10.786542 10.78653 z m -17.39053,0 v -6.604 h 6.604 6.604 v 6.604 6.604 h -6.604 -6.604 z"
           id="path887" />
      </g>
      <g
         style="stroke-width:1.00013;stroke-miterlimit:4;stroke-dasharray:none"
         id="g3052"
         transform="translate(-8.3203704,12.435444)">
        <g
           aria-label="WORKSHOPS EACH SUNDAY"
           id="text939-3"
           style="font-size:9.80397px;line-height:0.75;font-family:sans-serif;text-align:start;text-anchor:start;stroke-width:0.926483;stroke-miterlimit:4;stroke-dasharray:none">
          <path
             d="m 137.85781,214.3121 h -2.09675 l -1.87654,-5.12219 h -0.45956 v -1.59411 h 3.45149 v 1.59411 h -0.49785 l 0.78508,2.86747 0.99571,-2.86747 h -0.49307 v -1.59411 h 2.90098 v 1.59411 h -0.49307 l 1.01008,2.86747 0.79466,-2.86747 h -0.47871 v -1.59411 h 2.68556 v 1.59411 h -0.45956 l -1.89569,5.12219 h -2.06803 l -0.89997,-2.56588 z"
             style="font-style:normal;font-variant:normal;font-weight:normal;font-stretch:normal;font-size:9.80397px;font-family:'Rockwell Extra Bold';-inkscape-font-specification:'Rockwell Extra Bold, ';text-align:center;text-anchor:middle;stroke-width:0.926483;stroke-miterlimit:4;stroke-dasharray:none"
             id="path5353" />
          <path
             d="m 147.19743,210.90847 q 0,1.11061 0.21542,1.49837 0.20584,0.39254 0.64626,0.39254 0.43562,0 0.65104,-0.37818 0.21542,-0.38297 0.21542,-1.51273 0,-1.09624 -0.21063,-1.49357 -0.20585,-0.39254 -0.65583,-0.39254 -0.43084,0 -0.64626,0.37818 -0.21542,0.37818 -0.21542,1.50793 z m -2.89141,0 q 0,-0.83295 0.40691,-1.61325 0.40211,-0.77551 1.24943,-1.30687 0.30159,-0.1867 0.61753,-0.2968 0.32074,-0.11011 0.69413,-0.16755 0.3734,-0.0622 0.78509,-0.0622 1.79037,0 2.77172,1.04837 0.48829,0.51701 0.73722,1.12018 0.24893,0.60317 0.24893,1.27815 0,1.39305 -1.01487,2.42227 -1.01486,1.02923 -2.743,1.02923 -1.6707,0 -2.7095,-0.96699 -1.04359,-0.96221 -1.04359,-2.48451 z"
             style="font-style:normal;font-variant:normal;font-weight:normal;font-stretch:normal;font-size:9.80397px;font-family:'Rockwell Extra Bold';-inkscape-font-specification:'Rockwell Extra Bold, ';text-align:center;text-anchor:middle;stroke-width:0.926483;stroke-miterlimit:4;stroke-dasharray:none"
             id="path5355" />
          <path
             d="m 155.84771,209.05587 v 1.26858 h 0.28723 q 0.56487,0 0.76593,-0.0335 0.21542,-0.0335 0.36382,-0.19148 0.1484,-0.1484 0.1484,-0.40691 0,-0.2585 -0.1484,-0.41169 -0.1484,-0.15797 -0.37818,-0.19148 -0.22021,-0.0335 -0.80423,-0.0335 z m 0.50265,5.19878 h -3.61905 v -1.5941 h 0.54094 v -3.47064 h -0.54094 v -1.59411 h 3.61905 q 0.48828,0 0.90476,0.0191 0.41647,0.0144 0.71327,0.0479 0.2968,0.0287 0.54573,0.0814 0.69892,0.1484 1.13454,0.64626 0.44042,0.50743 0.44042,1.19678 0,0.517 -0.26808,0.93827 -0.26808,0.41647 -0.7037,0.61275 l 0.91912,1.52229 h 0.47871 v 1.5941 h -2.39834 l -1.45049,-2.71907 h -0.81859 v 1.12497 h 0.50265 z"
             style="font-style:normal;font-variant:normal;font-weight:normal;font-stretch:normal;font-size:9.80397px;font-family:'Rockwell Extra Bold';-inkscape-font-specification:'Rockwell Extra Bold, ';text-align:center;text-anchor:middle;stroke-width:0.926483;stroke-miterlimit:4;stroke-dasharray:none"
             id="path5357" />
          <path
             d="m 168.86861,214.25465 h -3.44671 v -1.5941 h 0.32074 l -1.46007,-1.89569 1.69463,-1.57495 h -0.54094 v -1.59411 h 3.27916 v 1.59411 h -0.517 l -1.35954,1.26379 1.69942,2.20685 h 0.33031 z m -4.14084,0 h -3.60947 v -1.5941 h 0.50743 v -3.47064 h -0.52179 v -1.59411 h 3.62383 v 1.59411 h -0.52658 v 3.47064 h 0.52658 z"
             style="font-style:normal;font-variant:normal;font-weight:normal;font-stretch:normal;font-size:9.80397px;font-family:'Rockwell Extra Bold';-inkscape-font-specification:'Rockwell Extra Bold, ';text-align:center;text-anchor:middle;stroke-width:0.926483;stroke-miterlimit:4;stroke-dasharray:none"
             id="path5359" />
          <path
             d="m 170.97972,214.25465 h -1.49836 v -2.13504 h 1.49836 q 0.26808,0.87125 1.01008,0.87125 0.53615,0 0.53615,-0.43084 0,-0.22499 -0.1867,-0.37339 -0.20105,-0.16276 -0.84731,-0.44999 -0.81381,-0.3686 -1.19678,-0.63668 -0.35903,-0.24414 -0.61274,-0.67498 -0.25372,-0.42605 -0.25372,-0.94306 0,-0.9287 0.60317,-1.45049 0.59839,-0.52179 1.47443,-0.52179 0.87604,0 1.484,0.49786 v -0.4117 h 1.50793 v 1.89569 h -1.48878 q -0.27287,-0.78508 -0.967,-0.78508 -0.48828,0 -0.48828,0.41648 0,0.20106 0.13883,0.30159 0.13403,0.10531 0.86646,0.46434 0.98135,0.48829 1.31166,0.71328 0.16755,0.1101 0.33989,0.31116 0.17712,0.19627 0.29201,0.4069 0.26329,0.46914 0.26329,1.01487 0,0.83774 -0.62232,1.41698 -0.62232,0.58881 -1.57017,0.58881 -0.88082,0 -1.5941,-0.52179 z"
             style="font-style:normal;font-variant:normal;font-weight:normal;font-stretch:normal;font-size:9.80397px;font-family:'Rockwell Extra Bold';-inkscape-font-specification:'Rockwell Extra Bold, ';text-align:center;text-anchor:middle;stroke-width:0.926483;stroke-miterlimit:4;stroke-dasharray:none"
             id="path5361" />
          <path
             d="m 179.1082,214.25465 h -3.50415 v -1.5941 h 0.50265 v -3.47064 h -0.51222 v -1.59411 h 3.51372 v 1.59411 h -0.42605 v 1.01486 h 1.54145 v -1.01486 h -0.43084 v -1.59411 h 3.50894 v 1.59411 h -0.50265 v 3.47064 h 0.50265 v 1.5941 h -3.50894 v -1.5941 h 0.43084 v -1.09146 h -1.54145 v 1.09146 h 0.42605 z"
             style="font-style:normal;font-variant:normal;font-weight:normal;font-stretch:normal;font-size:9.80397px;font-family:'Rockwell Extra Bold';-inkscape-font-specification:'Rockwell Extra Bold, ';text-align:center;text-anchor:middle;stroke-width:0.926483;stroke-miterlimit:4;stroke-dasharray:none"
             id="path5363" />
          <path
             d="m 187.1218,210.90847 q 0,1.11061 0.21542,1.49837 0.20585,0.39254 0.64626,0.39254 0.43563,0 0.65105,-0.37818 0.21541,-0.38297 0.21541,-1.51273 0,-1.09624 -0.21063,-1.49357 -0.20584,-0.39254 -0.65583,-0.39254 -0.43084,0 -0.64626,0.37818 -0.21542,0.37818 -0.21542,1.50793 z m -2.8914,0 q 0,-0.83295 0.4069,-1.61325 0.40212,-0.77551 1.24943,-1.30687 0.30159,-0.1867 0.61754,-0.2968 0.32073,-0.11011 0.69413,-0.16755 0.37339,-0.0622 0.78508,-0.0622 1.79037,0 2.77173,1.04837 0.48828,0.51701 0.73721,1.12018 0.24893,0.60317 0.24893,1.27815 0,1.39305 -1.01486,2.42227 -1.01487,1.02923 -2.74301,1.02923 -1.6707,0 -2.7095,-0.96699 -1.04358,-0.96221 -1.04358,-2.48451 z"
             style="font-style:normal;font-variant:normal;font-weight:normal;font-stretch:normal;font-size:9.80397px;font-family:'Rockwell Extra Bold';-inkscape-font-specification:'Rockwell Extra Bold, ';text-align:center;text-anchor:middle;stroke-width:0.926483;stroke-miterlimit:4;stroke-dasharray:none"
             id="path5365" />
          <path
             d="m 195.8774,209.05587 v 1.24943 h 0.50264 q 0.52658,0 0.76594,-0.12446 0.22978,-0.12447 0.22978,-0.4835 0,-0.23457 -0.12447,-0.39733 -0.11967,-0.15797 -0.32073,-0.20106 -0.19148,-0.0431 -0.65105,-0.0431 z m 0.67019,5.19878 h -3.89191 v -1.5941 h 0.64626 v -3.47064 h -0.64626 v -1.59411 h 4.0834 q 1.4074,0 2.05845,0.27287 0.65104,0.27765 0.95742,0.75636 0.30637,0.47871 0.30637,1.04837 0,0.70371 -0.36382,1.16806 -0.36382,0.46913 -0.96221,0.67976 -0.58881,0.20585 -1.81909,0.20585 h -1.0388 v 0.93348 h 0.67019 z"
             style="font-style:normal;font-variant:normal;font-weight:normal;font-stretch:normal;font-size:9.80397px;font-family:'Rockwell Extra Bold';-inkscape-font-specification:'Rockwell Extra Bold, ';text-align:center;text-anchor:middle;stroke-width:0.926483;stroke-miterlimit:4;stroke-dasharray:none"
             id="path5367" />
          <path
             d="m 202.24902,214.25465 h -1.49836 v -2.13504 h 1.49836 q 0.26808,0.87125 1.01008,0.87125 0.53615,0 0.53615,-0.43084 0,-0.22499 -0.18669,-0.37339 -0.20106,-0.16276 -0.84732,-0.44999 -0.81381,-0.3686 -1.19677,-0.63668 -0.35904,-0.24414 -0.61275,-0.67498 -0.25372,-0.42605 -0.25372,-0.94306 0,-0.9287 0.60318,-1.45049 0.59838,-0.52179 1.47442,-0.52179 0.87604,0 1.484,0.49786 v -0.4117 h 1.50794 v 1.89569 h -1.48879 q -0.27286,-0.78508 -0.96699,-0.78508 -0.48829,0 -0.48829,0.41648 0,0.20106 0.13883,0.30159 0.13404,0.10531 0.86646,0.46434 0.98136,0.48829 1.31167,0.71328 0.16755,0.1101 0.33988,0.31116 0.17712,0.19627 0.29201,0.4069 0.26329,0.46914 0.26329,1.01487 0,0.83774 -0.62232,1.41698 -0.62232,0.58881 -1.57017,0.58881 -0.88082,0 -1.5941,-0.52179 z"
             style="font-style:normal;font-variant:normal;font-weight:normal;font-stretch:normal;font-size:9.80397px;font-family:'Rockwell Extra Bold';-inkscape-font-specification:'Rockwell Extra Bold, ';text-align:center;text-anchor:middle;stroke-width:0.926483;stroke-miterlimit:4;stroke-dasharray:none"
             id="path5369" />
          <path
             d="m 137.92004,221.64242 h -6.35247 v -1.59411 h 0.517 v -3.47064 h -0.52658 v -1.5941 h 6.36205 v 2.13025 h -1.74729 v -0.53615 h -1.51272 v 1.02444 h 1.31645 v 1.35475 h -1.31645 v 1.09145 h 1.51272 v -0.53615 h 1.74729 z"
             style="font-style:normal;font-variant:normal;font-weight:normal;font-stretch:normal;font-size:9.80397px;font-family:'Rockwell Extra Bold';-inkscape-font-specification:'Rockwell Extra Bold, ';text-align:center;text-anchor:middle;stroke-width:0.926483;stroke-miterlimit:4;stroke-dasharray:none"
             id="path5371" />
          <path
             d="m 141.85025,216.67341 -0.62711,1.84303 h 1.19198 z m -0.62711,4.96901 h -2.63769 v -1.59411 h 0.50743 l 1.24943,-3.47064 h -0.53615 v -1.5941 h 4.78709 v 1.5941 h -0.53615 l 1.27336,3.47064 h 0.48829 v 1.59411 h -3.47543 v -1.46007 h 0.58402 l -0.25371,-0.83774 h -1.70421 l -0.29201,0.83774 h 0.54573 z"
             style="font-style:normal;font-variant:normal;font-weight:normal;font-stretch:normal;font-size:9.80397px;font-family:'Rockwell Extra Bold';-inkscape-font-specification:'Rockwell Extra Bold, ';text-align:center;text-anchor:middle;stroke-width:0.926483;stroke-miterlimit:4;stroke-dasharray:none"
             id="path5373" />
          <path
             d="m 151.45076,218.70793 1.72815,0.60796 q -0.22021,1.06752 -1.01008,1.74729 -0.79945,0.68455 -2.20207,0.68455 -1.91483,0 -2.83396,-1.0005 -0.9239,-0.99572 -0.9239,-2.43184 0,-1.44571 0.90476,-2.45578 0.90476,-1.01008 2.35046,-1.01008 1.17284,0 1.91005,0.57924 v -0.4452 h 1.59889 v 2.43184 h -1.66112 q -0.12925,-0.45477 -0.43563,-0.71806 -0.30637,-0.25851 -0.69891,-0.25851 -1.08189,0 -1.08189,1.86218 0,1.86697 1.12018,1.86697 0.98136,0 1.23507,-1.46006 z"
             style="font-style:normal;font-variant:normal;font-weight:normal;font-stretch:normal;font-size:9.80397px;font-family:'Rockwell Extra Bold';-inkscape-font-specification:'Rockwell Extra Bold, ';text-align:center;text-anchor:middle;stroke-width:0.926483;stroke-miterlimit:4;stroke-dasharray:none"
             id="path5375" />
          <path
             d="m 157.54713,221.64242 h -3.50415 v -1.59411 h 0.50264 v -3.47064 h -0.51222 v -1.5941 h 3.51373 v 1.5941 h -0.42605 v 1.01486 h 1.54144 v -1.01486 h -0.43084 v -1.5941 h 3.50894 v 1.5941 h -0.50264 v 3.47064 h 0.50264 v 1.59411 h -3.50894 v -1.59411 h 0.43084 v -1.09145 h -1.54144 v 1.09145 h 0.42605 z"
             style="font-style:normal;font-variant:normal;font-weight:normal;font-stretch:normal;font-size:9.80397px;font-family:'Rockwell Extra Bold';-inkscape-font-specification:'Rockwell Extra Bold, ';text-align:center;text-anchor:middle;stroke-width:0.926483;stroke-miterlimit:4;stroke-dasharray:none"
             id="path5377" />
          <path
             d="m 166.57559,221.64242 h -1.49836 v -2.13505 h 1.49836 q 0.26808,0.87125 1.01008,0.87125 0.53615,0 0.53615,-0.43084 0,-0.22499 -0.1867,-0.37339 -0.20105,-0.16276 -0.84731,-0.44999 -0.81381,-0.3686 -1.19678,-0.63668 -0.35903,-0.24414 -0.61274,-0.67498 -0.25372,-0.42605 -0.25372,-0.94306 0,-0.92869 0.60317,-1.45049 0.59839,-0.52179 1.47443,-0.52179 0.87604,0 1.484,0.49786 v -0.41169 h 1.50793 v 1.89569 h -1.48878 q -0.27287,-0.78509 -0.967,-0.78509 -0.48828,0 -0.48828,0.41648 0,0.20106 0.13883,0.30159 0.13403,0.10531 0.86646,0.46435 0.98135,0.48828 1.31166,0.71327 0.16755,0.11011 0.33989,0.31116 0.17712,0.19627 0.29201,0.40691 0.26329,0.46913 0.26329,1.01486 0,0.83774 -0.62232,1.41698 -0.62232,0.58881 -1.57017,0.58881 -0.88082,0 -1.5941,-0.52179 z"
             style="font-style:normal;font-variant:normal;font-weight:normal;font-stretch:normal;font-size:9.80397px;font-family:'Rockwell Extra Bold';-inkscape-font-specification:'Rockwell Extra Bold, ';text-align:center;text-anchor:middle;stroke-width:0.926483;stroke-miterlimit:4;stroke-dasharray:none"
             id="path5379" />
          <path
             d="m 171.55896,216.57767 h -0.51222 v -1.5941 h 3.40841 v 1.5941 h -0.31595 v 2.24515 q 0,0.80423 0.15319,1.09624 0.15318,0.28723 0.55051,0.28723 0.33031,0 0.47871,-0.24414 0.1484,-0.23936 0.1484,-0.98136 v -2.40312 h -0.33509 v -1.5941 h 2.50365 v 1.5941 h -0.52658 v 2.4127 q 0,0.9239 -0.26808,1.51272 -0.26808,0.58402 -0.8904,0.91433 -0.62232,0.33031 -1.53187,0.33031 -0.73243,0 -1.2973,-0.17712 -0.57446,-0.17234 -0.90955,-0.52658 -0.3351,-0.34946 -0.49307,-0.84732 -0.16276,-0.48349 -0.16276,-1.484 z"
             style="font-style:normal;font-variant:normal;font-weight:normal;font-stretch:normal;font-size:9.80397px;font-family:'Rockwell Extra Bold';-inkscape-font-specification:'Rockwell Extra Bold, ';text-align:center;text-anchor:middle;stroke-width:0.926483;stroke-miterlimit:4;stroke-dasharray:none"
             id="path5381" />
          <path
             d="m 180.95602,221.64242 h -2.73343 v -1.59411 h 0.58403 v -3.47064 h -0.58403 v -1.5941 h 3.1547 l 2.42227,3.48022 v -1.88612 h -0.54094 v -1.5941 h 2.68556 v 1.5941 h -0.57924 v 5.15091 h -2.19249 l -2.80524,-4.02594 v 2.34567 h 0.58881 z"
             style="font-style:normal;font-variant:normal;font-weight:normal;font-stretch:normal;font-size:9.80397px;font-family:'Rockwell Extra Bold';-inkscape-font-specification:'Rockwell Extra Bold, ';text-align:center;text-anchor:middle;stroke-width:0.926483;stroke-miterlimit:4;stroke-dasharray:none"
             id="path5383" />
          <path
             d="m 189.86959,216.57767 v 3.47064 h 0.24414 q 0.90955,0 1.18242,-0.48349 0.26807,-0.4835 0.26807,-1.21593 0,-0.44041 -0.11489,-0.87125 -0.11967,-0.43084 -0.42126,-0.6654 -0.2968,-0.23457 -1.06274,-0.23457 z m 0,5.06475 h -3.09725 v -1.59411 h 0.5218 v -3.47064 h -0.5218 v -1.5941 h 3.18821 q 1.09145,0 1.7808,0.13404 0.69412,0.13403 1.30687,0.55051 0.60796,0.42127 0.95742,1.13933 0.17234,0.34467 0.26329,0.73721 0.091,0.39254 0.091,0.82338 0,0.86647 -0.36861,1.57974 -0.36382,0.70849 -0.92391,1.08667 -0.54573,0.37819 -1.19677,0.49308 -0.64626,0.11489 -2.00101,0.11489 z"
             style="font-style:normal;font-variant:normal;font-weight:normal;font-stretch:normal;font-size:9.80397px;font-family:'Rockwell Extra Bold';-inkscape-font-specification:'Rockwell Extra Bold, ';text-align:center;text-anchor:middle;stroke-width:0.926483;stroke-miterlimit:4;stroke-dasharray:none"
             id="path5385" />
          <path
             d="m 197.92388,216.67341 -0.62711,1.84303 h 1.19199 z m -0.62711,4.96901 h -2.63769 v -1.59411 h 0.50743 l 1.24944,-3.47064 h -0.53616 v -1.5941 h 4.7871 v 1.5941 h -0.53616 l 1.27337,3.47064 h 0.48828 v 1.59411 h -3.47543 v -1.46007 h 0.58403 l -0.25372,-0.83774 h -1.70421 l -0.29201,0.83774 h 0.54573 z"
             style="font-style:normal;font-variant:normal;font-weight:normal;font-stretch:normal;font-size:9.80397px;font-family:'Rockwell Extra Bold';-inkscape-font-specification:'Rockwell Extra Bold, ';text-align:center;text-anchor:middle;stroke-width:0.926483;stroke-miterlimit:4;stroke-dasharray:none"
             id="path5387" />
          <path
             d="m 206.92602,221.64242 h -3.6382 v -1.59411 h 0.53616 v -1.05794 l -1.68027,-2.4127 h -0.45478 v -1.5941 h 3.48022 v 1.5941 h -0.39733 l 0.70849,1.35953 0.85689,-1.35953 h -0.4069 v -1.5941 h 2.5611 v 1.5941 h -0.41648 l -1.67548,2.4127 v 1.05794 h 0.52658 z"
             style="font-style:normal;font-variant:normal;font-weight:normal;font-stretch:normal;font-size:9.80397px;font-family:'Rockwell Extra Bold';-inkscape-font-specification:'Rockwell Extra Bold, ';text-align:center;text-anchor:middle;stroke-width:0.926483;stroke-miterlimit:4;stroke-dasharray:none"
             id="path5389" />
        </g>
        <path
           style="display:inline;fill:#000000;stroke-width:0.0244088;stroke-miterlimit:4;stroke-dasharray:none"
           d="m 145.62635,265.31451 v -6.83356 h 6.83356 6.83357 v 6.83356 6.83357 h -6.83357 -6.83356 z m 11.61706,0 v -4.78349 h -4.7835 -4.78349 v 4.78349 4.7835 h 4.78349 4.7835 z m -7.71216,0 v -2.92866 h 2.92866 2.92867 v 2.92866 2.92867 h -2.92867 -2.92866 z m 11.71468,5.85735 v -0.97623 h 0.97621 0.97624 v 0.97623 0.97622 h -0.97624 -0.97621 z m 3.9049,-1.95245 v -2.92868 h -0.97624 -0.97621 v 0.97623 0.97622 h -0.97624 -0.97621 v -3.90488 -3.9049 h 1.95245 1.95245 v -0.97622 -0.97623 h -1.95245 -1.95245 v -0.97622 -0.97623 h -3.9049 -3.9049 v -0.97622 -0.97623 h -0.97622 -0.97621 v 0.97623 0.97622 h -0.97624 -0.97621 v -0.97622 -0.97623 h 0.97621 0.97624 v -0.97622 -0.97623 h 0.97621 0.97622 v -0.97622 -0.97621 h -1.95243 -1.95245 v -0.97624 -0.97621 h -0.97623 -0.97622 v 3.90488 3.9049 h -0.97623 -0.97622 v -5.85733 -5.85735 h 0.97622 0.97623 v 0.97623 0.97622 h 0.97622 0.97623 v -0.97622 -0.97623 h 0.97621 0.97624 v -1.95245 -1.95243 h -0.97624 -0.97621 v 0.97621 0.97622 h -0.97623 -0.97622 v -0.97622 -0.97621 h -0.97623 -0.97622 v -0.97624 -0.97621 h 0.97622 0.97623 v 0.97621 0.97624 h 0.97622 0.97623 v -0.97624 -0.97621 h 4.88111 4.88112 v 0.97621 0.97624 h -1.95245 -1.95245 v 0.97621 0.97622 h 2.92867 2.92868 v -0.97622 -0.97621 h 0.97621 0.97624 v -0.97624 -0.97621 h -0.97624 -0.97621 v -5.85735 -5.85733 h 1.95245 1.95245 v -0.97623 -0.97622 h -0.97624 -0.97621 v -0.97623 -0.97622 h 0.97621 0.97624 v 0.97622 0.97623 h 0.97621 0.97622 v -0.97623 -0.97622 h 0.97623 0.97622 v 0.97622 0.97623 h -0.97622 -0.97623 v 0.97622 0.97623 h 1.95245 1.95245 v 0.97621 0.97624 h 1.95245 1.95245 v 0.97621 0.97622 h 1.95243 1.95245 v 2.92868 2.92867 h -0.97622 -0.97623 v -0.97623 -0.97622 h -0.97622 -0.97621 v 0.97622 0.97623 h -0.97624 -0.97621 v -1.95245 -1.95245 h 0.97621 0.97624 v -0.97622 -0.97623 h -1.95245 -1.95245 v 0.97623 0.97622 h -0.97622 -0.97623 v -1.95245 -1.95243 h -0.97622 -0.97623 v -0.97624 -0.97621 h -0.97622 -0.97621 v 0.97621 0.97624 h -0.97624 -0.97621 v 3.90488 3.9049 h 0.97621 0.97624 v -1.95245 -1.95245 h 0.97621 0.97622 v 1.95245 1.95245 h -0.97622 -0.97621 v 1.95245 1.95245 h -0.97624 -0.97621 v 0.97621 0.97622 h 1.95245 1.95243 v 0.97623 0.97622 h 0.97623 0.97622 v 0.97623 0.97622 h 4.88111 4.88112 v 0.97621 0.97624 h -4.88112 -4.88111 v -0.97624 -0.97621 h -2.92867 -2.92866 v -1.95245 -1.95245 h -0.97624 -0.97621 v 1.95245 1.95245 h -0.97624 -0.97621 v 0.97621 0.97624 h 0.97621 0.97624 v 0.97621 0.97624 h -0.97624 -0.97621 v 0.97621 0.97622 h 0.97621 0.97624 v 0.97623 0.97622 h 0.97621 0.97624 v -1.95245 -1.95243 h 0.97621 0.97624 v -0.97624 -0.97621 h 0.97621 0.97622 v 0.97621 0.97624 h 6.83356 6.83357 v 0.97621 0.97622 h -0.97622 -0.97623 v 0.97623 0.97622 h 3.9049 3.9049 v -0.97622 -0.97623 h -0.97624 -0.97621 v -0.97622 -0.97621 h -0.97624 -0.97621 v -0.97624 -0.97621 h -0.97622 -0.97623 v -1.95245 -1.95245 h -0.97622 -0.97623 v -0.97622 -0.97623 h -0.97622 -0.97623 v 0.97623 0.97622 h -1.95243 -1.95245 v -0.97622 -0.97623 h -1.95245 -1.95245 v -0.97622 -0.97621 h -0.97622 -0.97623 v -0.97624 -0.97621 h 0.97623 0.97622 v -1.95245 -1.95245 h 0.97623 0.97622 v 1.95245 1.95245 h -0.97622 -0.97623 v 0.97621 0.97624 h 1.95245 1.95245 v -0.97624 -0.97621 h 0.97621 0.97624 v 0.97621 0.97624 h 2.92866 2.92867 v -0.97624 -0.97621 h 4.88111 4.88112 v 0.97621 0.97624 h 0.97623 0.97622 v 0.97621 0.97622 h 0.97623 0.97622 v 2.92868 2.92867 h -0.97622 -0.97623 v 0.97621 0.97624 h 0.97623 0.97622 v 1.95243 1.95245 h -0.97622 -0.97623 v -0.97622 -0.97623 h -0.97622 -0.97623 v -1.95243 -1.95245 h -0.97622 -0.97623 v 2.92866 2.92867 h 0.97623 0.97622 v 1.95245 1.95245 h 1.95245 1.95245 v 6.83356 6.83357 h -6.83357 -6.83356 v -0.97622 -0.97623 h -1.95245 -1.95245 v -0.97622 -0.97623 h -0.97622 -0.97621 v 0.97623 0.97622 h -0.97624 -0.97621 v -0.97622 -0.97623 h 0.97621 0.97624 v -0.97622 -0.97623 h 1.95243 1.95245 v -0.97622 -0.97621 h -2.92867 -2.92866 v -0.97624 -0.97621 h -0.97624 -0.97621 v 0.97621 0.97624 h -0.97622 -0.97623 v -1.95245 -1.95245 h 0.97623 0.97622 v -0.97622 -0.97623 h -0.97622 -0.97623 v -0.97622 -0.97623 h -0.97622 -0.97623 v 3.9049 3.9049 h -0.97622 -0.97621 v 0.97621 0.97622 h 2.92866 2.92867 v 0.97623 0.97622 h -0.97622 -0.97623 v 1.95245 1.95245 h -1.95245 -1.95243 z m 17.57201,-0.97623 v -1.95245 h 0.97621 0.97624 v 0.97623 0.97622 h 1.95245 1.95243 v 0.97623 0.97622 h 1.95245 1.95245 v -1.95245 -1.95245 h -0.97622 -0.97623 v 0.97623 0.97622 h -0.97622 -0.97623 v -1.95245 -1.95243 h -0.97622 -0.97621 v 0.97621 0.97622 h -0.97624 -0.97621 v -0.97622 -0.97621 h -0.97624 -0.97621 v 0.97621 0.97622 h -1.95245 -1.95245 v 0.97623 0.97622 h 0.97623 0.97622 v 0.97623 0.97622 h 0.97623 0.97622 z m -7.80978,-6.83357 v -0.97621 h 0.97621 0.97622 v -0.97622 -0.97623 h -0.97622 -0.97621 v -0.97622 -0.97623 h 0.97621 0.97622 v -1.95245 -1.95245 h -3.90488 -3.9049 v 1.95245 1.95245 h 1.95245 1.95245 v 0.97623 0.97622 h 0.97621 0.97624 v 0.97623 0.97622 h -0.97624 -0.97621 v 0.97621 0.97624 h 0.97621 0.97624 z m 9.76223,-1.95243 v -2.92868 h -2.92867 -2.92868 v 2.92868 2.92867 h 2.92868 2.92867 z m -3.9049,0 v -0.97623 h 0.97623 0.97622 v 0.97623 0.97622 h -0.97622 -0.97623 z m 9.76223,1.95243 v -0.97621 h -0.97622 -0.97623 v 0.97621 0.97624 h 0.97623 0.97622 z m -1.95245,-5.85733 v -0.97623 h -0.97622 -0.97621 v 0.97623 0.97622 h 0.97621 0.97622 z m -29.28669,-1.95245 v -0.97623 h -0.97623 -0.97622 v -0.97622 -0.97621 h 0.97622 0.97623 v -0.97624 -0.97621 h -1.95245 -1.95245 v -2.92867 -2.92868 h -0.97622 -0.97623 v 0.97623 0.97622 h -0.97622 -0.97621 v 0.97623 0.97622 h -0.97624 -0.97621 v 0.97621 0.97624 h 0.97621 0.97624 v -0.97624 -0.97621 h 0.97621 0.97622 v 1.95245 1.95245 h 0.97623 0.97622 v 0.97621 0.97622 h 0.97623 0.97622 v 0.97623 0.97622 h 0.97622 0.97623 z m 7.80978,0 v -0.97623 h -0.97622 -0.97621 v 0.97623 0.97622 h 0.97621 0.97622 z m 19.52448,-3.9049 v -0.97621 h 0.97621 0.97622 v -0.97624 -0.97621 h 1.95245 1.95245 v -0.97622 -0.97623 h -0.97622 -0.97623 v -1.95245 -1.95243 h -2.92867 -2.92866 v 1.95243 1.95245 h -0.97624 -0.97621 v 1.95245 1.95245 h 0.97621 0.97624 v 0.97621 0.97624 h 0.97621 0.97624 z m -1.95245,-2.92866 v -1.95245 h 0.97621 0.97624 v -0.97622 -0.97623 h 0.97621 0.97622 v 0.97623 0.97622 h -0.97622 -0.97621 v 1.95245 1.95245 h -0.97624 -0.97621 z m -25.38181,-0.97622 v -0.97623 h -0.97623 -0.97622 v 0.97623 0.97622 h 0.97622 0.97623 z m 15.61958,-3.9049 v -0.97621 h -0.97624 -0.97621 v 0.97621 0.97622 h 0.97621 0.97624 z m 7.80978,0 v -0.97621 h -0.97622 -0.97623 v 0.97621 0.97622 h 0.97623 0.97622 z m -37.09649,-11.71468 v -6.83356 h 6.83356 6.83357 v 6.83356 6.83357 h -6.83357 -6.83356 z m 11.61706,0 v -4.78349 h -4.7835 -4.78349 v 4.78349 4.7835 h 4.78349 4.7835 z m -7.71216,0 v -2.92866 h 2.92866 2.92867 v 2.92866 2.92867 h -2.92867 -2.92866 z m 31.23914,0 v -6.83356 h 6.83356 6.83357 v 6.83356 6.83357 h -6.83357 -6.83356 z m 11.61706,0 v -4.78349 h -4.7835 -4.78349 v 4.78349 4.7835 h 4.78349 4.7835 z m -7.71216,0 v -2.92866 h 2.92866 2.92867 v 2.92866 2.92867 h -2.92867 -2.92866 z m -11.71468,-3.90489 v -0.97622 h -0.97624 -0.97621 v -0.97623 -0.97622 h 0.97621 0.97624 v 0.97622 0.97623 h 0.97621 0.97624 v -0.97623 -0.97622 h 1.95243 1.95245 v 0.97622 0.97623 h -0.97622 -0.97623 v 0.97622 0.97623 h -1.95243 -1.95245 z"
           id="path953" />
      </g>
    </g>
  </g>
</svg>
