<?xml version="1.0" encoding="UTF-8" standalone="no"?>
<svg
   xmlns:dc="http://purl.org/dc/elements/1.1/"
   xmlns:cc="http://creativecommons.org/ns#"
   xmlns:rdf="http://www.w3.org/1999/02/22-rdf-syntax-ns#"
   xmlns:svg="http://www.w3.org/2000/svg"
   xmlns="http://www.w3.org/2000/svg"
   xmlns:sodipodi="http://sodipodi.sourceforge.net/DTD/sodipodi-0.dtd"
   xmlns:inkscape="http://www.inkscape.org/namespaces/inkscape"
   width="695mm"
   height="910mm"
   viewBox="0 0 695 910"
   version="1.1"
   id="svg4539"
   inkscape:version="1.0 (4035a4fb49, 2020-05-01)"
   sodipodi:docname="board-dms-1.svg">
  <defs
     id="defs4533" />
  <sodipodi:namedview
     id="base"
     pagecolor="#ffffff"
     bordercolor="#666666"
     borderopacity="1.0"
     inkscape:pageopacity="0.0"
     inkscape:pageshadow="2"
     inkscape:zoom="0.35355339"
     inkscape:cx="1420.7668"
     inkscape:cy="1217.8718"
     inkscape:document-units="mm"
     inkscape:current-layer="layer1"
     inkscape:document-rotation="0"
     showgrid="false"
     inkscape:window-width="1920"
     inkscape:window-height="1017"
     inkscape:window-x="-8"
     inkscape:window-y="-8"
     inkscape:window-maximized="1" />
  <metadata
     id="metadata4536">
    <rdf:RDF>
      <cc:Work
         rdf:about="">
        <dc:format>image/svg+xml</dc:format>
        <dc:type
           rdf:resource="http://purl.org/dc/dcmitype/StillImage" />
        <dc:title />
      </cc:Work>
    </rdf:RDF>
  </metadata>
  <g
     inkscape:label="1BLACK"
     inkscape:groupmode="layer"
     id="layer1">
    <g
       transform="translate(-133.37787,-27.79603)"
       id="g1583">
      <text
         xml:space="preserve"
         style="font-size:31.75px;line-height:0.95;font-family:sans-serif;stroke-width:0.264583"
         x="260.5293"
         y="281.8942"
         id="text1536"><tspan
           sodipodi:role="line"
           id="tspan1534"
           x="260.5293"
           y="281.8942"
           style="font-style:normal;font-variant:normal;font-weight:normal;font-stretch:normal;font-size:31.75px;font-family:'Bauhaus 93';-inkscape-font-specification:'Bauhaus 93, ';text-align:end;text-anchor:end;stroke-width:0.264583">SUN</tspan><tspan
           sodipodi:role="line"
           x="260.5293"
           y="313.1506"
           style="font-style:normal;font-variant:normal;font-weight:normal;font-stretch:normal;font-size:31.75px;font-family:'Bauhaus 93';-inkscape-font-specification:'Bauhaus 93, ';text-align:end;text-anchor:end;stroke-width:0.264583"
           id="tspan1538">MON</tspan><tspan
           sodipodi:role="line"
           x="260.5293"
           y="344.40698"
           style="font-style:normal;font-variant:normal;font-weight:normal;font-stretch:normal;font-size:31.75px;font-family:'Bauhaus 93';-inkscape-font-specification:'Bauhaus 93, ';text-align:end;text-anchor:end;stroke-width:0.264583"
           id="tspan1540">WED</tspan></text>
      <text
         id="text1536-5"
         y="279.29745"
         x="275.69308"
         style="font-size:31.75px;line-height:0.95;font-family:sans-serif;text-align:start;text-anchor:start;stroke-width:0.264583"
         xml:space="preserve"><tspan
           id="tspan1540-3"
           style="font-style:normal;font-variant:normal;font-weight:normal;font-stretch:normal;font-size:31.75px;font-family:'Bauhaus 93';-inkscape-font-specification:'Bauhaus 93, ';text-align:start;text-anchor:start;stroke-width:0.264583"
           y="279.29745"
           x="275.69308"
           sodipodi:role="line">3:00 - 4:00 pm</tspan><tspan
           style="font-style:normal;font-variant:normal;font-weight:normal;font-stretch:normal;font-size:31.75px;font-family:'Bauhaus 93';-inkscape-font-specification:'Bauhaus 93, ';text-align:start;text-anchor:start;stroke-width:0.264583"
           y="310.55386"
           x="275.69308"
           sodipodi:role="line"
           id="tspan1571">5:30 - 7:00 pm</tspan><tspan
           style="font-style:normal;font-variant:normal;font-weight:normal;font-stretch:normal;font-size:31.75px;font-family:'Bauhaus 93';-inkscape-font-specification:'Bauhaus 93, ';text-align:start;text-anchor:start;stroke-width:0.264583"
           y="341.81024"
           x="275.69308"
           sodipodi:role="line"
           id="tspan1573">5:30 - 7:00 pm</tspan></text>
      <text
         id="text1587"
         y="281.8942"
         x="593.12451"
         style="font-size:31.75px;line-height:0.95;font-family:sans-serif;stroke-width:0.264583"
         xml:space="preserve"><tspan
           style="font-style:normal;font-variant:normal;font-weight:normal;font-stretch:normal;font-size:31.75px;font-family:'Bauhaus 93';-inkscape-font-specification:'Bauhaus 93, ';stroke-width:0.264583"
           y="281.8942"
           x="593.12451"
           id="tspan1585"
           sodipodi:role="line">EMAIL FOR </tspan><tspan
           id="tspan1605"
           style="font-style:normal;font-variant:normal;font-weight:normal;font-stretch:normal;font-size:31.75px;font-family:'Bauhaus 93';-inkscape-font-specification:'Bauhaus 93, ';stroke-width:0.264583"
           y="313.1506"
           x="593.12451"
           sodipodi:role="line">ADDITIONAL </tspan><tspan
           id="tspan1607"
           style="font-style:normal;font-variant:normal;font-weight:normal;font-stretch:normal;font-size:31.75px;font-family:'Bauhaus 93';-inkscape-font-specification:'Bauhaus 93, ';stroke-width:0.264583"
           y="344.40698"
           x="593.12451"
           sodipodi:role="line">HOURS!</tspan></text>
      <text
         xml:space="preserve"
         style="font-size:42.3333px;line-height:0.95;font-family:sans-serif;stroke-width:0.264583"
         x="508.29059"
         y="316.67749"
         id="text1587-4"><tspan
           sodipodi:role="line"
           x="508.29059"
           y="316.67749"
           style="font-style:normal;font-variant:normal;font-weight:normal;font-stretch:normal;font-size:42.3333px;font-family:'Bauhaus 93';-inkscape-font-specification:'Bauhaus 93, ';stroke-width:0.264583"
           id="tspan1607-5">OR</tspan></text>
    </g>
    <g
       style="display:inline"
       transform="matrix(2.8106463,0,0,2.8106463,49.558717,-47.201649)"
       id="g915">
      <text
         id="text835-9"
         y="43.356091"
         x="-0.79678261"
         style="font-style:normal;font-variant:normal;font-weight:normal;font-stretch:normal;font-size:34.0302px;line-height:1.25;font-family:'Harlow Solid Italic';-inkscape-font-specification:'Harlow Solid Italic, ';text-align:center;text-anchor:middle;stroke-width:0.283585"
         xml:space="preserve"><tspan
           rotate="0 0 0 0 0 0 0 0 0 0 0 0 0 0 0"
           style="font-style:normal;font-variant:normal;font-weight:normal;font-stretch:normal;font-size:34.0302px;font-family:'Harlow Solid Italic';-inkscape-font-specification:'Harlow Solid Italic, ';text-align:start;text-anchor:start;stroke-width:0.283585"
           y="43.356091"
           x="-0.79678261"
           id="tspan833-5"
           sodipodi:role="line">Digital Making</tspan><tspan
           id="tspan846"
           rotate="0 0 0 0 0 0 0 0 0 0 0 0 0 0 0 0 0 0 0 0"
           style="font-style:normal;font-variant:normal;font-weight:normal;font-stretch:normal;font-size:34.0302px;font-family:'Harlow Solid Italic';-inkscape-font-specification:'Harlow Solid Italic, ';text-align:start;text-anchor:start;stroke-width:0.283585"
           y="85.893845"
           x="-0.79678261"
           sodipodi:role="line">Suite</tspan></text>
    </g>
    <g
       style="display:inline;stroke-width:1.00013;stroke-miterlimit:4;stroke-dasharray:none"
       transform="matrix(2.8106463,0,0,2.8106463,-575.18666,98.083071)"
       id="g4220">
      <g
         style="stroke-width:1.00013;stroke-miterlimit:4;stroke-dasharray:none"
         id="g986"
         transform="translate(217.69992,16.950943)">
        <text
           id="text939-3-9"
           y="159.20268"
           x="174.48697"
           style="font-size:9.80399px;line-height:0.95;font-family:sans-serif;text-align:start;text-anchor:start;display:inline;stroke-width:0.926483;stroke-miterlimit:4;stroke-dasharray:none"
           xml:space="preserve"><tspan
             id="tspan5120-3"
             style="font-style:normal;font-variant:normal;font-weight:normal;font-stretch:normal;font-size:9.80399px;font-family:'Rockwell Extra Bold';-inkscape-font-specification:'Rockwell Extra Bold, ';text-align:center;text-anchor:middle;stroke-width:0.926483;stroke-miterlimit:4;stroke-dasharray:none"
             y="159.20268"
             x="174.48697"
             sodipodi:role="line">RESERVE </tspan><tspan
             id="tspan1526"
             style="font-style:normal;font-variant:normal;font-weight:normal;font-stretch:normal;font-size:9.80399px;font-family:'Rockwell Extra Bold';-inkscape-font-specification:'Rockwell Extra Bold, ';text-align:center;text-anchor:middle;stroke-width:0.926483;stroke-miterlimit:4;stroke-dasharray:none"
             y="168.55125"
             x="174.48697"
             sodipodi:role="line">ROOMS VIA </tspan><tspan
             id="tspan1528"
             style="font-style:normal;font-variant:normal;font-weight:normal;font-stretch:normal;font-size:9.80399px;font-family:'Rockwell Extra Bold';-inkscape-font-specification:'Rockwell Extra Bold, ';text-align:center;text-anchor:middle;stroke-width:0.926483;stroke-miterlimit:4;stroke-dasharray:none"
             y="177.89983"
             x="174.48697"
             sodipodi:role="line">CLARKSON </tspan><tspan
             id="tspan1530"
             style="font-style:normal;font-variant:normal;font-weight:normal;font-stretch:normal;font-size:9.80399px;font-family:'Rockwell Extra Bold';-inkscape-font-specification:'Rockwell Extra Bold, ';text-align:center;text-anchor:middle;stroke-width:0.926483;stroke-miterlimit:4;stroke-dasharray:none"
             y="187.24841"
             x="174.48697"
             sodipodi:role="line">VIRTUAL </tspan><tspan
             id="tspan1532"
             style="font-style:normal;font-variant:normal;font-weight:normal;font-stretch:normal;font-size:9.80399px;font-family:'Rockwell Extra Bold';-inkscape-font-specification:'Rockwell Extra Bold, ';text-align:center;text-anchor:middle;stroke-width:0.926483;stroke-miterlimit:4;stroke-dasharray:none"
             y="196.59698"
             x="174.48697"
             sodipodi:role="line">EMS PROGRAM</tspan></text>
      </g>
      <g
         style="stroke-width:1.00013;stroke-miterlimit:4;stroke-dasharray:none"
         id="g3057"
         transform="matrix(0.9150372,0,0,0.9150372,215.9574,51.775698)">
        <text
           id="text923"
           y="140.69067"
           x="15.082247"
           style="font-size:17.6389px;line-height:1.25;font-family:sans-serif;stroke-width:1.00013;stroke-miterlimit:4;stroke-dasharray:none"
           xml:space="preserve"><tspan
             id="tspan941"
             style="font-style:normal;font-variant:normal;font-weight:normal;font-stretch:normal;font-size:17.6389px;font-family:'Rockwell Extra Bold';-inkscape-font-specification:'Rockwell Extra Bold, ';stroke-width:1.00013;stroke-miterlimit:4;stroke-dasharray:none"
             y="140.69067"
             x="15.082247"
             sodipodi:role="line">WEBSITE</tspan></text>
        <path
           id="path1431"
           d="M 6.1205524,238.9282 V 223.47242 H 21.576327 37.032111 v 15.45578 15.45578 H 21.576327 6.1205524 Z m 26.2748216,0 V 228.10915 H 21.576327 10.757281 v 10.81905 10.81905 h 10.819046 10.819047 z m -17.442954,0 v -6.62391 h 6.623907 6.623907 v 6.62391 6.6239 H 21.576327 14.95242 Z m 26.495629,13.24781 v -2.20798 h 2.20796 2.207978 v -2.20796 -2.20797 h -2.207978 -2.20796 v -8.83188 -8.83186 h 2.20796 2.207978 v 2.20797 2.20796 h 2.20796 2.207969 v 2.20797 2.20796 h 2.207969 2.20797 v 2.20798 2.20796 h 4.415938 4.415938 v 2.20797 2.20797 h -2.207969 -2.207969 v 4.41593 4.41595 h -4.415938 -4.415939 v -2.20797 -2.20798 h -2.207969 -2.20796 v 2.20798 2.20797 h -2.207978 -2.20796 z m 13.247806,-6.62391 v -4.41594 h -2.20797 -2.207969 v -2.20796 -2.20798 h -2.207969 -2.20796 v 4.41594 4.41594 h 2.20796 2.207969 v 2.20797 2.20796 h 2.207969 2.20797 z m 30.911558,6.62391 v -2.20798 h -4.415921 -4.415964 v -2.20796 -2.20797 h -2.20796 -2.207961 v 2.20797 2.20796 h -2.207969 -2.207969 v -2.20796 -2.20797 h 2.207969 2.207969 v -2.20797 -2.20797 h 4.415921 4.415964 v -2.20796 -2.20798 h -6.623924 -6.623899 v -2.20796 -2.20797 H 65.7357 63.527731 v 2.20797 2.20796 h -2.207969 -2.207969 v -4.41593 -4.41593 h 2.207969 2.207969 v -2.20797 -2.20797 h -2.207969 -2.207969 v -2.20797 -2.20797 h -4.415938 -4.415939 v 2.20797 2.20797 h 2.207969 2.20797 v 2.20797 2.20797 h -2.20797 -2.207969 v -2.20797 -2.20797 h -4.415929 -4.415938 v -2.20797 -2.20797 h 4.415938 4.415929 v -4.41594 -4.41594 h 2.207969 2.20797 v -2.20797 -2.20796 h -2.20797 -2.207969 v -2.20797 -2.20797 h -2.207969 -2.20796 v -2.20797 -2.20797 h -2.207978 -2.20796 v 2.20797 2.20797 h -4.415938 -4.415939 v 2.20797 2.20797 h 2.207969 2.20797 v 2.20796 2.20797 h -4.415939 -4.415938 v 2.20797 2.20797 h -4.415938 -4.415938 v 2.20797 2.20797 H 17.160389 14.95242 v -4.41594 -4.41594 h 4.415938 4.415938 v -2.20797 -2.20796 h -2.207969 -2.207969 v -2.20797 -2.20797 H 17.160389 14.95242 v 2.20797 2.20797 h -2.207969 -2.207969 v 6.6239 6.62391 H 8.328513 6.1205524 v -13.24781 -13.24782 h 2.2079606 2.207969 v 2.20797 2.20797 h 2.207969 2.207969 v -4.41594 -4.41594 h 2.207969 2.207969 v -2.20797 -2.20796 H 17.160389 14.95242 v -2.20797 -2.20796 h 11.039845 11.039846 v 2.20796 2.20797 h 4.415938 4.415938 v -2.20797 -2.20796 h -2.207978 -2.20796 v -13.24782 -13.24781 h 2.20796 2.207978 v -2.20796 -2.20798 h 4.415929 4.415939 v -2.20797 -2.20797 h 2.207969 2.207969 v 2.20797 2.20797 h 2.207969 2.207969 v -2.20797 -2.20797 h 8.831876 8.831885 v 4.41594 4.41594 h -2.207969 -2.207995 v 2.20797 2.20796 h 2.207995 2.207969 v 2.20797 2.20797 h -6.623924 -6.623899 v 2.20797 2.20797 H 65.7357 63.527731 v 4.41594 4.41594 h -2.207969 -2.207969 v -4.41594 -4.41594 h -2.207969 -2.207969 v -2.20797 -2.20797 h -2.20797 -2.207969 v -2.20797 -2.20797 h -2.207969 -2.20796 v 4.41594 4.41594 h 2.20796 2.207969 v 2.20797 2.20797 h 2.207969 2.20797 v 2.20797 2.20797 h -2.20797 -2.207969 v -2.20797 -2.20797 h -2.207969 -2.20796 v 4.41594 4.41594 h 2.20796 2.207969 v 2.20796 2.20797 h 2.207969 2.20797 v -2.20797 -2.20796 h 2.207969 2.207969 v 8.83186 8.83188 h 4.415938 4.415938 v -2.20797 -2.20797 H 65.7357 63.527731 v -2.20797 -2.20797 h 2.207969 2.207969 v 2.20797 2.20797 h 2.207969 2.207969 v -4.41594 -4.41593 h -4.415938 -4.415938 v -2.20797 -2.20796 h 4.415938 4.415938 v -2.20797 -2.20797 h -2.207969 -2.207969 v -2.20797 -2.20797 h 2.207969 2.207969 v -2.20797 -2.20797 h 4.415921 4.415964 v 4.41594 4.41594 h -2.207969 -2.207995 v 2.20797 2.20797 h 2.207995 2.207969 v 2.20796 2.20797 h 2.20796 2.207961 v -2.20797 -2.20796 H 96.647258 107.6871 v 2.20796 2.20797 h 2.20796 2.20796 v 2.20796 2.20797 h 2.20801 2.20795 v 6.62391 6.62391 h -2.20795 -2.20801 v 2.20797 2.20797 h 2.20801 2.20795 v 4.41593 4.41594 h -2.20795 -2.20801 v -2.20797 -2.20797 h -2.20796 -2.20796 v -4.41593 -4.41594 h -2.20796 -2.20797 v 6.6239 6.62391 h 2.20797 2.20796 v 4.41594 4.41594 h 4.41592 4.41596 v 15.45578 15.45578 H 101.06319 85.607413 Z m 4.415955,-6.62391 v -4.41594 h 2.207969 2.207961 v 2.20797 2.20797 h 4.415921 4.415951 v 2.20797 2.20796 h 4.41593 4.41592 v -4.41593 -4.41594 h -2.20796 -2.20796 v 2.20797 2.20797 h -2.20796 -2.20797 v -4.41594 -4.41594 h -2.20798 -2.207971 v 2.20798 2.20796 h -2.207961 -2.20796 v -2.20796 -2.20798 h -2.207961 -2.207969 v 2.20798 2.20796 h -4.415955 -4.415921 v 2.20797 2.20797 h 2.20796 2.207961 v 2.20797 2.20796 h 2.207969 2.207986 z M 72.359607,230.09633 v -2.20797 h 2.207961 2.20796 v -2.20797 -2.20797 h -2.20796 -2.207961 v -2.20797 -2.20797 h 2.207961 2.20796 v -4.41594 -4.41594 h -2.20796 -2.207961 v 2.20797 2.20797 h -2.207969 -2.207969 v -6.62391 -6.6239 h -6.623907 -6.623907 v -6.62391 -6.62391 h -2.20797 -2.207969 v 2.20797 2.20797 h -2.207969 -2.20796 v 2.20797 2.20797 h 2.20796 2.207969 v 2.20797 2.20797 h 2.207969 2.20797 v 2.20797 2.20797 h 4.415938 4.415938 v 2.20796 2.20797 h -2.207969 -2.207969 v 4.41594 4.41594 h 4.415938 4.415938 v 2.20797 2.20797 h 2.207969 2.207969 v 2.20797 2.20797 h -2.207969 -2.207969 v 2.20797 2.20796 h 2.207969 2.207969 z m 22.079691,-4.41594 v -6.62391 h -6.623916 -6.62389 v 6.62391 6.6239 h 6.62389 6.623916 z m -8.831885,0 v -2.20797 h 2.207969 2.207986 v 2.20797 2.20797 h -2.207986 -2.207969 z m 22.079687,4.41594 v -2.20797 h -2.20796 -2.20797 v 2.20797 2.20796 h 2.20797 2.20796 z m -4.41593,-13.24782 v -2.20797 h -2.20798 -2.207971 v -2.20797 -2.20797 h -2.207961 -2.20796 v -2.20797 -2.20796 h 2.20796 2.207961 v -2.20797 -2.20797 h 2.207971 2.20798 v -2.20797 -2.20797 h 4.41593 4.41592 v -2.20797 -2.20797 h -2.20796 -2.20796 v -4.41594 -4.41593 h -6.62391 -6.623892 v 4.41593 4.41594 h -2.207961 -2.207969 v 4.41594 4.41594 h -2.207986 -2.207969 v -4.41594 -4.41594 h -2.207961 -2.20796 v -2.20797 -2.20797 h -2.207969 -2.207995 v 2.20797 2.20797 h -2.20796 -2.207961 v 2.20797 2.20797 h 4.415921 4.415964 v 2.20797 2.20797 h -4.415964 -4.415921 v 2.20797 2.20797 h 6.623916 6.62389 v 2.20796 2.20797 h -2.207961 -2.20796 v 2.20797 2.20797 h 8.831876 8.831851 v 2.20797 2.20797 h 2.207971 2.20798 z M 90.023368,203.6007 v -2.20797 h 2.207969 2.207961 v -4.41594 -4.41594 h 2.20796 2.207961 v -2.20797 -2.20797 h 2.207971 2.20798 v 2.20797 2.20797 h -2.20798 -2.207971 v 4.41594 4.41594 h -2.207961 -2.20796 v 2.20797 2.20797 h -2.207961 -2.207969 z m -66.239072,-4.41594 v -2.20797 h 2.207969 2.207969 v 2.20797 2.20797 h 2.207969 2.207969 v -2.20797 -2.20797 h 2.207969 2.20797 v -2.20797 -2.20797 h -2.20797 -2.207969 v 2.20797 2.20797 h -2.207969 -2.207969 v -2.20797 -2.20797 h -2.207969 -2.207969 v -2.20797 -2.20797 h 2.207969 2.207969 v -2.20797 -2.20796 h -2.207969 -2.207969 v 2.20796 2.20797 h -2.207969 -2.207969 v 2.20797 2.20797 h 2.207969 2.207969 v 2.20797 2.20797 h -2.207969 -2.207969 v 2.20797 2.20797 h 2.207969 2.207969 z m 13.247815,-13.24782 v -2.20796 h -2.20797 -2.207969 v 2.20796 2.20797 h 2.207969 2.20797 z m 52.991257,0 v -2.20796 h -2.207986 -2.207969 v 2.20796 2.20797 h 2.207969 2.207986 z m -13.24784,-4.41593 v -2.20796 h -2.20796 -2.207961 v 2.20796 2.20797 h 2.207961 2.20796 z m 0,-8.83187 v -2.20797 h -2.20796 -2.207961 v 2.20797 2.20797 h 2.207961 2.20796 z m -8.831859,-13.24782 v -2.20797 h 2.207969 2.207969 v -4.41593 -4.41594 h -2.207969 -2.207969 v 2.20798 2.20796 h -8.831876 -8.831877 v 2.20797 2.20796 h 2.207969 2.20797 v 2.20797 2.20797 h 6.623907 6.623907 z m -35.327497,57.40719 v -2.20797 h 2.207969 2.20797 v 2.20797 2.20797 h -2.20797 -2.207969 z M 6.1205524,181.52101 v -2.20796 h 2.2079606 2.207969 v 2.20796 2.20797 H 8.328513 6.1205524 Z m 0,-22.07969 V 143.98554 H 21.576327 37.032111 v 15.45578 15.45579 H 21.576327 6.1205524 Z m 26.2748216,0 V 148.62228 H 21.576327 10.757281 v 10.81904 10.81905 h 10.819046 10.819047 z m -17.442954,0 v -6.6239 h 6.623907 6.623907 v 6.6239 6.62391 H 21.576327 14.95242 Z m 70.654993,0 v -15.45578 h 15.455777 15.45579 v 15.45578 15.45579 H 101.06319 85.607413 Z m 26.274837,0 V 148.62228 H 101.06319 90.24415 v 10.81904 10.81905 h 10.81904 10.81906 z m -17.442952,0 v -6.6239 h 6.623892 6.62391 v 6.6239 6.62391 h -6.62391 -6.623892 z"
           style="fill:#000000;stroke-width:0.0551991" />
      </g>
      <g
         style="stroke-width:1.00013;stroke-miterlimit:4;stroke-dasharray:none"
         id="g3052"
         transform="translate(222.18134,12.435443)">
        <text
           xml:space="preserve"
           style="font-size:9.80397px;line-height:0.75;font-family:sans-serif;text-align:start;text-anchor:start;stroke-width:0.926483;stroke-miterlimit:4;stroke-dasharray:none"
           x="169.88826"
           y="214.25465"
           id="text939-3"><tspan
             sodipodi:role="line"
             x="169.88826"
             y="214.25465"
             style="font-style:normal;font-variant:normal;font-weight:normal;font-stretch:normal;font-size:9.80397px;font-family:'Rockwell Extra Bold';-inkscape-font-specification:'Rockwell Extra Bold, ';text-align:center;text-anchor:middle;stroke-width:0.926483;stroke-miterlimit:4;stroke-dasharray:none"
             id="tspan5116">WORKSHOPS</tspan><tspan
             sodipodi:role="line"
             x="169.88826"
             y="221.64241"
             style="font-style:normal;font-variant:normal;font-weight:normal;font-stretch:normal;font-size:9.80397px;font-family:'Rockwell Extra Bold';-inkscape-font-specification:'Rockwell Extra Bold, ';text-align:center;text-anchor:middle;stroke-width:0.926483;stroke-miterlimit:4;stroke-dasharray:none"
             id="tspan5120">EACH SUNDAY</tspan></text>
        <path
           style="fill:#000000;stroke-width:0.0243716"
           d="m 145.65308,265.28701 v -6.82405 h 6.82405 6.82405 v 6.82405 6.82405 h -6.82405 -6.82405 z m 11.60089,0 v -4.77683 h -4.77684 -4.77684 v 4.77683 4.77684 h 4.77684 4.77684 z m -7.70144,0 v -2.92459 h 2.9246 2.92459 v 2.92459 2.92459 h -2.92459 -2.9246 z m 11.69838,5.84919 v -0.97486 h 0.97487 0.97486 v -1.94974 -1.94972 h -0.97486 -0.97487 v -4.87432 -4.87433 h -1.94973 -1.94973 v -0.97486 -0.97487 h 1.94973 1.94973 v 0.97487 0.97486 h 0.97487 0.97486 v 0.97487 0.97486 h 0.97486 0.97487 v 0.97486 0.97487 h -0.97487 -0.97486 v 0.97487 0.97486 h 0.97486 0.97487 v 2.92459 2.92459 h 0.97486 0.97487 v 0.97487 0.97487 h -1.94973 -1.94973 v 0.97486 0.97486 h -0.97486 -0.97487 z m 9.74865,0 v -0.97486 h 0.97486 0.97487 v -2.9246 -2.92459 h -1.94973 -1.94973 v -1.94973 -1.94973 h -0.97487 -0.97486 v -1.94973 -1.94973 h -0.97487 -0.97486 v -0.97486 -0.97487 h 0.97486 0.97487 v -0.97486 -0.97487 h -0.97487 -0.97486 v -1.94973 -1.94973 h -1.94973 -1.94973 v 1.94973 1.94973 h -2.92459 -2.9246 v 0.97487 0.97486 h -0.97486 -0.97487 v 0.97487 0.97486 h -1.94972 -1.94974 v -0.97486 -0.97487 h 0.97487 0.97487 v -0.97486 -0.97487 h 1.94972 1.94973 v -0.97486 -0.97487 h -2.92459 -2.9246 v 0.97487 0.97486 h -0.97486 -0.97486 v 1.94973 1.94973 h -0.97487 -0.97486 v -3.89946 -3.89946 h 1.94973 1.94972 v -0.97486 -0.97487 h 0.97487 0.97487 v -0.97486 -0.97487 h -0.97487 -0.97487 v -0.97486 -0.97487 h 0.97487 0.97487 v -1.94973 -1.94973 h 7.79891 7.79892 v -0.97486 -0.97486 h -0.97487 -0.97486 v -1.94973 -1.94973 h -1.94973 -1.94973 v -0.97487 -0.97486 h 1.94973 1.94973 v -0.97487 -0.97486 h -1.94973 -1.94973 v -2.9246 -2.92459 h 0.97487 0.97486 v 0.97487 0.97486 h 0.97486 0.97487 v 1.94973 1.94973 h 0.97486 0.97487 v 0.97486 0.97487 h 0.97486 0.97487 v -0.97487 -0.97486 h 0.97486 0.97487 v -2.9246 -2.92459 h 0.97486 0.97487 v 1.94973 1.94973 h 1.94973 1.94973 v -0.97487 -0.97486 h 0.97486 0.97487 v 0.97486 0.97487 h -0.97487 -0.97486 v 0.97486 0.97487 h -2.9246 -2.92459 v 0.97486 0.97487 h -0.97487 -0.97486 v 0.97486 0.97487 h -0.97487 -0.97486 v 1.94973 1.94973 h 0.97486 0.97487 v -0.97487 -0.97486 h 0.97486 0.97487 v 0.97486 0.97487 h 0.97486 0.97487 v -1.94973 -1.94973 h 0.97486 0.97487 v 4.87432 4.87432 h 0.97486 0.97487 v 0.97487 0.97486 h 1.94973 1.94973 v -0.97486 -0.97487 h -0.97487 -0.97486 v -1.94973 -1.94973 h 0.97486 0.97487 v 1.94973 1.94973 h 0.97486 0.97487 v -0.97486 -0.97487 h 0.97486 0.97487 v -0.97486 -0.97487 h 0.97486 0.97486 v 0.97487 0.97486 h 0.97487 0.97486 v -0.97486 -0.97487 h 2.9246 2.92459 v 0.97487 0.97486 h -0.97486 -0.97487 v 0.97487 0.97486 h 0.97487 0.97486 v 2.9246 2.92459 h -0.97486 -0.97487 v 0.97487 0.97486 h 0.97487 0.97486 v 1.94973 1.94973 h -0.97486 -0.97487 v 1.94973 1.94973 h 0.97487 0.97486 v 6.82405 6.82405 h -0.97486 -0.97487 v -0.97486 -0.97486 h -1.94973 -1.94973 v 0.97486 0.97486 h -0.97486 -0.97487 v -0.97486 -0.97486 h -1.94972 -1.94973 v 0.97486 0.97486 h -2.9246 -2.92459 v -0.97486 -0.97486 h -0.97487 -0.97486 v 0.97486 0.97486 h -1.94973 -1.94973 z m 11.69838,-2.9246 v -1.94972 h 1.94973 1.94972 v 1.94972 1.94974 h 0.97487 0.97486 v -1.94974 -1.94972 h 0.97487 0.97486 v -2.9246 -2.92459 h 0.97487 0.97486 v -0.97487 -0.97486 h -0.97486 -0.97487 v -0.97486 -0.97487 h -0.97486 -0.97487 v -1.94973 -1.94973 h -0.97486 -0.97487 v 2.9246 2.92459 h 0.97487 0.97486 v 0.97486 0.97487 h -0.97486 -0.97487 v 0.97487 0.97486 h 0.97487 0.97486 v 1.94973 1.94973 h -0.97486 -0.97487 v -0.97487 -0.97486 h -1.94972 -1.94973 v 0.97486 0.97487 h -0.97487 -0.97486 v 0.97486 0.97486 h -1.94973 -1.94973 v 0.97487 0.97487 h 2.92459 2.9246 z m -9.74865,-6.82404 v -0.97487 h 0.97486 0.97487 v 0.97487 0.97486 h 0.97486 0.97487 v -3.89946 -3.89946 h 3.89946 3.89946 v -0.97486 -0.97487 h -0.97487 -0.97486 v -0.97486 -0.97487 h 0.97486 0.97487 v -0.97486 -0.97487 h 0.97486 0.97486 v 0.97487 0.97486 h 1.94973 1.94973 v -0.97486 -0.97487 h 0.97487 0.97486 v -0.97486 -0.97487 h -3.89946 -3.89945 v -0.97486 -0.97487 h -0.97487 -0.97486 v 0.97487 0.97486 h 0.97486 0.97487 v 0.97487 0.97486 h -2.9246 -2.92459 v -0.97486 -0.97487 h -0.97487 -0.97486 v 3.89946 3.89946 h -0.97487 -0.97486 v -1.94973 -1.94973 h -1.94973 -1.94973 v -0.97486 -0.97487 h -1.94973 -1.94973 v 0.97487 0.97486 h 1.94973 1.94973 v 0.97487 0.97486 h -0.97487 -0.97486 v 0.97487 0.97486 h -0.97487 -0.97486 v 0.97487 0.97486 h 2.92459 2.9246 v 0.97487 0.97486 h -1.94973 -1.94973 v 0.97486 0.97487 h 0.97486 0.97487 v 0.97487 0.97486 h 0.97486 0.97487 z m 0,-5.84919 v -0.97487 h 0.97486 0.97487 v 0.97487 0.97486 h -0.97487 -0.97486 z m 5.84919,-3.89946 v -0.97487 h 0.97486 0.97487 v 0.97487 0.97486 h -0.97487 -0.97486 z m 5.84919,7.79891 v -2.92459 h -2.9246 -2.92459 v 2.92459 2.9246 h 2.92459 2.9246 z m -3.89946,0 v -0.97486 h 0.97486 0.97487 v 0.97486 0.97487 h -0.97487 -0.97486 z m 11.69837,-5.84918 v -0.97487 h -0.97486 -0.97487 v 0.97487 0.97486 h 0.97487 0.97486 z m -33.1454,-3.89946 v -0.97487 h 0.97487 0.97486 v -1.94973 -1.94973 h -1.94973 -1.94973 v 0.97487 0.97486 h -0.97486 -0.97487 v -1.94973 -1.94973 h -1.94973 -1.94972 v 0.97487 0.97486 h 0.97486 0.97486 v 1.94973 1.94973 h 1.94973 1.94973 v 0.97487 0.97486 h 0.97487 0.97486 z m -1.94973,-1.94973 v -0.97487 h 0.97487 0.97486 v 0.97487 0.97486 h -0.97486 -0.97487 z m 17.54757,-0.97487 v -1.94973 h -0.97487 -0.97486 v -0.97486 -0.97487 h -1.94973 -1.94973 v 0.97487 0.97486 h 0.97486 0.97487 v 0.97487 0.97486 h 0.97486 0.97487 v 0.97487 0.97486 h 0.97486 0.97487 z m -7.79892,-2.92459 v -2.9246 h 1.94973 1.94973 v -1.94973 -1.94972 h -0.97487 -0.97486 v 0.97486 0.97486 h -0.97487 -0.97486 v 0.97487 0.97486 h -0.97487 -0.97486 v 1.94973 1.94973 h -0.97487 -0.97486 v 0.97487 0.97486 h 1.94973 1.94973 z m 25.34648,0 v -0.97487 h -1.94973 -1.94973 v 0.97487 0.97486 h 1.94973 1.94973 z m -33.1454,-1.94973 v -0.97487 h -0.97486 -0.97487 v 0.97487 0.97486 h 0.97487 0.97486 z m 9.74865,25.34648 v -0.97486 h 0.97486 0.97487 v 0.97486 0.97486 h -0.97487 -0.97486 z m -23.39675,-25.34648 v -2.9246 h 0.97486 0.97487 v 2.9246 2.92459 h -0.97487 -0.97486 z m 0,-11.69838 v -6.82405 h 6.82405 6.82405 v 6.82405 6.82406 h -6.82405 -6.82405 z m 11.60089,0 v -4.77684 h -4.77684 -4.77684 v 4.77684 4.77684 h 4.77684 4.77684 z m -7.70144,0 v -2.92459 h 2.9246 2.92459 v 2.92459 2.9246 h -2.92459 -2.9246 z m 11.69838,5.84919 v -0.97486 h 0.97487 0.97486 v 0.97486 0.97487 h -0.97486 -0.97487 z m 15.59784,0 v -0.97486 h 0.97486 0.97487 v 0.97486 0.97487 h -0.97487 -0.97486 z m 3.89946,-5.84919 v -6.82405 h 6.82405 6.82405 v 6.82405 6.82406 h -6.82405 -6.82405 z m 11.60089,0 v -4.77684 h -4.77684 -4.77684 v 4.77684 4.77684 h 4.77684 4.77684 z m -7.70143,0 v -2.92459 h 2.92459 2.92459 v 2.92459 2.9246 h -2.92459 -2.92459 z M 167.1001,224.3427 v -0.97487 h 0.97486 0.97487 v 0.97487 0.97486 h -0.97487 -0.97486 z"
           id="path1509" />
      </g>
    </g>
    <g
       transform="translate(0.84890468,-57.074403)"
       id="g1654">
      <text
         xml:space="preserve"
         style="font-size:31.75px;line-height:1.25;font-family:sans-serif;stroke-width:0.264583"
         x="396.26907"
         y="407.8533"
         id="text1601"><tspan
           sodipodi:role="line"
           id="tspan1599"
           x="396.26907"
           y="407.8533"
           style="font-style:normal;font-variant:normal;font-weight:normal;font-stretch:normal;font-size:31.75px;font-family:'Berlin Sans FB Demi';-inkscape-font-specification:'Berlin Sans FB Demi';stroke-width:0.264583"><tspan
             style="font-size:24.6944px"
             id="tspan1613">@clarkson.edu</tspan></tspan></text>
    </g>
    <text
       id="text1658"
       y="392.37454"
       x="37.365898"
       style="font-size:35.3158px;line-height:1.25;font-family:sans-serif;stroke-width:0.189192"
       xml:space="preserve"><tspan
         id="tspan1668"
         style="font-style:normal;font-variant:normal;font-weight:normal;font-stretch:normal;font-size:35.3158px;font-family:'Eras Demi ITC';-inkscape-font-specification:'Eras Demi ITC';stroke-width:0.189192"
         y="392.37454"
         x="37.365898"
         sodipodi:role="line">PROFESSIONAL VIDEO AND PHOTO.</tspan><tspan
         id="tspan1672"
         style="font-style:normal;font-variant:normal;font-weight:normal;font-stretch:normal;font-size:35.3158px;font-family:'Eras Demi ITC';-inkscape-font-specification:'Eras Demi ITC';stroke-width:0.189192"
         y="437.10254"
         x="37.365898"
         sodipodi:role="line">STUDIO AUDIO EQUIPMENT.</tspan><tspan
         id="tspan1676"
         style="font-style:normal;font-variant:normal;font-weight:normal;font-stretch:normal;font-size:35.3158px;font-family:'Eras Demi ITC';-inkscape-font-specification:'Eras Demi ITC';stroke-width:0.189192"
         y="481.83054"
         x="37.365898"
         sodipodi:role="line">EDITING WORKSTATIONS.</tspan></text>
  </g>
  <g
     inkscape:label="2red"
     id="layer2"
     inkscape:groupmode="layer">
    <text
       id="text835"
       y="155.37006"
       x="270.63864"
       style="font-size:30.7058px;line-height:1.25;font-family:sans-serif;text-align:center;text-anchor:middle;display:inline;stroke-width:0.719665"
       xml:space="preserve"><tspan
         style="font-style:normal;font-variant:normal;font-weight:normal;font-stretch:normal;font-size:30.7058px;font-family:'Eras Bold ITC';-inkscape-font-specification:'Eras Bold ITC';text-align:start;text-anchor:start;fill:#ff0000;fill-opacity:1;stroke-width:0.719665"
         y="155.37006"
         x="270.63864"
         id="tspan833"
         sodipodi:role="line">OPEN TO ALL STUDENTS, </tspan><tspan
         id="tspan895"
         style="font-style:normal;font-variant:normal;font-weight:normal;font-stretch:normal;font-size:30.7058px;font-family:'Eras Bold ITC';-inkscape-font-specification:'Eras Bold ITC';text-align:start;text-anchor:start;fill:#ff0000;fill-opacity:1;stroke-width:0.719665"
         y="194.18852"
         x="270.63864"
         sodipodi:role="line">STAFF, AND FACULTY!</tspan></text>
  </g>
  <g
     style="display:inline"
     inkscape:label="3blue"
     id="layer3"
     inkscape:groupmode="layer">
    <text
       id="text1601-8"
       y="407.86365"
       x="393.95111"
       style="font-size:31.75px;line-height:1.25;font-family:sans-serif;fill:#00e4bd;fill-opacity:1;stroke:none;stroke-width:0.264583"
       xml:space="preserve"
       transform="translate(0.84890467,-57.074403)"><tspan
         style="font-style:normal;font-variant:normal;font-weight:normal;font-stretch:normal;font-size:31.75px;font-family:'Berlin Sans FB Demi';-inkscape-font-specification:'Berlin Sans FB Demi';fill:#00e4bd;fill-opacity:1;stroke:none;stroke-width:0.264583"
         y="407.86365"
         x="393.95111"
         id="tspan1599-5"
         sodipodi:role="line"><tspan
           id="tspan1609-5"
           style="font-size:38.8056px;text-align:end;text-anchor:end;fill:#00e4bd;fill-opacity:1;stroke:none;stroke-width:0.264583">innovationhub</tspan><tspan
           id="tspan1613-9"
           style="font-size:24.6944px;fill:#00e4bd;fill-opacity:1;stroke:none;stroke-width:0.264583" /></tspan></text>
    <path
       id="path1694"
       d="m 93.609334,528.23755 v -18.52606 h 3.056799 3.0568 v 18.52606 18.52606 h -3.0568 -3.056799 z m 10.312836,0 v -18.52606 h 3.0568 3.0568 v 18.52606 18.52606 h -3.0568 -3.0568 z m 10.25109,0 v -18.52606 h 3.08767 3.08768 v 18.52606 18.52606 h -3.08768 -3.08767 z m 10.31284,0 v -18.52606 h 3.0568 3.0568 v 18.52606 18.52606 h -3.0568 -3.0568 z m 10.31284,15.43838 v -3.08767 h 18.49518 18.49518 v 3.08767 3.08768 h -18.49518 -18.49518 z m 0,-10.28196 v -3.0568 h 18.49518 18.49518 v 3.0568 3.0568 h -18.49518 -18.49518 z m 0,-10.31284 v -3.0568 h 18.49518 18.49518 v 3.0568 3.0568 h -18.49518 -18.49518 z m 0,-10.28196 v -3.08768 h 18.49518 18.49518 v 3.08768 3.08768 h -18.49518 -18.49518 z"
       style="fill:#33e8b7;fill-opacity:1;stroke-width:0.0617535" />
    <path
       id="path1710"
       d="m 443.32118,545.35951 c -3.39194,-1.46275 -5.595,-4.03954 -6.47218,-7.57019 -0.70343,-2.83124 -0.6979,-2.84145 1.46497,-2.70266 1.72641,0.11077 1.95501,0.23782 2.06278,1.14646 0.3296,2.77908 1.53991,4.5881 3.86282,5.77366 6.30443,3.21765 12.99718,-0.96285 12.97017,-8.10156 -0.0109,-2.95861 -1.03069,-5.29689 -3.02686,-6.9423 -3.62714,-2.98979 -8.93484,-2.77114 -12.10402,0.49863 -1.09584,1.13061 -1.68593,1.41405 -2.9439,1.41405 h -1.57335 l 0.24638,-1.53283 c 0.13548,-0.84304 0.49983,-2.82037 0.80962,-4.39407 0.30978,-1.57368 0.96787,-5.02253 1.46238,-7.66409 l 0.8991,-4.80282 h 9.14171 9.14168 v 1.62618 1.62618 l -7.83998,0.11108 -7.83999,0.11108 -0.55886,3.06562 c -0.30739,1.68611 -0.80353,4.11548 -1.10254,5.39862 l -0.54366,2.33297 1.27842,-0.96787 c 0.70314,-0.53232 2.26612,-1.28865 3.47329,-1.6807 1.84146,-0.59808 2.57875,-0.64145 4.57895,-0.26948 6.20798,1.1545 9.65481,4.98257 10.10097,11.21825 0.38203,5.33942 -1.81016,9.32569 -6.41285,11.66111 -2.37641,1.2058 -2.94244,1.32537 -6.13128,1.2951 -2.15772,-0.0205 -4.0651,-0.27137 -4.94377,-0.6503 z m -193.3252,-1.47334 c -0.76483,-0.38703 -1.28447,-1.34619 -2.15586,-3.97931 -2.18642,-6.60687 -2.36129,-5.96034 3.0012,-11.09634 6.55893,-6.28188 5.99542,-6.06619 15.84961,-6.06619 4.48682,0 8.45562,0.11432 8.81955,0.2539 0.73467,0.28193 1.85769,2.21651 1.85769,3.20019 0,0.54913 -1.00176,0.63342 -7.52834,0.63342 h -7.52835 l -5.09537,4.59846 c -2.80246,2.52914 -5.30368,4.96632 -5.55825,5.41594 -0.36673,0.64771 -0.25963,1.47174 0.51557,3.9672 0.53815,1.7323 0.87833,3.2498 0.75594,3.37218 -0.38438,0.38439 -1.88461,0.23124 -2.93339,-0.29945 z m 32.23309,-7.49029 c -1.66292,-0.69079 -2.35578,-1.75193 -2.50833,-3.84152 l -0.10443,-1.43063 2.65688,-0.11803 c 2.4329,-0.10799 2.69133,-0.0391 3.06562,0.81751 0.37928,0.86801 0.65615,0.93547 3.8386,0.93547 2.845,0 3.50713,-0.12389 3.88314,-0.72694 0.69926,-1.1214 -0.0967,-1.36964 -5.35444,-1.66993 -2.60128,-0.14861 -5.20976,-0.49966 -5.79659,-0.7802 -1.46341,-0.69961 -2.29704,-3.20666 -1.9145,-5.75761 0.54369,-3.62562 2.64426,-4.5201 10.03361,-4.27267 5.84374,0.19567 7.02298,0.70385 7.76251,3.34519 0.28133,1.00482 0.38885,2.02541 0.23892,2.26798 -0.14986,0.24256 -1.45732,0.44104 -2.90533,0.44104 -2.30744,0 -2.63276,-0.0953 -2.63276,-0.77109 0,-0.60259 -0.40938,-0.83248 -1.8735,-1.05203 -2.35381,-0.35298 -4.94019,0.0641 -5.23982,0.84484 -0.33534,0.87388 1.39142,1.38704 4.66729,1.38704 3.66411,0 6.67762,0.66505 7.59206,1.67549 0.88143,0.97397 1.25707,4.95862 0.62233,6.60153 -0.87484,2.26432 -2.46972,2.75839 -8.83399,2.73666 -4.11856,-0.0139 -6.13589,-0.19124 -7.19727,-0.63215 z m 20.23647,-0.29857 c -0.99608,-0.85679 -1.12774,-1.28915 -1.30029,-4.26968 -0.18631,-3.21853 -0.22362,-3.32004 -1.26481,-3.44077 -0.94637,-0.10969 -1.08765,-0.32917 -1.19852,-1.86157 -0.12251,-1.6924 -0.0935,-1.7372 1.12407,-1.7372 1.1558,0 1.24975,-0.10752 1.24975,-1.43065 v -1.43062 h 2.45251 2.4525 v 1.43062 1.43065 h 3.27002 3.27 v 1.83938 1.83939 h -3.29041 -3.29041 l 0.12267,2.3503 c 0.11478,2.20183 0.18716,2.35031 1.14447,2.35031 0.74853,0 1.05681,-0.246 1.1525,-0.91968 0.1171,-0.82482 0.3596,-0.91968 2.35031,-0.91968 h 2.21971 v 1.4715 c 0,1.12848 -0.32397,1.79548 -1.38976,2.86126 -1.35016,1.35015 -1.48345,1.38975 -4.67784,1.38975 -2.85493,0 -3.4341,-0.12559 -4.39639,-0.95331 z m 14.34712,0.56336 c -0.44962,-0.18599 -1.22116,-0.77314 -1.71454,-1.30478 -0.77431,-0.83439 -0.93632,-1.62348 -1.18406,-5.76722 l -0.28699,-4.80058 h 2.51248 2.51249 v 3.47437 c 0,3.91488 0.65066,5.10941 2.78314,5.10941 2.14695,0 2.54877,-0.68669 2.81605,-4.81238 l 0.24434,-3.7714 h 2.18765 2.18761 v 6.13127 6.13126 h -2.05658 c -1.44217,0 -2.1262,-0.18142 -2.28962,-0.60726 -0.20611,-0.53715 -0.33308,-0.53715 -1.09999,0 -0.94316,0.66063 -5.20181,0.80058 -6.61198,0.21731 z m 15.48378,-0.3906 c -1.54625,-0.94286 -2.20582,-2.6732 -2.17972,-5.71827 0.0263,-3.06617 1.00724,-5.01031 2.84492,-5.63845 2.79611,-0.95572 7.42229,-0.49643 8.25934,0.82 0.16976,0.26695 0.31145,-0.94016 0.31488,-2.68245 l 0.006,-3.16782 h 2.4608 2.46081 l -0.11046,8.48158 -0.11047,8.48158 -2.1505,0.12374 c -1.63903,0.0942 -2.20791,-0.0258 -2.3918,-0.50507 -0.21431,-0.55847 -0.33821,-0.56088 -1.10826,-0.0215 -1.33114,0.93237 -6.66529,0.82094 -8.29576,-0.17329 z m 8.86829,-3.75246 c 0.58528,-0.92454 0.43294,-3.11931 -0.26493,-3.81719 -0.6937,-0.69372 -4.06263,-0.88622 -5.009,-0.28621 -0.29806,0.18896 -0.63975,1.07288 -0.75932,1.96429 -0.31932,2.38079 0.58258,3.13724 3.45634,2.89893 1.28444,-0.10645 2.36505,-0.42514 2.57691,-0.75982 z m 7.18992,4.26051 c -0.14985,-0.14985 -0.27251,-2.90894 -0.27251,-6.13126 v -5.85877 h 2.45252 2.4525 v 6.13127 6.13126 h -2.18 c -1.19902,0 -2.30264,-0.12266 -2.45251,-0.2725 z m 8.40327,-0.54672 c -1.78677,-1.08939 -2.2312,-2.44056 -2.06276,-6.27128 0.12714,-2.89216 0.24972,-3.30085 1.24694,-4.15862 1.37264,-1.18071 4.52862,-1.62818 9.03338,-1.2808 2.58717,0.19951 3.47149,0.44054 4.22973,1.15289 1.2272,1.15288 1.91553,3.71231 1.63581,6.08235 -0.52586,4.45536 -1.84466,5.29539 -8.30998,5.29316 -3.71087,-9.8e-4 -4.65294,-0.13471 -5.77312,-0.8177 z m 8.1099,-3.28268 c 0.599,-0.32056 0.79062,-0.86198 0.79062,-2.23375 0,-2.08246 -0.66278,-2.65688 -3.06562,-2.65688 -2.40078,0 -3.06564,0.57493 -3.06564,2.65096 0,1.28753 0.20497,1.92408 0.71531,2.22132 0.93552,0.5449 3.62157,0.55556 4.62533,0.0184 z m 13.18181,3.50364 c -2.20582,-0.95938 -2.78013,-2.60733 -2.78301,-7.9855 -0.005,-8.19217 0.67461,-8.78817 10.01188,-8.78817 5.16974,0 6.56679,0.12668 7.59167,0.68837 2.31642,1.2695 2.42274,1.60699 2.42274,7.69049 0,6.30392 -0.2896,7.2662 -2.50471,8.32252 -1.86381,0.88879 -12.73861,0.94211 -14.73857,0.0723 z m 11.07858,-4.55485 c 0.51425,-0.19735 0.64656,-0.9104 0.64656,-3.48452 0,-3.1531 -0.0288,-3.24753 -1.12407,-3.6695 -1.23109,-0.47435 -6.80169,-0.34092 -7.3179,0.17528 -0.17705,0.17707 -0.39232,1.56755 -0.47836,3.08998 -0.21252,3.76128 0.18874,4.13686 4.41983,4.13686 1.76407,0 3.49834,-0.11169 3.85394,-0.2481 z m 7.86783,4.88061 c -0.14985,-0.14985 -0.27251,-2.90894 -0.27251,-6.13126 v -5.85877 h 2.41845 c 1.33015,0 2.48229,0.19152 2.56032,0.4256 0.0885,0.2657 0.65593,0.16913 1.51021,-0.25702 1.70366,-0.8499 5.55783,-0.59661 7.1895,0.4725 1.57823,1.03409 1.85408,2.09814 1.85408,7.15179 v 4.46966 h -2.20868 -2.20868 l -0.14167,-3.91651 c -0.15787,-4.36548 -0.57822,-5.07602 -3.0029,-5.07602 -2.42467,0 -2.84502,0.71054 -3.0029,5.07602 l -0.14167,3.91651 h -2.14054 c -1.1773,0 -2.26318,-0.12266 -2.41306,-0.2725 z m 18.62205,-0.54672 c -1.67823,-1.02322 -2.14659,-2.23958 -2.09501,-5.44083 0.0785,-4.87341 0.98057,-5.89579 5.53887,-6.27794 4.30922,-0.36128 7.22573,0.11231 8.49222,1.37872 0.89091,0.89091 1.05197,1.41891 1.05197,3.44873 v 2.39677 h -5.13782 c -5.09431,0 -5.13672,0.008 -5.00721,0.9197 0.11633,0.81865 0.39689,0.9334 2.55424,1.04445 1.86058,0.0958 2.50627,-0.0229 2.77939,-0.51094 0.25397,-0.45384 0.99311,-0.6357 2.58357,-0.6357 2.10384,0 2.22783,0.0569 2.22783,1.02188 0,1.16042 -1.17562,2.50246 -2.69982,3.08196 -0.56768,0.21583 -2.81358,0.39173 -4.99088,0.3909 -3.2353,-9.8e-4 -4.20335,-0.15063 -5.29735,-0.8177 z m 8.08303,-7.96894 c 0,-0.46189 -0.49586,-0.61311 -2.01032,-0.61311 -2.18807,0 -3.30344,0.29079 -3.30344,0.86122 0,0.20077 1.19558,0.36503 2.65688,0.36503 2.08916,0 2.65688,-0.131 2.65688,-0.61314 z m -195.03613,4.83542 c -0.65599,-0.17412 -1.02738,-0.89376 -1.94689,-3.77233 -0.82305,-2.57658 -1.00904,-2.49371 5.59649,-2.49371 5.94504,0 7.09604,-0.2267 8.26598,-1.62806 0.11246,-0.13455 2.31966,-2.15231 4.90501,-4.48372 2.58535,-2.33141 4.94881,-4.5883 5.25214,-5.0153 0.55419,-0.78013 0.49188,-3.11414 -0.12035,-4.50766 -0.41266,-0.93928 1.07443,-0.99686 1.84256,-0.0714 0.8246,0.99358 2.85205,7.52338 2.95136,9.50543 0.0815,1.62663 -0.0624,1.90805 -1.77733,3.47438 -1.0263,0.93741 -3.47836,3.17589 -5.44901,4.9744 -1.97066,1.79851 -4.07398,3.49165 -4.67403,3.76251 -1.04552,0.47198 -13.23972,0.68175 -14.84595,0.2554 z m 199.9127,-6.50468 c -0.38948,-0.46931 -0.41931,-0.83474 -0.10845,-1.32844 0.60959,-0.96805 1.83165,-1.09818 2.44434,-0.26027 1.13455,1.55157 -1.10345,3.07371 -2.33591,1.58871 z m -80.49555,-4.87075 v -1.83937 h 2.45252 2.4525 v 1.83937 1.83939 h -2.4525 -2.45252 z"
       style="fill:#33e8b7;fill-opacity:1;stroke-width:0.408751" />
    <path
       sodipodi:nodetypes="ssssssssssssssssscsssssssssssssssssssssssssssssssssssssssssscccccsssssscssssssscssscccssssssssssssssscccsssssssssssssssssssssssssssssssssssssssssscssssssssssssssssssscssssssssccsssssssssssssccsssssssscsssssssssss"
       id="path1726"
       d="m 540.25998,544.73479 c -2.44204,-1.64568 -3.29638,-3.39353 -3.30664,-6.7648 -0.0146,-4.79753 2.76476,-7.65548 7.44494,-7.65548 3.18126,0 5.53805,1.61691 4.38386,3.00761 -0.54641,0.6584 -1.01136,0.74906 -1.76711,0.3446 -1.83714,-0.98321 -4.89072,-0.64503 -6.12346,0.67816 -1.71754,1.84357 -1.56957,5.68616 0.2906,7.54633 1.21141,1.21142 1.75486,1.37662 3.50415,1.06523 1.13872,-0.20269 2.76421,-0.41783 3.61222,-0.47809 1.53014,-0.10872 1.54182,-0.14035 1.54182,-4.17437 0,-3.16541 0.17877,-4.06482 0.80791,-4.06482 0.44435,0 0.96426,0.25298 1.15536,0.56218 0.23225,0.3758 0.6957,0.3758 1.39789,0 1.71883,-0.91989 2.80616,-0.66956 2.80616,0.64605 0,1.14608 0.0541,1.15927 1.05179,0.25636 0.57848,-0.52352 1.94759,-1.09722 3.04246,-1.27489 2.66885,-0.4331 4.87638,1.62689 4.87638,4.55047 v 1.98781 h -3.36399 c -1.85019,0 -3.36012,0.18922 -3.3554,0.4205 0.0286,1.39883 1.13463,1.9174 3.70197,1.73562 2.16058,-0.15298 2.80104,-0.4282 3.04071,-1.3067 0.32667,-1.1974 2.12697,-2.29199 4.60219,-2.79815 0.9129,-0.18668 1.54183,-0.68346 1.54183,-1.21784 0,-0.75886 -0.44628,-0.84335 -2.80332,-0.53067 -2.21599,0.29396 -2.80332,0.20601 -2.80332,-0.41978 0,-2.22721 4.61144,-3.31624 6.74087,-1.59192 1.24725,1.00995 1.4088,1.61483 1.58641,5.93969 0.15818,3.85183 0.0404,4.81523 -0.58864,4.81523 -0.43252,0 -1.06208,-0.27567 -1.39901,-0.61261 -0.44303,-0.44303 -0.92946,-0.44303 -1.75727,0 -1.57735,0.84418 -2.92201,0.76682 -4.02521,-0.23157 -0.83159,-0.75258 -1.12871,-0.74644 -2.73838,0.0566 -2.40421,1.19938 -5.26001,0.64226 -6.81026,-1.32856 -0.9202,-1.16985 -1.14866,-2.12064 -1.00545,-4.18449 0.15265,-2.20013 0.0195,-2.67061 -0.75581,-2.67032 -1.89735,7e-4 -2.70321,1.60057 -2.70321,5.36671 0,3.23049 -0.11628,3.60427 -1.12133,3.60427 -0.72625,0 -1.12133,-0.37378 -1.12133,-1.06089 0,-1.04075 -0.0395,-1.04075 -2.08087,0 -2.76403,1.40919 -5.19015,1.33884 -7.49951,-0.21744 z m 29.80117,-1.54472 c 1.73427,-0.92815 1.39636,-2.31781 -0.45736,-1.88089 -2.13437,0.50305 -2.85317,1.26058 -1.81747,1.91538 1.04454,0.66038 0.97447,0.66144 2.27483,-0.0345 z m -7.46566,-5.16642 c -0.12849,-0.38546 -1.07461,-0.70083 -2.1025,-0.70083 -1.02788,0 -1.974,0.31537 -2.10249,0.70083 -0.16197,0.48591 0.4828,0.70083 2.10249,0.70083 1.6197,0 2.26447,-0.21492 2.1025,-0.70083 z m 14.01661,7.3839 c -0.78551,-0.45752 -0.98116,-1.34852 -0.98116,-4.46827 0,-3.09004 -0.17412,-3.89679 -0.841,-3.89679 -0.46255,0 -0.84099,-0.47761 -0.84099,-1.06135 0,-0.58374 0.37844,-1.20657 0.84099,-1.38407 0.46255,-0.17749 0.841,-0.93439 0.841,-1.68199 0,-1.12406 0.9016,-2.03991 2.00818,-2.03991 0.12896,0 0.23448,0.74708 0.23448,1.66017 v 1.66016 l 4.89248,0.162 4.89247,0.16199 1.4365,3.74006 1.43651,3.74005 1.44116,-3.74005 c 1.12729,-2.9255 1.71967,-3.78131 2.71993,-3.92948 1.32463,-0.19621 1.34072,-0.039 0.3061,2.99275 -0.27393,0.80272 -0.15499,0.7406 0.41861,-0.21862 0.94653,-1.58287 2.9908,-2.81738 4.7114,-2.84517 1.99646,-0.0322 4.1684,2.23828 4.27939,4.47361 l 0.097,1.95417 -3.50415,0.16692 c -1.92729,0.0918 -3.50416,0.37628 -3.50416,0.63217 0,1.08486 1.79407,1.8122 4.03073,1.63409 2.86137,-0.22784 3.65999,1.15315 1.29107,2.23251 -4.15014,1.89093 -7.34396,-0.34687 -8.23286,-5.76847 -0.11565,-0.70539 -0.69284,0.20377 -1.60173,2.52299 -2.04208,5.21076 -2.96595,4.97899 -5.66111,-1.42021 l -2.12524,-5.04599 -0.0177,5.18615 c -0.0176,5.15338 -0.0266,5.18615 -1.41941,5.18615 -1.3783,0 -1.40166,-0.0747 -1.40166,-4.48532 v -4.48531 h -2.24266 -2.24266 v 3.08365 c 0,2.89558 0.0835,3.08366 1.36857,3.08366 1.81372,0 2.42417,1.10319 1.13292,2.04738 -1.21894,0.89131 -2.4092,0.93887 -3.76299,0.15037 z m 25.37008,-7.52407 c -0.38388,-0.46255 -1.39698,-0.84099 -2.25133,-0.84099 -0.86355,0 -1.69666,0.37346 -1.87608,0.84099 -0.25798,0.6723 0.19363,0.841 2.25133,0.841 2.22447,0 2.47925,-0.11421 1.87608,-0.841 z m 10.82004,7.21904 c -5.01651,-2.47362 -5.39307,-10.74326 -0.62165,-13.65231 2.20786,-1.34609 5.48137,-1.46417 7.77072,-0.28031 1.56888,0.8113 1.65415,0.79685 1.65415,-0.28033 0,-0.83767 0.36785,-1.13573 1.40166,-1.13573 h 1.40167 v 8.12964 8.12964 h -1.40167 c -1.02442,0 -1.40166,-0.29957 -1.40166,-1.11309 0,-1.10991 -0.005,-1.10992 -1.82216,-0.002 -2.18709,1.3335 -4.55113,1.40278 -6.98106,0.20459 z m 6.31165,-2.68736 c 0.76698,-0.56083 1.29341,-0.62312 1.78915,-0.21168 0.55368,0.45951 0.70242,-0.45529 0.70242,-4.32 0,-4.35448 -0.0967,-4.82267 -0.86476,-4.18526 -0.655,0.5436 -1.02219,0.56025 -1.51379,0.0686 -0.35697,-0.35697 -1.69482,-0.64904 -2.973,-0.64904 -2.84933,0 -4.15447,1.25864 -4.57779,4.41474 -0.265,1.97579 -0.0887,2.47344 1.40605,3.96817 1.88699,1.88698 4.21831,2.24042 6.03172,0.91442 z m 8.66993,2.87781 c -1.97401,-0.9988 -2.90077,-3.07955 -2.62356,-5.89041 0.27756,-2.81436 1.51173,-4.39501 3.82901,-4.90397 6.09309,-1.33826 9.30436,7.84237 3.74817,10.71558 -1.89063,0.97768 -3.13787,0.99753 -4.95362,0.0788 z m 4.36214,-2.75597 c 0.9311,-0.9311 0.84453,-4.09336 -0.1343,-4.90571 -0.4439,-0.36841 -1.51617,-0.58852 -2.38282,-0.48915 -1.38604,0.15892 -1.59711,0.44089 -1.75326,2.34213 -0.0976,1.1888 -0.0425,2.51337 0.12257,2.94349 0.36758,0.95789 3.22393,1.03312 4.14781,0.10924 z m 5.28287,2.60333 c -1.12972,-0.79129 -1.24609,-1.34103 -1.24609,-5.88698 0,-4.6045 0.0897,-5.01419 1.09775,-5.01419 0.98137,0 1.1151,0.46065 1.2615,4.34515 0.15275,4.05341 0.25052,4.35745 1.4561,4.52836 2.25621,0.31984 2.91263,-0.81095 2.91263,-5.0175 0,-3.48223 0.1087,-3.85601 1.12133,-3.85601 1.05013,0 1.12133,0.37378 1.12133,5.88698 0,4.75194 -0.15577,5.88698 -0.80791,5.88698 -0.44435,0 -0.96426,-0.25298 -1.15535,-0.56218 -0.23226,-0.3758 -0.69571,-0.3758 -1.3979,0 -1.4932,0.79914 -2.92447,0.69725 -4.36339,-0.31061 z m 10.344,-0.27283 c -4.07355,-3.20425 -1.28144,-11.39797 3.55441,-10.43079 1.66047,0.33209 1.67544,0.31266 1.67544,-2.17389 0,-2.30247 0.11537,-2.50898 1.40167,-2.50898 h 1.40166 v 8.12964 c 0,6.92662 -0.12706,8.12964 -0.85859,8.12964 -0.47224,0 -1.00243,-0.37482 -1.17823,-0.83294 -0.28274,-0.73681 -0.45687,-0.73681 -1.50882,0 -1.61012,1.12778 -2.75798,1.04779 -4.48754,-0.31268 z m 4.94952,-4.74136 c 0,-2.50022 -0.13973,-2.82313 -1.29235,-2.98653 -1.75307,-0.24851 -2.91263,0.83795 -2.91263,2.72899 0,2.70869 0.53851,3.41765 2.45439,3.23122 1.70422,-0.16584 1.75059,-0.24462 1.75059,-2.97368 z m -70.1322,-7.21477 c -0.564,-1.46979 0.0123,-2.87751 1.17813,-2.87751 0.86247,0 1.11365,0.37762 1.11365,1.67431 0,1.83435 -1.7059,2.72996 -2.29178,1.2032 z m -17.89215,-6.79087 c -12.18811,-2.68312 -21.65331,-10.16266 -26.99599,-21.33264 -6.29924,-13.16985 -4.15067,-30.25923 5.17845,-41.18857 5.04996,-5.91618 10.42689,-9.55485 17.89289,-12.10844 3.7566,-1.28487 5.54859,-1.55174 11.02993,-1.64259 l 6.54463,-0.10847 2.42601,-2.07927 c 5.66914,-4.85886 11.29402,-7.83371 18.87778,-9.98399 5.92867,-1.68099 16.3638,-1.65398 22.74448,0.0589 11.0171,2.95746 19.78938,9.15172 25.79045,18.21109 5.53635,8.3578 7.77682,15.53772 7.81029,25.02921 0.0815,23.1135 -15.71346,41.82496 -38.31611,45.39106 -5.57271,0.87922 -48.78258,0.67839 -52.98281,-0.24626 z m 15.13794,-12.2836 -3.92465,-3.57219 -4.20498,-0.27306 c -8.48133,-0.55075 -15.04365,-4.80817 -18.62858,-12.08561 -1.56223,-3.17133 -1.86471,-4.45502 -2.03055,-8.61737 -0.30049,-7.54187 1.73196,-12.59728 6.88984,-17.13742 6.80067,-5.98619 16.57275,-7.30635 24.34104,-3.28836 1.34316,0.69472 6.03741,4.83965 10.43166,9.21096 4.96123,4.93531 8.41655,7.94783 9.11608,7.94783 1.64722,0 4.08105,-2.1285 4.08105,-3.56909 0,-1.61196 -15.42106,-16.93133 -19.2888,-19.1616 -4.52831,-2.61118 -8.39124,-3.62055 -13.85608,-3.62055 -22.28009,0 -35.97874,22.36809 -25.89065,42.27599 1.71114,3.37678 6.64295,8.66757 10.21777,10.96153 5.31786,3.41247 9.48425,4.36784 19.38287,4.44461 l 7.28864,0.0565 z m 39.74581,2.47637 c 11.94535,-3.05511 21.96649,-12.48889 25.62626,-24.12428 1.80108,-5.72608 2.02221,-12.7629 0.58156,-18.50621 -1.85995,-7.41491 -4.09656,-11.34453 -9.5867,-16.84338 -5.42202,-5.43063 -10.34892,-8.34823 -16.62325,-9.84394 -4.65137,-1.10882 -12.25314,-1.22624 -16.47609,-0.25448 -4.38146,1.00822 -14.90956,6.22898 -13.97569,6.93037 0.13167,0.0989 1.57399,1.01728 3.20516,2.04085 l 2.96576,1.86106 3.76222,-1.71821 c 13.39994,-6.11974 28.28267,-1.54006 36.33274,11.18024 4.95759,7.83372 5.05136,20.30941 0.21644,28.79802 -5.26552,9.24461 -13.97907,14.29695 -24.65733,14.29695 -5.75673,0 -10.62082,-1.29927 -14.85761,-3.96868 -1.54183,-0.97144 -7.49202,-6.40492 -13.22265,-12.0744 -5.73064,-5.66949 -10.70167,-10.30816 -11.04675,-10.30816 -2.50853,0 -4.80311,2.7122 -4.03184,4.76565 0.23164,0.61673 5.43757,6.0617 11.56874,12.09992 9.71955,9.57223 11.68484,11.24348 15.34169,13.04635 7.60949,3.75155 16.71094,4.71095 24.87734,2.62233 z"
       style="fill:#33e8b7;fill-opacity:1;stroke-width:0.560665" />
  </g>
</svg>
