<?xml version="1.0" encoding="UTF-8" standalone="no"?>
<svg
   xmlns:dc="http://purl.org/dc/elements/1.1/"
   xmlns:cc="http://creativecommons.org/ns#"
   xmlns:rdf="http://www.w3.org/1999/02/22-rdf-syntax-ns#"
   xmlns:svg="http://www.w3.org/2000/svg"
   xmlns="http://www.w3.org/2000/svg"
   xmlns:sodipodi="http://sodipodi.sourceforge.net/DTD/sodipodi-0.dtd"
   xmlns:inkscape="http://www.inkscape.org/namespaces/inkscape"
   sodipodi:docname="board-makerspace.svg"
   inkscape:version="1.0 (4035a4fb49, 2020-05-01)"
   id="svg8"
   version="1.1"
   viewBox="0 0 570 870"
   height="870mm"
   width="570mm">
  <defs
     id="defs2">
    <pattern
       id="EMFhbasepattern"
       patternUnits="userSpaceOnUse"
       width="6"
       height="6"
       x="0"
       y="0" />
    <pattern
       id="EMFhbasepattern-2"
       patternUnits="userSpaceOnUse"
       width="6"
       height="6"
       x="0"
       y="0" />
    <pattern
       id="EMFhbasepattern-5"
       patternUnits="userSpaceOnUse"
       width="6"
       height="6"
       x="0"
       y="0" />
  </defs>
  <sodipodi:namedview
     inkscape:window-maximized="1"
     inkscape:window-y="-8"
     inkscape:window-x="-8"
     inkscape:window-height="1017"
     inkscape:window-width="1920"
     showgrid="false"
     inkscape:document-rotation="0"
     inkscape:current-layer="layer4"
     inkscape:document-units="mm"
     inkscape:cy="1623.6055"
     inkscape:cx="732.92807"
     inkscape:zoom="0.1767767"
     inkscape:pageshadow="2"
     inkscape:pageopacity="0.0"
     borderopacity="1.0"
     bordercolor="#666666"
     pagecolor="#ffffff"
     id="base" />
  <metadata
     id="metadata5">
    <rdf:RDF>
      <cc:Work
         rdf:about="">
        <dc:format>image/svg+xml</dc:format>
        <dc:type
           rdf:resource="http://purl.org/dc/dcmitype/StillImage" />
        <dc:title></dc:title>
      </cc:Work>
    </rdf:RDF>
  </metadata>
  <g
     style="display:inline"
     inkscape:label="3red"
     id="layer2"
     inkscape:groupmode="layer">
    <text
       id="text835"
       y="145.21729"
       x="288.39291"
       style="font-size:31.7291px;line-height:1.25;font-family:sans-serif;text-align:center;text-anchor:middle;stroke-width:0.743649"
       xml:space="preserve"><tspan
         style="font-style:normal;font-variant:normal;font-weight:normal;font-stretch:normal;font-size:31.7291px;font-family:'Eras Bold ITC';-inkscape-font-specification:'Eras Bold ITC';text-align:center;text-anchor:middle;fill:#ff0000;fill-opacity:1;stroke-width:0.743649"
         y="145.21729"
         x="288.39291"
         id="tspan833"
         sodipodi:role="line">OPEN TO ALL STUDENTS, </tspan><tspan
         id="tspan895"
         style="font-style:normal;font-variant:normal;font-weight:normal;font-stretch:normal;font-size:31.7291px;font-family:'Eras Bold ITC';-inkscape-font-specification:'Eras Bold ITC';text-align:center;text-anchor:middle;fill:#ff0000;fill-opacity:1;stroke-width:0.743649"
         y="185.32942"
         x="288.39291"
         sodipodi:role="line">STAFF, &amp; FACULTY!</tspan></text>
  </g>
  <g
     style="display:inline"
     inkscape:label="2blue"
     id="layer3"
     inkscape:groupmode="layer">
    <g
       transform="matrix(2.8106463,0,0,3.34616,-10.600947,-17.842184)"
       id="g3478">
      <rect
         style="opacity:1;fill:none;fill-opacity:1;stroke:#00ffd4;stroke-width:0.954364;stroke-linecap:round;stroke-linejoin:round;stroke-miterlimit:4;stroke-dasharray:none;stroke-opacity:1"
         id="rect3460"
         width="192.36374"
         height="84.582024"
         x="8.9900074"
         y="68.521255" />
      <g
         id="g3471"
         transform="translate(8.0697916,-1.2423246)">
        <rect
           y="65.482727"
           x="16.207384"
           height="8.6060791"
           width="50.326855"
           id="rect3466"
           style="opacity:1;fill:#ffffff;fill-opacity:1;stroke:none;stroke-width:1;stroke-linecap:round;stroke-linejoin:round;stroke-miterlimit:4;stroke-dasharray:none;stroke-opacity:1" />
        <text
           transform="scale(1.0166504,0.9836223)"
           id="text3464"
           y="74.416817"
           x="16.930262"
           style="font-size:10.4098px;line-height:1.25;font-family:sans-serif;fill:#00ffd4;fill-opacity:1;stroke-width:0.26025"
           xml:space="preserve"><tspan
             style="font-style:normal;font-variant:normal;font-weight:normal;font-stretch:normal;font-size:10.4098px;font-family:'Eras Demi ITC';-inkscape-font-specification:'Eras Demi ITC';fill:#00ffd4;fill-opacity:1;stroke-width:0.26025"
             y="74.416817"
             x="16.930262"
             id="tspan3462"
             sodipodi:role="line">UPDATES</tspan></text>
      </g>
    </g>
  </g>
  <g
     style="display:inline"
     inkscape:label="1black"
     id="layer4"
     inkscape:groupmode="layer">
    <g
       transform="matrix(2.8106463,0,0,2.8106463,-19.78032,-50.247265)"
       id="g915">
      <text
         id="text835-9"
         y="47.404091"
         x="15.781035"
         style="font-style:normal;font-variant:normal;font-weight:normal;font-stretch:normal;font-size:38.4443px;line-height:1.25;font-family:'Harlow Solid Italic';-inkscape-font-specification:'Harlow Solid Italic, ';stroke-width:0.320369"
         xml:space="preserve"><tspan
           rotate="0 0 0 0 0 0 0 0 0 0 0"
           style="font-style:normal;font-variant:normal;font-weight:normal;font-stretch:normal;font-size:38.4443px;font-family:'Harlow Solid Italic';-inkscape-font-specification:'Harlow Solid Italic, ';stroke-width:0.320369"
           y="47.404091"
           x="15.781035"
           id="tspan833-5"
           sodipodi:role="line">Makerspace</tspan></text>
    </g>
    <g
       style="display:inline;stroke-width:1.00013;stroke-miterlimit:4;stroke-dasharray:none"
       transform="matrix(2.8106463,0,0,2.8106463,-2.4936083,65.755946)"
       id="g4220">
      <g
         style="stroke-width:1.00013;stroke-miterlimit:4;stroke-dasharray:none"
         id="g986"
         transform="translate(-12.801791,11.267316)">
        <path
           style="fill:#000000;stroke-width:1.00013;stroke-miterlimit:4;stroke-dasharray:none"
           d="m 150.35656,197.32505 v -6.76187 h 6.76187 6.76187 v 6.76187 6.76187 h -6.76187 -6.76187 z m 11.49519,0 v -4.73332 h -4.73332 -4.73331 v 4.73332 4.73331 h 4.73331 4.73332 z m -7.63126,0 v -2.89795 h 2.89794 2.89795 v 2.89795 2.89794 h -2.89795 -2.89794 z m 11.59178,5.79589 v -0.96598 h 2.89794 2.89795 v -1.93197 -1.93196 h -0.96598 -0.96599 v 0.96598 0.96598 h -1.93196 -1.93196 v -3.86392 -3.86393 h 0.96598 0.96598 v -0.96598 -0.96598 h -0.96598 -0.96598 v -1.93197 -1.93196 h -0.96598 -0.96599 v 0.96598 0.96598 h -1.93196 -1.93196 v -1.93196 -1.93196 h 0.96598 0.96598 v -0.96599 -0.96598 h 0.96598 0.96598 v 0.96598 0.96599 h 0.96599 0.96598 v -0.96599 -0.96598 h 5.79589 5.79589 v 0.96598 0.96599 h 0.96598 0.96598 v -0.96599 -0.96598 h 2.89795 2.89794 v 0.96598 0.96599 h -0.96598 -0.96598 v 0.96598 0.96598 h 3.86392 3.86393 v -0.96598 -0.96598 h -0.96598 -0.96598 v -0.96599 -0.96598 h -0.96598 -0.96599 v -0.96598 -0.96598 h -0.96598 -0.96598 v -1.93196 -1.93197 h -4.82991 -4.82991 v -0.96598 -0.96598 h -0.96598 -0.96598 v 1.93196 1.93197 h 4.82991 4.82991 v 0.96598 0.96598 h -4.82991 -4.82991 v -0.96598 -0.96598 h -0.96598 -0.96598 v 0.96598 0.96598 h -0.96598 -0.96599 v -0.96598 -0.96598 h -1.93196 -1.93196 v -2.89795 -2.89794 h 0.96598 0.96598 v -0.96599 -0.96598 h -0.96598 -0.96598 v -5.7959 -5.79589 h 0.96598 0.96598 v -1.93196 -1.93197 h 2.89795 2.89794 v 0.96599 0.96598 h 0.96598 0.96598 v -0.96598 -0.96599 h 0.96599 0.96598 v 0.96599 0.96598 h -0.96598 -0.96599 v 0.96598 0.96598 h -0.96598 -0.96598 v 1.93196 1.93197 h -0.96598 -0.96598 v -1.93197 -1.93196 h -0.96598 -0.96599 v 0.96598 0.96598 h -0.96598 -0.96598 v 0.96599 0.96598 h 0.96598 0.96598 v 0.96598 0.96598 h 1.93197 1.93196 v 0.96599 0.96599 h 0.96598 0.96598 v 1.93196 1.93196 h 0.96599 0.96598 v -1.93196 -1.93196 h 0.96598 0.96598 v -0.96599 -0.96599 h -0.96598 -0.96598 v -1.93196 -1.93197 h 0.96598 0.96598 v -1.93196 -1.93196 h 0.96598 0.96598 v -0.96598 -0.96599 h 0.96599 0.96598 v 1.93197 1.93196 h -0.96598 -0.96599 v 0.96598 0.96598 h 0.96599 0.96598 v 0.96599 0.96598 h -1.93197 -1.93196 v 0.96598 0.96598 h 0.96598 0.96598 v 0.96599 0.96599 h 0.96599 0.96598 v 2.89794 2.89795 h 0.96598 0.96598 v -0.96599 -0.96598 h 4.82991 4.82991 v 0.96598 0.96599 h 0.96599 0.96598 v 0.96598 0.96598 h 0.96598 0.96599 v 2.89794 2.89795 h -0.96599 -0.96598 v 0.96598 0.96598 h 0.96598 0.96599 v 1.93197 1.93196 h -0.96599 -0.96598 v -0.96598 -0.96598 h -0.96598 -0.96599 v -1.93197 -1.93196 h -0.96597 -0.96598 v 2.89794 2.89795 h 0.96598 0.96597 v 1.93196 1.93197 h 1.93197 1.93197 v 6.76187 6.76187 h -6.76189 -6.76187 v -0.96598 -0.96598 h -1.93196 -1.93197 v -0.96599 -0.96598 h -0.96598 -0.96598 v 0.96598 0.96599 h -0.96598 -0.96598 v -0.96599 -0.96598 h 0.96598 0.96598 v -0.96598 -0.96598 h 1.93196 1.93197 v -0.96598 -0.96598 h -2.89795 -2.89794 v -0.96599 -0.96598 h -0.96598 -0.96599 v 0.96598 0.96599 h -0.96598 -0.96598 v -1.93197 -1.93196 h 0.96598 0.96598 v -0.96598 -0.96598 h -0.96598 -0.96598 v -0.96599 -0.96598 h -0.96598 -0.96598 v 1.93197 1.93196 h -0.96598 -0.96599 v 0.96598 0.96598 h 0.96599 0.96598 v 1.93197 1.93196 h 1.93196 1.93196 v 0.96598 0.96598 h -0.96598 -0.96598 v 1.93197 1.93196 h -3.86393 -3.86392 z m 21.25159,-2.89795 v -1.93196 h 0.96599 0.96598 v 0.96598 0.96598 h 1.93196 1.93198 v 0.96598 0.96599 h 1.93195 1.93197 v -1.93197 -1.93196 h -0.96598 -0.96599 v 0.96598 0.96598 h -0.96597 -0.96598 v -1.93196 -1.93196 h -0.966 -0.96598 v 0.96598 0.96598 h -0.96598 -0.96598 v -0.96598 -0.96598 h -0.96598 -0.96599 v 0.96598 0.96598 h -1.93196 -1.93196 v 0.96598 0.96598 h 0.96598 0.96598 v 0.96598 0.96599 h 0.96598 0.96598 z m -7.72785,-6.76187 v -0.96598 h 0.96598 0.96598 v -0.96598 -0.96598 h -0.96598 -0.96598 v -0.96599 -0.96598 h 0.96598 0.96598 v -1.93196 -1.93196 h -0.96598 -0.96598 v 0.96598 0.96598 h -0.96598 -0.96598 v -0.96598 -0.96598 h -1.93197 -1.93196 v 1.93196 1.93196 h 1.93196 1.93197 v 0.96598 0.96599 h 0.96598 0.96598 v 0.96598 0.96598 h -0.96598 -0.96598 v 0.96598 0.96598 h 0.96598 0.96598 z m 9.65982,-1.93196 v -2.89795 h -2.89795 -2.89794 v 2.89795 2.89794 h 2.89794 2.89795 z m -3.86393,0 v -0.96598 h 0.96598 0.96598 v 0.96598 0.96598 h -0.96598 -0.96598 z m 9.65982,1.93196 v -0.96598 h -0.96597 -0.96598 v 0.96598 0.96598 h 0.96598 0.96597 z m -25.11553,-3.86393 v -0.96598 h 0.96599 0.96598 v -1.93196 -1.93196 h -0.96598 -0.96599 v 1.93196 1.93196 h -0.96598 -0.96598 v 0.96598 0.96599 h 0.96598 0.96598 z m 23.18358,-1.93196 v -0.96598 h -0.966 -0.96598 v 0.96598 0.96598 h 0.96598 0.966 z m -28.97947,-1.93196 v -0.96598 h -0.96598 -0.96598 v 0.96598 0.96598 h 0.96598 0.96598 z m 3.86393,0 v -0.96598 h -0.96598 -0.96598 v 0.96598 0.96598 h 0.96598 0.96598 z m 23.18356,-3.86393 v -0.96598 h 0.96598 0.966 v -0.96598 -0.96598 h 1.93195 1.93197 v -0.96599 -0.96598 h -0.96598 -0.96599 v -1.93196 -1.93196 h -2.89795 -2.89794 v 1.93196 1.93196 h -0.96598 -0.96599 v 1.93197 1.93196 h 0.96599 0.96598 v 0.96598 0.96598 h 0.96598 0.96598 z m -1.93196,-2.89794 v -1.93197 h 0.96598 0.96598 v -0.96598 -0.96598 h 0.96598 0.966 v 0.96598 0.96598 h -0.966 -0.96598 v 1.93197 1.93196 h -0.96598 -0.96598 z m -17.38767,-0.96599 v -0.96598 h -0.96598 -0.96599 v 0.96598 0.96599 h 0.96599 0.96598 z m 1.93196,-4.8299 v -1.93197 h -0.96598 -0.96598 v -0.96598 -0.96598 h 0.96598 0.96598 v -0.96598 -0.96598 h -0.96598 -0.96598 v 0.96598 0.96598 h -0.96598 -0.96599 v -0.96598 -0.96598 h -0.96598 -0.96598 v 1.93196 1.93196 h 1.93196 1.93197 v 0.96598 0.96599 h -0.96598 -0.96599 v 0.96598 0.96598 h 1.93197 1.93196 z m 3.86393,0.96598 v -0.96598 h -0.96598 -0.96599 v 0.96598 0.96598 h 0.96599 0.96598 z m 5.79589,0 v -0.96598 h -1.93197 -1.93196 v 0.96598 0.96598 h 1.93196 1.93197 z m 3.86392,0 v -0.96598 h -0.96598 -0.96598 v 0.96598 0.96598 h 0.96598 0.96598 z m -5.79589,-4.82991 v -1.93196 h -0.96598 -0.96598 v 1.93196 1.93196 h 0.96598 0.96598 z m -7.72785,-10.62581 v -0.96598 h -0.96598 -0.96598 v 0.96598 0.96598 h 0.96598 0.96598 z m -23.18356,26.08152 v -3.86393 h 0.96598 0.96598 v 3.86393 3.86392 h -0.96598 -0.96598 z m 3.86393,0.96598 v -2.89795 h 0.96598 0.96598 v -2.89794 -2.89795 h 0.96598 0.96598 v 0.96598 0.96599 h 0.96599 0.96598 v 0.96598 0.96598 h -0.96598 -0.96599 v 0.96598 0.96598 h -0.96598 -0.96598 v 1.93197 1.93196 h 0.96598 0.96598 v 0.96598 0.96598 h -1.93196 -1.93196 z m 7.72785,-5.79589 v -0.96598 h 0.96598 0.96598 v 0.96598 0.96598 h -0.96598 -0.96598 z m -11.59178,-2.89795 v -1.93196 h 0.96598 0.96598 v 0.96598 0.96598 h 0.96599 0.96598 v 0.96598 0.96599 h -1.93197 -1.93196 z m 11.59178,-0.96598 v -0.96598 h -0.96598 -0.96598 v -0.96598 -0.96598 h -0.96598 -0.96599 v 0.96598 0.96598 h -1.93196 -1.93196 v -1.93196 -1.93197 h 4.82991 4.8299 v 0.96598 0.96599 h -0.96598 -0.96598 v 0.96598 0.96598 h 0.96598 0.96598 v 0.96598 0.96598 h -0.96598 -0.96598 z m -11.59178,-3.86393 v -0.96598 h 0.96598 0.96598 v 0.96598 0.96599 h -0.96598 -0.96598 z m 0,-9.65982 v -6.76188 h 6.76187 6.76187 v 6.76188 6.76188 h -6.76187 -6.76187 z m 11.49519,0 v -4.73332 h -4.73332 -4.73331 v 4.73332 4.73331 h 4.73331 4.73332 z m -7.63126,0 v -2.89795 h 2.89794 2.89795 v 2.89795 2.89794 h -2.89795 -2.89794 z m 30.91141,0 v -6.76188 h 6.76187 6.76189 v 6.76188 6.76188 h -6.76189 -6.76187 z m 11.4952,0 v -4.73332 h -4.73333 -4.7333 v 4.73332 4.73331 h 4.7333 4.73333 z m -7.63127,0 v -2.89795 h 2.89794 2.89795 v 2.89795 2.89794 h -2.89795 -2.89794 z"
           id="path862" />
        <text
           id="text939-3-9"
           y="154.3614"
           x="174.53484"
           style="font-size:9.80399px;line-height:0.75;font-family:sans-serif;text-align:start;text-anchor:start;display:inline;stroke-width:0.926483;stroke-miterlimit:4;stroke-dasharray:none"
           xml:space="preserve"><tspan
             id="tspan5120-3"
             style="font-style:normal;font-variant:normal;font-weight:normal;font-stretch:normal;font-size:9.80399px;font-family:'Rockwell Extra Bold';-inkscape-font-specification:'Rockwell Extra Bold, ';text-align:center;text-anchor:middle;stroke-width:0.926483;stroke-miterlimit:4;stroke-dasharray:none"
             y="154.3614"
             x="174.53484"
             sodipodi:role="line">3D PRINTING</tspan></text>
      </g>
      <g
         style="stroke-width:1.00013;stroke-miterlimit:4;stroke-dasharray:none"
         id="g3057"
         transform="matrix(0.99906239,0,0,0.99906239,-1.8768279,30.401037)">
        <text
           id="text923"
           y="140.69067"
           x="15.082247"
           style="font-size:17.6389px;line-height:1.25;font-family:sans-serif;stroke-width:1.00013;stroke-miterlimit:4;stroke-dasharray:none"
           xml:space="preserve"><tspan
             id="tspan941"
             style="font-style:normal;font-variant:normal;font-weight:normal;font-stretch:normal;font-size:17.6389px;font-family:'Rockwell Extra Bold';-inkscape-font-specification:'Rockwell Extra Bold, ';stroke-width:1.00013;stroke-miterlimit:4;stroke-dasharray:none"
             y="140.69067"
             x="15.082247"
             sodipodi:role="line">WEBSITE</tspan></text>
        <path
           style="fill:#000000;stroke-width:1.00013;stroke-miterlimit:4;stroke-dasharray:none"
           d="M 6.2864292,238.97464 V 223.56531 H 21.695758 37.1051 v 15.40933 15.40934 H 21.695758 6.2864292 Z m 26.1958708,0 V 228.18811 H 21.695758 10.909229 v 10.78653 10.78654 H 21.695758 32.4823 Z m -17.390542,0 v -6.604 h 6.604 6.604 v 6.604 6.60401 h -6.604 -6.604 z m 26.416,13.20801 v -2.20134 h 2.201342 2.201329 v -2.20133 -2.20133 h 4.40267 4.402659 v -2.20134 -2.20133 h -6.604 -6.604 v -2.20134 -2.20133 h 2.201342 2.201329 v -2.20134 -2.20133 H 43.7091 41.507758 v -2.20134 -2.20133 h 4.402671 4.40267 v -2.20134 -2.20133 h -4.40267 -4.402671 v -2.20133 -2.20134 h 2.201342 2.201329 v -2.20133 -2.20133 h 6.604 6.604 v -4.40267 -4.40267 h -4.402671 -4.402659 v 2.20134 2.20133 h -8.805341 -8.805329 v -2.20133 -2.20134 H 30.5011 28.299758 v -2.20133 -2.20133 H 26.098429 23.8971 v 6.604 6.604 h 2.201329 2.201329 v 2.20133 2.20133 H 26.098429 23.8971 v -2.20133 -2.20133 h -2.201342 -2.201329 v -4.40267 -4.40267 H 15.091758 10.6891 v 2.20134 2.20133 h 2.201329 2.201329 v 4.40267 4.40266 H 10.6891 6.2864292 v -2.20133 -2.20133 H 8.4877582 10.6891 v -2.20134 -2.20133 H 8.4877582 6.2864292 v -2.20133 -2.20134 H 8.4877582 10.6891 v -2.20133 -2.20133 H 8.4877582 6.2864292 v -2.20134 -2.20133 H 8.4877582 10.6891 v 2.20133 2.20134 h 2.201329 2.201329 v -2.20134 -2.20133 h 2.201342 2.201329 v -2.20133 -2.20134 h -6.604 -6.6039998 v -6.604 -6.604 H 8.4877582 10.6891 v 4.40267 4.40267 h 4.402658 4.402671 v -4.40267 -4.40267 h 2.201329 2.201342 v 2.20134 2.20133 h 2.201329 2.201329 v -2.20133 -2.20134 h 4.402671 4.402671 v 2.20134 2.20133 h -4.402671 -4.402671 v 2.20133 2.20134 h 4.402671 4.402671 v 2.20133 2.20133 h -2.201342 -2.201329 v 2.20134 2.20133 h 2.201329 2.201342 v 2.20133 2.20134 h -2.201342 -2.201329 v 2.20133 2.20133 h 8.805329 8.805341 v -2.20133 -2.20133 h 4.402659 4.402671 v -2.20134 -2.20133 h -2.20133 -2.201341 v -4.40267 -4.40266 h -2.201329 -2.20133 v 4.40266 4.40267 h -2.201341 -2.201329 v 2.20133 2.20134 H 43.7091 41.507758 v -2.20134 -2.20133 h 2.201342 2.201329 v -2.20133 -2.20134 H 43.7091 41.507758 v -6.604 -6.604 h 4.402671 4.40267 v -8.80533 -8.80533 h -2.201341 -2.201329 v -4.40267 -4.40267 h 2.201329 2.201341 v -4.40266 -4.40267 h 2.20133 2.201329 v 4.40267 4.40266 h -2.201329 -2.20133 v 2.20134 2.20133 h 2.20133 2.201329 v 2.20133 2.20134 h 2.201341 2.20133 v 4.40266 4.40267 h 2.201341 2.201329 v -2.20133 -2.20134 h 4.402671 4.402659 v -2.20133 -2.20133 h -2.20133 -2.201329 v -4.40267 -4.40267 h -4.402671 -4.40267 v -4.40266 -4.40267 h 2.201341 2.201329 v 2.20133 2.20134 h 2.20133 2.201341 v 2.20133 2.20133 h 2.201329 2.20133 v -4.40266 -4.40267 h 2.201341 2.201329 v 4.40267 4.40266 h 2.201329 2.201342 v 4.40267 4.40267 h -2.201342 -2.201329 v 2.20133 2.20133 h 2.201329 2.201342 v 6.604 6.604 h 2.201329 2.201329 v 2.20134 2.20133 h 2.201342 2.201329 v -2.20133 -2.20134 h 2.201329 2.201342 v 2.20134 2.20133 h -2.201342 -2.201329 v 4.40267 4.40266 h 2.201329 2.201342 v -2.20133 -2.20133 h 2.201329 2.201329 v 2.20133 2.20133 H 96.541099 94.33977 v 2.20134 2.20133 h -2.201342 -2.201329 v 2.20133 2.20134 h 2.201329 2.201342 v 2.20133 2.20133 h 2.201329 2.201329 v -4.40266 -4.40267 h 2.201342 2.20133 v 2.20133 2.20134 h 2.20132 2.20135 v -2.20134 -2.20133 h 4.40265 4.40268 v 6.604 6.604 h -2.20133 -2.20135 v 2.20133 2.20134 h -2.20132 -2.20133 v 4.40266 4.40267 h 2.20133 2.20132 v -2.20133 -2.20134 h 2.20135 2.20133 v 4.40267 4.40267 h -4.40268 -4.40265 v 2.20133 2.20134 h -4.40267 -4.402672 v 4.40267 4.40267 h 2.201342 2.20133 v -2.20134 -2.20133 h 2.20132 2.20135 v 4.40267 4.40267 h -2.20135 -2.20132 v 2.20133 2.20133 h -2.20133 -2.201342 v -2.20133 -2.20133 H 96.541099 94.33977 v -2.20134 -2.20133 h -2.201342 -2.201329 v -2.20134 -2.20133 h -6.604 -6.604 v -2.20134 -2.20133 H 74.52777 72.326429 v 2.20133 2.20134 h -2.20133 -2.201329 v 2.20133 2.20134 h 2.201329 2.20133 v 2.20133 2.20134 h -2.20133 -2.201329 v 2.20133 2.20133 h 4.402659 4.40267 v -4.40266 -4.40267 h 2.201329 2.201342 v 2.20133 2.20134 h 4.402658 4.402671 v 2.20133 2.20133 h 2.201329 2.201342 v 2.20134 2.20133 h -4.402671 -4.402671 v -2.20133 -2.20134 H 83.333099 81.13177 v 2.20134 2.20133 h -6.604 -6.604 v -2.20133 -2.20134 h -4.402671 -4.40267 v 2.20134 2.20133 h -4.402671 -4.402659 v -2.20133 -2.20134 h -2.201341 -2.201329 v 2.20134 2.20133 H 43.7091 41.507758 Z m 13.208,-17.61067 v -2.20134 h -2.201329 -2.20133 v 2.20134 2.20133 h 2.20133 2.201329 z m 13.208012,0 v -2.20134 h 2.201329 2.20133 v -4.40266 -4.40267 h -2.20133 -2.201329 v -2.20133 -2.20134 h -2.201341 -2.20133 v -2.20133 -2.20133 H 61.31977 59.118429 v 2.20133 2.20133 h -4.402671 -4.402659 v 2.20134 2.20133 h 2.20133 2.201329 v 2.20133 2.20134 h 2.201341 2.20133 v 2.20133 2.20133 h 2.201341 2.201329 v 2.20134 2.20133 h 2.20133 2.201341 z m -4.402671,-6.604 v -4.40267 h 2.20133 2.201341 v 4.40267 4.40266 h -2.201341 -2.20133 z m 30.818671,-2.20134 v -6.604 h -6.604 -6.604 v 6.604 6.604 h 6.604 6.604 z m -8.805342,0 v -2.20133 h 2.201342 2.201329 v 2.20133 2.20134 H 87.73577 85.534428 Z m 22.013342,0 v -2.20133 h -4.40267 -4.402672 v 2.20133 2.20134 h 4.402672 4.40267 z m -30.818671,-13.208 v -2.20133 h 8.805329 8.805342 v 2.20133 2.20134 h 2.201329 2.201329 v -2.20134 -2.20133 h 2.201342 2.20133 v 2.20133 2.20134 h 2.20132 2.20135 v -2.20134 -2.20133 h 2.20133 2.20132 v -4.40267 -4.40266 h -2.20132 -2.20133 v 4.40266 4.40267 h -2.20135 -2.20132 v -2.20134 -2.20133 h -2.20133 -2.201342 v 2.20133 2.20134 H 96.541099 94.33977 v -2.20134 -2.20133 h -8.805342 -8.805329 v -2.20134 -2.20133 h 4.402671 4.402658 v -2.20134 -2.20133 h 2.201342 2.201329 v -2.20133 -2.20134 h -6.604 -6.604 v -2.20133 -2.20133 h 4.402671 4.402658 v -2.20134 -2.20133 H 83.333099 81.13177 v -2.20133 -2.20134 h -2.201342 -2.201329 v 2.20134 2.20133 H 65.722429 54.715758 v -2.20133 -2.20134 h -2.201329 -2.20133 v 2.20134 2.20133 h 2.20133 2.201329 v 2.20133 2.20134 h 2.201341 2.20133 v 2.20133 2.20133 h 2.201341 2.201329 v -2.20133 -2.20133 h 4.402671 4.402659 v 2.20133 2.20133 h -2.20133 -2.201329 v 2.20134 2.20133 h -2.201341 -2.20133 v 6.604 6.60401 h 2.20133 2.201341 v -4.40267 -4.40266 h 2.201329 2.20133 v 6.604 6.604 h 2.201341 2.201329 z M 23.8971,199.35064 v -2.20133 h -2.201342 -2.201329 v 2.20133 2.20134 h 2.201329 2.201342 z m 4.402658,-8.80533 v -2.20133 H 26.098429 23.8971 v 2.20133 2.20133 h 2.201329 2.201329 z m 44.026671,-13.208 v -2.20133 h 2.201341 2.201329 v -2.20134 -2.20133 H 74.52777 72.326429 v 2.20133 2.20134 h -2.20133 -2.201329 v -2.20134 -2.20133 h -2.201341 -2.20133 v 4.40267 4.40266 h 4.402671 4.402659 z m -13.208,-4.40267 v -2.20133 h -2.20133 -2.201341 v 2.20133 2.20134 h 2.201341 2.20133 z m 48.429341,79.24801 v -2.20134 h 4.40265 4.40268 v 2.20134 2.20133 h -4.40268 -4.40265 z m 4.40265,-8.80534 v -2.20133 h 2.20135 2.20133 v 2.20133 2.20134 h -2.20133 -2.20135 z m 0,-8.80533 v -2.20134 h 2.20135 2.20133 v 2.20134 2.20133 h -2.20133 -2.20135 z M 32.702429,216.96131 v -2.20133 h 2.201329 2.201342 v 2.20133 2.20133 h -2.201342 -2.201329 z m 74.845341,-26.416 v -2.20133 h 2.20133 2.20132 v -2.20134 -2.20133 h 2.20135 2.20133 v 4.40267 4.40266 h -4.40268 -4.40265 z M 6.2864292,159.72664 V 144.31731 H 21.695758 37.1051 v 15.40933 15.40934 H 21.695758 6.2864292 Z m 26.1958708,0 V 148.94011 H 21.695758 10.909229 v 10.78653 10.78654 H 21.695758 32.4823 Z m -17.390542,0 v -6.604 h 6.604 6.604 v 6.604 6.604 h -6.604 -6.604 z m 26.416,11.00667 v -4.40267 h 2.201342 2.201329 v 4.40267 4.40267 H 43.7091 41.507758 Z m 44.02667,-11.00667 v -15.40933 h 15.409342 15.40933 v 15.40933 15.40934 H 100.94377 85.534428 Z m 26.195872,0 V 148.94011 H 100.94377 90.157228 v 10.78653 10.78654 h 10.786542 10.78653 z m -17.39053,0 v -6.604 h 6.604 6.604 v 6.604 6.604 h -6.604 -6.604 z"
           id="path887" />
      </g>
      <g
         style="stroke-width:1.00013;stroke-miterlimit:4;stroke-dasharray:none"
         id="g3052"
         transform="translate(-8.3203704,12.435444)">
        <text
           xml:space="preserve"
           style="font-size:9.80397px;line-height:0.75;font-family:sans-serif;text-align:start;text-anchor:start;stroke-width:0.926483;stroke-miterlimit:4;stroke-dasharray:none"
           x="169.88826"
           y="214.25465"
           id="text939-3"><tspan
             sodipodi:role="line"
             x="169.88826"
             y="214.25465"
             style="font-style:normal;font-variant:normal;font-weight:normal;font-stretch:normal;font-size:9.80397px;font-family:'Rockwell Extra Bold';-inkscape-font-specification:'Rockwell Extra Bold, ';text-align:center;text-anchor:middle;stroke-width:0.926483;stroke-miterlimit:4;stroke-dasharray:none"
             id="tspan5116">WORKSHOPS</tspan><tspan
             sodipodi:role="line"
             x="169.88826"
             y="221.64241"
             style="font-style:normal;font-variant:normal;font-weight:normal;font-stretch:normal;font-size:9.80397px;font-family:'Rockwell Extra Bold';-inkscape-font-specification:'Rockwell Extra Bold, ';text-align:center;text-anchor:middle;stroke-width:0.926483;stroke-miterlimit:4;stroke-dasharray:none"
             id="tspan5120">EACH SUNDAY</tspan></text>
        <path
           id="path912"
           d="m 145.63923,265.28313 v -6.82793 h 6.82793 6.82793 v 6.82793 6.82793 h -6.82793 -6.82793 z m 11.60748,0 v -4.77955 h -4.77955 -4.77955 v 4.77955 4.77955 h 4.77955 4.77955 z m -7.7058,0 v -2.92625 h 2.92625 2.92625 v 2.92625 2.92625 h -2.92625 -2.92625 z m 11.70502,5.85251 v -0.97543 h 0.97542 0.97542 v -0.97541 -0.97542 h -0.97542 -0.97542 v -0.97543 -0.97541 h 1.95084 1.95083 v 0.97541 0.97543 h 1.95083 1.95084 v -1.95084 -1.95083 h -2.92625 -2.92625 v -0.97541 -0.97542 h 3.90166 3.90168 v -0.97542 -0.97542 h 0.97542 0.97542 v 1.95084 1.95083 h -0.97542 -0.97542 v 0.97542 0.97541 h 1.95084 1.95084 v -1.95083 -1.95083 h 0.97541 0.97542 v -3.90168 -3.90168 h -0.97542 -0.97541 v 0.97542 0.97541 h -0.97542 -0.97542 v 0.97543 0.97542 h -0.97542 -0.97542 v -1.95085 -1.95083 h -1.95084 -1.95084 v 1.95083 1.95085 h 0.97542 0.97542 v 0.97542 0.97542 h -3.90167 -3.90167 v -1.95084 -1.95085 h -1.95084 -1.95084 v -0.97541 -0.97542 h -0.97542 -0.97542 v 0.97542 0.97541 h -0.97542 -0.97541 v -0.97541 -0.97542 h -0.97542 -0.97541 v 0.97542 0.97541 h -2.92626 -2.92626 v -0.97541 -0.97542 h 2.92626 2.92626 v -0.97541 -0.97542 h -2.92626 -2.92626 v -0.97542 -0.97542 h 0.97542 0.97542 v -2.92625 -2.92626 h -0.97542 -0.97542 v -0.97542 -0.97542 h 0.97542 0.97542 v 0.97542 0.97542 h 0.97542 0.97542 v 0.97542 0.97542 h 0.97542 0.97542 v -0.97542 -0.97542 h 0.97541 0.97542 v -0.97542 -0.97542 h -1.95083 -1.95084 v -1.95083 -1.95084 h 0.97542 0.97542 v 0.97542 0.97542 h 1.95083 1.95083 v 0.97542 0.97541 h 1.95084 1.95084 v -0.97541 -0.97542 h -0.97542 -0.97542 v -0.97542 -0.97542 h 1.95084 1.95084 v 0.97542 0.97542 h 0.97542 0.97542 v -1.95084 -1.95083 h -0.97542 -0.97542 v -1.95084 -1.95084 h 1.95084 1.95083 v 0.97542 0.97542 h 0.97542 0.97541 v 0.97542 0.97542 h 0.97542 0.97542 v -1.95084 -1.95084 h -0.97542 -0.97542 v -0.97542 -0.97542 h -1.95083 -1.95083 v -0.97541 -0.97542 h -0.97542 -0.97542 v -0.97542 -0.97542 h 1.95084 1.95083 v -0.97542 -0.97542 h 2.92625 2.92626 v 0.97542 0.97542 h 2.92626 2.92625 v -0.97542 -0.97542 h 0.97542 0.97542 v 0.97542 0.97542 h -0.97542 -0.97542 v 0.97542 0.97542 h -0.97542 -0.97541 v 1.95083 1.95084 h -0.97542 -0.97542 v 0.97542 0.97542 h 0.97542 0.97542 v 0.97542 0.97542 h 0.97541 0.97542 v -1.95084 -1.95084 h 0.97542 0.97542 v 3.90168 3.90167 h 1.95083 1.95084 v -0.97542 -0.97542 h 0.97542 0.97542 v 1.95084 1.95083 h 0.97542 0.97542 v -0.97541 -0.97542 h 0.97541 0.97542 v -0.97542 -0.97542 h 0.97542 0.97542 v 0.97542 0.97542 h 0.97542 0.97542 v -0.97542 -0.97542 h 0.97541 0.97542 v 2.92626 2.92625 h -0.97542 -0.97541 v -0.97542 -0.97542 h -0.97542 -0.97542 v 0.97542 0.97542 h -0.97542 -0.97542 v 0.97542 0.97542 h -1.95083 -1.95084 v 2.92626 2.92625 h -0.97542 -0.97542 v 0.97542 0.97541 h 1.95084 1.95084 v 1.95083 1.95085 h 0.97541 0.97542 v -0.97542 -0.97543 h 0.97542 0.97542 v -0.97541 -0.97542 h 0.97542 0.97542 v 0.97542 0.97541 h 0.97541 0.97542 v 1.95085 1.95084 h -0.97542 -0.97541 v 0.97542 0.97542 h 0.97541 0.97542 v 0.97542 0.97541 h -0.97542 -0.97541 v 0.97542 0.97541 h 0.97541 0.97542 v 0.97541 0.97543 h -1.95083 -1.95084 v -0.97543 -0.97541 h -1.95084 -1.95083 v 1.95084 1.95083 h 0.97541 0.97542 v 0.97543 0.97542 h -0.97542 -0.97541 v -0.97542 -0.97543 h -1.95084 -1.95084 v 0.97543 0.97542 h -2.92625 -2.92626 v -0.97542 -0.97543 h -0.97542 -0.97541 v 0.97543 0.97542 h -1.95084 -1.95084 v -0.97542 -0.97543 h -1.95084 -1.95084 v 0.97543 0.97542 h -2.92625 -2.92625 z m 11.70502,-1.95084 v -0.97542 h -0.97542 -0.97542 v 0.97542 0.97541 h 0.97542 0.97542 z m 5.85251,-2.92626 v -1.95083 h -0.97542 -0.97542 v 1.95083 1.95084 h 0.97542 0.97542 z m 5.85251,0 v -1.95083 h -1.95084 -1.95084 v 1.95083 1.95084 h 1.95084 1.95084 z m 7.80335,-2.92624 v -0.97542 h -0.97542 -0.97542 v -0.97542 -0.97542 h 0.97542 0.97542 v -1.95084 -1.95085 h -0.97542 -0.97542 v 0.97543 0.97542 h -0.97542 -0.97542 v 0.97542 0.97542 h -0.97542 -0.97541 v 0.97542 0.97542 h 0.97541 0.97542 v 0.97542 0.97541 h 1.95084 1.95084 z m -7.80335,-3.90168 v -2.92627 h -2.92626 -2.92625 v 2.92627 2.92626 h 2.92625 2.92626 z m -3.90168,0 v -0.97542 h 0.97542 0.97542 v 0.97542 0.97542 h -0.97542 -0.97542 z m -15.60669,-3.90168 v -0.97542 h 0.97542 0.97541 v -0.97541 -0.97542 h 0.97542 0.97542 v -6.82793 -6.82793 h -1.95084 -1.95083 v 1.95084 1.95083 h 0.97542 0.97541 v 0.97542 0.97542 h -1.95083 -1.95083 v -0.97542 -0.97542 h -0.97542 -0.97542 v 0.97542 0.97542 h -1.95084 -1.95084 v 0.97542 0.97542 h 1.95084 1.95084 v 0.97542 0.97542 h -2.92626 -2.92626 v -1.95084 -1.95084 h -0.97542 -0.97541 v 1.95084 1.95084 h 0.97541 0.97542 v 1.95083 1.95084 h -0.97542 -0.97541 v -0.97542 -0.97542 h -0.97542 -0.97541 v -0.97541 -0.97542 h -0.97542 -0.97542 v 0.97542 0.97541 h 0.97542 0.97542 v 0.97542 0.97542 h 0.97541 0.97542 v 0.97542 0.97541 h 0.97541 0.97542 v -0.97541 -0.97542 h 0.97542 0.97542 v 0.97542 0.97541 h 1.95084 1.95084 v 0.97542 0.97541 h 1.95084 1.95083 z m -3.90167,-1.95083 v -0.97542 h 1.95084 1.95083 v -0.97542 -0.97542 h -0.97542 -0.97541 v -0.97541 -0.97542 h 0.97541 0.97542 v -0.97542 -0.97542 h 0.97542 0.97541 v 0.97542 0.97542 h -0.97541 -0.97542 v 0.97542 0.97541 h 0.97542 0.97541 v 0.97542 0.97542 h -0.97541 -0.97542 v 0.97542 0.97541 h -1.95083 -1.95084 z m -3.90168,-1.95084 v -0.97542 h 0.97542 0.97542 v 0.97542 0.97542 h -0.97542 -0.97542 z m 15.6067,1.95084 v -0.97542 h 0.97542 0.97542 v -0.97542 -0.97542 h -0.97542 -0.97542 v -1.95083 -1.95084 h 0.97542 0.97542 v -2.92626 -2.92625 h 0.97541 0.97542 v -0.97542 -0.97542 h -0.97542 -0.97541 v -0.97542 -0.97541 h -0.97542 -0.97542 v -0.97542 -0.97542 h -0.97542 -0.97542 v 1.95084 1.95083 h 0.97542 0.97542 v 1.95084 1.95083 h -0.97542 -0.97542 v 5.85252 5.8525 h 0.97542 0.97542 z m 7.80334,0 v -0.97542 h 0.97542 0.97542 v -0.97542 -0.97542 h -0.97542 -0.97542 v -0.97541 -0.97542 h -0.97541 -0.97542 v -0.97542 -0.97542 h 2.92625 2.92626 v -1.95084 -1.95084 h -0.97542 -0.97542 v 0.97542 0.97542 h -0.97542 -0.97542 v -0.97542 -0.97542 h -1.95083 -1.95084 v 4.8771 4.87709 h 0.97542 0.97542 v 0.97542 0.97541 h 0.97542 0.97541 z m 9.75419,-11.70502 v -0.97542 h -0.97542 -0.97542 v 0.97542 0.97541 h 0.97542 0.97542 z m -25.36088,-5.85251 v -0.97542 h -0.97542 -0.97541 v 0.97542 0.97542 h 0.97541 0.97542 z m 7.80335,-3.90168 v -0.97542 h -0.97542 -0.97542 v -0.97541 -0.97542 h -0.97542 -0.97542 v -0.97542 -0.97542 h -1.95084 -1.95083 v 0.97542 0.97542 h 1.95083 1.95084 v 1.95083 1.95084 h 1.95084 1.95084 z m 19.50837,39.01674 v -0.97543 h 0.97541 0.97542 v 0.97543 0.97542 h -0.97542 -0.97541 z m -5.85251,-19.50837 v -0.97542 h 1.95083 1.95084 v -0.97541 -0.97542 h 0.97542 0.97542 v -0.97542 -0.97542 h 0.97541 0.97542 v 2.92626 2.92625 h -0.97542 -0.97541 v -0.97542 -0.97542 h -0.97542 -0.97542 v 0.97542 0.97542 h -1.95084 -1.95083 z m -40.96758,-11.70502 v -0.97542 h 0.97542 0.97542 v 0.97542 0.97542 h -0.97542 -0.97542 z m 0,-9.75418 v -6.82793 h 6.82793 6.82793 v 6.82793 6.82793 h -6.82793 -6.82793 z m 11.60748,0 v -4.77955 h -4.77955 -4.77955 v 4.77955 4.77954 h 4.77955 4.77955 z m -7.7058,0 v -2.92626 h 2.92625 2.92625 v 2.92626 2.92625 h -2.92625 -2.92625 z m 31.21338,0 v -6.82793 h 6.82793 6.82793 v 6.82793 6.82793 h -6.82793 -6.82793 z m 11.60748,0 v -4.77955 h -4.77955 -4.77954 v 4.77955 4.77954 h 4.77954 4.77955 z m -7.7058,0 v -2.92626 h 2.92625 2.92626 v 2.92626 2.92625 h -2.92626 -2.92625 z m -23.41004,-5.85252 v -0.97541 h 0.97542 0.97542 v 0.97541 0.97542 h -0.97542 -0.97542 z m 11.70502,0 v -0.97541 h 0.97542 0.97542 v 0.97541 0.97542 h -0.97542 -0.97542 z"
           style="fill:#000000;stroke-width:1.00013;stroke-miterlimit:4;stroke-dasharray:none" />
      </g>
    </g>
  </g>
</svg>
