<?xml version="1.0" encoding="UTF-8" standalone="no"?>
<svg
   xmlns:dc="http://purl.org/dc/elements/1.1/"
   xmlns:cc="http://creativecommons.org/ns#"
   xmlns:rdf="http://www.w3.org/1999/02/22-rdf-syntax-ns#"
   xmlns:svg="http://www.w3.org/2000/svg"
   xmlns="http://www.w3.org/2000/svg"
   xmlns:sodipodi="http://sodipodi.sourceforge.net/DTD/sodipodi-0.dtd"
   xmlns:inkscape="http://www.inkscape.org/namespaces/inkscape"
   sodipodi:docname="email-or-more.svg"
   inkscape:version="1.0 (4035a4fb49, 2020-05-01)"
   id="svg8"
   version="1.1"
   viewBox="0 0 430 297"
   height="297mm"
   width="430mm">
  <defs
     id="defs2" />
  <sodipodi:namedview
     id="base"
     pagecolor="#ffffff"
     bordercolor="#666666"
     borderopacity="1.0"
     inkscape:pageopacity="0.0"
     inkscape:pageshadow="2"
     inkscape:zoom="0.35"
     inkscape:cx="473.1881"
     inkscape:cy="437.30684"
     inkscape:document-units="mm"
     inkscape:current-layer="layer1"
     inkscape:document-rotation="0"
     showgrid="false"
     inkscape:window-width="1920"
     inkscape:window-height="1017"
     inkscape:window-x="-8"
     inkscape:window-y="-8"
     inkscape:window-maximized="1" />
  <metadata
     id="metadata5">
    <rdf:RDF>
      <cc:Work
         rdf:about="">
        <dc:format>image/svg+xml</dc:format>
        <dc:type
           rdf:resource="http://purl.org/dc/dcmitype/StillImage" />
        <dc:title />
      </cc:Work>
    </rdf:RDF>
  </metadata>
  <g
     inkscape:label="Layer 1"
     inkscape:groupmode="layer"
     id="layer1">
    <g
       style="font-size:31.75px;line-height:0.95;font-family:sans-serif;stroke-width:0.264583"
       id="text1587"
       aria-label="EMAIL FOR  ADDITIONAL  HOURS!"
       transform="rotate(-90,253.88823,514.09383)">
      <g
         id="g861">
        <path
           id="path2189"
           style="font-style:normal;font-variant:normal;font-weight:normal;font-stretch:normal;font-size:31.75px;font-family:'Bauhaus 93';-inkscape-font-specification:'Bauhaus 93, ';stroke-width:0.264583"
           d="m 606.53455,268.96475 v 4.71289 h -4.10828 q -0.83716,0 -1.19373,0.24805 -0.34106,0.24805 -0.34106,0.83716 0,0.66662 0.35657,0.88366 0.35656,0.20154 1.45727,0.20154 h 4.2323 v 6.04615 h -4.94543 q -3.48816,0 -5.33301,-1.65882 -1.84485,-1.67431 -1.84485,-4.82141 v -8.29407 q 0,-3.03857 1.73633,-4.71289 1.75183,-1.67431 4.91443,-1.67431 h 5.47253 v 6.07714 h -4.01526 q -1.6278,0 -1.6278,1.0542 0,0.62012 0.38757,0.86817 0.38757,0.23254 1.37976,0.23254 z" />
        <path
           style="stroke:#000000;fill:none;stroke-width:0.264583"
           d="M 606.673037,262.110529 l -0.692296,-0.692296 c -0.561266,-0.561266 -1.683798,-0.561266 -1.122532,0.000000 l 1.393879,1.393879 c 0.561266,0.561266 0.561266,1.683798 0.000000,1.122532 l -2.516411,-2.516411 c -0.561266,-0.561266 -1.683798,-0.561266 -1.122532,0.000000 l 3.638943,3.638943 c 0.561266,0.561266 0.505866,1.628398 -0.055400,1.067132 l -4.699243,-4.699243 c -0.561266,-0.561266 -1.594343,-0.471812 -1.033078,0.089454 l 4.609788,4.609788 c 0.561266,0.561266 -0.561266,0.561266 -1.122532,0.000000 l -4.418248,-4.418248 c -0.561266,-0.561266 -1.389176,-0.266644 -0.827910,0.294622 l 4.123626,4.123626 c 0.561266,0.561266 -0.495750,0.626781 -1.057016,0.065515 l -3.802490,-3.802490 c -0.561266,-0.561266 -1.205834,-0.083302 -0.644568,0.477964 l 3.671456,3.671456 c 0.561266,0.561266 0.186419,1.308951 -0.374847,0.747685 l -3.850626,-3.850626 c -0.561266,-0.561266 -1.020890,0.101642 -0.459624,0.662908 l 8.895388,8.895388 c 0.561266,0.561266 1.203519,0.080987 0.642253,-0.480279 l -2.880782,-2.880782 c -0.561266,-0.561266 0.580502,-0.542030 1.141768,0.019236 l 1.739014,1.739014 c 0.561266,0.561266 0.561266,-0.561266 0.000000,-1.122532 l -0.869507,-0.869507 c -0.223899,-0.223899 0.898633,-0.223899 1.122532,0.000000 l 0.167925,0.167925 M 604.505182,273.413057 l -8.556324,-8.556324 c -0.561266,-0.561266 -0.820818,0.301714 -0.259552,0.862980 l 7.272395,7.272395 c 0.561266,0.561266 -0.553373,0.569159 -1.114639,0.007893 l -6.363586,-6.363586 c -0.561266,-0.561266 -0.600930,0.521602 -0.039664,1.082868 l 5.440657,5.440657 c 0.561266,0.561266 -0.005348,1.117184 -0.566613,0.555918 l -4.817992,-4.817992 c -0.561266,-0.561266 -0.561266,0.561266 0.000000,1.122532 l 10.752224,10.752224 c 0.561266,0.561266 -0.125220,0.997311 -0.686486,0.436045 l -10.065738,-10.065738 c -0.561266,-0.561266 -0.561266,0.561266 0.000000,1.122532 l 8.943206,8.943206 c 0.561266,0.561266 -0.561266,0.561266 -1.122532,0.000000 l -7.820674,-7.820674 c -0.561266,-0.561266 -0.561266,0.561266 0.000000,1.122532 l 6.698142,6.698142 c 0.561266,0.561266 -0.568889,0.553643 -1.130155,-0.007623 l -5.567988,-5.567988 c -0.561266,-0.561266 -0.555489,0.567042 0.005776,1.128308 l 4.331045,4.331045 c 0.561266,0.561266 -0.899539,0.222993 -1.460805,-0.338273 l -2.793318,-2.793318 c -0.330520,-0.330520 0.566392,1.688924 0.896912,2.019444 l 0.247890,0.247890 M 606.673037,276.703444 l -0.295405,-0.295405 c -0.393874,-0.393874 -1.516405,-0.393874 -1.122532,0.000000 l 0.996988,0.996988 c 0.561266,0.561266 0.561266,1.683798 0.000000,1.122532 l -1.993975,-1.993975 c -0.561266,-0.561266 -1.683474,-0.560942 -1.122208,0.000324 l 3.537133,3.537133"
           id="path859" />
      </g>
      <g
         id="g866">
        <path
           id="path2191"
           style="font-style:normal;font-variant:normal;font-weight:normal;font-stretch:normal;font-size:31.75px;font-family:'Bauhaus 93';-inkscape-font-specification:'Bauhaus 93, ';stroke-width:0.264583"
           d="m 610.13123,281.8942 v -15.25489 q 0,-2.83703 1.72082,-4.63537 1.72083,-1.79834 4.46484,-1.79834 3.25562,0 5.00745,2.99206 1.0697,-1.6123 2.29443,-2.29443 1.22474,-0.69763 3.02308,-0.69763 2.85253,0 4.37182,1.79834 1.51929,1.79834 1.51929,5.17798 v 14.71228 h -6.29419 v -13.76661 q 0,-1.02319 -0.17053,-1.34875 -0.15503,-0.34107 -0.65113,-0.34107 -0.93017,0 -0.93017,1.5813 v 13.87513 h -6.29419 v -13.76661 q 0,-1.00769 -0.17053,-1.34875 -0.17054,-0.34107 -0.66663,-0.34107 -0.93017,0 -0.93017,1.68982 v 13.76661 z" />
        <path
           style="stroke:#000000;fill:none;stroke-width:0.264583"
           d="M 630.564646,261.601998 l 0.222932,0.222932 c 0.297242,0.297242 1.179667,2.302199 0.882425,2.004957 l -2.793062,-2.793062 c -0.561266,-0.561266 -1.855780,-0.733248 -1.294514,-0.171982 l 4.160028,4.160028 c 0.561266,0.561266 0.658856,1.781388 0.097590,1.220122 l -5.333242,-5.333242 c -0.561266,-0.561266 -1.550094,-0.427562 -0.988828,0.133704 l 6.329453,6.329453 c 0.561266,0.561266 0.561266,1.683798 0.000000,1.122532 l -7.181552,-7.181552 c -0.561266,-0.561266 -1.298196,-0.175664 -0.736930,0.385602 l 7.918481,7.918481 c 0.561266,0.561266 0.561266,1.683798 0.000000,1.122532 l -8.554093,-8.554093 c -0.561266,-0.561266 -1.118938,0.003594 -0.557672,0.564860 l 9.111764,9.111764 c 0.561266,0.561266 0.561266,1.683798 0.000000,1.122532 l -4.935219,-4.935219 c -0.561266,-0.561266 -0.549171,0.573361 0.012095,1.134627 l 4.923124,4.923124 c 0.561266,0.561266 0.561266,1.683798 0.000000,1.122532 l -4.923124,-4.923124 c -0.561266,-0.561266 -0.561266,0.561266 0.000000,1.122532 l 4.923124,4.923124 c 0.561266,0.561266 0.561266,1.683798 0.000000,1.122532 l -4.923124,-4.923124 c -0.561266,-0.561266 -0.561266,0.561266 0.000000,1.122532 l 4.923124,4.923124 c 0.561266,0.561266 0.561266,1.683798 0.000000,1.122532 l -4.923124,-4.923124 c -0.561266,-0.561266 -0.561266,0.561266 0.000000,1.122532 l 4.923124,4.923124 c 0.561266,0.561266 -0.197888,0.924644 -0.759154,0.363378 l -4.163970,-4.163970 c -0.561266,-0.561266 -0.561266,0.561266 0.000000,1.122532 l 3.041438,3.041438 c 0.561266,0.561266 -0.561266,0.561266 -1.122532,0.000000 l -1.918906,-1.918906 c -0.561266,-0.561266 -0.561266,0.561266 0.000000,1.122532 l 0.959453,0.959453 c 0.343828,0.343828 -0.778704,0.343828 -1.122532,0.000000 l -0.257871,-0.257871 M 621.815337,262.955476 l 2.839155,2.839155 c 0.561266,0.561266 -0.041111,1.081421 -0.602377,0.520155 l -4.968822,-4.968822 c -0.561266,-0.561266 -2.088284,-0.965752 -1.527018,-0.404486 l 6.260464,6.260464 c 0.561266,0.561266 0.545933,1.668465 -0.015333,1.107199 l -7.409977,-7.409977 c -0.561266,-0.561266 -1.565179,-0.442647 -1.003913,0.118619 l 8.413890,8.413890 c 0.561266,0.561266 0.561266,1.683798 0.000000,1.122532 l -9.292334,-9.292334 c -0.561266,-0.561266 -1.330553,-0.208021 -0.769287,0.353245 l 10.061621,10.061621 c 0.561266,0.561266 0.561266,1.683798 0.000000,1.122532 l -4.952264,-4.952264 c -0.561266,-0.561266 -0.532127,0.590405 0.029139,1.151671 l 4.923124,4.923124 c 0.561266,0.561266 0.561266,1.683798 0.000000,1.122532 l -4.923124,-4.923124 c -0.561266,-0.561266 -0.561266,0.561266 0.000000,1.122532 l 4.923124,4.923124 c 0.561266,0.561266 0.561266,1.683798 0.000000,1.122532 l -4.923124,-4.923124 c -0.561266,-0.561266 -0.561266,0.561266 0.000000,1.122532 l 4.923124,4.923124 c 0.561266,0.561266 0.561266,1.683798 0.000000,1.122532 l -4.923124,-4.923124 c -0.561266,-0.561266 -0.561266,0.561266 0.000000,1.122532 l 4.923124,4.923124 c 0.561266,0.561266 -0.009592,1.112940 -0.570857,0.551674 l -4.352267,-4.352267 c -0.561266,-0.561266 -0.561266,0.561266 0.000000,1.122532 l 3.229735,3.229735 c 0.561266,0.561266 -0.561266,0.561266 -1.122532,0.000000 l -2.107203,-2.107203 c -0.561266,-0.561266 -0.561266,0.561266 0.000000,1.122532 l 1.053602,1.053602 c 0.469359,0.469359 -0.653173,0.469359 -1.122532,0.000000 l -0.352019,-0.352019 M 617.195461,266.193323 l -4.129628,-4.129628 c -0.561266,-0.561266 -1.151213,-0.028681 -0.589947,0.532584 l 3.600538,3.600538 c 0.561266,0.561266 0.272684,1.395215 -0.288582,0.833950 l -3.823415,-3.823415 c -0.561266,-0.561266 -0.991898,0.130634 -0.430632,0.691900 l 4.206094,4.206094 c 0.561266,0.561266 0.561266,1.683798 0.000000,1.122532 l -4.560020,-4.560020 c -0.561266,-0.561266 -0.790152,0.332379 -0.228886,0.893645 l 4.788906,4.788906 c 0.561266,0.561266 0.561266,1.683798 0.000000,1.122532 l -4.933109,-4.933109 c -0.561266,-0.561266 -0.551281,0.571251 0.009985,1.132517 l 4.923124,4.923124 c 0.561266,0.561266 0.561266,1.683798 0.000000,1.122532 l -4.923124,-4.923124 c -0.561266,-0.561266 -0.561266,0.561266 0.000000,1.122532 l 4.923124,4.923124 c 0.561266,0.561266 0.561266,1.683798 0.000000,1.122532 l -4.923124,-4.923124 c -0.561266,-0.561266 -0.561266,0.561266 0.000000,1.122532 l 4.923124,4.923124 c 0.561266,0.561266 0.561266,1.683798 0.000000,1.122532 l -4.923124,-4.923124 c -0.561266,-0.561266 -0.561266,0.561266 0.000000,1.122532 l 4.923124,4.923124 c 0.561266,0.561266 0.561266,1.683798 0.000000,1.122532 l -4.923124,-4.923124 c -0.561266,-0.561266 -0.561266,0.561266 0.000000,1.122532 l 4.556064,4.556064 c 0.561266,0.561266 -0.561266,0.561266 -1.122532,0.000000 l -3.433532,-3.433532 c -0.561266,-0.561266 -0.561266,0.561266 0.000000,1.122532 l 2.311000,2.311000 c 0.561266,0.561266 -0.561266,0.561266 -1.122532,0.000000 l -1.188468,-1.188468 c -0.561266,-0.561266 -0.561266,0.561266 0.000000,1.122532 l 0.486886,0.486886"
           id="path864" />
      </g>
      <g
         id="g871">
        <path
           id="path2193"
           style="font-style:normal;font-variant:normal;font-weight:normal;font-stretch:normal;font-size:31.75px;font-family:'Bauhaus 93';-inkscape-font-specification:'Bauhaus 93, ';stroke-width:0.264583"
           d="m 644.03613,271.27469 v 5.58105 h -1.81384 v 5.03846 h -6.29419 v -13.45655 q 0,-3.90674 2.1239,-6.06164 2.13941,-2.17041 5.99964,-2.17041 3.7207,0 5.50354,1.96887 1.78283,1.95337 1.78283,6.04614 v 13.67359 h -6.29419 v -13.25501 q 0,-1.24023 -0.29455,-1.72082 -0.29456,-0.4806 -1.0542,-0.4806 -1.47278,0 -1.47278,2.20142 v 2.6355 z" />
        <path
           style="stroke:#000000;fill:none;stroke-width:0.264583"
           d="M 650.064303,263.158239 l -1.537249,-1.537249 c -0.561266,-0.561266 -2.294646,-1.172114 -1.733380,-0.610848 l 3.489084,3.489084 c 0.561266,0.561266 0.817011,1.939543 0.255745,1.378277 l -4.995614,-4.995614 c -0.561266,-0.561266 -1.673760,-0.551228 -1.112494,0.010038 l 6.239738,6.239738 c 0.561266,0.561266 0.543611,1.666142 -0.017655,1.104877 l -7.293730,-7.293730 c -0.561266,-0.561266 -1.549294,-0.426762 -0.988028,0.134504 l 8.281758,8.281758 c 0.561266,0.561266 0.561266,1.683798 0.000000,1.122532 l -9.177605,-9.177605 c -0.561266,-0.561266 -1.377038,-0.254506 -0.815772,0.306760 l 9.993377,9.993377 c 0.561266,0.561266 0.561266,1.683798 0.000000,1.122532 l -10.732094,-10.732094 c -0.561266,-0.561266 -1.225848,-0.103316 -0.664582,0.457950 l 3.399817,3.399817 c 0.561266,0.561266 -0.079863,1.042669 -0.641129,0.481403 l -3.351982,-3.351982 c -0.561266,-0.561266 -1.082289,0.040242 -0.521023,0.601508 l 3.512559,3.512559 c 0.561266,0.561266 0.443980,1.566512 -0.117285,1.005246 l -3.844704,-3.844704 c -0.561266,-0.561266 -0.936834,0.185698 -0.375568,0.746964 l 4.220271,4.220271 c 0.561266,0.561266 0.561266,1.683798 0.000000,1.122532 l -4.519622,-4.519622 c -0.561266,-0.561266 -0.781987,0.340544 -0.220721,0.901810 l 6.554183,6.554183 c 0.561266,0.561266 0.561266,-0.561266 0.000000,-1.122532 l -0.620706,-0.620706 M 645.304091,268.500814 l 5.348386,5.348386 c 0.561266,0.561266 0.561266,1.683798 0.000000,1.122532 l -4.923124,-4.923124 c -0.561266,-0.561266 -0.561266,0.561266 0.000000,1.122532 l 4.923124,4.923124 c 0.561266,0.561266 0.561266,1.683798 0.000000,1.122532 l -4.923124,-4.923124 c -0.561266,-0.561266 -0.561266,0.561266 0.000000,1.122532 l 4.923124,4.923124 c 0.561266,0.561266 0.561266,1.683798 0.000000,1.122532 l -4.923124,-4.923124 c -0.561266,-0.561266 -0.561266,0.561266 0.000000,1.122532 l 4.923124,4.923124 c 0.561266,0.561266 0.063010,1.185542 -0.498256,0.624276 l -4.424868,-4.424868 c -0.561266,-0.561266 -0.561266,0.561266 0.000000,1.122532 l 3.302337,3.302337 c 0.561266,0.561266 -0.561266,0.561266 -1.122532,0.000000 l -2.179805,-2.179805 c -0.561266,-0.561266 -0.561266,0.561266 0.000000,1.122532 l 1.089902,1.089902 c 0.517760,0.517760 -0.604772,0.517760 -1.122532,0.000000 l -0.388320,-0.388320 M 643.771547,274.825993 l -7.106307,-7.106307 c -0.561266,-0.561266 -0.611682,0.510849 -0.050416,1.072115 l 6.735774,6.735774 c 0.561266,0.561266 0.081366,1.203898 -0.479900,0.642632 l -6.257065,-6.257065 c -0.561266,-0.561266 -0.561266,0.561266 0.000000,1.122532 l 5.134533,5.134533 c 0.561266,0.561266 0.349858,1.472390 -0.211408,0.911124 l -4.923124,-4.923124 c -0.561266,-0.561266 -0.561266,0.561266 0.000000,1.122532 l 4.923124,4.923124 c 0.561266,0.561266 0.561266,1.683798 0.000000,1.122532 l -4.923124,-4.923124 c -0.561266,-0.561266 -0.561266,0.561266 0.000000,1.122532 l 4.923124,4.923124 c 0.561266,0.561266 0.198475,1.321007 -0.362791,0.759741 l -4.560333,-4.560333 c -0.561266,-0.561266 -0.561266,0.561266 0.000000,1.122532 l 3.437801,3.437801 c 0.561266,0.561266 -0.561266,0.561266 -1.122532,0.000000 l -2.315270,-2.315270 c -0.561266,-0.561266 -0.561266,0.561266 0.000000,1.122532 l 1.192738,1.192738 c 0.561266,0.561266 -0.561266,0.561266 -1.122532,0.000000 l -0.491155,-0.491155"
           id="path869" />
      </g>
      <g
         id="g876">
        <path
           id="path2195"
           style="font-style:normal;font-variant:normal;font-weight:normal;font-stretch:normal;font-size:31.75px;font-family:'Bauhaus 93';-inkscape-font-specification:'Bauhaus 93, ';stroke-width:0.264583"
           d="m 661.44592,260.7327 v 21.1615 h -6.29419 v -21.1615 z" />
        <path
           style="stroke:#000000;fill:none;stroke-width:0.264583"
           d="M 660.226371,260.997283 l 0.534016,0.534016 c 0.561266,0.561266 0.561266,1.683798 0.000000,1.122532 l -1.235598,-1.235598 c -0.561266,-0.561266 -1.683798,-0.561266 -1.122532,0.000000 l 2.358130,2.358130 c 0.561266,0.561266 0.561266,1.683798 0.000000,1.122532 l -3.480662,-3.480662 c -0.561266,-0.561266 -1.683798,-0.561266 -1.122532,0.000000 l 4.603194,4.603194 c 0.561266,0.561266 0.561266,1.683798 0.000000,1.122532 l -4.923124,-4.923124 c -0.561266,-0.561266 -0.561266,0.561266 0.000000,1.122532 l 4.923124,4.923124 c 0.561266,0.561266 0.561266,1.683798 0.000000,1.122532 l -4.923124,-4.923124 c -0.561266,-0.561266 -0.561266,0.561266 0.000000,1.122532 l 4.923124,4.923124 c 0.561266,0.561266 0.561266,1.683798 0.000000,1.122532 l -4.923124,-4.923124 c -0.561266,-0.561266 -0.561266,0.561266 0.000000,1.122532 l 4.923124,4.923124 c 0.561266,0.561266 0.561266,1.683798 0.000000,1.122532 l -4.923124,-4.923124 c -0.561266,-0.561266 -0.561266,0.561266 0.000000,1.122532 l 4.923124,4.923124 c 0.561266,0.561266 0.561266,1.683798 0.000000,1.122532 l -4.923124,-4.923124 c -0.561266,-0.561266 -0.561266,0.561266 0.000000,1.122532 l 4.923124,4.923124 c 0.561266,0.561266 0.561266,1.683798 0.000000,1.122532 l -4.923124,-4.923124 c -0.561266,-0.561266 -0.561266,0.561266 0.000000,1.122532 l 4.923124,4.923124 c 0.561266,0.561266 0.561266,1.683798 0.000000,1.122532 l -4.923124,-4.923124 c -0.561266,-0.561266 -0.561266,0.561266 0.000000,1.122532 l 4.394918,4.394918 c 0.561266,0.561266 -0.561266,0.561266 -1.122532,0.000000 l -3.272387,-3.272387 c -0.561266,-0.561266 -0.561266,0.561266 0.000000,1.122532 l 2.149855,2.149855 c 0.561266,0.561266 -0.561266,0.561266 -1.122532,0.000000 l -1.074927,-1.074927 c -0.497793,-0.497793 -0.497793,0.624739 0.000000,1.122532 l 0.373345,0.373345"
           id="path874" />
      </g>
      <g
         id="g881">
        <path
           id="path2197"
           style="font-style:normal;font-variant:normal;font-weight:normal;font-stretch:normal;font-size:31.75px;font-family:'Bauhaus 93';-inkscape-font-specification:'Bauhaus 93, ';stroke-width:0.264583"
           d="m 665.25964,260.7327 h 6.29419 v 12.57287 q 0,1.47278 0.46509,1.96887 0.48059,0.4806 1.87586,0.4806 h 0.32556 v 6.13916 h -1.67432 q -3.44165,0 -5.36401,-1.99988 -1.92237,-2.01538 -1.92237,-5.58106 z" />
        <path
           style="stroke:#000000;fill:none;stroke-width:0.264583"
           d="M 670.060829,260.997283 l 0.807468,0.807468 c 0.561266,0.561266 0.561266,1.683798 0.000000,1.122532 l -1.509051,-1.509051 c -0.561266,-0.561266 -1.683798,-0.561266 -1.122532,0.000000 l 2.631583,2.631583 c 0.561266,0.561266 0.561266,1.683798 0.000000,1.122532 l -3.754115,-3.754115 c -0.561266,-0.561266 -1.683798,-0.561266 -1.122532,0.000000 l 4.876646,4.876646 c 0.561266,0.561266 0.561266,1.683798 0.000000,1.122532 l -4.923124,-4.923124 c -0.561266,-0.561266 -0.561266,0.561266 0.000000,1.122532 l 4.923124,4.923124 c 0.561266,0.561266 0.561266,1.683798 0.000000,1.122532 l -4.923124,-4.923124 c -0.561266,-0.561266 -0.561266,0.561266 0.000000,1.122532 l 4.923124,4.923124 c 0.561266,0.561266 0.561266,1.683798 0.000000,1.122532 l -4.923124,-4.923124 c -0.561266,-0.561266 -0.561266,0.561266 0.000000,1.122532 l 5.384578,5.384578 M 673.955757,277.240062 l -8.010584,-8.010584 c -0.561266,-0.561266 -0.561266,0.561266 0.000000,1.122532 l 7.589634,7.589634 c 0.561266,0.561266 0.561266,1.683798 0.000000,1.122532 l -7.589634,-7.589634 c -0.561266,-0.561266 -0.561266,0.561266 0.000000,1.122532 l 7.589634,7.589634 c 0.561266,0.561266 0.460693,1.583225 -0.100573,1.021959 l -7.489062,-7.489062 c -0.561266,-0.561266 -0.561266,0.561266 0.000000,1.122532 l 6.366530,6.366530 c 0.561266,0.561266 -0.600828,0.521704 -1.162094,-0.039562 l -5.134135,-5.134135 c -0.561266,-0.561266 -0.375668,0.746864 0.185598,1.308130 l 3.738911,3.738911 c 0.561266,0.561266 -1.144788,-0.022256 -1.706054,-0.583522 l -1.849186,-1.849186"
           id="path879" />
      </g>
      <g
         id="g886">
        <path
           id="path2199"
           style="font-style:normal;font-variant:normal;font-weight:normal;font-stretch:normal;font-size:31.75px;font-family:'Bauhaus 93';-inkscape-font-specification:'Bauhaus 93, ';stroke-width:0.264583"
           d="m 692.25024,270.70108 v 5.67407 h -2.09289 v 5.51905 h -6.29419 v -13.13099 q 0,-3.7052 2.27893,-6.12365 2.29443,-2.43396 5.76709,-2.43396 3.82922,0 6.40271,3.30212 l -5.16248,3.76721 q -0.43408,-1.20923 -1.53479,-1.20923 -1.45727,0 -1.45727,2.01539 v 2.61999 z" />
        <path
           style="stroke:#000000;fill:none;stroke-width:0.264583"
           d="M 695.124217,261.149007 l 2.098122,2.098122 c 0.561266,0.561266 -0.087698,1.034834 -0.648964,0.473568 l -2.706525,-2.706525 c -0.561266,-0.561266 -1.798587,-0.676055 -1.237321,-0.114790 l 3.294882,3.294882 c 0.561266,0.561266 -0.087698,1.034834 -0.648964,0.473568 l -3.742935,-3.742935 c -0.561266,-0.561266 -1.535452,-0.412920 -0.974186,0.148346 l 4.068157,4.068157 c 0.561266,0.561266 -0.087698,1.034834 -0.648964,0.473568 l -4.300840,-4.300840 c -0.561266,-0.561266 -1.350473,-0.227941 -0.789207,0.333325 l 4.441082,4.441082 c 0.561266,0.561266 -1.025859,0.096673 -1.587125,-0.464593 l -3.569133,-3.569133 c -0.561266,-0.561266 -1.210157,-0.087625 -0.648891,0.473641 l 2.990541,2.990541 c 0.561266,0.561266 -0.074607,1.047925 -0.635873,0.486659 l -2.944047,-2.944047 c -0.561266,-0.561266 -1.096099,0.026433 -0.534833,0.587699 l 3.154633,3.154633 c 0.561266,0.561266 0.479257,1.601789 -0.082009,1.040523 l -3.551295,-3.551295 c -0.561266,-0.561266 -0.978961,0.143571 -0.417695,0.704837 l 4.389940,4.389940 M 691.470491,270.965663 l 0.257583,0.257583 c 0.343444,0.343444 0.343444,1.465976 0.000000,1.122532 l -6.576594,-6.576594 c -0.561266,-0.561266 -0.840309,0.282223 -0.279043,0.843489 l 6.692270,6.692270 c 0.561266,0.561266 0.561266,1.683798 0.000000,1.122532 l -6.892368,-6.892368 c -0.561266,-0.561266 -0.665266,0.457266 -0.104000,1.018532 l 6.996368,6.996368 c 0.561266,0.561266 -0.421656,0.700876 -0.982922,0.139610 l -6.033092,-6.033092 c -0.561266,-0.561266 -0.561266,0.561266 0.000000,1.122532 l 4.991735,4.991735 c 0.561266,0.561266 0.492655,1.615187 -0.068611,1.053921 l -4.923124,-4.923124 c -0.561266,-0.561266 -0.561266,0.561266 0.000000,1.122532 l 4.923124,4.923124 c 0.561266,0.561266 0.561266,1.683798 0.000000,1.122532 l -4.923124,-4.923124 c -0.561266,-0.561266 -0.561266,0.561266 0.000000,1.122532 l 4.923124,4.923124 c 0.561266,0.561266 0.455092,1.577624 -0.106173,1.016358 l -4.816951,-4.816951 c -0.561266,-0.561266 -0.561266,0.561266 0.000000,1.122532 l 3.694419,3.694419 c 0.561266,0.561266 -0.561266,0.561266 -1.122532,0.000000 l -2.571887,-2.571887 c -0.561266,-0.561266 -0.561266,0.561266 0.000000,1.122532 l 1.449355,1.449355 c 0.561266,0.561266 -0.561266,0.561266 -1.122532,0.000000 l -0.747773,-0.747773"
           id="path884" />
      </g>
      <g
         id="g891">
        <path
           id="path2201"
           style="font-style:normal;font-variant:normal;font-weight:normal;font-stretch:normal;font-size:31.75px;font-family:'Bauhaus 93';-inkscape-font-specification:'Bauhaus 93, ';stroke-width:0.264583"
           d="m 709.64453,260.2056 q 4.49585,0 7.70496,3.27112 3.22461,3.27111 3.22461,7.82897 0,4.63538 -3.24012,7.87549 -3.24011,3.24012 -7.87548,3.24012 -4.60437,0 -7.85999,-3.25562 -3.25561,-3.25562 -3.25561,-7.85999 0,-4.65087 3.27111,-7.87548 3.28662,-3.22461 8.03052,-3.22461 z m -0.18603,6.23217 q -1.93787,0 -3.30213,1.42627 -1.36426,1.42627 -1.36426,3.44165 0,2.01539 1.36426,3.44165 1.37976,1.42627 3.30213,1.42627 1.95337,0 3.30212,-1.41076 1.36426,-1.42627 1.36426,-3.45716 0,-2.03088 -1.36426,-3.44165 -1.34875,-1.42627 -3.30212,-1.42627 z" />
        <path
           style="stroke:#000000;fill:none;stroke-width:0.264583"
           d="M 718.223876,264.590566 l -1.983250,-1.983250 M 713.818419,261.307641 l 5.227650,5.227650 c 0.561266,0.561266 1.087596,2.210127 0.526330,1.648861 l -7.157008,-7.157008 c -0.561266,-0.561266 -1.765089,-0.642558 -1.203824,-0.081292 l 8.654840,8.654840 c 0.561266,0.561266 0.586370,1.708902 0.025104,1.147636 l -9.856482,-9.856482 c -0.561266,-0.561266 -1.638662,-0.516130 -1.077396,0.045136 l 10.913253,10.913253 c 0.561266,0.561266 0.419449,1.541981 -0.141817,0.980715 l -11.770778,-11.770778 c -0.561266,-0.561266 -1.476785,-0.354253 -0.915519,0.207013 l 12.490103,12.490103 c 0.561266,0.561266 0.299414,1.421946 -0.261852,0.860680 l -5.031277,-5.031277 c -0.561266,-0.561266 -0.004583,1.117949 0.556683,1.679215 l 4.149507,4.149507 c 0.561266,0.561266 0.183210,1.305742 -0.378056,0.744476 l -3.784962,-3.784962 c -0.561266,-0.561266 -0.751579,0.370952 -0.190314,0.932218 l 3.549532,3.549532 c 0.561266,0.561266 0.088146,1.210678 -0.473120,0.649412 l -3.400344,-3.400344 c -0.561266,-0.561266 -0.989692,0.132840 -0.428426,0.694106 l 3.317074,3.317074 c 0.561266,0.561266 0.009720,1.132252 -0.551546,0.570986 l -3.277963,-3.277963 c -0.561266,-0.561266 -1.160066,-0.037534 -0.598800,0.523732 l 3.289591,3.289591 c 0.561266,0.561266 -0.065039,1.057493 -0.626305,0.496227 l -3.351429,-3.351429 c -0.561266,-0.561266 -1.374925,-0.252393 -0.813659,0.308873 l 3.495953,3.495953 c 0.561266,0.561266 -0.154679,0.967853 -0.715944,0.406587 l -3.738002,-3.738002 c -0.561266,-0.561266 -1.742545,-0.620013 -1.181279,-0.058747 l 4.154434,4.154434 c 0.561266,0.561266 -0.263939,0.858593 -0.825205,0.297327 l -12.885579,-12.885579 c -0.561266,-0.561266 -0.262786,-1.385318 0.298480,-0.824052 l 4.361966,4.361966 c 0.561266,0.561266 0.512540,-0.609991 -0.048725,-1.171257 l -3.953592,-3.953592 c -0.561266,-0.561266 -0.152908,-1.275440 0.408358,-0.714174 l 3.639448,3.639448 c 0.561266,0.561266 0.830398,-0.292134 0.269132,-0.853400 l -3.452577,-3.452577 c -0.561266,-0.561266 -0.062720,-1.185252 0.498546,-0.623986 l 3.337163,3.337163 c 0.561266,0.561266 1.044725,-0.077807 0.483459,-0.639073 l -3.282074,-3.282074 c -0.561266,-0.561266 0.013466,-1.109066 0.574731,-0.547800 l 3.266805,3.266805 c 0.561266,0.561266 1.213533,0.091001 0.652267,-0.470265 l -3.303414,-3.303414 c -0.561266,-0.561266 0.090922,-1.031610 0.652188,-0.470344 l 3.401618,3.401618 c 0.561266,0.561266 1.454343,0.331811 0.893077,-0.229455 l -3.592637,-3.592637 c -0.561266,-0.561266 0.177953,-0.944579 0.739219,-0.383313 l 3.972092,3.972092 c 0.561266,0.561266 2.103737,0.981206 1.542472,0.419940 l -5.127512,-5.127512 M 711.951857,281.891716 l -12.657420,-12.657420 c -0.561266,-0.561266 -0.733710,0.388821 -0.172444,0.950087 l 11.457979,11.457979 c 0.561266,0.561266 -0.476449,0.646083 -1.037714,0.084817 l -10.505262,-10.505262 c -0.561266,-0.561266 -0.555865,0.566667 0.005401,1.127933 l 9.371953,9.371953 c 0.561266,0.561266 -0.650041,0.472490 -1.211307,-0.088775 l -8.071877,-8.071877 c -0.561266,-0.561266 -0.175197,0.947335 0.386069,1.508601 l 6.177216,6.177216 c 0.561266,0.561266 -1.031481,0.091051 -1.592747,-0.470215 l -4.535213,-4.535213"
           id="path889" />
      </g>
      <g
         id="g896">
        <path
           id="path2203"
           style="font-style:normal;font-variant:normal;font-weight:normal;font-stretch:normal;font-size:31.75px;font-family:'Bauhaus 93';-inkscape-font-specification:'Bauhaus 93, ';stroke-width:0.264583"
           d="m 729.84485,266.42227 v 15.47193 h -6.29419 v -21.1615 h 8.07703 q 3.68969,0 5.72058,1.82934 2.26342,2.04639 2.26342,5.19348 0,3.20911 -2.80603,5.41053 l 3.62769,8.72815 h -6.60425 l -3.05408,-6.82129 v -5.44153 h 0.4961 q 1.98437,0 1.98437,-1.70532 0,-1.50379 -2.29443,-1.50379 z" />
        <path
           style="stroke:#000000;fill:none;stroke-width:0.264583"
           d="M 736.058171,261.850249 l 2.156292,2.156292 c 0.561266,0.561266 1.120608,2.243140 0.559342,1.681874 l -4.034216,-4.034216 c -0.561266,-0.561266 -1.847957,-0.725426 -1.286691,-0.164160 l 5.464557,5.464557 c 0.561266,0.561266 0.533688,1.656220 -0.027578,1.094954 l -6.670159,-6.670159 c -0.561266,-0.561266 -1.644957,-0.522425 -1.083691,0.038841 l 7.573986,7.573986 c 0.561266,0.561266 0.271344,1.393876 -0.289922,0.832610 l -8.406596,-8.406596 c -0.561266,-0.561266 -1.683798,-0.561266 -1.122532,0.000000 l 9.140792,9.140792 c 0.561266,0.561266 0.096797,1.219329 -0.464469,0.658063 l -9.798855,-9.798855 c -0.561266,-0.561266 -1.683798,-0.561266 -1.122532,0.000000 l 4.327363,4.327363 c 0.561266,0.561266 -0.570125,0.552407 -1.131391,-0.008859 l -4.318504,-4.318504 c -0.561266,-0.561266 -1.683798,-0.561266 -1.122532,0.000000 l 4.758482,4.758482 c 0.561266,0.561266 0.561266,1.683798 0.000000,1.122532 l -4.923124,-4.923124 c -0.561266,-0.561266 -0.561266,0.561266 0.000000,1.122532 l 4.923124,4.923124 c 0.561266,0.561266 0.561266,1.683798 0.000000,1.122532 l -4.923124,-4.923124 c -0.561266,-0.561266 -0.561266,0.561266 0.000000,1.122532 l 4.923124,4.923124 c 0.561266,0.561266 0.561266,1.683798 0.000000,1.122532 l -4.923124,-4.923124 c -0.561266,-0.561266 -0.561266,0.561266 0.000000,1.122532 l 4.923124,4.923124 c 0.561266,0.561266 0.561266,1.683798 0.000000,1.122532 l -4.923124,-4.923124 c -0.561266,-0.561266 -0.561266,0.561266 0.000000,1.122532 l 4.923124,4.923124 c 0.561266,0.561266 0.561266,1.683798 0.000000,1.122532 l -4.923124,-4.923124 c -0.561266,-0.561266 -0.561266,0.561266 0.000000,1.122532 l 4.923124,4.923124 c 0.561266,0.561266 0.561266,1.683798 0.000000,1.122532 l -4.923124,-4.923124 c -0.561266,-0.561266 -0.561266,0.561266 0.000000,1.122532 l 4.923124,4.923124 c 0.561266,0.561266 0.561266,1.683798 0.000000,1.122532 l -4.923124,-4.923124 c -0.561266,-0.561266 -0.561266,0.561266 0.000000,1.122532 l 4.239631,4.239631 c 0.561266,0.561266 -0.561266,0.561266 -1.122532,0.000000 l -3.117099,-3.117099 c -0.561266,-0.561266 -0.561266,0.561266 0.000000,1.122532 l 1.994567,1.994567 c 0.561266,0.561266 -0.561266,0.561266 -1.122532,0.000000 l -0.997283,-0.997283 c -0.394268,-0.394268 -0.394268,0.728264 0.000000,1.122532 l 0.295701,0.295701 M 733.506999,268.279333 l 3.530768,3.530768 c 0.561266,0.561266 -0.024194,1.098338 -0.585460,0.537072 l -2.826831,-2.826831 c -0.561266,-0.561266 -1.158577,-0.036045 -0.597311,0.525221 l 3.333522,3.333522 c 0.561266,0.561266 1.359664,2.482196 0.798398,1.920930 l -5.048214,-5.048214 c -0.561266,-0.561266 -1.212585,-0.090053 -0.651319,0.471213 l 6.497931,6.497931 c 0.561266,0.561266 1.359664,2.482196 0.798398,1.920930 l -7.296329,-7.296329 c -0.561266,-0.561266 -0.561266,0.561266 0.000000,1.122532 l 8.240589,8.240589 c 0.561266,0.561266 -0.561266,0.561266 -1.122532,0.000000 l -7.118058,-7.118058 c -0.561266,-0.561266 -0.561266,0.561266 0.000000,1.122532 l 5.995526,5.995526 c 0.561266,0.561266 -0.561266,0.561266 -1.122532,0.000000 l -4.144708,-4.144708 c -0.561266,-0.561266 0.348772,1.471303 0.910037,2.032569 l 2.112139,2.112139 c 0.561266,0.561266 -0.561266,0.561266 -1.122532,0.000000 l -0.500519,-0.500519"
           id="path894" />
      </g>
      <g
         id="g901">
        <path
           id="path2205"
           style="font-style:normal;font-variant:normal;font-weight:normal;font-stretch:normal;font-size:31.75px;font-family:'Bauhaus 93';-inkscape-font-specification:'Bauhaus 93, ';stroke-width:0.264583"
           d="m 602.92236,302.53109 v 5.58105 h -1.81384 v 5.03845 h -6.29419 v -13.45654 q 0,-3.90674 2.1239,-6.06164 2.13941,-2.17041 5.99964,-2.17041 3.7207,0 5.50354,1.96887 1.78283,1.95337 1.78283,6.04614 v 13.67358 h -6.29419 v -13.255 q 0,-1.24023 -0.29455,-1.72083 -0.29456,-0.48059 -1.0542,-0.48059 -1.47278,0 -1.47278,2.20142 v 2.6355 z" />
        <path
           style="stroke:#000000;fill:none;stroke-width:0.264583"
           d="M 608.950532,294.414639 l -1.537249,-1.537249 c -0.561266,-0.561266 -2.294646,-1.172114 -1.733380,-0.610848 l 3.489083,3.489083 c 0.561266,0.561266 0.817012,1.939544 0.255746,1.378278 l -4.995614,-4.995614 c -0.561266,-0.561266 -1.673761,-0.551229 -1.112495,0.010037 l 6.239738,6.239738 c 0.561266,0.561266 0.543611,1.666143 -0.017655,1.104877 l -7.293730,-7.293730 c -0.561266,-0.561266 -1.549294,-0.426762 -0.988028,0.134504 l 8.281759,8.281759 c 0.561266,0.561266 0.561266,1.683798 0.000000,1.122532 l -9.177605,-9.177605 c -0.561266,-0.561266 -1.377038,-0.254506 -0.815772,0.306760 l 9.993377,9.993377 c 0.561266,0.561266 0.561266,1.683798 0.000000,1.122532 l -10.732095,-10.732095 c -0.561266,-0.561266 -1.225848,-0.103316 -0.664582,0.457950 l 3.399817,3.399817 c 0.561266,0.561266 -0.079863,1.042669 -0.641129,0.481403 l -3.351982,-3.351982 c -0.561266,-0.561266 -1.082289,0.040243 -0.521023,0.601508 l 3.512559,3.512559 c 0.561266,0.561266 0.443981,1.566513 -0.117285,1.005247 l -3.844704,-3.844704 c -0.561266,-0.561266 -0.936834,0.185698 -0.375568,0.746964 l 4.220272,4.220272 c 0.561266,0.561266 0.561266,1.683798 0.000000,1.122532 l -4.519622,-4.519622 c -0.561266,-0.561266 -0.781987,0.340545 -0.220721,0.901810 l 6.554183,6.554183 c 0.561266,0.561266 0.561266,-0.561266 0.000000,-1.122532 l -0.620707,-0.620707 M 604.190321,299.757215 l 5.348386,5.348386 c 0.561266,0.561266 0.561266,1.683798 0.000000,1.122532 l -4.923124,-4.923124 c -0.561266,-0.561266 -0.561266,0.561266 0.000000,1.122532 l 4.923124,4.923124 c 0.561266,0.561266 0.561266,1.683798 0.000000,1.122532 l -4.923124,-4.923124 c -0.561266,-0.561266 -0.561266,0.561266 0.000000,1.122532 l 4.923124,4.923124 c 0.561266,0.561266 0.561266,1.683798 0.000000,1.122532 l -4.923124,-4.923124 c -0.561266,-0.561266 -0.561266,0.561266 0.000000,1.122532 l 4.923124,4.923124 c 0.561266,0.561266 0.062999,1.185531 -0.498267,0.624265 l -4.424858,-4.424858 c -0.561266,-0.561266 -0.561266,0.561266 0.000000,1.122532 l 3.302326,3.302326 c 0.561266,0.561266 -0.561266,0.561266 -1.122532,0.000000 l -2.179794,-2.179794 c -0.561266,-0.561266 -0.561266,0.561266 0.000000,1.122532 l 1.089897,1.089897 c 0.517753,0.517753 -0.604779,0.517753 -1.122532,0.000000 l -0.388315,-0.388315 M 602.657777,306.082393 l -7.106307,-7.106307 c -0.561266,-0.561266 -0.611682,0.510850 -0.050416,1.072115 l 6.735774,6.735774 c 0.561266,0.561266 0.081365,1.203897 -0.479901,0.642631 l -6.257064,-6.257064 c -0.561266,-0.561266 -0.561266,0.561266 0.000000,1.122532 l 5.134532,5.134532 c 0.561266,0.561266 0.349858,1.472390 -0.211408,0.911124 l -4.923124,-4.923124 c -0.561266,-0.561266 -0.561266,0.561266 0.000000,1.122532 l 4.923124,4.923124 c 0.561266,0.561266 0.561266,1.683798 0.000000,1.122532 l -4.923124,-4.923124 c -0.561266,-0.561266 -0.561266,0.561266 0.000000,1.122532 l 4.923124,4.923124 c 0.561266,0.561266 0.198464,1.320996 -0.362802,0.759730 l -4.560323,-4.560323 c -0.561266,-0.561266 -0.561266,0.561266 0.000000,1.122532 l 3.437791,3.437791 c 0.561266,0.561266 -0.561266,0.561266 -1.122532,0.000000 l -2.315259,-2.315259 c -0.561266,-0.561266 -0.561266,0.561266 0.000000,1.122532 l 1.192727,1.192727 c 0.561266,0.561266 -0.561266,0.561266 -1.122532,0.000000 l -0.491145,-0.491145"
           id="path899" />
      </g>
      <g
         id="g906">
        <path
           id="path2207"
           style="font-style:normal;font-variant:normal;font-weight:normal;font-stretch:normal;font-size:31.75px;font-family:'Bauhaus 93';-inkscape-font-specification:'Bauhaus 93, ';stroke-width:0.264583"
           d="m 620.33215,298.06624 v 15.08435 h -6.29419 V 291.9891 h 8.20105 q 5.39502,0 8.4491,2.44946 3.62769,2.93005 3.62769,7.953 0,4.80591 -3.10059,7.84448 -3.10059,3.03858 -7.98401,3.03858 -0.57361,0 -1.87585,-0.062 v -6.21668 h 1.00769 q 5.50354,0 5.50354,-4.60437 0,-4.32532 -5.41053,-4.32532 z" />
        <path
           style="stroke:#000000;fill:none;stroke-width:0.264583"
           d="M 632.883348,297.285732 l -3.281316,-3.281316 c -0.561266,-0.561266 -2.249255,-1.126723 -1.687989,-0.565457 l 5.420243,5.420243 c 0.561266,0.561266 0.726100,1.848631 0.164834,1.287365 l -7.123284,-7.123284 c -0.561266,-0.561266 -1.896483,-0.773951 -1.335217,-0.212685 l 8.576231,8.576231 c 0.561266,0.561266 0.565255,1.687787 0.003989,1.126521 l -9.807217,-9.807217 c -0.561266,-0.561266 -1.715298,-0.592766 -1.154032,-0.031500 l 10.882191,10.882191 c 0.561266,0.561266 0.399167,1.521699 -0.162099,0.960433 l -11.842624,-11.842624 c -0.561266,-0.561266 -1.683798,-0.561266 -1.122532,0.000000 l 12.740224,12.740224 c 0.561266,0.561266 0.274458,1.396990 -0.286808,0.835724 l -4.507365,-4.507365 c -0.561266,-0.561266 -0.433443,0.689089 0.127823,1.250355 l 4.030029,4.030029 c 0.561266,0.561266 0.159073,1.281605 -0.402192,0.720339 l -3.681156,-3.681156 c -0.561266,-0.561266 -0.810857,0.311675 -0.249591,0.872941 l 3.478998,3.478998 c 0.561266,0.561266 0.059298,1.181830 -0.501968,0.620564 l -3.365132,-3.365132 c -0.561266,-0.561266 -1.071483,0.051049 -0.510217,0.612315 l 3.332558,3.332558 c 0.561266,0.561266 -0.028041,1.094490 -0.589307,0.533225 l -3.371504,-3.371504 c -0.561266,-0.561266 -1.302178,-0.179646 -0.740912,0.381620 l 3.483911,3.483911 c 0.561266,0.561266 -0.119226,1.003306 -0.680492,0.442040 l -3.654262,-3.654262 c -0.561266,-0.561266 -1.507415,-0.384883 -0.946149,0.176383 l 3.873305,3.873305 c 0.561266,0.561266 -0.219033,0.903499 -0.780298,0.342233 l -4.148020,-4.148020 c -0.561266,-0.561266 -1.586383,-0.463851 -1.025117,0.097415 l 4.333740,4.333740 c 0.561266,0.561266 -0.308745,0.813787 -0.870011,0.252521 l -3.463728,-3.463728 c -0.561266,-0.561266 -0.561266,0.561266 0.000000,1.122532 l 2.472614,2.472614 c 0.561266,0.561266 -0.477280,0.645252 -1.038546,0.083986 l -1.434068,-1.434068 c -0.561266,-0.561266 -0.561266,0.561266 0.000000,1.122532 l 0.739229,0.739229 M 624.685381,298.068021 l -5.393388,-5.393388 c -0.561266,-0.561266 -1.683798,-0.561266 -1.122532,0.000000 l 4.740221,4.740221 c 0.561266,0.561266 -0.595404,0.527128 -1.156670,-0.034138 l -4.706083,-4.706083 c -0.561266,-0.561266 -1.683798,-0.561266 -1.122532,0.000000 l 4.706078,4.706078 c 0.561266,0.561266 -0.422592,0.699940 -0.983858,0.138674 l -4.844752,-4.844752 c -0.561266,-0.561266 -0.639639,0.482893 -0.078373,1.044159 l 4.923124,4.923124 c 0.561266,0.561266 0.561266,1.683798 0.000000,1.122532 l -4.923124,-4.923124 c -0.561266,-0.561266 -0.561266,0.561266 0.000000,1.122532 l 4.923124,4.923124 c 0.561266,0.561266 0.561266,1.683798 0.000000,1.122532 l -4.923124,-4.923124 c -0.561266,-0.561266 -0.561266,0.561266 0.000000,1.122532 l 4.923124,4.923124 c 0.561266,0.561266 0.561266,1.683798 0.000000,1.122532 l -4.923124,-4.923124 c -0.561266,-0.561266 -0.561266,0.561266 0.000000,1.122532 l 4.923124,4.923124 c 0.561266,0.561266 0.561266,1.683798 0.000000,1.122532 l -4.923124,-4.923124 c -0.561266,-0.561266 -0.561266,0.561266 0.000000,1.122532 l 4.923124,4.923124 c 0.561266,0.561266 0.561266,1.683798 0.000000,1.122532 l -4.923124,-4.923124 c -0.561266,-0.561266 -0.561266,0.561266 0.000000,1.122532 l 4.923124,4.923124 c 0.561266,0.561266 0.561266,1.683798 0.000000,1.122532 l -4.923124,-4.923124 c -0.561266,-0.561266 -0.561266,0.561266 0.000000,1.122532 l 4.923124,4.923124 c 0.561266,0.561266 -0.208508,0.914024 -0.769774,0.352758 l -4.153351,-4.153351 c -0.561266,-0.561266 -0.561266,0.561266 0.000000,1.122532 l 3.030819,3.030819 c 0.561266,0.561266 -0.561266,0.561266 -1.122532,0.000000 l -1.908287,-1.908287 c -0.561266,-0.561266 -0.561266,0.561266 0.000000,1.122532 l 0.954144,0.954144 c 0.336748,0.336748 -0.785784,0.336748 -1.122532,0.000000 l -0.252561,-0.252561"
           id="path904" />
      </g>
      <g
         id="g911">
        <path
           id="path2209"
           style="font-style:normal;font-variant:normal;font-weight:normal;font-stretch:normal;font-size:31.75px;font-family:'Bauhaus 93';-inkscape-font-specification:'Bauhaus 93, ';stroke-width:0.264583"
           d="m 643.58655,298.06624 v 15.08435 h -6.29419 V 291.9891 h 8.20105 q 5.39502,0 8.44909,2.44946 3.62769,2.93005 3.62769,7.953 0,4.80591 -3.10059,7.84448 -3.10058,3.03858 -7.984,3.03858 -0.57361,0 -1.87586,-0.062 v -6.21668 h 1.00769 q 5.50354,0 5.50354,-4.60437 0,-4.32532 -5.41052,-4.32532 z" />
        <path
           style="stroke:#000000;fill:none;stroke-width:0.264583"
           d="M 656.137738,297.285732 l -3.281314,-3.281314 c -0.561266,-0.561266 -2.249260,-1.126728 -1.687994,-0.565462 l 5.420246,5.420246 c 0.561266,0.561266 0.726099,1.848631 0.164834,1.287365 l -7.123286,-7.123286 c -0.561266,-0.561266 -1.896482,-0.773950 -1.335216,-0.212684 l 8.576232,8.576232 c 0.561266,0.561266 0.565255,1.687787 0.003989,1.126521 l -9.807218,-9.807218 c -0.561266,-0.561266 -1.715297,-0.592765 -1.154031,-0.031499 l 10.882191,10.882191 c 0.561266,0.561266 0.399167,1.521699 -0.162099,0.960433 l -11.842623,-11.842623 c -0.561266,-0.561266 -1.683798,-0.561266 -1.122532,-0.000000 l 12.740224,12.740224 c 0.561266,0.561266 0.274458,1.396990 -0.286808,0.835724 l -4.507365,-4.507365 c -0.561266,-0.561266 -0.433443,0.689089 0.127823,1.250355 l 4.030029,4.030029 c 0.561266,0.561266 0.159074,1.281605 -0.402192,0.720339 l -3.681156,-3.681156 c -0.561266,-0.561266 -0.810857,0.311675 -0.249591,0.872941 l 3.478998,3.478998 c 0.561266,0.561266 0.059298,1.181830 -0.501968,0.620564 l -3.365132,-3.365132 c -0.561266,-0.561266 -1.071483,0.051049 -0.510217,0.612315 l 3.332558,3.332558 c 0.561266,0.561266 -0.028041,1.094491 -0.589307,0.533225 l -3.371504,-3.371504 c -0.561266,-0.561266 -1.302178,-0.179646 -0.740912,0.381620 l 3.483913,3.483913 c 0.561266,0.561266 -0.119226,1.003306 -0.680492,0.442040 l -3.654264,-3.654264 c -0.561266,-0.561266 -1.507415,-0.384883 -0.946149,0.176383 l 3.873307,3.873307 c 0.561266,0.561266 -0.219032,0.903500 -0.780298,0.342234 l -4.148022,-4.148022 c -0.561266,-0.561266 -1.586383,-0.463851 -1.025117,0.097415 l 4.333742,4.333742 c 0.561266,0.561266 -0.308740,0.813792 -0.870006,0.252526 l -3.463735,-3.463735 c -0.561266,-0.561266 -0.561266,0.561266 0.000000,1.122532 l 2.472616,2.472616 c 0.561266,0.561266 -0.477281,0.645251 -1.038547,0.083985 l -1.434069,-1.434069 c -0.561266,-0.561266 -0.561266,0.561266 0.000000,1.122532 l 0.739229,0.739229 M 647.939775,298.068024 l -5.393392,-5.393392 c -0.561266,-0.561266 -1.683798,-0.561266 -1.122532,0.000000 l 4.740221,4.740221 c 0.561266,0.561266 -0.595403,0.527129 -1.156669,-0.034137 l -4.706083,-4.706083 c -0.561266,-0.561266 -1.683798,-0.561266 -1.122532,0.000000 l 4.706078,4.706078 c 0.561266,0.561266 -0.422582,0.699950 -0.983848,0.138684 l -4.844762,-4.844762 c -0.561266,-0.561266 -0.639629,0.482903 -0.078363,1.044169 l 4.923124,4.923124 c 0.561266,0.561266 0.561266,1.683798 0.000000,1.122532 l -4.923124,-4.923124 c -0.561266,-0.561266 -0.561266,0.561266 0.000000,1.122532 l 4.923124,4.923124 c 0.561266,0.561266 0.561266,1.683798 0.000000,1.122532 l -4.923124,-4.923124 c -0.561266,-0.561266 -0.561266,0.561266 0.000000,1.122532 l 4.923124,4.923124 c 0.561266,0.561266 0.561266,1.683798 0.000000,1.122532 l -4.923124,-4.923124 c -0.561266,-0.561266 -0.561266,0.561266 0.000000,1.122532 l 4.923124,4.923124 c 0.561266,0.561266 0.561266,1.683798 0.000000,1.122532 l -4.923124,-4.923124 c -0.561266,-0.561266 -0.561266,0.561266 0.000000,1.122532 l 4.923124,4.923124 c 0.561266,0.561266 0.561266,1.683798 0.000000,1.122532 l -4.923124,-4.923124 c -0.561266,-0.561266 -0.561266,0.561266 0.000000,1.122532 l 4.923124,4.923124 c 0.561266,0.561266 0.561266,1.683798 0.000000,1.122532 l -4.923124,-4.923124 c -0.561266,-0.561266 -0.561266,0.561266 0.000000,1.122532 l 4.923124,4.923124 c 0.561266,0.561266 -0.208517,0.914014 -0.769783,0.352748 l -4.153341,-4.153341 c -0.561266,-0.561266 -0.561266,0.561266 0.000000,1.122532 l 3.030809,3.030809 c 0.561266,0.561266 -0.561266,0.561266 -1.122532,0.000000 l -1.908277,-1.908277 c -0.561266,-0.561266 -0.561266,0.561266 0.000000,1.122532 l 0.954139,0.954139 c 0.336742,0.336742 -0.785790,0.336742 -1.122532,0.000000 l -0.252556,-0.252556"
           id="path909" />
      </g>
      <g
         id="g916">
        <path
           id="path2211"
           style="font-style:normal;font-variant:normal;font-weight:normal;font-stretch:normal;font-size:31.75px;font-family:'Bauhaus 93';-inkscape-font-specification:'Bauhaus 93, ';stroke-width:0.264583"
           d="m 666.84094,291.9891 v 21.16149 h -6.29419 V 291.9891 Z" />
        <path
           style="stroke:#000000;fill:none;stroke-width:0.264583"
           d="M 665.621389,292.253683 l 0.534018,0.534018 c 0.561266,0.561266 0.561266,1.683798 0.000000,1.122532 l -1.235600,-1.235600 c -0.561266,-0.561266 -1.683798,-0.561266 -1.122532,0.000000 l 2.358132,2.358132 c 0.561266,0.561266 0.561266,1.683798 0.000000,1.122532 l -3.480664,-3.480664 c -0.561266,-0.561266 -1.683798,-0.561266 -1.122532,0.000000 l 4.603196,4.603196 c 0.561266,0.561266 0.561266,1.683798 0.000000,1.122532 l -4.923124,-4.923124 c -0.561266,-0.561266 -0.561266,0.561266 0.000000,1.122532 l 4.923124,4.923124 c 0.561266,0.561266 0.561266,1.683798 0.000000,1.122532 l -4.923124,-4.923124 c -0.561266,-0.561266 -0.561266,0.561266 0.000000,1.122532 l 4.923124,4.923124 c 0.561266,0.561266 0.561266,1.683798 0.000000,1.122532 l -4.923124,-4.923124 c -0.561266,-0.561266 -0.561266,0.561266 0.000000,1.122532 l 4.923124,4.923124 c 0.561266,0.561266 0.561266,1.683798 0.000000,1.122532 l -4.923124,-4.923124 c -0.561266,-0.561266 -0.561266,0.561266 0.000000,1.122532 l 4.923124,4.923124 c 0.561266,0.561266 0.561266,1.683798 0.000000,1.122532 l -4.923124,-4.923124 c -0.561266,-0.561266 -0.561266,0.561266 0.000000,1.122532 l 4.923124,4.923124 c 0.561266,0.561266 0.561266,1.683798 0.000000,1.122532 l -4.923124,-4.923124 c -0.561266,-0.561266 -0.561266,0.561266 0.000000,1.122532 l 4.923124,4.923124 c 0.561266,0.561266 0.561266,1.683798 0.000000,1.122532 l -4.923124,-4.923124 c -0.561266,-0.561266 -0.561266,0.561266 0.000000,1.122532 l 4.394907,4.394907 c 0.561266,0.561266 -0.561266,0.561266 -1.122532,0.000000 l -3.272375,-3.272375 c -0.561266,-0.561266 -0.561266,0.561266 0.000000,1.122532 l 2.149843,2.149843 c 0.561266,0.561266 -0.561266,0.561266 -1.122532,0.000000 l -1.074921,-1.074921 c -0.497785,-0.497785 -0.497785,0.624747 0.000000,1.122532 l 0.373339,0.373339"
           id="path914" />
      </g>
      <g
         id="g921">
        <path
           id="path2213"
           style="font-style:normal;font-variant:normal;font-weight:normal;font-stretch:normal;font-size:31.75px;font-family:'Bauhaus 93';-inkscape-font-specification:'Bauhaus 93, ';stroke-width:0.264583"
           d="m 680.29749,298.06624 v 15.08435 h -6.29419 v -15.08435 h -4.82142 v -6.07714 h 15.92151 v 6.07714 z" />
        <path
           style="stroke:#000000;fill:none;stroke-width:0.264583"
           d="M 684.429634,292.253683 l 0.204586,0.204586 c 0.272782,0.272782 0.272782,1.395314 0.000000,1.122532 l -0.906169,-0.906169 c -0.561266,-0.561266 -1.683798,-0.561266 -1.122532,0.000000 l 1.812337,1.812337 c 0.561266,0.561266 0.561266,1.683798 0.000000,1.122532 l -2.934869,-2.934869 c -0.561266,-0.561266 -1.683798,-0.561266 -1.122532,0.000000 l 4.057401,4.057401 c 0.561266,0.561266 0.087407,1.209939 -0.473859,0.648673 l -4.706074,-4.706074 c -0.561266,-0.561266 -1.683798,-0.561266 -1.122532,0.000000 l 4.706074,4.706074 c 0.561266,0.561266 -0.561266,0.561266 -1.122532,0.000000 l -4.706074,-4.706074 c -0.561266,-0.561266 -1.683798,-0.561266 -1.122532,0.000000 l 4.706074,4.706074 c 0.561266,0.561266 -0.403180,0.719352 -0.964446,0.158086 l -4.864161,-4.864161 c -0.561266,-0.561266 -1.683798,-0.561266 -1.122532,0.000000 l 5.986692,5.986692 c 0.561266,0.561266 0.561266,1.683798 0.000000,1.122532 l -7.109224,-7.109224 c -0.561266,-0.561266 -1.683798,-0.561266 -1.122532,0.000000 l 8.231756,8.231756 c 0.561266,0.561266 0.561266,1.683798 0.000000,1.122532 l -9.354288,-9.354288 c -0.561266,-0.561266 -0.951522,0.171010 -0.390256,0.732275 l 9.744544,9.744544 c 0.561266,0.561266 0.561266,1.683798 0.000000,1.122532 l -4.923124,-4.923124 c -0.561266,-0.561266 -0.561266,0.561266 0.000000,1.122532 l 4.923124,4.923124 c 0.561266,0.561266 0.561266,1.683798 0.000000,1.122532 l -4.923124,-4.923124 c -0.561266,-0.561266 -0.561266,0.561266 0.000000,1.122532 l 4.923124,4.923124 c 0.561266,0.561266 0.561266,1.683798 0.000000,1.122532 l -4.923124,-4.923124 c -0.561266,-0.561266 -0.561266,0.561266 0.000000,1.122532 l 4.923124,4.923124 c 0.561266,0.561266 0.561266,1.683798 0.000000,1.122532 l -4.923124,-4.923124 c -0.561266,-0.561266 -0.561266,0.561266 0.000000,1.122532 l 4.923124,4.923124 c 0.561266,0.561266 -0.227917,0.894615 -0.789182,0.333349 l -4.133942,-4.133942 c -0.561266,-0.561266 -0.561266,0.561266 0.000000,1.122532 l 3.011410,3.011410 c 0.561266,0.561266 -0.561266,0.561266 -1.122532,0.000000 l -1.888878,-1.888878 c -0.561266,-0.561266 -0.561266,0.561266 0.000000,1.122532 l 0.944439,0.944439 c 0.323809,0.323809 -0.798723,0.323809 -1.122532,0.000000 l -0.242857,-0.242857 M 669.446463,294.108491 l 3.272217,3.272217 c 0.561266,0.561266 -0.561266,0.561266 -1.122532,0.000000 l -1.728735,-1.728735 c -0.561266,-0.561266 -0.561266,0.561266 0.000000,1.122532 l 0.864368,0.864368 c 0.217047,0.217047 -0.905485,0.217047 -1.122532,0.000000 l -0.162785,-0.162785"
           id="path919" />
      </g>
      <g
         id="g926">
        <path
           id="path2215"
           style="font-style:normal;font-variant:normal;font-weight:normal;font-stretch:normal;font-size:31.75px;font-family:'Bauhaus 93';-inkscape-font-specification:'Bauhaus 93, ';stroke-width:0.264583"
           d="m 693.75403,291.9891 v 21.16149 h -6.29419 V 291.9891 Z" />
        <path
           style="stroke:#000000;fill:none;stroke-width:0.264583"
           d="M 692.534479,292.253683 l 0.534018,0.534018 c 0.561266,0.561266 0.561266,1.683798 0.000000,1.122532 l -1.235600,-1.235600 c -0.561266,-0.561266 -1.683798,-0.561266 -1.122532,0.000000 l 2.358132,2.358132 c 0.561266,0.561266 0.561266,1.683798 0.000000,1.122532 l -3.480664,-3.480664 c -0.561266,-0.561266 -1.683798,-0.561266 -1.122532,0.000000 l 4.603196,4.603196 c 0.561266,0.561266 0.561266,1.683798 0.000000,1.122532 l -4.923124,-4.923124 c -0.561266,-0.561266 -0.561266,0.561266 0.000000,1.122532 l 4.923124,4.923124 c 0.561266,0.561266 0.561266,1.683798 0.000000,1.122532 l -4.923124,-4.923124 c -0.561266,-0.561266 -0.561266,0.561266 0.000000,1.122532 l 4.923124,4.923124 c 0.561266,0.561266 0.561266,1.683798 0.000000,1.122532 l -4.923124,-4.923124 c -0.561266,-0.561266 -0.561266,0.561266 0.000000,1.122532 l 4.923124,4.923124 c 0.561266,0.561266 0.561266,1.683798 0.000000,1.122532 l -4.923124,-4.923124 c -0.561266,-0.561266 -0.561266,0.561266 0.000000,1.122532 l 4.923124,4.923124 c 0.561266,0.561266 0.561266,1.683798 0.000000,1.122532 l -4.923124,-4.923124 c -0.561266,-0.561266 -0.561266,0.561266 0.000000,1.122532 l 4.923124,4.923124 c 0.561266,0.561266 0.561266,1.683798 0.000000,1.122532 l -4.923124,-4.923124 c -0.561266,-0.561266 -0.561266,0.561266 0.000000,1.122532 l 4.923124,4.923124 c 0.561266,0.561266 0.561266,1.683798 0.000000,1.122532 l -4.923124,-4.923124 c -0.561266,-0.561266 -0.561266,0.561266 0.000000,1.122532 l 4.394907,4.394907 c 0.561266,0.561266 -0.561266,0.561266 -1.122532,0.000000 l -3.272375,-3.272375 c -0.561266,-0.561266 -0.561266,0.561266 0.000000,1.122532 l 2.149843,2.149843 c 0.561266,0.561266 -0.561266,0.561266 -1.122532,0.000000 l -1.074921,-1.074921 c -0.497785,-0.497785 -0.497785,0.624747 0.000000,1.122532 l 0.373339,0.373339"
           id="path924" />
      </g>
      <g
         id="g931">
        <path
           id="path2217"
           style="font-style:normal;font-variant:normal;font-weight:normal;font-stretch:normal;font-size:31.75px;font-family:'Bauhaus 93';-inkscape-font-specification:'Bauhaus 93, ';stroke-width:0.264583"
           d="m 708.03223,291.462 q 4.49585,0 7.70495,3.27111 3.22461,3.27112 3.22461,7.82898 0,4.63538 -3.24011,7.87549 -3.24011,3.24011 -7.87549,3.24011 -4.60437,0 -7.85998,-3.25561 -3.25562,-3.25562 -3.25562,-7.85999 0,-4.65088 3.27112,-7.87548 3.28662,-3.22461 8.03052,-3.22461 z m -0.18604,6.23217 q -1.93786,0 -3.30212,1.42627 -1.36426,1.42627 -1.36426,3.44165 0,2.01538 1.36426,3.44165 1.37976,1.42627 3.30212,1.42627 1.95337,0 3.30213,-1.41076 1.36425,-1.42627 1.36425,-3.45716 0,-2.03088 -1.36425,-3.44165 -1.34876,-1.42627 -3.30213,-1.42627 z" />
        <path
           style="stroke:#000000;fill:none;stroke-width:0.264583"
           d="M 716.611562,295.846962 l -1.983248,-1.983248 M 712.206100,292.564032 l 5.227658,5.227658 c 0.561266,0.561266 1.087597,2.210129 0.526331,1.648863 l -7.157002,-7.157002 c -0.561266,-0.561266 -1.765096,-0.642564 -1.203830,-0.081299 l 8.654840,8.654840 c 0.561266,0.561266 0.586370,1.708902 0.025104,1.147636 l -9.856482,-9.856482 c -0.561266,-0.561266 -1.638661,-0.516129 -1.077395,0.045137 l 10.913252,10.913252 c 0.561266,0.561266 0.419449,1.541981 -0.141816,0.980715 l -11.770771,-11.770771 c -0.561266,-0.561266 -1.476790,-0.354258 -0.915524,0.207008 l 12.490102,12.490102 c 0.561266,0.561266 0.299415,1.421947 -0.261851,0.860681 l -5.031277,-5.031277 c -0.561266,-0.561266 -0.004585,1.117947 0.556681,1.679213 l 4.149509,4.149509 c 0.561266,0.561266 0.183211,1.305743 -0.378055,0.744477 l -3.784964,-3.784964 c -0.561266,-0.561266 -0.751578,0.370953 -0.190312,0.932219 l 3.549534,3.549534 c 0.561266,0.561266 0.088146,1.210678 -0.473119,0.649412 l -3.400345,-3.400345 c -0.561266,-0.561266 -0.989691,0.132841 -0.428425,0.694107 l 3.317075,3.317075 c 0.561266,0.561266 0.009720,1.132252 -0.551546,0.570986 l -3.277963,-3.277963 c -0.561266,-0.561266 -1.160068,-0.037536 -0.598802,0.523729 l 3.289592,3.289592 c 0.561266,0.561266 -0.065040,1.057492 -0.626306,0.496226 l -3.351430,-3.351430 c -0.561266,-0.561266 -1.374925,-0.252394 -0.813660,0.308872 l 3.495953,3.495953 c 0.561266,0.561266 -0.154680,0.967852 -0.715946,0.406586 l -3.738001,-3.738001 c -0.561266,-0.561266 -1.742542,-0.620010 -1.181276,-0.058744 l 4.154429,4.154429 c 0.561266,0.561266 -0.263941,0.858591 -0.825207,0.297325 l -12.885574,-12.885574 c -0.561266,-0.561266 -0.262786,-1.385318 0.298480,-0.824052 l 4.361980,4.361980 c 0.561266,0.561266 0.512529,-0.610003 -0.048737,-1.171268 l -3.953594,-3.953594 c -0.561266,-0.561266 -0.152907,-1.275439 0.408359,-0.714173 l 3.639455,3.639455 c 0.561266,0.561266 0.830392,-0.292140 0.269126,-0.853406 l -3.452577,-3.452577 c -0.561266,-0.561266 -0.062719,-1.185251 0.498547,-0.623985 l 3.337166,3.337166 c 0.561266,0.561266 1.044724,-0.077808 0.483458,-0.639074 l -3.282074,-3.282074 c -0.561266,-0.561266 0.013465,-1.109066 0.574731,-0.547800 l 3.266805,3.266805 c 0.561266,0.561266 1.213532,0.091000 0.652266,-0.470265 l -3.303413,-3.303413 c -0.561266,-0.561266 0.090922,-1.031610 0.652188,-0.470344 l 3.401615,3.401615 c 0.561266,0.561266 1.454342,0.331810 0.893076,-0.229456 l -3.592634,-3.592634 c -0.561266,-0.561266 0.177958,-0.944574 0.739224,-0.383308 l 3.972084,3.972084 c 0.561266,0.561266 2.103739,0.981207 1.542473,0.419941 l -5.127511,-5.127511 M 710.339540,313.148110 l -12.657413,-12.657413 c -0.561266,-0.561266 -0.733711,0.388821 -0.172445,0.950087 l 11.457972,11.457972 c 0.561266,0.561266 -0.476450,0.646082 -1.037716,0.084816 l -10.505253,-10.505253 c -0.561266,-0.561266 -0.555865,0.566667 0.005401,1.127933 l 9.371942,9.371942 c 0.561266,0.561266 -0.650034,0.472498 -1.211300,-0.088768 l -8.071874,-8.071874 c -0.561266,-0.561266 -0.175195,0.947337 0.386071,1.508603 l 6.177202,6.177202 c 0.561266,0.561266 -1.031470,0.091062 -1.592736,-0.470204 l -4.535210,-4.535210"
           id="path929" />
      </g>
      <g
         id="g936">
        <path
           id="path2219"
           style="font-style:normal;font-variant:normal;font-weight:normal;font-stretch:normal;font-size:31.75px;font-family:'Bauhaus 93';-inkscape-font-specification:'Bauhaus 93, ';stroke-width:0.264583"
           d="M 721.50427,313.15059 V 299.415 q 0,-3.61218 2.15491,-5.78259 2.17041,-2.17041 5.76709,-2.17041 3.58118,0 5.47253,2.10839 1.90686,2.1084 1.90686,6.06165 v 13.51855 h -6.29419 v -13.51855 q 0,-1.93787 -1.37976,-1.93787 -1.33325,0 -1.33325,1.93787 v 13.51855 z" />
        <path
           style="stroke:#000000;fill:none;stroke-width:0.264583"
           d="M 735.108057,293.980824 l -0.684745,-0.684745 c -0.561266,-0.561266 -2.542025,-1.419493 -1.980759,-0.858227 l 3.162530,3.162530 c 0.561266,0.561266 1.011996,2.134528 0.450731,1.573262 l -4.953513,-4.953513 c -0.561266,-0.561266 -1.757473,-0.634941 -1.196207,-0.073675 l 6.187854,6.187854 c 0.561266,0.561266 0.587445,1.709977 0.026179,1.148711 l -7.286502,-7.286502 c -0.561266,-0.561266 -1.541002,-0.418470 -0.979736,0.142796 l 8.266238,8.266238 c 0.561266,0.561266 0.561266,1.683798 0.000000,1.122532 l -9.148936,-9.148936 c -0.561266,-0.561266 -1.362507,-0.239975 -0.801241,0.321291 l 9.950178,9.950178 c 0.561266,0.561266 0.561266,1.683798 0.000000,1.122532 l -10.678878,-10.678878 c -0.561266,-0.561266 -1.210775,-0.088243 -0.649509,0.473023 l 3.335231,3.335231 c 0.561266,0.561266 -0.066832,1.055700 -0.628098,0.494434 l -3.292146,-3.292146 c -0.561266,-0.561266 -1.080543,0.041989 -0.519277,0.603255 l 3.489900,3.489900 c 0.561266,0.561266 0.496842,1.619374 -0.064424,1.058108 l -3.877332,-3.877332 c -0.561266,-0.561266 -0.941230,0.181302 -0.379964,0.742568 l 4.257296,4.257296 c 0.561266,0.561266 0.561266,1.683798 0.000000,1.122532 l -4.567556,-4.567556 c -0.561266,-0.561266 -0.764743,0.357789 -0.203477,0.919055 l 4.771033,4.771033 c 0.561266,0.561266 0.561266,1.683798 0.000000,1.122532 l -4.897429,-4.897429 c -0.561266,-0.561266 -0.586961,0.535571 -0.025695,1.096837 l 4.923124,4.923124 c 0.561266,0.561266 0.561266,1.683798 0.000000,1.122532 l -4.923124,-4.923124 c -0.561266,-0.561266 -0.561266,0.561266 0.000000,1.122532 l 4.923124,4.923124 c 0.561266,0.561266 0.561266,1.683798 0.000000,1.122532 l -4.923124,-4.923124 c -0.561266,-0.561266 -0.561266,0.561266 0.000000,1.122532 l 4.923124,4.923124 c 0.561266,0.561266 0.561266,1.683798 0.000000,1.122532 l -4.923124,-4.923124 c -0.561266,-0.561266 -0.561266,0.561266 0.000000,1.122532 l 4.923124,4.923124 c 0.561266,0.561266 0.099863,1.222395 -0.461402,0.661129 l -4.461722,-4.461722 c -0.561266,-0.561266 -0.561266,0.561266 0.000000,1.122532 l 3.339190,3.339190 c 0.561266,0.561266 -0.561266,0.561266 -1.122532,0.000000 l -2.216658,-2.216658 c -0.561266,-0.561266 -0.561266,0.561266 0.000000,1.122532 l 1.108329,1.108329 c 0.542329,0.542329 -0.580203,0.542329 -1.122532,0.000000 l -0.406747,-0.406747 M 736.541077,305.516631 l -5.337803,-5.337803 c -0.561266,-0.561266 -0.567537,0.554995 -0.006271,1.116261 l 4.923124,4.923124 c 0.561266,0.561266 0.561266,1.683798 0.000000,1.122532 l -4.923124,-4.923124 c -0.561266,-0.561266 -0.561266,0.561266 0.000000,1.122532 l 4.923124,4.923124 c 0.561266,0.561266 0.561266,1.683798 0.000000,1.122532 l -4.923124,-4.923124 c -0.561266,-0.561266 -0.561266,0.561266 0.000000,1.122532 l 4.923124,4.923124 c 0.561266,0.561266 0.561266,1.683798 0.000000,1.122532 l -4.923124,-4.923124 c -0.561266,-0.561266 -0.561266,0.561266 0.000000,1.122532 l 4.434777,4.434777 c 0.561266,0.561266 -0.561266,0.561266 -1.122532,0.000000 l -3.312245,-3.312245 c -0.561266,-0.561266 -0.561266,0.561266 0.000000,1.122532 l 2.189713,2.189713 c 0.561266,0.561266 -0.561266,0.561266 -1.122532,0.000000 l -1.094857,-1.094857 c -0.524366,-0.524366 -0.524366,0.598166 0.000000,1.122532 l 0.393274,0.393274"
           id="path934" />
      </g>
      <g
         id="g941">
        <path
           id="path2221"
           style="font-style:normal;font-variant:normal;font-weight:normal;font-stretch:normal;font-size:31.75px;font-family:'Bauhaus 93';-inkscape-font-specification:'Bauhaus 93, ';stroke-width:0.264583"
           d="m 748.33984,302.53109 v 5.58105 H 746.526 v 5.03845 h -6.29419 v -13.45654 q 0,-3.90674 2.1239,-6.06164 2.13941,-2.17041 5.99964,-2.17041 3.7207,0 5.50354,1.96887 1.78283,1.95337 1.78283,6.04614 v 13.67358 h -6.29419 v -13.255 q 0,-1.24023 -0.29455,-1.72083 -0.29456,-0.48059 -1.0542,-0.48059 -1.47278,0 -1.47278,2.20142 v 2.6355 z" />
        <path
           style="stroke:#000000;fill:none;stroke-width:0.264583"
           d="M 754.368012,294.414639 l -1.537249,-1.537249 c -0.561266,-0.561266 -2.294646,-1.172114 -1.733380,-0.610848 l 3.489083,3.489083 c 0.561266,0.561266 0.817012,1.939544 0.255746,1.378278 l -4.995614,-4.995614 c -0.561266,-0.561266 -1.673761,-0.551229 -1.112495,0.010037 l 6.239738,6.239738 c 0.561266,0.561266 0.543611,1.666143 -0.017655,1.104877 l -7.293730,-7.293730 c -0.561266,-0.561266 -1.549294,-0.426762 -0.988028,0.134504 l 8.281759,8.281759 c 0.561266,0.561266 0.561266,1.683798 0.000000,1.122532 l -9.177605,-9.177605 c -0.561266,-0.561266 -1.377038,-0.254506 -0.815772,0.306760 l 9.993377,9.993377 c 0.561266,0.561266 0.561266,1.683798 0.000000,1.122532 l -10.732095,-10.732095 c -0.561266,-0.561266 -1.225848,-0.103316 -0.664582,0.457950 l 3.399817,3.399817 c 0.561266,0.561266 -0.079863,1.042669 -0.641129,0.481403 l -3.351982,-3.351982 c -0.561266,-0.561266 -1.082289,0.040243 -0.521023,0.601508 l 3.512559,3.512559 c 0.561266,0.561266 0.443981,1.566513 -0.117285,1.005247 l -3.844704,-3.844704 c -0.561266,-0.561266 -0.936834,0.185698 -0.375568,0.746964 l 4.220272,4.220272 c 0.561266,0.561266 0.561266,1.683798 0.000000,1.122532 l -4.519622,-4.519622 c -0.561266,-0.561266 -0.781987,0.340545 -0.220721,0.901810 l 6.554183,6.554183 c 0.561266,0.561266 0.561266,-0.561266 0.000000,-1.122532 l -0.620707,-0.620707 M 749.607801,299.757215 l 5.348386,5.348386 c 0.561266,0.561266 0.561266,1.683798 0.000000,1.122532 l -4.923124,-4.923124 c -0.561266,-0.561266 -0.561266,0.561266 0.000000,1.122532 l 4.923124,4.923124 c 0.561266,0.561266 0.561266,1.683798 0.000000,1.122532 l -4.923124,-4.923124 c -0.561266,-0.561266 -0.561266,0.561266 0.000000,1.122532 l 4.923124,4.923124 c 0.561266,0.561266 0.561266,1.683798 0.000000,1.122532 l -4.923124,-4.923124 c -0.561266,-0.561266 -0.561266,0.561266 0.000000,1.122532 l 4.923124,4.923124 c 0.561266,0.561266 0.062999,1.185531 -0.498267,0.624265 l -4.424858,-4.424858 c -0.561266,-0.561266 -0.561266,0.561266 0.000000,1.122532 l 3.302326,3.302326 c 0.561266,0.561266 -0.561266,0.561266 -1.122532,0.000000 l -2.179794,-2.179794 c -0.561266,-0.561266 -0.561266,0.561266 0.000000,1.122532 l 1.089897,1.089897 c 0.517753,0.517753 -0.604779,0.517753 -1.122532,0.000000 l -0.388315,-0.388315 M 748.075257,306.082393 l -7.106307,-7.106307 c -0.561266,-0.561266 -0.611682,0.510850 -0.050416,1.072115 l 6.735774,6.735774 c 0.561266,0.561266 0.081365,1.203897 -0.479901,0.642631 l -6.257064,-6.257064 c -0.561266,-0.561266 -0.561266,0.561266 0.000000,1.122532 l 5.134532,5.134532 c 0.561266,0.561266 0.349858,1.472390 -0.211408,0.911124 l -4.923124,-4.923124 c -0.561266,-0.561266 -0.561266,0.561266 0.000000,1.122532 l 4.923124,4.923124 c 0.561266,0.561266 0.561266,1.683798 0.000000,1.122532 l -4.923124,-4.923124 c -0.561266,-0.561266 -0.561266,0.561266 0.000000,1.122532 l 4.923124,4.923124 c 0.561266,0.561266 0.198464,1.320996 -0.362802,0.759730 l -4.560323,-4.560323 c -0.561266,-0.561266 -0.561266,0.561266 0.000000,1.122532 l 3.437791,3.437791 c 0.561266,0.561266 -0.561266,0.561266 -1.122532,0.000000 l -2.315259,-2.315259 c -0.561266,-0.561266 -0.561266,0.561266 0.000000,1.122532 l 1.192727,1.192727 c 0.561266,0.561266 -0.561266,0.561266 -1.122532,0.000000 l -0.491145,-0.491145"
           id="path939" />
      </g>
      <g
         id="g946">
        <path
           id="path2223"
           style="font-style:normal;font-variant:normal;font-weight:normal;font-stretch:normal;font-size:31.75px;font-family:'Bauhaus 93';-inkscape-font-specification:'Bauhaus 93, ';stroke-width:0.264583"
           d="m 759.02136,291.9891 h 6.29419 v 12.57287 q 0,1.47278 0.46509,1.96887 0.48059,0.48059 1.87585,0.48059 h 0.32557 v 6.13916 h -1.67432 q -3.44165,0 -5.36401,-1.99987 -1.92237,-2.01538 -1.92237,-5.58106 z" />
        <path
           style="stroke:#000000;fill:none;stroke-width:0.264583"
           d="M 763.822547,292.253683 l 0.807470,0.807470 c 0.561266,0.561266 0.561266,1.683798 0.000000,1.122532 l -1.509052,-1.509052 c -0.561266,-0.561266 -1.683798,-0.561266 -1.122532,0.000000 l 2.631584,2.631584 c 0.561266,0.561266 0.561266,1.683798 0.000000,1.122532 l -3.754116,-3.754116 c -0.561266,-0.561266 -1.683798,-0.561266 -1.122532,0.000000 l 4.876648,4.876648 c 0.561266,0.561266 0.561266,1.683798 0.000000,1.122532 l -4.923124,-4.923124 c -0.561266,-0.561266 -0.561266,0.561266 0.000000,1.122532 l 4.923124,4.923124 c 0.561266,0.561266 0.561266,1.683798 0.000000,1.122532 l -4.923124,-4.923124 c -0.561266,-0.561266 -0.561266,0.561266 0.000000,1.122532 l 4.923124,4.923124 c 0.561266,0.561266 0.561266,1.683798 0.000000,1.122532 l -4.923124,-4.923124 c -0.561266,-0.561266 -0.561266,0.561266 0.000000,1.122532 l 5.384577,5.384577 M 767.717477,308.496463 l -8.010584,-8.010584 c -0.561266,-0.561266 -0.561266,0.561266 0.000000,1.122532 l 7.589634,7.589634 c 0.561266,0.561266 0.561266,1.683798 0.000000,1.122532 l -7.589634,-7.589634 c -0.561266,-0.561266 -0.561266,0.561266 0.000000,1.122532 l 7.589634,7.589634 c 0.561266,0.561266 0.460682,1.583214 -0.100584,1.021948 l -7.489050,-7.489050 c -0.561266,-0.561266 -0.561266,0.561266 0.000000,1.122532 l 6.366518,6.366518 c 0.561266,0.561266 -0.600829,0.521703 -1.162094,-0.039563 l -5.134123,-5.134123 c -0.561266,-0.561266 -0.375669,0.746863 0.185597,1.308129 l 3.738908,3.738908 c 0.561266,0.561266 -1.144788,-0.022256 -1.706054,-0.583522 l -1.849183,-1.849183"
           id="path944" />
      </g>
      <g
         id="g951">
        <path
           id="path2225"
           style="font-style:normal;font-variant:normal;font-weight:normal;font-stretch:normal;font-size:31.75px;font-family:'Bauhaus 93';-inkscape-font-specification:'Bauhaus 93, ';stroke-width:0.264583"
           d="m 603.29443,330.81092 v 5.58106 h -1.75183 v 8.01501 h -6.29419 v -21.1615 h 6.29419 v 7.56543 z m 7.3639,-7.56543 v 21.1615 h -6.29419 v -21.1615 z" />
        <path
           style="stroke:#000000;fill:none;stroke-width:0.264583"
           d="M 610.025138,323.510073 l 0.184305,0.184305 c 0.245739,0.245739 0.245739,1.368271 0.000000,1.122532 l -0.885887,-0.885887 c -0.561266,-0.561266 -1.683798,-0.561266 -1.122532,0.000000 l 1.771774,1.771774 c 0.561266,0.561266 0.561266,1.683798 0.000000,1.122532 l -2.894306,-2.894306 c -0.561266,-0.561266 -1.683798,-0.561266 -1.122532,0.000000 l 4.016838,4.016838 c 0.561266,0.561266 0.561266,1.683798 0.000000,1.122532 l -4.923124,-4.923124 c -0.561266,-0.561266 -0.561266,0.561266 0.000000,1.122532 l 4.923124,4.923124 c 0.561266,0.561266 0.561266,1.683798 0.000000,1.122532 l -4.923124,-4.923124 c -0.561266,-0.561266 -0.561266,0.561266 0.000000,1.122532 l 4.923124,4.923124 c 0.561266,0.561266 0.561266,1.683798 0.000000,1.122532 l -4.923124,-4.923124 c -0.561266,-0.561266 -0.561266,0.561266 0.000000,1.122532 l 4.923124,4.923124 c 0.561266,0.561266 0.561266,1.683798 0.000000,1.122532 l -4.923124,-4.923124 c -0.561266,-0.561266 -0.561266,0.561266 0.000000,1.122532 l 4.923124,4.923124 c 0.561266,0.561266 0.561266,1.683798 0.000000,1.122532 l -4.923124,-4.923124 c -0.561266,-0.561266 -0.561266,0.561266 0.000000,1.122532 l 4.923124,4.923124 c 0.561266,0.561266 0.561266,1.683798 0.000000,1.122532 l -4.923124,-4.923124 c -0.561266,-0.561266 -0.561266,0.561266 0.000000,1.122532 l 4.923124,4.923124 c 0.561266,0.561266 0.561266,1.683798 0.000000,1.122532 l -4.923124,-4.923124 c -0.561266,-0.561266 -0.561266,0.561266 0.000000,1.122532 l 4.923124,4.923124 c 0.561266,0.561266 -0.503116,0.619416 -1.064381,0.058150 l -3.858743,-3.858743 c -0.561266,-0.561266 -0.561266,0.561266 0.000000,1.122532 l 2.736211,2.736211 c 0.561266,0.561266 -0.561266,0.561266 -1.122532,0.000000 l -1.613679,-1.613679 c -0.561266,-0.561266 -0.561266,0.561266 0.000000,1.122532 l 0.806840,0.806840 c 0.140343,0.140343 -0.982189,0.140343 -1.122532,0.000000 l -0.105257,-0.105257 M 601.278017,323.743207 l -0.116567,-0.116567 c -0.155423,-0.155423 -1.277955,-0.155423 -1.122532,0.000000 l 0.818150,0.818150 c 0.561266,0.561266 0.561266,1.683798 0.000000,1.122532 l -1.636299,-1.636299 c -0.561266,-0.561266 -1.683798,-0.561266 -1.122532,0.000000 l 2.758831,2.758831 c 0.561266,0.561266 0.561266,1.683798 0.000000,1.122532 l -3.881363,-3.881363 c -0.561266,-0.561266 -1.603028,-0.480496 -1.041762,0.080770 l 4.923124,4.923124 c 0.561266,0.561266 0.561266,1.683798 0.000000,1.122532 l -4.923124,-4.923124 c -0.561266,-0.561266 -0.561266,0.561266 0.000000,1.122532 l 6.674954,6.674954 c 0.561266,0.561266 0.561266,1.683798 0.000000,1.122532 l -6.674954,-6.674954 c -0.561266,-0.561266 -0.561266,0.561266 0.000000,1.122532 l 6.674954,6.674954 c 0.561266,0.561266 -0.031694,1.090838 -0.592960,0.529572 l -6.081995,-6.081995 c -0.561266,-0.561266 -0.561266,0.561266 0.000000,1.122532 l 5.011262,5.011262 c 0.561266,0.561266 0.473128,1.595660 -0.088138,1.034394 l -4.923124,-4.923124 c -0.561266,-0.561266 -0.561266,0.561266 0.000000,1.122532 l 4.923124,4.923124 c 0.561266,0.561266 0.561266,1.683798 0.000000,1.122532 l -4.923124,-4.923124 c -0.561266,-0.561266 -0.561266,0.561266 0.000000,1.122532 l 4.923124,4.923124 c 0.561266,0.561266 0.561266,1.683798 0.000000,1.122532 l -4.923124,-4.923124 c -0.561266,-0.561266 -0.561266,0.561266 0.000000,1.122532 l 4.923124,4.923124 c 0.561266,0.561266 0.561266,1.683798 0.000000,1.122532 l -4.923124,-4.923124 c -0.561266,-0.561266 -0.561266,0.561266 0.000000,1.122532 l 3.994218,3.994218 c 0.561266,0.561266 -0.561266,0.561266 -1.122532,0.000000 l -2.871686,-2.871686 c -0.561266,-0.561266 -0.561266,0.561266 0.000000,1.122532 l 1.749154,1.749154 c 0.561266,0.561266 -0.561266,0.561266 -1.122532,0.000000 l -0.874577,-0.874577 c -0.230660,-0.230660 -0.230660,0.891872 0.000000,1.122532 l 0.172995,0.172995 M 601.875121,331.075503 l 1.154725,1.154725"
           id="path949" />
      </g>
      <g
         id="g956">
        <path
           id="path2227"
           style="font-style:normal;font-variant:normal;font-weight:normal;font-stretch:normal;font-size:31.75px;font-family:'Bauhaus 93';-inkscape-font-specification:'Bauhaus 93, ';stroke-width:0.264583"
           d="m 624.93652,322.7184 q 4.49585,0 7.70496,3.27111 3.22461,3.27112 3.22461,7.82898 0,4.63538 -3.24011,7.87549 -3.24012,3.24011 -7.87549,3.24011 -4.60437,0 -7.85999,-3.25561 -3.25561,-3.25562 -3.25561,-7.85999 0,-4.65088 3.27112,-7.87549 3.28662,-3.2246 8.03051,-3.2246 z m -0.18603,6.23217 q -1.93787,0 -3.30213,1.42627 -1.36425,1.42627 -1.36425,3.44165 0,2.01538 1.36425,3.44165 1.37976,1.42627 3.30213,1.42627 1.95337,0 3.30212,-1.41076 1.36426,-1.42627 1.36426,-3.45716 0,-2.03088 -1.36426,-3.44165 -1.34875,-1.42627 -3.30212,-1.42627 z" />
        <path
           style="stroke:#000000;fill:none;stroke-width:0.264583"
           d="M 633.515862,327.103362 l -1.983250,-1.983250 M 629.110405,323.820437 l 5.227653,5.227653 c 0.561266,0.561266 1.087597,2.210129 0.526331,1.648863 l -7.157008,-7.157008 c -0.561266,-0.561266 -1.765089,-0.642558 -1.203823,-0.081292 l 8.654840,8.654840 c 0.561266,0.561266 0.586370,1.708902 0.025104,1.147636 l -9.856482,-9.856482 c -0.561266,-0.561266 -1.638662,-0.516130 -1.077396,0.045136 l 10.913253,10.913253 c 0.561266,0.561266 0.419449,1.541981 -0.141816,0.980715 l -11.770775,-11.770775 c -0.561266,-0.561266 -1.476788,-0.354256 -0.915522,0.207010 l 12.490104,12.490104 c 0.561266,0.561266 0.299415,1.421947 -0.261851,0.860681 l -5.031279,-5.031279 c -0.561266,-0.561266 -0.004583,1.117949 0.556683,1.679215 l 4.149510,4.149510 c 0.561266,0.561266 0.183211,1.305743 -0.378055,0.744477 l -3.784964,-3.784964 c -0.561266,-0.561266 -0.751579,0.370952 -0.190314,0.932218 l 3.549535,3.549535 c 0.561266,0.561266 0.088146,1.210678 -0.473119,0.649412 l -3.400348,-3.400348 c -0.561266,-0.561266 -0.989692,0.132840 -0.428426,0.694106 l 3.317079,3.317079 c 0.561266,0.561266 0.009720,1.132252 -0.551546,0.570986 l -3.277968,-3.277968 c -0.561266,-0.561266 -1.160066,-0.037534 -0.598800,0.523732 l 3.289594,3.289594 c 0.561266,0.561266 -0.065041,1.057491 -0.626307,0.496225 l -3.351430,-3.351430 c -0.561266,-0.561266 -1.374925,-0.252393 -0.813659,0.308873 l 3.495951,3.495951 c 0.561266,0.561266 -0.154680,0.967852 -0.715946,0.406586 l -3.737999,-3.737999 c -0.561266,-0.561266 -1.742545,-0.620013 -1.181279,-0.058747 l 4.154430,4.154430 c 0.561266,0.561266 -0.263940,0.858591 -0.825206,0.297325 l -12.885574,-12.885574 c -0.561266,-0.561266 -0.262786,-1.385318 0.298480,-0.824052 l 4.361980,4.361980 c 0.561266,0.561266 0.512530,-0.610002 -0.048736,-1.171268 l -3.953595,-3.953595 c -0.561266,-0.561266 -0.152908,-1.275440 0.408358,-0.714174 l 3.639456,3.639456 c 0.561266,0.561266 0.830392,-0.292140 0.269126,-0.853406 l -3.452579,-3.452579 c -0.561266,-0.561266 -0.062720,-1.185252 0.498546,-0.623986 l 3.337166,3.337166 c 0.561266,0.561266 1.044723,-0.077809 0.483457,-0.639075 l -3.282075,-3.282075 c -0.561266,-0.561266 0.013465,-1.109066 0.574731,-0.547800 l 3.266805,3.266805 c 0.561266,0.561266 1.213533,0.091001 0.652267,-0.470265 l -3.303414,-3.303414 c -0.561266,-0.561266 0.090922,-1.031609 0.652188,-0.470343 l 3.401617,3.401617 c 0.561266,0.561266 1.454343,0.331811 0.893077,-0.229455 l -3.592637,-3.592637 c -0.561266,-0.561266 0.177959,-0.944572 0.739225,-0.383306 l 3.972086,3.972086 c 0.561266,0.561266 2.103737,0.981206 1.542472,0.419940 l -5.127511,-5.127511 M 627.243839,344.404509 l -12.657413,-12.657413 c -0.561266,-0.561266 -0.733710,0.388821 -0.172444,0.950087 l 11.457971,11.457971 c 0.561266,0.561266 -0.476450,0.646082 -1.037716,0.084816 l -10.505253,-10.505253 c -0.561266,-0.561266 -0.555865,0.566667 0.005401,1.127933 l 9.371942,9.371942 c 0.561266,0.561266 -0.650034,0.472498 -1.211300,-0.088768 l -8.071874,-8.071874 c -0.561266,-0.561266 -0.175197,0.947335 0.386069,1.508601 l 6.177205,6.177205 c 0.561266,0.561266 -1.031472,0.091060 -1.592738,-0.470206 l -4.535210,-4.535210"
           id="path954" />
      </g>
      <g
         id="g961">
        <path
           id="path2229"
           style="font-style:normal;font-variant:normal;font-weight:normal;font-stretch:normal;font-size:31.75px;font-family:'Bauhaus 93';-inkscape-font-specification:'Bauhaus 93, ';stroke-width:0.264583"
           d="m 653.70996,323.24549 v 13.7201 q 0,3.62768 -2.17041,5.79809 -2.15491,2.17041 -5.75159,2.17041 -3.58117,0 -5.48803,-2.10839 -1.89136,-2.1084 -1.89136,-6.06165 v -13.51856 h 6.29419 v 13.50306 q 0,1.93786 1.37976,1.93786 1.33325,0 1.33325,-1.93786 v -13.50306 z" />
        <path
           style="stroke:#000000;fill:none;stroke-width:0.264583"
           d="M 653.445377,323.829737 l -0.159832,-0.159832 c -0.213109,-0.213109 -1.335641,-0.213109 -1.122532,0.000000 l 0.861415,0.861415 c 0.561266,0.561266 0.561266,1.683798 0.000000,1.122532 l -1.722829,-1.722829 c -0.561266,-0.561266 -1.683798,-0.561266 -1.122532,0.000000 l 2.845361,2.845361 c 0.561266,0.561266 0.561266,1.683798 0.000000,1.122532 l -3.967893,-3.967893 c -0.561266,-0.561266 -1.516498,-0.393966 -0.955232,0.167300 l 4.923124,4.923124 c 0.561266,0.561266 0.561266,1.683798 0.000000,1.122532 l -4.923124,-4.923124 c -0.561266,-0.561266 -0.561266,0.561266 0.000000,1.122532 l 4.923124,4.923124 c 0.561266,0.561266 0.561266,1.683798 0.000000,1.122532 l -4.923124,-4.923124 c -0.561266,-0.561266 -0.561266,0.561266 0.000000,1.122532 l 4.923124,4.923124 c 0.561266,0.561266 0.561266,1.683798 0.000000,1.122532 l -4.923124,-4.923124 c -0.561266,-0.561266 -0.561266,0.561266 0.000000,1.122532 l 4.923124,4.923124 c 0.561266,0.561266 0.559067,1.681599 -0.002199,1.120333 l -4.920925,-4.920925 c -0.561266,-0.561266 -0.561266,0.561266 0.000000,1.122532 l 4.835466,4.835466 c 0.561266,0.561266 0.402800,1.525332 -0.158466,0.964066 l -4.677000,-4.677000 c -0.561266,-0.561266 -0.561266,0.561266 0.000000,1.122532 l 4.395603,4.395603 c 0.561266,0.561266 0.213978,1.336510 -0.347288,0.775244 l -4.048316,-4.048316 c -0.561266,-0.561266 -0.578507,0.544025 -0.017241,1.105291 l 3.644112,3.644112 c 0.561266,0.561266 0.070271,1.192802 -0.490995,0.631536 l -3.351748,-3.351748 c -0.561266,-0.561266 -1.053164,0.069368 -0.491898,0.630634 l 3.288237,3.288237 c 0.561266,0.561266 -0.059569,1.062963 -0.620835,0.501697 l -3.982319,-3.982319 M 644.438177,323.802793 l -0.146360,-0.146360 c -0.195146,-0.195146 -1.317678,-0.195146 -1.122532,0.000000 l 0.847942,0.847942 c 0.561266,0.561266 0.561266,1.683798 0.000000,1.122532 l -1.695884,-1.695884 c -0.561266,-0.561266 -1.683798,-0.561266 -1.122532,0.000000 l 2.818416,2.818416 c 0.561266,0.561266 0.561266,1.683798 0.000000,1.122532 l -3.940948,-3.940948 c -0.561266,-0.561266 -1.543443,-0.420911 -0.982177,0.140355 l 4.923124,4.923124 c 0.561266,0.561266 0.561266,1.683798 0.000000,1.122532 l -4.923124,-4.923124 c -0.561266,-0.561266 -0.561266,0.561266 0.000000,1.122532 l 4.923124,4.923124 c 0.561266,0.561266 0.561266,1.683798 0.000000,1.122532 l -4.923124,-4.923124 c -0.561266,-0.561266 -0.561266,0.561266 0.000000,1.122532 l 4.923124,4.923124 c 0.561266,0.561266 0.561266,1.683798 0.000000,1.122532 l -4.923124,-4.923124 c -0.561266,-0.561266 -0.561266,0.561266 0.000000,1.122532 l 4.923124,4.923124 c 0.561266,0.561266 0.707552,1.830084 0.146286,1.268818 l -5.069411,-5.069411 c -0.561266,-0.561266 -0.561266,0.561266 0.000000,1.122532 l 10.275659,10.275659 c 0.561266,0.561266 -0.204155,0.918377 -0.765421,0.357111 l -9.510238,-9.510238 c -0.561266,-0.561266 -0.561266,0.561266 0.000000,1.122532 l 8.665465,8.665465 c 0.561266,0.561266 -0.376592,0.745940 -0.937858,0.184674 l -7.727606,-7.727606 c -0.561266,-0.561266 -0.555739,0.566793 0.005527,1.128059 l 6.693389,6.693389 c 0.561266,0.561266 -0.490309,0.632223 -1.051575,0.070957 l -5.568673,-5.568673 c -0.561266,-0.561266 -0.384715,0.737817 0.176551,1.299083 l 4.147185,4.147185 c 0.561266,0.561266 -1.189087,-0.066555 -1.750353,-0.627821 l -2.398190,-2.398190"
           id="path959" />
      </g>
      <g
         id="g966">
        <path
           id="path2231"
           style="font-style:normal;font-variant:normal;font-weight:normal;font-stretch:normal;font-size:31.75px;font-family:'Bauhaus 93';-inkscape-font-specification:'Bauhaus 93, ';stroke-width:0.264583"
           d="m 663.86438,328.93507 v 15.47192 h -6.29419 v -21.1615 h 8.07703 q 3.68969,0 5.72058,1.82935 2.26343,2.04639 2.26343,5.19348 0,3.20911 -2.80603,5.41052 l 3.62768,8.72815 h -6.60425 l -3.05407,-6.82129 v -5.44152 h 0.49609 q 1.98437,0 1.98437,-1.70533 0,-1.50378 -2.29443,-1.50378 z" />
        <path
           style="stroke:#000000;fill:none;stroke-width:0.264583"
           d="M 670.077703,324.363041 l 2.156299,2.156299 c 0.561266,0.561266 1.120609,2.243141 0.559343,1.681875 l -4.034225,-4.034225 c -0.561266,-0.561266 -1.847957,-0.725426 -1.286691,-0.164160 l 5.464567,5.464567 c 0.561266,0.561266 0.533688,1.656220 -0.027578,1.094954 l -6.670169,-6.670169 c -0.561266,-0.561266 -1.644957,-0.522425 -1.083691,0.038841 l 7.573996,7.573996 c 0.561266,0.561266 0.271344,1.393876 -0.289922,0.832610 l -8.406606,-8.406606 c -0.561266,-0.561266 -1.683798,-0.561266 -1.122532,0.000000 l 9.140801,9.140801 c 0.561266,0.561266 0.096796,1.219328 -0.464470,0.658062 l -9.798863,-9.798863 c -0.561266,-0.561266 -1.683798,-0.561266 -1.122532,0.000000 l 4.327375,4.327375 c 0.561266,0.561266 -0.570126,0.552406 -1.131392,-0.008860 l -4.318514,-4.318514 c -0.561266,-0.561266 -1.683798,-0.561266 -1.122532,0.000000 l 4.758482,4.758482 c 0.561266,0.561266 0.561266,1.683798 0.000000,1.122532 l -4.923124,-4.923124 c -0.561266,-0.561266 -0.561266,0.561266 0.000000,1.122532 l 4.923124,4.923124 c 0.561266,0.561266 0.561266,1.683798 0.000000,1.122532 l -4.923124,-4.923124 c -0.561266,-0.561266 -0.561266,0.561266 0.000000,1.122532 l 4.923124,4.923124 c 0.561266,0.561266 0.561266,1.683798 0.000000,1.122532 l -4.923124,-4.923124 c -0.561266,-0.561266 -0.561266,0.561266 0.000000,1.122532 l 4.923124,4.923124 c 0.561266,0.561266 0.561266,1.683798 0.000000,1.122532 l -4.923124,-4.923124 c -0.561266,-0.561266 -0.561266,0.561266 0.000000,1.122532 l 4.923124,4.923124 c 0.561266,0.561266 0.561266,1.683798 0.000000,1.122532 l -4.923124,-4.923124 c -0.561266,-0.561266 -0.561266,0.561266 0.000000,1.122532 l 4.923124,4.923124 c 0.561266,0.561266 0.561266,1.683798 0.000000,1.122532 l -4.923124,-4.923124 c -0.561266,-0.561266 -0.561266,0.561266 0.000000,1.122532 l 4.923124,4.923124 c 0.561266,0.561266 0.561266,1.683798 0.000000,1.122532 l -4.923124,-4.923124 c -0.561266,-0.561266 -0.561266,0.561266 0.000000,1.122532 l 4.239631,4.239631 c 0.561266,0.561266 -0.561266,0.561266 -1.122532,0.000000 l -3.117099,-3.117099 c -0.561266,-0.561266 -0.561266,0.561266 0.000000,1.122532 l 1.994567,1.994567 c 0.561266,0.561266 -0.561266,0.561266 -1.122532,0.000000 l -0.997283,-0.997283 c -0.394268,-0.394268 -0.394268,0.728264 0.000000,1.122532 l 0.295701,0.295701 M 667.526529,330.792123 l 3.530775,3.530775 c 0.561266,0.561266 -0.024195,1.098337 -0.585461,0.537071 l -2.826834,-2.826834 c -0.561266,-0.561266 -1.158573,-0.036042 -0.597308,0.525224 l 3.333532,3.333532 c 0.561266,0.561266 1.359660,2.482192 0.798394,1.920926 l -5.048223,-5.048223 c -0.561266,-0.561266 -1.212578,-0.090046 -0.651312,0.471220 l 6.497930,6.497930 c 0.561266,0.561266 1.359660,2.482192 0.798394,1.920926 l -7.296324,-7.296324 c -0.561266,-0.561266 -0.561266,0.561266 0.000000,1.122532 l 8.240579,8.240579 c 0.561266,0.561266 -0.561266,0.561266 -1.122532,0.000000 l -7.118048,-7.118048 c -0.561266,-0.561266 -0.561266,0.561266 0.000000,1.122532 l 5.995516,5.995516 c 0.561266,0.561266 -0.561266,0.561266 -1.122532,0.000000 l -4.144694,-4.144694 c -0.561266,-0.561266 0.348766,1.471298 0.910032,2.032564 l 2.112130,2.112130 c 0.561266,0.561266 -0.561266,0.561266 -1.122532,0.000000 l -0.500516,-0.500516"
           id="path964" />
      </g>
      <g
         id="g971">
        <path
           id="path2233"
           style="font-style:normal;font-variant:normal;font-weight:normal;font-stretch:normal;font-size:31.75px;font-family:'Bauhaus 93';-inkscape-font-specification:'Bauhaus 93, ';stroke-width:0.264583"
           d="m 686.48315,323.15248 v 6.03064 q -0.68212,-0.23255 -1.05419,-0.23255 -0.71314,0 -1.22474,0.5271 -0.51159,0.5271 -0.51159,1.27124 0,0.63562 0.5581,1.61231 l 0.48059,0.83716 q 1.30225,2.26342 1.30225,4.37182 0,3.08508 -2.20142,5.22449 -2.18591,2.1394 -5.34851,2.1394 -1.51928,0 -3.00757,-0.69763 v -6.12366 q 0.89917,0.57361 1.59681,0.57361 0.82165,0 1.36425,-0.46509 0.55811,-0.48059 0.55811,-1.19372 0,-0.46509 -0.88367,-2.03088 -1.41076,-2.48047 -1.41076,-4.96094 0,-2.99207 2.1239,-5.14697 2.1394,-2.17041 5.10046,-2.17041 1.30225,0 2.55798,0.43408 z" />
        <path
           style="stroke:#000000;fill:none;stroke-width:0.264583"
           d="M 685.611645,323.172048 l 0.303461,0.303461 c 0.404615,0.404615 0.404615,1.527146 0.000000,1.122532 l -1.186054,-1.186054 c -0.561266,-0.561266 -1.657714,-0.535182 -1.096448,0.026083 l 2.165014,2.165014 c 0.561266,0.561266 0.561266,1.683798 0.000000,1.122532 l -3.126292,-3.126292 c -0.561266,-0.561266 -1.408834,-0.286302 -0.847568,0.274964 l 3.973860,3.973860 c 0.561266,0.561266 -0.155944,0.966588 -0.717210,0.405322 l -4.016865,-4.016865 c -0.561266,-0.561266 -1.243273,-0.120742 -0.682007,0.440524 l 3.780328,3.780328 c 0.561266,0.561266 -0.072760,1.049772 -0.634026,0.488506 l -3.764509,-3.764509 c -0.561266,-0.561266 -1.123101,-0.000569 -0.561835,0.560697 l 3.906193,3.906193 c 0.561266,0.561266 0.662182,1.784714 0.100916,1.223448 l -4.511482,-4.511482 c -0.561266,-0.561266 -1.001660,0.120872 -0.440394,0.682138 l 6.136312,6.136312 c 0.561266,0.561266 1.153313,2.275845 0.592047,1.714579 l -7.097128,-7.097128 c -0.561266,-0.561266 -0.838677,0.283855 -0.277411,0.845121 l 7.792321,7.792321 c 0.561266,0.561266 0.499727,1.622259 -0.061539,1.060993 l -7.946920,-7.946920 c -0.561266,-0.561266 -0.604632,0.517900 -0.043366,1.079166 l 7.880597,7.880597 c 0.561266,0.561266 0.330917,1.453449 -0.230349,0.892183 l -7.544285,-7.544285 c -0.561266,-0.561266 -0.107989,1.014543 0.453277,1.575809 l 6.769836,6.769836 c 0.561266,0.561266 0.154574,1.277106 -0.406692,0.715840 l -5.414976,-5.414976 c -0.561266,-0.561266 0.140824,1.263356 0.702090,1.824622 l 4.237225,4.237225 c 0.561266,0.561266 0.024309,1.146841 -0.536957,0.585575 l -3.810435,-3.810435 c -0.561266,-0.561266 -1.092574,0.029958 -0.531308,0.591224 l 3.750625,3.750625 c 0.561266,0.561266 -0.093107,1.029425 -0.654373,0.468159 l -3.854940,-3.854940 c -0.561266,-0.561266 -1.803811,-0.681279 -1.242545,-0.120013 l 4.376109,4.376109 c 0.561266,0.561266 -0.235700,0.886832 -0.796966,0.325566 l -4.335373,-4.335373 c -0.561266,-0.561266 -0.561266,0.561266 0.000000,1.122532 l 3.442073,3.442073 c 0.561266,0.561266 -0.386762,0.735770 -0.948028,0.174504 l -2.494046,-2.494046 c -0.561266,-0.561266 -0.561266,0.561266 0.000000,1.122532 l 1.401823,1.401823 c 0.500903,0.500903 -0.946192,0.176340 -1.447095,-0.324563 l -0.375677,-0.375677"
           id="path969" />
      </g>
      <g
         id="g976">
        <path
           id="path2235"
           style="font-style:normal;font-variant:normal;font-weight:normal;font-stretch:normal;font-size:31.75px;font-family:'Bauhaus 93';-inkscape-font-specification:'Bauhaus 93, ';stroke-width:0.264583"
           d="m 697.39722,323.24549 -0.10852,13.13099 h -5.50354 l -0.32557,-13.13099 z m -2.99207,14.21619 q 1.51929,0 2.60449,1.10071 1.10071,1.10071 1.10071,2.61999 0,1.51929 -1.0852,2.58899 -1.08521,1.0542 -2.62,1.0542 -1.5968,0 -2.6355,-1.02319 -1.02319,-1.0387 -1.02319,-2.6355 0,-1.55029 1.0697,-2.61999 1.0697,-1.08521 2.58899,-1.08521 z" />
        <path
           style="stroke:#000000;fill:none;stroke-width:0.264583"
           d="M 696.658732,323.510073 l 0.233921,0.233921 c 0.311895,0.311895 0.302694,1.425226 -0.009201,1.113331 l -0.926303,-0.926303 c -0.561266,-0.561266 -1.683798,-0.561266 -1.122532,0.000000 l 1.852605,1.852605 c 0.561266,0.561266 0.552065,1.674597 -0.009201,1.113331 l -2.965936,-2.965936 c -0.561266,-0.561266 -1.683798,-0.561266 -1.122532,0.000000 l 4.079267,4.079267 c 0.561266,0.561266 0.552065,1.674597 -0.009201,1.113331 l -4.490447,-4.490447 c -0.561266,-0.561266 -0.532726,0.589806 0.028540,1.151072 l 4.452706,4.452706 c 0.561266,0.561266 0.552065,1.674597 -0.009201,1.113331 l -4.414965,-4.414965 c -0.561266,-0.561266 -0.532726,0.589806 0.028540,1.151072 l 4.377225,4.377225 c 0.561266,0.561266 0.552065,1.674597 -0.009201,1.113331 l -4.339484,-4.339484 c -0.561266,-0.561266 -0.532726,0.589806 0.028540,1.151072 l 4.301743,4.301743 c 0.561266,0.561266 0.439406,1.561938 -0.121860,1.000672 l -4.151344,-4.151344 c -0.561266,-0.561266 -0.532726,0.589806 0.028540,1.151072 l 3.000272,3.000272 c 0.561266,0.561266 -0.561266,0.561266 -1.122532,0.000000 l -1.849201,-1.849201 c -0.561266,-0.561266 -0.532726,0.589806 0.028540,1.151072 l 0.924600,0.924600 c 0.259304,0.259304 -0.863228,0.259304 -1.122532,0.000000 l -0.194478,-0.194478 M 697.756242,340.323029 l -2.088672,-2.088672 c -0.561266,-0.561266 -1.754344,-0.631812 -1.193078,-0.070546 l 2.935652,2.935652 c 0.561266,0.561266 0.350991,1.473523 -0.210274,0.912257 l -3.634517,-3.634517 c -0.561266,-0.561266 -1.274637,-0.152105 -0.713371,0.409161 l 3.940402,3.940402 c 0.561266,0.561266 0.021077,1.143609 -0.540189,0.582343 l -3.983374,-3.983374 c -0.561266,-0.561266 -1.024627,0.097905 -0.463361,0.659171 l 3.782687,3.782687 c 0.561266,0.561266 -0.269905,0.852627 -0.831171,0.291361 l -3.244049,-3.244049 c -0.561266,-0.561266 -0.630499,0.492033 -0.069233,1.053299 l 2.260132,2.260132 c 0.561266,0.561266 -0.774173,0.348359 -1.335439,-0.212907 l -1.132735,-1.132735"
           id="path974" />
      </g>
    </g>
  </g>
</svg>
