<?xml version="1.0" encoding="UTF-8" standalone="no"?>
<svg
   xmlns:dc="http://purl.org/dc/elements/1.1/"
   xmlns:cc="http://creativecommons.org/ns#"
   xmlns:rdf="http://www.w3.org/1999/02/22-rdf-syntax-ns#"
   xmlns:svg="http://www.w3.org/2000/svg"
   xmlns="http://www.w3.org/2000/svg"
   xmlns:sodipodi="http://sodipodi.sourceforge.net/DTD/sodipodi-0.dtd"
   xmlns:inkscape="http://www.inkscape.org/namespaces/inkscape"
   width="89.999992mm"
   height="90mm"
   viewBox="0 0 89.999992 90"
   version="1.1"
   id="svg1027"
   inkscape:version="1.0.1 (3bc2e813f5, 2020-09-07)"
   sodipodi:docname="drawing-1.svg">
  <defs
     id="defs1021" />
  <sodipodi:namedview
     id="base"
     pagecolor="#ffffff"
     bordercolor="#666666"
     borderopacity="1.0"
     inkscape:pageopacity="0.0"
     inkscape:pageshadow="2"
     inkscape:zoom="1.4"
     inkscape:cx="314.0093"
     inkscape:cy="298.13585"
     inkscape:document-units="mm"
     inkscape:current-layer="layer1"
     inkscape:document-rotation="0"
     showgrid="false"
     inkscape:window-width="1920"
     inkscape:window-height="1186"
     inkscape:window-x="-11"
     inkscape:window-y="-11"
     inkscape:window-maximized="1"
     fit-margin-top="0"
     fit-margin-left="0"
     fit-margin-right="0"
     fit-margin-bottom="0" />
  <metadata
     id="metadata1024">
    <rdf:RDF>
      <cc:Work
         rdf:about="">
        <dc:format>image/svg+xml</dc:format>
        <dc:type
           rdf:resource="http://purl.org/dc/dcmitype/StillImage" />
        <dc:title></dc:title>
      </cc:Work>
    </rdf:RDF>
  </metadata>
  <g
     inkscape:label="Layer 1"
     inkscape:groupmode="layer"
     id="layer1"
     transform="translate(-12.392192,-99.405837)">
    <path
       style="fill:#000000;stroke-width:0.1086"
       d="m 55.773739,186.88512 c -9.255302,-0.38949 -17.787431,-3.59544 -25.140905,-9.4467 -1.512836,-1.20378 -4.934676,-4.61206 -6.199979,-6.17542 -4.578427,-5.65685 -7.592625,-12.16033 -8.883399,-19.16695 -0.525741,-2.85388 -0.656845,-4.3919 -0.657265,-7.71061 -4.2e-4,-3.25829 0.09352,-4.48163 0.550081,-7.16367 2.651937,-15.57875 13.80717,-28.46168 28.863159,-33.3334 4.50417,-1.45743 8.125295,-2.01412 13.097315,-2.01348 3.318706,4.2e-4 4.856722,0.13152 7.710605,0.65726 7.006622,1.29078 13.510097,4.30498 19.166965,8.8834 1.563347,1.26531 4.971622,4.68715 6.175402,6.19998 5.371517,6.75056 8.467896,14.37065 9.311226,22.9146 0.18962,1.92105 0.15927,6.0766 -0.0595,8.14502 -0.74484,7.04315 -3.084317,13.51112 -7.011621,19.3851 -5.572224,8.33428 -14.12588,14.54014 -23.781498,17.25402 -1.866121,0.5245 -4.308688,1.02053 -6.190206,1.25707 -1.438675,0.18087 -4.791256,0.39393 -5.701507,0.36233 -0.298647,-0.0108 -0.860656,-0.0322 -1.248904,-0.0486 z m 6.08161,-1.93851 c 4.638581,-0.51867 8.979776,-1.76688 13.19491,-3.79386 9.379672,-4.51054 16.801284,-12.59154 20.501957,-22.3235 2.815568,-7.40437 3.404328,-15.44538 1.701628,-23.24042 -1.155318,-5.28908 -3.555477,-10.63452 -6.7858,-15.11284 -1.966604,-2.72637 -4.863381,-5.78184 -7.435684,-7.84303 -6.591685,-5.28189 -14.112908,-8.27896 -22.528876,-8.97732 -2.166159,-0.17975 -6.202586,-0.0767 -8.36784,0.21359 -13.272087,1.77943 -24.809794,9.85002 -30.950922,21.65007 -2.952567,5.67328 -4.418491,11.36409 -4.581541,17.78577 -0.219908,8.66126 2.036929,16.4639 6.861812,23.72348 3.924308,5.90456 9.36656,10.68808 15.801541,13.88892 4.819367,2.39722 9.851207,3.77844 15.258312,4.18839 1.706572,0.12938 5.482935,0.0473 7.330503,-0.15925 z m -5.415121,-2.15026 c -0.200869,-0.0763 -0.560985,-0.3031 -0.800254,-0.50398 -1.33579,-1.12146 -1.07133,-3.2104 0.513868,-4.05893 0.624047,-0.33404 1.987334,-0.3305 2.62305,0.006 1.784677,0.94693 1.781014,3.47968 -0.0065,4.39599 -0.542604,0.27817 -1.793318,0.36412 -2.330297,0.16012 z m 1.575339,-1.12144 c 0.464693,-0.22051 0.690375,-0.6405 0.690375,-1.28475 0,-0.41077 -0.06228,-0.56363 -0.363456,-0.8923 -0.313538,-0.34212 -0.4296,-0.3966 -0.845,-0.3966 -0.581737,0 -0.999669,0.25066 -1.191972,0.7149 -0.312288,0.75395 -0.04019,1.6033 0.603361,1.88363 0.440698,0.19197 0.660132,0.18704 1.106692,-0.0249 z m -5.49982,0.92002 c -0.564454,-0.10204 -0.559724,-0.0965 -1.426759,-1.63842 -0.361074,-0.64209 -0.691614,-1.16744 -0.734551,-1.16744 -0.04288,0 -0.166175,0.52828 -0.273887,1.17396 l -0.195827,1.17398 -0.639294,-0.1029 c -0.351604,-0.0567 -0.639121,-0.1573 -0.638906,-0.22373 6.47e-4,-0.20679 0.758309,-4.55375 0.801159,-4.59661 0.0223,-0.0223 0.27308,-0.001 0.557257,0.0461 l 0.516691,0.0866 0.736135,1.28793 c 0.404884,0.70837 0.783521,1.33532 0.841445,1.39324 0.101604,0.1016 0.236285,-0.47842 0.416639,-1.79514 l 0.07187,-0.52493 0.391243,0.0671 c 0.215178,0.0368 0.518286,0.0921 0.673557,0.12272 l 0.282314,0.0556 -0.40315,2.33304 c -0.221728,1.28318 -0.42208,2.3475 -0.445213,2.36514 -0.02316,0.0177 -0.261981,-0.008 -0.530762,-0.0562 z m 8.721372,-2.29008 c -0.190698,-1.26922 -0.31287,-2.34041 -0.271496,-2.38042 0.04137,-0.04 0.343049,-0.0889 0.670389,-0.10859 l 0.595173,-0.0359 0.278833,1.7919 c 0.153353,0.98555 0.325357,1.78624 0.382225,1.77932 0.05689,-0.006 0.556373,-0.0752 1.11001,-0.15179 0.553637,-0.0766 1.025172,-0.11978 1.047841,-0.096 0.02273,0.0238 0.0584,0.26273 0.07941,0.53104 l 0.03814,0.48785 -1.5204,0.23646 c -0.836219,0.13004 -1.642572,0.24036 -1.791895,0.24514 -0.270914,0.009 -0.27225,0.003 -0.61823,-2.29901 z m -15.148251,0.91475 c -0.27949,-0.0999 -0.5356,-0.20968 -0.569119,-0.24396 -0.03351,-0.0343 0.06616,-0.44025 0.221416,-0.90215 0.155303,-0.4619 0.264794,-0.8535 0.24332,-0.87021 -0.04816,-0.0375 -1.611013,-0.60882 -1.665338,-0.60882 -0.02155,0 -0.169375,0.39096 -0.328514,0.86881 -0.159129,0.47783 -0.301051,0.86879 -0.31537,0.86879 -0.09805,0 -1.112876,-0.36935 -1.180335,-0.42957 -0.07251,-0.0647 1.357813,-4.30143 1.500208,-4.44382 0.07844,-0.0784 1.244401,0.30897 1.244401,0.41341 0,0.0496 -0.124543,0.421 -0.276765,0.82541 -0.152211,0.40441 -0.237739,0.7716 -0.190051,0.81598 0.04773,0.0444 0.436604,0.20537 0.864244,0.35777 l 0.777541,0.27706 0.301632,-0.84893 0.301643,-0.84894 0.638173,0.21551 c 0.359437,0.12138 0.619728,0.26944 0.595927,0.33897 -0.77808,2.27302 -1.553542,4.41119 -1.597492,4.40474 -0.03157,-0.004 -0.28603,-0.0902 -0.565521,-0.19005 z m 21.305078,0.10009 c -1.201604,-0.25277 -1.954795,-1.19892 -1.954795,-2.45559 0,-2.59148 3.823124,-3.52307 5.007575,-1.22019 0.28476,0.55364 0.362153,1.23531 0.206688,1.82052 -0.313958,1.18178 -1.972735,2.12595 -3.259468,1.85526 z m 1.230199,-1.24427 c 0.194922,-0.0815 0.437703,-0.2752 0.539511,-0.43058 0.226459,-0.34562 0.23997,-1.06361 0.0278,-1.47401 -0.593901,-1.14847 -2.449054,-0.7001 -2.449054,0.59192 0,0.69349 0.671036,1.45935 1.279547,1.46034 0.136308,2.3e-4 0.407319,-0.0663 0.602251,-0.14767 z m 4.295931,-1.18972 c -0.637139,-0.23843 -1.010723,-0.56504 -1.34151,-1.1728 -0.954222,-1.75322 0.434503,-3.80992 2.572507,-3.80992 0.838902,0 0.92943,0.0948 0.68973,0.72244 -0.18627,0.48773 -0.193392,0.49282 -0.600129,0.42777 -0.832998,-0.1332 -1.634243,0.50568 -1.63351,1.30251 0.0011,1.24105 1.33371,1.89357 2.252612,1.10303 l 0.299079,-0.25731 -0.296988,-0.60567 -0.296989,-0.60567 0.539641,-0.27346 0.539641,-0.27346 0.441054,0.87722 c 0.264847,0.52676 0.415723,0.95701 0.377656,1.07695 -0.09094,0.28639 -0.931002,1.03237 -1.475405,1.31011 -0.574852,0.29326 -1.538113,0.37632 -2.067389,0.17826 z m -32.947641,-0.17042 c -0.594127,-0.15527 -1.220739,-0.54204 -1.604494,-0.99038 -1.526057,-1.78285 0.06551,-4.49471 2.358504,-4.01868 1.038942,0.21568 2.059718,1.08911 2.147508,1.83753 0.02683,0.22871 -0.03405,0.27841 -0.48538,0.39604 l -0.516077,0.13452 -0.181141,-0.38173 c -0.236004,-0.49734 -0.726448,-0.78956 -1.325995,-0.79007 -0.404184,-3.2e-4 -0.530332,0.0573 -0.837319,0.38283 -0.934299,0.99064 -0.281807,2.41546 1.053681,2.30091 l 0.50068,-0.043 0.168018,0.5254 c 0.09244,0.28897 0.127721,0.55031 0.07844,0.58074 -0.174654,0.10795 -1.03545,0.14973 -1.356455,0.0658 z m 36.75579,-3.8755 c -0.732429,-1.1019 -1.31187,-2.01943 -1.287628,-2.03897 0.250486,-0.20189 1.098492,-0.73456 1.12336,-0.70563 0.151726,0.1765 2.558339,3.92346 2.556852,3.98087 -0.0011,0.0413 -0.240217,0.23071 -0.53142,0.42107 l -0.529469,0.34612 z m -42.480376,0.3105 -1.489197,-1.14159 1.416653,-1.86105 c 0.779157,-1.02357 1.45335,-1.87461 1.498225,-1.8912 0.102681,-0.038 2.862191,2.05383 2.908909,2.2051 0.01896,0.0613 -0.100418,0.26843 -0.265181,0.46022 l -0.299628,0.34869 -0.95044,-0.71636 -0.950451,-0.71638 -0.213389,0.25615 c -0.117366,0.14087 -0.215015,0.29163 -0.217009,0.33501 -0.0022,0.0434 0.361883,0.35395 0.808594,0.69018 0.866442,0.65213 0.863382,0.64296 0.406392,1.22057 l -0.199393,0.25201 -0.773177,-0.60496 c -0.425237,-0.33273 -0.822277,-0.60497 -0.882302,-0.60497 -0.06001,0 -0.207011,0.13746 -0.326651,0.30547 l -0.217515,0.30548 0.970319,0.73999 c 0.533682,0.40699 0.970329,0.76584 0.970329,0.79743 0,0.10559 -0.553001,0.78398 -0.629985,0.77282 -0.0417,-0.006 -0.746058,-0.52473 -1.565103,-1.15261 z m 19.495329,0.23934 c -7.3509,-0.93061 -13.90328,-4.20731 -18.932038,-9.46748 -9.149982,-9.57105 -11.266944,-23.88143 -5.277035,-35.67206 1.566827,-3.08418 3.182785,-5.28392 5.816051,-7.91718 2.633265,-2.63327 4.833007,-4.24923 7.917185,-5.81605 11.790627,-5.98991 26.101009,-3.87295 35.672058,5.27703 5.342953,5.1079 8.614381,11.72781 9.481577,19.18652 0.219089,1.88435 0.155088,6.10916 -0.119037,7.85769 -1.070273,6.82688 -4.087832,12.81879 -8.857809,17.58877 -4.769944,4.76994 -10.742344,7.77811 -17.588781,8.85909 -1.594151,0.2517 -6.45249,0.31379 -8.112171,0.10365 z m 0.827427,-1.82132 c -0.09428,-0.0727 -4.162716,-3.646 -9.040954,-7.94053 l -8.869522,-7.80822 -0.0043,-17.22409 -0.0043,-17.22409 -0.759106,0.80124 c -4.236984,4.47215 -6.940758,10.21764 -7.825484,16.62907 -0.215059,1.5585 -0.185688,5.8202 0.05129,7.4391 0.67806,4.63256 2.159575,8.57717 4.618767,12.29769 4.570121,6.91415 11.607471,11.50655 19.833572,12.9429 1.438923,0.25125 2.259724,0.28692 2.000565,0.087 z m 8.148007,-4.50769 c 2.870089,-2.52593 5.218336,-4.62792 5.218336,-4.67107 0,-0.0808 -29.281792,-25.89408 -29.447018,-25.95896 -0.05075,-0.0199 -0.09223,4.16184 -0.09223,9.29277 v 9.32898 l 9.465609,8.33084 c 5.206085,4.58196 9.50415,8.31715 9.551267,8.30043 0.04708,-0.0167 2.433915,-2.09706 5.304004,-4.62299 z m -0.966138,4.48313 c 4.227104,-0.6349 8.305358,-2.20244 11.800324,-4.53563 3.521083,-2.35063 6.054921,-4.87587 8.398859,-8.37033 3.542115,-5.28078 5.276033,-11.66707 4.876892,-17.96231 -0.449577,-7.09072 -3.107203,-13.24844 -8.026827,-18.59819 l -0.649141,-0.70591 -0.0065,17.21311 -0.0065,17.21311 -9.010753,7.9216 c -4.955901,4.35688 -9.010743,7.93661 -9.010743,7.95496 0,0.073 0.597478,0.0254 1.634728,-0.13041 z m 11.177159,-13.46604 3.469345,-3.04031 0.0043,-4.51672 0.0043,-4.51672 -14.826341,-13.04934 -14.82633,-13.04934 h -4.178653 -4.178683 v 7.0556 7.05559 l 15.433408,13.58341 c 8.488373,7.47086 15.477444,13.56872 15.531284,13.55077 0.05387,-0.0179 1.659078,-1.40076 3.567209,-3.07294 z m -5.861487,-3.53277 c -2.704635,-0.48041 -4.676669,-3.03668 -4.407447,-5.7132 0.423287,-4.20806 5.203219,-6.2998 8.563752,-3.74758 2.168302,1.64677 2.692482,4.80761 1.184246,7.14114 -1.12559,1.74151 -3.293698,2.68322 -5.340551,2.31964 z m 2.432795,-1.99535 c 0.781496,-0.38234 1.615948,-1.29588 1.867942,-2.04498 0.289812,-0.8615 0.248341,-1.86131 -0.109695,-2.64481 -1.310782,-2.86841 -5.230759,-2.90446 -6.564167,-0.0603 -0.242469,0.51717 -0.286753,0.75815 -0.282367,1.53647 0.0043,0.77995 0.04978,1.00912 0.292635,1.47777 0.534512,1.03148 1.199093,1.60001 2.285324,1.95504 0.695817,0.22741 1.79348,0.13161 2.510328,-0.21911 z m -13.401392,-7.40473 c -0.987752,-0.26218 -1.755187,-0.69873 -2.456617,-1.39745 -1.050492,-1.04642 -1.563671,-2.27876 -1.55893,-3.74368 0.0054,-1.61316 0.425614,-2.62498 1.563401,-3.76278 1.137797,-1.13778 2.14962,-1.55819 3.762777,-1.56341 1.464922,-0.004 2.697266,0.50844 3.743684,1.55894 0.71269,0.71546 1.140061,1.47841 1.404079,2.50658 0.968918,3.77331 -2.691501,7.40165 -6.458394,6.4018 z m 2.734071,-1.86327 c 1.624137,-0.7201 2.540723,-2.7133 1.998475,-4.34585 -0.533197,-1.6053 -1.824855,-2.54512 -3.500881,-2.54726 -3.149762,-0.004 -4.741586,3.87335 -2.507398,6.10753 0.781895,0.78189 1.614925,1.09989 2.741829,1.04663 0.463228,-0.0219 0.958564,-0.12387 1.267975,-0.26105 z m -13.322577,-7.45627 c -2.620411,-0.64812 -4.401101,-3.29497 -3.992532,-5.93457 0.487287,-3.14813 3.545154,-5.18341 6.594411,-4.38918 1.542854,0.40187 2.795604,1.45516 3.5099,2.95108 0.40025,0.83823 0.404216,0.85995 0.404216,2.21222 v 1.36569 L 51.566482,134.96 c -0.940129,1.89726 -2.756709,3.03545 -4.802214,3.00884 -0.39063,-0.005 -0.954577,-0.0697 -1.253225,-0.14353 z m 2.825256,-1.91143 c 1.457455,-0.70555 2.283385,-2.31204 1.993874,-3.87821 -0.14872,-0.80447 -0.43529,-1.35396 -1.001295,-1.91998 -0.759182,-0.75917 -1.35666,-0.98875 -2.568942,-0.98713 -0.867109,0.001 -1.107047,0.0414 -1.504044,0.25207 -0.717657,0.38086 -1.390351,1.05968 -1.724587,1.74028 -0.257112,0.52356 -0.300867,0.74693 -0.300867,1.53576 0,0.79122 0.04342,1.0116 0.304121,1.54241 0.371601,0.75674 1.186681,1.51535 1.954978,1.81954 0.783888,0.31036 2.088421,0.26237 2.846762,-0.10473 z M 76.37161,121.94152 c -0.02036,-0.0204 -6.09191,-0.0247 -13.492232,-0.01 l -13.455114,0.0276 13.464596,11.85037 13.464595,11.85037 0.02758,-11.84083 c 0.01519,-6.51246 0.01088,-11.85754 -0.0097,-11.87796 z m -2.244456,-1.81699 c 0,-0.0237 -0.452044,-0.33445 -1.004549,-0.69051 -3.48111,-2.24342 -7.424188,-3.68365 -11.864562,-4.33358 -1.6189,-0.23696 -5.880601,-0.26633 -7.439099,-0.0513 -4.545501,0.62724 -8.710932,2.13182 -12.234375,4.41914 l -1.069131,0.69405 16.805852,0.002 c 9.243224,10e-4 16.805864,-0.0168 16.805864,-0.0405 z m 5.715288,54.53396 c -0.149227,-0.49318 -0.480144,-1.61641 -0.735381,-2.49608 l -0.464058,-1.59938 0.29979,-0.31293 c 0.637376,-0.66526 0.550835,-0.68036 3.058998,0.53374 1.253709,0.60686 2.297822,1.11999 2.320255,1.14026 0.02241,0.0203 -0.120082,0.17328 -0.316695,0.33998 -0.714306,0.60567 -0.707604,0.60362 -1.183568,0.3608 l -0.434298,-0.22157 -0.763567,0.65718 c -0.419957,0.36145 -0.763556,0.67318 -0.763556,0.69275 0,0.0195 0.0695,0.23269 0.15456,0.47363 l 0.15456,0.43809 -0.527864,0.44511 -0.527864,0.4451 z m 1.165628,-2.40405 0.419214,-0.3589 -0.607617,-0.34292 c -0.334193,-0.18861 -0.652805,-0.34292 -0.708025,-0.34292 -0.05527,0 0.0032,0.31766 0.1291,0.7059 0.126224,0.38824 0.256186,0.70406 0.288811,0.70182 0.03265,-0.002 0.247953,-0.16558 0.478517,-0.36298 z m -50.729803,-0.5273 -0.459964,-0.45998 1.327494,-1.33069 1.327504,-1.33069 -0.537184,-0.54539 -0.537174,-0.54538 0.378745,-0.37876 0.378756,-0.37874 1.54822,1.55098 1.548219,1.55098 -0.383281,0.3715 -0.383281,0.37148 -0.529825,-0.52185 -0.529825,-0.52186 -1.276153,1.31418 c -0.701893,0.7228 -1.306784,1.31418 -1.344226,1.31418 -0.03739,0 -0.27504,-0.20699 -0.528025,-0.45996 z m 54.600292,-3.63091 c -0.642149,-0.25063 -0.859115,-1.04602 -0.43307,-1.58765 0.594203,-0.75541 1.736278,-0.26982 1.736278,0.73823 0,0.53628 -0.788596,1.05028 -1.303208,0.84942 z m -57.385478,-2.10767 c -0.380824,-0.45258 -0.368401,-0.89852 0.03631,-1.30321 0.65036,-0.65036 1.626119,-0.23708 1.633909,0.69203 0.0075,0.90702 -1.084884,1.30679 -1.670197,0.61118 z m 61.820368,-1.42319 -0.28922,-0.45255 0.264234,-0.20785 c 0.31301,-0.24622 0.585702,-0.73855 0.585702,-1.05747 0,-0.26959 -0.291731,-0.8688 -0.422986,-0.8688 -0.05032,0 -0.120092,0.17559 -0.154915,0.39019 -0.127883,0.78804 -0.884112,1.456 -1.648401,1.456 -1.317915,0 -1.897313,-1.412 -1.113156,-2.71279 0.793488,-1.31624 2.278418,-1.42399 3.655517,-0.26523 0.803421,0.67603 1.042906,1.90661 0.55842,2.86943 -0.223226,0.44362 -0.941292,1.30433 -1.086575,1.30242 -0.03265,-4.4e-4 -0.189556,-0.20444 -0.34862,-0.45335 z m -1.049684,-2.22341 c 0.396674,-0.35898 0.10892,-1.12347 -0.422866,-1.12347 -0.426681,0 -0.752556,0.86315 -0.442821,1.17288 0.186345,0.18634 0.633379,0.16083 0.865687,-0.0495 z m -64.59591,0.0799 c -0.187207,-0.11415 -0.466697,-0.37317 -0.621095,-0.57559 -1.304684,-1.71054 -0.47494,-3.7565 1.246716,-3.07411 0.128206,0.0508 0.196021,-0.008 0.247264,-0.21134 0.08415,-0.33518 0.649627,-0.70803 1.074724,-0.70859 0.931153,-0.001 1.806236,1.14499 1.811279,2.3725 0.0022,0.52155 -0.03685,0.62021 -0.380652,0.96405 -0.349536,0.34953 -0.425162,0.37828 -0.864923,0.32872 -0.470037,-0.053 -0.484939,-0.0452 -0.605559,0.32041 -0.23636,0.71615 -1.204804,1.01259 -1.907754,0.58395 z m 0.847673,-1.27457 c 0.261475,-0.23663 0.251509,-0.59251 -0.02651,-0.94592 -0.289705,-0.3683 -0.689514,-0.37435 -0.925626,-0.014 -0.1508,0.23015 -0.157362,0.32271 -0.04256,0.59987 0.220306,0.53189 0.637807,0.68301 0.994669,0.36006 z m 1.604764,-0.90325 c 0.275773,-0.14759 0.346562,-0.39399 0.203444,-0.70812 -0.148343,-0.32558 -0.438942,-0.43385 -0.736706,-0.27449 -0.285104,0.15257 -0.287151,0.58795 -0.0043,0.87099 0.249537,0.24954 0.271237,0.25405 0.537367,0.11162 z m 63.849248,-0.6828 c -0.934881,-0.48395 -1.318604,-1.03349 -1.378499,-1.97416 -0.03696,-0.58062 0.0032,-0.7982 0.244419,-1.32517 0.310974,-0.67925 0.567514,-1.02114 0.756887,-1.00865 0.0654,0.004 0.256713,0.17375 0.425129,0.37651 l 0.306222,0.36869 -0.222192,0.23849 c -0.474034,0.50882 -0.541924,1.31322 -0.14775,1.75062 0.26001,0.28852 0.354632,0.23087 0.356592,-0.21719 0.0043,-0.88448 0.785256,-1.68739 1.630753,-1.67572 1.211667,0.0167 1.855163,1.27194 1.290536,2.51736 -0.431551,0.95191 -0.952023,1.3032 -1.930789,1.3032 -0.518652,0 -0.783586,-0.0705 -1.331308,-0.35398 z m 2.18523,-1.05782 c 0.241273,-0.24128 0.287937,-0.75462 0.08684,-0.95568 -0.186345,-0.18634 -0.633368,-0.16083 -0.865677,0.0495 -0.2774,0.25104 -0.255237,0.74568 0.04278,0.9544 0.31899,0.22343 0.474638,0.21325 0.736038,-0.0482 z m -70.9915,-1.06687 -0.229658,-0.63828 1.772684,-0.6253 1.772685,-0.6253 -0.146889,-0.41634 -0.146888,-0.41632 0.484076,-0.18488 c 0.266249,-0.10171 0.499312,-0.16559 0.517919,-0.14204 0.06885,0.0872 0.732504,2.07682 0.700461,2.09998 -0.01832,0.0132 -0.9862,0.35766 -2.150934,0.76544 -1.164734,0.40778 -2.168572,0.7594 -2.230752,0.78138 -0.06217,0.022 -0.216394,-0.24729 -0.342704,-0.59834 z m 72.294696,-20.62294 -1.574703,-0.49119 -0.887269,0.21376 -0.887269,0.21378 -0.122193,-0.49913 c -0.06723,-0.27451 -0.146253,-0.58004 -0.175657,-0.67895 -0.04353,-0.14634 0.104082,-0.21588 0.79227,-0.3734 l 0.845723,-0.19358 1.308508,-1.28275 c 0.719694,-0.70551 1.336102,-1.28274 1.369816,-1.28274 0.03372,0 0.124284,0.29679 0.201267,0.65955 l 0.139961,0.65956 -0.798002,0.80337 c -0.438899,0.44185 -0.776216,0.82103 -0.749582,0.84263 0.02661,0.0215 0.520624,0.17646 1.097738,0.34414 l 1.049307,0.30489 0.160313,0.63643 c 0.146803,0.58276 0.145316,0.63552 -0.01756,0.62562 -0.09783,-0.006 -0.886536,-0.23184 -1.752623,-0.50199 z m -71.990467,0.01 c -1.041937,-0.51922 -1.550019,-1.62174 -1.315997,-2.85571 0.175743,-0.9267 0.611323,-1.55786 1.382206,-2.00283 0.08566,-0.0495 0.22829,0.11413 0.407168,0.46712 0.267725,0.52835 0.269535,0.54632 0.06573,0.6554 -0.383691,0.20534 -0.695268,0.76591 -0.695268,1.25087 0,0.8075 0.601605,1.35761 1.486008,1.35881 0.452238,6.6e-4 0.577717,-0.0503 0.887387,-0.35996 0.449437,-0.44943 0.565553,-0.97729 0.335895,-1.52694 l -0.168104,-0.40233 0.509031,-0.32281 0.509041,-0.32283 0.206848,0.4032 c 0.255194,0.49742 0.269492,1.52239 0.03038,2.18116 -0.556277,1.53293 -2.194302,2.19745 -3.640358,1.47685 z m 2.220192,-5.59078 c -1.191702,-0.53482 -2.182018,-0.9877 -2.200712,-1.00639 -0.03749,-0.0375 0.507651,-1.26166 0.561771,-1.26166 0.01853,0 0.805383,0.34335 1.748561,0.763 0.943178,0.41964 1.746944,0.72509 1.786163,0.67875 0.03922,-0.0463 0.25834,-0.51186 0.486954,-1.03449 0.228613,-0.52264 0.455804,-0.95026 0.504882,-0.95026 0.09331,0 0.962421,0.33414 0.962421,0.37004 0,0.13208 -1.518482,3.37369 -1.588225,3.39051 -0.05226,0.0126 -1.070113,-0.41467 -2.261815,-0.9495 z m 64.770813,0.38365 c -0.117335,-0.27373 -0.213346,-0.56089 -0.213346,-0.63812 0,-0.0791 0.723593,-0.43636 1.656158,-0.81779 0.910876,-0.37256 1.691316,-0.69825 1.734295,-0.72376 0.06648,-0.0394 -0.0086,-0.27036 -0.426885,-1.31327 -0.05915,-0.1475 0.842178,-0.59388 0.962324,-0.47658 0.03879,0.0379 0.423125,0.92414 0.854008,1.96942 0.430894,1.04528 0.803465,1.93436 0.827944,1.97574 0.04148,0.0701 -0.940613,0.55865 -0.997588,0.49623 -0.01433,-0.0156 -0.14982,-0.32168 -0.30118,-0.68006 -0.160712,-0.38053 -0.334925,-0.64058 -0.418783,-0.6251 -0.07898,0.0146 -0.844419,0.32002 -1.701002,0.67875 -0.856572,0.35873 -1.603579,0.65225 -1.660005,0.65225 -0.05646,0 -0.198606,-0.22397 -0.31594,-0.49771 z m -1.656073,-3.44945 c -0.162177,-0.30976 -0.294865,-0.59515 -0.294865,-0.63422 0,-0.0391 0.818571,-0.52049 1.819047,-1.06982 1.000477,-0.54934 1.965871,-1.08739 2.145321,-1.19567 l 0.326273,-0.19688 0.34724,0.62683 0.34723,0.62681 -1.97671,1.09061 c -1.08719,0.59982 -2.076149,1.14121 -2.197685,1.20306 -0.196538,0.1 -0.253621,0.0501 -0.515851,-0.45072 z m -60.732219,-1.84338 -1.490597,-2.24687 0.365912,-0.60469 c 0.316016,-0.52223 0.402913,-0.59752 0.637398,-0.55218 0.149324,0.0289 1.27334,0.2059 2.497797,0.3934 1.224468,0.18751 2.308964,0.37513 2.409985,0.41694 0.162814,0.0675 0.144314,0.14078 -0.162899,0.64618 l -0.346583,0.57015 -0.548282,-0.0641 -0.548271,-0.0641 -0.383367,0.57992 c -0.828117,1.25276 -0.777509,1.081 -0.457324,1.55221 0.277239,0.40799 0.280019,0.42845 0.102358,0.75524 -0.100418,0.18474 -0.273241,0.45488 -0.384068,0.60031 l -0.201494,0.26443 z M 27.469,125.05751 c 0.157254,-0.23764 0.285923,-0.45202 0.285923,-0.47641 0,-0.0725 -1.416577,-0.31753 -1.478444,-0.25568 -0.06928,0.0693 0.704415,1.16416 0.822601,1.16416 0.04622,0 0.212656,-0.19443 0.36992,-0.43207 z m 58.158936,0.75886 c -0.215005,-0.11364 -0.551115,-0.38908 -0.74692,-0.61208 -0.433447,-0.49368 -0.97965,-1.61708 -0.979768,-2.01514 -8.6e-5,-0.29826 0.05323,-0.33282 0.719801,-0.4665 0.323719,-0.065 0.343404,-0.0488 0.416315,0.33979 0.153375,0.81757 0.730576,1.66694 1.132777,1.66694 0.343987,0 0.346034,-0.28763 0.0086,-1.20291 -0.458294,-1.24295 -0.419926,-1.81088 0.154764,-2.29136 0.646793,-0.54076 1.549437,-0.34324 2.328918,0.50964 0.525839,0.57536 1.063518,1.67094 0.956689,1.94936 -0.02629,0.0685 -0.269028,0.17526 -0.53936,0.23712 l -0.491533,0.11248 -0.11325,-0.44973 c -0.122668,-0.48716 -0.504581,-1.11371 -0.785149,-1.28804 -0.09643,-0.0599 -0.260527,-0.0762 -0.364705,-0.0362 -0.24248,0.0931 -0.186453,0.48973 0.222773,1.57706 0.284134,0.75495 0.292495,0.82607 0.146382,1.24536 -0.294887,0.84622 -1.221203,1.17091 -2.066289,0.72425 z m -56.189703,-3.97449 c -0.895953,-0.81073 -1.716754,-1.55921 -1.824003,-1.66329 -0.186787,-0.18127 -0.155185,-0.23346 0.75012,-1.23871 1.013578,-1.12546 1.564187,-1.48671 2.26607,-1.48671 0.958413,0 1.910157,1.03173 1.748194,1.89508 l -0.06896,0.36754 0.736286,0.0779 c 1.160693,0.12281 1.167341,0.13087 0.612691,0.7422 l -0.481415,0.53062 -0.783489,-0.11107 c -0.75164,-0.10656 -0.794403,-0.10052 -1.051494,0.1471 l -0.267983,0.25815 0.476276,0.48529 0.476265,0.48528 -0.425485,0.48293 c -0.234011,0.26561 -0.449911,0.48716 -0.479777,0.49233 -0.02985,0.005 -0.787357,-0.65391 -1.6833,-1.46464 z m 1.161006,-1.53795 c 0.301276,-0.32302 0.522294,-0.70123 0.522294,-0.89374 0,-0.20355 -0.519935,-0.65381 -0.754959,-0.65381 -0.239818,0 -1.090174,0.70692 -1.092932,0.90858 -0.0011,0.11605 0.854536,0.92741 0.98592,0.93437 0.03362,0.002 0.186474,-0.13114 0.339677,-0.2954 z m 52.007949,1.85806 c -0.49943,-0.56738 -0.48704,-0.50708 -0.291472,-1.41841 0.138743,-0.64653 0.135048,-0.6824 -0.09223,-0.89595 -0.31649,-0.29732 -0.364706,-0.28702 -0.842954,0.17998 l -0.412124,0.40241 -0.489108,-0.48001 -0.489109,-0.48003 0.625147,-0.63678 c 0.343836,-0.35022 1.153388,-1.12979 1.799018,-1.73237 l 1.173859,-1.09558 0.813755,0.80542 c 1.411179,1.39673 1.749034,2.12703 1.39422,3.0138 -0.307968,0.76967 -1.168031,1.28731 -1.896753,1.14156 -0.34097,-0.0682 -0.342974,-0.0644 -0.549187,1.0212 -0.0709,0.37331 -0.167274,0.67875 -0.214154,0.67875 -0.04687,0 -0.284878,-0.22679 -0.528877,-0.50399 z m 1.830996,-2.82537 c 0.283165,-0.36 0.217774,-0.61084 -0.300048,-1.15108 l -0.391007,-0.40795 -0.525526,0.51654 -0.525526,0.51655 0.435441,0.40725 c 0.539824,0.50488 0.971999,0.54414 1.306666,0.11869 z m -51.140516,-1.8316 c -0.838493,-1.05394 -1.524537,-1.95184 -1.524537,-1.99533 0,-0.0692 0.224012,-0.25829 0.873413,-0.73711 0.147718,-0.10891 0.262962,-0.0148 0.756553,0.61843 0.32025,0.4108 0.615751,0.72622 0.656662,0.70093 0.04094,-0.0253 0.10948,-0.6339 0.152373,-1.3525 l 0.07801,-1.30652 0.614868,-0.47318 0.614858,-0.47316 -0.07197,0.93574 c -0.03954,0.51467 -0.07628,1.18654 -0.08145,1.49304 l -0.0097,0.55729 1.680896,0.42012 1.680908,0.4201 -0.634144,0.50683 -0.634144,0.50682 -1.110613,-0.26247 c -0.610838,-0.14436 -1.130751,-0.26248 -1.15536,-0.26248 -0.02457,0 -0.04471,0.17505 -0.04471,0.38898 0,0.28433 0.103004,0.51469 0.382947,0.85631 l 0.382947,0.46733 -0.541709,0.45354 -0.541709,0.45354 z m 44.358984,0.099 c -0.836219,-0.63078 -1.507265,-1.19427 -1.491222,-1.25222 0.02974,-0.1072 2.547823,-3.50099 2.797403,-3.77012 0.113219,-0.12211 0.39968,0.0508 1.6687,1.00744 0.84262,0.63516 1.530711,1.19019 1.529106,1.23339 -0.0011,0.0432 -0.142331,0.24669 -0.312719,0.45218 l -0.309788,0.37361 -0.975825,-0.72656 c -0.536699,-0.39961 -0.997664,-0.72656 -1.024363,-0.72656 -0.02672,0 -0.151921,0.13982 -0.278262,0.31072 l -0.229734,0.31072 0.860903,0.63326 c 0.473496,0.34831 0.860904,0.6575 0.860904,0.68711 0,0.12016 -0.495702,0.77176 -0.58763,0.77245 -0.05441,4.3e-4 -0.465932,-0.27548 -0.914485,-0.61309 l -0.815554,-0.61384 -0.252964,0.29409 c -0.139131,0.16175 -0.252963,0.33018 -0.252963,0.37429 0,0.0441 0.415066,0.38762 0.922383,0.76335 0.507306,0.37574 0.951334,0.72999 0.986706,0.78724 0.06616,0.10699 -0.448176,0.85708 -0.584268,0.85214 -0.0417,-0.001 -0.760098,-0.51883 -1.596328,-1.1496 z m -39.08044,-2.00062 c -0.147277,-0.73636 -0.103435,-0.86523 0.294014,-0.86523 0.752437,0 1.808111,-0.5696 1.808111,-0.97561 0,-0.31567 -0.316156,-0.34607 -1.142269,-0.10982 -0.909356,0.26005 -1.654348,0.27775 -1.983595,0.0472 -0.534124,-0.37412 -0.726761,-1.26906 -0.406489,-1.8884 0.351076,-0.67891 1.4457,-1.3564 2.521727,-1.56077 0.381159,-0.0724 0.426886,-0.009 0.488397,0.6833 0.03254,0.36544 0.01961,0.37934 -0.422974,0.45503 -0.695214,0.11891 -1.443998,0.59144 -1.443998,0.91126 0,0.3421 0.281247,0.36222 1.317214,0.0943 0.918709,-0.23764 1.085876,-0.25253 1.458113,-0.12985 0.822805,0.27118 1.136558,1.1831 0.70087,2.03711 -0.360838,0.7073 -1.550989,1.42477 -2.618978,1.5788 -0.49636,0.0715 -0.50082,0.0694 -0.570143,-0.27722 z m 34.591301,-0.882 c -0.539986,-0.31474 -0.575552,-0.3609 -0.521217,-0.67636 0.03211,-0.18621 0.143463,-1.37706 0.247523,-2.64631 0.104082,-1.26927 0.22941,-2.30776 0.278521,-2.30776 0.04913,0 0.358338,0.15183 0.687165,0.33741 l 0.597855,0.33741 -0.05721,0.50424 c -0.119284,1.05205 -0.273025,2.62018 -0.273025,2.78489 0,0.10709 0.508437,-0.23849 1.353255,-0.91973 l 1.353255,-1.09122 0.602843,0.29566 c 0.331564,0.16262 0.590044,0.32984 0.574399,0.3716 -0.03836,0.10246 -4.109758,3.35339 -4.195868,3.35035 -0.03739,-0.001 -0.328773,-0.1544 -0.647526,-0.34018 z m -29.480161,-1.67236 c -0.980145,-0.31324 -1.707423,-1.37304 -1.704751,-2.48416 0.0032,-1.40074 1.355991,-2.60031 2.931136,-2.59944 1.060836,5.8e-4 1.839056,0.48203 2.345996,1.45134 0.285815,0.5465 0.269696,1.65684 -0.03232,2.22629 -0.637494,1.202 -2.216313,1.82905 -3.540068,1.40597 z m 1.607598,-1.18223 c 0.71993,-0.30081 1.001177,-1.158 0.623164,-1.89931 -0.263016,-0.51582 -0.68487,-0.79754 -1.194234,-0.79754 -1.305578,0 -1.790236,1.56357 -0.77071,2.48644 0.440202,0.39847 0.76848,0.44995 1.34178,0.21041 z m 24.057228,1.12178 c -0.266895,-0.11905 -0.501973,-0.23316 -0.52238,-0.25357 -0.03674,-0.0367 1.653131,-4.48862 1.734888,-4.57039 0.05937,-0.0594 1.282175,0.39909 1.280494,0.48013 -0.0054,0.27412 -1.749788,4.52316 -1.863308,4.53949 -0.07941,0.0114 -0.362788,-0.0766 -0.629694,-0.19566 z m -2.501224,-0.87628 c -0.355925,-0.0989 -0.427758,-0.20354 -1.129232,-1.64492 l -0.749118,-1.53932 -0.294575,1.2247 c -0.162016,0.67358 -0.314238,1.24436 -0.338254,1.26839 -0.06389,0.0638 -1.1107,-0.1659 -1.219501,-0.26763 -0.05096,-0.0476 0.162879,-1.14204 0.475102,-2.43206 0.615159,-2.54166 0.558851,-2.44481 1.30143,-2.2385 0.355235,0.0987 0.432315,0.2092 1.149983,1.6487 l 0.769223,1.54292 0.304628,-1.24206 c 0.167543,-0.68314 0.315531,-1.25593 0.328859,-1.2729 0.02403,-0.0306 0.971741,0.15977 1.20795,0.24266 0.10656,0.0374 -0.387763,2.35453 -0.945311,4.43083 -0.117711,0.43837 -0.196451,0.4639 -0.861184,0.27919 z m -17.855849,-0.53854 c -0.06292,-0.19426 -0.823721,-4.45592 -0.823516,-4.61325 8.6e-5,-0.0667 0.242814,-0.16935 0.539404,-0.22799 l 0.539252,-0.10667 1.279795,1.06454 c 0.703887,0.5855 1.29225,1.02947 1.307474,0.98661 0.01519,-0.0429 -0.06669,-0.59035 -0.18196,-1.21665 -0.115297,-0.6263 -0.176615,-1.17121 -0.136275,-1.21092 0.0403,-0.0396 0.345322,-0.10526 0.677715,-0.14575 l 0.604353,-0.0736 0.413923,2.31774 c 0.227655,1.27477 0.419958,2.36328 0.427349,2.41891 0.0075,0.0556 -0.234808,0.15847 -0.538197,0.22855 l -0.551621,0.1274 -1.277015,-1.07872 c -0.702357,-0.59329 -1.292832,-1.06266 -1.312172,-1.04305 -0.01929,0.0196 0.05613,0.52437 0.167651,1.12166 0.111548,0.59731 0.204985,1.14186 0.207646,1.21014 0.0065,0.15409 -0.155487,0.21784 -0.794533,0.31368 -0.378077,0.0567 -0.513124,0.0388 -0.549273,-0.0727 z m 9.765141,-0.79973 c -0.238925,-0.0845 -0.590292,-0.32276 -0.780817,-0.52951 -0.534157,-0.57964 -0.615741,-1.0599 -0.487524,-2.87023 0.06077,-0.85798 0.135866,-1.58536 0.166896,-1.61639 0.03103,-0.031 0.354869,-0.0218 0.719651,0.0206 l 0.663234,0.0769 -0.06238,0.45031 c -0.03437,0.24767 -0.07316,1.01874 -0.08641,1.7135 -0.02877,1.51101 0.07639,1.72332 0.853738,1.72332 0.814972,0 0.935463,-0.29961 1.085994,-2.70046 l 0.07057,-1.12575 0.665465,0.0753 c 0.36601,0.0414 0.677339,0.0872 0.69183,0.10161 0.06842,0.0684 -0.21007,3.09761 -0.315477,3.43207 -0.299509,0.95026 -0.984519,1.40872 -2.098753,1.40465 -0.358381,-10e-4 -0.84708,-0.0715 -1.086004,-0.15598 z"
       id="path1043"
       sodipodi:nodetypes="cscssssscscscsssccccssssssccssssccsscsccsscscssscssscccsccsscccccssccscccscccccccsssscsssscssscccccsccsssssscscssccssssscscccccscssccssscsccccccccscssscsccsccccccsccscssccsscccssscssssscccscccsscsscccssscsscccssssccccsccccccccccccccccssssscssscssccsscccscscscscccsssscsccsccccsscssscccccccccsscsccccsscssssscssccccsscssccscccccccccccccccscsssscccccccsssssssssccssccsccccccccsccsscccsscccsscsscssccssssccsssscccccccssssccccccscssscscscscsccscccsccscccscccscsscsssssssssscsscscssssssscccscscccscccccccccccccscscscsccsccssscsscsssscscsccsscccccccccsssccscscsccccscsssssccsscccsscsscccccccccccccssscccccscsscscsssccscscsscccscssscscccsccsccccccssccssccccccccsscccccsscssscsssccsccssscssssscsccscccccccscsccccccccssccccscccccccc" />
    <ellipse
       style="fill:none;stroke:#000000;stroke-width:0.0253928"
       id="path1045"
       cx="57.392189"
       cy="144.40584"
       rx="44.987301"
       ry="44.987305" />
  </g>
</svg>
