<?xml version="1.0" encoding="UTF-8" standalone="no"?>
<svg
   xmlns:dc="http://purl.org/dc/elements/1.1/"
   xmlns:cc="http://creativecommons.org/ns#"
   xmlns:rdf="http://www.w3.org/1999/02/22-rdf-syntax-ns#"
   xmlns:svg="http://www.w3.org/2000/svg"
   xmlns="http://www.w3.org/2000/svg"
   xmlns:sodipodi="http://sodipodi.sourceforge.net/DTD/sodipodi-0.dtd"
   xmlns:inkscape="http://www.inkscape.org/namespaces/inkscape"
   sodipodi:docname="clarkson-logo-athletic-2-outline.svg"
   inkscape:version="1.0 (4035a4fb49, 2020-05-01)"
   id="svg8"
   version="1.1"
   viewBox="0 0 75.275795 90.000259"
   height="90.000259mm"
   width="75.275795mm">
  <defs
     id="defs2" />
  <sodipodi:namedview
     inkscape:window-maximized="1"
     inkscape:window-y="-8"
     inkscape:window-x="-8"
     inkscape:window-height="1017"
     inkscape:window-width="1920"
     showgrid="false"
     inkscape:document-rotation="0"
     inkscape:current-layer="layer1"
     inkscape:document-units="mm"
     inkscape:cy="164.66339"
     inkscape:cx="138.37348"
     inkscape:zoom="1.979899"
     inkscape:pageshadow="2"
     inkscape:pageopacity="0.0"
     borderopacity="1.0"
     bordercolor="#666666"
     pagecolor="#ffffff"
     id="base" />
  <metadata
     id="metadata5">
    <rdf:RDF>
      <cc:Work
         rdf:about="">
        <dc:format>image/svg+xml</dc:format>
        <dc:type
           rdf:resource="http://purl.org/dc/dcmitype/StillImage" />
        <dc:title></dc:title>
      </cc:Work>
    </rdf:RDF>
  </metadata>
  <g
     transform="translate(-68.195485,-103.1664)"
     id="layer1"
     inkscape:groupmode="layer"
     inkscape:label="Layer 1">
    <path
       transform="matrix(0.26458333,0,0,0.26458333,68.195485,103.1664)"
       d="M 135.55859 -0.01171875 C 76.942241 1.3311474 7.5453862 54.664876 0.53515625 98.169922 C -5.4373704 135.23503 29.28375 147.00445 36.578125 151.29883 L 36.578125 248.2168 L 141.08008 340.1582 L 245.5957 248.24219 L 245.60156 212.18945 C 251.28692 204.94259 268.1733 195.64196 284.50781 188.96289 L 245.66797 169.77148 L 245.41211 61.681641 L 185.08008 61.550781 C 176.0975 55.734958 172.47739 54.241484 164.7207 52.585938 C 163.34061 49.415178 162.2235 48.153892 159.54102 45.810547 C 176.97201 25.677911 168.84478 -0.77427623 135.55859 -0.01171875 z M 99.21875 35.363281 C 110.14394 35.642021 118.73537 40.209452 122.19141 46.244141 C 120.53733 47.894849 118.41913 50.077567 117.58789 52.527344 C 112.29236 53.191407 100.90303 58.527827 96.861328 61.552734 L 51.466797 61.552734 C 67.267858 41.736371 85.172079 35.004901 99.21875 35.363281 z "
       style="fill:#000000;stroke:none;stroke-width:0.377953;stroke-linecap:butt;stroke-linejoin:miter;stroke-miterlimit:4;stroke-dasharray:none;stroke-opacity:1;fill-opacity:1"
       id="path839" />
  </g>
</svg>
