<?xml version="1.0" encoding="UTF-8" standalone="no"?>
<svg
   xmlns:dc="http://purl.org/dc/elements/1.1/"
   xmlns:cc="http://creativecommons.org/ns#"
   xmlns:rdf="http://www.w3.org/1999/02/22-rdf-syntax-ns#"
   xmlns:svg="http://www.w3.org/2000/svg"
   xmlns="http://www.w3.org/2000/svg"
   xmlns:sodipodi="http://sodipodi.sourceforge.net/DTD/sodipodi-0.dtd"
   xmlns:inkscape="http://www.inkscape.org/namespaces/inkscape"
   width="430mm"
   height="297mm"
   viewBox="0 0 430 297"
   version="1.1"
   id="svg8"
   sodipodi:docname="s2021-makerspace-title-split.svg"
   inkscape:version="1.0.1 (3bc2e813f5, 2020-09-07)">
  <defs
     id="defs2" />
  <sodipodi:namedview
     id="base"
     pagecolor="#ffffff"
     bordercolor="#666666"
     borderopacity="1.0"
     inkscape:pageopacity="0.0"
     inkscape:pageshadow="2"
     inkscape:zoom="0.35"
     inkscape:cx="734.54575"
     inkscape:cy="332.20449"
     inkscape:document-units="mm"
     inkscape:current-layer="layer1"
     inkscape:document-rotation="0"
     showgrid="false"
     inkscape:window-width="1366"
     inkscape:window-height="705"
     inkscape:window-x="-8"
     inkscape:window-y="-8"
     inkscape:window-maximized="1" />
  <metadata
     id="metadata5">
    <rdf:RDF>
      <cc:Work
         rdf:about="">
        <dc:format>image/svg+xml</dc:format>
        <dc:type
           rdf:resource="http://purl.org/dc/dcmitype/StillImage" />
        <dc:title />
      </cc:Work>
    </rdf:RDF>
  </metadata>
  <g
     inkscape:groupmode="layer"
     id="layer3"
     inkscape:label="2l"
     style="display:inline">
    <g
       id="g111"
       transform="translate(-303.67978,10.583333)">
      <g
         id="g1214"
         style="font-style:normal;font-variant:normal;font-weight:normal;font-stretch:normal;font-size:38.4443px;line-height:1.25;font-family:'Harlow Solid Italic';-inkscape-font-specification:'Harlow Solid Italic, ';display:inline;stroke-width:0.320369"
         transform="matrix(2.8106463,0,0,2.8106463,-43.436897,-60.319105)">
        <path
           id="path7793"
           style="font-style:normal;font-variant:normal;font-weight:normal;font-stretch:normal;font-size:38.4443px;font-family:'Harlow Solid Italic';-inkscape-font-specification:'Harlow Solid Italic, ';stroke-width:0.320369"
           d="m 141.45711,45.939904 -4.8994,12.051387 q -1.01366,2.496627 -2.96591,2.496627 -0.75087,0 -1.27648,-0.506834 -0.54437,-0.488062 -0.54437,-1.182613 0,-0.58192 0.46929,-1.764533 l 9.04792,-22.300698 q 0.69456,-1.689447 2.40277,-1.689447 1.18262,0 1.87717,1.126298 1.31401,-1.389101 3.20995,-1.389101 1.97102,0 3.1724,1.50173 1.22016,1.482959 1.22016,3.923271 0,4.617822 -2.87206,7.527425 -0.93858,0.957353 -1.93348,1.314014 -0.9949,0.356661 -2.7782,0.356661 -1.91471,0 -2.6468,-0.262803 -0.71332,-0.262803 -1.48296,-1.201384 z m 1.53927,-3.829413 q 0.46929,0.825952 0.88227,1.069983 0.43175,0.244031 1.35156,0.244031 1.33278,0 2.08365,-0.994897 1.5205,-2.008564 1.5205,-4.129758 0,-1.820849 -1.72699,-1.820849 -1.89593,0 -2.72189,2.196281 -0.0939,0.244031 -0.15017,0.412976 z" />
        <path
           style="fill:none;stroke:#000000;stroke-width:0.320369"
           d="m 141.46023,34.472199 1.04624,-1.046247 c 0.1997,-0.199693 0.68626,-0.286875 0.48657,-0.08718 l -1.59609,1.59609 c -0.19969,0.199693 -0.47236,0.871747 -0.27267,0.672054 l 2.316,-2.315992 c 0.19969,-0.199693 0.58421,-0.184833 0.38452,0.01486 l -2.97319,2.973186 c -0.19969,0.199693 -0.47236,0.871747 -0.27266,0.672054 l 3.57342,-3.573427 c 0.1997,-0.199693 0.48485,-0.08546 0.28516,0.114232 l -4.13125,4.131249 c -0.19969,0.199693 -0.47236,0.871747 -0.27267,0.672054 l 4.65156,-4.65156 c 0.19969,-0.199693 0.41779,-0.0184 0.2181,0.181288 l -5.14233,5.142325 c -0.19969,0.199693 -0.47236,0.871747 -0.27267,0.672054 l 5.60778,-5.607774 c 0.19969,-0.199693 0.37065,0.02873 0.17096,0.228423 l -6.0514,6.051405 c -0.1997,0.199693 -0.47236,0.871747 -0.27267,0.672054 l 7.45535,-7.455351 m -7.87779,8.277174 8.51218,-8.512182 c 0.1997,-0.199693 0.74721,-0.347817 0.54751,-0.148124 l -9.18259,9.18259 c -0.19969,0.199693 -0.47236,0.871747 -0.27267,0.672054 l 9.97458,-9.97458 c 0.1997,-0.199693 0.59603,-0.196636 0.39633,0.0031 L 137.85227,43.67156 c -0.1997,0.199693 -0.47236,0.871747 -0.27267,0.672054 l 11.31117,-11.311175 c 0.1997,-0.199693 0.5639,-0.164511 0.36421,0.03518 l -11.94805,11.948047 c -0.19969,0.199693 -0.47236,0.871747 -0.27267,0.672054 l 7.33099,-7.330985 c 0.19969,-0.199693 -0.12711,0.526495 -0.3268,0.726188 l -7.27686,7.276851 c -0.19969,0.199693 -0.47236,0.871747 -0.27266,0.672054 l 7.2872,-7.287201 c 0.19969,-0.199693 -0.0778,0.477162 -0.27747,0.676854 l -7.2824,7.2824 c -0.19969,0.199693 -0.47236,0.871747 -0.27267,0.672054 l 7.2776,-7.2776 c 0.19969,-0.199693 -0.0778,0.477162 -0.27747,0.676854 l -7.2728,7.272799 c -0.19969,0.199693 -0.47236,0.871747 -0.27267,0.672054 l 7.38386,-7.383853 c 0.19969,-0.199693 0.35033,0.04906 0.15063,0.248748 l -7.80715,7.807159 c -0.1997,0.199693 -0.47237,0.871747 -0.27267,0.672054 l 8.24069,-8.240694 c 0.19969,-0.199693 0.37574,0.02364 0.17605,0.223337 l -8.68941,8.68941 c -0.19969,0.199693 -0.47236,0.871747 -0.27267,0.672054 l 9.15815,-9.158146 c 0.19969,-0.199693 0.43011,-0.03073 0.23042,0.168965 l -9.66124,9.661235 c -0.19969,0.199693 -0.47236,0.871747 -0.27267,0.672054 l 7.29331,-7.293306 c 0.19969,-0.199693 -0.0739,0.473288 -0.27359,0.672981 l -7.29238,7.292379 c -0.1997,0.199693 -0.47236,0.871747 -0.27267,0.672054 l 7.29145,-7.291452 c 0.19969,-0.199693 -0.0739,0.473288 -0.27359,0.672981 l -7.29053,7.290525 c -0.19969,0.199693 -0.47236,0.871747 -0.27267,0.672054 l 7.2896,-7.289597 c 0.19969,-0.199693 -0.0739,0.473288 -0.2736,0.672981 l -7.30357,7.30357 c -0.19969,0.199693 -0.3907,0.790086 -0.191,0.590393 l 7.22098,-7.220982 c 0.19969,-0.199693 -0.0739,0.473288 -0.2736,0.672981 l -7.09688,7.096884 c -0.19969,0.199693 -0.22891,0.628298 -0.0292,0.428605 l 6.85251,-6.852508 c 0.19969,-0.199693 -0.0739,0.473288 -0.2736,0.672981 l -6.52696,6.526964 c -0.19969,0.199693 -0.0855,0.484929 0.11415,0.285236 l 6.13922,-6.139219 c 0.19969,-0.199693 -0.0739,0.473288 -0.2736,0.672981 l -5.70481,5.704815 c -0.1997,0.199693 -0.003,0.402715 0.19636,0.203023 l 5.23486,-5.234857 c 0.19969,-0.199693 -0.0739,0.473288 -0.2736,0.672981 l -4.7415,4.741501 c -0.19969,0.199693 0.0547,0.344686 0.25439,0.144993 l 4.21352,-4.213513 c 0.19969,-0.199693 -0.0739,0.473288 -0.2736,0.672981 l -3.64169,3.641693 c -0.19969,0.199693 0.15456,0.244824 0.35425,0.04513 l 3.01385,-3.013842 c 0.19969,-0.199693 -0.0739,0.473288 -0.2736,0.672981 l -2.35784,2.357846 c -0.1997,0.199693 0.3466,0.05278 0.5463,-0.146915 l 1.75752,-1.757521 m 9.81917,-21.800743 3.4242,-3.424202 c 0.19969,-0.199693 0.51422,-0.114836 0.31453,0.08486 l -3.05628,3.056272 c -0.19969,0.199693 0.23448,0.164908 0.43417,-0.03478 l 2.91538,-2.915373 c 0.19969,-0.199693 0.47209,-0.07271 0.2724,0.126982 l -2.81636,2.816363 c -0.19969,0.199693 0.12838,0.271009 0.32807,0.07132 L 150.73,33.589521 c 0.1997,-0.199693 0.43605,-0.03666 0.23636,0.163033 l -2.69956,2.699559 c -0.19969,0.199693 0.0394,0.359944 0.23913,0.160251 l 2.68203,-2.682032 c 0.1997,-0.199693 0.40735,-0.008 0.20766,0.191734 l -2.69316,2.693155 c -0.19969,0.199693 -0.0437,0.443106 0.15597,0.243413 l 2.73092,-2.730912 c 0.19969,-0.199693 0.38049,0.01889 0.18079,0.218587 l -2.79877,2.798778 c -0.1997,0.199693 -0.12462,0.524004 0.0751,0.324311 l 2.89462,-2.894617 c 0.19969,-0.199693 0.3584,0.04099 0.15871,0.240679 l -3.02482,3.024816 c -0.19969,0.199693 -0.20408,0.603464 -0.004,0.403771 l 3.17548,-3.175476 c 0.19969,-0.199693 0.33162,0.06776 0.13193,0.267456 l -3.35307,3.353074 c -0.1997,0.199693 -0.31415,0.713526 -0.11445,0.513833 l 3.58606,-3.586058 c 0.19969,-0.199693 0.30498,0.0944 0.10529,0.294091 l -3.82054,3.820538 c -0.19969,0.199693 -0.37941,0.778801 -0.17972,0.579108 l 4.09207,-4.092067 c 0.19969,-0.199693 0.27562,0.123761 0.0759,0.323454 l -4.86766,4.867656 m -3.77343,1.776504 -2.40061,2.40061 c -0.19969,0.199693 -0.0135,0.412928 0.18615,0.213235 l 2.38853,-2.388528 c 0.19969,-0.199693 0.55678,-0.157394 0.35709,0.0423 l -2.54995,2.549947 c -0.19969,0.199693 0.007,0.391977 0.2071,0.192284 l 2.7267,-2.726695 c 0.19969,-0.199693 0.65394,-0.254555 0.45424,-0.05486 l -2.95994,2.959943 c -0.19969,0.199693 0.0384,0.360957 0.23812,0.161265 l 3.33827,-3.338264 m 6.86663,-6.467253 -9.94056,9.940559 c -0.19969,0.199693 0.10108,0.298312 0.30077,0.09862 l 9.53711,-9.53711 c 0.19969,-0.199693 0.23211,0.167273 0.0324,0.366966 l -9.23571,9.235708 c -0.19969,0.199693 0.15158,0.247811 0.35127,0.04812 l 8.89791,-8.897913 c 0.1997,-0.199693 0.20017,0.199217 4.8e-4,0.398909 l -8.53273,8.532726 c -0.19969,0.199693 0.17728,0.222105 0.37698,0.02241 l 8.15472,-8.154725 c 0.1997,-0.199693 0.16226,0.237126 -0.0374,0.436819 l -7.73127,7.731266 c -0.19969,0.199693 0.19369,0.205695 0.39339,0.006 l 7.3352,-7.3352 c 0.19969,-0.199693 0.10108,0.298306 -0.0986,0.497999 l -6.83615,6.836155 c -0.19969,0.199693 0.21032,0.189069 0.41001,-0.01062 l 6.34179,-6.341791 c 0.19969,-0.199693 0.0868,0.312593 -0.1129,0.512285 l -5.80561,5.805614 c -0.1997,0.199693 0.24131,0.15807 0.441,-0.04162 l 5.21448,-5.214478 c 0.1997,-0.199693 -0.009,0.408079 -0.20838,0.607772 l -4.54064,4.540639 c -0.1997,0.199693 0.31891,0.08047 0.5186,-0.11922 l 3.97677,-3.976768 m -16.3416,16.341602 -0.66758,0.667575 m 13.48112,-13.081728 3.05737,-3.057371 m -0.6572,1.056586 -1.42641,1.426411"
           id="path1212" />
      </g>
      <g
         id="g1219"
         style="font-style:normal;font-variant:normal;font-weight:normal;font-stretch:normal;font-size:38.4443px;line-height:1.25;font-family:'Harlow Solid Italic';-inkscape-font-specification:'Harlow Solid Italic, ';display:inline;stroke-width:0.320369"
         transform="matrix(2.8106463,0,0,2.8106463,-43.436897,-60.319105)">
        <path
           id="path7795"
           style="font-style:normal;font-variant:normal;font-weight:normal;font-stretch:normal;font-size:38.4443px;font-family:'Harlow Solid Italic';-inkscape-font-specification:'Harlow Solid Italic, ';stroke-width:0.320369"
           d="m 167.02406,43.311875 h 2.06488 q 2.36523,0 2.36523,1.651904 0,1.145069 -0.84472,1.802076 -0.84473,0.638236 -2.32769,0.638236 h -2.40277 q -1.61436,0 -2.19628,-1.257699 -1.40787,1.257699 -2.72188,1.257699 h -2.13997 q -2.06488,0 -3.34135,-1.464187 -1.2577,-1.482959 -1.2577,-3.866957 0,-3.604153 2.47786,-6.438669 2.49662,-2.853288 5.63149,-2.853288 2.40276,0 3.51029,1.670675 0.93858,-1.407872 2.45908,-1.407872 0.82596,0 1.37033,0.525605 0.56315,0.525606 0.56315,1.295243 0,0.525606 -0.30034,1.257699 l -0.20649,0.506834 z m -6.8141,0.09386 h 0.46929 q 1.53928,0 2.04611,-1.257699 l 1.31401,-3.247492 q 0.26281,-0.638236 0.26281,-1.069983 0,-0.506834 -0.50684,-0.882267 -0.48806,-0.375433 -1.18261,-0.375433 -1.37033,0 -2.66557,1.595589 -1.29524,1.595589 -1.29524,3.303807 0,1.933478 1.55804,1.933478 z" />
        <path
           style="fill:none;stroke:#000000;stroke-width:0.320369"
           d="m 158.44279,34.098067 -2.38158,2.381578 m -0.56369,0.963074 3.67976,-3.67976 c 0.1997,-0.199693 0.92356,-0.524173 0.72387,-0.32448 l -4.63601,4.636008 c -0.19969,0.199693 -0.4545,0.853883 -0.2548,0.654191 l 5.48085,-5.480852 c 0.19969,-0.199693 0.71732,-0.317931 0.51762,-0.118239 l -6.18864,6.188644 c -0.19969,0.199693 -0.37691,0.776296 -0.17722,0.576603 l 6.83169,-6.831691 c 0.1997,-0.199693 0.64978,-0.250395 0.45009,-0.0507 l -7.3341,7.334098 c -0.19969,0.199693 -0.26301,0.662394 -0.0633,0.462701 l 7.7815,-7.781505 c 0.1997,-0.199693 0.59059,-0.191199 0.39089,0.0085 l -8.21174,8.211743 c -0.19969,0.199693 -0.21918,0.618567 -0.0195,0.418874 l 8.57986,-8.579852 c 0.19969,-0.199693 0.53534,-0.135963 0.33565,0.06373 l -8.91587,8.915871 c -0.19969,0.199693 -0.18666,0.586041 0.013,0.386348 l 9.21886,-9.218859 c 0.19969,-0.199693 0.49682,-0.09744 0.29713,0.102257 l -9.48231,9.482303 c -0.19969,0.199693 -0.15064,0.550029 0.049,0.350336 l 9.70838,-9.708377 c 0.19969,-0.199693 0.4569,-0.05752 0.25721,0.142176 l -3.38655,3.386544 m -1.43317,1.433176 -5.08186,5.081854 c -0.19969,0.199693 -0.12061,0.519999 0.0791,0.320306 l 4.2304,-4.230394 c 0.19969,-0.199693 -0.14693,0.546318 -0.34663,0.746011 l -3.78854,3.788544 c -0.19969,0.199693 -0.0908,0.49017 0.10891,0.290477 l 3.58754,-3.587538 c 0.19969,-0.199693 0.12095,0.27843 -0.0787,0.478123 l -3.38655,3.386552 c -0.19969,0.199693 -0.0639,0.463266 0.13581,0.263573 l 3.24132,-3.241316 c 0.19969,-0.199693 0.22287,0.176513 0.0232,0.376206 l -3.11466,3.114653 c -0.19969,0.199693 -0.0376,0.436996 0.16209,0.237303 l 3.014,-3.014007 c 0.1997,-0.199693 0.29516,0.104226 0.0955,0.303919 l -2.93545,2.93545 c -0.19969,0.199693 -0.0119,0.411271 0.18781,0.211578 l 2.88223,-2.882231 c 0.19969,-0.199693 0.37624,0.02314 0.17655,0.222836 l -2.85726,2.857257 c -0.19969,0.199693 0.0156,0.383785 0.21529,0.184092 l 2.86062,-2.860619 c 0.19969,-0.199693 0.46759,-0.0682 0.2679,0.131491 l -2.89971,2.899709 c -0.1997,0.199693 0.0433,0.356076 0.243,0.156383 l 2.97148,-2.971481 c 0.19969,-0.199693 0.57067,-0.171284 0.37098,0.02841 l -3.0821,3.082095 c -0.19969,0.199693 0.0774,0.321956 0.27713,0.122263 l 3.2053,-3.205308 c 0.1997,-0.199693 0.61572,-0.216331 0.41603,-0.01664 l -3.32724,3.327239 c -0.19969,0.199693 0.11674,0.282646 0.31643,0.08295 l 3.7442,-3.7442 m 0.3471,-6.737274 2.79837,-2.798368 c 0.1997,-0.199693 0.42265,-0.02326 0.22296,0.176431 l -2.39519,2.395187 c -0.19969,0.199693 0.19388,0.205507 0.39357,0.0058 l 2.20539,-2.205385 c 0.19969,-0.199693 0.38753,0.01185 0.18784,0.211546 l -2.06298,2.062977 c -0.19969,0.199693 0.10674,0.292645 0.30643,0.09295 l 2.07864,-2.078641 m 1.48699,-1.087596 -3.30667,3.306666 c -0.19969,0.199693 0.0281,0.371266 0.22781,0.171573 l 3.47356,-3.473553 c 0.19969,-0.199693 0.64835,-0.248971 0.44866,-0.04928 l -3.72694,3.726937 c -0.19969,0.199693 -0.0473,0.44669 0.15239,0.246997 l 3.96186,-3.961857 c 0.19969,-0.199693 0.53143,-0.13204 0.33173,0.06765 l -4.21504,4.215047 c -0.1997,0.199693 -0.22304,0.622426 -0.0233,0.422733 l 4.52154,-4.52154 c 0.19969,-0.199693 0.44516,-0.04577 0.24547,0.153918 l -4.91847,4.918464 c -0.19969,0.199693 -0.46664,0.866029 -0.26695,0.666336 l 5.39852,-5.398517 c 0.19969,-0.199693 0.38525,0.01413 0.18556,0.213824 l -5.8555,5.855504 c -0.1997,0.199693 -0.47112,0.870504 -0.27143,0.670811 l 6.2778,-6.277802 c 0.1997,-0.199693 0.30512,0.09427 0.10543,0.293961 l -6.65465,6.654652 c -0.1997,0.199693 -0.51349,0.912874 -0.3138,0.713181 l 7.01824,-7.01824 c 0.19969,-0.199693 0.18661,0.212781 -0.0131,0.412474 L 158.21537,47.10588 c -0.1997,0.199693 0.16097,0.238412 0.36066,0.03872 l 11.24752,-11.24756 c 0.19969,-0.199693 -0.0555,0.454846 -0.25515,0.654538 l -10.60835,10.608346 c -0.19969,0.199693 0.19943,0.199954 0.39912,2.61e-4 l 9.937,-9.936999 c 0.1997,-0.199693 -0.0716,0.470975 -0.27128,0.670667 l -9.26633,9.266332 c -0.19969,0.199693 0.19969,0.199693 0.39938,0 l 8.59567,-8.595664 c 0.19969,-0.199693 -0.0716,0.470975 -0.27128,0.670667 l -7.925,7.924997 c -0.19969,0.199693 0.19969,0.199693 0.39939,0 l 7.25433,-7.25433 c 0.19969,-0.199693 -0.0716,0.470975 -0.27129,0.670667 l -6.60049,6.600496 c -0.1997,0.199693 0.28934,0.110048 0.48903,-0.08964 l 5.84018,-5.840183 c 0.19969,-0.199693 -0.0716,0.470975 -0.27128,0.670667 l -5.06186,5.061855 m 4.94035,-4.540957 -3.90927,3.90927 c -0.1997,0.199693 0.43258,-0.0332 0.63228,-0.232892 l 2.85594,-2.855941 c 0.19969,-0.199693 0.30249,0.0969 0.10279,0.296588 l -2.80257,2.802575 c -0.19969,0.199693 -0.0127,0.412096 0.18698,0.212403 l 3.01498,-3.014979 c 0.19969,-0.199693 0.59908,-0.199693 0.39939,0 l -3.19759,3.197589 c -0.1997,0.199693 0.049,0.350364 0.24871,0.150671 l 3.34826,-3.34826 c 0.19969,-0.199693 0.59908,-0.199693 0.39939,0 l -3.46551,3.465503 c -0.19969,0.199693 0.11737,0.28202 0.31706,0.08233 l 3.54747,-3.547471 c 0.1997,-0.199693 0.58456,-0.185168 0.38487,0.01452 l -3.57882,3.578813 c -0.19969,0.199693 0.18899,0.210402 0.38868,0.01071 l 3.55268,-3.552677 c 0.19969,-0.199693 0.53086,-0.131474 0.33116,0.06822 l -3.48445,3.484457 c -0.1997,0.199693 0.19969,0.199693 0.39938,0 l 3.38471,-3.384713 c 0.1997,-0.199693 0.4639,-0.06451 0.26421,0.135184 l -3.24953,3.249528 c -0.1997,0.199693 0.19969,0.199693 0.39938,0 l 3.07483,-3.074831 c 0.1997,-0.199693 0.3803,0.01909 0.18061,0.218783 l -2.85605,2.856048 c -0.19969,0.199693 0.20127,0.198115 0.40096,-0.0016 l 2.58298,-2.582982 c 0.1997,-0.199693 0.26943,0.12996 0.0697,0.329653 l -2.23208,2.232077 c -0.19969,0.199693 0.26402,0.13536 0.46372,-0.06433 l 1.77495,-1.77495 c 0.19969,-0.199693 0.17631,0.223076 -0.0234,0.422769 l -1.23556,1.235562 c -0.19969,0.199693 0.45754,-0.05815 0.65723,-0.257843 l 0.43882,-0.438818"
           id="path1217" />
      </g>
      <g
         id="g1224"
         style="font-style:normal;font-variant:normal;font-weight:normal;font-stretch:normal;font-size:38.4443px;line-height:1.25;font-family:'Harlow Solid Italic';-inkscape-font-specification:'Harlow Solid Italic, ';display:inline;stroke-width:0.320369"
         transform="matrix(2.8106463,0,0,2.8106463,-43.436897,-60.319105)">
        <path
           id="path7797"
           style="font-style:normal;font-variant:normal;font-weight:normal;font-stretch:normal;font-size:38.4443px;font-family:'Harlow Solid Italic';-inkscape-font-specification:'Harlow Solid Italic, ';stroke-width:0.320369"
           d="m 182.90488,47.404091 h -5.44377 q -2.34646,0 -3.82942,-1.651904 -1.46418,-1.651903 -1.46418,-4.279932 0,-3.510295 2.42154,-6.10078 2.42154,-2.590485 5.6878,-2.590485 2.21505,0 3.60415,1.238928 1.3891,1.238927 1.3891,3.22872 0,1.389101 -0.69455,2.290139 -0.69455,0.882267 -1.7833,0.882267 -1.72699,0 -1.72699,-1.61436 0,-0.244032 0,-0.412976 0.0188,-0.206488 0.0188,-0.394205 0,-1.314014 -1.29524,-1.314014 -1.22016,0 -2.23383,1.295243 -0.99489,1.295242 -0.99489,2.890831 0,1.332786 0.80718,1.895935 0.82595,0.544377 2.7782,0.544377 h 3.54784 q 2.38399,0 2.38399,1.670675 0,1.126298 -0.86349,1.783305 -0.84472,0.638236 -2.30891,0.638236 z" />
        <path
           style="fill:none;stroke:#000000;stroke-width:0.320369"
           d="m 175.80686,34.329193 -1.82668,1.826681 m -0.66648,1.065868 3.36694,-3.366937 c 0.19969,-0.199693 0.91362,-0.514238 0.71393,-0.314545 l -4.27825,4.278252 c -0.1997,0.199693 -0.44949,0.848873 -0.2498,0.64918 l 5.14017,-5.140171 c 0.1997,-0.199693 0.73754,-0.338151 0.53785,-0.138458 l -5.84919,5.849191 c -0.1997,0.199693 -0.33381,0.733191 -0.13411,0.533498 l 6.5031,-6.503106 c 0.19969,-0.199693 0.61734,-0.217952 0.41765,-0.01826 l -6.98424,6.984236 c -0.19969,0.199693 -0.24984,0.649222 -0.0501,0.449529 l 7.45647,-7.456474 c 0.19969,-0.199693 0.59873,-0.199347 0.39904,3.46e-4 l -7.88297,7.882969 c -0.19969,0.199693 -0.20847,0.607856 -0.009,0.408163 l 8.27298,-8.272975 c 0.19969,-0.199693 0.56046,-0.16108 0.36077,0.03861 l -8.62448,8.624485 c -0.1997,0.199693 -0.17461,0.573989 0.0251,0.374296 l 8.9444,-8.944405 c 0.19969,-0.199693 0.5244,-0.125015 0.32471,0.07468 l -9.22872,9.228717 c -0.19969,0.199693 -0.14449,0.543876 0.0552,0.344183 l 9.48288,-9.482888 c 0.1997,-0.199693 0.49438,-0.09499 0.29469,0.104703 l -3.21747,3.217465 c -0.19969,0.199693 0.37134,0.02805 0.57103,-0.171642 l 2.92382,-2.92382 c 0.19969,-0.199693 0.46332,-0.06394 0.26363,0.135755 l -2.77984,2.779842 c -0.19969,0.199693 0.15012,0.249264 0.34981,0.04957 l 2.68033,-2.680323 c 0.19969,-0.199693 0.43566,-0.03628 0.23597,0.163414 l -2.62926,2.629253 c -0.19969,0.199693 0.0338,0.365622 0.23346,0.165929 l 2.61855,-2.618551 c 0.1997,-0.199693 0.41038,-0.011 0.21069,0.188697 l -2.6502,2.650204 c -0.1997,0.199693 -0.0791,0.478441 0.12063,0.278748 l 2.72802,-2.728018 c 0.19969,-0.199693 0.38336,0.01602 0.18367,0.215718 l -2.86414,2.864141 c -0.19969,0.199693 -0.17051,0.569896 0.0292,0.370203 l 3.00439,-3.00439 c 0.19969,-0.199693 0.3547,0.04469 0.155,0.244382 l -3.177,3.177006 c -0.1997,0.199693 -0.19718,0.59656 0.003,0.396867 l 3.31168,-3.311679 c 0.19969,-0.199693 0.31976,0.07962 0.12007,0.27931 l -3.38313,3.383135 c -0.1997,0.199693 -0.0971,0.496485 0.10259,0.296792 l 3.38342,-3.383415 c 0.19969,-0.199693 0.27813,0.12125 0.0784,0.320943 l -3.30648,3.306475 c -0.19969,0.199693 0.007,0.391896 0.20719,0.192203 l 3.15966,-3.159668 c 0.1997,-0.199693 0.23159,0.167801 0.0319,0.367494 l -2.93342,2.933415 c -0.19969,0.199693 0.10723,0.292156 0.30692,0.09246 l 2.66201,-2.662005 c 0.19969,-0.199693 0.14746,0.251924 -0.0522,0.451617 l -2.25546,2.255455 c -0.19969,0.199693 0.19,0.209385 0.38969,0.0097 l 1.78796,-1.787961 c 0.1997,-0.199693 0.0122,0.387175 -0.18748,0.586868 l -1.25378,1.253784 m -6.45042,-1.5373 -4.42061,4.420615 c -0.19969,0.199693 -0.11474,0.514129 0.0849,0.314436 l 3.87718,-3.877177 c 0.19969,-0.199693 0.046,0.353434 -0.15375,0.553126 l -3.62521,3.625217 c -0.1997,0.199693 -0.0886,0.487999 0.11108,0.288307 l 3.43046,-3.430466 c 0.1997,-0.199693 0.1812,0.218191 -0.0185,0.417883 l -3.28842,3.288424 c -0.19969,0.199693 -0.0641,0.463447 0.13563,0.263755 l 3.16802,-3.168018 c 0.19969,-0.199693 0.25294,0.146446 0.0532,0.346138 l -3.07392,3.073913 c -0.19969,0.199693 -0.041,0.440355 0.15873,0.240662 l 3.00037,-3.000375 c 0.1997,-0.199693 0.31799,0.0814 0.1183,0.281088 l -2.94892,2.948917 c -0.19969,0.199693 -0.0192,0.418617 0.18046,0.218925 l 2.92169,-2.921686 c 0.19969,-0.199693 0.38417,0.01522 0.18448,0.214909 l -2.91422,2.91422 c -0.1997,0.199693 0.003,0.396342 0.20273,0.196649 l 2.92763,-2.927628 c 0.1997,-0.199693 0.45111,-0.05172 0.25142,0.147969 l -2.96524,2.965234 c -0.19969,0.199693 0.0268,0.372566 0.22652,0.172873 l 3.01887,-3.018876 c 0.1997,-0.199693 0.50322,-0.103826 0.30352,0.09587 l -3.08345,3.083449 c -0.19969,0.199693 0.0524,0.346992 0.25209,0.1473 l 3.15534,-3.155345 c 0.1997,-0.199693 0.54169,-0.142301 0.342,0.05739 l -3.23141,3.231409 c -0.19969,0.199693 0.0808,0.318551 0.28053,0.118858 l 3.31056,-3.310568 c 0.1997,-0.199693 0.57286,-0.173475 0.37317,0.02622 l -3.3878,3.387805 c -0.1997,0.199693 0.10596,0.293423 0.30565,0.09373 l 3.46807,-3.468068 c 0.19969,-0.199693 0.59701,-0.197623 0.39732,0.0021 l -3.52394,3.523939 c -0.1997,0.199693 0.15162,0.247758 0.35132,0.04807 l 3.572,-3.572004 c 0.19969,-0.199693 0.59908,-0.199693 0.39939,0 l -3.60026,3.600258 c -0.19969,0.199693 0.19555,0.203839 0.39524,0.0041 l 3.6044,-3.604405 c 0.1997,-0.199693 0.59908,-0.199693 0.39939,0 l -3.60441,3.604405 c -0.19969,0.199693 0.1997,0.199693 0.39939,0 l 3.60441,-3.604405 c 0.19969,-0.199693 0.59907,-0.199693 0.39938,0 l -3.6044,3.604405 c -0.1997,0.199693 0.19969,0.199693 0.39938,0 l 3.60441,-3.604405 c 0.19969,-0.199693 0.59908,-0.199693 0.39938,0 l -3.6044,3.604405 c -0.19969,0.199693 0.19969,0.199693 0.39938,0 l 3.61873,-3.618722 c 0.19969,-0.199693 0.5551,-0.155718 0.35541,0.04397 l -3.57475,3.574748 c -0.19969,0.199693 0.19969,0.199693 0.39939,0 l 3.52117,-3.521178 c 0.1997,-0.199693 0.51819,-0.1188 0.3185,0.08089 l -3.44029,3.440285 c -0.19969,0.199693 0.19969,0.199693 0.39939,0 l 3.32487,-3.324868 c 0.19969,-0.199693 0.44692,-0.04754 0.24723,0.152156 l -3.17272,3.172712 c -0.19969,0.199693 0.1997,0.199693 0.39939,0 l 2.97961,-2.979611 c 0.19969,-0.199693 0.35759,0.0418 0.15789,0.241493 l -2.73811,2.738118 c -0.1997,0.199693 0.20724,0.192144 0.40693,-0.0075 l 2.43822,-2.438217 c 0.19969,-0.199693 0.2431,0.156287 0.0434,0.35598 l -2.04512,2.045118 c -0.19969,0.199693 0.27938,0.120013 0.47907,-0.07968 l 1.56809,-1.568093 c 0.1997,-0.199693 0.0946,0.30481 -0.10511,0.504503 l -1.04858,1.048575 m -0.27099,-7.317341 -0.14738,0.147384"
           id="path1222" />
      </g>
      <g
         id="g1229"
         style="font-style:normal;font-variant:normal;font-weight:normal;font-stretch:normal;font-size:38.4443px;line-height:1.25;font-family:'Harlow Solid Italic';-inkscape-font-specification:'Harlow Solid Italic, ';display:inline;stroke-width:0.320369"
         transform="matrix(2.8106463,0,0,2.8106463,-43.436897,-60.319105)">
        <path
           id="path7799"
           style="font-style:normal;font-variant:normal;font-weight:normal;font-stretch:normal;font-size:38.4443px;font-family:'Harlow Solid Italic';-inkscape-font-specification:'Harlow Solid Italic, ';stroke-width:0.320369"
           d="m 191.29579,41.904003 q 0,1.407872 2.12119,1.407872 h 5.57518 q 2.36522,0 2.36522,1.670675 0,1.14507 -0.84472,1.783305 -0.82595,0.638236 -2.32769,0.638236 h -5.31237 q -2.96591,0 -4.52396,-1.464187 -1.53927,-1.464188 -1.53927,-4.279932 0,-3.622925 2.44031,-6.250954 2.45908,-2.628028 5.83798,-2.628028 2.45908,0 3.94204,1.295242 1.50173,1.276471 1.50173,3.378894 0,2.53417 -2.06488,3.754326 -1.14507,0.694551 -3.41644,0.694551 z m 0.90103,-3.416437 h 2.06488 q 2.00857,0 1.95225,-0.882267 -0.0563,-0.994896 -1.29524,-0.994896 -1.72699,0 -2.72189,1.877163 z" />
        <path
           style="fill:none;stroke:#000000;stroke-width:0.320369"
           d="m 190.31589,34.466438 -1.55929,1.55929 m -0.6872,1.086586 3.14557,-3.145575 c 0.1997,-0.199693 0.95558,-0.556195 0.75589,-0.356502 l -4.13548,4.135482 c -0.19969,0.199693 -0.52758,0.92696 -0.32788,0.727267 l 5.15528,-5.155282 c 0.19969,-0.199693 0.69166,-0.292274 0.49197,-0.09258 l -5.77229,5.772287 c -0.19969,0.199693 -0.32937,0.728758 -0.12968,0.529065 l 6.40141,-6.401413 c 0.19969,-0.199693 0.65828,-0.258894 0.45859,-0.0592 l -6.94765,6.94765 c -0.19969,0.199693 -0.25833,0.657717 -0.0586,0.458025 l 7.43722,-7.437217 c 0.19969,-0.199693 0.60824,-0.208862 0.40855,-0.0092 l -7.88098,7.880978 c -0.19969,0.199693 -0.2157,0.615088 -0.016,0.415395 l 8.28631,-8.286307 c 0.19969,-0.199693 0.57321,-0.173821 0.37352,0.02587 l -8.65818,8.65818 c -0.1997,0.199693 -0.18398,0.583366 0.0157,0.383673 l 9.00122,-9.001223 c 0.19969,-0.199693 0.54008,-0.140693 0.34039,0.059 l -9.31213,9.312123 c -0.19969,0.199693 -0.15239,0.551779 0.0473,0.352087 l 9.59062,-9.590612 c 0.19969,-0.199693 0.5112,-0.111823 0.31151,0.08787 l -9.84013,9.840132 c -0.19969,0.199693 -0.12317,0.522552 0.0765,0.322859 l 4.7537,-4.753703 c 0.19969,-0.199693 0.59908,-0.199693 0.39939,0 l -5.0622,5.062194 c -0.19969,0.199693 -0.0946,0.493977 0.1051,0.294284 l 5.35648,-5.356478 c 0.19969,-0.199693 0.59908,-0.199693 0.39939,0 l -5.63672,5.636713 c -0.19969,0.199693 -0.0667,0.466036 0.13305,0.266343 l 5.90305,-5.903056 c 0.19969,-0.199693 0.61205,-0.212662 0.41236,-0.01297 l -6.16864,6.168632 c -0.19969,0.199693 -0.0402,0.439576 0.15951,0.239884 l 6.40302,-6.403019 c 0.19969,-0.199693 0.63252,-0.233142 0.43283,-0.03345 l -2.96955,2.969547 c -0.19969,0.199693 0.1997,0.199693 0.39939,0 l 3.25943,-3.259435 m -1.42141,-1.773676 3.20348,-3.203477 c 0.19969,-0.199693 0.48151,-0.08212 0.28182,0.117569 l -2.83891,2.838902 c -0.19969,0.199693 0.20976,0.18963 0.40945,-0.01006 l 2.69805,-2.698046 c 0.19969,-0.199693 0.45535,-0.05596 0.25566,0.143729 l -2.60154,2.601536 c -0.19969,0.199693 0.10626,0.29312 0.30596,0.09343 l 2.53858,-2.53858 c 0.19969,-0.199693 0.43046,-0.03107 0.23076,0.168619 l -2.52471,2.524714 c -0.19969,0.199693 -0.013,0.412365 0.18671,0.212672 l 2.55534,-2.555333 c 0.19969,-0.199693 0.40741,-0.008 0.20772,0.191662 l -2.64509,2.64509 c -0.19969,0.199693 -0.15092,0.550302 0.0488,0.350609 l 2.79158,-2.791586 c 0.1997,-0.199693 0.38191,0.01748 0.18222,0.217172 l -6.7245,6.724493 c -0.19969,0.199693 0.1997,0.199693 0.39939,0 l 6.49362,-6.493616 c 0.19969,-0.199693 0.35056,0.04883 0.15086,0.248518 l -6.24509,6.245098 c -0.1997,0.199693 0.19969,0.199693 0.39938,0 l 5.98159,-5.981584 c 0.19969,-0.199693 0.31927,0.08011 0.11958,0.279804 l -5.70178,5.70178 c -0.1997,0.199693 0.19969,0.199693 0.39938,0 l 5.40086,-5.400859 c 0.1997,-0.199693 0.27969,0.119695 0.08,0.319388 l -5.08147,5.081471 c -0.19969,0.199693 0.20267,0.196716 0.40236,-0.003 l 4.74772,-4.747713 c 0.19969,-0.199693 0.22308,0.176302 0.0234,0.375995 l -4.35479,4.35479 c -0.1997,0.199693 0.20518,0.194203 0.40487,-0.0055 l 3.97026,-3.970256 c 0.19969,-0.199693 0.16677,0.232615 -0.0329,0.432307 l -3.46631,3.466304 c -0.19969,0.199693 0.25491,0.144481 0.4546,-0.05521 l 2.95394,-2.953944 c 0.1997,-0.199693 0.0678,0.331589 -0.13189,0.531282 l -2.23886,2.238857 c -0.19969,0.199693 0.47726,-0.07788 0.67695,-0.277569 l 1.46277,-1.462766 m -8.72357,2.732782 -3.0348,3.034798 c -0.19969,0.199693 -0.0116,0.410987 0.1881,0.211294 l 2.8106,-2.810601 c 0.19969,-0.199693 0.3669,0.03249 0.1672,0.232178 l -2.7764,2.776407 c -0.1997,0.199693 0.0155,0.383885 0.21519,0.184192 l 2.77542,-2.775415 c 0.19969,-0.199693 0.45611,-0.05673 0.25642,0.142962 l -2.80384,2.803845 c -0.1997,0.199693 0.0411,0.358245 0.24083,0.158552 l 2.85417,-2.854168 c 0.19969,-0.199693 0.53595,-0.136573 0.33626,0.06312 l -2.93672,2.936723 c -0.19969,0.199693 0.0669,0.332454 0.26662,0.132761 l 3.01525,-3.015248 c 0.19969,-0.199693 0.58398,-0.184594 0.38429,0.0151 l -3.11996,3.119962 c -0.1997,0.199693 0.0929,0.306522 0.29255,0.106829 l 3.224,-3.223997 c 0.19969,-0.199693 0.59908,-0.199693 0.39939,0 l -3.31781,3.317809 c -0.1997,0.199693 0.11893,0.280453 0.31862,0.08076 l 3.39857,-3.398569 c 0.19969,-0.199693 0.59908,-0.199693 0.39939,0 l -3.46625,3.466244 c -0.19969,0.199693 0.14514,0.254248 0.34483,0.05456 l 3.5208,-3.5208 c 0.1997,-0.199693 0.59908,-0.199693 0.39939,0 l -3.5788,3.578803 c -0.19969,0.199693 0.19156,0.207827 0.39125,0.0081 l 3.58694,-3.586937 c 0.19969,-0.199693 0.59908,-0.199693 0.39938,0 l -3.60094,3.600946 c -0.1997,0.199693 0.19623,0.203151 0.39592,0.0035 l 3.60441,-3.604405 c 0.19969,-0.199693 0.59908,-0.199693 0.39938,0 l -3.6044,3.604405 c -0.19969,0.199693 0.19969,0.199693 0.39939,0 l 3.6044,-3.604405 c 0.19969,-0.199693 0.59908,-0.199693 0.39939,0 l -3.60441,3.604405 c -0.19969,0.199693 0.19969,0.199693 0.39939,0 l 3.6044,-3.604405 c 0.19969,-0.199693 0.60001,-0.200624 0.40032,-9.31e-4 l -3.60534,3.605336 c -0.19969,0.199693 0.1997,0.199693 0.39939,0 l 3.59331,-3.593316 c 0.1997,-0.199693 0.56306,-0.163674 0.36337,0.03602 l -3.5573,3.557297 c -0.19969,0.199693 0.1997,0.199693 0.39939,0 l 3.49431,-3.494307 c 0.19969,-0.199693 0.50364,-0.104255 0.30395,0.09544 l -3.39887,3.398869 c -0.1997,0.199693 0.19969,0.199693 0.39938,0 l 3.26877,-3.268771 c 0.1997,-0.199693 0.43049,-0.0311 0.2308,0.168593 l -3.10018,3.100178 c -0.19969,0.199693 0.19969,0.199693 0.39938,0 l 2.88671,-2.886709 c 0.1997,-0.199693 0.33735,0.06204 0.13766,0.261728 l -2.6252,2.625202 c -0.19969,0.199693 0.21783,0.181554 0.41752,-0.01814 l 2.28744,-2.287439 c 0.1997,-0.199693 0.21573,0.183657 0.016,0.38335 l -1.85372,1.85372 c -0.19969,0.199693 0.27217,0.127218 0.47186,-0.07248 l 1.32656,-1.326556 c 0.19969,-0.199693 -0.0126,0.412009 -0.21232,0.611702 l -0.60352,0.603519"
           id="path1227" />
      </g>
      <g
         id="g1209"
         style="font-style:normal;font-variant:normal;font-weight:normal;font-stretch:normal;font-size:38.4443px;line-height:1.25;font-family:'Harlow Solid Italic';-inkscape-font-specification:'Harlow Solid Italic, ';display:inline;stroke-width:0.320369"
         transform="matrix(2.8106463,0,0,2.8106463,-43.436897,-60.319105)">
        <path
           id="path7791"
           style="font-style:normal;font-variant:normal;font-weight:normal;font-stretch:normal;font-size:38.4443px;font-family:'Harlow Solid Italic';-inkscape-font-specification:'Harlow Solid Italic, ';stroke-width:0.320369"
           d="m 130.19413,38.168448 -0.35666,0.863495 q -0.82595,1.858392 -2.34646,1.858392 -0.76963,0 -1.3891,-0.525606 -0.60069,-0.544377 -0.60069,-1.238928 0,-0.657007 0.54438,-1.745761 l 2.49662,-5.068341 q 0.91981,-1.820848 2.29014,-1.820848 0.7321,0 1.2577,0.488062 0.52561,0.469291 0.52561,1.126298 0,0.168945 -0.11263,0.732094 -0.0751,0.412976 -0.0751,0.732093 0,1.182613 0.88227,2.421541 l 1.06998,1.482959 q 1.63313,2.271367 1.63313,4.392562 0,2.365225 -1.76453,3.960814 -1.76453,1.576817 -4.39256,1.576817 h -3.92327 q -2.384,0 -2.384,-1.651904 0,-1.145069 0.84472,-1.783305 0.84473,-0.657007 2.32769,-0.657007 h 2.17751 q 2.60925,0 2.60925,-1.895935 0,-0.69455 -0.48806,-1.633132 z" />
        <path
           style="fill:none;stroke:#000000;stroke-width:0.320369"
           d="m 129.00608,31.655808 0.66539,-0.665388 c 0.19969,-0.199693 0.82358,-0.424196 0.62389,-0.224504 l -1.74763,1.74763 m -0.38772,0.787109 2.56405,-2.564055 c 0.19969,-0.199693 0.55746,-0.158075 0.35777,0.04162 l -3.30955,3.309546 m -0.38772,0.787109 3.99972,-3.999717 c 0.19969,-0.199693 0.45887,-0.05948 0.25918,0.140208 l -4.64662,4.646617 m -0.38772,0.787108 5.25856,-5.258569 c 0.1997,-0.199693 0.39525,0.0041 0.19556,0.203832 l -5.78261,5.78261 c -0.19969,0.199693 -0.54567,0.945057 -0.34598,0.745365 l 6.28946,-6.289458 c 0.19969,-0.199693 0.30985,0.08953 0.11016,0.289222 l -6.51317,6.513173 c -0.1997,0.199693 -0.2827,0.68208 -0.083,0.482387 l 6.63495,-6.634957 c 0.1997,-0.199693 0.13005,0.269337 -0.0696,0.46903 l -6.5268,6.526801 c -0.1997,0.199693 -0.0984,0.497761 0.10131,0.298068 l 6.3405,-6.3405 c 0.1997,-0.199693 0.16671,0.232683 -0.033,0.432376 l -6.1582,6.158209 c -0.1997,0.199693 -0.0162,0.415629 0.18345,0.215936 l 5.98952,-5.98952 c 0.19969,-0.199693 0.25408,0.145298 0.0544,0.344991 l -5.83155,5.831553 c -0.1997,0.199693 0.0411,0.358313 0.24076,0.15862 l 5.67094,-5.670934 c 0.19969,-0.199693 0.30118,0.09821 0.10148,0.2979 l -5.5023,5.502302 c -0.19969,0.199693 0.1046,0.294787 0.30429,0.09509 l 5.3167,-5.3167 c 0.1997,-0.199693 0.33267,0.06672 0.13298,0.266411 l -5.08249,5.082483 c -0.19969,0.199693 0.23089,0.168495 0.43059,-0.0312 l 1.63287,-1.63287 c 0.19969,-0.199693 -0.0876,0.486985 -0.28729,0.686678 l -0.95472,0.954717 m 1.93438,-2.333765 2.47264,-2.472642 c 0.19969,-0.199693 0.35557,0.04382 0.15587,0.243511 l -2.34357,2.343571 c -0.19969,0.199693 -0.0645,0.463903 0.13518,0.26421 l 2.37337,-2.373367 c 0.19969,-0.199693 0.36708,0.0323 0.16738,0.231996 l -2.40558,2.405581 c -0.19969,0.199693 -0.0645,0.463903 0.13518,0.26421 l 2.43779,-2.437795 c 0.1997,-0.199693 0.36709,0.0323 0.16739,0.231996 l -2.47001,2.470008 c -0.19969,0.199693 -0.0659,0.465334 0.13375,0.265641 l 2.50365,-2.503653 c 0.19969,-0.199693 0.36708,0.0323 0.16739,0.231996 l -2.5447,2.544703 c -0.1997,0.199693 -0.0863,0.485698 0.11338,0.286005 l 2.59871,-2.598712 c 0.19969,-0.199693 0.36376,0.03562 0.16407,0.235316 l -2.66874,2.668742 c -0.19969,0.199693 -0.12989,0.529276 0.0698,0.329583 l 2.75809,-2.758094 c 0.1997,-0.199693 0.35355,0.04584 0.15386,0.245531 l -2.911,2.910996 c -0.19969,0.199693 -0.2416,0.640992 -0.0419,0.441299 l 3.10096,-3.100956 c 0.19969,-0.199693 0.34135,0.05803 0.14166,0.257723 l -8.24441,8.244406 c -0.19969,0.199693 -0.59908,0.199693 -0.39938,0 l 3.7922,-3.792206 c 0.1997,-0.199693 -0.30113,-0.09825 -0.50083,0.101444 l -3.68636,3.686365 c -0.1997,0.199693 -0.57529,0.175901 -0.3756,-0.02379 l 3.58578,-3.585774 c 0.19969,-0.199693 -0.20502,-0.194373 -0.40471,0.0053 l -3.52788,3.527881 c -0.19969,0.199693 -0.51973,0.120346 -0.32004,-0.07935 l 3.4443,-3.444295 c 0.19969,-0.199693 -0.1997,-0.199693 -0.39939,0 l -3.33047,3.330472 c -0.19969,0.199693 -0.44858,0.0492 -0.24889,-0.150498 l 3.17998,-3.179974 c 0.19969,-0.199693 -0.1997,-0.199693 -0.39939,0 l -2.98847,2.988472 c -0.1997,0.199693 -0.359,-0.04039 -0.1593,-0.240086 l 2.74838,-2.748386 c 0.1997,-0.199693 -0.20684,-0.192542 -0.40653,0.0072 l -2.45134,2.451334 c -0.19969,0.199693 -0.24114,-0.158242 -0.0414,-0.357935 l 2.05667,-2.056672 c 0.1997,-0.199693 -0.29241,-0.106974 -0.4921,0.09272 l -1.5692,1.569202 c -0.1997,0.199693 -0.0922,-0.307136 0.10744,-0.506829 l 1.03977,-1.039774 m 1.99643,3.594984 8.12941,-8.129415 c 0.1997,-0.199693 0.32654,0.07285 0.12684,0.272544 l -7.7071,7.707101 c -0.19969,0.199693 0.1997,0.199693 0.39939,0 l 7.42592,-7.425919 c 0.19969,-0.199693 0.30827,0.09111 0.10858,0.290804 l -7.13511,7.135115 c -0.1997,0.199693 0.19969,0.199693 0.39938,0 l 6.83355,-6.833552 c 0.1997,-0.199693 0.28544,0.113951 0.0857,0.313644 l -6.51991,6.519909 c -0.1997,0.199693 0.19969,0.199693 0.39938,0 l 6.19264,-6.192636 c 0.19969,-0.199693 0.25294,0.146443 0.0532,0.346136 l -5.8465,5.8465 c -0.1997,0.199693 0.20492,0.194464 0.40461,-0.0052 l 5.4765,-5.476496 c 0.19969,-0.199693 0.21262,0.186765 0.0129,0.386458 l -5.06802,5.068017 c -0.19969,0.199693 0.2568,0.142589 0.45649,-0.0571 l 4.59052,-4.59052 c 0.19969,-0.199693 0.15592,0.243463 -0.0438,0.443155 l -4.08547,4.085467 c -0.19969,0.199693 0.36497,0.03442 0.56466,-0.165276 l 3.40374,-3.403736 c 0.19969,-0.199693 0.051,0.348373 -0.14868,0.548065 l -2.83853,2.838533 m 0.98295,-0.583569 1.66504,-1.665036"
           id="path1207" />
      </g>
    </g>
  </g>
  <g
     inkscape:label="1l"
     inkscape:groupmode="layer"
     id="layer1">
    <g
       transform="matrix(2.8106463,0,0,2.8106463,-43.436898,-49.73577)"
       id="g915"
       style="display:inline">
      <g
         style="font-style:normal;font-variant:normal;font-weight:normal;font-stretch:normal;font-size:38.4443px;line-height:1.25;font-family:'Harlow Solid Italic';-inkscape-font-specification:'Harlow Solid Italic, ';stroke-width:0.320369"
         id="text835-9"
         aria-label="Makerspace">
        <g
           id="g1184">
          <path
             id="path7781"
             style="font-style:normal;font-variant:normal;font-weight:normal;font-stretch:normal;font-size:38.4443px;font-family:'Harlow Solid Italic';-inkscape-font-specification:'Harlow Solid Italic, ';stroke-width:0.320369"
             d="m 50.752585,42.917671 h 3.041005 q 2.609256,0 2.609256,1.783305 0,1.276471 -0.91981,1.989793 -0.901038,0.713322 -2.552942,0.713322 h -3.56661 q -1.952249,0 -3.022232,-0.80718 -1.051212,-0.825952 -1.051212,-2.346454 0,-0.976125 0.788409,-2.853288 l 4.824309,-11.300522 -3.622925,3.885727 q -1.295242,1.407873 -2.459083,1.407873 -1.520503,0 -1.971022,-2.083651 l -0.525605,-2.327683 -4.580279,11.300522 q -2.365225,5.819206 -3.604153,7.902857 -1.238928,2.102423 -3.209949,3.641697 -2.853288,2.215052 -6.551299,2.215052 -3.942043,0 -6.401127,-2.496627 -2.459083,-2.477855 -2.459083,-6.476212 0,-5.237286 3.866956,-9.216872 2.083651,-2.121194 5.199742,-3.416437 3.116091,-1.314014 6.138323,-1.314014 1.539274,0 2.459084,0.657007 0.91981,0.657007 0.91981,1.745762 0,1.14507 -0.976125,1.858392 -0.563149,0.412975 -2.177509,0.563149 -3.735555,0.337889 -6.025694,1.708218 -1.895935,1.14507 -3.022233,2.984689 -1.107526,1.83962 -1.107526,3.848185 0,2.139966 1.088755,3.360122 1.088754,1.238928 2.984689,1.238928 2.271368,0 3.942043,-1.95225 1.689447,-1.933478 3.698011,-6.851646 l 7.452338,-18.339884 q 0.976125,-2.42154 2.628028,-2.42154 1.051212,0 1.651904,0.675779 0.619464,0.675778 1.069983,2.365225 l 1.14507,4.317475 5.631489,-5.537631 q 1.858392,-1.820848 3.472752,-1.820848 1.126298,0 1.895935,0.69455 0.788408,0.675779 0.788408,1.651904 0,0.619464 -0.300346,1.351557 l -0.431747,1.051212 z" />
          <path
             style="fill:none;stroke:#000000;stroke-width:0.320369"
             d="m 21.35288,36.234242 -3.376211,3.376211 m -0.687224,1.086609 5.068652,-5.068652 m 0.84907,-0.449684 -6.206741,6.206741 c -0.199693,0.199693 -0.501497,0.900882 -0.301804,0.701189 l 7.13908,-7.13908 c 0.199693,-0.199693 0.907349,-0.507964 0.707657,-0.308271 l -8.166529,8.166529 c -0.199693,0.199693 -0.313272,0.712658 -0.11358,0.512965 l 8.942286,-8.942286 c 0.199693,-0.199693 0.813625,-0.414239 0.613932,-0.214546 l -9.702321,9.702321 c -0.199693,0.199693 -0.313679,0.713065 -0.113987,0.513372 L 26.403808,33.979012 c 0.199693,-0.199693 0.74798,-0.348594 0.548287,-0.148901 L 15.920532,44.861674 c -0.199693,0.199693 -0.264825,0.664211 -0.06513,0.464518 L 27.480985,33.700607 c 0.199693,-0.199693 0.695419,-0.296033 0.495726,-0.09634 L 15.811005,45.769973 c -0.199693,0.199693 -0.23972,0.639106 -0.04003,0.439413 l 12.68477,-12.68477 c 0.199693,-0.199693 0.661216,-0.26183 0.461523,-0.06214 L 15.765644,46.614105 c -0.199693,0.199693 -0.202233,0.601619 -0.0025,0.401926 L 29.378855,33.40028 c 0.199693,-0.199693 0.61506,-0.215674 0.415367,-0.01598 L 15.771688,47.406833 c -0.199693,0.199693 -0.17814,0.577526 0.02155,0.377833 l 14.41694,-14.41694 c 0.199693,-0.199693 0.603463,-0.204078 0.403771,-0.0044 L 15.825388,48.151905 c -0.199693,0.199693 -0.155973,0.555358 0.04372,0.355666 l 6.256054,-6.256054 m 18.32321,-19.121982 1.249882,-1.249882 c 0.199693,-0.199693 0.705044,-0.305658 0.505351,-0.105965 l -1.980972,1.980972 c -0.199693,0.199693 -0.469837,0.869223 -0.270144,0.66953 l 2.675279,-2.675279 c 0.199693,-0.199693 0.535841,-0.136455 0.336148,0.06324 l -3.2848,3.2848 c -0.199693,0.199693 -0.473065,0.872451 -0.273373,0.672758 l 3.870059,-3.870059 c 0.199693,-0.199693 0.473076,-0.07369 0.273383,0.126002 l -4.416815,4.416815 c -0.199693,0.199693 -0.473065,0.872451 -0.273373,0.672758 l 4.928861,-4.928861 c 0.199693,-0.199693 0.405717,-0.0063 0.206024,0.193362 l -5.408258,5.408258 c -0.199693,0.199693 -0.473065,0.872451 -0.273373,0.672758 l 5.862923,-5.862923 c 0.199693,-0.199693 0.358756,0.04063 0.159063,0.240323 l -6.295359,6.295359 c -0.199693,0.199693 -0.473065,0.872451 -0.273373,0.672758 L 44.4763,23.095461 c 0.199693,-0.199693 0.327921,0.07146 0.128228,0.271158 l -7.112395,7.112395 c -0.199693,0.199693 -0.473065,0.872451 -0.273373,0.672758 L 44.721932,23.6486 c 0.199693,-0.199693 0.305962,0.09342 0.106269,0.293116 l -7.882814,7.882814 c -0.199693,0.199693 -0.473065,0.872451 -0.273373,0.672758 l 8.253929,-8.253929 c 0.199693,-0.199693 0.290475,0.10891 0.09078,0.308603 l -8.618084,8.618084 c -0.199693,0.199693 -0.473065,0.872451 -0.273373,0.672758 l 8.97781,-8.97781 c 0.199693,-0.199693 0.283413,0.115973 0.08372,0.315666 l -9.334903,9.334903 c -0.199693,0.199693 -0.473065,0.872451 -0.273373,0.672758 l 9.691995,-9.691995 c 0.199693,-0.199693 0.283413,0.115973 0.08372,0.315666 L 35.305149,35.86108 c -0.199693,0.199693 -0.473065,0.872451 -0.273373,0.672758 L 45.437957,26.127657 c 0.199693,-0.199693 0.283413,0.115973 0.08372,0.315666 L 34.758404,37.206596 c -0.199693,0.199693 -0.473065,0.872451 -0.273373,0.672758 L 45.605397,26.758988 c 0.199693,-0.199693 0.283413,0.115973 0.08372,0.315666 L 34.211658,38.552113 c -0.199693,0.199693 -0.473065,0.872451 -0.273373,0.672758 L 45.772836,27.39032 c 0.199693,-0.199693 0.283413,0.115973 0.08372,0.315666 l -3.256136,3.256136 c -0.199693,0.199693 -0.126122,0.525508 0.07357,0.325815 l 3.266285,-3.266285 c 0.199693,-0.199693 0.283413,0.115973 0.08372,0.315666 l -3.276434,3.276434 c -0.199693,0.199693 -0.126122,0.525508 0.07357,0.325815 l 3.286583,-3.286583 c 0.199693,-0.199693 0.283413,0.115973 0.08372,0.315666 l -3.296732,3.296732 c -0.199693,0.199693 -0.126122,0.525508 0.07357,0.325815 l 9.97274,-9.97274 M 24.51247,39.864208 30.999751,33.376927 c 0.199693,-0.199693 0.563317,-0.163931 0.363624,0.03576 l -5.657434,5.657434 c -0.199693,0.199693 0.463428,-0.06404 0.663121,-0.263735 l 5.335914,-5.335914 c 0.199693,-0.199693 0.519413,-0.120027 0.31972,0.07967 l -4.979348,4.979348 c -0.199693,0.199693 0.420533,-0.02115 0.620226,-0.22084 l 4.657101,-4.657101 c 0.199693,-0.199693 0.476993,-0.07761 0.2773,0.122086 L 28.16579,38.20782 c -0.199693,0.199693 0.360016,0.03937 0.559708,-0.160323 l 4.128882,-4.128882 c 0.199693,-0.199693 0.432761,-0.03337 0.233068,0.166318 l -3.86467,3.86467 c -0.199693,0.199693 0.28087,0.118516 0.480562,-0.08118 l 3.594496,-3.594496 c 0.199693,-0.199693 0.384401,0.01498 0.184709,0.214677 l -3.312783,3.312783 c -0.199693,0.199693 0.254659,0.144727 0.454352,-0.05497 l 3.013876,-3.013876 c 0.199693,-0.199693 0.318293,0.08109 0.118601,0.280785 l -2.688508,2.688508 c -0.199693,0.199693 0.24767,0.151716 0.447362,-0.04798 l 2.31983,-2.31983 c 0.199693,-0.199693 0.223646,0.17574 0.02395,0.375433 l -1.869731,1.869731 c -0.199693,0.199693 0.306085,0.0933 0.505778,-0.106392 l 1.332463,-1.332463 c 0.199693,-0.199693 -0.01514,0.414523 -0.21483,0.614215 l -0.683179,0.683179 m -11.518588,5.927188 -5.487907,5.487907 c -0.199693,0.199693 -0.147917,0.547303 0.05178,0.34761 l 4.993279,-4.993279 c 0.199693,-0.199693 0.07686,0.322528 -0.122835,0.522221 l -4.782885,4.782885 c -0.199693,0.199693 -0.11516,0.514546 0.08453,0.314853 l 4.52699,-4.52699 c 0.199693,-0.199693 0.127072,0.272313 -0.07262,0.472006 l -4.360526,4.360526 c -0.199693,0.199693 -0.09634,0.495729 0.10335,0.296036 l 4.234628,-4.234628 c 0.199693,-0.199693 0.170102,0.229284 -0.02959,0.428977 l -4.093228,4.093228 c -0.199693,0.199693 -0.07849,0.477872 0.121206,0.278179 l 3.981689,-3.981689 c 0.199693,-0.199693 0.226204,0.173182 0.02651,0.372875 l -3.879557,3.879557 c -0.199693,0.199693 -0.06152,0.46091 0.138169,0.261217 l 3.786965,-3.786965 c 0.199693,-0.199693 0.262087,0.137299 0.06239,0.336992 l -3.703827,3.703827 c -0.199693,0.199693 -0.0465,0.445886 0.153192,0.246194 l 3.632218,-3.632218 c 0.199693,-0.199693 0.294554,0.104831 0.09486,0.304524 l -3.565755,3.565755 c -0.199693,0.199693 -0.03147,0.430857 0.168222,0.231164 l 3.509434,-3.509434 c 0.199693,-0.199693 0.329585,0.0698 0.129892,0.269493 l -3.463631,3.463631 c -0.199693,0.199693 -0.01675,0.416131 0.182948,0.216438 l 3.425134,-3.425134 c 0.199693,-0.199693 0.35947,0.03992 0.159777,0.239608 l -3.395492,3.395492 c -0.199693,0.199693 -0.0034,0.402821 0.196258,0.203128 l 3.375005,-3.375005 c 0.199693,-0.199693 0.388358,0.01103 0.188665,0.21072 l -3.36122,3.36122 c -0.199693,0.199693 0.0091,0.390305 0.208773,0.190612 l 3.356023,-3.356023 c 0.199693,-0.199693 0.419194,-0.01981 0.219501,0.179884 l -3.359861,3.359861 c -0.199693,0.199693 0.02347,0.375912 0.223166,0.17622 L 22.4379,50.725248 c 0.199693,-0.199693 0.453668,-0.05428 0.253975,0.145411 L 19.2967,54.265848 c -0.199693,0.199693 0.0379,0.36148 0.237598,0.161788 l 3.42695,-3.42695 c 0.199693,-0.199693 0.491765,-0.09238 0.292073,0.107313 L 19.77975,54.58157 c -0.199693,0.199693 0.05302,0.346365 0.252713,0.146672 l 3.530013,-3.530013 c 0.199693,-0.199693 0.5341,-0.134714 0.334407,0.06498 l -3.60273,3.60273 c -0.199693,0.199693 0.06978,0.32961 0.269469,0.129917 l 3.688022,-3.688022 c 0.199693,-0.199693 0.600935,-0.201549 0.401242,-0.0019 l -3.810977,3.810977 c -0.199693,0.199693 0.08748,0.311901 0.287178,0.112208 l 3.912833,-3.912833 c 0.199693,-0.199693 0.654545,-0.25516 0.454852,-0.05547 l -4.072281,4.072281 c -0.199693,0.199693 0.106914,0.292472 0.306607,0.09278 l 4.294034,-4.294034 c 0.199693,-0.199693 0.771464,-0.372078 0.571771,-0.172386 l -4.551208,4.551208 c -0.199693,0.199693 0.1267,0.272686 0.326392,0.07299 l 5.722434,-5.722434 m 5.420627,-9.813869 8.311526,-8.311526 c 0.199693,-0.199693 -0.07251,0.4719 -0.272207,0.671593 l -8.162922,8.162922 c -0.199693,0.199693 -0.473065,0.872451 -0.273373,0.672758 l 8.164088,-8.164088 c 0.199693,-0.199693 -0.07251,0.4719 -0.272207,0.671593 L 32.8448,41.915905 c -0.199693,0.199693 -0.559007,0.958392 -0.359314,0.758699 l 8.25236,-8.25236 c 0.199693,-0.199693 -0.07251,0.4719 -0.272207,0.671593 l -8.191747,8.191747 c -0.199693,0.199693 -0.515906,0.915292 -0.316213,0.715599 l 8.235753,-8.235753 c 0.199693,-0.199693 -0.07251,0.4719 -0.272207,0.671593 l -8.414314,8.414314 c -0.199693,0.199693 -0.466693,0.866079 -0.267001,0.666386 l 8.409107,-8.409107 c 0.199693,-0.199693 -0.07251,0.4719 -0.272207,0.671593 l -8.71651,8.71651 M 53.878608,22.080255 43.041852,32.917011 c -0.199693,0.199693 -0.124914,0.5243 0.07478,0.324607 l 11.31455,-11.314551 c 0.199693,-0.199693 0.731287,-0.331901 0.531594,-0.132209 L 43.201058,33.556576 c -0.199693,0.199693 -0.09734,0.496724 0.102355,0.297031 L 55.395338,21.761682 c 0.199693,-0.199693 0.579656,-0.18027 0.379963,0.01942 L 43.427367,34.129039 c -0.199693,0.199693 -0.05447,0.453857 0.145221,0.254164 l 12.542,-12.542 c 0.199693,-0.199693 0.506985,-0.1076 0.307293,0.09209 L 43.745332,34.609845 c -0.199693,0.199693 0.0041,0.395317 0.203762,0.195624 L 56.698655,22.055908 c 0.199693,-0.199693 0.450999,-0.05161 0.251306,0.14808 L 44.188623,34.965326 c -0.199693,0.199693 0.08521,0.314171 0.284908,0.114478 L 57.176693,22.376642 c 0.199693,-0.199693 0.409077,-0.0097 0.209384,0.190002 L 44.812019,35.140702 c -0.199693,0.199693 0.212195,0.18719 0.411888,-0.0125 L 57.575063,22.777043 c 0.199693,-0.199693 0.361045,0.03834 0.161352,0.238034 L 45.603824,35.147668 M 29.97858,47.577825 39.104603,38.451802 c 0.199693,-0.199693 -0.07251,0.4719 -0.272207,0.671593 l -9.948976,9.948976 m 9.826539,-9.427153 -16.00293,16.00293 c -0.199693,0.199693 0.147985,0.2514 0.347678,0.05171 L 38.287982,40.466581 c 0.199693,-0.199693 -0.07251,0.4719 -0.272207,0.671593 L 23.397313,55.756636 c -0.199693,0.199693 0.184845,0.214541 0.384538,0.01485 L 37.743568,41.809767 c 0.199693,-0.199693 -0.0588,0.458188 -0.258495,0.657881 L 24.16368,55.789041 c -0.199693,0.199693 0.193318,0.206067 0.393011,0.0064 L 37.192037,43.160069 c 0.199693,-0.199693 -0.07881,0.478195 -0.278502,0.677888 L 24.9644,55.787092 c -0.199693,0.199693 0.222945,0.176441 0.422638,-0.02325 l 11.235488,-11.23549 c 0.199693,-0.199693 -0.02963,0.42901 -0.229318,0.628703 L 25.82733,55.722933 c -0.199693,0.199693 0.261659,0.137727 0.461352,-0.06197 l 9.735778,-9.735778 c 0.199693,-0.199693 -0.115616,0.515002 -0.315309,0.714694 l -8.933722,8.933722 c -0.199693,0.199693 0.269979,0.129407 0.469671,-0.07029 l 8.15344,-8.15344 c 0.199693,-0.199693 -0.163369,0.562754 -0.363061,0.762447 l -7.183494,7.183494 c -0.199693,0.199693 0.411644,-0.01226 0.611337,-0.211951 L 34.807491,48.7397 M 50.968526,30.182351 57.86804,23.282837 c 0.199693,-0.199693 0.289801,0.109584 0.09011,0.309277 l -7.137366,7.137366 c -0.199693,0.199693 -0.497206,0.896592 -0.297513,0.696899 l 7.476343,-7.476343 c 0.199693,-0.199693 0.175786,0.223599 -0.02391,0.423292 l -7.74995,7.74995 c -0.199693,0.199693 -0.497206,0.896592 -0.297513,0.696899 l 7.942529,-7.942529 c 0.199693,-0.199693 0.04845,0.350934 -0.151241,0.550627 l -8.088801,8.088801 c -0.199693,0.199693 -0.497206,0.896592 -0.297513,0.696899 l 8.015286,-8.015286 c 0.199693,-0.199693 -0.07462,0.47401 -0.274317,0.673703 l -8.038483,8.038483 c -0.199693,0.199693 -0.497206,0.896592 -0.297513,0.696899 l 8.063171,-8.063171 c 0.199693,-0.199693 -0.07313,0.472518 -0.272825,0.672211 l -8.087859,8.087859 c -0.199693,0.199693 -0.497206,0.896592 -0.297513,0.696899 l 8.112547,-8.112547 c 0.199693,-0.199693 -0.07313,0.472518 -0.272825,0.672211 l -8.137235,8.137235 c -0.199693,0.199693 -0.497206,0.896592 -0.297513,0.696899 l 8.161924,-8.161924 c 0.199693,-0.199693 -0.07313,0.472518 -0.272825,0.672211 l -8.186612,8.186612 c -0.199693,0.199693 -0.497206,0.896592 -0.297513,0.696899 l 8.2113,-8.2113 c 0.199693,-0.199693 -0.07313,0.472518 -0.272825,0.672211 l -8.235988,8.235988 c -0.199693,0.199693 -0.521162,0.920548 -0.321469,0.720855 L 54.61876,32.92229 c 0.199693,-0.199693 -0.07313,0.472518 -0.272825,0.672211 l -8.258269,8.258269 c -0.199693,0.199693 -0.433257,0.832643 -0.233564,0.63295 l 8.219008,-8.219008 c 0.199693,-0.199693 -0.07313,0.472518 -0.272825,0.672211 l -8.105764,8.105764 c -0.199693,0.199693 -0.309641,0.709027 -0.109948,0.509334 l 7.942888,-7.942888 c 0.199693,-0.199693 -0.07313,0.472518 -0.272825,0.672211 L 45.53641,44.00157 c -0.199693,0.199693 -0.205015,0.604401 -0.0053,0.404708 l 7.450723,-7.450723 c 0.199693,-0.199693 -0.07313,0.472518 -0.272825,0.672211 l -7.126287,7.126287 c -0.199693,0.199693 -0.12404,0.523425 0.07565,0.323733 l 6.777808,-6.777808 c 0.199693,-0.199693 -0.07313,0.472518 -0.272825,0.672211 l -6.392899,6.392899 c -0.199693,0.199693 -0.06698,0.466367 0.132711,0.266674 l 5.987363,-5.987363 c 0.199693,-0.199693 -0.07313,0.472518 -0.272825,0.672211 l -5.556502,5.556502 c -0.199693,0.199693 -0.01819,0.417575 0.181503,0.217882 l 5.102173,-5.102173 c 0.199693,-0.199693 -0.07313,0.472518 -0.272825,0.672211 l -4.626099,4.626099 c -0.199693,0.199693 0.02635,0.373039 0.22604,0.173346 l 4.127234,-4.127234 c 0.199693,-0.199693 -0.07313,0.472518 -0.272825,0.672211 l -3.60619,3.60619 c -0.199693,0.199693 0.06726,0.33213 0.266949,0.132437 l 3.582503,-3.582503 c 0.199693,-0.199693 0.599079,-0.199693 0.399386,0 l -3.697394,3.697394 c -0.199693,0.199693 0.105499,0.293887 0.305192,0.09419 l 3.791588,-3.791588 c 0.199693,-0.199693 0.599079,-0.199693 0.399386,0 l -3.868032,3.868032 c -0.199693,0.199693 0.13926,0.260125 0.338953,0.06043 l 3.928465,-3.928465 c 0.199693,-0.199693 0.599079,-0.199693 0.399386,0 l -3.968357,3.968357 c -0.199693,0.199693 0.176643,0.222743 0.376336,0.02305 l 3.991407,-3.991407 c 0.199693,-0.199693 0.615478,-0.216092 0.415785,-0.0164 l -4.015691,4.015691 c -0.199693,0.199693 0.200377,0.199009 0.40007,-6.84e-4 l 3.991557,-3.991557 c 0.199693,-0.199693 0.568513,-0.169127 0.36882,0.03057 l -3.960991,3.960991 c -0.199693,0.199693 0.199693,0.199693 0.399386,0 l 3.908535,-3.908535 c 0.199693,-0.199693 0.518947,-0.119561 0.319254,0.08013 l -3.828403,3.828403 c -0.199693,0.199693 0.199693,0.199693 0.399386,0 l 3.718631,-3.718631 c 0.199693,-0.199693 0.456103,-0.05672 0.25641,0.142975 l -3.575656,3.575656 c -0.199693,0.199693 0.199693,0.199693 0.399386,0 l 3.395374,-3.395374 c 0.199693,-0.199693 0.376875,0.02251 0.177182,0.222204 l -3.173171,3.173171 c -0.199693,0.199693 0.181169,0.218217 0.380862,0.01852 l 2.92249,-2.92249 c 0.199693,-0.199693 0.277282,0.122104 0.07759,0.321797 l -2.596158,2.596158 c -0.199693,0.199693 0.282886,0.1165 0.482579,-0.08319 l 2.127154,-2.127154 c 0.199693,-0.199693 0.190258,0.209128 -0.0094,0.408821 l -1.607284,1.607284 c -0.199693,0.199693 0.434069,-0.03468 0.633762,-0.234376 l 0.97585,-0.97585 m -8.99266,-11.775454 -0.770547,0.770547 m -17.454009,20.249708 5.447475,-5.447475 m -4.509419,4.908805 4.001042,-4.001042 m -2.878774,3.278159 2.026235,-2.026235"
             id="path1182" />
        </g>
        <g
           id="g1189">
          <path
             id="path7783"
             style="font-style:normal;font-variant:normal;font-weight:normal;font-stretch:normal;font-size:38.4443px;font-family:'Harlow Solid Italic';-inkscape-font-specification:'Harlow Solid Italic, ';stroke-width:0.320369"
             d="m 71.28875,43.311875 h 2.06488 q 2.365226,0 2.365226,1.651904 0,1.145069 -0.844724,1.802076 -0.844723,0.638236 -2.327682,0.638236 h -2.402769 q -1.61436,0 -2.196281,-1.257699 -1.407872,1.257699 -2.721887,1.257699 h -2.139966 q -2.064879,0 -3.34135,-1.464187 -1.257699,-1.482959 -1.257699,-3.866957 0,-3.604153 2.477855,-6.438669 2.496627,-2.853288 5.63149,-2.853288 2.402768,0 3.510295,1.670675 0.938581,-1.407872 2.459083,-1.407872 0.825952,0 1.37033,0.525605 0.563149,0.525606 0.563149,1.295243 0,0.525606 -0.300347,1.257699 l -0.206488,0.506834 z m -6.814102,0.09386 h 0.469291 q 1.539274,0 2.046108,-1.257699 l 1.314014,-3.247492 q 0.262803,-0.638236 0.262803,-1.069983 0,-0.506834 -0.506834,-0.882267 -0.488063,-0.375433 -1.182613,-0.375433 -1.370329,0 -2.665572,1.595589 -1.295242,1.595589 -1.295242,3.303807 0,1.933478 1.558045,1.933478 z" />
          <path
             style="fill:none;stroke:#000000;stroke-width:0.320369"
             d="m 62.707479,34.098068 -2.381578,2.381578 m -0.563689,0.963074 3.679762,-3.679762 c 0.199693,-0.199693 0.923558,-0.524173 0.723866,-0.32448 l -4.636009,4.636009 c -0.199693,0.199693 -0.454499,0.853885 -0.254806,0.654192 l 5.480855,-5.480855 c 0.199693,-0.199693 0.717317,-0.317931 0.517624,-0.118238 l -6.188646,6.188646 c -0.199693,0.199693 -0.37691,0.776295 -0.177217,0.576602 l 6.831691,-6.831691 c 0.199693,-0.199693 0.649777,-0.250391 0.450084,-0.0507 l -7.334095,7.334095 c -0.199693,0.199693 -0.263008,0.662394 -0.06332,0.462701 l 7.781505,-7.781505 c 0.199693,-0.199693 0.590583,-0.191197 0.39089,0.0085 l -8.21174,8.21174 c -0.199693,0.199693 -0.219181,0.618567 -0.01949,0.418874 l 8.579852,-8.579852 c 0.199693,-0.199693 0.535349,-0.135963 0.335656,0.06373 l -8.915871,8.915871 c -0.199693,0.199693 -0.186656,0.586041 0.01304,0.386348 l 9.218859,-9.218859 c 0.199693,-0.199693 0.496822,-0.09744 0.297129,0.102257 l -9.482304,9.482304 c -0.199693,0.199693 -0.150643,0.550029 0.04905,0.350336 l 9.708378,-9.708378 c 0.199693,-0.199693 0.456903,-0.05752 0.25721,0.142176 l -3.386545,3.386545 m -1.433177,1.433178 -5.081853,5.081853 c -0.199693,0.199693 -0.120613,0.519999 0.07908,0.320306 l 4.230392,-4.230392 c 0.199693,-0.199693 -0.146937,0.546323 -0.34663,0.746016 l -3.788538,3.788538 c -0.199693,0.199693 -0.09078,0.49017 0.108908,0.290477 l 3.587536,-3.587536 c 0.199693,-0.199693 0.120952,0.278434 -0.07874,0.478126 l -3.386547,3.386547 c -0.199693,0.199693 -0.06388,0.463266 0.135813,0.263573 l 3.241311,-3.241311 c 0.199693,-0.199693 0.222873,0.176512 0.02318,0.376205 l -3.114649,3.114649 c -0.199693,0.199693 -0.03761,0.436996 0.162082,0.237303 l 3.014003,-3.014003 c 0.199693,-0.199693 0.29516,0.104226 0.09547,0.303919 l -2.935448,2.935448 c -0.199693,0.199693 -0.01189,0.411271 0.187807,0.211578 l 2.882229,-2.882229 c 0.199693,-0.199693 0.376243,0.02314 0.17655,0.222836 l -2.857256,2.857256 c -0.199693,0.199693 0.0156,0.383785 0.215294,0.184092 l 2.860619,-2.860619 c 0.199693,-0.199693 0.467587,-0.0682 0.267894,0.131492 l -2.899708,2.899708 c -0.199693,0.199693 0.04331,0.356076 0.243003,0.156383 l 2.971481,-2.971481 c 0.199693,-0.199693 0.57067,-0.171284 0.370977,0.02841 l -3.082095,3.082095 c -0.199693,0.199693 0.07743,0.321956 0.277123,0.122263 l 3.205309,-3.205309 c 0.199693,-0.199693 0.615716,-0.21633 0.416023,-0.01664 l -3.32724,3.32724 c -0.199693,0.199693 0.116739,0.282646 0.316432,0.08295 l 3.744199,-3.744199 m 0.34711,-6.73728 2.798369,-2.798369 c 0.199693,-0.199693 0.422647,-0.02326 0.222955,0.176431 L 66.8617,36.334018 c -0.199693,0.199693 0.193878,0.205508 0.39357,0.0058 l 2.205386,-2.205386 c 0.199693,-0.199693 0.387533,0.01185 0.18784,0.211546 l -2.062978,2.062978 c -0.199693,0.199693 0.106742,0.292644 0.306434,0.09295 l 2.078641,-2.078641 m 1.486983,-1.087597 -3.306666,3.306666 c -0.199693,0.199693 0.02812,0.371266 0.227812,0.171574 l 3.473552,-3.473552 c 0.199693,-0.199693 0.648357,-0.248972 0.448664,-0.04928 L 68.574,37.018031 c -0.199693,0.199693 -0.0473,0.446691 0.152387,0.246998 l 3.96186,-3.96186 c 0.199693,-0.199693 0.531425,-0.132039 0.331732,0.06765 l -4.21505,4.21505 c -0.199693,0.199693 -0.223041,0.622426 -0.02335,0.422734 l 4.521544,-4.521544 c 0.199693,-0.199693 0.445161,-0.04578 0.245469,0.153917 l -4.918464,4.918464 c -0.199693,0.199693 -0.46664,0.866026 -0.266947,0.666333 l 5.398514,-5.398514 c 0.199693,-0.199693 0.385255,0.01413 0.185562,0.213824 l -5.855503,5.855503 c -0.199693,0.199693 -0.47112,0.870506 -0.271427,0.670813 l 6.277802,-6.277802 c 0.199693,-0.199693 0.305118,0.09427 0.105425,0.293961 L 67.5489,41.238212 c -0.199693,0.199693 -0.513489,0.912874 -0.313796,0.713181 l 7.018242,-7.018242 c 0.199693,-0.199693 0.186604,0.212782 -0.01309,0.412475 L 62.479991,47.105898 c -0.199693,0.199693 0.160974,0.238412 0.360667,0.03872 L 74.08823,35.897045 c 0.199693,-0.199693 -0.05546,0.454849 -0.255156,0.654542 L 63.224735,47.159926 c -0.199693,0.199693 0.199432,0.199954 0.399125,2.61e-4 l 9.936995,-9.936995 c 0.199693,-0.199693 -0.07159,0.470974 -0.271281,0.670667 l -9.266328,9.266328 c -0.199693,0.199693 0.199693,0.199693 0.399386,0 l 8.595661,-8.595661 c 0.199693,-0.199693 -0.07159,0.470974 -0.271281,0.670667 l -7.924995,7.924995 c -0.199693,0.199693 0.199693,0.199693 0.399386,0 l 7.254328,-7.254328 c 0.199693,-0.199693 -0.07159,0.470974 -0.271281,0.670667 l -6.600499,6.600499 c -0.199693,0.199693 0.289339,0.110046 0.489032,-0.08965 l 5.840186,-5.840186 c 0.199693,-0.199693 -0.07159,0.470974 -0.271281,0.670667 l -5.061856,5.061856 m 4.940345,-4.540963 -3.909272,3.909272 c -0.199693,0.199693 0.432586,-0.0332 0.632279,-0.232893 l 2.855943,-2.855943 c 0.199693,-0.199693 0.302487,0.0969 0.102794,0.296591 l -2.802574,2.802574 c -0.199693,0.199693 -0.01271,0.412096 0.186982,0.212403 l 3.014977,-3.014977 c 0.199693,-0.199693 0.599079,-0.199693 0.399386,0 l -3.197588,3.197588 c -0.199693,0.199693 0.04902,0.350364 0.248715,0.150671 l 3.348259,-3.348259 c 0.199693,-0.199693 0.599079,-0.199693 0.399386,0 l -3.465502,3.465502 c -0.199693,0.199693 0.117366,0.28202 0.317059,0.08233 l 3.547471,-3.547471 c 0.199693,-0.199693 0.584554,-0.185168 0.384861,0.01452 l -3.578813,3.578813 c -0.199693,0.199693 0.188984,0.210402 0.388677,0.01071 l 3.552677,-3.552677 c 0.199693,-0.199693 0.530859,-0.131474 0.331166,0.06822 l -3.484457,3.484457 c -0.199693,0.199693 0.199693,0.199693 0.399386,0 l 3.384712,-3.384712 c 0.199693,-0.199693 0.463894,-0.06451 0.264201,0.135185 l -3.249528,3.249528 c -0.199693,0.199693 0.199693,0.199693 0.399386,0 l 3.07483,-3.07483 c 0.199693,-0.199693 0.380295,0.01909 0.180602,0.218784 l -2.856047,2.856047 c -0.199693,0.199693 0.201271,0.198115 0.400963,-0.0016 l 2.582981,-2.582981 c 0.199693,-0.199693 0.269425,0.12996 0.06973,0.329653 l -2.232075,2.232075 c -0.199693,0.199693 0.264025,0.13536 0.463718,-0.06433 l 1.774948,-1.774948 c 0.199693,-0.199693 0.176311,0.223075 -0.02338,0.422768 l -1.235562,1.235562 c -0.199693,0.199693 0.457534,-0.05815 0.657227,-0.257842 l 0.438819,-0.438819"
             id="path1187" />
        </g>
        <g
           id="g1194">
          <path
             id="path7785"
             style="font-style:normal;font-variant:normal;font-weight:normal;font-stretch:normal;font-size:38.4443px;font-family:'Harlow Solid Italic';-inkscape-font-specification:'Harlow Solid Italic, ';stroke-width:0.320369"
             d="m 87.8641,39.463691 2.909603,4.561506 q 0.544377,0.844724 0.544377,1.389101 0,0.863495 -0.732093,1.558045 -0.713322,0.694551 -1.614361,0.694551 -0.788408,0 -1.370329,-0.844724 l -0.225259,-0.337889 -4.355019,-6.513756 -2.102423,5.199742 q -1.013668,2.496627 -2.965917,2.496627 -0.807181,0 -1.37033,-0.488063 -0.544377,-0.506834 -0.544377,-1.220156 0,-0.544377 0.300346,-1.257699 l 0.206488,-0.506834 8.034259,-19.804072 0.206488,-0.506834 q 0.863495,-2.102422 2.759429,-2.102422 0.788409,0 1.351558,0.525605 0.563149,0.525606 0.563149,1.2577 0,0.563149 -0.300346,1.295242 l -0.206488,0.506834 -4.786766,11.788585 4.223617,-3.134862 q 1.314014,-0.976125 2.252596,-0.976125 0.788408,0 1.314014,0.506834 0.525605,0.506834 0.525605,1.257699 0,1.257699 -1.3891,2.290139 l -0.431748,0.319118 z" />
          <path
             style="fill:none;stroke:#000000;stroke-width:0.320369"
             d="m 85.126717,23.35472 1.131434,-1.131434 c 0.199693,-0.199693 0.740006,-0.34062 0.540313,-0.140927 l -1.837381,1.837381 c -0.199693,0.199693 -0.47335,0.872736 -0.273657,0.673043 l 2.562897,-2.562897 c 0.199693,-0.199693 0.591053,-0.191668 0.39136,0.008 l -3.226885,3.226885 c -0.199693,0.199693 -0.47232,0.871705 -0.272627,0.672013 L 87.976455,22.1025 c 0.199693,-0.199693 0.478802,-0.07942 0.279109,0.120276 l -4.38602,4.38602 c -0.199693,0.199693 -0.47232,0.871705 -0.272627,0.672013 l 4.905105,-4.905105 c 0.199693,-0.199693 0.415425,-0.01604 0.215732,0.183654 l -5.393464,5.393464 c -0.199693,0.199693 -0.47232,0.871705 -0.272627,0.672013 l 5.853244,-5.853244 c 0.199693,-0.199693 0.353132,0.04625 0.15344,0.245946 l -6.279311,6.279311 c -0.199693,0.199693 -0.47232,0.871705 -0.272627,0.672013 L 89.16634,23.30893 c 0.199693,-0.199693 0.249311,0.150075 0.04962,0.349768 l -6.982176,6.982176 c -0.199693,0.199693 -0.47232,0.871705 -0.272627,0.672013 l 7.247717,-7.247717 c 0.199693,-0.199693 0.114965,0.284421 -0.08473,0.484114 L 81.688528,31.9849 c -0.199693,0.199693 -0.47232,0.871705 -0.272627,0.672013 l 7.384924,-7.384924 c 0.199693,-0.199693 -0.07382,0.473207 -0.273515,0.6729 l -7.384036,7.384036 c -0.199693,0.199693 -0.47232,0.871705 -0.272627,0.672013 l 7.383625,-7.383625 c 0.199693,-0.199693 -0.07335,0.472731 -0.273038,0.672424 l -7.383213,7.383213 c -0.199693,0.199693 -0.47232,0.871705 -0.272627,0.672013 l 7.382802,-7.382802 c 0.199693,-0.199693 -0.07335,0.472731 -0.273038,0.672424 l -7.38239,7.38239 c -0.199693,0.199693 -0.47232,0.871705 -0.272627,0.672013 l 7.381979,-7.381979 c 0.199693,-0.199693 -0.07335,0.472731 -0.273038,0.672424 L 79.507515,37.361 c -0.199693,0.199693 -0.47232,0.871705 -0.272627,0.672013 l 7.381156,-7.381156 c 0.199693,-0.199693 -0.07335,0.472731 -0.273038,0.672424 l -7.380744,7.380744 c -0.199693,0.199693 -0.47232,0.871705 -0.272627,0.672013 l 7.380333,-7.380333 c 0.199693,-0.199693 -0.07335,0.472731 -0.273038,0.672424 l -7.379921,7.379921 c -0.199693,0.199693 -0.47232,0.871705 -0.272627,0.672013 l 7.37951,-7.37951 c 0.199693,-0.199693 -0.07335,0.472731 -0.273038,0.672424 L 77.871756,41.3931 c -0.199693,0.199693 -0.47232,0.871705 -0.272627,0.672013 l 7.378686,-7.378686 c 0.199693,-0.199693 -0.07335,0.472731 -0.273038,0.672424 l -7.378275,7.378275 c -0.199693,0.199693 -0.47232,0.871705 -0.272627,0.672013 l 7.377863,-7.377863 c 0.199693,-0.199693 -0.07335,0.472731 -0.273038,0.672424 l -7.377456,7.377456 c -0.199693,0.199693 -0.552833,0.952219 -0.35314,0.752526 l 7.635895,-7.635895 m 0.967419,-0.568041 -8.698872,8.698872 c -0.199693,0.199693 -0.251045,0.65043 -0.05135,0.450737 L 86.580758,35.479791 m 1.907774,-1.508388 -12.17221,12.17221 c -0.199693,0.199693 -0.100593,0.499978 0.0991,0.300286 L 89.267275,33.592046 c 0.199693,-0.199693 0.86716,-0.467775 0.667467,-0.268082 l -6.58904,6.58904 c -0.199693,0.199693 -0.03966,0.439048 0.16003,0.239355 l 6.86056,-6.86056 c 0.199693,-0.199693 0.585877,-0.186492 0.386184,0.0132 l -7.086714,7.086714 c -0.199693,0.199693 -0.03966,0.439048 0.16003,0.239355 l 7.257841,-7.257841 c 0.199693,-0.199693 0.479973,-0.08059 0.28028,0.119106 l -7.378091,7.378091 c -0.199693,0.199693 -0.03966,0.439048 0.16003,0.239355 l 7.45998,-7.45998 c 0.199693,-0.199693 0.406922,-0.0075 0.207229,0.192156 l -7.507179,7.507179 c -0.199693,0.199693 -0.03966,0.439048 0.16003,0.239355 l 7.52196,-7.52196 c 0.199693,-0.199693 0.336652,0.06273 0.13696,0.262426 l -7.49889,7.49889 c -0.199693,0.199693 -0.03966,0.439048 0.16003,0.239355 l 7.426317,-7.426317 c 0.199693,-0.199693 0.22774,0.171646 0.02805,0.371338 l -7.294334,7.294334 c -0.199693,0.199693 -0.03966,0.439048 0.16003,0.239355 l 2.666366,-2.666366 c 0.199693,-0.199693 0.355233,0.04415 0.15554,0.243846 l -2.661875,2.661875 c -0.199693,0.199693 -0.03966,0.439048 0.16003,0.239355 l 2.657385,-2.657385 c 0.199693,-0.199693 0.355233,0.04415 0.15554,0.243846 l -2.652894,2.652894 c -0.199693,0.199693 -0.03966,0.439048 0.16003,0.239355 l 2.648404,-2.648404 c 0.199693,-0.199693 0.355233,0.04415 0.15554,0.243846 l -2.643913,2.643913 c -0.199693,0.199693 -0.03966,0.439048 0.16003,0.239355 l 2.639423,-2.639423 c 0.199693,-0.199693 0.355233,0.04415 0.15554,0.243846 l -2.634932,2.634932 c -0.199693,0.199693 -0.03966,0.439048 0.16003,0.239355 l 2.630442,-2.630442 c 0.199693,-0.199693 0.355233,0.04415 0.15554,0.243846 l -2.625951,2.625951 c -0.199693,0.199693 -0.03966,0.439048 0.16003,0.239355 L 89.327798,42.318 c 0.199693,-0.199693 0.355233,0.04415 0.15554,0.243846 l -2.61697,2.61697 c -0.199693,0.199693 -0.03966,0.439048 0.16003,0.239355 l 2.612479,-2.612479 c 0.199693,-0.199693 0.355233,0.04415 0.15554,0.243846 l -2.607989,2.607989 c -0.199693,0.199693 -0.03966,0.439048 0.16003,0.239355 l 2.603498,-2.603498 c 0.199693,-0.199693 0.355233,0.04415 0.15554,0.243846 l -2.599008,2.599008 c -0.199693,0.199693 -0.03977,0.439156 0.159923,0.239463 l 2.594625,-2.594625 c 0.199693,-0.199693 0.355233,0.04415 0.15554,0.243846 l -2.590516,2.590516 c -0.199693,0.199693 -0.02649,0.425876 0.173202,0.226183 l 2.572313,-2.572313 c 0.199693,-0.199693 0.349056,0.05033 0.149363,0.250023 l -2.525841,2.525841 c -0.199693,0.199693 0.02712,0.372266 0.226812,0.172573 l 2.436192,-2.436192 c 0.199693,-0.199693 0.316222,0.08316 0.116529,0.282856 l -2.285131,2.285131 c -0.199693,0.199693 0.130462,0.268924 0.330155,0.06923 l 2.037523,-2.037523 c 0.199693,-0.199693 0.20511,0.194276 0.0054,0.393968 l -1.656133,1.656133 c -0.199693,0.199693 0.326276,0.07311 0.525969,-0.126583 l 1.206113,-1.206113 m -8.469335,-5.509155 -6.107257,6.107257 c -0.199693,0.199693 -0.01403,0.413419 0.18566,0.213726 l 5.500729,-5.500729 c 0.199693,-0.199693 -0.0714,0.470791 -0.271098,0.670484 l -5.009897,5.009897 c -0.199693,0.199693 0.05295,0.346436 0.252642,0.146743 l 4.486156,-4.486156 c 0.199693,-0.199693 -0.0714,0.470791 -0.271098,0.670484 l -3.922984,3.922984 c -0.199693,0.199693 0.13601,0.263375 0.335703,0.06368 l 3.316183,-3.316183 c 0.199693,-0.199693 -0.0714,0.470791 -0.271098,0.670484 l -2.658135,2.658135 c -0.199693,0.199693 0.260773,0.138613 0.460465,-0.06108 L 80.8313,45.223105 m -0.432592,0.831979 -1.271498,1.271498 m 10.378848,-9.180691 2.675736,-2.675736 c 0.199693,-0.199693 -1.65e-4,0.399551 -0.199858,0.599244 l -1.266907,1.266907"
             id="path1192" />
        </g>
        <g
           id="g1199">
          <path
             id="path7787"
             style="font-style:normal;font-variant:normal;font-weight:normal;font-stretch:normal;font-size:38.4443px;font-family:'Harlow Solid Italic';-inkscape-font-specification:'Harlow Solid Italic, ';stroke-width:0.320369"
             d="m 97.437632,41.904003 q 0,1.407872 2.121194,1.407872 H 105.134 q 2.36523,0 2.36523,1.670675 0,1.14507 -0.84473,1.783305 -0.82595,0.638236 -2.32768,0.638236 h -5.312371 q -2.965918,0 -4.523963,-1.464187 -1.539274,-1.464188 -1.539274,-4.279932 0,-3.622925 2.440312,-6.250954 2.459084,-2.628028 5.837976,-2.628028 2.45909,0 3.94204,1.295242 1.50173,1.276471 1.50173,3.378894 0,2.53417 -2.06487,3.754326 -1.14507,0.694551 -3.41644,0.694551 z m 0.901038,-3.416437 h 2.06488 q 2.00856,0 1.95225,-0.882267 -0.0563,-0.994896 -1.29524,-0.994896 -1.726993,0 -2.72189,1.877163 z" />
          <path
             style="fill:none;stroke:#000000;stroke-width:0.320369"
             d="m 96.457731,34.466436 -1.559291,1.559291 m -0.6872,1.086586 3.145577,-3.145577 c 0.199693,-0.199693 0.955577,-0.556191 0.755884,-0.356498 l -4.135479,4.135479 c -0.199693,0.199693 -0.527575,0.926961 -0.327882,0.727268 l 5.155283,-5.155283 c 0.199693,-0.199693 0.691658,-0.292273 0.491965,-0.09258 l -5.772286,5.772286 c -0.199693,0.199693 -0.329373,0.728759 -0.12968,0.529066 l 6.401413,-6.401413 c 0.199693,-0.199693 0.658275,-0.258894 0.458585,-0.0592 l -6.947648,6.94765 c -0.199693,0.199693 -0.258332,0.657717 -0.05864,0.458025 l 7.437218,-7.437217 c 0.19969,-0.199693 0.60825,-0.208862 0.40856,-0.0092 l -7.880984,7.880978 c -0.199693,0.199693 -0.215702,0.615088 -0.01601,0.415395 l 8.286314,-8.286307 c 0.19969,-0.199693 0.5732,-0.173821 0.37351,0.02587 l -8.658183,8.65818 c -0.199693,0.199693 -0.18398,0.583366 0.01571,0.383673 l 9.001223,-9.001223 c 0.1997,-0.199693 0.54008,-0.140693 0.34039,0.059 l -9.312127,9.312123 c -0.199693,0.199693 -0.152394,0.551779 0.0473,0.352086 l 9.590617,-9.590612 c 0.19969,-0.199693 0.51121,-0.111824 0.31151,0.08787 l -9.840131,9.840132 c -0.199693,0.199693 -0.123166,0.522551 0.07653,0.322859 l 4.753702,-4.753702 c 0.199693,-0.199693 0.599079,-0.199693 0.399386,0 l -5.062193,5.062193 c -0.199693,0.199693 -0.09459,0.493977 0.105102,0.294284 l 5.356477,-5.356477 c 0.199693,-0.199693 0.599079,-0.199693 0.399386,0 l -5.636712,5.636712 c -0.199693,0.199693 -0.06665,0.466036 0.133043,0.266343 l 5.903055,-5.903055 c 0.199693,-0.199693 0.612055,-0.212668 0.412365,-0.01297 l -6.168641,6.168636 c -0.199693,0.199693 -0.04019,0.439578 0.159501,0.239885 l 6.40302,-6.403019 c 0.19969,-0.199693 0.63253,-0.233142 0.43283,-0.03345 l -2.969543,2.969546 c -0.199693,0.199693 0.199693,0.199693 0.399386,0 l 3.259437,-3.259437 m -1.42141,-1.773674 3.20347,-3.203474 c 0.1997,-0.199693 0.48151,-0.08212 0.28182,0.117569 l -2.8389,2.838903 c -0.1997,0.199693 0.20975,0.189629 0.40945,-0.01006 l 2.69804,-2.698046 c 0.1997,-0.199693 0.45535,-0.05596 0.25566,0.143729 l -2.60153,2.601531 c -0.19969,0.199693 0.10626,0.293124 0.30595,0.09343 l 2.53858,-2.538577 c 0.19969,-0.199693 0.43046,-0.03107 0.23077,0.168619 l -2.52471,2.524709 c -0.1997,0.199693 -0.013,0.412364 0.18671,0.212671 l 2.55533,-2.555326 c 0.19969,-0.199693 0.40742,-0.008 0.20772,0.191662 l -2.64508,2.645087 c -0.1997,0.199693 -0.15092,0.550301 0.0488,0.350609 l 2.79159,-2.791583 c 0.19969,-0.199693 0.3819,0.01748 0.18221,0.217172 l -6.724493,6.724492 c -0.199693,0.199693 0.199693,0.199693 0.399386,0 l 6.493617,-6.493615 c 0.19969,-0.199693 0.35056,0.04883 0.15087,0.248518 l -6.245101,6.245096 c -0.199693,0.199693 0.199693,0.199693 0.399391,0 l 5.98158,-5.981583 c 0.19969,-0.199693 0.31927,0.08011 0.11958,0.279804 l -5.70178,5.701779 c -0.19969,0.199693 0.19969,0.199693 0.39939,0 l 5.40085,-5.400858 c 0.1997,-0.199693 0.27969,0.119695 0.08,0.319388 l -5.08147,5.081469 c -0.19969,0.199693 0.20267,0.196716 0.40237,-0.003 l 4.74771,-4.747712 c 0.19969,-0.199693 0.22308,0.176303 0.0234,0.375996 l -4.35479,4.354789 c -0.19969,0.199693 0.20519,0.194197 0.40488,-0.0055 l 3.97025,-3.97025 c 0.19969,-0.199693 0.16677,0.232616 -0.0329,0.432309 l -3.4663,3.466297 c -0.19969,0.199693 0.2549,0.144481 0.4546,-0.05521 l 2.95393,-2.953937 c 0.1997,-0.199693 0.0678,0.331589 -0.13189,0.531282 l -2.23885,2.238851 c -0.1997,0.199693 0.47726,-0.07788 0.67695,-0.277569 l 1.46276,-1.462761 m -8.723566,2.732782 -3.034796,3.034796 c -0.199693,0.199693 -0.0116,0.410987 0.188092,0.211294 l 2.8106,-2.8106 c 0.199693,-0.199693 0.3669,0.03249 0.167208,0.232178 l -2.776405,2.776405 c -0.199693,0.199693 0.0155,0.383885 0.215193,0.184192 l 2.775414,-2.775414 c 0.199693,-0.199693 0.456117,-0.05673 0.256424,0.142962 l -2.803845,2.803845 c -0.199693,0.199693 0.04114,0.358245 0.240833,0.158553 l 2.854168,-2.854168 c 0.199693,-0.199693 0.53596,-0.136574 0.336267,0.06312 l -2.936725,2.936725 c -0.199693,0.199693 0.06693,0.332454 0.266624,0.132761 l 3.015248,-3.015248 c 0.199693,-0.199693 0.583983,-0.184597 0.38429,0.0151 l -3.119964,3.119964 c -0.199693,0.199693 0.09286,0.306522 0.292557,0.106829 l 3.223996,-3.223996 c 0.199693,-0.199693 0.599077,-0.199693 0.399387,0 l -3.317809,3.317808 c -0.199693,0.199693 0.118932,0.280453 0.318625,0.08076 l 3.398574,-3.398569 c 0.19969,-0.199693 0.59907,-0.199693 0.39938,0 l -3.466243,3.466244 c -0.199693,0.199693 0.145138,0.254248 0.34483,0.05456 l 3.520803,-3.520799 c 0.19969,-0.199693 0.59908,-0.199693 0.39938,0 l -3.578798,3.5788 c -0.199693,0.199693 0.191556,0.20783 0.391248,0.0081 l 3.58694,-3.586937 c 0.19969,-0.199693 0.59908,-0.199693 0.39938,0 l -3.600943,3.600946 c -0.199693,0.199693 0.196234,0.203151 0.395927,0.0035 l 3.604406,-3.604405 c 0.19969,-0.199693 0.59908,-0.199693 0.39939,0 l -3.60441,3.604405 c -0.199693,0.199693 0.199693,0.199693 0.39939,0 l 3.6044,-3.604405 c 0.19969,-0.199693 0.59908,-0.199693 0.39939,0 l -3.60441,3.604405 c -0.19969,0.199693 0.1997,0.199693 0.39939,0 l 3.6044,-3.604405 c 0.1997,-0.199693 0.60001,-0.200624 0.40032,-9.31e-4 l -3.60534,3.605336 c -0.19969,0.199693 0.1997,0.199693 0.39939,0 l 3.59332,-3.593316 c 0.19969,-0.199693 0.56306,-0.163674 0.36336,0.03602 l -3.55729,3.557297 c -0.1997,0.199693 0.19969,0.199693 0.39938,0 l 3.49431,-3.494307 c 0.19969,-0.199693 0.50364,-0.104256 0.30395,0.09544 l -3.39887,3.39887 c -0.1997,0.199693 0.19969,0.199693 0.39938,0 l 3.26878,-3.268773 c 0.19969,-0.199693 0.43048,-0.0311 0.23079,0.168592 l -3.10018,3.100181 c -0.19969,0.199693 0.19969,0.199693 0.39939,0 l 2.88671,-2.886713 c 0.19969,-0.199693 0.33735,0.06203 0.13766,0.261727 l -2.6252,2.625202 c -0.1997,0.199693 0.21782,0.18156 0.41751,-0.01813 l 2.28745,-2.287446 c 0.19969,-0.199693 0.21573,0.183656 0.016,0.383349 l -1.85373,1.853726 c -0.19969,0.199693 0.27217,0.127219 0.47186,-0.07247 l 1.32656,-1.326564 c 0.1997,-0.199693 -0.0126,0.412016 -0.21232,0.611709 l -0.60352,0.603522"
             id="path1197" />
        </g>
        <g
           id="g1204">
          <path
             id="path7789"
             style="font-style:normal;font-variant:normal;font-weight:normal;font-stretch:normal;font-size:38.4443px;font-family:'Harlow Solid Italic';-inkscape-font-specification:'Harlow Solid Italic, ';stroke-width:0.320369"
             d="m 112.94301,37.15478 -0.63824,1.576817 q -0.8635,2.102423 -2.2526,2.102423 -0.84472,0 -1.40787,-0.506834 -0.56315,-0.506834 -0.56315,-1.2577 0,-0.431747 0.41298,-1.464187 l 2.12119,-5.237285 q 0.76964,-1.895935 2.17751,-1.895935 1.3891,0 1.70822,1.314014 l 0.15017,0.581921 q 0.11263,0.450519 0.33789,0.563149 0.22526,0.11263 1.10753,0.11263 h 4.39256 q 2.45909,0 2.45909,1.72699 0,2.383997 -3.1161,2.383997 l -0.20648,0.187716 q -2.98469,2.853288 -2.98469,4.411334 0,1.558045 1.72699,1.558045 h 2.36522 q 2.384,0 2.384,1.651904 0,1.163841 -0.84472,1.802076 -0.82596,0.638236 -2.32769,0.638236 h -3.67924 q -1.87716,0 -3.07854,-1.295243 -1.18262,-1.295242 -1.18262,-3.360122 0,-1.314014 0.63824,-2.552942 0.63823,-1.238927 2.2526,-3.041004 z" />
          <path
             style="fill:none;stroke:#000000;stroke-width:0.320369"
             d="m 111.36156,31.157441 0.1277,-0.127699 c 0.17026,-0.170265 0.83521,-0.435831 0.66495,-0.265566 l -1.18456,1.184558 c -0.19969,0.199693 -0.46121,0.860598 -0.26152,0.660906 l 1.89483,-1.894826 c 0.19969,-0.199693 0.57523,-0.17585 0.37554,0.02384 l -2.54224,2.542239 c -0.19969,0.199693 -0.47156,0.870949 -0.27187,0.671256 l 3.13801,-3.138006 c 0.19969,-0.199693 0.47469,-0.07531 0.275,0.124386 l -3.68488,3.684876 c -0.19969,0.199693 -0.47156,0.870949 -0.27187,0.671256 l 4.18516,-4.18516 c 0.19969,-0.199693 0.38292,0.01646 0.18323,0.216154 l -4.64026,4.640262 c -0.19969,0.199693 -0.47156,0.870949 -0.27187,0.671256 l 5.05502,-5.055017 c 0.19969,-0.199693 0.30488,0.0945 0.10519,0.294196 l -5.51816,5.518158 c -0.19969,0.199693 -0.36428,0.763667 -0.16459,0.563975 l 5.76593,-5.76593 c 0.19969,-0.199693 0.28162,0.117769 0.0819,0.317462 l -6.02119,6.021194 c -0.19969,0.199693 -0.25515,0.654535 -0.0555,0.454842 l 6.17501,-6.175006 c 0.19969,-0.199693 0.35392,0.04546 0.15423,0.245154 l -6.27945,6.279449 c -0.19969,0.199693 -0.0917,0.491053 0.10803,0.29136 l 6.42239,-6.422387 c 0.19969,-0.199693 0.54222,-0.142839 0.34253,0.05685 l -6.61011,6.610108 c -0.19969,0.199693 -0.009,0.408689 0.19039,0.208996 l 6.79849,-6.798493 c 0.19969,-0.199693 0.59347,-0.194081 0.39378,0.0056 l -6.97116,6.971156 c -0.19969,0.199693 0.0539,0.345504 0.25357,0.145811 l 7.11697,-7.116967 c 0.19969,-0.199693 0.59908,-0.199693 0.39939,0 l -3.62318,3.623176 c -0.19969,0.199693 0.19969,0.199693 0.39939,0 l 3.62317,-3.623176 c 0.1997,-0.199693 0.59908,-0.199693 0.39939,0 l -3.62318,3.623176 c -0.19969,0.199693 0.1997,0.199693 0.39939,0 l 3.62318,-3.623176 c 0.19969,-0.199693 0.59907,-0.199693 0.39938,0 l -3.62317,3.623176 c -0.1997,0.199693 -0.27,0.669385 -0.0703,0.469692 l 4.09287,-4.092868 c 0.19969,-0.199693 0.59908,-0.199693 0.39938,0 l -5.8591,5.859101 m -0.59093,-1.805387 -3.17027,3.170271 c -0.19969,0.199693 0.13736,0.262028 0.33705,0.06234 l 2.41187,-2.411865 c 0.19969,-0.199693 -0.0719,0.471278 -0.27159,0.670971 l -1.75114,1.751139 c -0.19969,0.199693 0.24608,0.15331 0.44577,-0.04638 l 1.08411,-1.084106 m 0.89507,0.702466 6.86855,-6.868548 c 0.19969,-0.199693 0.59908,-0.199693 0.39939,0 l -7.48062,7.480615 c -0.19969,0.199693 -0.31959,0.718981 -0.1199,0.519288 l 7.99822,-7.998226 c 0.1997,-0.199693 0.5823,-0.182911 0.38261,0.01678 l -8.48421,8.484211 c -0.1997,0.199693 -0.2507,0.650084 -0.051,0.450391 l 8.89457,-8.894567 c 0.19969,-0.199693 0.52985,-0.130462 0.33015,0.06923 l -9.23525,9.235254 c -0.19969,0.199693 -0.19244,0.591824 0.007,0.392132 l 9.52745,-9.527446 c 0.19969,-0.199693 0.46504,-0.06565 0.26534,0.13404 l -9.75114,9.751141 c -0.19969,0.199693 -0.1507,0.550092 0.049,0.350399 l 9.92952,-9.929522 c 0.1997,-0.199693 0.38475,0.01464 0.18505,0.214336 l -10.03502,10.035026 c -0.1997,0.199693 -0.10786,0.507241 0.0918,0.307548 l 10.08119,-10.081188 c 0.19969,-0.199693 0.28174,0.117643 0.0821,0.317335 l -2.28563,2.285628 c -0.19969,0.199693 0.24272,0.156665 0.44242,-0.04303 l 1.87666,-1.876666 c 0.1997,-0.199693 0.1737,0.225693 -0.026,0.425386 l -1.35644,1.356445 c -0.19969,0.199693 0.39222,0.0072 0.59192,-0.192532 l 0.80514,-0.805146 m -5.61656,4.418409 -4.48623,4.486228 c -0.19969,0.199693 -0.0739,0.473308 0.12577,0.273615 l 3.84296,-3.842961 c 0.19969,-0.199693 0.0401,0.359294 -0.1596,0.558987 l -3.54379,3.543794 c -0.1997,0.199693 -0.0428,0.442215 0.15686,0.242523 l 3.35447,-3.354474 c 0.1997,-0.199693 0.25265,0.146743 0.0529,0.346436 l -3.23732,3.237323 c -0.19969,0.199693 -0.0168,0.416159 0.18292,0.216466 l 3.1575,-3.157506 c 0.1997,-0.199693 0.351,0.04839 0.15131,0.248082 l -3.10973,3.109724 c -0.19969,0.199693 0.0124,0.387006 0.21208,0.187313 l 3.09517,-3.095177 c 0.1997,-0.199693 0.44256,-0.04317 0.24286,0.156525 l -3.11258,3.112581 c -0.19969,0.199693 0.0434,0.355997 0.24308,0.156304 l 3.15412,-3.154113 c 0.19969,-0.199693 0.52659,-0.127203 0.32689,0.07249 l -3.223,3.223004 c -0.19969,0.199693 0.0775,0.321877 0.2772,0.122184 L 118.15419,43.535 c 0.19969,-0.199693 0.57831,-0.178929 0.37862,0.02076 l -3.4206,3.420602 c -0.1997,0.199693 0.11815,0.281233 0.31784,0.08154 l 3.50214,-3.502142 c 0.1997,-0.199693 0.59908,-0.199693 0.39939,0 l -3.56312,3.563118 c -0.19969,0.199693 0.16689,0.232496 0.36658,0.0328 l 3.59593,-3.595921 c 0.19969,-0.199693 0.59907,-0.199693 0.39938,0 l -3.6044,3.604405 c -0.1997,0.199693 0.19969,0.199693 0.39938,0 l 3.60555,-3.605549 c 0.19969,-0.199693 0.58786,-0.18847 0.38816,0.01122 l -3.59432,3.594327 c -0.1997,0.199693 0.19969,0.199693 0.39938,0 l 3.55963,-3.559623 c 0.19969,-0.199693 0.53859,-0.139203 0.33889,0.06049 l -3.49913,3.499133 c -0.19969,0.199693 0.19969,0.199693 0.39939,0 l 3.4066,-3.406609 c 0.1997,-0.199693 0.4724,-0.07301 0.27271,0.126684 l -3.27993,3.279925 c -0.19969,0.199693 0.19969,0.199693 0.39939,0 l 3.1151,-3.115108 c 0.1997,-0.199693 0.39022,0.0092 0.19053,0.208858 l -2.90625,2.90625 c -0.19969,0.199693 0.1997,0.199693 0.39939,0 l 2.6483,-2.648297 c 0.19969,-0.199693 0.28323,0.116148 0.0835,0.315841 l -2.33371,2.333713 c -0.1997,0.199693 0.26661,0.13277 0.46631,-0.06692 l 1.91478,-1.914785 c 0.19969,-0.199693 0.11939,0.280001 -0.0803,0.479694 l -1.34129,1.341298 c -0.1997,0.199693 0.45906,-0.05968 0.65875,-0.259371 l 0.6882,-0.688201"
             id="path1202" />
        </g>
      </g>
    </g>
  </g>
  <WCB
     layer="0"
     node="0"
     lastpath="0"
     lastpathnc="0"
     lastknownposx="0"
     lastknownposy="0"
     pausedposx="0"
     pausedposy="0"
     randseed="0"
     row="0"
     application="Axidraw" />
</svg>
